<svg width="104" height="34" viewBox="0 0 104 34" fill="none" xmlns="http://www.w3.org/2000/svg">
<rect x="1" y="1" width="102" height="32" rx="12" fill="white" stroke="#BDCAC2"/>
<path d="M28.9082 22.1299C30.7744 22.1299 31.998 20.6191 31.998 18.3223V18.3086C31.998 15.998 30.7812 14.501 28.9082 14.501C27.8965 14.501 27.0146 15.0068 26.6113 15.793H26.502V11.7051H25.3125V22H26.502V20.8242H26.6113C27.0625 21.6445 27.8828 22.1299 28.9082 22.1299ZM28.6348 21.0771C27.2949 21.0771 26.4746 20.0244 26.4746 18.3223V18.3086C26.4746 16.6064 27.2949 15.5537 28.6348 15.5537C29.9814 15.5537 30.7812 16.5928 30.7812 18.3086V18.3223C30.7812 20.0381 29.9814 21.0771 28.6348 21.0771ZM36.8516 22.1299C38.5879 22.1299 39.6406 21.1455 39.8936 20.1475L39.9072 20.0928H38.7178L38.6904 20.1543C38.4922 20.5986 37.877 21.0703 36.8789 21.0703C35.5664 21.0703 34.7256 20.1816 34.6914 18.6572H39.9961V18.1924C39.9961 15.9912 38.7793 14.501 36.7764 14.501C34.7734 14.501 33.4746 16.0596 33.4746 18.3359V18.3428C33.4746 20.6533 34.7461 22.1299 36.8516 22.1299ZM36.7695 15.5605C37.8564 15.5605 38.6631 16.251 38.7861 17.707H34.7119C34.8418 16.3057 35.6758 15.5605 36.7695 15.5605ZM43.8652 22.1299C44.8564 22.1299 45.6289 21.6992 46.0938 20.9131H46.2031V22H47.3926V16.9551C47.3926 15.4238 46.3877 14.501 44.5898 14.501C43.0176 14.501 41.8965 15.2803 41.7051 16.4355L41.6982 16.4766H42.8877L42.8945 16.4561C43.0859 15.8818 43.667 15.5537 44.5488 15.5537C45.6494 15.5537 46.2031 16.0459 46.2031 16.9551V17.625L44.0908 17.7549C42.375 17.8574 41.4043 18.6162 41.4043 19.9287V19.9424C41.4043 21.2822 42.4639 22.1299 43.8652 22.1299ZM42.6211 19.915V19.9014C42.6211 19.1699 43.1133 18.7734 44.2344 18.7051L46.2031 18.582V19.252C46.2031 20.3047 45.3213 21.0977 44.1113 21.0977C43.2568 21.0977 42.6211 20.6602 42.6211 19.915ZM52.5811 22.1299C54.3516 22.1299 55.3428 21.1797 55.6436 19.8467L55.6572 19.7715L54.4814 19.7783L54.4678 19.8193C54.1943 20.6396 53.5654 21.0771 52.5742 21.0771C51.2617 21.0771 50.4141 19.9902 50.4141 18.2949V18.2812C50.4141 16.6201 51.248 15.5537 52.5742 15.5537C53.6338 15.5537 54.29 16.1416 54.4746 16.8662L54.4814 16.8867H55.6641L55.6572 16.8457C55.4385 15.5332 54.3652 14.501 52.5742 14.501C50.5098 14.501 49.1973 15.9912 49.1973 18.2812V18.2949C49.1973 20.6328 50.5166 22.1299 52.5811 22.1299ZM57.4688 22H58.6582V17.6387C58.6582 16.3467 59.4033 15.5537 60.5791 15.5537C61.7549 15.5537 62.3018 16.1895 62.3018 17.5156V22H63.4912V17.2285C63.4912 15.4785 62.5684 14.501 60.9141 14.501C59.8271 14.501 59.1367 14.959 58.7676 15.7383H58.6582V11.7051H57.4688V22ZM68.6523 22.1299C70.3887 22.1299 71.4414 21.1455 71.6943 20.1475L71.708 20.0928H70.5186L70.4912 20.1543C70.293 20.5986 69.6777 21.0703 68.6797 21.0703C67.3672 21.0703 66.5264 20.1816 66.4922 18.6572H71.7969V18.1924C71.7969 15.9912 70.5801 14.501 68.5771 14.501C66.5742 14.501 65.2754 16.0596 65.2754 18.3359V18.3428C65.2754 20.6533 66.5469 22.1299 68.6523 22.1299ZM68.5703 15.5605C69.6572 15.5605 70.4639 16.251 70.5869 17.707H66.5127C66.6426 16.3057 67.4766 15.5605 68.5703 15.5605ZM76.1719 22.1299C77.8467 22.1299 79.125 21.2207 79.125 19.9082V19.8945C79.125 18.8418 78.4551 18.2402 77.0674 17.9053L75.9326 17.6318C75.0645 17.4199 74.6953 17.1055 74.6953 16.6064V16.5928C74.6953 15.9434 75.3379 15.4922 76.2129 15.4922C77.1016 15.4922 77.6758 15.8955 77.833 16.4766H79.002C78.8379 15.2734 77.7646 14.501 76.2197 14.501C74.6543 14.501 73.4785 15.4238 73.4785 16.6475V16.6543C73.4785 17.7139 74.1006 18.3154 75.4814 18.6436L76.623 18.917C77.5322 19.1357 77.9082 19.4844 77.9082 19.9834V19.9971C77.9082 20.667 77.2041 21.1387 76.2129 21.1387C75.2695 21.1387 74.6816 20.7354 74.4834 20.1201H73.2666C73.4033 21.3369 74.5312 22.1299 76.1719 22.1299Z" fill="#BDCAC2"/>
</svg>
