<svg width="94" height="34" viewBox="0 0 94 34" fill="none" xmlns="http://www.w3.org/2000/svg">
<rect x="1" y="1" width="92" height="32" rx="12" fill="white" stroke="#BDCAC2"/>
<path d="M29.1787 22.1299C31.0449 22.1299 32.2686 20.6191 32.2686 18.3223V18.3086C32.2686 15.998 31.0518 14.501 29.1787 14.501C28.167 14.501 27.2852 15.0068 26.8818 15.793H26.7725V11.7051H25.583V22H26.7725V20.8242H26.8818C27.333 21.6445 28.1533 22.1299 29.1787 22.1299ZM28.9053 21.0771C27.5654 21.0771 26.7451 20.0244 26.7451 18.3223V18.3086C26.7451 16.6064 27.5654 15.5537 28.9053 15.5537C30.252 15.5537 31.0518 16.5928 31.0518 18.3086V18.3223C31.0518 20.0381 30.252 21.0771 28.9053 21.0771ZM37.1426 22.1299C39.2412 22.1299 40.54 20.6807 40.54 18.3223V18.3086C40.54 15.9434 39.2412 14.501 37.1426 14.501C35.0439 14.501 33.7451 15.9434 33.7451 18.3086V18.3223C33.7451 20.6807 35.0439 22.1299 37.1426 22.1299ZM37.1426 21.0771C35.748 21.0771 34.9619 20.0586 34.9619 18.3223V18.3086C34.9619 16.5654 35.748 15.5537 37.1426 15.5537C38.5371 15.5537 39.3232 16.5654 39.3232 18.3086V18.3223C39.3232 20.0586 38.5371 21.0771 37.1426 21.0771ZM45.0039 22.0547C45.2363 22.0547 45.4619 22.0273 45.6943 21.9863V20.9746C45.4756 20.9951 45.3594 21.002 45.1475 21.002C44.3818 21.002 44.0811 20.6533 44.0811 19.7852V15.6152H45.6943V14.6309H44.0811V12.7236H42.8506V14.6309H41.6885V15.6152H42.8506V20.0859C42.8506 21.4941 43.4863 22.0547 45.0039 22.0547ZM49.4951 22.1299C50.4863 22.1299 51.2588 21.6992 51.7236 20.9131H51.833V22H53.0225V16.9551C53.0225 15.4238 52.0176 14.501 50.2197 14.501C48.6475 14.501 47.5264 15.2803 47.335 16.4355L47.3281 16.4766H48.5176L48.5244 16.4561C48.7158 15.8818 49.2969 15.5537 50.1787 15.5537C51.2793 15.5537 51.833 16.0459 51.833 16.9551V17.625L49.7207 17.7549C48.0049 17.8574 47.0342 18.6162 47.0342 19.9287V19.9424C47.0342 21.2822 48.0938 22.1299 49.4951 22.1299ZM48.251 19.915V19.9014C48.251 19.1699 48.7432 18.7734 49.8643 18.7051L51.833 18.582V19.252C51.833 20.3047 50.9512 21.0977 49.7412 21.0977C48.8867 21.0977 48.251 20.6602 48.251 19.915ZM55.1963 22H56.3857V17.6387C56.3857 16.3467 57.1309 15.5537 58.3066 15.5537C59.4824 15.5537 60.0293 16.1895 60.0293 17.5156V22H61.2188V17.2285C61.2188 15.4785 60.2959 14.501 58.6416 14.501C57.5547 14.501 56.8643 14.959 56.4951 15.7383H56.3857V14.6309H55.1963V22ZM63.7275 24.584C65.0332 24.584 65.6416 24.1055 66.25 22.4512L69.1279 14.6309H67.877L65.8604 20.6943H65.751L63.7275 14.6309H62.4561L65.1836 22.0068L65.0469 22.4443C64.7803 23.292 64.3701 23.5996 63.6934 23.5996C63.5293 23.5996 63.3447 23.5928 63.2012 23.5654V24.543C63.3652 24.5703 63.5703 24.584 63.7275 24.584Z" fill="#BDCAC2"/>
</svg>
