<svg width="91" height="34" viewBox="0 0 91 34" fill="none" xmlns="http://www.w3.org/2000/svg">
<rect x="1" y="1" width="89" height="32" rx="12" fill="white" stroke="#BDCAC2"/>
<path d="M25.4639 22H26.6533V17.6387C26.6533 16.3467 27.3984 15.5537 28.5742 15.5537C29.75 15.5537 30.2969 16.1895 30.2969 17.5156V22H31.4863V17.2285C31.4863 15.4785 30.5635 14.501 28.9092 14.501C27.8223 14.501 27.1318 14.959 26.7627 15.7383H26.6533V14.6309H25.4639V22ZM35.6631 22.1299C36.6543 22.1299 37.4268 21.6992 37.8916 20.9131H38.001V22H39.1904V16.9551C39.1904 15.4238 38.1855 14.501 36.3877 14.501C34.8154 14.501 33.6943 15.2803 33.5029 16.4355L33.4961 16.4766H34.6855L34.6924 16.4561C34.8838 15.8818 35.4648 15.5537 36.3467 15.5537C37.4473 15.5537 38.001 16.0459 38.001 16.9551V17.625L35.8887 17.7549C34.1729 17.8574 33.2021 18.6162 33.2021 19.9287V19.9424C33.2021 21.2822 34.2617 22.1299 35.6631 22.1299ZM34.4189 19.915V19.9014C34.4189 19.1699 34.9111 18.7734 36.0322 18.7051L38.001 18.582V19.252C38.001 20.3047 37.1191 21.0977 35.9092 21.0977C35.0547 21.0977 34.4189 20.6602 34.4189 19.915ZM43.9824 22.0547C44.2148 22.0547 44.4404 22.0273 44.6729 21.9863V20.9746C44.4541 20.9951 44.3379 21.002 44.126 21.002C43.3604 21.002 43.0596 20.6533 43.0596 19.7852V15.6152H44.6729V14.6309H43.0596V12.7236H41.8291V14.6309H40.667V15.6152H41.8291V20.0859C41.8291 21.4941 42.4648 22.0547 43.9824 22.0547ZM48.918 22.1299C49.998 22.1299 50.7432 21.6855 51.1055 20.8994H51.2148V22H52.4043V14.6309H51.2148V18.9922C51.2148 20.2842 50.5244 21.0771 49.2256 21.0771C48.0498 21.0771 47.5713 20.4414 47.5713 19.1152V14.6309H46.3818V19.4023C46.3818 21.1455 47.2432 22.1299 48.918 22.1299ZM54.626 22H55.8154V17.4336C55.8154 16.3535 56.6221 15.6357 57.7568 15.6357C58.0166 15.6357 58.2422 15.6631 58.4883 15.7041V14.5488C58.3721 14.5283 58.1191 14.501 57.8936 14.501C56.8955 14.501 56.2051 14.9521 55.9248 15.7246H55.8154V14.6309H54.626V22ZM62.7607 22.1299C64.4971 22.1299 65.5498 21.1455 65.8027 20.1475L65.8164 20.0928H64.627L64.5996 20.1543C64.4014 20.5986 63.7861 21.0703 62.7881 21.0703C61.4756 21.0703 60.6348 20.1816 60.6006 18.6572H65.9053V18.1924C65.9053 15.9912 64.6885 14.501 62.6855 14.501C60.6826 14.501 59.3838 16.0596 59.3838 18.3359V18.3428C59.3838 20.6533 60.6553 22.1299 62.7607 22.1299ZM62.6787 15.5605C63.7656 15.5605 64.5723 16.251 64.6953 17.707H60.6211C60.751 16.3057 61.585 15.5605 62.6787 15.5605Z" fill="#BDCAC2"/>
</svg>
