<svg width="95" height="34" viewBox="0 0 95 34" fill="none" xmlns="http://www.w3.org/2000/svg">
<rect x="1" y="1" width="93" height="32" rx="12" fill="white" stroke="#BDCAC2"/>
<path d="M27.8945 22.1299C29.5693 22.1299 30.8477 21.2207 30.8477 19.9082V19.8945C30.8477 18.8418 30.1777 18.2402 28.79 17.9053L27.6553 17.6318C26.7871 17.4199 26.418 17.1055 26.418 16.6064V16.5928C26.418 15.9434 27.0605 15.4922 27.9355 15.4922C28.8242 15.4922 29.3984 15.8955 29.5557 16.4766H30.7246C30.5605 15.2734 29.4873 14.501 27.9424 14.501C26.377 14.501 25.2012 15.4238 25.2012 16.6475V16.6543C25.2012 17.7139 25.8232 18.3154 27.2041 18.6436L28.3457 18.917C29.2549 19.1357 29.6309 19.4844 29.6309 19.9834V19.9971C29.6309 20.667 28.9268 21.1387 27.9355 21.1387C26.9922 21.1387 26.4043 20.7354 26.2061 20.1201H24.9893C25.126 21.3369 26.2539 22.1299 27.8945 22.1299ZM35.1611 22.1299C36.2412 22.1299 36.9863 21.6855 37.3486 20.8994H37.458V22H38.6475V14.6309H37.458V18.9922C37.458 20.2842 36.7676 21.0771 35.4688 21.0771C34.293 21.0771 33.8145 20.4414 33.8145 19.1152V14.6309H32.625V19.4023C32.625 21.1455 33.4863 22.1299 35.1611 22.1299ZM40.8691 22H42.0586V17.4336C42.0586 16.3535 42.8652 15.6357 44 15.6357C44.2598 15.6357 44.4854 15.6631 44.7314 15.7041V14.5488C44.6152 14.5283 44.3623 14.501 44.1367 14.501C43.1387 14.501 42.4482 14.9521 42.168 15.7246H42.0586V14.6309H40.8691V22ZM47.1035 22H48.293V15.6152H49.9678V14.6309H48.293V13.8447C48.293 13.0381 48.6348 12.6211 49.4824 12.6211C49.6943 12.6211 49.8926 12.6279 50.0361 12.6553V11.7051C49.79 11.6572 49.5303 11.6367 49.2432 11.6367C47.8418 11.6367 47.1035 12.3408 47.1035 13.8105V14.6309H45.8799V15.6152H47.1035V22ZM52.3125 13.209C52.7637 13.209 53.1328 12.8398 53.1328 12.3887C53.1328 11.9375 52.7637 11.5684 52.3125 11.5684C51.8613 11.5684 51.4922 11.9375 51.4922 12.3887C51.4922 12.8398 51.8613 13.209 52.3125 13.209ZM51.7109 22H52.9004V14.6309H51.7109V22ZM55.1426 22H56.332V17.6387C56.332 16.3467 57.0771 15.5537 58.2529 15.5537C59.4287 15.5537 59.9756 16.1895 59.9756 17.5156V22H61.165V17.2285C61.165 15.4785 60.2422 14.501 58.5879 14.501C57.501 14.501 56.8105 14.959 56.4414 15.7383H56.332V14.6309H55.1426V22ZM66.3535 24.5977C68.3633 24.5977 69.6348 23.5449 69.6348 21.8975V14.6309H68.4453V15.8477H68.3633C67.9121 15.0137 67.1055 14.501 66.0664 14.501C64.1387 14.501 62.9492 15.998 62.9492 18.0625V18.0762C62.9492 20.1406 64.1318 21.6172 66.0391 21.6172C67.0508 21.6172 67.8848 21.1592 68.3496 20.3457H68.459V21.8359C68.459 22.9229 67.6729 23.5449 66.3535 23.5449C65.2939 23.5449 64.6377 23.1484 64.5078 22.5879L64.501 22.5811H63.2705L63.2568 22.5879C63.4414 23.7979 64.5762 24.5977 66.3535 24.5977ZM66.2988 20.5645C64.9316 20.5645 64.166 19.5391 64.166 18.0762V18.0625C64.166 16.5996 64.9316 15.5537 66.2988 15.5537C67.6592 15.5537 68.4863 16.5996 68.4863 18.0625V18.0762C68.4863 19.5391 67.666 20.5645 66.2988 20.5645Z" fill="#BDCAC2"/>
</svg>
