<svg width="382" height="117" viewBox="0 0 382 117" fill="none" xmlns="http://www.w3.org/2000/svg">
<path d="M21.4814 112H23.0127V102.136H21.4814V112ZM25.4873 112H26.9775V104.836H27.0869L32.1523 112H33.5332V102.136H32.043V109.313H31.9404L26.8682 102.136H25.4873V112ZM38.5166 112H40.0479V103.455H43.1445V102.136H35.4131V103.455H38.5166V112ZM45.0244 112H51.2861V110.681H46.5557V107.611H51.0332V106.34H46.5557V103.455H51.2861V102.136H45.0244V112ZM53.501 112H55.0322V108.206H57.1924L59.2021 112H60.9727L58.7578 107.967C59.9609 107.563 60.6719 106.483 60.6719 105.157V105.144C60.6719 103.312 59.4141 102.136 57.3906 102.136H53.501V112ZM55.0322 106.962V103.421H57.1924C58.375 103.421 59.0996 104.091 59.0996 105.185V105.198C59.0996 106.319 58.416 106.962 57.2402 106.962H55.0322ZM62.8525 112H69.1143V110.681H64.3838V107.611H68.8613V106.34H64.3838V103.455H69.1143V102.136H62.8525V112ZM74.665 112.239C76.9619 112.239 78.4316 111.063 78.4316 109.177V109.17C78.4316 107.707 77.584 106.873 75.5127 106.429L74.4395 106.189C73.1611 105.916 72.6416 105.438 72.6416 104.706V104.699C72.6416 103.77 73.4961 103.229 74.6514 103.229C75.8477 103.223 76.6201 103.811 76.75 104.617L76.7637 104.706H78.2471L78.2402 104.61C78.1309 103.079 76.7637 101.896 74.6719 101.896C72.5801 101.896 71.1035 103.072 71.0967 104.774V104.781C71.0967 106.237 71.958 107.167 73.9609 107.591L75.041 107.823C76.3467 108.104 76.8799 108.596 76.8799 109.354V109.361C76.8799 110.277 75.9844 110.906 74.7266 110.906C73.4072 110.906 72.457 110.332 72.375 109.437L72.3682 109.361H70.8643L70.8711 109.45C71.0078 111.111 72.4365 112.239 74.665 112.239ZM82.9502 112H84.4814V103.455H87.5781V102.136H79.8467V103.455H82.9502V112ZM92.7939 112.239C95.0908 112.239 96.5605 111.063 96.5605 109.177V109.17C96.5605 107.707 95.7129 106.873 93.6416 106.429L92.5684 106.189C91.29 105.916 90.7705 105.438 90.7705 104.706V104.699C90.7705 103.77 91.625 103.229 92.7803 103.229C93.9766 103.223 94.749 103.811 94.8789 104.617L94.8926 104.706H96.376L96.3691 104.61C96.2598 103.079 94.8926 101.896 92.8008 101.896C90.709 101.896 89.2324 103.072 89.2256 104.774V104.781C89.2256 106.237 90.0869 107.167 92.0898 107.591L93.1699 107.823C94.4756 108.104 95.0088 108.596 95.0088 109.354V109.361C95.0088 110.277 94.1133 110.906 92.8555 110.906C91.5361 110.906 90.5859 110.332 90.5039 109.437L90.4971 109.361H88.9932L89 109.45C89.1367 111.111 90.5654 112.239 92.7939 112.239ZM99.5479 106.935C100.115 106.935 100.546 106.497 100.546 105.943C100.546 105.383 100.115 104.945 99.5479 104.945C98.9805 104.945 98.543 105.383 98.543 105.943C98.543 106.497 98.9805 106.935 99.5479 106.935ZM99.5479 112.103C100.115 112.103 100.546 111.665 100.546 111.111C100.546 110.551 100.115 110.113 99.5479 110.113C98.9805 110.113 98.543 110.551 98.543 111.111C98.543 111.665 98.9805 112.103 99.5479 112.103Z" fill="#424D47"/>
<path d="M23.7842 32H25.3154V23.4551H28.4121V22.1357H20.6807V23.4551H23.7842V32ZM30.292 32H31.8232V28.2061H33.9834L35.9932 32H37.7637L35.5488 27.9668C36.752 27.5635 37.4629 26.4834 37.4629 25.1572V25.1436C37.4629 23.3115 36.2051 22.1357 34.1816 22.1357H30.292V32ZM31.8232 26.9619V23.4209H33.9834C35.166 23.4209 35.8906 24.0908 35.8906 25.1846V25.1982C35.8906 26.3193 35.207 26.9619 34.0312 26.9619H31.8232ZM39.6436 32H41.1748V22.1357H39.6436V32ZM43.6494 32H45.1807V28.6299H47.4912C49.4258 28.6299 50.7656 27.3105 50.7656 25.3828V25.3691C50.7656 23.4346 49.4258 22.1357 47.4912 22.1357H43.6494V32ZM47.1084 23.4277C48.4346 23.4277 49.207 24.1455 49.207 25.376V25.3896C49.207 26.627 48.4346 27.3447 47.1084 27.3447H45.1807V23.4277H47.1084ZM56.0771 32.2393C58.374 32.2393 59.8438 31.0635 59.8438 29.1768V29.1699C59.8438 27.707 58.9961 26.873 56.9248 26.4287L55.8516 26.1895C54.5732 25.916 54.0537 25.4375 54.0537 24.7061V24.6992C54.0537 23.7695 54.9082 23.2295 56.0635 23.2295C57.2598 23.2227 58.0322 23.8105 58.1621 24.6172L58.1758 24.7061H59.6592L59.6523 24.6104C59.543 23.0791 58.1758 21.8965 56.084 21.8965C53.9922 21.8965 52.5156 23.0723 52.5088 24.7744V24.7812C52.5088 26.2373 53.3701 27.167 55.373 27.5908L56.4531 27.8232C57.7588 28.1035 58.292 28.5957 58.292 29.3545V29.3613C58.292 30.2773 57.3965 30.9062 56.1387 30.9062C54.8193 30.9062 53.8691 30.332 53.7871 29.4365L53.7803 29.3613H52.2764L52.2832 29.4502C52.4199 31.1113 53.8486 32.2393 56.0771 32.2393ZM68.1904 32H69.7217V23.4551H72.8184V22.1357H65.0869V23.4551H68.1904V32ZM72.8047 32H74.4111L75.3066 29.334H79.0801L79.9688 32H81.582L78.0205 22.1357H76.3662L72.8047 32ZM77.1318 23.8652H77.248L78.6699 28.1035H75.7168L77.1318 23.8652ZM83.2979 32H84.8291V28.7119L85.9365 27.4541L89.2451 32H91.1592L87.0166 26.415L90.8311 22.1357H89.0195L84.9385 26.7979H84.8291V22.1357H83.2979V32ZM92.7725 32H99.0342V30.6807H94.3037V27.6113H98.7812V26.3398H94.3037V23.4551H99.0342V22.1357H92.7725V32ZM101.249 32H102.739V24.8359H102.849L107.914 32H109.295V22.1357H107.805V29.3135H107.702L102.63 22.1357H101.249V32ZM112.747 26.9346C113.314 26.9346 113.745 26.4971 113.745 25.9434C113.745 25.3828 113.314 24.9453 112.747 24.9453C112.18 24.9453 111.742 25.3828 111.742 25.9434C111.742 26.4971 112.18 26.9346 112.747 26.9346ZM112.747 32.1025C113.314 32.1025 113.745 31.665 113.745 31.1113C113.745 30.5508 113.314 30.1133 112.747 30.1133C112.18 30.1133 111.742 30.5508 111.742 31.1113C111.742 31.665 112.18 32.1025 112.747 32.1025Z" fill="#424D47"/>
<path d="M208.277 32H214.43V30.6807H209.809V22.1357H208.277V32ZM220.206 32.2393C223.057 32.2393 224.807 30.2295 224.807 27.0713V27.0576C224.807 23.8926 223.043 21.8965 220.206 21.8965C217.376 21.8965 215.599 23.8857 215.599 27.0576V27.0713C215.599 30.2363 217.335 32.2393 220.206 32.2393ZM220.206 30.8857C218.306 30.8857 217.164 29.3818 217.164 27.0713V27.0576C217.164 24.7266 218.34 23.25 220.206 23.25C222.072 23.25 223.241 24.7266 223.241 27.0576V27.0713C223.241 29.3818 222.079 30.8857 220.206 30.8857ZM230.932 32.2393C233.133 32.2393 234.739 30.9814 235.026 29.0879V29.0469H233.509L233.495 29.0742C233.215 30.1885 232.237 30.8857 230.932 30.8857C229.154 30.8857 228.047 29.416 228.047 27.0781V27.0645C228.047 24.7197 229.154 23.25 230.925 23.25C232.224 23.25 233.215 24.0361 233.502 25.2461V25.2666H235.02L235.026 25.2324C234.767 23.2705 233.099 21.8965 230.925 21.8965C228.184 21.8965 226.481 23.8789 226.481 27.0645V27.0781C226.481 30.2568 228.19 32.2393 230.932 32.2393ZM235.997 32H237.604L238.499 29.334H242.272L243.161 32H244.774L241.213 22.1357H239.559L235.997 32ZM240.324 23.8652H240.44L241.862 28.1035H238.909L240.324 23.8652ZM247.857 32H249.389V23.4551H252.485V22.1357H244.754V23.4551H247.857V32ZM254.365 32H255.896V22.1357H254.365V32ZM262.575 32.2393C265.426 32.2393 267.176 30.2295 267.176 27.0713V27.0576C267.176 23.8926 265.412 21.8965 262.575 21.8965C259.745 21.8965 257.968 23.8857 257.968 27.0576V27.0713C257.968 30.2363 259.704 32.2393 262.575 32.2393ZM262.575 30.8857C260.675 30.8857 259.533 29.3818 259.533 27.0713V27.0576C259.533 24.7266 260.709 23.25 262.575 23.25C264.441 23.25 265.61 24.7266 265.61 27.0576V27.0713C265.61 29.3818 264.448 30.8857 262.575 30.8857ZM269.254 32H270.744V24.8359H270.854L275.919 32H277.3V22.1357H275.81V29.3135H275.707L270.635 22.1357H269.254V32ZM280.752 26.9346C281.319 26.9346 281.75 26.4971 281.75 25.9434C281.75 25.3828 281.319 24.9453 280.752 24.9453C280.185 24.9453 279.747 25.3828 279.747 25.9434C279.747 26.4971 280.185 26.9346 280.752 26.9346ZM280.752 32.1025C281.319 32.1025 281.75 31.665 281.75 31.1113C281.75 30.5508 281.319 30.1133 280.752 30.1133C280.185 30.1133 279.747 30.5508 279.747 31.1113C279.747 31.665 280.185 32.1025 280.752 32.1025Z" fill="#424D47"/>
<line x1="4.37114e-08" y1="0.5" x2="382" y2="0.500033" stroke="#E5E5E5"/>
<line x1="191.5" y1="1" x2="191.5" y2="81" stroke="#E5E5E5"/>
<line x1="4.37114e-08" y1="80.5" x2="382" y2="80.5" stroke="#E5E5E5"/>
</svg>
