<svg width="274" height="28" viewBox="0 0 274 28" fill="none" xmlns="http://www.w3.org/2000/svg">
<rect x="1" y="1" width="64" height="26" rx="12" stroke="#EC744A"/>
<path d="M19.5938 18.1113C21.0293 18.1113 22.125 17.332 22.125 16.207V16.1953C22.125 15.293 21.5508 14.7773 20.3613 14.4902L19.3887 14.2559C18.6445 14.0742 18.3281 13.8047 18.3281 13.377V13.3652C18.3281 12.8086 18.8789 12.4219 19.6289 12.4219C20.3906 12.4219 20.8828 12.7676 21.0176 13.2656H22.0195C21.8789 12.2344 20.959 11.5723 19.6348 11.5723C18.293 11.5723 17.2852 12.3633 17.2852 13.4121V13.418C17.2852 14.3262 17.8184 14.8418 19.002 15.123L19.9805 15.3574C20.7598 15.5449 21.082 15.8438 21.082 16.2715V16.2832C21.082 16.8574 20.4785 17.2617 19.6289 17.2617C18.8203 17.2617 18.3164 16.916 18.1465 16.3887H17.1035C17.2207 17.4316 18.1875 18.1113 19.5938 18.1113ZM23.7656 18H24.7852V15.6035L25.377 15.0293L27.7441 18H29.0273L26.0918 14.3379L28.8457 11.6836H27.6094L24.8789 14.4434H24.7852V9.17578H23.7656V18ZM30.7617 10.4648C31.1484 10.4648 31.4648 10.1484 31.4648 9.76172C31.4648 9.375 31.1484 9.05859 30.7617 9.05859C30.375 9.05859 30.0586 9.375 30.0586 9.76172C30.0586 10.1484 30.375 10.4648 30.7617 10.4648ZM30.2461 18H31.2656V11.6836H30.2461V18ZM33.7266 10.4648C34.1133 10.4648 34.4297 10.1484 34.4297 9.76172C34.4297 9.375 34.1133 9.05859 33.7266 9.05859C33.3398 9.05859 33.0234 9.375 33.0234 9.76172C33.0234 10.1484 33.3398 10.4648 33.7266 10.4648ZM33.2109 18H34.2305V11.6836H33.2109V18ZM36.1523 18H37.1719V14.2617C37.1719 13.1543 37.8105 12.4746 38.8184 12.4746C39.8262 12.4746 40.2949 13.0195 40.2949 14.1562V18H41.3145V13.9102C41.3145 12.4102 40.5234 11.5723 39.1055 11.5723C38.1738 11.5723 37.582 11.9648 37.2656 12.6328H37.1719V11.6836H36.1523V18ZM45.7617 20.2266C47.4844 20.2266 48.5742 19.3242 48.5742 17.9121V11.6836H47.5547V12.7266H47.4844C47.0977 12.0117 46.4062 11.5723 45.5156 11.5723C43.8633 11.5723 42.8438 12.8555 42.8438 14.625V14.6367C42.8438 16.4062 43.8574 17.6719 45.4922 17.6719C46.3594 17.6719 47.0742 17.2793 47.4727 16.582H47.5664V17.8594C47.5664 18.791 46.8926 19.3242 45.7617 19.3242C44.8535 19.3242 44.291 18.9844 44.1797 18.5039L44.1738 18.498H43.1191L43.1074 18.5039C43.2656 19.541 44.2383 20.2266 45.7617 20.2266ZM45.7148 16.7695C44.543 16.7695 43.8867 15.8906 43.8867 14.6367V14.625C43.8867 13.3711 44.543 12.4746 45.7148 12.4746C46.8809 12.4746 47.5898 13.3711 47.5898 14.625V14.6367C47.5898 15.8906 46.8867 16.7695 45.7148 16.7695Z" fill="#EC744A"/>
<rect x="206" y="1" width="67" height="26" rx="12" stroke="#EC744A"/>
<path d="M222.326 18H223.346V14.2617C223.346 13.1543 223.984 12.4746 224.992 12.4746C226 12.4746 226.469 13.0195 226.469 14.1562V18H227.488V13.9102C227.488 12.4102 226.697 11.5723 225.279 11.5723C224.348 11.5723 223.756 11.9648 223.439 12.6328H223.346V11.6836H222.326V18ZM231.068 18.1113C231.918 18.1113 232.58 17.7422 232.979 17.0684H233.072V18H234.092V13.6758C234.092 12.3633 233.23 11.5723 231.689 11.5723C230.342 11.5723 229.381 12.2402 229.217 13.2305L229.211 13.2656H230.23L230.236 13.248C230.4 12.7559 230.898 12.4746 231.654 12.4746C232.598 12.4746 233.072 12.8965 233.072 13.6758V14.25L231.262 14.3613C229.791 14.4492 228.959 15.0996 228.959 16.2246V16.2363C228.959 17.3848 229.867 18.1113 231.068 18.1113ZM230.002 16.2129V16.2012C230.002 15.5742 230.424 15.2344 231.385 15.1758L233.072 15.0703V15.6445C233.072 16.5469 232.316 17.2266 231.279 17.2266C230.547 17.2266 230.002 16.8516 230.002 16.2129ZM238.199 18.0469C238.398 18.0469 238.592 18.0234 238.791 17.9883V17.1211C238.604 17.1387 238.504 17.1445 238.322 17.1445C237.666 17.1445 237.408 16.8457 237.408 16.1016V12.5273H238.791V11.6836H237.408V10.0488H236.354V11.6836H235.357V12.5273H236.354V16.3594C236.354 17.5664 236.898 18.0469 238.199 18.0469ZM242.43 18.1113C243.355 18.1113 243.994 17.7305 244.305 17.0566H244.398V18H245.418V11.6836H244.398V15.4219C244.398 16.5293 243.807 17.209 242.693 17.209C241.686 17.209 241.275 16.6641 241.275 15.5273V11.6836H240.256V15.7734C240.256 17.2676 240.994 18.1113 242.43 18.1113ZM247.322 18H248.342V14.0859C248.342 13.1602 249.033 12.5449 250.006 12.5449C250.229 12.5449 250.422 12.5684 250.633 12.6035V11.6133C250.533 11.5957 250.316 11.5723 250.123 11.5723C249.268 11.5723 248.676 11.959 248.436 12.6211H248.342V11.6836H247.322V18ZM254.295 18.1113C255.783 18.1113 256.686 17.2676 256.902 16.4121L256.914 16.3652H255.895L255.871 16.418C255.701 16.7988 255.174 17.2031 254.318 17.2031C253.193 17.2031 252.473 16.4414 252.443 15.1348H256.99V14.7363C256.99 12.8496 255.947 11.5723 254.23 11.5723C252.514 11.5723 251.4 12.9082 251.4 14.8594V14.8652C251.4 16.8457 252.49 18.1113 254.295 18.1113ZM254.225 12.4805C255.156 12.4805 255.848 13.0723 255.953 14.3203H252.461C252.572 13.1191 253.287 12.4805 254.225 12.4805Z" fill="#EC744A"/>
<rect x="75" y="1" width="121" height="26" rx="12" stroke="#EC744A"/>
<path d="M91.4434 18H92.4629V14.0859C92.4629 13.1953 93.0898 12.4746 93.916 12.4746C94.7129 12.4746 95.2285 12.9609 95.2285 13.7109V18H96.248V13.9395C96.248 13.1367 96.8281 12.4746 97.707 12.4746C98.5977 12.4746 99.0254 12.9375 99.0254 13.8691V18H100.045V13.6348C100.045 12.3105 99.3242 11.5723 98.0352 11.5723C97.1621 11.5723 96.4414 12.0117 96.1016 12.6797H96.0078C95.7148 12.0234 95.1172 11.5723 94.2617 11.5723C93.4355 11.5723 92.8379 11.9648 92.5566 12.6445H92.4629V11.6836H91.4434V18ZM104.48 18.1113C106.279 18.1113 107.393 16.8691 107.393 14.8477V14.8359C107.393 12.8086 106.279 11.5723 104.48 11.5723C102.682 11.5723 101.568 12.8086 101.568 14.8359V14.8477C101.568 16.8691 102.682 18.1113 104.48 18.1113ZM104.48 17.209C103.285 17.209 102.611 16.3359 102.611 14.8477V14.8359C102.611 13.3418 103.285 12.4746 104.48 12.4746C105.676 12.4746 106.35 13.3418 106.35 14.8359V14.8477C106.35 16.3359 105.676 17.209 104.48 17.209ZM111.09 18.1113C112.016 18.1113 112.654 17.7305 112.965 17.0566H113.059V18H114.078V11.6836H113.059V15.4219C113.059 16.5293 112.467 17.209 111.354 17.209C110.346 17.209 109.936 16.6641 109.936 15.5273V11.6836H108.916V15.7734C108.916 17.2676 109.654 18.1113 111.09 18.1113ZM115.982 18H117.002V14.2617C117.002 13.1543 117.641 12.4746 118.648 12.4746C119.656 12.4746 120.125 13.0195 120.125 14.1562V18H121.145V13.9102C121.145 12.4102 120.354 11.5723 118.936 11.5723C118.004 11.5723 117.412 11.9648 117.096 12.6328H117.002V11.6836H115.982V18ZM125.234 18.0469C125.434 18.0469 125.627 18.0234 125.826 17.9883V17.1211C125.639 17.1387 125.539 17.1445 125.357 17.1445C124.701 17.1445 124.443 16.8457 124.443 16.1016V12.5273H125.826V11.6836H124.443V10.0488H123.389V11.6836H122.393V12.5273H123.389V16.3594C123.389 17.5664 123.934 18.0469 125.234 18.0469ZM129.084 18.1113C129.934 18.1113 130.596 17.7422 130.994 17.0684H131.088V18H132.107V13.6758C132.107 12.3633 131.246 11.5723 129.705 11.5723C128.357 11.5723 127.396 12.2402 127.232 13.2305L127.227 13.2656H128.246L128.252 13.248C128.416 12.7559 128.914 12.4746 129.67 12.4746C130.613 12.4746 131.088 12.8965 131.088 13.6758V14.25L129.277 14.3613C127.807 14.4492 126.975 15.0996 126.975 16.2246V16.2363C126.975 17.3848 127.883 18.1113 129.084 18.1113ZM128.018 16.2129V16.2012C128.018 15.5742 128.439 15.2344 129.4 15.1758L131.088 15.0703V15.6445C131.088 16.5469 130.332 17.2266 129.295 17.2266C128.562 17.2266 128.018 16.8516 128.018 16.2129ZM134.51 10.4648C134.896 10.4648 135.213 10.1484 135.213 9.76172C135.213 9.375 134.896 9.05859 134.51 9.05859C134.123 9.05859 133.807 9.375 133.807 9.76172C133.807 10.1484 134.123 10.4648 134.51 10.4648ZM133.994 18H135.014V11.6836H133.994V18ZM136.936 18H137.955V14.2617C137.955 13.1543 138.594 12.4746 139.602 12.4746C140.609 12.4746 141.078 13.0195 141.078 14.1562V18H142.098V13.9102C142.098 12.4102 141.307 11.5723 139.889 11.5723C138.957 11.5723 138.365 11.9648 138.049 12.6328H137.955V11.6836H136.936V18ZM150.459 18.1113C152.059 18.1113 153.107 16.8164 153.107 14.8477V14.8359C153.107 12.8555 152.064 11.5723 150.459 11.5723C149.592 11.5723 148.836 12.0059 148.49 12.6797H148.396V9.17578H147.377V18H148.396V16.9922H148.49C148.877 17.6953 149.58 18.1113 150.459 18.1113ZM150.225 17.209C149.076 17.209 148.373 16.3066 148.373 14.8477V14.8359C148.373 13.377 149.076 12.4746 150.225 12.4746C151.379 12.4746 152.064 13.3652 152.064 14.8359V14.8477C152.064 16.3184 151.379 17.209 150.225 17.209ZM155.229 10.4648C155.615 10.4648 155.932 10.1484 155.932 9.76172C155.932 9.375 155.615 9.05859 155.229 9.05859C154.842 9.05859 154.525 9.375 154.525 9.76172C154.525 10.1484 154.842 10.4648 155.229 10.4648ZM154.713 18H155.732V11.6836H154.713V18ZM157.713 18H158.732V15.6035L159.324 15.0293L161.691 18H162.975L160.039 14.3379L162.793 11.6836H161.557L158.826 14.4434H158.732V9.17578H157.713V18ZM164.709 10.4648C165.096 10.4648 165.412 10.1484 165.412 9.76172C165.412 9.375 165.096 9.05859 164.709 9.05859C164.322 9.05859 164.006 9.375 164.006 9.76172C164.006 10.1484 164.322 10.4648 164.709 10.4648ZM164.193 18H165.213V11.6836H164.193V18ZM167.135 18H168.154V14.2617C168.154 13.1543 168.793 12.4746 169.801 12.4746C170.809 12.4746 171.277 13.0195 171.277 14.1562V18H172.297V13.9102C172.297 12.4102 171.506 11.5723 170.088 11.5723C169.156 11.5723 168.564 11.9648 168.248 12.6328H168.154V11.6836H167.135V18ZM176.744 20.2266C178.467 20.2266 179.557 19.3242 179.557 17.9121V11.6836H178.537V12.7266H178.467C178.08 12.0117 177.389 11.5723 176.498 11.5723C174.846 11.5723 173.826 12.8555 173.826 14.625V14.6367C173.826 16.4062 174.84 17.6719 176.475 17.6719C177.342 17.6719 178.057 17.2793 178.455 16.582H178.549V17.8594C178.549 18.791 177.875 19.3242 176.744 19.3242C175.836 19.3242 175.273 18.9844 175.162 18.5039L175.156 18.498H174.102L174.09 18.5039C174.248 19.541 175.221 20.2266 176.744 20.2266ZM176.697 16.7695C175.525 16.7695 174.869 15.8906 174.869 14.6367V14.625C174.869 13.3711 175.525 12.4746 176.697 12.4746C177.863 12.4746 178.572 13.3711 178.572 14.625V14.6367C178.572 15.8906 177.869 16.7695 176.697 16.7695Z" fill="#EC744A"/>
</svg>
