<svg width="342" height="193" viewBox="0 0 342 193" fill="none" xmlns="http://www.w3.org/2000/svg">
<path d="M290.369 94.4275H258.744V124.216H290.369V94.4275Z" fill="#638073"/>
<path d="M212.796 57.5364V71.8709H192.314C182.939 71.8709 175.338 79.4736 175.338 88.8548V57.5364H212.796Z" fill="#BDCAC2"/>
<path d="M141.907 44.7383L127.366 57.5371L83.2015 57.5572V57.5371H83.2128L97.7534 44.7383H141.907Z" fill="#638074"/>
<path d="M321.515 148.39V182.769H44.3844V102.169L83.2016 75.54V57.5571H127.367V57.5362L151.352 36.4241L175.339 57.5362V88.854C175.339 79.4735 182.939 71.87 192.316 71.87C201.692 71.87 209.292 79.4727 209.292 88.854V94.4034C218.794 92.9445 227.668 85.8449 234.253 71.8708C238.781 81.4844 244.126 87.5986 250.094 91.1203C252.771 92.7 255.695 93.818 258.742 94.4274V124.216L289.893 148.39H321.515Z" fill="white"/>
<path d="M258.744 124.216H290.369L321.518 148.391H289.893L258.744 124.216Z" fill="#FED4C7"/>
<path d="M234.069 40.9104C232.291 40.9104 230.586 41.6171 229.328 42.8751C228.071 44.1331 227.365 45.8392 227.365 47.6183C227.365 51.3227 234.069 61.3376 234.069 61.3376C234.069 61.3376 240.774 51.3235 240.774 47.6183C240.774 45.8394 240.067 44.1333 238.81 42.8754C237.553 41.6174 235.848 40.9106 234.069 40.9104ZM234.069 49.6347C233.675 49.6349 233.288 49.5179 232.96 49.2985C232.632 49.0791 232.376 48.7671 232.224 48.4022C232.073 48.0372 232.034 47.6356 232.111 47.2481C232.188 46.8606 232.378 46.5046 232.657 46.2252C232.936 45.9459 233.292 45.7557 233.679 45.6786C234.067 45.6016 234.468 45.6412 234.833 45.7925C235.198 45.9437 235.51 46.1998 235.729 46.5284C235.948 46.857 236.065 47.2432 236.065 47.6383C236.065 48.1677 235.854 48.6754 235.48 49.0497C235.106 49.4241 234.599 49.6345 234.069 49.6347Z" fill="#EC744A"/>
<path d="M234.25 71.8717C227.666 85.845 218.791 92.9414 209.29 94.4035V88.854C209.29 79.4744 201.69 71.8701 192.313 71.8701L234.25 71.8717Z" fill="#59221D"/>
<path d="M258.744 71.8716V54.2388" stroke="#59221D" stroke-width="0.3" stroke-miterlimit="10"/>
<path d="M251.663 57.5371H262.31" stroke="#59221D" stroke-width="0.3" stroke-miterlimit="10"/>
<path d="M254.049 59.1731H262.31" stroke="#59221D" stroke-width="0.3" stroke-miterlimit="10"/>
<path d="M152.26 63.0551C155.771 63.0551 158.617 60.208 158.617 56.6958C158.617 53.1836 155.771 50.3364 152.26 50.3364C148.75 50.3364 145.904 53.1836 145.904 56.6958C145.904 60.208 148.75 63.0551 152.26 63.0551Z" fill="#BDCAC2"/>
<path d="M151.148 61.384C154.658 61.384 157.504 58.5368 157.504 55.0246C157.504 51.5125 154.658 48.6653 151.148 48.6653C147.637 48.6653 144.791 51.5125 144.791 55.0246C144.791 58.5368 147.637 61.384 151.148 61.384Z" stroke="#59221D" stroke-width="0.3" stroke-miterlimit="10"/>
<path d="M151.147 48.6653V61.384" stroke="#59221D" stroke-width="0.3" stroke-miterlimit="10"/>
<path d="M157.503 55.0247H144.791" stroke="#59221D" stroke-width="0.3" stroke-miterlimit="10"/>
<path d="M122.68 34.8594V48.388C122.68 49.1141 122.392 49.8103 121.879 50.3237C121.366 50.8371 120.67 51.1255 119.944 51.1255V51.1255C119.219 51.1251 118.523 50.8365 118.01 50.3232C117.498 49.8098 117.209 49.1138 117.209 48.388V34.8594C117.209 35.5854 117.498 36.2817 118.011 36.7951C118.524 37.3084 119.22 37.5968 119.946 37.5968C120.671 37.5968 121.367 37.3084 121.881 36.7951C122.394 36.2817 122.682 35.5854 122.682 34.8594H122.68Z" stroke="#59221D" stroke-width="0.3" stroke-miterlimit="10"/>
<path d="M119.946 37.597C121.457 37.597 122.682 36.3714 122.682 34.8595C122.682 33.3477 121.457 32.1221 119.946 32.1221C118.435 32.1221 117.209 33.3477 117.209 34.8595C117.209 36.3714 118.435 37.597 119.946 37.597Z" stroke="#59221D" stroke-width="0.3" stroke-miterlimit="10"/>
<path d="M121.568 50.8252L129.286 44.7383H122.682V49.0875L121.568 50.8252Z" fill="#59221D"/>
<path d="M103.135 63.3596H89.3668V68.7777H103.135V63.3596Z" stroke="#EC744A" stroke-width="0.3" stroke-miterlimit="10" stroke-linecap="round"/>
<path d="M119.212 63.3596H105.444V68.7777H119.212V63.3596Z" stroke="#EC744A" stroke-width="0.3" stroke-miterlimit="10" stroke-linecap="round"/>
<path d="M103.135 71.2429H89.3668V76.661H103.135V71.2429Z" stroke="#EC744A" stroke-width="0.3" stroke-miterlimit="10" stroke-linecap="round"/>
<path d="M119.212 71.2429H105.444V76.661H119.212V71.2429Z" fill="#EC744A"/>
<path d="M234.315 95.5491H235.026C237.698 95.5491 240.262 96.6113 242.152 98.5021C244.042 100.393 245.104 102.957 245.104 105.631V150.026H224.237V105.631C224.237 102.957 225.298 100.393 227.188 98.5021C229.078 96.6113 231.642 95.5491 234.315 95.5491V95.5491Z" stroke="#EC744A" stroke-width="0.3" stroke-miterlimit="10" stroke-linecap="round"/>
<path d="M234.67 95.5491V150.026" stroke="#EC744A" stroke-width="0.3" stroke-miterlimit="10" stroke-linecap="round"/>
<path d="M224.237 106.507H245.104" stroke="#EC744A" stroke-width="0.3" stroke-miterlimit="10" stroke-linecap="round"/>
<path d="M224.237 117.406H245.104" stroke="#EC744A" stroke-width="0.3" stroke-miterlimit="10" stroke-linecap="round"/>
<path d="M224.237 128.303H245.104" stroke="#EC744A" stroke-width="0.3" stroke-miterlimit="10" stroke-linecap="round"/>
<path d="M224.237 139.202H245.104" stroke="#EC744A" stroke-width="0.3" stroke-miterlimit="10" stroke-linecap="round"/>
<path d="M290.369 94.4274H258.744C255.696 93.8186 252.772 92.7006 250.096 91.1203C244.127 87.5953 238.783 81.4819 234.254 71.8716H265.879C272.497 85.9218 280.861 92.5047 290.369 94.4274Z" fill="#638073"/>
<path d="M151.353 36.4241H188.81L212.796 57.5371H175.339L151.353 36.4241Z" fill="white" stroke="#EC744A" stroke-width="0.3" stroke-linejoin="round"/>
<path d="M183.281 36.4241L207.267 57.5371" stroke="#EC744A" stroke-width="0.3" stroke-miterlimit="10" stroke-linecap="round"/>
<path d="M177.167 36.4241L201.154 57.5371" stroke="#EC744A" stroke-width="0.3" stroke-miterlimit="10" stroke-linecap="round"/>
<path d="M171.055 36.4241L195.041 57.5371" stroke="#EC744A" stroke-width="0.3" stroke-miterlimit="10" stroke-linecap="round"/>
<path d="M164.942 36.4241L188.928 57.5371" stroke="#EC744A" stroke-width="0.3" stroke-miterlimit="10" stroke-linecap="round"/>
<path d="M158.828 36.4241L182.815 57.5371" stroke="#EC744A" stroke-width="0.3" stroke-miterlimit="10" stroke-linecap="round"/>
<path d="M127.367 57.5371L151.353 36.4241H188.81" stroke="#EC744A" stroke-width="0.3" stroke-miterlimit="10" stroke-linecap="round"/>
<path d="M83.3673 57.5571V75.4784L44.3844 102.169V182.77" stroke="#EC744A" stroke-width="0.3" stroke-miterlimit="10" stroke-linecap="round"/>
<path d="M141.086 24.7774C138.789 24.8445 136.519 24.2682 134.532 23.1134C134.045 24.1777 133.283 25.0924 132.325 25.7628C131.366 26.4331 130.246 26.8348 129.08 26.926C127.913 27.0172 126.744 26.7947 125.693 26.2815C124.642 25.7684 123.747 24.9833 123.101 24.0076C122.456 23.0319 122.083 21.9012 122.021 20.7327C121.959 19.5642 122.211 18.4004 122.75 17.362C123.289 16.3237 124.096 15.4485 125.088 14.8273C126.079 14.2061 127.218 13.8615 128.387 13.8292H128.439C129.358 13.8103 130.27 13.9852 131.117 14.3425C131.963 14.6997 132.725 15.2312 133.353 15.9025C132.816 15.0404 132.085 14.315 131.22 13.7835C130.354 13.252 129.377 12.9289 128.366 12.8398C128.366 12.8037 128.366 12.7693 128.366 12.7332C128.298 10.2834 128.958 7.86859 130.262 5.79407C131.566 3.71955 133.456 2.07852 135.693 1.07851C137.929 0.0785007 140.412 -0.235579 142.827 0.17599C145.242 0.587558 147.48 1.70629 149.26 3.39071C151.039 5.07514 152.279 7.24959 152.823 9.63912C153.367 12.0286 153.191 14.5259 152.316 16.8151C151.442 19.1043 149.908 21.0826 147.91 22.4999C145.911 23.9172 143.537 24.7097 141.089 24.7774H141.086Z" fill="#BDCAC2"/>
<path d="M120.175 30.2715C121.358 30.2715 122.317 29.3124 122.317 28.1293C122.317 26.9462 121.358 25.9871 120.175 25.9871C118.993 25.9871 118.034 26.9462 118.034 28.1293C118.034 29.3124 118.993 30.2715 120.175 30.2715Z" fill="#BDCAC2"/>
<path d="M205.55 26.6345H283.45C283.45 26.1563 283.347 25.6837 283.149 25.2483C282.952 24.8129 282.664 24.4247 282.304 24.1095C281.945 23.7942 281.522 23.5593 281.065 23.4203C280.607 23.2813 280.126 23.2415 279.652 23.3034L273.499 24.1142C273.174 24.1572 272.842 24.1301 272.528 24.0348C272.214 23.9395 271.923 23.7782 271.676 23.5616C271.429 23.345 271.232 23.0781 271.096 22.7788C270.96 22.4795 270.89 22.1547 270.89 21.8262C270.89 21.3563 270.785 20.8924 270.584 20.4683C270.382 20.0441 270.088 19.6703 269.723 19.3741C269.359 19.0779 268.933 18.8669 268.476 18.7562C268.02 18.6456 267.544 18.6382 267.085 18.7346L259.038 20.429C258.533 20.5348 258.011 20.5267 257.51 20.4052C257.009 20.2838 256.542 20.0521 256.142 19.727C255.741 19.4019 255.419 18.9916 255.197 18.526C254.975 18.0604 254.86 17.5511 254.86 17.0354C254.86 14.9697 254.04 12.9887 252.58 11.528C251.12 10.0674 249.14 9.24683 247.075 9.24683C246.945 9.24683 246.815 9.24683 246.686 9.24683C243.12 9.3021 239.615 10.1761 236.403 11.7303L205.55 26.6345Z" fill="#BDCAC2"/>
<path d="M224.237 182.77H342C342 182.77 342 144.787 307.782 144.054C280.696 143.474 283.453 167.157 264.015 167.467C254.254 167.623 224.237 154.853 224.237 182.77Z" fill="#EC744A"/>
<path d="M328.103 179.648C328.104 180.702 327.967 181.751 327.695 182.769H304.431C303.987 181.112 303.902 179.38 304.181 177.689C304.46 175.997 305.097 174.384 306.049 172.958C307.001 171.532 308.246 170.326 309.702 169.42C311.157 168.514 312.789 167.93 314.489 167.706C316.188 167.482 317.916 167.623 319.556 168.121C321.196 168.619 322.712 169.461 324 170.591C325.289 171.722 326.322 173.115 327.029 174.677C327.737 176.239 328.103 177.934 328.103 179.648Z" fill="white"/>
<path d="M316.063 167.597V182.603" stroke="#F3B304" stroke-width="0.3" stroke-miterlimit="10" stroke-linecap="round"/>
<path d="M319.018 168.051L316.063 172.099" stroke="#F3B304" stroke-width="0.3" stroke-miterlimit="10" stroke-linecap="round"/>
<path d="M309.914 169.241L316.063 176.915" stroke="#F3B304" stroke-width="0.3" stroke-miterlimit="10" stroke-linecap="round"/>
<path d="M325.706 172.446L323.169 177.33" stroke="#F3B304" stroke-width="0.3" stroke-miterlimit="10" stroke-linecap="round"/>
<path d="M306.536 172.099H312.172" stroke="#F3B304" stroke-width="0.3" stroke-miterlimit="10" stroke-linecap="round"/>
<path d="M304.115 178.234L308.992 182.637" stroke="#F3B304" stroke-width="0.3" stroke-miterlimit="10" stroke-linecap="round"/>
<path d="M316.063 179.335L327.636 176.124" stroke="#F3B304" stroke-width="0.3" stroke-miterlimit="10" stroke-linecap="round"/>
<path d="M70.0232 168.633C80.6631 168.633 89.2885 153.053 89.2885 133.834C89.2885 114.616 80.6631 99.0356 70.0232 99.0356C59.3833 99.0356 50.7579 114.616 50.7579 133.834C50.7579 153.053 59.3833 168.633 70.0232 168.633Z" fill="#BDCAC2"/>
<path d="M70.0232 110.514V182.603" stroke="#59221D" stroke-width="0.3" stroke-miterlimit="10" stroke-linecap="round"/>
<path d="M73.7323 115.036C73.7323 115.622 73.6875 115.952 73.4408 116.484L70.8784 122.022C70.317 123.233 70.0263 124.552 70.0264 125.887" stroke="#59221D" stroke-width="0.3" stroke-miterlimit="10" stroke-linecap="round"/>
<path d="M64.0878 123.28V126.054C64.0877 127.995 64.8444 129.86 66.197 131.252L67.9508 133.057C69.2798 134.424 70.0233 136.256 70.0232 138.163" stroke="#59221D" stroke-width="0.3" stroke-miterlimit="10" stroke-linecap="round"/>
<path d="M75.7848 137.159V141.048C75.7846 142.76 75.1547 144.412 74.0151 145.689L71.5231 148.482C70.5572 149.564 70.0233 150.964 70.0232 152.415" stroke="#59221D" stroke-width="0.3" stroke-miterlimit="10" stroke-linecap="round"/>
<path d="M61.9008 147.094C61.9007 148.287 62.2448 149.454 62.8917 150.456C63.5386 151.458 64.4608 152.252 65.5475 152.742L67.4862 153.617C68.2416 153.958 68.8827 154.509 69.3327 155.206C69.7827 155.902 70.0224 156.713 70.0231 157.542" stroke="#59221D" stroke-width="0.3" stroke-miterlimit="10" stroke-linecap="round"/>
<path d="M78.94 131.982H80.8932V133.936C80.8932 134.781 80.5576 135.592 79.9604 136.189C79.3631 136.787 78.5531 137.122 77.7084 137.122H75.7545V135.168C75.7545 134.75 75.8369 134.336 75.997 133.949C76.1571 133.562 76.3918 133.211 76.6876 132.915C76.9834 132.619 77.3346 132.385 77.7211 132.224C78.1075 132.064 78.5218 131.982 78.94 131.982Z" stroke="#59221D" stroke-width="0.3" stroke-miterlimit="10" stroke-linecap="round"/>
<path d="M76.917 111.969H77.0291V112.081C77.0291 112.926 76.6936 113.737 76.0963 114.334C75.4991 114.932 74.6891 115.267 73.8444 115.267H73.7323V115.155C73.7323 114.31 74.0678 113.5 74.6651 112.902C75.2623 112.305 76.0724 111.969 76.917 111.969Z" stroke="#59221D" stroke-width="0.3" stroke-miterlimit="10" stroke-linecap="round"/>
<path d="M72.648 136.068L72.6963 135.966L72.7975 136.015C73.5596 136.379 74.146 137.031 74.4275 137.828C74.7091 138.624 74.6627 139.5 74.2987 140.263L74.2504 140.364L74.1492 140.316C73.387 139.952 72.8007 139.299 72.5191 138.503C72.2376 137.706 72.2839 136.83 72.648 136.068Z" fill="#59221D"/>
<path d="M65.8823 116.814L65.9808 116.757L66.0368 116.854C66.4591 117.586 66.5736 118.455 66.355 119.272C66.1364 120.088 65.6026 120.784 64.8711 121.206L64.774 121.262L64.718 121.165C64.2958 120.434 64.1813 119.564 64.3996 118.748C64.618 117.932 65.1513 117.236 65.8823 116.814Z" fill="#59221D"/>
<path d="M75.7689 159.095L75.8733 159.136L75.8324 159.24C75.5244 160.027 74.9165 160.659 74.1426 160.998C73.3687 161.336 72.492 161.353 71.7056 161.045L71.6012 161.004L71.6421 160.9C71.9501 160.113 72.558 159.481 73.3319 159.142C74.1059 158.804 74.9825 158.787 75.7689 159.095Z" fill="#59221D"/>
<path d="M66.2292 147.133L66.2793 147.028L66.3804 147.076C67.1426 147.441 67.7289 148.093 68.0105 148.889C68.292 149.686 68.2456 150.562 67.8816 151.324L67.8333 151.426L67.7321 151.377C66.9706 151.013 66.3846 150.362 66.1028 149.566C65.821 148.77 65.8665 147.895 66.2292 147.133Z" fill="#59221D"/>
<path d="M64.0316 123.471H63.6617C62.817 123.471 62.007 123.135 61.4097 122.538C60.8125 121.94 60.4769 121.13 60.4769 120.285V119.915H60.8453C61.6899 119.915 62.5 120.25 63.0972 120.848C63.6945 121.445 64.03 122.256 64.03 123.101V123.471H64.0316Z" stroke="#59221D" stroke-width="0.3" stroke-miterlimit="10" stroke-linecap="round"/>
<path d="M68.9951 105.278L69.9622 104.31L70.9294 105.278C71.5266 105.875 71.8621 106.686 71.8621 107.531C71.8621 108.376 71.5266 109.186 70.9294 109.783L69.9645 110.749L68.9974 109.781C68.4005 109.184 68.065 108.374 68.0646 107.53C68.0642 106.685 68.3989 105.875 68.9951 105.278V105.278Z" stroke="#59221D" stroke-width="0.3" stroke-miterlimit="10" stroke-linecap="round"/>
<path d="M60.9408 141.825L61.9079 140.857L62.875 141.825C63.4723 142.422 63.8078 143.233 63.8078 144.078C63.8078 144.923 63.4723 145.733 62.875 146.33L61.9079 147.298L60.9408 146.33C60.3435 145.733 60.008 144.923 60.008 144.078C60.008 143.233 60.3435 142.422 60.9408 141.825V141.825Z" stroke="#59221D" stroke-width="0.3" stroke-miterlimit="10" stroke-linecap="round"/>
<path d="M78.9764 116.517L79.0521 116.6L78.9694 116.676C78.3461 117.246 77.522 117.545 76.6782 117.508C75.8344 117.47 75.04 117.099 74.47 116.475L74.3943 116.392L74.477 116.317C75.1002 115.746 75.9244 115.447 76.7682 115.485C77.612 115.522 78.4063 115.894 78.9764 116.517Z" fill="#59221D"/>
<path d="M248.776 171.245C256.724 171.245 263.167 161.412 263.167 149.282C263.167 137.153 256.724 127.32 248.776 127.32C240.828 127.32 234.385 137.153 234.385 149.282C234.385 161.412 240.828 171.245 248.776 171.245Z" fill="white" stroke="#59221D" stroke-width="0.3" stroke-miterlimit="10" stroke-linecap="round"/>
<path d="M247.892 131.227V182.69" stroke="#59221D" stroke-width="0.3" stroke-miterlimit="10" stroke-linecap="round"/>
<path d="M251.819 137.062C251.819 138.486 251.428 139.884 250.688 141.102L248.761 144.272C248.192 145.208 247.892 146.281 247.892 147.376" stroke="#59221D" stroke-width="0.3" stroke-miterlimit="10" stroke-linecap="round"/>
<path d="M244.016 138.867V146.286C244.016 147.894 244.481 149.467 245.354 150.817L246.621 152.779C247.451 154.063 247.892 155.559 247.892 157.088" stroke="#59221D" stroke-width="0.3" stroke-miterlimit="10" stroke-linecap="round"/>
<path d="M251.819 151.131V154.335C251.818 155.759 251.471 157.161 250.807 158.421L248.435 162.918C248.079 163.594 247.892 164.346 247.892 165.11" stroke="#59221D" stroke-width="0.3" stroke-miterlimit="10" stroke-linecap="round"/>
<path d="M252.24 173.483H254.193V175.437C254.193 176.282 253.858 177.092 253.26 177.69C252.663 178.287 251.853 178.623 251.009 178.623H249.056V176.669C249.056 175.824 249.391 175.014 249.988 174.416C250.586 173.819 251.396 173.483 252.24 173.483Z" stroke="#59221D" stroke-width="0.3" stroke-miterlimit="10" stroke-linecap="round"/>
<path d="M247.892 179.666L252.255 175.621" stroke="#59221D" stroke-width="0.3" stroke-miterlimit="10" stroke-linecap="round"/>
<path d="M251.681 149.968L251.59 149.921C251.25 149.745 250.948 149.504 250.701 149.212C250.454 148.919 250.267 148.581 250.15 148.216C250.034 147.851 249.99 147.467 250.023 147.085C250.055 146.704 250.161 146.332 250.337 145.992L250.384 145.901L250.476 145.948C251.163 146.303 251.681 146.916 251.916 147.653C252.151 148.39 252.084 149.19 251.729 149.877L251.682 149.968L251.681 149.968Z" fill="#2A6049"/>
<path d="M251.905 137.17L251.88 137.069C251.694 136.318 251.814 135.524 252.213 134.862C252.612 134.199 253.258 133.723 254.008 133.537L254.108 133.512L254.133 133.612C254.318 134.362 254.199 135.156 253.799 135.819C253.4 136.481 252.754 136.958 252.004 137.143L251.904 137.168L251.905 137.17Z" fill="#2A6049"/>
<path d="M251.797 137.154L251.709 137.103C251.039 136.716 250.551 136.079 250.351 135.332C250.151 134.585 250.255 133.789 250.642 133.12L250.693 133.031L250.785 133.084C251.454 133.47 251.943 134.107 252.143 134.854C252.343 135.601 252.238 136.397 251.851 137.067L251.8 137.156L251.797 137.154Z" stroke="#59221D" stroke-width="0.3" stroke-miterlimit="10" stroke-linecap="round"/>
<path d="M244.929 159.728L244.827 159.722C244.445 159.702 244.07 159.606 243.725 159.441C243.38 159.275 243.07 159.044 242.815 158.759C242.559 158.474 242.362 158.141 242.235 157.78C242.107 157.419 242.052 157.036 242.073 156.654L242.078 156.551L242.181 156.557C242.953 156.599 243.677 156.945 244.193 157.521C244.709 158.096 244.976 158.853 244.935 159.625L244.929 159.728Z" fill="#2A6049"/>
<path d="M252.997 149.821L252.985 149.697C252.897 148.769 253.182 147.845 253.776 147.127C254.369 146.409 255.224 145.956 256.151 145.868L256.275 145.857L256.287 145.98C256.374 146.908 256.09 147.833 255.496 148.551C254.902 149.269 254.048 149.721 253.12 149.809L252.997 149.821Z" stroke="#59221D" stroke-width="0.3" stroke-miterlimit="10" stroke-linecap="round"/>
<path d="M245.021 159.498L244.933 159.41C244.275 158.751 243.905 157.857 243.905 156.925C243.905 155.993 244.275 155.1 244.933 154.441L245.021 154.353L245.109 154.441C245.768 155.1 246.138 155.993 246.138 156.925C246.138 157.857 245.768 158.751 245.109 159.41L245.021 159.498Z" stroke="#59221D" stroke-width="0.3" stroke-miterlimit="10" stroke-linecap="round"/>
<path d="M241.088 143.014V143.562C241.088 143.987 241.257 144.395 241.557 144.695C241.857 144.996 242.265 145.165 242.689 145.165V145.165C243.042 145.165 243.381 145.305 243.63 145.555C243.88 145.804 244.02 146.143 244.02 146.496" stroke="#59221D" stroke-width="0.3" stroke-miterlimit="10" stroke-linecap="round"/>
<path d="M121.135 135.913H152.344V136.495C152.344 137.689 151.869 138.834 151.025 139.679C150.181 140.523 149.036 140.998 147.842 140.998H117.208V139.841C117.208 139.325 117.309 138.814 117.507 138.337C117.704 137.861 117.993 137.427 118.358 137.063C118.723 136.698 119.156 136.408 119.632 136.211C120.109 136.014 120.62 135.913 121.135 135.913Z" fill="#A74602"/>
<path d="M219.649 187.946C226.455 187.946 231.973 182.426 231.973 175.617C231.973 168.808 226.455 163.288 219.649 163.288C212.843 163.288 207.325 168.808 207.325 175.617C207.325 182.426 212.843 187.946 219.649 187.946Z" fill="#A74602"/>
<path d="M209.695 182.889C207.899 180.425 207.08 177.383 207.395 174.35C207.71 171.317 209.137 168.508 211.401 166.466C213.665 164.424 216.605 163.294 219.653 163.294C222.702 163.294 225.642 164.424 227.906 166.466L209.695 182.889Z" fill="#59221D"/>
<path d="M219.649 179.153C221.598 179.153 223.179 177.572 223.179 175.621C223.179 173.671 221.598 172.09 219.649 172.09C217.699 172.09 216.119 173.671 216.119 175.621C216.119 177.572 217.699 179.153 219.649 179.153Z" stroke="white" stroke-width="0.3" stroke-miterlimit="10"/>
<path d="M107.127 187.946C113.934 187.946 119.452 182.426 119.452 175.617C119.452 168.808 113.934 163.288 107.127 163.288C100.321 163.288 94.8033 168.808 94.8033 175.617C94.8033 182.426 100.321 187.946 107.127 187.946Z" fill="#A74602"/>
<path d="M95.4424 171.688C96.3748 168.916 98.2614 166.566 100.766 165.057C103.27 163.548 106.228 162.979 109.113 163.451C111.998 163.922 114.622 165.405 116.515 167.632C118.409 169.86 119.45 172.689 119.452 175.613L95.4424 171.688Z" fill="#59221D"/>
<path d="M107.133 179.153C109.082 179.153 110.663 177.572 110.663 175.621C110.663 173.671 109.082 172.09 107.133 172.09C105.184 172.09 103.603 173.671 103.603 175.621C103.603 177.572 105.184 179.153 107.133 179.153Z" stroke="white" stroke-width="0.3" stroke-miterlimit="10"/>
<path d="M202.076 116.557C202.076 117.954 201.579 119.305 200.675 120.369C199.77 121.432 198.517 122.139 197.139 122.363C195.761 122.587 194.348 122.312 193.154 121.589C191.959 120.866 191.061 119.741 190.62 118.416L200.541 112.594C201.53 113.676 202.078 115.09 202.076 116.557Z" fill="#EC744A"/>
<path d="M200.541 112.594L190.62 118.416C190.194 117.137 190.22 115.75 190.694 114.488C191.168 113.226 192.061 112.166 193.223 111.484C194.385 110.802 195.747 110.54 197.079 110.742C198.411 110.944 199.633 111.598 200.541 112.594Z" fill="white" stroke="#59221D" stroke-width="0.3" stroke-miterlimit="10" stroke-linecap="round"/>
<path d="M142.448 174.406V140.999H119.371C102.63 140.999 88.7006 153.874 87.3833 170.569H116.212C118.151 170.569 120.068 170.978 121.84 171.768C123.611 172.558 125.196 173.713 126.492 175.156L130.686 179.826C131.518 180.752 132.535 181.494 133.672 182.001C134.809 182.509 136.041 182.771 137.286 182.771H194.95C197.236 182.77 199.48 182.16 201.452 181.003L232.619 162.709C232.619 162.709 229.237 151.802 215.181 154.724L191.092 115.301C190.653 114.582 190.036 113.988 189.301 113.576C188.566 113.163 187.738 112.947 186.895 112.947H182.419V115.105H184.31C185.256 115.105 186.182 115.377 186.978 115.89C187.773 116.403 188.404 117.135 188.794 117.998L203.503 150.532C209.558 163.923 199.77 179.101 185.079 179.101H147.139C146.523 179.101 145.912 178.979 145.343 178.743C144.774 178.507 144.257 178.161 143.821 177.725C143.386 177.289 143.04 176.772 142.805 176.202C142.569 175.633 142.448 175.022 142.448 174.406Z" fill="white" stroke="#59221D" stroke-width="0.3" stroke-miterlimit="10" stroke-linecap="round"/>
<path d="M90.2435 170.491C91.5704 162.319 98.6598 156.076 107.205 156.076C116.696 156.076 124.39 163.773 124.39 173.268" stroke="#59221D" stroke-width="0.3" stroke-miterlimit="10"/>
<path d="M215.331 154.646C211.898 155.638 209.07 157.879 207.477 160.79" stroke="#59221D" stroke-width="0.3" stroke-miterlimit="10"/>
<path d="M182.648 115.588C184.003 115.588 185.102 114.488 185.102 113.132C185.102 111.776 184.003 110.677 182.648 110.677C181.292 110.677 180.193 111.776 180.193 113.132C180.193 114.488 181.292 115.588 182.648 115.588Z" fill="#59221D"/>
<path d="M185.005 96.5259C186.68 94.2631 187.342 91.9127 186.483 91.2763C185.623 90.6399 183.569 91.9584 181.894 94.2213C180.219 96.4842 179.558 98.8345 180.417 99.4709C181.276 100.107 183.33 98.7888 185.005 96.5259Z" fill="#EC744A"/>
<path d="M184.399 96.0089C186.127 93.6738 186.81 91.2483 185.923 90.5913C185.036 89.9344 182.916 91.2948 181.188 93.6299C179.459 95.965 178.777 98.3905 179.664 99.0474C180.551 99.7044 182.671 98.344 184.399 96.0089Z" stroke="#59221D" stroke-width="0.3" stroke-miterlimit="10" stroke-linecap="round"/>
<path d="M189.546 113.724V104.279C189.546 102.992 189.069 101.75 188.208 100.794L182.882 94.8833" stroke="#59221D" stroke-width="0.3" stroke-miterlimit="10" stroke-linecap="round"/>
<path d="M142.449 140.999V146.471L117.209 141.079V141.073C117.924 141.024 118.644 141 119.371 141L142.449 140.999Z" fill="#59221D"/>
<path d="M107.127 187.947H244.016" stroke="#59221D" stroke-width="0.3" stroke-miterlimit="10"/>
<path d="M153.92 192.282H232.619" stroke="#59221D" stroke-width="0.3" stroke-miterlimit="10"/>
<path d="M86.1972 175.641C85.4769 172.507 83.7154 169.71 81.2006 167.707C78.6857 165.704 75.5661 164.613 72.3516 164.614C69.6315 164.614 66.9646 163.859 64.6473 162.434C62.3301 161.009 60.4531 158.969 59.2252 156.541L55.23 148.638C53.3248 144.871 50.2058 141.855 46.3767 140.079C42.5475 138.303 38.2318 137.869 34.1262 138.849C30.0206 139.829 26.3649 142.164 23.7492 145.478C21.1336 148.792 19.7108 152.891 19.7104 157.114V160.101C21.9261 160.252 24.0647 160.976 25.9174 162.201C27.7701 163.426 29.2735 165.111 30.2808 167.091C29.0794 165.581 27.5529 164.363 25.8151 163.526C24.0773 162.689 22.1732 162.256 20.2445 162.258C20.066 162.258 19.8874 162.262 19.7104 162.269C16.3993 162.405 13.269 163.816 10.9743 166.208C8.67957 168.6 7.39819 171.787 7.39819 175.102C7.39819 178.418 8.67957 181.605 10.9743 183.997C13.269 186.388 16.3993 187.8 19.7104 187.936L105.173 187.947C93.353 187.945 87.854 182.842 86.1972 175.641ZM18.0656 170.447C17.7403 170.447 17.4223 170.351 17.1518 170.17C16.8813 169.989 16.6705 169.732 16.546 169.432C16.4215 169.131 16.3889 168.8 16.4524 168.481C16.5159 168.162 16.6725 167.869 16.9025 167.638C17.1326 167.408 17.4257 167.252 17.7447 167.188C18.0638 167.125 18.3945 167.157 18.695 167.282C18.9956 167.406 19.2525 167.617 19.4332 167.888C19.614 168.158 19.7104 168.477 19.7104 168.802C19.7104 169.238 19.5371 169.657 19.2287 169.966C18.9202 170.274 18.5018 170.447 18.0656 170.447Z" fill="#638073"/>
<path d="M2.92046 187.744C4.53339 187.744 5.84093 186.436 5.84093 184.823C5.84093 183.209 4.53339 181.901 2.92046 181.901C1.30754 181.901 0 183.209 0 184.823C0 186.436 1.30754 187.744 2.92046 187.744Z" fill="#BDCAC2"/>
<path d="M183.674 173.017C174.774 175.518 165.737 173.868 163.358 173.349C163.366 173.331 163.374 173.312 163.383 173.292L183.116 132.595V170.772C183.116 171.555 183.308 172.325 183.674 173.017Z" fill="#59221D"/>
<path d="M187.316 178.369V179.099H166.936C163.973 179.099 161.998 176.049 163.192 173.349C165.574 173.868 174.608 175.518 183.508 173.017C183.835 173.634 184.293 174.172 184.85 174.594L185.797 175.315C186.269 175.672 186.651 176.134 186.915 176.664C187.178 177.194 187.316 177.777 187.316 178.369Z" fill="#A74602" stroke="#59221D" stroke-width="0.3" stroke-miterlimit="10"/>
<path d="M181.905 135.792L164.629 171.471C164.319 172.111 164.262 172.844 164.468 173.525C164.468 173.525 153.38 178.011 143.067 176.678C142.709 176.044 142.503 175.334 142.466 174.607C142.429 173.879 142.562 173.153 142.854 172.485L157.249 139.158C157.412 138.778 157.479 138.364 157.444 137.952C157.408 137.54 157.27 137.144 157.043 136.798C156.816 136.453 156.507 136.169 156.143 135.973C155.78 135.777 155.373 135.674 154.96 135.674H134.3C132.441 135.674 130.604 135.276 128.912 134.507C127.22 133.738 125.712 132.616 124.489 131.216L152.394 118.614H171.144C179.967 118.613 185.751 127.845 181.905 135.792Z" fill="white" stroke="#59221D" stroke-width="0.3" stroke-miterlimit="10" stroke-linecap="round"/>
<path d="M159.385 123.598C168.208 123.598 173.992 132.831 170.146 140.775L152.87 176.454" stroke="#59221D" stroke-width="0.3" stroke-miterlimit="10" stroke-linecap="round" stroke-dasharray="20 20"/>
<path d="M167.743 179.099H147.198C146.356 179.102 145.527 178.878 144.8 178.452C144.073 178.026 143.474 177.412 143.065 176.675C153.377 178.005 164.466 173.521 164.466 173.521C164.611 174.006 164.885 174.443 165.257 174.786L166.261 175.716C166.728 176.147 167.101 176.67 167.356 177.252C167.611 177.834 167.743 178.463 167.743 179.099Z" fill="white" stroke="#59221D" stroke-width="0.3" stroke-miterlimit="10"/>
<path d="M157.323 81.9555L154.872 85.4332C153.371 84.4014 151.592 83.8505 149.771 83.8534H145.983C145.78 83.8534 145.576 83.8566 145.372 83.863L150.718 78.9954L157.323 81.9555Z" fill="white" stroke="#59221D" stroke-width="0.3" stroke-miterlimit="10" stroke-linecap="round"/>
<path d="M159.225 75.6987L159.822 79.3671C159.845 79.5683 159.795 79.7713 159.68 79.938C159.565 80.1048 159.393 80.2239 159.196 80.2731L159.146 80.2852C158.95 80.333 158.773 80.4389 158.639 80.589C158.504 80.7391 158.418 80.9264 158.392 81.1263L158.231 82.3457C158.198 82.5974 158.066 82.8257 157.865 82.9806C157.664 83.1355 157.409 83.2045 157.157 83.1724C155.783 82.989 153.339 82.3296 152.662 79.9583C151.705 76.6048 155.269 75.6963 155.269 75.6963L159.225 75.6987Z" fill="white" stroke="#59221D" stroke-width="0.3" stroke-miterlimit="10" stroke-linecap="round"/>
<path d="M156.161 76.9567C156.161 76.9567 156.939 76.5023 157.627 76.4902" stroke="#59221D" stroke-width="0.3" stroke-miterlimit="10" stroke-linecap="round"/>
<path d="M157.205 78.5167C157.342 78.5167 157.453 78.3193 157.453 78.0759C157.453 77.8324 157.342 77.635 157.205 77.635C157.068 77.635 156.957 77.8324 156.957 78.0759C156.957 78.3193 157.068 78.5167 157.205 78.5167Z" fill="#59221D"/>
<path d="M158.367 81.1724C157.432 81.1724 157.234 80.2634 157.234 80.2634" stroke="#59221D" stroke-width="0.3" stroke-miterlimit="10" stroke-linecap="round"/>
<path d="M150.244 78.5732L150.135 78.3329C149.605 77.1795 149.555 75.863 149.995 74.6726C150.435 73.4822 151.329 72.5152 152.482 71.9839L153.096 71.7003C153.643 71.4477 154.239 71.317 154.841 71.3171C155.444 71.3173 156.04 71.4483 156.587 71.7012C157.134 71.9541 157.62 72.3229 158.01 72.7819C158.401 73.241 158.688 73.7794 158.85 74.3601L159.225 75.698H156.206C155.817 75.698 155.444 75.8526 155.169 76.1278C154.894 76.4031 154.739 76.7764 154.739 77.1656V77.6543C154.739 78.238 154.507 78.7977 154.095 79.2105C153.682 79.6232 153.123 79.855 152.539 79.855H152.243C151.822 79.8551 151.41 79.7344 151.056 79.5072C150.702 79.28 150.42 78.9558 150.244 78.5732Z" fill="#59221D"/>
<path d="M156.233 83.872C156.212 83.8719 156.19 83.8706 156.169 83.868C155.679 83.8071 154.592 83.5083 153.624 82.7737C152.451 81.8812 151.872 80.6619 151.952 79.2487C151.959 79.1106 152.022 78.9812 152.125 78.889C152.228 78.7968 152.363 78.7494 152.501 78.7572C152.639 78.7649 152.769 78.8272 152.861 78.9304C152.953 79.0335 153 79.169 152.993 79.3071C152.85 81.8532 155.607 82.752 156.298 82.8321C156.436 82.8405 156.565 82.9035 156.657 83.0071C156.749 83.1106 156.796 83.2464 156.787 83.3845C156.779 83.5226 156.716 83.6518 156.612 83.7435C156.509 83.8352 156.373 83.882 156.235 83.8736L156.233 83.872Z" fill="#59221D"/>
<path d="M152.499 79.2487C153.214 79.2487 153.793 78.6695 153.793 77.9549C153.793 77.2404 153.214 76.6611 152.499 76.6611C151.785 76.6611 151.206 77.2404 151.206 77.9549C151.206 78.6695 151.785 79.2487 152.499 79.2487Z" stroke="white" stroke-width="0.3" stroke-miterlimit="10"/>
<path d="M155.567 75.9159C154.944 76.0297 156.86 75.2214 158.21 74.5003C158.128 74.2768 158.086 74.0406 158.086 73.8026C158.086 72.6289 159.077 71.678 160.298 71.678C161.519 71.678 162.511 72.6289 162.511 73.8026C162.511 74.9762 161.52 75.9263 160.298 75.9263L155.567 75.9159Z" fill="#BDCAC2"/>
<path d="M163.9 74.4331C164.33 74.4331 164.679 74.0843 164.679 73.6541C164.679 73.2238 164.33 72.875 163.9 72.875C163.47 72.875 163.122 73.2238 163.122 73.6541C163.122 74.0843 163.47 74.4331 163.9 74.4331Z" fill="#BDCAC2"/>
<path d="M174.099 118.973C174.099 118.973 153.958 130.078 143.133 122.795C143.133 122.795 132.809 129.808 124.49 131.215V111.737C124.49 107.637 126.321 101.523 128.334 96.0426C129.674 92.3962 132.1 89.249 135.285 87.0262C138.47 84.8034 142.26 83.6121 146.143 83.613H149.934C152.328 83.613 154.623 84.5643 156.316 86.2575C158.008 87.9507 158.959 90.2472 158.959 92.6418V102.993C158.959 103.309 159.029 103.621 159.163 103.907C159.298 104.193 159.494 104.446 159.737 104.648C159.98 104.849 160.265 104.995 160.571 105.073C160.877 105.152 161.197 105.162 161.507 105.103L173.547 102.812C172.56 103.773 171.828 107.224 171.828 110.941C171.827 115.326 172.844 118.973 174.099 118.973Z" fill="#EC744A"/>
<path d="M175.97 110.941C175.97 115.326 174.953 118.973 173.698 118.973C172.443 118.973 171.426 115.326 171.426 110.941C171.426 106.557 172.443 102.948 173.698 102.948C174.953 102.948 175.97 106.557 175.97 110.941Z" fill="white" stroke="#F3B304" stroke-width="0.3" stroke-miterlimit="10"/>
<path d="M187.624 106.685V114.54H186.513C186.14 114.54 185.782 114.392 185.518 114.128C185.254 113.864 185.105 113.506 185.105 113.132C185.105 112.481 184.847 111.856 184.387 111.396C183.927 110.935 183.303 110.676 182.652 110.676C182.001 110.676 181.377 110.935 180.917 111.396C180.457 111.856 180.198 112.481 180.197 113.132C180.198 113.899 180.047 114.659 179.753 115.368C179.46 116.076 179.03 116.72 178.488 117.263C177.946 117.805 177.302 118.236 176.594 118.529C175.885 118.822 175.126 118.973 174.359 118.973H174.103H174.043C172.817 118.859 171.832 115.259 171.832 110.943C171.832 108.967 172.039 107.148 172.38 105.747L175.383 104.35L177.061 103.57C177.924 103.168 178.895 103.058 179.827 103.256L185.893 104.546C186.382 104.651 186.821 104.92 187.136 105.309C187.451 105.698 187.623 106.184 187.624 106.685Z" fill="white" stroke="#59221D" stroke-width="0.3" stroke-miterlimit="10" stroke-linecap="round"/>
<path d="M181.931 106.816L185.889 107.657C186.379 107.762 186.818 108.032 187.133 108.421C187.449 108.811 187.621 109.297 187.621 109.799V114.46" stroke="#59221D" stroke-width="0.3" stroke-miterlimit="10" stroke-linecap="round"/>
<path d="M176.37 110.941C176.37 115.327 175.353 118.973 174.099 118.973H174.039C172.812 118.859 171.827 115.259 171.827 110.944C171.827 108.967 172.034 107.149 172.375 105.748L175.378 104.35C175.978 105.793 176.37 108.217 176.37 110.941Z" fill="#59221D"/>
<path d="M144.454 123.774C140.646 121.291 137.001 117.22 138.081 104.929" stroke="white" stroke-width="0.3" stroke-miterlimit="10" stroke-linecap="round"/>
<path d="M144.195 123.733C137.587 131.087 124.49 131.215 124.49 131.215V117.217C124.996 126.552 139.048 121.659 140.934 120.964C141.891 122.118 143.064 122.988 144.195 123.733Z" fill="#59221D"/>
<path d="M145.976 83.364V83.6132C141.567 83.8441 137.354 85.5098 133.979 88.3568C130.604 91.2038 128.251 95.0761 127.278 99.3843L124.49 111.737V83.364H145.976Z" fill="#59221D"/>
<path d="M124.49 83.6138V131.217H101.668C98.3044 131.217 95.4897 128.681 94.8058 125.297C94.699 124.772 94.6453 124.237 94.6456 123.701V91.1284C94.6456 91.1115 94.6456 91.0939 94.6456 91.0763C94.6494 90.256 94.7798 89.4413 95.0324 88.6609C95.9861 85.7223 98.5951 83.6138 101.665 83.6138H124.49Z" fill="white" stroke="#59221D" stroke-width="0.3" stroke-miterlimit="10" stroke-linecap="round"/>
<path d="M124.49 123.269V125.684H94.8065C94.7002 125.194 94.6465 124.694 94.6464 124.193V123.269H124.49Z" fill="#59221D"/>
<path d="M124.49 88.6602V91.0756H94.6526C94.6563 90.2553 94.7868 89.4405 95.0394 88.6602H124.49Z" fill="#59221D"/>
<path d="M124.242 91.8103H94.8898V92.2109H124.242V91.8103Z" fill="#98C8DB"/>
<path d="M111.182 114.161V101.236C111.182 101.114 111.231 100.997 111.318 100.91C111.404 100.824 111.521 100.775 111.644 100.775V100.775C111.766 100.775 111.883 100.824 111.97 100.91C112.056 100.997 112.105 101.114 112.105 101.236V106.641" stroke="#2A6049" stroke-width="0.3" stroke-miterlimit="10"/>
<path d="M111.182 114.161V106.638H113.26V110.616C113.26 111.338 113.067 112.048 112.702 112.671C112.337 113.294 111.813 113.808 111.182 114.161V114.161Z" stroke="#2A6049" stroke-width="0.3" stroke-miterlimit="10"/>
<path d="M108.747 100.775L108.961 103.326C108.978 103.529 108.953 103.733 108.887 103.926C108.821 104.119 108.716 104.296 108.578 104.446C108.44 104.596 108.273 104.715 108.086 104.797C107.9 104.879 107.699 104.921 107.495 104.922V104.922C107.291 104.922 107.09 104.879 106.903 104.797C106.717 104.716 106.549 104.596 106.411 104.446C106.274 104.296 106.168 104.119 106.103 103.926C106.037 103.733 106.011 103.529 106.029 103.326L106.242 100.775" stroke="#EC744A" stroke-width="0.3" stroke-miterlimit="10" stroke-linecap="round"/>
<path d="M107.493 100.775V107.085" stroke="#EC744A" stroke-width="0.3" stroke-miterlimit="10" stroke-linecap="round"/>
<path d="M107.665 107.186H107.346C107.151 107.186 106.992 107.345 106.992 107.54V113.809C106.992 114.005 107.151 114.163 107.346 114.163H107.665C107.86 114.163 108.019 114.005 108.019 113.809V107.54C108.019 107.345 107.86 107.186 107.665 107.186Z" stroke="#EC744A" stroke-width="0.3" stroke-miterlimit="10" stroke-linecap="round"/>
</svg>
