<svg width="24" height="24" viewBox="0 0 24 24" fill="none" xmlns="http://www.w3.org/2000/svg">
<path fill-rule="evenodd" clip-rule="evenodd" d="M15.6229 10.2228C14.6865 11.1594 13.5404 11.6341 12.2169 11.6341C10.8936 11.6341 9.74768 11.1592 8.8111 10.223C7.87451 9.28653 7.39966 8.14059 7.39966 6.81689C7.39966 5.4935 7.87451 4.34756 8.81094 3.41113C9.74738 2.4747 10.8932 2 12.2169 2C13.5403 2 14.6862 2.4747 15.6228 3.41098C16.5594 4.34772 17.0341 5.49365 17.0341 6.81689C17.0341 8.14059 16.5594 9.28638 15.6229 10.2228ZM20.4836 16.1153C20.564 16.5642 20.6187 16.9893 20.6457 17.379C20.6724 17.7599 20.6859 18.1574 20.6861 18.5604C20.6861 19.6048 20.3542 20.4502 19.6996 21.073C19.0531 21.6883 18.1982 22.0002 17.1581 22.0002H7.52798C6.48795 22.0002 5.63269 21.6881 4.98633 21.073C4.33188 20.4497 4 19.6045 4 18.5605C4 18.1594 4.01343 17.7622 4.03998 17.3795C4.06699 16.9889 4.12161 16.5636 4.20203 16.1153C4.2832 15.663 4.38773 15.2356 4.5127 14.8448C4.64209 14.4406 4.81787 14.0419 5.035 13.6597C5.26022 13.2631 5.52527 12.9178 5.82236 12.6334C6.13348 12.3357 6.51419 12.0966 6.95395 11.9225C7.39233 11.7488 7.87817 11.6608 8.39819 11.6608C8.60236 11.6608 8.79996 11.7446 9.18082 11.9928C9.41901 12.148 9.69366 12.325 9.99716 12.519C10.2589 12.6859 10.6138 12.8423 11.0517 12.9837C11.4799 13.1221 11.914 13.1923 12.3426 13.1923C12.7712 13.1923 13.2055 13.1221 13.6332 12.9837C14.0716 12.8421 14.4265 12.6857 14.6885 12.5188C14.9949 12.323 15.2694 12.146 15.5041 11.993C15.8854 11.7447 16.0828 11.6609 16.287 11.6609C16.8069 11.6609 17.2928 11.7488 17.7314 11.9223C18.1714 12.0967 18.552 12.3358 18.8628 12.6332C19.1601 12.9175 19.425 13.263 19.6505 13.6597C19.8678 14.0419 20.0435 14.4408 20.1728 14.8447C20.2979 15.2355 20.4024 15.663 20.4836 16.1153Z" fill="white"/>
</svg>
