<svg width="343" height="283" viewBox="0 0 343 283" fill="none" xmlns="http://www.w3.org/2000/svg">
<g filter="url(#filter0_i)">
<path d="M0 169C0 157.954 8.95431 149 20 149H144C155.046 149 164 157.954 164 169V263C164 274.046 155.046 283 144 283H20C8.95431 283 0 274.046 0 263V169Z" fill="#EC744A"/>
</g>
<g opacity="0.501033">
<path d="M113.742 225.725C113.742 225.585 113.812 225.446 113.882 225.376L122.682 216.576C122.892 216.366 123.241 216.366 123.45 216.576C123.66 216.786 123.66 217.135 123.45 217.344L114.65 226.144C114.441 226.354 114.092 226.354 113.882 226.144C113.812 226.004 113.742 225.865 113.742 225.725Z" fill="#59221D"/>
<path d="M113.742 216.925C113.742 216.786 113.812 216.646 113.882 216.576C114.092 216.366 114.441 216.366 114.65 216.576L123.45 225.376C123.66 225.585 123.66 225.935 123.45 226.144C123.241 226.354 122.892 226.354 122.682 226.144L113.882 217.344C113.812 217.205 113.742 217.065 113.742 216.925Z" fill="#59221D"/>
<path d="M141.241 237.97C141.241 237.62 141.521 237.411 141.8 237.411L153.882 238.179C154.162 238.179 154.371 238.459 154.371 238.738C154.371 239.017 154.092 239.227 153.813 239.227L141.73 238.459C141.451 238.459 141.241 238.249 141.241 237.97Z" fill="#FCFCFE"/>
<path d="M147.247 252.706C147.247 252.497 147.317 252.357 147.527 252.217L154.581 248.236C154.86 248.097 155.139 248.166 155.279 248.446C155.419 248.725 155.349 249.004 155.07 249.144L148.016 253.125C147.736 253.265 147.457 253.195 147.317 252.916C147.317 252.916 147.247 252.776 147.247 252.706Z" fill="#E4E4EF"/>
<path d="M163.797 205.715L163.001 204.634L145.941 217.259L158.622 234.319L163.797 230.452V205.715Z" fill="#E1B2A0"/>
<path d="M120.295 261.728L115.974 272.533L107.216 262.866L120.295 261.728Z" fill="#E1B2A0"/>
<path d="M155.096 202.416L152.424 194L147.135 202.416H155.096Z" fill="#A74602"/>
<path d="M127.289 251.606C127.289 255.312 130.293 258.316 133.999 258.316C137.705 258.316 140.709 255.312 140.709 251.606C140.709 247.9 137.705 244.896 133.999 244.896C130.293 244.896 127.289 247.9 127.289 251.606Z" fill="#FFE1D3"/>
<path d="M151.628 229.087C151.628 228.86 151.798 228.632 152.082 228.632L156.802 228.689C157.03 228.689 157.2 228.859 157.2 229.144C157.2 229.371 157.03 229.542 156.746 229.542L152.026 229.485C151.855 229.542 151.628 229.314 151.628 229.087Z" fill="#A74602"/>
<path d="M154.016 231.475L154.073 226.755C154.073 226.528 154.243 226.357 154.528 226.357C154.755 226.357 154.926 226.528 154.926 226.812L154.869 231.532C154.869 231.76 154.698 231.93 154.414 231.93C154.187 231.93 154.016 231.703 154.016 231.475Z" fill="#A74602"/>
<path d="M149.865 267.529C149.865 267.415 149.922 267.301 150.035 267.188C150.206 267.017 150.49 267.074 150.661 267.244L154.812 272.249C154.983 272.419 154.926 272.704 154.755 272.874C154.585 273.045 154.3 272.988 154.13 272.817L149.978 267.813C149.922 267.756 149.865 267.643 149.865 267.529Z" fill="#59221D"/>
<path d="M135.705 281.916C135.705 281.802 135.762 281.632 135.875 281.575L139.231 279.13C139.401 279.016 139.686 279.016 139.799 279.243C139.913 279.414 139.913 279.698 139.686 279.812L136.33 282.257C136.16 282.371 135.875 282.371 135.762 282.144C135.762 282.087 135.705 281.973 135.705 281.916Z" fill="#59221D"/>
<path d="M99.337 241.847L96.302 235.545L90 238.579L93.035 244.882L99.337 241.847Z" fill="#E1B2A0"/>
</g>
<path d="M20.5625 184.18C22.7656 184.18 24.3359 183.07 24.3359 181.367V181.359C24.3359 180.086 23.5312 179.367 21.8125 179L20.3828 178.695C19.4922 178.5 19.1719 178.234 19.1719 177.773V177.766C19.1719 177.188 19.7344 176.82 20.5234 176.82C21.375 176.82 21.8828 177.25 22.0078 177.711L22.0156 177.75H24.1328V177.719C24.0391 176.336 22.7891 175.211 20.5312 175.211C18.3828 175.211 16.9453 176.289 16.9453 177.906V177.914C16.9453 179.203 17.7578 180.008 19.3984 180.359L20.8359 180.664C21.7109 180.859 22.0547 181.148 22.0547 181.609V181.625C22.0547 182.195 21.4609 182.57 20.5859 182.57C19.6875 182.57 19.1641 182.188 18.9844 181.656L18.9688 181.625H16.7266L16.7344 181.656C16.8984 183.133 18.2266 184.18 20.5625 184.18ZM28.5469 184.133C29.6719 184.133 30.5781 183.656 31.0156 182.859H31.1562V184H33.4062V178.125C33.4062 176.289 32.1172 175.211 29.8359 175.211C27.6719 175.211 26.25 176.211 26.0703 177.719L26.0625 177.789H28.1719L28.1875 177.758C28.3672 177.25 28.8906 176.961 29.7109 176.961C30.6484 176.961 31.1562 177.383 31.1562 178.125V178.836L29.0781 178.961C26.9375 179.086 25.7422 179.992 25.7422 181.539V181.555C25.7422 183.117 26.9062 184.133 28.5469 184.133ZM27.9688 181.414V181.398C27.9688 180.773 28.4453 180.406 29.4219 180.344L31.1562 180.234V180.867C31.1562 181.773 30.3672 182.469 29.3125 182.469C28.5234 182.469 27.9688 182.07 27.9688 181.414ZM37.6562 184H40.2188L43.1953 175.398H40.7969L39.0312 181.867H38.8906L37.1094 175.398H34.6641L37.6562 184ZM48.1562 184.18C50.6719 184.18 51.7812 182.727 52.0469 181.648L52.0625 181.57H49.9375L49.9141 181.617C49.7578 181.945 49.2031 182.477 48.2031 182.477C46.9922 182.477 46.2344 181.656 46.2109 180.242H52.1328V179.531C52.1328 176.93 50.5703 175.211 48.0625 175.211C45.5547 175.211 43.9531 176.969 43.9531 179.703V179.711C43.9531 182.469 45.5391 184.18 48.1562 184.18ZM48.1016 176.922C49.0938 176.922 49.8047 177.562 49.9453 178.812H46.2344C46.375 177.594 47.1094 176.922 48.1016 176.922ZM57.0703 184.133C58.2812 184.133 59.1953 183.594 59.6406 182.664H59.7812V184H62.0625V172.109H59.7812V176.773H59.6406C59.2109 175.836 58.25 175.258 57.0703 175.258C54.8906 175.258 53.5781 176.922 53.5781 179.688V179.703C53.5781 182.453 54.9219 184.133 57.0703 184.133ZM57.8438 182.242C56.6406 182.242 55.8984 181.289 55.8984 179.703V179.688C55.8984 178.117 56.6406 177.148 57.8438 177.148C59.0469 177.148 59.8047 178.117 59.8047 179.695V179.711C59.8047 181.289 59.0547 182.242 57.8438 182.242ZM17.2188 203H19.5V191.109H17.2188V203ZM25.6797 203.18C28.3281 203.18 29.9219 201.508 29.9219 198.703V198.688C29.9219 195.906 28.3047 194.211 25.6797 194.211C23.0547 194.211 21.4375 195.914 21.4375 198.688V198.703C21.4375 201.5 23.0312 203.18 25.6797 203.18ZM25.6797 201.391C24.4609 201.391 23.7734 200.398 23.7734 198.703V198.688C23.7734 197.008 24.4688 196 25.6797 196C26.8828 196 27.5859 197.008 27.5859 198.688V198.703C27.5859 200.398 26.8906 201.391 25.6797 201.391ZM35.5703 203.18C37.8125 203.18 39.1562 201.977 39.3906 200.102L39.3984 200.055H37.2891L37.2734 200.086C37.0703 200.945 36.5156 201.391 35.5781 201.391C34.3594 201.391 33.6797 200.43 33.6797 198.688V198.672C33.6797 196.953 34.3516 196 35.5781 196C36.5547 196 37.125 196.547 37.2734 197.383L37.2812 197.398H39.4062V197.375C39.2031 195.453 37.8516 194.211 35.5703 194.211C32.875 194.211 31.3594 195.844 31.3594 198.672V198.688C31.3594 201.547 32.8828 203.18 35.5703 203.18ZM43.5312 203.133C44.6562 203.133 45.5625 202.656 46 201.859H46.1406V203H48.3906V197.125C48.3906 195.289 47.1016 194.211 44.8203 194.211C42.6562 194.211 41.2344 195.211 41.0547 196.719L41.0469 196.789H43.1562L43.1719 196.758C43.3516 196.25 43.875 195.961 44.6953 195.961C45.6328 195.961 46.1406 196.383 46.1406 197.125V197.836L44.0625 197.961C41.9219 198.086 40.7266 198.992 40.7266 200.539V200.555C40.7266 202.117 41.8906 203.133 43.5312 203.133ZM42.9531 200.414V200.398C42.9531 199.773 43.4297 199.406 44.4062 199.344L46.1406 199.234V199.867C46.1406 200.773 45.3516 201.469 44.2969 201.469C43.5078 201.469 42.9531 201.07 42.9531 200.414ZM54.1953 203.031C54.6328 203.031 55.0547 202.984 55.3359 202.93V201.234C55.1172 201.258 54.9609 201.273 54.6641 201.273C53.8906 201.273 53.5625 200.93 53.5625 200.156V196.117H55.3359V194.398H53.5625V192.344H51.2578V194.398H49.9297V196.117H51.2578V200.68C51.2578 202.352 52.1016 203.031 54.1953 203.031ZM58.3984 193.078C59.1016 193.078 59.6797 192.516 59.6797 191.812C59.6797 191.102 59.1016 190.539 58.3984 190.539C57.6953 190.539 57.1094 191.102 57.1094 191.812C57.1094 192.516 57.6953 193.078 58.3984 193.078ZM57.25 203H59.5312V194.398H57.25V203ZM65.6484 203.18C68.2969 203.18 69.8906 201.508 69.8906 198.703V198.688C69.8906 195.906 68.2734 194.211 65.6484 194.211C63.0234 194.211 61.4062 195.914 61.4062 198.688V198.703C61.4062 201.5 63 203.18 65.6484 203.18ZM65.6484 201.391C64.4297 201.391 63.7422 200.398 63.7422 198.703V198.688C63.7422 197.008 64.4375 196 65.6484 196C66.8516 196 67.5547 197.008 67.5547 198.688V198.703C67.5547 200.398 66.8594 201.391 65.6484 201.391ZM71.75 203H74.0312V198.023C74.0312 196.859 74.6719 196.102 75.7266 196.102C76.8047 196.102 77.3047 196.742 77.3047 197.953V203H79.5859V197.438C79.5859 195.383 78.5547 194.211 76.6406 194.211C75.4141 194.211 74.5625 194.797 74.1719 195.727H74.0312V194.398H71.75V203ZM85.2188 203.18C87.4219 203.18 88.9922 202.07 88.9922 200.367V200.359C88.9922 199.086 88.1875 198.367 86.4688 198L85.0391 197.695C84.1484 197.5 83.8281 197.234 83.8281 196.773V196.766C83.8281 196.188 84.3906 195.82 85.1797 195.82C86.0312 195.82 86.5391 196.25 86.6641 196.711L86.6719 196.75H88.7891V196.719C88.6953 195.336 87.4453 194.211 85.1875 194.211C83.0391 194.211 81.6016 195.289 81.6016 196.906V196.914C81.6016 198.203 82.4141 199.008 84.0547 199.359L85.4922 199.664C86.3672 199.859 86.7109 200.148 86.7109 200.609V200.625C86.7109 201.195 86.1172 201.57 85.2422 201.57C84.3438 201.57 83.8203 201.188 83.6406 200.656L83.625 200.625H81.3828L81.3906 200.656C81.5547 202.133 82.8828 203.18 85.2188 203.18Z" fill="white"/>
<g filter="url(#filter1_i)">
<path d="M179 169C179 157.954 187.954 149 199 149H323C334.046 149 343 157.954 343 169V263C343 274.046 334.046 283 323 283H199C187.954 283 179 274.046 179 263V169Z" fill="#2A6049"/>
</g>
<path d="M196.805 184H199.086V177.117H200.859V175.398H199.039V174.75C199.039 174 199.367 173.586 200.25 173.586C200.547 173.586 200.789 173.609 200.93 173.633V172.109C200.602 172.062 200.219 172.023 199.758 172.023C197.68 172.023 196.805 172.883 196.805 174.594V175.398H195.414V177.117H196.805V184ZM202.75 184H205.031V172.109H202.75V184ZM208.555 174.078C209.258 174.078 209.836 173.516 209.836 172.812C209.836 172.102 209.258 171.539 208.555 171.539C207.852 171.539 207.266 172.102 207.266 172.812C207.266 173.516 207.852 174.078 208.555 174.078ZM207.406 184H209.688V175.398H207.406V184ZM215.781 187.023C218.383 187.023 220.031 185.75 220.031 183.734V175.398H217.75V176.805H217.641C217.18 175.836 216.258 175.258 215.078 175.258C212.875 175.258 211.539 176.961 211.539 179.492V179.508C211.539 181.953 212.875 183.625 215.039 183.625C216.234 183.625 217.141 183.133 217.617 182.227H217.758V183.828C217.758 184.828 217.047 185.398 215.828 185.398C214.812 185.398 214.219 185.055 214.094 184.555L214.086 184.523H211.828V184.562C212.016 186.023 213.398 187.023 215.781 187.023ZM215.812 181.875C214.578 181.875 213.875 180.914 213.875 179.5V179.484C213.875 178.07 214.586 177.109 215.812 177.109C217.039 177.109 217.781 178.07 217.781 179.484V179.5C217.781 180.914 217.047 181.875 215.812 181.875ZM222.391 184H224.672V179.023C224.672 177.859 225.312 177.102 226.367 177.102C227.445 177.102 227.945 177.742 227.945 178.953V184H230.227V178.438C230.227 176.383 229.195 175.211 227.281 175.211C226.055 175.211 225.203 175.797 224.812 176.727H224.672V172.109H222.391V184ZM236.008 184.031C236.445 184.031 236.867 183.984 237.148 183.93V182.234C236.93 182.258 236.773 182.273 236.477 182.273C235.703 182.273 235.375 181.93 235.375 181.156V177.117H237.148V175.398H235.375V173.344H233.07V175.398H231.742V177.117H233.07V181.68C233.07 183.352 233.914 184.031 236.008 184.031ZM242.391 184.18C244.594 184.18 246.164 183.07 246.164 181.367V181.359C246.164 180.086 245.359 179.367 243.641 179L242.211 178.695C241.32 178.5 241 178.234 241 177.773V177.766C241 177.188 241.562 176.82 242.352 176.82C243.203 176.82 243.711 177.25 243.836 177.711L243.844 177.75H245.961V177.719C245.867 176.336 244.617 175.211 242.359 175.211C240.211 175.211 238.773 176.289 238.773 177.906V177.914C238.773 179.203 239.586 180.008 241.227 180.359L242.664 180.664C243.539 180.859 243.883 181.148 243.883 181.609V181.625C243.883 182.195 243.289 182.57 242.414 182.57C241.516 182.57 240.992 182.188 240.812 181.656L240.797 181.625H238.555L238.562 181.656C238.727 183.133 240.055 184.18 242.391 184.18ZM201.219 203.133C203.367 203.133 204.711 201.453 204.711 198.703V198.688C204.711 195.922 203.398 194.258 201.219 194.258C200.039 194.258 199.078 194.836 198.641 195.773H198.5V191.109H196.219V203H198.5V201.664H198.641C199.086 202.594 200 203.133 201.219 203.133ZM200.438 201.242C199.234 201.242 198.477 200.289 198.477 198.711V198.695C198.477 197.117 199.242 196.148 200.438 196.148C201.641 196.148 202.391 197.117 202.391 198.688V198.703C202.391 200.289 201.648 201.242 200.438 201.242ZM210.383 203.18C213.031 203.18 214.625 201.508 214.625 198.703V198.688C214.625 195.906 213.008 194.211 210.383 194.211C207.758 194.211 206.141 195.914 206.141 198.688V198.703C206.141 201.5 207.734 203.18 210.383 203.18ZM210.383 201.391C209.164 201.391 208.477 200.398 208.477 198.703V198.688C208.477 197.008 209.172 196 210.383 196C211.586 196 212.289 197.008 212.289 198.688V198.703C212.289 200.398 211.594 201.391 210.383 201.391ZM218.828 203.133C219.953 203.133 220.859 202.656 221.297 201.859H221.438V203H223.688V197.125C223.688 195.289 222.398 194.211 220.117 194.211C217.953 194.211 216.531 195.211 216.352 196.719L216.344 196.789H218.453L218.469 196.758C218.648 196.25 219.172 195.961 219.992 195.961C220.93 195.961 221.438 196.383 221.438 197.125V197.836L219.359 197.961C217.219 198.086 216.023 198.992 216.023 200.539V200.555C216.023 202.117 217.188 203.133 218.828 203.133ZM218.25 200.414V200.398C218.25 199.773 218.727 199.406 219.703 199.344L221.438 199.234V199.867C221.438 200.773 220.648 201.469 219.594 201.469C218.805 201.469 218.25 201.07 218.25 200.414ZM225.922 203H228.203V198.188C228.203 196.969 229.023 196.227 230.32 196.227C230.672 196.227 231.023 196.281 231.367 196.359V194.367C231.141 194.305 230.82 194.258 230.516 194.258C229.398 194.258 228.617 194.805 228.344 195.734H228.203V194.398H225.922V203ZM235.758 203.133C236.969 203.133 237.883 202.594 238.328 201.664H238.469V203H240.75V191.109H238.469V195.773H238.328C237.898 194.836 236.938 194.258 235.758 194.258C233.578 194.258 232.266 195.922 232.266 198.688V198.703C232.266 201.453 233.609 203.133 235.758 203.133ZM236.531 201.242C235.328 201.242 234.586 200.289 234.586 198.703V198.688C234.586 197.117 235.328 196.148 236.531 196.148C237.734 196.148 238.492 197.117 238.492 198.695V198.711C238.492 200.289 237.742 201.242 236.531 201.242ZM246.891 203.18C249.406 203.18 250.516 201.727 250.781 200.648L250.797 200.57H248.672L248.648 200.617C248.492 200.945 247.938 201.477 246.938 201.477C245.727 201.477 244.969 200.656 244.945 199.242H250.867V198.531C250.867 195.93 249.305 194.211 246.797 194.211C244.289 194.211 242.688 195.969 242.688 198.703V198.711C242.688 201.469 244.273 203.18 246.891 203.18ZM246.836 195.922C247.828 195.922 248.539 196.562 248.68 197.812H244.969C245.109 196.594 245.844 195.922 246.836 195.922ZM255.805 203.133C257.016 203.133 257.93 202.594 258.375 201.664H258.516V203H260.797V191.109H258.516V195.773H258.375C257.945 194.836 256.984 194.258 255.805 194.258C253.625 194.258 252.312 195.922 252.312 198.688V198.703C252.312 201.453 253.656 203.133 255.805 203.133ZM256.578 201.242C255.375 201.242 254.633 200.289 254.633 198.703V198.688C254.633 197.117 255.375 196.148 256.578 196.148C257.781 196.148 258.539 197.117 258.539 198.695V198.711C258.539 200.289 257.789 201.242 256.578 201.242Z" fill="white"/>
<g opacity="0.501033">
<path d="M292.742 225.725C292.742 225.585 292.812 225.446 292.882 225.376L301.682 216.576C301.892 216.366 302.241 216.366 302.45 216.576C302.66 216.786 302.66 217.135 302.45 217.344L293.65 226.144C293.441 226.354 293.092 226.354 292.882 226.144C292.812 226.004 292.742 225.865 292.742 225.725Z" fill="#E5E5E5"/>
<path d="M292.742 216.925C292.742 216.786 292.812 216.646 292.882 216.576C293.092 216.366 293.441 216.366 293.65 216.576L302.45 225.376C302.66 225.585 302.66 225.935 302.45 226.144C302.241 226.354 301.892 226.354 301.682 226.144L292.882 217.344C292.812 217.205 292.742 217.065 292.742 216.925Z" fill="#E5E5E5"/>
<path d="M320.241 237.97C320.241 237.62 320.521 237.411 320.8 237.411L332.882 238.179C333.162 238.179 333.371 238.459 333.371 238.738C333.371 239.017 333.092 239.227 332.813 239.227L320.73 238.459C320.451 238.459 320.241 238.249 320.241 237.97Z" fill="#E4E4EF"/>
<path d="M326.247 252.706C326.247 252.497 326.317 252.357 326.527 252.217L333.581 248.236C333.86 248.097 334.139 248.166 334.279 248.446C334.419 248.725 334.349 249.004 334.07 249.144L327.016 253.125C326.736 253.265 326.457 253.195 326.317 252.916C326.317 252.916 326.247 252.776 326.247 252.706Z" fill="#E4E4EF"/>
<path d="M342.797 205.715L342.001 204.634L324.941 217.259L337.622 234.319L342.797 230.452V205.715Z" fill="#638074"/>
<path d="M299.295 261.728L294.974 272.533L286.216 262.866L299.295 261.728Z" fill="#BDCAC2"/>
<path d="M334.096 202.416L331.424 194L326.135 202.416H334.096Z" fill="#638074"/>
<path d="M306.289 251.606C306.289 255.312 309.293 258.316 312.999 258.316C316.705 258.316 319.709 255.312 319.709 251.606C319.709 247.9 316.705 244.896 312.999 244.896C309.293 244.896 306.289 247.9 306.289 251.606Z" fill="#263238"/>
<path d="M330.628 229.087C330.628 228.86 330.798 228.632 331.082 228.632L335.802 228.689C336.03 228.689 336.2 228.859 336.2 229.144C336.2 229.371 336.03 229.542 335.746 229.542L331.026 229.485C330.855 229.542 330.628 229.314 330.628 229.087Z" fill="#BDCAC2"/>
<path d="M333.016 231.475L333.073 226.755C333.073 226.528 333.243 226.357 333.528 226.357C333.755 226.357 333.926 226.528 333.926 226.812L333.869 231.532C333.869 231.76 333.698 231.93 333.414 231.93C333.187 231.93 333.016 231.703 333.016 231.475Z" fill="#BDCAC2"/>
<path d="M328.865 267.529C328.865 267.415 328.922 267.301 329.035 267.188C329.206 267.017 329.49 267.074 329.661 267.244L333.812 272.249C333.983 272.419 333.926 272.704 333.755 272.874C333.585 273.045 333.3 272.988 333.13 272.817L328.978 267.813C328.922 267.756 328.865 267.643 328.865 267.529Z" fill="#424D47"/>
<path d="M314.705 281.916C314.705 281.802 314.762 281.632 314.875 281.575L318.231 279.13C318.401 279.016 318.686 279.016 318.799 279.243C318.913 279.414 318.913 279.698 318.686 279.812L315.33 282.257C315.16 282.371 314.875 282.371 314.762 282.144C314.762 282.087 314.705 281.973 314.705 281.916Z" fill="#BACAC2"/>
<path d="M278.337 241.847L275.302 235.545L269 238.579L272.035 244.882L278.337 241.847Z" fill="#638074"/>
</g>
<g filter="url(#filter2_i)">
<path d="M179 20C179 8.9543 187.954 0 199 0H323C334.046 0 343 8.9543 343 20V114C343 125.046 334.046 134 323 134H199C187.954 134 179 125.046 179 114V20Z" fill="#2A6049"/>
</g>
<g opacity="0.501033">
<path d="M292.742 76.725C292.742 76.585 292.812 76.446 292.882 76.376L301.682 67.576C301.892 67.366 302.241 67.366 302.45 67.576C302.66 67.786 302.66 68.135 302.45 68.344L293.65 77.144C293.441 77.354 293.092 77.354 292.882 77.144C292.812 77.004 292.742 76.865 292.742 76.725Z" fill="#E5E5E5"/>
<path d="M292.742 67.925C292.742 67.786 292.812 67.646 292.882 67.576C293.092 67.366 293.441 67.366 293.65 67.576L302.45 76.376C302.66 76.585 302.66 76.935 302.45 77.144C302.241 77.354 301.892 77.354 301.682 77.144L292.882 68.344C292.812 68.205 292.742 68.065 292.742 67.925Z" fill="#E5E5E5"/>
<path d="M320.241 88.97C320.241 88.62 320.521 88.411 320.8 88.411L332.882 89.179C333.162 89.179 333.371 89.459 333.371 89.738C333.371 90.017 333.092 90.227 332.813 90.227L320.73 89.459C320.451 89.459 320.241 89.249 320.241 88.97Z" fill="#E4E4EF"/>
<path d="M326.247 103.706C326.247 103.497 326.317 103.357 326.527 103.217L333.581 99.236C333.86 99.097 334.139 99.166 334.279 99.446C334.419 99.725 334.349 100.004 334.07 100.144L327.016 104.125C326.736 104.265 326.457 104.195 326.317 103.916C326.317 103.916 326.247 103.776 326.247 103.706Z" fill="#E4E4EF"/>
<path d="M342.797 56.715L342.001 55.634L324.941 68.259L337.622 85.319L342.797 81.452V56.715Z" fill="#638074"/>
<path d="M299.295 112.728L294.974 123.533L286.216 113.866L299.295 112.728Z" fill="#BDCAC2"/>
<path d="M334.096 53.416L331.424 45L326.135 53.416H334.096Z" fill="#638074"/>
<path d="M306.289 102.606C306.289 106.312 309.293 109.316 312.999 109.316C316.705 109.316 319.709 106.312 319.709 102.606C319.709 98.9 316.705 95.896 312.999 95.896C309.293 95.896 306.289 98.9 306.289 102.606Z" fill="#263238"/>
<path d="M330.628 80.087C330.628 79.86 330.798 79.632 331.082 79.632L335.802 79.689C336.03 79.689 336.2 79.859 336.2 80.144C336.2 80.371 336.03 80.542 335.746 80.542L331.026 80.485C330.855 80.542 330.628 80.314 330.628 80.087Z" fill="#BDCAC2"/>
<path d="M333.016 82.475L333.073 77.755C333.073 77.528 333.243 77.357 333.528 77.357C333.755 77.357 333.926 77.528 333.926 77.812L333.869 82.532C333.869 82.76 333.698 82.93 333.414 82.93C333.187 82.93 333.016 82.703 333.016 82.475Z" fill="#BDCAC2"/>
<path d="M328.865 118.529C328.865 118.415 328.922 118.301 329.035 118.188C329.206 118.017 329.49 118.074 329.661 118.244L333.812 123.249C333.983 123.419 333.926 123.704 333.755 123.874C333.585 124.045 333.3 123.988 333.13 123.817L328.978 118.813C328.922 118.756 328.865 118.643 328.865 118.529Z" fill="#424D47"/>
<path d="M314.705 132.916C314.705 132.802 314.762 132.632 314.875 132.575L318.231 130.13C318.401 130.016 318.686 130.016 318.799 130.243C318.913 130.414 318.913 130.698 318.686 130.812L315.33 133.257C315.16 133.371 314.875 133.371 314.762 133.144C314.762 133.087 314.705 132.973 314.705 132.916Z" fill="#BACAC2"/>
<path d="M278.337 92.847L275.302 86.545L269 89.579L272.035 95.882L278.337 92.847Z" fill="#638074"/>
</g>
<path d="M199.93 35.1797C202.172 35.1797 203.516 33.9766 203.75 32.1016L203.758 32.0547H201.648L201.633 32.0859C201.43 32.9453 200.875 33.3906 199.938 33.3906C198.719 33.3906 198.039 32.4297 198.039 30.6875V30.6719C198.039 28.9531 198.711 28 199.938 28C200.914 28 201.484 28.5469 201.633 29.3828L201.641 29.3984H203.766V29.375C203.562 27.4531 202.211 26.2109 199.93 26.2109C197.234 26.2109 195.719 27.8438 195.719 30.6719V30.6875C195.719 33.5469 197.242 35.1797 199.93 35.1797ZM209.367 35.1797C212.016 35.1797 213.609 33.5078 213.609 30.7031V30.6875C213.609 27.9062 211.992 26.2109 209.367 26.2109C206.742 26.2109 205.125 27.9141 205.125 30.6875V30.7031C205.125 33.5 206.719 35.1797 209.367 35.1797ZM209.367 33.3906C208.148 33.3906 207.461 32.3984 207.461 30.7031V30.6875C207.461 29.0078 208.156 28 209.367 28C210.57 28 211.273 29.0078 211.273 30.6875V30.7031C211.273 32.3984 210.578 33.3906 209.367 33.3906ZM218.312 35.1797C219.539 35.1797 220.414 34.6094 220.805 33.6719H220.945V35H223.227V26.3984H220.945V31.3672C220.945 32.5312 220.336 33.2891 219.211 33.2891C218.133 33.2891 217.672 32.6562 217.672 31.4375V26.3984H215.391V31.9609C215.391 34.0078 216.383 35.1797 218.312 35.1797ZM225.516 35H227.797V30.0234C227.797 28.8594 228.438 28.1016 229.492 28.1016C230.57 28.1016 231.07 28.7422 231.07 29.9531V35H233.352V29.4375C233.352 27.3828 232.32 26.2109 230.406 26.2109C229.18 26.2109 228.328 26.7969 227.938 27.7266H227.797V26.3984H225.516V35ZM239.133 35.0312C239.57 35.0312 239.992 34.9844 240.273 34.9297V33.2344C240.055 33.2578 239.898 33.2734 239.602 33.2734C238.828 33.2734 238.5 32.9297 238.5 32.1562V28.1172H240.273V26.3984H238.5V24.3438H236.195V26.3984H234.867V28.1172H236.195V32.6797C236.195 34.3516 237.039 35.0312 239.133 35.0312ZM242.172 35H244.453V30.1875C244.453 28.9688 245.273 28.2266 246.57 28.2266C246.922 28.2266 247.273 28.2812 247.617 28.3594V26.3672C247.391 26.3047 247.07 26.2578 246.766 26.2578C245.648 26.2578 244.867 26.8047 244.594 27.7344H244.453V26.3984H242.172V35ZM250.305 25.0781C251.008 25.0781 251.586 24.5156 251.586 23.8125C251.586 23.1016 251.008 22.5391 250.305 22.5391C249.602 22.5391 249.016 23.1016 249.016 23.8125C249.016 24.5156 249.602 25.0781 250.305 25.0781ZM249.156 35H251.438V26.3984H249.156V35ZM257.516 35.1797C260.031 35.1797 261.141 33.7266 261.406 32.6484L261.422 32.5703H259.297L259.273 32.6172C259.117 32.9453 258.562 33.4766 257.562 33.4766C256.352 33.4766 255.594 32.6562 255.57 31.2422H261.492V30.5312C261.492 27.9297 259.93 26.2109 257.422 26.2109C254.914 26.2109 253.312 27.9688 253.312 30.7031V30.7109C253.312 33.4688 254.898 35.1797 257.516 35.1797ZM257.461 27.9219C258.453 27.9219 259.164 28.5625 259.305 29.8125H255.594C255.734 28.5938 256.469 27.9219 257.461 27.9219ZM266.781 35.1797C268.984 35.1797 270.555 34.0703 270.555 32.3672V32.3594C270.555 31.0859 269.75 30.3672 268.031 30L266.602 29.6953C265.711 29.5 265.391 29.2344 265.391 28.7734V28.7656C265.391 28.1875 265.953 27.8203 266.742 27.8203C267.594 27.8203 268.102 28.25 268.227 28.7109L268.234 28.75H270.352V28.7188C270.258 27.3359 269.008 26.2109 266.75 26.2109C264.602 26.2109 263.164 27.2891 263.164 28.9062V28.9141C263.164 30.2031 263.977 31.0078 265.617 31.3594L267.055 31.6641C267.93 31.8594 268.273 32.1484 268.273 32.6094V32.625C268.273 33.1953 267.68 33.5703 266.805 33.5703C265.906 33.5703 265.383 33.1875 265.203 32.6562L265.188 32.625H262.945L262.953 32.6562C263.117 34.1328 264.445 35.1797 266.781 35.1797ZM199.711 54.0312C200.148 54.0312 200.57 53.9844 200.852 53.9297V52.2344C200.633 52.2578 200.477 52.2734 200.18 52.2734C199.406 52.2734 199.078 51.9297 199.078 51.1562V47.1172H200.852V45.3984H199.078V43.3438H196.773V45.3984H195.445V47.1172H196.773V51.6797C196.773 53.3516 197.617 54.0312 199.711 54.0312ZM202.75 54H205.031V49.1875C205.031 47.9688 205.852 47.2266 207.148 47.2266C207.5 47.2266 207.852 47.2812 208.195 47.3594V45.3672C207.969 45.3047 207.648 45.2578 207.344 45.2578C206.227 45.2578 205.445 45.8047 205.172 46.7344H205.031V45.3984H202.75V54ZM211.906 54.1328C213.031 54.1328 213.938 53.6562 214.375 52.8594H214.516V54H216.766V48.125C216.766 46.2891 215.477 45.2109 213.195 45.2109C211.031 45.2109 209.609 46.2109 209.43 47.7188L209.422 47.7891H211.531L211.547 47.7578C211.727 47.25 212.25 46.9609 213.07 46.9609C214.008 46.9609 214.516 47.3828 214.516 48.125V48.8359L212.438 48.9609C210.297 49.0859 209.102 49.9922 209.102 51.5391V51.5547C209.102 53.1172 210.266 54.1328 211.906 54.1328ZM211.328 51.4141V51.3984C211.328 50.7734 211.805 50.4062 212.781 50.3438L214.516 50.2344V50.8672C214.516 51.7734 213.727 52.4688 212.672 52.4688C211.883 52.4688 211.328 52.0703 211.328 51.4141ZM221.016 54H223.578L226.555 45.3984H224.156L222.391 51.8672H222.25L220.469 45.3984H218.023L221.016 54ZM231.516 54.1797C234.031 54.1797 235.141 52.7266 235.406 51.6484L235.422 51.5703H233.297L233.273 51.6172C233.117 51.9453 232.562 52.4766 231.562 52.4766C230.352 52.4766 229.594 51.6562 229.57 50.2422H235.492V49.5312C235.492 46.9297 233.93 45.2109 231.422 45.2109C228.914 45.2109 227.312 46.9688 227.312 49.7031V49.7109C227.312 52.4688 228.898 54.1797 231.516 54.1797ZM231.461 46.9219C232.453 46.9219 233.164 47.5625 233.305 48.8125H229.594C229.734 47.5938 230.469 46.9219 231.461 46.9219ZM237.438 54H239.719V42.1094H237.438V54ZM245.859 54.1797C248.375 54.1797 249.484 52.7266 249.75 51.6484L249.766 51.5703H247.641L247.617 51.6172C247.461 51.9453 246.906 52.4766 245.906 52.4766C244.695 52.4766 243.938 51.6562 243.914 50.2422H249.836V49.5312C249.836 46.9297 248.273 45.2109 245.766 45.2109C243.258 45.2109 241.656 46.9688 241.656 49.7031V49.7109C241.656 52.4688 243.242 54.1797 245.859 54.1797ZM245.805 46.9219C246.797 46.9219 247.508 47.5625 247.648 48.8125H243.938C244.078 47.5938 244.812 46.9219 245.805 46.9219ZM254.773 54.1328C255.984 54.1328 256.898 53.5938 257.344 52.6641H257.484V54H259.766V42.1094H257.484V46.7734H257.344C256.914 45.8359 255.953 45.2578 254.773 45.2578C252.594 45.2578 251.281 46.9219 251.281 49.6875V49.7031C251.281 52.4531 252.625 54.1328 254.773 54.1328ZM255.547 52.2422C254.344 52.2422 253.602 51.2891 253.602 49.7031V49.6875C253.602 48.1172 254.344 47.1484 255.547 47.1484C256.75 47.1484 257.508 48.1172 257.508 49.6953V49.7109C257.508 51.2891 256.758 52.2422 255.547 52.2422Z" fill="white"/>
<g filter="url(#filter3_i)">
<path d="M0 20C0 8.9543 8.95431 0 20 0H144C155.046 0 164 8.9543 164 20V114C164 125.046 155.046 134 144 134H20C8.95431 134 0 125.046 0 114V20Z" fill="#2A6049"/>
</g>
<g opacity="0.501033">
<path d="M113.742 76.725C113.742 76.585 113.812 76.446 113.882 76.376L122.682 67.576C122.892 67.366 123.241 67.366 123.45 67.576C123.66 67.786 123.66 68.135 123.45 68.344L114.65 77.144C114.441 77.354 114.092 77.354 113.882 77.144C113.812 77.004 113.742 76.865 113.742 76.725Z" fill="#E5E5E5"/>
<path d="M113.742 67.925C113.742 67.786 113.812 67.646 113.882 67.576C114.092 67.366 114.441 67.366 114.65 67.576L123.45 76.376C123.66 76.585 123.66 76.935 123.45 77.144C123.241 77.354 122.892 77.354 122.682 77.144L113.882 68.344C113.812 68.205 113.742 68.065 113.742 67.925Z" fill="#E5E5E5"/>
<path d="M141.241 88.97C141.241 88.62 141.521 88.411 141.8 88.411L153.882 89.179C154.162 89.179 154.371 89.459 154.371 89.738C154.371 90.017 154.092 90.227 153.813 90.227L141.73 89.459C141.451 89.459 141.241 89.249 141.241 88.97Z" fill="#E4E4EF"/>
<path d="M147.247 103.706C147.247 103.497 147.317 103.357 147.527 103.217L154.581 99.236C154.86 99.097 155.139 99.166 155.279 99.446C155.419 99.725 155.349 100.004 155.07 100.144L148.016 104.125C147.736 104.265 147.457 104.195 147.317 103.916C147.317 103.916 147.247 103.776 147.247 103.706Z" fill="#E4E4EF"/>
<path d="M163.797 56.715L163.001 55.634L145.941 68.259L158.622 85.319L163.797 81.452V56.715Z" fill="#638074"/>
<path d="M120.295 112.728L115.974 123.533L107.216 113.866L120.295 112.728Z" fill="#BDCAC2"/>
<path d="M155.096 53.416L152.424 45L147.135 53.416H155.096Z" fill="#638074"/>
<path d="M127.289 102.606C127.289 106.312 130.293 109.316 133.999 109.316C137.705 109.316 140.709 106.312 140.709 102.606C140.709 98.9 137.705 95.896 133.999 95.896C130.293 95.896 127.289 98.9 127.289 102.606Z" fill="#263238"/>
<path d="M151.628 80.087C151.628 79.86 151.798 79.632 152.082 79.632L156.802 79.689C157.03 79.689 157.2 79.859 157.2 80.144C157.2 80.371 157.03 80.542 156.746 80.542L152.026 80.485C151.855 80.542 151.628 80.314 151.628 80.087Z" fill="#BDCAC2"/>
<path d="M154.016 82.475L154.073 77.755C154.073 77.528 154.243 77.357 154.528 77.357C154.755 77.357 154.926 77.528 154.926 77.812L154.869 82.532C154.869 82.76 154.698 82.93 154.414 82.93C154.187 82.93 154.016 82.703 154.016 82.475Z" fill="#BDCAC2"/>
<path d="M149.865 118.529C149.865 118.415 149.922 118.301 150.035 118.188C150.206 118.017 150.49 118.074 150.661 118.244L154.812 123.249C154.983 123.419 154.926 123.704 154.755 123.874C154.585 124.045 154.3 123.988 154.13 123.817L149.978 118.813C149.922 118.756 149.865 118.643 149.865 118.529Z" fill="#424D47"/>
<path d="M135.705 132.916C135.705 132.802 135.762 132.632 135.875 132.575L139.231 130.13C139.401 130.016 139.686 130.016 139.799 130.243C139.913 130.414 139.913 130.698 139.686 130.812L136.33 133.257C136.16 133.371 135.875 133.371 135.762 133.144C135.762 133.087 135.705 132.973 135.705 132.916Z" fill="#BACAC2"/>
<path d="M99.337 92.847L96.302 86.545L90 89.579L93.035 95.882L99.337 92.847Z" fill="#638074"/>
</g>
<path d="M20.7109 35.0312C21.1484 35.0312 21.5703 34.9844 21.8516 34.9297V33.2344C21.6328 33.2578 21.4766 33.2734 21.1797 33.2734C20.4062 33.2734 20.0781 32.9297 20.0781 32.1562V28.1172H21.8516V26.3984H20.0781V24.3438H17.7734V26.3984H16.4453V28.1172H17.7734V32.6797C17.7734 34.3516 18.6172 35.0312 20.7109 35.0312ZM23.75 35H26.0312V30.1875C26.0312 28.9688 26.8516 28.2266 28.1484 28.2266C28.5 28.2266 28.8516 28.2812 29.1953 28.3594V26.3672C28.9688 26.3047 28.6484 26.2578 28.3438 26.2578C27.2266 26.2578 26.4453 26.8047 26.1719 27.7344H26.0312V26.3984H23.75V35ZM31.8828 25.0781C32.5859 25.0781 33.1641 24.5156 33.1641 23.8125C33.1641 23.1016 32.5859 22.5391 31.8828 22.5391C31.1797 22.5391 30.5938 23.1016 30.5938 23.8125C30.5938 24.5156 31.1797 25.0781 31.8828 25.0781ZM30.7344 35H33.0156V26.3984H30.7344V35ZM35.3125 37.8516H37.5938V33.625H37.7344C38.1719 34.5625 39.1328 35.1328 40.3125 35.1328C42.4922 35.1328 43.8047 33.4688 43.8047 30.7031V30.6875C43.8047 27.9453 42.4609 26.2578 40.3125 26.2578C39.0938 26.2578 38.1797 26.8047 37.7344 27.7266H37.5938V26.3984H35.3125V37.8516ZM39.5312 33.2422C38.3359 33.2422 37.5703 32.2812 37.5703 30.7031V30.6875C37.5703 29.1094 38.3281 28.1484 39.5312 28.1484C40.7422 28.1484 41.4844 29.1094 41.4844 30.6875V30.7031C41.4844 32.2812 40.7344 33.2422 39.5312 33.2422ZM49.0938 35.1797C51.2969 35.1797 52.8672 34.0703 52.8672 32.3672V32.3594C52.8672 31.0859 52.0625 30.3672 50.3438 30L48.9141 29.6953C48.0234 29.5 47.7031 29.2344 47.7031 28.7734V28.7656C47.7031 28.1875 48.2656 27.8203 49.0547 27.8203C49.9062 27.8203 50.4141 28.25 50.5391 28.7109L50.5469 28.75H52.6641V28.7188C52.5703 27.3359 51.3203 26.2109 49.0625 26.2109C46.9141 26.2109 45.4766 27.2891 45.4766 28.9062V28.9141C45.4766 30.2031 46.2891 31.0078 47.9297 31.3594L49.3672 31.6641C50.2422 31.8594 50.5859 32.1484 50.5859 32.6094V32.625C50.5859 33.1953 49.9922 33.5703 49.1172 33.5703C48.2188 33.5703 47.6953 33.1875 47.5156 32.6562L47.5 32.625H45.2578L45.2656 32.6562C45.4297 34.1328 46.7578 35.1797 49.0938 35.1797ZM20.7109 54.0312C21.1484 54.0312 21.5703 53.9844 21.8516 53.9297V52.2344C21.6328 52.2578 21.4766 52.2734 21.1797 52.2734C20.4062 52.2734 20.0781 51.9297 20.0781 51.1562V47.1172H21.8516V45.3984H20.0781V43.3438H17.7734V45.3984H16.4453V47.1172H17.7734V51.6797C17.7734 53.3516 18.6172 54.0312 20.7109 54.0312ZM26.0938 54.1328C27.2188 54.1328 28.125 53.6562 28.5625 52.8594H28.7031V54H30.9531V48.125C30.9531 46.2891 29.6641 45.2109 27.3828 45.2109C25.2188 45.2109 23.7969 46.2109 23.6172 47.7188L23.6094 47.7891H25.7188L25.7344 47.7578C25.9141 47.25 26.4375 46.9609 27.2578 46.9609C28.1953 46.9609 28.7031 47.3828 28.7031 48.125V48.8359L26.625 48.9609C24.4844 49.0859 23.2891 49.9922 23.2891 51.5391V51.5547C23.2891 53.1172 24.4531 54.1328 26.0938 54.1328ZM25.5156 51.4141V51.3984C25.5156 50.7734 25.9922 50.4062 26.9688 50.3438L28.7031 50.2344V50.8672C28.7031 51.7734 27.9141 52.4688 26.8594 52.4688C26.0703 52.4688 25.5156 52.0703 25.5156 51.4141ZM33.2656 54H35.5469V51.1172L36.1719 50.4531L38.6797 54H41.375L37.8438 49.0469L41.1484 45.3984H38.5625L35.6875 48.7969H35.5469V42.1094H33.2656V54ZM46.0781 54.1797C48.5938 54.1797 49.7031 52.7266 49.9688 51.6484L49.9844 51.5703H47.8594L47.8359 51.6172C47.6797 51.9453 47.125 52.4766 46.125 52.4766C44.9141 52.4766 44.1562 51.6562 44.1328 50.2422H50.0547V49.5312C50.0547 46.9297 48.4922 45.2109 45.9844 45.2109C43.4766 45.2109 41.875 46.9688 41.875 49.7031V49.7109C41.875 52.4688 43.4609 54.1797 46.0781 54.1797ZM46.0234 46.9219C47.0156 46.9219 47.7266 47.5625 47.8672 48.8125H44.1562C44.2969 47.5938 45.0312 46.9219 46.0234 46.9219ZM51.9219 54H54.2031V49.0234C54.2031 47.8594 54.8438 47.1016 55.8984 47.1016C56.9766 47.1016 57.4766 47.7422 57.4766 48.9531V54H59.7578V48.4375C59.7578 46.3828 58.7266 45.2109 56.8125 45.2109C55.5859 45.2109 54.7344 45.7969 54.3438 46.7266H54.2031V45.3984H51.9219V54Z" fill="white"/>
<defs>
<filter id="filter0_i" x="0" y="149" width="164" height="138" filterUnits="userSpaceOnUse" color-interpolation-filters="sRGB">
<feFlood flood-opacity="0" result="BackgroundImageFix"/>
<feBlend mode="normal" in="SourceGraphic" in2="BackgroundImageFix" result="shape"/>
<feColorMatrix in="SourceAlpha" type="matrix" values="0 0 0 0 0 0 0 0 0 0 0 0 0 0 0 0 0 0 127 0" result="hardAlpha"/>
<feOffset dy="4"/>
<feGaussianBlur stdDeviation="2"/>
<feComposite in2="hardAlpha" operator="arithmetic" k2="-1" k3="1"/>
<feColorMatrix type="matrix" values="0 0 0 0 0 0 0 0 0 0 0 0 0 0 0 0 0 0 0.25 0"/>
<feBlend mode="normal" in2="shape" result="effect1_innerShadow"/>
</filter>
<filter id="filter1_i" x="179" y="149" width="164" height="138" filterUnits="userSpaceOnUse" color-interpolation-filters="sRGB">
<feFlood flood-opacity="0" result="BackgroundImageFix"/>
<feBlend mode="normal" in="SourceGraphic" in2="BackgroundImageFix" result="shape"/>
<feColorMatrix in="SourceAlpha" type="matrix" values="0 0 0 0 0 0 0 0 0 0 0 0 0 0 0 0 0 0 127 0" result="hardAlpha"/>
<feOffset dy="4"/>
<feGaussianBlur stdDeviation="2"/>
<feComposite in2="hardAlpha" operator="arithmetic" k2="-1" k3="1"/>
<feColorMatrix type="matrix" values="0 0 0 0 0 0 0 0 0 0 0 0 0 0 0 0 0 0 0.25 0"/>
<feBlend mode="normal" in2="shape" result="effect1_innerShadow"/>
</filter>
<filter id="filter2_i" x="179" y="0" width="164" height="138" filterUnits="userSpaceOnUse" color-interpolation-filters="sRGB">
<feFlood flood-opacity="0" result="BackgroundImageFix"/>
<feBlend mode="normal" in="SourceGraphic" in2="BackgroundImageFix" result="shape"/>
<feColorMatrix in="SourceAlpha" type="matrix" values="0 0 0 0 0 0 0 0 0 0 0 0 0 0 0 0 0 0 127 0" result="hardAlpha"/>
<feOffset dy="4"/>
<feGaussianBlur stdDeviation="2"/>
<feComposite in2="hardAlpha" operator="arithmetic" k2="-1" k3="1"/>
<feColorMatrix type="matrix" values="0 0 0 0 0 0 0 0 0 0 0 0 0 0 0 0 0 0 0.25 0"/>
<feBlend mode="normal" in2="shape" result="effect1_innerShadow"/>
</filter>
<filter id="filter3_i" x="0" y="0" width="164" height="138" filterUnits="userSpaceOnUse" color-interpolation-filters="sRGB">
<feFlood flood-opacity="0" result="BackgroundImageFix"/>
<feBlend mode="normal" in="SourceGraphic" in2="BackgroundImageFix" result="shape"/>
<feColorMatrix in="SourceAlpha" type="matrix" values="0 0 0 0 0 0 0 0 0 0 0 0 0 0 0 0 0 0 127 0" result="hardAlpha"/>
<feOffset dy="4"/>
<feGaussianBlur stdDeviation="2"/>
<feComposite in2="hardAlpha" operator="arithmetic" k2="-1" k3="1"/>
<feColorMatrix type="matrix" values="0 0 0 0 0 0 0 0 0 0 0 0 0 0 0 0 0 0 0.25 0"/>
<feBlend mode="normal" in2="shape" result="effect1_innerShadow"/>
</filter>
</defs>
</svg>
