<svg width="74" height="19" viewBox="0 0 74 19" fill="none" xmlns="http://www.w3.org/2000/svg">
<path d="M63 16H59.6667C59.2246 16 58.8007 15.8244 58.4882 15.5118C58.1756 15.1993 58 14.7754 58 14.3333V2.66667C58 2.22464 58.1756 1.80072 58.4882 1.48816C58.8007 1.17559 59.2246 1 59.6667 1H63M68.8333 12.6667L73 8.5M73 8.5L68.8333 4.33333M73 8.5H63" stroke="#999999" stroke-linecap="round" stroke-linejoin="round"/>
<path d="M0.443359 15H3.00977V2.31738H0.443359V15ZM9.06543 15.1934C11.9131 15.1934 13.7324 13.3652 13.7324 10.2891V10.2715C13.7324 7.22168 11.8779 5.38477 9.05664 5.38477C6.24414 5.38477 4.39844 7.23926 4.39844 10.2715V10.2891C4.39844 13.3564 6.2002 15.1934 9.06543 15.1934ZM9.07422 13.1807C7.80859 13.1807 7.00879 12.1348 7.00879 10.2891V10.2715C7.00879 8.45215 7.81738 7.39746 9.05664 7.39746C10.3047 7.39746 11.1221 8.45215 11.1221 10.2715V10.2891C11.1221 12.126 10.3223 13.1807 9.07422 13.1807ZM19.4629 18.2695C22.293 18.2695 24.0596 16.8369 24.0596 14.7363V5.57812H21.4932V7.18652H21.4404C20.9307 6.08789 19.9023 5.38477 18.5752 5.38477C16.1934 5.38477 14.7168 7.16895 14.7168 10.1748V10.1836C14.7168 13.1104 16.1758 14.8682 18.5312 14.8682C19.8936 14.8682 20.9482 14.2441 21.4404 13.2598H21.4932V14.7012C21.4932 15.7559 20.79 16.4414 19.4629 16.4414C18.3906 16.4414 17.7051 16.0371 17.5029 15.5713L17.4766 15.5098H14.9805L14.9893 15.5889C15.2354 17.1006 16.8701 18.2695 19.4629 18.2695ZM19.4189 12.9873C18.1357 12.9873 17.3271 11.9414 17.3271 10.2451V10.2363C17.3271 8.54883 18.1445 7.51172 19.4189 7.51172C20.667 7.51172 21.502 8.55762 21.502 10.2363V10.2451C21.502 11.9326 20.6758 12.9873 19.4189 12.9873ZM30.0713 15.1934C32.9189 15.1934 34.7383 13.3652 34.7383 10.2891V10.2715C34.7383 7.22168 32.8838 5.38477 30.0625 5.38477C27.25 5.38477 25.4043 7.23926 25.4043 10.2715V10.2891C25.4043 13.3564 27.2061 15.1934 30.0713 15.1934ZM30.0801 13.1807C28.8145 13.1807 28.0146 12.1348 28.0146 10.2891V10.2715C28.0146 8.45215 28.8232 7.39746 30.0625 7.39746C31.3105 7.39746 32.1279 8.45215 32.1279 10.2715V10.2891C32.1279 12.126 31.3281 13.1807 30.0801 13.1807ZM39.2734 15.1934C40.6973 15.1934 41.6641 14.5254 42.1475 13.4443H42.2002V15H44.7666V5.57812H42.2002V10.9922C42.2002 12.2227 41.4707 13.0664 40.3193 13.0664C39.168 13.0664 38.5879 12.3545 38.5879 11.124V5.57812H36.0215V11.6602C36.0215 13.8662 37.1992 15.1934 39.2734 15.1934ZM50.1807 15.1934C50.7168 15.1934 51.1299 15.1406 51.4199 15.0967V13.2158C51.2617 13.2334 51.0947 13.2598 50.8662 13.2598C50.0928 13.2598 49.6973 12.9609 49.6973 12.082V7.51172H51.4199V5.57812H49.6973V3.27539H47.1045V5.57812H45.7949V7.51172H47.1045V12.3633C47.1045 14.3848 48.0889 15.1934 50.1807 15.1934Z" fill="#424D47"/>
</svg>
