<svg width="414" height="896" viewBox="0 0 414 896" fill="none" xmlns="http://www.w3.org/2000/svg">
<path d="M0 0H414V896H0V0Z" fill="#424D47" fill-opacity="0.68"/>
<path d="M138 0H414V896H138V0Z" fill="white"/>
<path d="M201.394 171H203.96V165.313C203.96 164.25 204.619 163.512 205.595 163.512C206.544 163.512 207.115 164.109 207.115 165.12V171H209.585V165.27C209.585 164.224 210.227 163.512 211.202 163.512C212.195 163.512 212.74 164.109 212.74 165.199V171H215.307V164.558C215.307 162.659 214.067 161.385 212.222 161.385C210.842 161.385 209.717 162.141 209.295 163.327H209.242C208.926 162.088 207.968 161.385 206.649 161.385C205.384 161.385 204.399 162.088 204.013 163.16H203.96V161.578H201.394V171ZM219.736 171.149C220.976 171.149 221.978 170.561 222.514 169.594H222.566V171H225.133V164.54C225.133 162.642 223.56 161.385 221.125 161.385C218.638 161.385 217.144 162.633 217.003 164.373L216.994 164.479H219.341L219.358 164.399C219.481 163.793 220.062 163.345 221.02 163.345C222.021 163.345 222.566 163.863 222.566 164.698V165.278L220.237 165.419C217.899 165.568 216.572 166.57 216.572 168.284V168.302C216.572 169.963 217.847 171.149 219.736 171.149ZM219.112 168.17V168.152C219.112 167.484 219.631 167.062 220.624 167.001L222.566 166.878V167.555C222.566 168.539 221.723 169.277 220.571 169.277C219.684 169.277 219.112 168.864 219.112 168.17ZM226.794 171H229.36V165.586C229.36 164.355 230.09 163.512 231.241 163.512C232.393 163.512 232.973 164.215 232.973 165.445V171H235.539V164.918C235.539 162.712 234.361 161.385 232.287 161.385C230.863 161.385 229.896 162.044 229.413 163.125H229.36V161.578H226.794V171ZM239.969 171.149C241.208 171.149 242.21 170.561 242.746 169.594H242.799V171H245.365V164.54C245.365 162.642 243.792 161.385 241.357 161.385C238.87 161.385 237.376 162.633 237.235 164.373L237.227 164.479H239.573L239.591 164.399C239.714 163.793 240.294 163.345 241.252 163.345C242.254 163.345 242.799 163.863 242.799 164.698V165.278L240.47 165.419C238.132 165.568 236.805 166.57 236.805 168.284V168.302C236.805 169.963 238.079 171.149 239.969 171.149ZM239.345 168.17V168.152C239.345 167.484 239.863 167.062 240.856 167.001L242.799 166.878V167.555C242.799 168.539 241.955 169.277 240.804 169.277C239.916 169.277 239.345 168.864 239.345 168.17ZM251.43 174.27C254.26 174.27 256.026 172.837 256.026 170.736V161.578H253.46V163.187H253.407C252.897 162.088 251.869 161.385 250.542 161.385C248.16 161.385 246.684 163.169 246.684 166.175V166.184C246.684 169.11 248.143 170.868 250.498 170.868C251.86 170.868 252.915 170.244 253.407 169.26H253.46V170.701C253.46 171.756 252.757 172.441 251.43 172.441C250.357 172.441 249.672 172.037 249.47 171.571L249.443 171.51H246.947L246.956 171.589C247.202 173.101 248.837 174.27 251.43 174.27ZM251.386 168.987C250.103 168.987 249.294 167.941 249.294 166.245V166.236C249.294 164.549 250.111 163.512 251.386 163.512C252.634 163.512 253.469 164.558 253.469 166.236V166.245C253.469 167.933 252.643 168.987 251.386 168.987ZM262.003 171.193C264.692 171.193 265.993 169.603 266.283 168.214L266.31 168.117H263.954L263.937 168.17C263.752 168.697 263.11 169.277 262.056 169.277C260.746 169.277 259.929 168.398 259.902 166.896H266.389V166.104C266.389 163.257 264.657 161.385 261.897 161.385C259.138 161.385 257.371 163.301 257.371 166.298V166.307C257.371 169.321 259.12 171.193 262.003 171.193ZM261.941 163.301C263.005 163.301 263.77 163.978 263.928 165.278H259.929C260.096 164.004 260.887 163.301 261.941 163.301ZM271.284 171H273.851V165.586C273.851 164.355 274.58 163.512 275.731 163.512C276.883 163.512 277.463 164.215 277.463 165.445V171H280.029V164.918C280.029 162.712 278.852 161.385 276.777 161.385C275.354 161.385 274.387 162.044 273.903 163.125H273.851V161.578H271.284V171ZM285.979 171.193C288.827 171.193 290.646 169.365 290.646 166.289V166.271C290.646 163.222 288.792 161.385 285.971 161.385C283.158 161.385 281.312 163.239 281.312 166.271V166.289C281.312 169.356 283.114 171.193 285.979 171.193ZM285.988 169.181C284.723 169.181 283.923 168.135 283.923 166.289V166.271C283.923 164.452 284.731 163.397 285.971 163.397C287.219 163.397 288.036 164.452 288.036 166.271V166.289C288.036 168.126 287.236 169.181 285.988 169.181ZM295.718 171.193C296.254 171.193 296.667 171.141 296.957 171.097V169.216C296.799 169.233 296.632 169.26 296.403 169.26C295.63 169.26 295.234 168.961 295.234 168.082V163.512H296.957V161.578H295.234V159.275H292.642V161.578H291.332V163.512H292.642V168.363C292.642 170.385 293.626 171.193 295.718 171.193ZM299.708 160.365C300.481 160.365 301.079 159.759 301.079 159.029C301.079 158.3 300.481 157.693 299.708 157.693C298.935 157.693 298.337 158.3 298.337 159.029C298.337 159.759 298.935 160.365 299.708 160.365ZM298.425 171H300.991V161.578H298.425V171ZM303.399 171H305.966V163.512H307.776V161.578H305.904V160.919C305.904 160.242 306.282 159.882 307.135 159.882C307.372 159.882 307.618 159.891 307.794 159.926V158.229C307.495 158.168 306.977 158.124 306.502 158.124C304.278 158.124 303.399 158.977 303.399 160.822V161.578H302.116V163.512H303.399V171ZM310.466 160.365C311.239 160.365 311.837 159.759 311.837 159.029C311.837 158.3 311.239 157.693 310.466 157.693C309.692 157.693 309.095 158.3 309.095 159.029C309.095 159.759 309.692 160.365 310.466 160.365ZM309.183 171H311.749V161.578H309.183V171ZM317.778 171.193C320.292 171.193 321.918 169.629 322.041 167.572V167.52H319.65L319.642 167.599C319.466 168.548 318.824 169.181 317.796 169.181C316.53 169.181 315.739 168.135 315.739 166.289V166.28C315.739 164.479 316.53 163.397 317.787 163.397C318.851 163.397 319.475 164.083 319.633 164.979L319.65 165.059H322.032V164.997C321.936 162.958 320.31 161.385 317.752 161.385C314.931 161.385 313.129 163.257 313.129 166.271V166.28C313.129 169.321 314.904 171.193 317.778 171.193ZM326.084 171.149C327.323 171.149 328.325 170.561 328.861 169.594H328.914V171H331.48V164.54C331.48 162.642 329.907 161.385 327.473 161.385C324.985 161.385 323.491 162.633 323.351 164.373L323.342 164.479H325.688L325.706 164.399C325.829 163.793 326.409 163.345 327.367 163.345C328.369 163.345 328.914 163.863 328.914 164.698V165.278L326.585 165.419C324.247 165.568 322.92 166.57 322.92 168.284V168.302C322.92 169.963 324.194 171.149 326.084 171.149ZM325.46 168.17V168.152C325.46 167.484 325.979 167.062 326.972 167.001L328.914 166.878V167.555C328.914 168.539 328.07 169.277 326.919 169.277C326.031 169.277 325.46 168.864 325.46 168.17ZM336.886 171.193C337.422 171.193 337.835 171.141 338.125 171.097V169.216C337.967 169.233 337.8 169.26 337.571 169.26C336.798 169.26 336.402 168.961 336.402 168.082V163.512H338.125V161.578H336.402V159.275H333.81V161.578H332.5V163.512H333.81V168.363C333.81 170.385 334.794 171.193 336.886 171.193ZM340.876 160.365C341.649 160.365 342.247 159.759 342.247 159.029C342.247 158.3 341.649 157.693 340.876 157.693C340.103 157.693 339.505 158.3 339.505 159.029C339.505 159.759 340.103 160.365 340.876 160.365ZM339.593 171H342.159V161.578H339.593V171ZM348.206 171.193C351.054 171.193 352.873 169.365 352.873 166.289V166.271C352.873 163.222 351.019 161.385 348.197 161.385C345.385 161.385 343.539 163.239 343.539 166.271V166.289C343.539 169.356 345.341 171.193 348.206 171.193ZM348.215 169.181C346.949 169.181 346.149 168.135 346.149 166.289V166.271C346.149 164.452 346.958 163.397 348.197 163.397C349.445 163.397 350.263 164.452 350.263 166.271V166.289C350.263 168.126 349.463 169.181 348.215 169.181ZM354.2 171H356.767V165.586C356.767 164.355 357.496 163.512 358.647 163.512C359.799 163.512 360.379 164.215 360.379 165.445V171H362.945V164.918C362.945 162.712 361.768 161.385 359.693 161.385C358.27 161.385 357.303 162.044 356.819 163.125H356.767V161.578H354.2V171ZM368.447 171.193C370.873 171.193 372.569 169.98 372.569 168.135V168.126C372.569 166.737 371.761 165.964 369.792 165.551L368.192 165.208C367.243 165.006 366.918 164.689 366.918 164.206V164.197C366.918 163.591 367.472 163.195 368.359 163.195C369.309 163.195 369.862 163.705 369.95 164.382L369.959 164.452H372.323V164.364C372.262 162.712 370.864 161.385 368.359 161.385C365.96 161.385 364.413 162.545 364.413 164.338V164.347C364.413 165.753 365.336 166.667 367.164 167.054L368.764 167.388C369.687 167.59 370.003 167.88 370.003 168.381V168.39C370.003 168.996 369.414 169.374 368.447 169.374C367.419 169.374 366.865 168.943 366.698 168.205L366.681 168.126H364.176L364.185 168.205C364.387 169.989 365.837 171.193 368.447 171.193Z" fill="#424D47"/>
<path d="M280.406 80H283.559V68.5625H283.652L288.223 80H290.449L295.008 68.5625H295.113V80H298.266V63.0898H294.176L289.371 75.2422H289.301L284.496 63.0898H280.406V80ZM306.504 80.2578C310.09 80.2578 311.824 78.1367 312.211 76.2852L312.246 76.1562H309.105L309.082 76.2266C308.836 76.9297 307.98 77.7031 306.574 77.7031C304.828 77.7031 303.738 76.5312 303.703 74.5273H312.352V73.4727C312.352 69.6758 310.043 67.1797 306.363 67.1797C302.684 67.1797 300.328 69.7344 300.328 73.7305V73.7422C300.328 77.7617 302.66 80.2578 306.504 80.2578ZM306.422 69.7344C307.84 69.7344 308.859 70.6367 309.07 72.3711H303.738C303.961 70.6719 305.016 69.7344 306.422 69.7344ZM314.121 80H317.543V72.7812C317.543 71.1406 318.516 70.0156 320.051 70.0156C321.586 70.0156 322.359 70.9531 322.359 72.5938V80H325.781V71.8906C325.781 68.9492 324.211 67.1797 321.445 67.1797C319.547 67.1797 318.258 68.0586 317.613 69.5H317.543V67.4375H314.121V80ZM332.227 80.2578C334.125 80.2578 335.414 79.3672 336.059 77.9258H336.129V80H339.551V67.4375H336.129V74.6562C336.129 76.2969 335.156 77.4219 333.621 77.4219C332.086 77.4219 331.312 76.4727 331.312 74.832V67.4375H327.891V75.5469C327.891 78.4883 329.461 80.2578 332.227 80.2578Z" fill="#424D47"/>
</svg>
