<svg width="414" height="896" viewBox="0 0 414 896" fill="none" xmlns="http://www.w3.org/2000/svg">
<path d="M0 0H414V896H0V0Z" fill="#424D47" fill-opacity="0.68"/>
<path d="M138 0H414V896H138V0Z" fill="white"/>
<path d="M201.394 171H203.96V165.313C203.96 164.25 204.619 163.512 205.595 163.512C206.544 163.512 207.115 164.109 207.115 165.12V171H209.585V165.27C209.585 164.224 210.227 163.512 211.202 163.512C212.195 163.512 212.74 164.109 212.74 165.199V171H215.307V164.558C215.307 162.659 214.067 161.385 212.222 161.385C210.842 161.385 209.717 162.141 209.295 163.327H209.242C208.926 162.088 207.968 161.385 206.649 161.385C205.384 161.385 204.399 162.088 204.013 163.16H203.96V161.578H201.394V171ZM219.736 171.149C220.976 171.149 221.978 170.561 222.514 169.594H222.566V171H225.133V164.54C225.133 162.642 223.56 161.385 221.125 161.385C218.638 161.385 217.144 162.633 217.003 164.373L216.994 164.479H219.341L219.358 164.399C219.481 163.793 220.062 163.345 221.02 163.345C222.021 163.345 222.566 163.863 222.566 164.698V165.278L220.237 165.419C217.899 165.568 216.572 166.57 216.572 168.284V168.302C216.572 169.963 217.847 171.149 219.736 171.149ZM219.112 168.17V168.152C219.112 167.484 219.631 167.062 220.624 167.001L222.566 166.878V167.555C222.566 168.539 221.723 169.277 220.571 169.277C219.684 169.277 219.112 168.864 219.112 168.17ZM226.794 171H229.36V165.586C229.36 164.355 230.09 163.512 231.241 163.512C232.393 163.512 232.973 164.215 232.973 165.445V171H235.539V164.918C235.539 162.712 234.361 161.385 232.287 161.385C230.863 161.385 229.896 162.044 229.413 163.125H229.36V161.578H226.794V171ZM239.969 171.149C241.208 171.149 242.21 170.561 242.746 169.594H242.799V171H245.365V164.54C245.365 162.642 243.792 161.385 241.357 161.385C238.87 161.385 237.376 162.633 237.235 164.373L237.227 164.479H239.573L239.591 164.399C239.714 163.793 240.294 163.345 241.252 163.345C242.254 163.345 242.799 163.863 242.799 164.698V165.278L240.47 165.419C238.132 165.568 236.805 166.57 236.805 168.284V168.302C236.805 169.963 238.079 171.149 239.969 171.149ZM239.345 168.17V168.152C239.345 167.484 239.863 167.062 240.856 167.001L242.799 166.878V167.555C242.799 168.539 241.955 169.277 240.804 169.277C239.916 169.277 239.345 168.864 239.345 168.17ZM251.43 174.27C254.26 174.27 256.026 172.837 256.026 170.736V161.578H253.46V163.187H253.407C252.897 162.088 251.869 161.385 250.542 161.385C248.16 161.385 246.684 163.169 246.684 166.175V166.184C246.684 169.11 248.143 170.868 250.498 170.868C251.86 170.868 252.915 170.244 253.407 169.26H253.46V170.701C253.46 171.756 252.757 172.441 251.43 172.441C250.357 172.441 249.672 172.037 249.47 171.571L249.443 171.51H246.947L246.956 171.589C247.202 173.101 248.837 174.27 251.43 174.27ZM251.386 168.987C250.103 168.987 249.294 167.941 249.294 166.245V166.236C249.294 164.549 250.111 163.512 251.386 163.512C252.634 163.512 253.469 164.558 253.469 166.236V166.245C253.469 167.933 252.643 168.987 251.386 168.987ZM262.003 171.193C264.692 171.193 265.993 169.603 266.283 168.214L266.31 168.117H263.954L263.937 168.17C263.752 168.697 263.11 169.277 262.056 169.277C260.746 169.277 259.929 168.398 259.902 166.896H266.389V166.104C266.389 163.257 264.657 161.385 261.897 161.385C259.138 161.385 257.371 163.301 257.371 166.298V166.307C257.371 169.321 259.12 171.193 262.003 171.193ZM261.941 163.301C263.005 163.301 263.77 163.978 263.928 165.278H259.929C260.096 164.004 260.887 163.301 261.941 163.301ZM271.284 171H273.851V165.586C273.851 164.355 274.58 163.512 275.731 163.512C276.883 163.512 277.463 164.215 277.463 165.445V171H280.029V164.918C280.029 162.712 278.852 161.385 276.777 161.385C275.354 161.385 274.387 162.044 273.903 163.125H273.851V161.578H271.284V171ZM285.979 171.193C288.827 171.193 290.646 169.365 290.646 166.289V166.271C290.646 163.222 288.792 161.385 285.971 161.385C283.158 161.385 281.312 163.239 281.312 166.271V166.289C281.312 169.356 283.114 171.193 285.979 171.193ZM285.988 169.181C284.723 169.181 283.923 168.135 283.923 166.289V166.271C283.923 164.452 284.731 163.397 285.971 163.397C287.219 163.397 288.036 164.452 288.036 166.271V166.289C288.036 168.126 287.236 169.181 285.988 169.181ZM295.718 171.193C296.254 171.193 296.667 171.141 296.957 171.097V169.216C296.799 169.233 296.632 169.26 296.403 169.26C295.63 169.26 295.234 168.961 295.234 168.082V163.512H296.957V161.578H295.234V159.275H292.642V161.578H291.332V163.512H292.642V168.363C292.642 170.385 293.626 171.193 295.718 171.193ZM299.708 160.365C300.481 160.365 301.079 159.759 301.079 159.029C301.079 158.3 300.481 157.693 299.708 157.693C298.935 157.693 298.337 158.3 298.337 159.029C298.337 159.759 298.935 160.365 299.708 160.365ZM298.425 171H300.991V161.578H298.425V171ZM303.399 171H305.966V163.512H307.776V161.578H305.904V160.919C305.904 160.242 306.282 159.882 307.135 159.882C307.372 159.882 307.618 159.891 307.794 159.926V158.229C307.495 158.168 306.977 158.124 306.502 158.124C304.278 158.124 303.399 158.977 303.399 160.822V161.578H302.116V163.512H303.399V171ZM310.466 160.365C311.239 160.365 311.837 159.759 311.837 159.029C311.837 158.3 311.239 157.693 310.466 157.693C309.692 157.693 309.095 158.3 309.095 159.029C309.095 159.759 309.692 160.365 310.466 160.365ZM309.183 171H311.749V161.578H309.183V171ZM317.778 171.193C320.292 171.193 321.918 169.629 322.041 167.572V167.52H319.65L319.642 167.599C319.466 168.548 318.824 169.181 317.796 169.181C316.53 169.181 315.739 168.135 315.739 166.289V166.28C315.739 164.479 316.53 163.397 317.787 163.397C318.851 163.397 319.475 164.083 319.633 164.979L319.65 165.059H322.032V164.997C321.936 162.958 320.31 161.385 317.752 161.385C314.931 161.385 313.129 163.257 313.129 166.271V166.28C313.129 169.321 314.904 171.193 317.778 171.193ZM326.084 171.149C327.323 171.149 328.325 170.561 328.861 169.594H328.914V171H331.48V164.54C331.48 162.642 329.907 161.385 327.473 161.385C324.985 161.385 323.491 162.633 323.351 164.373L323.342 164.479H325.688L325.706 164.399C325.829 163.793 326.409 163.345 327.367 163.345C328.369 163.345 328.914 163.863 328.914 164.698V165.278L326.585 165.419C324.247 165.568 322.92 166.57 322.92 168.284V168.302C322.92 169.963 324.194 171.149 326.084 171.149ZM325.46 168.17V168.152C325.46 167.484 325.979 167.062 326.972 167.001L328.914 166.878V167.555C328.914 168.539 328.07 169.277 326.919 169.277C326.031 169.277 325.46 168.864 325.46 168.17ZM336.886 171.193C337.422 171.193 337.835 171.141 338.125 171.097V169.216C337.967 169.233 337.8 169.26 337.571 169.26C336.798 169.26 336.402 168.961 336.402 168.082V163.512H338.125V161.578H336.402V159.275H333.81V161.578H332.5V163.512H333.81V168.363C333.81 170.385 334.794 171.193 336.886 171.193ZM340.876 160.365C341.649 160.365 342.247 159.759 342.247 159.029C342.247 158.3 341.649 157.693 340.876 157.693C340.103 157.693 339.505 158.3 339.505 159.029C339.505 159.759 340.103 160.365 340.876 160.365ZM339.593 171H342.159V161.578H339.593V171ZM348.206 171.193C351.054 171.193 352.873 169.365 352.873 166.289V166.271C352.873 163.222 351.019 161.385 348.197 161.385C345.385 161.385 343.539 163.239 343.539 166.271V166.289C343.539 169.356 345.341 171.193 348.206 171.193ZM348.215 169.181C346.949 169.181 346.149 168.135 346.149 166.289V166.271C346.149 164.452 346.958 163.397 348.197 163.397C349.445 163.397 350.263 164.452 350.263 166.271V166.289C350.263 168.126 349.463 169.181 348.215 169.181ZM354.2 171H356.767V165.586C356.767 164.355 357.496 163.512 358.647 163.512C359.799 163.512 360.379 164.215 360.379 165.445V171H362.945V164.918C362.945 162.712 361.768 161.385 359.693 161.385C358.27 161.385 357.303 162.044 356.819 163.125H356.767V161.578H354.2V171ZM368.447 171.193C370.873 171.193 372.569 169.98 372.569 168.135V168.126C372.569 166.737 371.761 165.964 369.792 165.551L368.192 165.208C367.243 165.006 366.918 164.689 366.918 164.206V164.197C366.918 163.591 367.472 163.195 368.359 163.195C369.309 163.195 369.862 163.705 369.95 164.382L369.959 164.452H372.323V164.364C372.262 162.712 370.864 161.385 368.359 161.385C365.96 161.385 364.413 162.545 364.413 164.338V164.347C364.413 165.753 365.336 166.667 367.164 167.054L368.764 167.388C369.687 167.59 370.003 167.88 370.003 168.381V168.39C370.003 168.996 369.414 169.374 368.447 169.374C367.419 169.374 366.865 168.943 366.698 168.205L366.681 168.126H364.176L364.185 168.205C364.387 169.989 365.837 171.193 368.447 171.193Z" fill="#424D47"/>
<path d="M183.376 144.193C185.89 144.193 187.516 142.629 187.639 140.572V140.52H185.248L185.239 140.599C185.063 141.548 184.422 142.181 183.394 142.181C182.128 142.181 181.337 141.135 181.337 139.289V139.28C181.337 137.479 182.128 136.397 183.385 136.397C184.448 136.397 185.072 137.083 185.23 137.979L185.248 138.059H187.63V137.997C187.533 135.958 185.907 134.385 183.35 134.385C180.528 134.385 178.727 136.257 178.727 139.271V139.28C178.727 142.321 180.502 144.193 183.376 144.193ZM188.939 144H191.506V138.604C191.506 137.373 192.235 136.512 193.369 136.512C194.538 136.512 195.188 137.294 195.188 138.612V144H197.755V138.085C197.755 135.809 196.489 134.385 194.45 134.385C193.035 134.385 192.042 135.035 191.559 136.204H191.506V131.317H188.939V144ZM202.211 144.149C203.45 144.149 204.452 143.561 204.988 142.594H205.041V144H207.607V137.54C207.607 135.642 206.034 134.385 203.6 134.385C201.112 134.385 199.618 135.633 199.478 137.373L199.469 137.479H201.815L201.833 137.399C201.956 136.793 202.536 136.345 203.494 136.345C204.496 136.345 205.041 136.863 205.041 137.698V138.278L202.712 138.419C200.374 138.568 199.047 139.57 199.047 141.284V141.302C199.047 142.963 200.321 144.149 202.211 144.149ZM201.587 141.17V141.152C201.587 140.484 202.105 140.062 203.099 140.001L205.041 139.878V140.555C205.041 141.539 204.197 142.277 203.046 142.277C202.158 142.277 201.587 141.864 201.587 141.17ZM209.269 144H211.835V138.586C211.835 137.355 212.564 136.512 213.716 136.512C214.867 136.512 215.447 137.215 215.447 138.445V144H218.014V137.918C218.014 135.712 216.836 134.385 214.762 134.385C213.338 134.385 212.371 135.044 211.888 136.125H211.835V134.578H209.269V144ZM224.043 147.27C226.873 147.27 228.64 145.837 228.64 143.736V134.578H226.073V136.187H226.021C225.511 135.088 224.482 134.385 223.155 134.385C220.773 134.385 219.297 136.169 219.297 139.175V139.184C219.297 142.11 220.756 143.868 223.111 143.868C224.474 143.868 225.528 143.244 226.021 142.26H226.073V143.701C226.073 144.756 225.37 145.441 224.043 145.441C222.971 145.441 222.285 145.037 222.083 144.571L222.057 144.51H219.561L219.569 144.589C219.815 146.101 221.45 147.27 224.043 147.27ZM223.999 141.987C222.716 141.987 221.907 140.941 221.907 139.245V139.236C221.907 137.549 222.725 136.512 223.999 136.512C225.247 136.512 226.082 137.558 226.082 139.236V139.245C226.082 140.933 225.256 141.987 223.999 141.987ZM234.616 144.193C237.306 144.193 238.606 142.603 238.896 141.214L238.923 141.117H236.567L236.55 141.17C236.365 141.697 235.724 142.277 234.669 142.277C233.359 142.277 232.542 141.398 232.516 139.896H239.002V139.104C239.002 136.257 237.271 134.385 234.511 134.385C231.751 134.385 229.984 136.301 229.984 139.298V139.307C229.984 142.321 231.733 144.193 234.616 144.193ZM234.555 136.301C235.618 136.301 236.383 136.978 236.541 138.278H232.542C232.709 137.004 233.5 136.301 234.555 136.301ZM248.187 144.193C250.876 144.193 252.177 142.603 252.467 141.214L252.493 141.117H250.138L250.12 141.17C249.936 141.697 249.294 142.277 248.239 142.277C246.93 142.277 246.112 141.398 246.086 139.896H252.572V139.104C252.572 136.257 250.841 134.385 248.081 134.385C245.321 134.385 243.555 136.301 243.555 139.298V139.307C243.555 142.321 245.304 144.193 248.187 144.193ZM248.125 136.301C249.188 136.301 249.953 136.978 250.111 138.278H246.112C246.279 137.004 247.07 136.301 248.125 136.301ZM253.899 144H256.466V138.313C256.466 137.25 257.125 136.512 258.101 136.512C259.05 136.512 259.621 137.109 259.621 138.12V144H262.091V138.27C262.091 137.224 262.732 136.512 263.708 136.512C264.701 136.512 265.246 137.109 265.246 138.199V144H267.812V137.558C267.812 135.659 266.573 134.385 264.728 134.385C263.348 134.385 262.223 135.141 261.801 136.327H261.748C261.432 135.088 260.474 134.385 259.155 134.385C257.89 134.385 256.905 135.088 256.519 136.16H256.466V134.578H253.899V144ZM272.242 144.149C273.481 144.149 274.483 143.561 275.02 142.594H275.072V144H277.639V137.54C277.639 135.642 276.065 134.385 273.631 134.385C271.144 134.385 269.649 135.633 269.509 137.373L269.5 137.479H271.847L271.864 137.399C271.987 136.793 272.567 136.345 273.525 136.345C274.527 136.345 275.072 136.863 275.072 137.698V138.278L272.743 138.419C270.405 138.568 269.078 139.57 269.078 141.284V141.302C269.078 142.963 270.353 144.149 272.242 144.149ZM271.618 141.17V141.152C271.618 140.484 272.137 140.062 273.13 140.001L275.072 139.878V140.555C275.072 141.539 274.229 142.277 273.077 142.277C272.189 142.277 271.618 141.864 271.618 141.17ZM280.636 133.365C281.409 133.365 282.007 132.759 282.007 132.029C282.007 131.3 281.409 130.693 280.636 130.693C279.862 130.693 279.265 131.3 279.265 132.029C279.265 132.759 279.862 133.365 280.636 133.365ZM279.353 144H281.919V134.578H279.353V144ZM283.703 144H286.27V131.317H283.703V144ZM292.624 131.317H290.348L287.166 147.076H289.451L292.624 131.317ZM293.45 147.076H296.017V142.392H296.069C296.579 143.508 297.643 144.193 298.987 144.193C301.343 144.193 302.802 142.348 302.802 139.289V139.28C302.802 136.213 301.343 134.385 298.952 134.385C297.616 134.385 296.588 135.079 296.078 136.222H296.017V134.578H293.45V147.076ZM298.108 142.066C296.86 142.066 296.008 140.994 296.008 139.298V139.289C296.008 137.584 296.86 136.512 298.108 136.512C299.383 136.512 300.191 137.558 300.191 139.28V139.289C300.191 141.003 299.383 142.066 298.108 142.066ZM306.941 144.149C308.181 144.149 309.183 143.561 309.719 142.594H309.771V144H312.338V137.54C312.338 135.642 310.765 134.385 308.33 134.385C305.843 134.385 304.349 135.633 304.208 137.373L304.199 137.479H306.546L306.563 137.399C306.687 136.793 307.267 136.345 308.225 136.345C309.227 136.345 309.771 136.863 309.771 137.698V138.278L307.442 138.419C305.104 138.568 303.777 139.57 303.777 141.284V141.302C303.777 142.963 305.052 144.149 306.941 144.149ZM306.317 141.17V141.152C306.317 140.484 306.836 140.062 307.829 140.001L309.771 139.878V140.555C309.771 141.539 308.928 142.277 307.776 142.277C306.889 142.277 306.317 141.864 306.317 141.17ZM317.875 144.193C320.301 144.193 321.997 142.98 321.997 141.135V141.126C321.997 139.737 321.188 138.964 319.22 138.551L317.62 138.208C316.671 138.006 316.346 137.689 316.346 137.206V137.197C316.346 136.591 316.899 136.195 317.787 136.195C318.736 136.195 319.29 136.705 319.378 137.382L319.387 137.452H321.751V137.364C321.689 135.712 320.292 134.385 317.787 134.385C315.388 134.385 313.841 135.545 313.841 137.338V137.347C313.841 138.753 314.764 139.667 316.592 140.054L318.191 140.388C319.114 140.59 319.431 140.88 319.431 141.381V141.39C319.431 141.996 318.842 142.374 317.875 142.374C316.847 142.374 316.293 141.943 316.126 141.205L316.108 141.126H313.604L313.612 141.205C313.814 142.989 315.265 144.193 317.875 144.193ZM327.139 144.193C329.564 144.193 331.261 142.98 331.261 141.135V141.126C331.261 139.737 330.452 138.964 328.483 138.551L326.884 138.208C325.935 138.006 325.609 137.689 325.609 137.206V137.197C325.609 136.591 326.163 136.195 327.051 136.195C328 136.195 328.554 136.705 328.642 137.382L328.65 137.452H331.015V137.364C330.953 135.712 329.556 134.385 327.051 134.385C324.651 134.385 323.104 135.545 323.104 137.338V137.347C323.104 138.753 324.027 139.667 325.855 140.054L327.455 140.388C328.378 140.59 328.694 140.88 328.694 141.381V141.39C328.694 141.996 328.105 142.374 327.139 142.374C326.11 142.374 325.557 141.943 325.39 141.205L325.372 141.126H322.867L322.876 141.205C323.078 142.989 324.528 144.193 327.139 144.193ZM334.311 144H337.009L338.705 137.338H338.758L340.463 144H343.196L345.692 134.578H343.161L341.729 141.565H341.676L339.997 134.578H337.536L335.866 141.565H335.813L334.39 134.578H331.806L334.311 144ZM350.878 144.193C353.726 144.193 355.545 142.365 355.545 139.289V139.271C355.545 136.222 353.69 134.385 350.869 134.385C348.057 134.385 346.211 136.239 346.211 139.271V139.289C346.211 142.356 348.013 144.193 350.878 144.193ZM350.887 142.181C349.621 142.181 348.821 141.135 348.821 139.289V139.271C348.821 137.452 349.63 136.397 350.869 136.397C352.117 136.397 352.935 137.452 352.935 139.271V139.289C352.935 141.126 352.135 142.181 350.887 142.181ZM356.872 144H359.438V138.727C359.438 137.355 360.177 136.6 361.442 136.6C361.812 136.6 362.163 136.652 362.374 136.74V134.481C362.181 134.429 361.917 134.385 361.636 134.385C360.537 134.385 359.772 135.062 359.491 136.222H359.438V134.578H356.872V144ZM366.602 144.193C367.964 144.193 369.001 143.508 369.502 142.392H369.555V144H372.121V131.317H369.555V136.213H369.502C368.992 135.07 367.938 134.385 366.602 134.385C364.229 134.385 362.77 136.213 362.77 139.28V139.289C362.77 142.348 364.229 144.193 366.602 144.193ZM367.463 142.066C366.18 142.066 365.38 141.003 365.38 139.289V139.28C365.38 137.558 366.188 136.512 367.463 136.512C368.702 136.512 369.563 137.584 369.563 139.28V139.289C369.563 140.994 368.711 142.066 367.463 142.066Z" fill="#424D47"/>
<path d="M280.406 80H283.559V68.5625H283.652L288.223 80H290.449L295.008 68.5625H295.113V80H298.266V63.0898H294.176L289.371 75.2422H289.301L284.496 63.0898H280.406V80ZM306.504 80.2578C310.09 80.2578 311.824 78.1367 312.211 76.2852L312.246 76.1562H309.105L309.082 76.2266C308.836 76.9297 307.98 77.7031 306.574 77.7031C304.828 77.7031 303.738 76.5312 303.703 74.5273H312.352V73.4727C312.352 69.6758 310.043 67.1797 306.363 67.1797C302.684 67.1797 300.328 69.7344 300.328 73.7305V73.7422C300.328 77.7617 302.66 80.2578 306.504 80.2578ZM306.422 69.7344C307.84 69.7344 308.859 70.6367 309.07 72.3711H303.738C303.961 70.6719 305.016 69.7344 306.422 69.7344ZM314.121 80H317.543V72.7812C317.543 71.1406 318.516 70.0156 320.051 70.0156C321.586 70.0156 322.359 70.9531 322.359 72.5938V80H325.781V71.8906C325.781 68.9492 324.211 67.1797 321.445 67.1797C319.547 67.1797 318.258 68.0586 317.613 69.5H317.543V67.4375H314.121V80ZM332.227 80.2578C334.125 80.2578 335.414 79.3672 336.059 77.9258H336.129V80H339.551V67.4375H336.129V74.6562C336.129 76.2969 335.156 77.4219 333.621 77.4219C332.086 77.4219 331.312 76.4727 331.312 74.832V67.4375H327.891V75.5469C327.891 78.4883 329.461 80.2578 332.227 80.2578Z" fill="#424D47"/>
</svg>
