<svg width="151" height="160" viewBox="0 0 151 160" fill="none" xmlns="http://www.w3.org/2000/svg">
<path fill-rule="evenodd" clip-rule="evenodd" d="M34.6681 33.0212C34.6681 33.0212 56.7328 31.2329 65.7865 9.5598C66.2723 9.08508 68.0367 5.68027 69.4229 4.41862C73.7934 0.440899 81.6468 -2.34441 93.4528 9.5598C97.4827 13.9998 103.915 22.9564 118.224 22.9564C121.478 23.5523 133.666 24.5336 133.666 41.0501C134.025 45.1806 134.688 50.8307 144.713 55.9087C147.604 57.4768 155.76 59.7693 144.713 83.4405C143.558 87.212 141.982 97.9488 141.982 109.371C141.661 112.811 143.799 125.67 122.564 132.002C118.141 132.95 110.474 133.151 107.492 147.509C106.571 150.261 99.3343 161.117 87.4046 152.048C84.5742 150.794 75.2543 142.209 60.7734 154.274C56.5561 156.55 37.5823 168.265 23.3055 142.437C20.285 137.273 15.8065 131.728 15.8065 113.415C16.5922 108.037 24.0706 90.4254 10.3817 81.6695C7.07117 79.9178 1 78.8469 1 63.3628C3.56816 35.5236 34.6681 33.0212 34.6681 33.0212Z" fill="#FFE2D3" fill-opacity="0.01" stroke="#E7997C"/>
<path fill-rule="evenodd" clip-rule="evenodd" d="M49.3599 15.6261C49.3599 15.6261 52.1192 4.87055 63.5831 11.5759C67.6261 13.6833 78.5331 19.5662 88.8189 12.3135C92.4154 10.4948 101.703 4.21544 107.956 18.6414C110.116 23.3096 117.24 45.6876 137.449 49.1311C141.123 50.2316 148.745 49.903 144.934 63.4121C144.012 68.4756 141.549 79.9647 144.934 91.9824C146.806 96.1196 147.887 103.752 144.934 113.17C142.95 120.95 141.096 132.13 140.5 136.302C139.904 140.475 136.694 148.703 126.292 147.225C119.659 146.979 92.9303 145.739 92.9303 145.739C92.9303 145.739 83.4947 146.903 76.5583 149.134C72.1348 150.862 62.6235 153.791 52.9101 145.739C50.1406 143.963 45.6278 138.329 35.0848 136.302C29.8797 135.146 10.4093 131.129 12.1777 121.444C12.7453 118.768 15.688 113.17 12.1777 103.671C8.43236 96.9765 -1.95347 94.0245 10.9933 84.6705C12.6138 83.2514 22.2634 75.4154 22.2634 65.511C21.7813 60.9236 19.6712 47.666 31.7585 38.9884C47.4949 28.8696 49.3599 15.6261 49.3599 15.6261Z" fill="#BACAC2" fill-opacity="0.01" stroke="#BDCAC2"/>
</svg>
