<svg width="341" height="85" viewBox="0 0 341 85" fill="none" xmlns="http://www.w3.org/2000/svg">
<rect x="0.5" y="0.5" width="102" height="84" rx="7.5" stroke="#2A6049"/>
<path d="M31.3032 22H33.2202V18.3945H36.9463V16.8774H33.2202V14.4209H37.3018V12.8403H31.3032V22ZM38.8887 22H40.7422V18.0898C40.7422 17.0996 41.4087 16.4966 42.4624 16.4966C42.748 16.4966 43.0337 16.541 43.313 16.6045V14.9858C43.1289 14.9351 42.8687 14.897 42.6211 14.897C41.7134 14.897 41.0786 15.3413 40.8564 16.0967H40.7422V15.0112H38.8887V22ZM45.4966 13.9385C46.0679 13.9385 46.5376 13.4814 46.5376 12.9102C46.5376 12.3325 46.0679 11.8755 45.4966 11.8755C44.9253 11.8755 44.4492 12.3325 44.4492 12.9102C44.4492 13.4814 44.9253 13.9385 45.4966 13.9385ZM44.5635 22H46.417V15.0112H44.5635V22ZM51.3555 22.146C53.3994 22.146 54.3008 20.9653 54.5166 20.0894L54.5293 20.0259H52.8027L52.7837 20.064C52.6567 20.3306 52.2061 20.7622 51.3936 20.7622C50.4097 20.7622 49.7939 20.0957 49.7749 18.9468H54.5864V18.3691C54.5864 16.2554 53.3169 14.8589 51.2793 14.8589C49.2417 14.8589 47.9404 16.2871 47.9404 18.5088V18.5151C47.9404 20.7559 49.229 22.146 51.3555 22.146ZM51.311 16.249C52.1172 16.249 52.6948 16.7695 52.8091 17.7852H49.7939C49.9082 16.7949 50.5049 16.249 51.311 16.249ZM56.1035 22H57.957V17.9565C57.957 17.0107 58.4775 16.395 59.3345 16.395C60.2104 16.395 60.6167 16.9155 60.6167 17.8994V22H62.4702V17.4805C62.4702 15.811 61.6323 14.8589 60.0771 14.8589C59.0806 14.8589 58.3887 15.335 58.0713 16.0903H57.957V15.0112H56.1035V22ZM66.7612 22.1079C67.7451 22.1079 68.4878 21.6699 68.8496 20.9146H68.9639V22H70.8174V12.3389H68.9639V16.1284H68.8496C68.5005 15.3667 67.7197 14.897 66.7612 14.897C64.9902 14.897 63.9238 16.249 63.9238 18.4961V18.5088C63.9238 20.7432 65.0156 22.1079 66.7612 22.1079ZM67.3896 20.5718C66.4121 20.5718 65.8091 19.7974 65.8091 18.5088V18.4961C65.8091 17.2202 66.4121 16.4331 67.3896 16.4331C68.3672 16.4331 68.9829 17.2202 68.9829 18.5024V18.5151C68.9829 19.7974 68.3735 20.5718 67.3896 20.5718ZM21.604 42H23.521V38.6484H25.0889L26.7964 42H28.9673L27.0376 38.3628C28.085 37.9502 28.6943 36.9409 28.6943 35.7666V35.7539C28.6943 33.9512 27.501 32.8403 25.4189 32.8403H21.604V42ZM23.521 37.252V34.3384H25.1841C26.1426 34.3384 26.7329 34.9097 26.7329 35.792V35.8047C26.7329 36.7061 26.168 37.252 25.2095 37.252H23.521ZM33.29 42.146C35.334 42.146 36.2354 40.9653 36.4512 40.0894L36.4639 40.0259H34.7373L34.7183 40.064C34.5913 40.3306 34.1406 40.7622 33.3281 40.7622C32.3442 40.7622 31.7285 40.0957 31.7095 38.9468H36.521V38.3691C36.521 36.2554 35.2515 34.8589 33.2139 34.8589C31.1763 34.8589 29.875 36.2871 29.875 38.5088V38.5151C29.875 40.7559 31.1636 42.146 33.29 42.146ZM33.2456 36.249C34.0518 36.249 34.6294 36.7695 34.7437 37.7852H31.7285C31.8428 36.7949 32.4395 36.249 33.2456 36.249ZM42.7544 44.3169H44.6079V35.0112H42.7544V36.1602H42.6719C42.2847 35.373 41.5103 34.897 40.5645 34.897C38.7744 34.897 37.708 36.249 37.708 38.4961V38.5088C37.708 40.7432 38.7871 42.1079 40.5327 42.1079C41.5356 42.1079 42.2974 41.6699 42.6401 40.9336H42.7544V44.3169ZM41.1802 40.5718C40.1963 40.5718 39.5933 39.7974 39.5933 38.5088V38.4961C39.5933 37.2202 40.2026 36.4331 41.1802 36.4331C42.1514 36.4331 42.7798 37.2202 42.7798 38.5024V38.5151C42.7798 39.791 42.1577 40.5718 41.1802 40.5718ZM48.7656 42.146C49.7622 42.146 50.4731 41.6826 50.7905 40.9209H50.9048V42H52.7583V35.0112H50.9048V39.0483C50.9048 39.9941 50.4097 40.6099 49.4956 40.6099C48.6196 40.6099 48.2451 40.0957 48.2451 39.1055V35.0112H46.3916V39.5308C46.3916 41.1938 47.1978 42.146 48.7656 42.146ZM57.6904 42.146C59.7344 42.146 60.6357 40.9653 60.8516 40.0894L60.8643 40.0259H59.1377L59.1187 40.064C58.9917 40.3306 58.541 40.7622 57.7285 40.7622C56.7446 40.7622 56.1289 40.0957 56.1099 38.9468H60.9214V38.3691C60.9214 36.2554 59.6519 34.8589 57.6143 34.8589C55.5767 34.8589 54.2754 36.2871 54.2754 38.5088V38.5151C54.2754 40.7559 55.564 42.146 57.6904 42.146ZM57.646 36.249C58.4521 36.249 59.0298 36.7695 59.144 37.7852H56.1289C56.2432 36.7949 56.8398 36.249 57.646 36.249ZM65.2188 42.146C67.0088 42.146 68.2847 41.2446 68.2847 39.8608V39.8545C68.2847 38.8198 67.6309 38.2358 66.2344 37.9375L65.0728 37.6899C64.3491 37.5312 64.0889 37.3154 64.0889 36.9409V36.9346C64.0889 36.4648 64.5459 36.1665 65.187 36.1665C65.8789 36.1665 66.2915 36.5156 66.3931 36.8901L66.3994 36.9219H68.1196V36.8965C68.0435 35.7729 67.0278 34.8589 65.1934 34.8589C63.4478 34.8589 62.2798 35.7349 62.2798 37.0488V37.0552C62.2798 38.1025 62.9399 38.7563 64.2729 39.042L65.4409 39.2896C66.1519 39.4482 66.4312 39.6831 66.4312 40.0576V40.0703C66.4312 40.5337 65.9487 40.8384 65.2378 40.8384C64.5078 40.8384 64.0825 40.5273 63.9365 40.0957L63.9238 40.0703H62.1021L62.1084 40.0957C62.2417 41.2954 63.3208 42.146 65.2188 42.146ZM72.6646 42.0254C73.02 42.0254 73.3628 41.9873 73.5913 41.9429V40.5654C73.4136 40.5845 73.2866 40.5972 73.0454 40.5972C72.417 40.5972 72.1504 40.3179 72.1504 39.6895V36.4077H73.5913V35.0112H72.1504V33.3418H70.2778V35.0112H69.1987V36.4077H70.2778V40.1147C70.2778 41.4731 70.9634 42.0254 72.6646 42.0254ZM77.8506 42.146C79.6406 42.146 80.9165 41.2446 80.9165 39.8608V39.8545C80.9165 38.8198 80.2627 38.2358 78.8662 37.9375L77.7046 37.6899C76.981 37.5312 76.7207 37.3154 76.7207 36.9409V36.9346C76.7207 36.4648 77.1777 36.1665 77.8188 36.1665C78.5107 36.1665 78.9233 36.5156 79.0249 36.8901L79.0312 36.9219H80.7515V36.8965C80.6753 35.7729 79.6597 34.8589 77.8252 34.8589C76.0796 34.8589 74.9116 35.7349 74.9116 37.0488V37.0552C74.9116 38.1025 75.5718 38.7563 76.9048 39.042L78.0728 39.2896C78.7837 39.4482 79.063 39.6831 79.063 40.0576V40.0703C79.063 40.5337 78.5806 40.8384 77.8696 40.8384C77.1396 40.8384 76.7144 40.5273 76.5684 40.0957L76.5557 40.0703H74.7339L74.7402 40.0957C74.8735 41.2954 75.9526 42.146 77.8506 42.146Z" fill="#2A6049"/>
<rect x="119.5" y="0.5" width="102" height="84" rx="6.5" stroke="#2A6049"/>
<path d="M156.759 22H158.593V16.1411H158.695L162.935 22H164.522V12.8403H162.688V18.6738H162.586L158.358 12.8403H156.759V22ZM169.638 22.146C171.682 22.146 172.583 20.9653 172.799 20.0894L172.812 20.0259H171.085L171.066 20.064C170.939 20.3306 170.489 20.7622 169.676 20.7622C168.692 20.7622 168.077 20.0957 168.058 18.9468H172.869V18.3691C172.869 16.2554 171.6 14.8589 169.562 14.8589C167.524 14.8589 166.223 16.2871 166.223 18.5088V18.5151C166.223 20.7559 167.512 22.146 169.638 22.146ZM169.594 16.249C170.4 16.249 170.978 16.7695 171.092 17.7852H168.077C168.191 16.7949 168.788 16.249 169.594 16.249ZM175.586 22H177.528L178.766 17.125H178.88L180.131 22H182.099L183.958 15.0112H182.124L181.083 20.0703H180.969L179.737 15.0112H177.973L176.748 20.0703H176.633L175.592 15.0112H173.72L175.586 22ZM138.382 42H140.09V35.7666H140.217L142.565 42H143.765L146.114 35.7666H146.241V42H147.948V32.8403H145.752L143.226 39.5435H143.111L140.579 32.8403H138.382V42ZM153.064 42.146C155.108 42.146 156.01 40.9653 156.226 40.0894L156.238 40.0259H154.512L154.493 40.064C154.366 40.3306 153.915 40.7622 153.103 40.7622C152.119 40.7622 151.503 40.0957 151.484 38.9468H156.295V38.3691C156.295 36.2554 155.026 34.8589 152.988 34.8589C150.951 34.8589 149.649 36.2871 149.649 38.5088V38.5151C149.649 40.7559 150.938 42.146 153.064 42.146ZM153.02 36.249C153.826 36.249 154.404 36.7695 154.518 37.7852H151.503C151.617 36.7949 152.214 36.249 153.02 36.249ZM160.593 42.146C162.383 42.146 163.659 41.2446 163.659 39.8608V39.8545C163.659 38.8198 163.005 38.2358 161.608 37.9375L160.447 37.6899C159.723 37.5312 159.463 37.3154 159.463 36.9409V36.9346C159.463 36.4648 159.92 36.1665 160.561 36.1665C161.253 36.1665 161.666 36.5156 161.767 36.8901L161.773 36.9219H163.494V36.8965C163.417 35.7729 162.402 34.8589 160.567 34.8589C158.822 34.8589 157.654 35.7349 157.654 37.0488V37.0552C157.654 38.1025 158.314 38.7563 159.647 39.042L160.815 39.2896C161.526 39.4482 161.805 39.6831 161.805 40.0576V40.0703C161.805 40.5337 161.323 40.8384 160.612 40.8384C159.882 40.8384 159.457 40.5273 159.311 40.0957L159.298 40.0703H157.476L157.482 40.0957C157.616 41.2954 158.695 42.146 160.593 42.146ZM167.829 42.146C169.619 42.146 170.895 41.2446 170.895 39.8608V39.8545C170.895 38.8198 170.241 38.2358 168.845 37.9375L167.683 37.6899C166.959 37.5312 166.699 37.3154 166.699 36.9409V36.9346C166.699 36.4648 167.156 36.1665 167.797 36.1665C168.489 36.1665 168.902 36.5156 169.003 36.8901L169.01 36.9219H170.73V36.8965C170.654 35.7729 169.638 34.8589 167.804 34.8589C166.058 34.8589 164.89 35.7349 164.89 37.0488V37.0552C164.89 38.1025 165.55 38.7563 166.883 39.042L168.051 39.2896C168.762 39.4482 169.042 39.6831 169.042 40.0576V40.0703C169.042 40.5337 168.559 40.8384 167.848 40.8384C167.118 40.8384 166.693 40.5273 166.547 40.0957L166.534 40.0703H164.712L164.719 40.0957C164.852 41.2954 165.931 42.146 167.829 42.146ZM174.316 42.1079C175.23 42.1079 175.967 41.7207 176.322 41.0732H176.437V42H178.265V37.2266C178.265 35.7349 177.217 34.8589 175.364 34.8589C173.605 34.8589 172.45 35.6714 172.304 36.8965L172.298 36.9536H174.012L174.024 36.9282C174.17 36.5156 174.596 36.2808 175.262 36.2808C176.024 36.2808 176.437 36.6235 176.437 37.2266V37.8042L174.748 37.9058C173.009 38.0073 172.038 38.7437 172.038 40.0005V40.0132C172.038 41.2827 172.983 42.1079 174.316 42.1079ZM173.847 39.8989V39.8862C173.847 39.3784 174.234 39.0801 175.027 39.0293L176.437 38.9404V39.4546C176.437 40.1909 175.795 40.7559 174.938 40.7559C174.297 40.7559 173.847 40.4321 173.847 39.8989ZM183.165 44.4565C185.279 44.4565 186.618 43.4219 186.618 41.7842V35.0112H184.765V36.1538H184.676C184.301 35.3667 183.552 34.897 182.594 34.897C180.804 34.897 179.718 36.2808 179.718 38.3374V38.3501C179.718 40.3369 180.804 41.6953 182.562 41.6953C183.533 41.6953 184.27 41.2954 184.657 40.5591H184.771V41.8604C184.771 42.6729 184.193 43.1362 183.203 43.1362C182.378 43.1362 181.896 42.8569 181.794 42.4507L181.788 42.4253H179.953V42.457C180.105 43.644 181.229 44.4565 183.165 44.4565ZM183.19 40.2734C182.188 40.2734 181.616 39.4927 181.616 38.3438V38.3311C181.616 37.1821 182.194 36.4014 183.19 36.4014C184.187 36.4014 184.79 37.1821 184.79 38.3311V38.3438C184.79 39.4927 184.193 40.2734 183.19 40.2734ZM191.544 42.146C193.588 42.146 194.489 40.9653 194.705 40.0894L194.718 40.0259H192.991L192.972 40.064C192.845 40.3306 192.395 40.7622 191.582 40.7622C190.598 40.7622 189.982 40.0957 189.963 38.9468H194.775V38.3691C194.775 36.2554 193.505 34.8589 191.468 34.8589C189.43 34.8589 188.129 36.2871 188.129 38.5088V38.5151C188.129 40.7559 189.417 42.146 191.544 42.146ZM191.5 36.249C192.306 36.249 192.883 36.7695 192.998 37.7852H189.982C190.097 36.7949 190.693 36.249 191.5 36.249ZM199.072 42.146C200.862 42.146 202.138 41.2446 202.138 39.8608V39.8545C202.138 38.8198 201.484 38.2358 200.088 37.9375L198.926 37.6899C198.203 37.5312 197.942 37.3154 197.942 36.9409V36.9346C197.942 36.4648 198.399 36.1665 199.041 36.1665C199.732 36.1665 200.145 36.5156 200.247 36.8901L200.253 36.9219H201.973V36.8965C201.897 35.7729 200.881 34.8589 199.047 34.8589C197.301 34.8589 196.133 35.7349 196.133 37.0488V37.0552C196.133 38.1025 196.793 38.7563 198.126 39.042L199.294 39.2896C200.005 39.4482 200.285 39.6831 200.285 40.0576V40.0703C200.285 40.5337 199.802 40.8384 199.091 40.8384C198.361 40.8384 197.936 40.5273 197.79 40.0957L197.777 40.0703H195.956L195.962 40.0957C196.095 41.2954 197.174 42.146 199.072 42.146Z" fill="#2A6049"/>
<rect x="238.5" y="0.5" width="102" height="84" rx="6.5" stroke="#2A6049"/>
<path d="M264.173 22H266.09V19.1118H267.95C269.879 19.1118 271.168 17.8677 271.168 15.9824V15.9697C271.168 14.0845 269.879 12.8403 267.95 12.8403H264.173V22ZM267.48 14.3574C268.578 14.3574 269.226 14.9351 269.226 15.9761V15.9888C269.226 17.0298 268.578 17.6138 267.48 17.6138H266.09V14.3574H267.48ZM272.812 22H274.666V12.3389H272.812V22ZM278.487 22.1079C279.401 22.1079 280.137 21.7207 280.493 21.0732H280.607V22H282.435V17.2266C282.435 15.7349 281.388 14.8589 279.534 14.8589C277.776 14.8589 276.621 15.6714 276.475 16.8965L276.468 16.9536H278.182L278.195 16.9282C278.341 16.5156 278.766 16.2808 279.433 16.2808C280.194 16.2808 280.607 16.6235 280.607 17.2266V17.8042L278.918 17.9058C277.179 18.0073 276.208 18.7437 276.208 20.0005V20.0132C276.208 21.2827 277.154 22.1079 278.487 22.1079ZM278.017 19.8989V19.8862C278.017 19.3784 278.404 19.0801 279.198 19.0293L280.607 18.9404V19.4546C280.607 20.1909 279.966 20.7559 279.109 20.7559C278.468 20.7559 278.017 20.4321 278.017 19.8989ZM284.25 22H286.104V17.9565C286.104 17.0107 286.625 16.395 287.481 16.395C288.357 16.395 288.764 16.9155 288.764 17.8994V22H290.617V17.4805C290.617 15.811 289.779 14.8589 288.224 14.8589C287.228 14.8589 286.536 15.335 286.218 16.0903H286.104V15.0112H284.25V22ZM292.414 22H294.267V17.9565C294.267 17.0107 294.788 16.395 295.645 16.395C296.521 16.395 296.927 16.9155 296.927 17.8994V22H298.78V17.4805C298.78 15.811 297.942 14.8589 296.387 14.8589C295.391 14.8589 294.699 15.335 294.381 16.0903H294.267V15.0112H292.414V22ZM303.649 22.146C305.693 22.146 306.594 20.9653 306.81 20.0894L306.823 20.0259H305.096L305.077 20.064C304.95 20.3306 304.5 20.7622 303.687 20.7622C302.703 20.7622 302.087 20.0957 302.068 18.9468H306.88V18.3691C306.88 16.2554 305.61 14.8589 303.573 14.8589C301.535 14.8589 300.234 16.2871 300.234 18.5088V18.5151C300.234 20.7559 301.522 22.146 303.649 22.146ZM303.604 16.249C304.411 16.249 304.988 16.7695 305.103 17.7852H302.087C302.202 16.7949 302.798 16.249 303.604 16.249ZM310.892 22.1079C311.875 22.1079 312.618 21.6699 312.98 20.9146H313.094V22H314.948V12.3389H313.094V16.1284H312.98C312.631 15.3667 311.85 14.897 310.892 14.897C309.121 14.897 308.054 16.249 308.054 18.4961V18.5088C308.054 20.7432 309.146 22.1079 310.892 22.1079ZM311.52 20.5718C310.542 20.5718 309.939 19.7974 309.939 18.5088V18.4961C309.939 17.2202 310.542 16.4331 311.52 16.4331C312.498 16.4331 313.113 17.2202 313.113 18.5024V18.5151C313.113 19.7974 312.504 20.5718 311.52 20.5718ZM276.322 42H278.239V34.4209H280.988V32.8403H273.574V34.4209H276.322V42ZM281.762 42H283.616V38.0898C283.616 37.0996 284.282 36.4966 285.336 36.4966C285.622 36.4966 285.907 36.541 286.187 36.6045V34.9858C286.002 34.9351 285.742 34.897 285.495 34.897C284.587 34.897 283.952 35.3413 283.73 36.0967H283.616V35.0112H281.762V42ZM288.37 33.9385C288.941 33.9385 289.411 33.4814 289.411 32.9102C289.411 32.3325 288.941 31.8755 288.37 31.8755C287.799 31.8755 287.323 32.3325 287.323 32.9102C287.323 33.4814 287.799 33.9385 288.37 33.9385ZM287.437 42H289.291V35.0112H287.437V42ZM291.157 44.3169H293.01V40.8828H293.125C293.48 41.6445 294.261 42.1079 295.219 42.1079C296.99 42.1079 298.057 40.7559 298.057 38.5088V38.4961C298.057 36.2681 296.965 34.897 295.219 34.897C294.229 34.897 293.486 35.3413 293.125 36.0903H293.01V35.0112H291.157V44.3169ZM294.584 40.5718C293.613 40.5718 292.991 39.791 292.991 38.5088V38.4961C292.991 37.2139 293.607 36.4331 294.584 36.4331C295.568 36.4331 296.171 37.2139 296.171 38.4961V38.5088C296.171 39.791 295.562 40.5718 294.584 40.5718ZM302.354 42.146C304.144 42.146 305.42 41.2446 305.42 39.8608V39.8545C305.42 38.8198 304.766 38.2358 303.37 37.9375L302.208 37.6899C301.484 37.5312 301.224 37.3154 301.224 36.9409V36.9346C301.224 36.4648 301.681 36.1665 302.322 36.1665C303.014 36.1665 303.427 36.5156 303.528 36.8901L303.535 36.9219H305.255V36.8965C305.179 35.7729 304.163 34.8589 302.329 34.8589C300.583 34.8589 299.415 35.7349 299.415 37.0488V37.0552C299.415 38.1025 300.075 38.7563 301.408 39.042L302.576 39.2896C303.287 39.4482 303.566 39.6831 303.566 40.0576V40.0703C303.566 40.5337 303.084 40.8384 302.373 40.8384C301.643 40.8384 301.218 40.5273 301.072 40.0957L301.059 40.0703H299.237L299.244 40.0957C299.377 41.2954 300.456 42.146 302.354 42.146Z" fill="#2A6049"/>
</svg>
