<svg width="165" height="233" viewBox="0 0 165 233" fill="none" xmlns="http://www.w3.org/2000/svg">
<path fill-rule="evenodd" clip-rule="evenodd" d="M22.4512 175.965C22.4512 175.965 5.51936 152.791 19.5878 127.702C32.0702 105.441 46.6235 106.962 57.301 115.996C61.8487 119.844 74.9602 116.47 86.1197 93.819C101.338 62.9288 154.091 81.6638 144.473 129.189C139.818 152.188 156.59 152.366 147 175.356L22.4512 175.965Z" fill="#BACAC2"/>
<path fill-rule="evenodd" clip-rule="evenodd" d="M145.223 125.213C145.223 125.213 162.155 148.387 148.086 173.476C135.604 195.737 121.051 194.216 110.373 185.182C105.825 181.335 92.7139 184.708 81.5544 207.359C66.3359 238.249 13.5828 219.514 23.2013 171.989C27.856 148.99 11.6289 148.203 21.2188 125.213H145.223Z" fill="#BACAC2"/>
<path fill-rule="evenodd" clip-rule="evenodd" d="M69.508 102.54C62.3876 108.939 52.9181 109.927 48.3574 104.749C43.7966 99.5709 45.8716 90.1864 52.992 83.7883C60.1124 77.3902 69.5819 76.4013 74.1426 81.5796C78.7034 86.7578 76.6284 96.1423 69.508 102.54Z" fill="#BACAC2"/>
<path fill-rule="evenodd" clip-rule="evenodd" d="M33.285 103.217C31.2191 100.975 30.8998 97.9928 32.5718 96.5566C34.2438 95.1204 37.274 95.7738 39.34 98.016C41.4059 100.258 41.7253 103.24 40.0532 104.676C38.3811 106.113 35.3509 105.459 33.285 103.217Z" fill="#BACAC2"/>
<path fill-rule="evenodd" clip-rule="evenodd" d="M143.254 93.8243C142.567 90.8377 143.786 88.023 145.975 87.5375C148.165 87.052 150.497 89.0794 151.183 92.0661C151.87 95.0526 150.652 97.8673 148.462 98.3528C146.272 98.8383 143.941 96.8108 143.254 93.8243Z" fill="#BACAC2"/>
<path d="M76.3774 119.611L76.5427 119.805L76.7599 120.055C76.9157 120.221 77.0668 120.396 77.2368 120.557C77.5626 120.897 77.9167 121.228 78.2755 121.564C78.9932 122.227 79.7439 122.851 80.5277 123.433C81.3256 124.024 82.1613 124.573 83.0065 125.112C83.4645 125.368 83.8658 125.638 84.3096 125.884L85.3342 126.451C85.4806 126.517 85.6505 126.527 85.8064 126.48C86.1369 126.38 88.0349 124.497 88.6393 123.802C89.9802 122.265 92.0104 120.24 93.1058 118.518L94.3523 120.207C93.578 122.317 92.5534 124.322 91.2975 126.186C90.6223 127.189 89.8102 128.097 88.8895 128.888C88.3371 129.356 87.7091 129.73 87.0339 129.999C86.1841 130.34 85.2492 130.411 84.3521 130.203C84.1208 130.146 83.8941 130.07 83.6769 129.976L83.252 129.791L82.4871 129.441C81.9725 129.209 81.4767 128.94 80.9762 128.689C79.9753 128.154 79.0026 127.563 78.0678 126.924C77.1235 126.276 76.2169 125.571 75.3529 124.814C74.9043 124.422 74.503 124.024 74.0922 123.594C73.8892 123.381 73.6815 123.159 73.4831 122.927L73.1857 122.567C73.0818 122.435 73.0016 122.335 72.8505 122.132L76.3774 119.611Z" fill="#FFB573"/>
<path d="M92.9312 118.773L95.1219 114.08L97.2136 117.836C97.2136 117.836 95.8396 120.207 94.3476 120.202L92.9312 118.773Z" fill="#FFB573"/>
<path d="M97.5866 112.131L99.7963 114.979L97.2136 117.832L95.1219 114.08L97.5866 112.131Z" fill="#FFB573"/>
<path fill-rule="evenodd" clip-rule="evenodd" d="M96.8171 119.128H100.297C100.5 119.128 100.67 118.972 100.689 118.768L101.421 110.409C101.439 110.177 101.26 109.979 101.029 109.979H97.5489C97.3459 109.979 97.1759 110.135 97.157 110.338L96.4252 118.698C96.4063 118.929 96.5857 119.128 96.8171 119.128Z" fill="#655EB0"/>
<path opacity="0.3" d="M96.855 118.291H100.339L100.991 110.821H97.5066L96.855 118.291Z" fill="white"/>
<path d="M96.6282 117.231L97.2467 116.914C97.5583 116.753 97.851 116.55 98.106 116.308L98.2193 115.897C98.0824 115.67 97.8133 115.561 97.563 115.632L97.0484 115.774L94.4988 115.968L94.4374 117.046L95.1834 118.205L95.4431 118.215C96.0238 118.229 96.5337 117.813 96.6282 117.231Z" fill="#FFB573"/>
<path fill-rule="evenodd" clip-rule="evenodd" d="M71.9298 115.026C73.7003 114.705 86.1888 125.557 86.1888 125.557L82.4871 130.997C82.4871 130.997 68.8324 121.47 69.2479 119.171C69.687 116.767 69.3518 115.495 71.9298 115.026Z" fill="#EC744A"/>
<path opacity="0.2" d="M73.5068 118.513L73.3699 124.209C74.7911 125.311 79.9045 129.242 79.9045 129.242L73.5068 118.513Z" fill="black"/>
<path d="M63.6057 227.784L67.7937 228.196L69.1205 218.465L64.9325 218.053L63.6057 227.784Z" fill="#FFB573"/>
<path d="M22.3726 170.684L21.3008 174.771L30.3614 178.684L32.2406 174.535L22.3726 170.684Z" fill="#FFB573"/>
<path fill-rule="evenodd" clip-rule="evenodd" d="M71.8261 228.811C71.5145 229 71.1509 229.081 70.7921 229.038C70.3435 229.014 69.9044 228.948 69.4748 228.839C69.4323 228.835 69.3992 228.801 69.3945 228.759C69.3898 228.716 69.4134 228.674 69.4512 228.655H69.4514C69.6415 228.564 71.3495 227.751 71.8592 228.054C71.9583 228.111 72.0197 228.215 72.0197 228.328C72.0386 228.513 71.963 228.693 71.8261 228.811ZM71.7363 228.234C71.6797 228.201 71.6183 228.186 71.5522 228.191L71.5664 228.186C70.9478 228.257 70.3482 228.437 69.7911 228.716C70.7212 228.901 71.42 228.882 71.6797 228.66C71.7694 228.579 71.8119 228.461 71.8024 228.343C71.8024 228.3 71.7788 228.257 71.7363 228.234Z" fill="#2A6049"/>
<path fill-rule="evenodd" clip-rule="evenodd" d="M69.5267 228.844L69.4889 228.853C69.4606 228.853 69.4275 228.844 69.4133 228.82C69.3897 228.797 69.3803 228.759 69.3897 228.726C69.3904 228.722 69.3916 228.714 69.3935 228.701C69.4188 228.524 69.5642 227.509 70.0696 227.117C70.2254 226.99 70.4332 226.942 70.6315 226.975C70.9053 227.013 70.9667 227.16 70.9951 227.269C71.0612 227.751 70.0366 228.631 69.5267 228.844ZM70.5938 227.155L70.5324 227.169L70.5418 227.165C70.4143 227.146 70.2821 227.179 70.1783 227.254C69.8525 227.614 69.6542 228.068 69.6022 228.546C70.1263 228.267 70.8251 227.571 70.7826 227.278C70.7826 227.254 70.7779 227.183 70.5938 227.155Z" fill="#2A6049"/>
<path fill-rule="evenodd" clip-rule="evenodd" d="M67.5861 226.502L63.79 226.658C63.62 226.658 63.4783 226.791 63.4642 226.961L62.5576 232.241C62.5388 232.619 62.8268 232.941 63.2045 232.965C63.2328 232.965 63.2564 232.965 63.2848 232.965C64.9326 232.879 65.7258 232.756 67.8127 232.685C69.0922 232.643 73.0253 233.107 74.7534 232.709C76.4815 232.312 76.1746 230.576 75.4191 230.585C72.9922 230.632 70.1924 229.048 68.7853 227.193C68.5823 227.042 67.8505 226.488 67.5861 226.502Z" fill="#EC744A"/>
<path fill-rule="evenodd" clip-rule="evenodd" d="M23.2272 175.306L25.1536 172.028C25.2433 171.886 25.2103 171.696 25.0781 171.588L21.1403 167.964C20.8334 167.741 20.4085 167.808 20.1819 168.115C20.1677 168.134 20.1535 168.158 20.1394 168.181C19.3178 169.615 18.992 170.348 17.9155 172.146C17.2592 173.248 14.7332 176.304 14.1336 177.974C13.5292 179.644 15.1487 180.325 15.55 179.687C16.8296 177.619 19.6719 176.12 21.9902 175.945C22.2404 175.855 23.095 175.538 23.2272 175.306Z" fill="#EC744A"/>
<path opacity="0.2" d="M69.1206 218.465L68.4407 223.484L64.2479 223.072L64.9278 218.058L69.1206 218.465Z" fill="black"/>
<path opacity="0.2" d="M35.0216 175.547L33.0905 179.923L27.2546 177.34L28.7419 173.172L35.0216 175.547Z" fill="black"/>
<path fill-rule="evenodd" clip-rule="evenodd" d="M74.6069 120.036C77.0007 124.109 74.0734 127.553 71.6323 139.74L55.8483 139.782C56.1032 133.216 56.0796 127.904 53.2797 114.988C53.0201 113.811 53.7613 112.647 54.937 112.387C55.0881 112.353 55.2439 112.335 55.3997 112.335C56.7029 112.335 58.3459 112.382 60.0079 112.552C62.6378 112.765 65.2488 113.162 67.8221 113.735C70.0129 114.265 70.5464 114.553 71.9345 115.022C72.7419 115.301 73.7193 117.515 74.6069 120.036Z" fill="#EC744A"/>
<path fill-rule="evenodd" clip-rule="evenodd" d="M72.2131 140.563C72.2131 140.563 81.0754 166.237 80.8582 178.584C80.7354 185.657 80.2066 198.837 78.0772 208.104C76.3397 215.669 69.2574 220.499 69.2574 220.499L63.5774 220.163C63.5774 220.163 60.5131 208.62 61.0466 204.026C62.109 194.882 65.2535 188.013 64.8758 179.616C64.2715 165.863 60.2109 140.345 60.2109 140.345L72.2131 140.563Z" fill="#2A6049"/>
<path d="M62.4537 221.644L70.452 222.117L71.1838 219.709L62.2412 218.881L62.4537 221.644Z" fill="#263238"/>
<path opacity="0.2" d="M63.4641 192.431C63.4736 192.422 63.483 192.384 63.5066 192.389C68.535 192.881 72.0148 185.609 71.1838 175.68L68.5162 150.37L63.4641 192.431Z" fill="black"/>
<path fill-rule="evenodd" clip-rule="evenodd" d="M68.2375 140.35C68.2375 140.35 75.2773 185.496 60.6311 190.577C52.9019 193.51 46.4004 190.331 38.6996 186.915C34.2471 184.942 28.6852 179.601 28.6852 179.601L30.824 173.768C30.824 173.768 35.8808 172.122 42.6137 173.172C50.1209 174.341 50.4373 176.47 53.105 174.866C58.7141 160.972 49.0633 149.992 55.6215 140.327L68.2375 140.35Z" fill="#2A6049"/>
<path d="M31.2491 172.661L28.3878 180.226L30.4936 181.839L33.8931 172.836L31.2491 172.661Z" fill="#263238"/>
<path d="M30.0687 131.868C29.3558 132.923 25.7391 132.208 25.7391 132.208L24.9695 127.719L29.4077 129.502L30.0687 131.868Z" fill="#FFB573"/>
<path d="M25.8618 127.487L26.5559 132.152L23.8835 132.549C23.586 132.573 23.3169 132.374 23.2555 132.085L22.2357 128.746C22.1979 128.585 22.2971 128.424 22.4576 128.381L25.8618 127.487Z" fill="#FFB573"/>
<path d="M24.6721 129.602L26.1971 129.871L27.6325 128.783L27.0753 128.386C26.6976 128.116 26.4332 127.719 26.3341 127.265C26.2255 126.777 26.1499 126.252 26.1405 125.822L26.1357 125.661C26.098 125.368 25.8713 125.136 25.5786 125.093L25.2009 125.372C24.9601 125.888 25.1348 126.489 25.1017 126.891L25.0404 127.672L24.4313 127.937L24.6721 129.602Z" fill="#FFB573"/>
<path d="M54.04 114.099L45.1068 126.413L28.6901 129.644V132.341C28.6901 132.341 44.1106 133.486 47.5715 131.461C51.0324 129.436 56.8493 117.193 56.8493 117.193L54.04 114.099Z" fill="#FFB573"/>
<path d="M53.9361 90.4405C50.1872 89.1821 45.8387 91.5144 44.1247 95.0814C42.4108 98.6484 43.0105 103.024 44.9416 106.483C45.5223 107.523 46.2211 108.507 46.6933 109.605C47.1654 110.702 47.4015 111.961 47.019 113.091C46.6366 114.222 46.2353 114.946 44.8377 114.766C44.8377 114.766 44.8188 113.99 45.3712 114.085C45.3712 114.085 44.2428 114.714 43.799 114.303C44.3089 115.097 45.6828 114.809 46.122 113.971C46.783 112.718 45.5695 111.019 44.1531 111.034C42.7366 111.048 41.5846 112.481 41.6318 113.9C41.679 115.32 42.7177 116.578 44.0114 117.16C43.2465 117.311 42.4061 116.862 42.1039 116.138C42.7461 117.822 44.8424 118.57 46.613 118.239C48.3836 117.907 49.8803 116.767 51.2684 115.618C53.1382 114.066 55.0881 112.107 55.0315 109.676C54.989 107.864 53.8275 106.308 52.8501 104.784C51.8728 103.261 51.0182 101.392 51.6367 99.6892C52.1608 98.2463 53.5867 97.3758 54.8473 96.5006C55.7539 95.8714 57.5953 94.4617 57.3781 93.137C57.1703 91.8834 54.9984 90.8 53.9361 90.4405Z" fill="#263238"/>
<path fill-rule="evenodd" clip-rule="evenodd" d="M45.4892 132.554L43.0151 125.992L43.5817 126.04C44.5166 126.115 45.4137 125.642 45.8717 124.819C47.7508 121.451 52.6376 112.898 54.0116 112.476C55.971 111.895 57.9871 113.465 58.7473 115.783C59.3044 117.491 53.563 124.814 50.9001 128.977C48.5393 132.663 45.4892 132.554 45.4892 132.554Z" fill="#EC744A"/>
<path fill-rule="evenodd" clip-rule="evenodd" d="M21.3527 177.515C21.3574 177.496 21.3574 177.463 21.3574 177.463C21.23 176.981 21.7399 176.172 22.061 175.717C22.0846 175.684 22.1223 175.67 22.1601 175.68C22.1979 175.689 22.2309 175.717 22.2357 175.76C22.2363 175.764 22.2371 175.769 22.2381 175.776C22.2728 175.995 22.5032 177.449 22.1129 177.799C22.0232 177.884 21.8957 177.913 21.7777 177.875C21.5841 177.837 21.4236 177.7 21.3527 177.515ZM22.0864 176.053C21.6494 176.671 21.4709 177.189 21.5557 177.444C21.603 177.567 21.7115 177.657 21.839 177.681C21.891 177.7 21.9476 177.695 21.9901 177.657C22.2057 177.469 22.1701 176.657 22.0864 176.053Z" fill="#2A6049"/>
<path fill-rule="evenodd" clip-rule="evenodd" d="M23.1044 177.44C22.6795 177.34 22.2026 176.47 22.0751 175.959C22.0562 175.907 22.0374 175.85 22.0326 175.798C22.0279 175.76 22.0421 175.727 22.0704 175.703C22.1035 175.684 22.1412 175.689 22.1696 175.708C22.2168 175.727 23.3311 176.21 23.5246 176.796C23.5813 176.943 23.5719 177.104 23.4963 177.241C23.4255 177.387 23.265 177.473 23.1044 177.44ZM23.3217 177.137C23.3689 177.061 23.3831 176.971 23.3595 176.886C23.3501 176.877 23.3453 176.867 23.3501 176.862C23.2367 176.503 22.6465 176.157 22.283 175.973C22.4199 176.47 22.8637 177.179 23.1517 177.241C23.199 177.246 23.2603 177.246 23.3217 177.137Z" fill="#2A6049"/>
<path d="M55.7917 138.983L55.3574 140.52C55.296 140.639 55.4376 140.762 55.6359 140.762L71.9252 140.738C72.081 140.748 72.2085 140.662 72.218 140.568L72.3691 139.026C72.3738 138.921 72.2416 138.827 72.0716 138.832L56.0703 138.85C55.957 138.841 55.8531 138.893 55.7917 138.983Z" fill="#407BFF"/>
<path fill-rule="evenodd" clip-rule="evenodd" d="M55.7917 138.983L55.3574 140.52C55.296 140.639 55.4376 140.762 55.6359 140.762L71.9252 140.738C72.081 140.748 72.2085 140.662 72.218 140.568L72.3691 139.026C72.3738 138.921 72.2416 138.827 72.0716 138.832L56.0703 138.85C55.957 138.841 55.8531 138.893 55.7917 138.983Z" fill="white"/>
<path fill-rule="evenodd" clip-rule="evenodd" d="M58.8985 140.899H58.4263C58.3366 140.894 58.2658 140.852 58.2705 140.795L58.483 138.794C58.4877 138.737 58.5679 138.69 58.6624 138.69L59.1345 138.685C59.2242 138.69 59.2951 138.732 59.2903 138.794L59.0779 140.79C59.0732 140.852 58.9882 140.904 58.8985 140.899Z" fill="#2A6049"/>
<path fill-rule="evenodd" clip-rule="evenodd" d="M70.6597 140.899H70.1875C70.0978 140.894 70.027 140.852 70.0317 140.795L70.2442 138.798C70.2489 138.737 70.3292 138.69 70.4189 138.69H70.891C70.9807 138.694 71.0516 138.737 71.0468 138.794L70.8344 140.79C70.8297 140.852 70.7541 140.899 70.6597 140.899Z" fill="#2A6049"/>
<path fill-rule="evenodd" clip-rule="evenodd" d="M65.2725 140.89H64.8003C64.7106 140.885 64.6398 140.842 64.6445 140.785L64.857 138.789C64.8617 138.728 64.942 138.68 65.0317 138.68H65.5038C65.5935 138.685 65.6644 138.728 65.6596 138.784L65.4472 140.781C65.4472 140.842 65.3669 140.89 65.2725 140.89Z" fill="#2A6049"/>
<path d="M60.7445 103.942C61.245 106.516 61.736 111.171 59.9938 112.576C59.9938 112.576 60.6878 115.22 65.3574 115.921C70.5133 116.701 67.8079 113.759 67.8079 113.759C65.0033 112.642 65.0694 110.613 65.5557 108.739L60.7445 103.942Z" fill="#FFB573"/>
<path d="M60.008 112.552C62.6379 112.76 64.8334 113.006 67.4066 113.584L70.9383 114.634C71.5663 115.902 70.537 118.508 67.5813 119.005C67.5813 119.005 60.1355 120.036 57.9399 112.354L60.008 112.552Z" fill="#FFB573"/>
<path opacity="0.2" d="M62.7039 105.905L65.551 108.744C65.433 109.184 65.3527 109.633 65.3149 110.087C64.2431 109.77 62.515 108.583 62.397 107.448C62.3923 106.918 62.4962 106.393 62.7039 105.905Z" fill="black"/>
<path d="M57.5904 100.687C58.851 104.69 59.2996 106.416 61.887 107.992C65.7539 110.357 70.4046 107.935 70.3432 103.635C70.3055 99.7649 68.2516 93.8703 63.8606 93.2411C60.7396 92.7728 57.8312 94.93 57.3637 98.0571C57.2363 98.937 57.3118 99.8406 57.5904 100.687Z" fill="#FFB573"/>
<path d="M67.1232 100.063C67.5717 100.768 68.1147 101.411 68.7379 101.965C68.4405 102.277 68.0203 102.447 67.5906 102.423L67.1232 100.063Z" fill="#ED893E"/>
<path d="M66.6748 104.567C66.8353 104.548 66.9958 104.519 67.1517 104.477C67.2036 104.463 67.2319 104.415 67.2225 104.363V104.359C67.2083 104.306 67.1564 104.273 67.1044 104.283C66.2782 104.515 65.3858 104.33 64.7153 103.791C64.6728 103.753 64.6115 103.758 64.5737 103.796C64.5359 103.838 64.5406 103.9 64.5784 103.937C65.1639 104.42 65.9193 104.647 66.6748 104.567Z" fill="#263238"/>
<path fill-rule="evenodd" clip-rule="evenodd" d="M56.2165 92.697C55.173 93.3641 54.4884 94.561 54.4459 95.8004C54.4364 96.037 54.4553 96.2782 54.5545 96.4911C54.6584 96.704 54.8614 96.879 55.0927 96.8932C55.4516 96.9122 55.716 96.5763 55.9143 96.2735C56.2165 95.8052 56.5234 95.3415 56.8255 94.8732C57.123 94.4143 57.6188 93.8845 57.784 93.3641C58.0862 92.4085 56.7783 92.3375 56.2165 92.697Z" fill="#2A6049"/>
<path d="M56.6651 93.6385C54.1533 96.5432 53.0343 104.581 60.3762 106.823C61.6038 105.849 59.6208 104.079 58.7804 101.832C58.2279 100.366 61.0278 97.6265 62.1185 96.5006C63.2092 95.3794 64.2149 93.752 65.7541 94.0122C66.1601 94.0785 66.5898 94.2157 66.9628 94.0453C68.1857 93.4918 67.5907 92.7586 66.977 92.2429C66.0751 91.4907 64.8003 91.1454 63.6483 91.0224C61.0986 90.748 58.3696 91.6705 56.6651 93.6385Z" fill="#263238"/>
<path d="M64.8192 92.6639C67.7655 95.1287 63.8608 95.1902 61.8116 96.7513C59.8333 98.251 61.2214 100.706 57.8739 101.846C55.1401 102.646 54.5074 102.168 53.752 101.638C53.752 101.638 56.8493 101.246 57.3073 97.759C57.5386 95.9613 61.4481 89.8065 64.8192 92.6639Z" fill="#263238"/>
<path d="M57.1467 104.051C57.6094 104.718 58.3129 105.177 59.1108 105.328C60.1684 105.513 60.5745 104.543 60.2109 103.597C59.8663 102.745 58.9078 101.624 57.8879 101.865C57.1514 102.054 56.7123 102.807 56.8964 103.54C56.9436 103.724 57.0286 103.899 57.1467 104.051Z" fill="#FFB573"/>
<path d="M64.3141 92.9147C64.8854 94.3718 66.5333 94.1778 67.7514 95.7011C68.5021 96.6331 69.9705 93.7284 67.9686 92.5788C65.9667 91.4245 63.417 90.6344 64.3141 92.9147Z" fill="#263238"/>
<path d="M62.5764 99.0647C62.6614 99.0742 62.7417 99.0269 62.7747 98.9465C63.1619 98.0807 64.3234 97.8678 64.3376 97.8631C64.4462 97.8442 64.517 97.7401 64.4981 97.6313C64.4792 97.5225 64.3753 97.4515 64.2667 97.4705C64.2101 97.4799 62.8833 97.7496 62.4159 98.7903C62.3687 98.8897 62.4112 99.008 62.5103 99.0553L62.5764 99.0647Z" fill="#263238"/>
<path d="M68.7145 97.3238C68.7853 97.3285 68.8514 97.2954 68.8892 97.2339C68.9506 97.144 68.9269 97.021 68.8372 96.9595C68.8372 96.9595 68.8372 96.9595 68.8325 96.9595C68.3037 96.5952 67.6285 96.5054 67.0194 96.7277C66.9156 96.7703 66.8683 96.8885 66.9156 96.9926C66.9581 97.0967 67.0761 97.144 67.18 97.0967C67.6616 96.9264 68.1951 97.0021 68.6106 97.2954C68.6437 97.3096 68.6814 97.3238 68.7145 97.3238Z" fill="#263238"/>
<path d="M88.1247 123.22L85.3626 124.795L82.4872 130.993C82.4872 130.993 85.2634 132.762 87.4495 131.329C89.6403 129.895 88.1247 123.22 88.1247 123.22Z" fill="#407BFF"/>
<path fill-rule="evenodd" clip-rule="evenodd" d="M88.1247 123.22L85.3626 124.795L82.4872 130.993C82.4872 130.993 85.2634 132.762 87.4495 131.329C89.6403 129.895 88.1247 123.22 88.1247 123.22Z" fill="#FFE2D3"/>
<path d="M39.7431 125.136L43.0151 126.063L46.1172 132.492C46.1172 132.492 43.6195 134.801 40.9235 132.596C38.9027 130.941 39.7431 125.136 39.7431 125.136Z" fill="#FFE1D3"/>
<g opacity="0.5">
<path d="M39.7431 125.136L43.0151 126.063L46.1172 132.492C46.1172 132.492 43.6195 134.801 40.9235 132.596C38.9027 130.941 39.7431 125.136 39.7431 125.136Z" fill="#FFE1D3"/>
</g>
<path d="M68.5256 98.9275C68.7523 98.8849 68.9884 99.1404 69.0497 99.4905C69.1111 99.8405 68.9742 100.162 68.7476 100.2C68.5209 100.238 68.2848 99.9872 68.2235 99.6371C68.1574 99.2965 68.299 98.9701 68.5256 98.9275Z" fill="#263238"/>
<path d="M69.2243 98.5822L68.4264 98.9748C68.908 99.3154 69.2243 98.5822 69.2243 98.5822Z" fill="#263238"/>
<path d="M64.5736 99.7412C64.8003 99.6986 65.0363 99.9541 65.0977 100.304C65.1591 100.654 65.0222 100.976 64.7955 101.014C64.5689 101.052 64.3328 100.801 64.2714 100.451C64.2053 100.11 64.347 99.7838 64.5736 99.7412Z" fill="#263238"/>
<path d="M65.2724 99.3959L64.4745 99.7885C64.9561 100.129 65.2724 99.3959 65.2724 99.3959Z" fill="#263238"/>
<path d="M44.5921 117.841C44.1436 117.841 43.6998 117.761 43.2937 117.595C41.83 116.994 41.1501 115.471 41.424 113.408C41.4429 113.281 41.5609 113.186 41.6884 113.205C41.8159 113.224 41.9103 113.342 41.8914 113.47C41.6459 115.301 42.2219 116.644 43.4731 117.155C44.8235 117.709 46.6177 117.155 47.5573 115.897C48.7376 114.317 48.3552 112.074 46.5091 109.747C41.6742 103.668 42 100.437 42.6799 97.882C43.6714 94.1731 46.5752 89.9249 54.7906 90.7386C54.9181 90.7527 55.0126 90.8663 55.0031 90.9987C54.989 91.1265 54.8804 91.2211 54.7434 91.2116C46.8632 90.4263 44.0775 94.4759 43.1332 98.005C42.4486 100.56 42.1747 103.545 46.8726 109.454C49.7056 113.016 48.5582 115.348 47.9303 116.181C47.1559 117.231 45.8433 117.841 44.5921 117.841Z" fill="#263238"/>
<path d="M134.009 144.463L109.81 144.352C106.9 144.338 104.552 141.964 104.562 139.047L104.82 78.2604C104.833 75.3419 107.203 72.9869 110.116 73.0001L134.315 73.1115C137.225 73.1246 139.573 75.4992 139.562 78.4155L139.305 139.202C139.294 142.121 136.922 144.476 134.009 144.463Z" fill="#2A6049"/>
<path d="M134.28 75.2108L129.588 75.189C128.958 75.1868 128.445 75.7176 128.443 76.3773L128.439 77.2293C128.436 77.889 127.924 78.4199 127.294 78.4177L118.148 78.3762C117.518 78.374 117.012 77.8366 117.014 77.1769L117.018 76.3249C117.021 75.6652 116.513 75.13 115.885 75.1256L114.234 75.1169L110.129 75.0972C108.09 75.0885 106.429 76.7378 106.42 78.7803L106.169 138.112C106.161 140.155 107.805 141.817 109.843 141.826L133.994 141.938C136.033 141.946 137.694 140.297 137.703 138.254L137.953 78.9223C137.964 76.882 136.318 75.2195 134.28 75.2108Z" fill="white"/>
<ellipse cx="122.062" cy="108.945" rx="6.5625" ry="6.57534" fill="#EC744A"/>
<path d="M118.6 109.596C118.659 109.69 119.021 110.08 119.493 110.621C120.056 111.268 120.692 111.997 120.767 112.079C120.903 112.231 121.004 112.126 121.208 111.729C121.491 111.18 122.075 109.975 122.894 108.876C123.714 107.776 124.944 106.563 125.237 106.336C125.53 106.108 125.666 105.956 125.471 105.881C125.276 105.805 123.752 106.852 122.862 107.787C121.907 108.792 120.872 110.432 120.616 110.471C120.41 110.502 119.416 109.778 119.134 109.608C118.807 109.411 118.444 109.35 118.6 109.596Z" fill="white"/>
<path fill-rule="evenodd" clip-rule="evenodd" d="M150.938 166.87C150.937 164.206 147.355 160.36 145.488 158.528C143.73 157.32 141.445 156.261 139.709 157.25C136.446 159.105 145.395 159.934 146.719 162.739C147.201 163.76 147.456 164.658 147.587 165.388C147.111 165.247 146.334 165.076 145.607 165.184C144.843 165.297 143.555 166.243 142.771 166.87C143.136 166.25 143.471 165.475 143.555 164.626C143.758 162.571 142.956 160.251 141.674 161.783C140.745 162.894 141.162 165.825 141.463 167.354C140.966 167.549 140.467 167.762 139.969 167.992C138.06 161.245 133.576 150.518 124.843 150.151C124.843 150.151 121.397 151.468 125.214 155.799C128.463 159.485 133.653 160.961 138.572 168.689C138.268 168.852 137.966 169.023 137.665 169.202C135.305 166.936 130.89 163.337 127.197 163.988C123.252 164.683 131.817 168.165 136.524 169.925C135.454 170.649 134.422 171.48 133.468 172.438C133.468 172.438 131.929 174.496 125.133 173.467C118.336 172.438 112.438 179.521 112.438 179.521L145.488 177.986C145.935 177.264 147.074 175.179 148.312 173.164C149.328 171.512 150.938 169.246 150.938 166.87Z" fill="#2A6049"/>
<path fill-rule="evenodd" clip-rule="evenodd" d="M107.088 177.625C107.088 177.625 97.6123 186.914 97.6123 189.359C102.083 189.317 123.375 191.356 123.375 191.356C123.375 191.356 132.125 192.89 140.944 183.816C142.482 181.732 146.125 179.083 146.125 175.137C144.796 166.557 138.205 168.912 138.205 168.912L123.813 174.918L107.088 177.625Z" fill="#2A6049"/>
<path fill-rule="evenodd" clip-rule="evenodd" d="M111.121 196.878H86.8904C86.2606 196.878 85.75 196.367 85.75 195.736V171.458C85.75 170.826 86.2606 170.315 86.8904 170.315H111.121C111.751 170.315 112.261 170.826 112.261 171.458V195.736C112.261 196.367 111.751 196.878 111.121 196.878Z" fill="#655EB0"/>
<path fill-rule="evenodd" clip-rule="evenodd" d="M108.378 192.186H89.6327C89.0644 192.186 88.6036 191.725 88.6036 191.155V187.719C88.6036 187.149 89.0644 186.687 89.6327 186.687H108.378C108.947 186.687 109.408 187.149 109.408 187.719V191.155C109.408 191.725 108.947 192.186 108.378 192.186Z" fill="white"/>
<path fill-rule="evenodd" clip-rule="evenodd" d="M92.322 189.44L92.9289 189.769L92.6561 190.226L92.0436 189.864L92.0545 190.539H91.531L91.5365 189.858L90.9238 190.226L90.6565 189.769L91.2636 189.44L90.6565 189.105L90.9238 188.647L91.5365 189.016L91.531 188.335H92.0545L92.0436 189.016L92.6561 188.647L92.9289 189.105L92.322 189.44Z" fill="white"/>
<path fill-rule="evenodd" clip-rule="evenodd" d="M95.9283 189.44L96.5355 189.769L96.2626 190.227L95.6499 189.864L95.661 190.539H95.1373L95.1431 189.858L94.5304 190.227L94.2631 189.769L94.87 189.44L94.2631 189.105L94.5304 188.647L95.1431 189.015L95.1373 188.335H95.661L95.6499 189.015L96.2626 188.647L96.5355 189.105L95.9283 189.44Z" fill="white"/>
<path fill-rule="evenodd" clip-rule="evenodd" d="M99.5348 189.44L100.142 189.769L99.8691 190.227L99.2564 189.864L99.2675 190.539H98.7437L98.7495 189.858L98.1368 190.227L97.8695 189.769L98.4764 189.44L97.8695 189.105L98.1368 188.647L98.7495 189.015L98.7437 188.335H99.2675L99.2564 189.015L99.8691 188.647L100.142 189.105L99.5348 189.44Z" fill="white"/>
<path fill-rule="evenodd" clip-rule="evenodd" d="M103.141 189.44L103.748 189.769L103.475 190.227L102.863 189.864L102.874 190.539H102.35L102.356 189.858L101.743 190.227L101.476 189.769L102.083 189.44L101.476 189.105L101.743 188.647L102.356 189.016L102.35 188.335H102.874L102.863 189.016L103.475 188.647L103.748 189.105L103.141 189.44Z" fill="white"/>
<path fill-rule="evenodd" clip-rule="evenodd" d="M106.748 189.44L107.355 189.769L107.082 190.227L106.469 189.864L106.481 190.539H105.957L105.963 189.858L105.35 190.227L105.083 189.769L105.689 189.44L105.083 189.105L105.35 188.647L105.963 189.015L105.957 188.335H106.481L106.469 189.015L107.082 188.647L107.355 189.105L106.748 189.44Z" fill="white"/>
<path fill-rule="evenodd" clip-rule="evenodd" d="M104.951 178.534C104.951 181.824 102.289 184.491 99.0057 184.491C95.7218 184.491 93.0599 181.824 93.0599 178.534C93.0599 175.244 95.7218 172.577 99.0057 172.577C102.289 172.577 104.951 175.244 104.951 178.534Z" fill="white"/>
<path fill-rule="evenodd" clip-rule="evenodd" d="M99.4334 181.357H98.578L98.7571 180.197C98.57 180.105 98.4402 179.914 98.4402 179.69C98.4402 179.378 98.6932 179.124 99.0057 179.124C99.318 179.124 99.5713 179.378 99.5713 179.69C99.5713 179.914 99.4414 180.105 99.2541 180.197L99.4334 181.357ZM101.331 178.2H96.6807C96.3289 178.2 96.0436 178.486 96.0436 178.838V181.676C96.0436 182.029 96.3289 182.315 96.6807 182.315H101.331C101.682 182.315 101.968 182.029 101.968 181.676V178.838C101.968 178.486 101.682 178.2 101.331 178.2Z" fill="#EC744A"/>
<path fill-rule="evenodd" clip-rule="evenodd" d="M97.6679 177.745L97.5802 177.309C97.4248 176.533 97.9281 175.775 98.7022 175.619C99.4764 175.464 100.233 175.968 100.388 176.744L100.476 177.18L101.295 177.015L101.208 176.579C100.962 175.35 99.7637 174.551 98.5376 174.798C97.3116 175.045 96.5145 176.245 96.7607 177.474L96.8481 177.91L97.6679 177.745Z" fill="#EC744A"/>
<path fill-rule="evenodd" clip-rule="evenodd" d="M102.319 195.06H95.6926C95.5305 195.06 95.3993 194.928 95.3993 194.766C95.3993 194.604 95.5305 194.472 95.6926 194.472H102.319C102.481 194.472 102.612 194.604 102.612 194.766C102.612 194.928 102.481 195.06 102.319 195.06Z" fill="white"/>
<path d="M8.84766 18.293C12.7383 18.293 15.6094 15.8906 16.043 12.4219L16.0664 12.3047H13.1016L13.0664 12.4219C12.5156 14.5078 11.0039 15.668 8.84766 15.668C5.90625 15.668 4.00781 13.3008 4.00781 9.53906V9.52734C4.00781 5.77734 5.89453 3.42188 8.84766 3.42188C11.0508 3.42188 12.5391 4.62891 13.0312 6.5625L13.0898 6.78516H16.0547L16.043 6.66797C15.5977 3.22266 12.7383 0.796875 8.84766 0.796875C3.99609 0.796875 0.914062 4.125 0.914062 9.52734V9.53906C0.914062 14.9414 3.98438 18.293 8.84766 18.293ZM18.0703 18H20.9883V10.793C20.9883 8.95312 21.9844 7.91016 23.6367 7.91016C24.1289 7.91016 24.5742 7.98047 24.8203 8.07422V5.4375C24.5977 5.37891 24.2578 5.32031 23.8945 5.32031C22.4648 5.32031 21.4336 6.22266 21.0469 7.72266H20.9883V5.57812H18.0703V18ZM31.3125 18.2461C34.5586 18.2461 36.3867 16.3242 36.7734 14.4141L36.8086 14.2852H34.0781L34.0547 14.3672C33.7734 15.1992 32.8242 15.9727 31.3711 15.9727C29.4727 15.9727 28.2773 14.6836 28.2305 12.5039H36.9258V11.5664C36.9258 7.81641 34.7227 5.32031 31.1719 5.32031C27.6211 5.32031 25.3359 7.89844 25.3359 11.8125V11.8242C25.3359 15.7734 27.5859 18.2461 31.3125 18.2461ZM31.207 7.60547C32.7539 7.60547 33.8789 8.58984 34.0898 10.5586H28.2656C28.5 8.64844 29.6602 7.60547 31.207 7.60547ZM42.4805 18.2109C44.1211 18.2109 45.5039 17.3906 46.2188 16.0898H46.2891V18H49.207V9.45703C49.207 6.96094 47.2031 5.32031 44.0977 5.32031C40.9453 5.32031 39.0352 6.97266 38.8594 9.17578L38.8477 9.31641H41.5547L41.5781 9.21094C41.7656 8.29688 42.6094 7.65234 43.9922 7.65234C45.4688 7.65234 46.2891 8.41406 46.2891 9.66797V10.5234L43.043 10.7227C40.0312 10.9102 38.3203 12.2344 38.3203 14.4375V14.4609C38.3203 16.6758 39.9961 18.2109 42.4805 18.2109ZM41.2266 14.3438V14.332C41.2266 13.3477 42.0117 12.7266 43.4531 12.6328L46.2891 12.457V13.3945C46.2891 14.8711 45.0234 15.9844 43.3477 15.9844C42.0703 15.9844 41.2266 15.3633 41.2266 14.3438ZM56.1797 18.2461C56.7656 18.2461 57.2812 18.1875 57.6211 18.1406V15.9492C57.4219 15.9609 57.1992 15.9961 56.918 15.9961C55.8516 15.9961 55.3125 15.6094 55.3125 14.3906V7.82812H57.6211V5.57812H55.3125V2.42578H52.3477V5.57812H50.5898V7.82812H52.3477V14.6367C52.3477 17.1914 53.5781 18.2461 56.1797 18.2461ZM64.8516 18.2461C68.0977 18.2461 69.9258 16.3242 70.3125 14.4141L70.3477 14.2852H67.6172L67.5938 14.3672C67.3125 15.1992 66.3633 15.9727 64.9102 15.9727C63.0117 15.9727 61.8164 14.6836 61.7695 12.5039H70.4648V11.5664C70.4648 7.81641 68.2617 5.32031 64.7109 5.32031C61.1602 5.32031 58.875 7.89844 58.875 11.8125V11.8242C58.875 15.7734 61.125 18.2461 64.8516 18.2461ZM64.7461 7.60547C66.293 7.60547 67.418 8.58984 67.6289 10.5586H61.8047C62.0391 8.64844 63.1992 7.60547 64.7461 7.60547ZM76.2773 18H79.4414L80.8711 13.6289H87.1641L88.5938 18H91.7695L85.7227 1.08984H82.3242L76.2773 18ZM83.9883 4.10156H84.0586L86.4023 11.2969H81.6328L83.9883 4.10156ZM98.3672 18.2461C101.508 18.2461 103.605 16.2773 103.828 13.6875L103.84 13.6055H101.086L101.062 13.7109C100.793 15.0117 99.8555 15.8906 98.3789 15.8906C96.5391 15.8906 95.3438 14.3906 95.3438 11.8008V11.7891C95.3438 9.24609 96.5273 7.6875 98.3672 7.6875C99.9141 7.6875 100.805 8.66016 101.051 9.86719L101.074 9.97266H103.828L103.816 9.87891C103.641 7.39453 101.602 5.32031 98.332 5.32031C94.7109 5.32031 92.3672 7.80469 92.3672 11.7656V11.7773C92.3672 15.7617 94.6758 18.2461 98.3672 18.2461ZM111.07 18.2461C114.211 18.2461 116.309 16.2773 116.531 13.6875L116.543 13.6055H113.789L113.766 13.7109C113.496 15.0117 112.559 15.8906 111.082 15.8906C109.242 15.8906 108.047 14.3906 108.047 11.8008V11.7891C108.047 9.24609 109.23 7.6875 111.07 7.6875C112.617 7.6875 113.508 8.66016 113.754 9.86719L113.777 9.97266H116.531L116.52 9.87891C116.344 7.39453 114.305 5.32031 111.035 5.32031C107.414 5.32031 105.07 7.80469 105.07 11.7656V11.7773C105.07 15.7617 107.379 18.2461 111.07 18.2461ZM123.785 18.2461C127.43 18.2461 129.797 15.8203 129.797 11.7891V11.7656C129.797 7.75781 127.395 5.32031 123.773 5.32031C120.164 5.32031 117.773 7.78125 117.773 11.7656V11.7891C117.773 15.8086 120.129 18.2461 123.785 18.2461ZM123.797 15.8906C121.934 15.8906 120.75 14.4023 120.75 11.7891V11.7656C120.75 9.1875 121.957 7.6875 123.773 7.6875C125.625 7.6875 126.82 9.17578 126.82 11.7656V11.7891C126.82 14.3906 125.637 15.8906 123.797 15.8906ZM135.902 18.2461C137.777 18.2461 139.055 17.3789 139.699 16.0547H139.758V18H142.676V5.57812H139.758V12.7734C139.758 14.5781 138.691 15.7852 137.016 15.7852C135.352 15.7852 134.531 14.7891 134.531 13.0312V5.57812H131.613V13.6055C131.613 16.4883 133.172 18.2461 135.902 18.2461ZM145.078 18H147.996V10.793C147.996 9 149.062 7.78125 150.738 7.78125C152.402 7.78125 153.223 8.77734 153.223 10.5469V18H156.141V9.96094C156.141 7.07812 154.582 5.32031 151.852 5.32031C149.965 5.32031 148.699 6.1875 148.055 7.52344H147.996V5.57812H145.078V18ZM163.102 18.2461C163.688 18.2461 164.203 18.1875 164.543 18.1406V15.9492C164.344 15.9609 164.121 15.9961 163.84 15.9961C162.773 15.9961 162.234 15.6094 162.234 14.3906V7.82812H164.543V5.57812H162.234V2.42578H159.27V5.57812H157.512V7.82812H159.27V14.6367C159.27 17.1914 160.5 18.2461 163.102 18.2461Z" fill="#424D47"/>
</svg>
