<svg width="246" height="549" viewBox="0 0 246 549" fill="none" xmlns="http://www.w3.org/2000/svg">
<path d="M1.59082 545H3.55957V540.667H6.53027C9.01758 540.667 10.7402 538.971 10.7402 536.492V536.475C10.7402 533.987 9.01758 532.317 6.53027 532.317H1.59082V545ZM6.03809 533.979C7.74316 533.979 8.73633 534.901 8.73633 536.483V536.501C8.73633 538.092 7.74316 539.015 6.03809 539.015H3.55957V533.979H6.03809ZM15.3281 545.158C16.5938 545.158 17.5957 544.613 18.1582 543.646H18.3076V545H20.1973V538.47C20.1973 536.466 18.8438 535.271 16.4443 535.271C14.2734 535.271 12.7705 536.316 12.542 537.881L12.5332 537.942H14.3701L14.3789 537.907C14.6074 537.23 15.3018 536.844 16.3564 536.844C17.6484 536.844 18.3076 537.424 18.3076 538.47V539.313L15.7236 539.463C13.4473 539.604 12.1641 540.597 12.1641 542.302V542.319C12.1641 544.051 13.5088 545.158 15.3281 545.158ZM14.0625 542.24V542.223C14.0625 541.361 14.6602 540.887 15.9785 540.808L18.3076 540.658V541.476C18.3076 542.706 17.2617 543.638 15.8379 543.638C14.8096 543.638 14.0625 543.119 14.0625 542.24ZM22.8867 545H24.7939V539.296C24.7939 537.916 25.7871 537.02 27.2461 537.02C27.6064 537.02 27.9316 537.063 28.2744 537.134V535.376C28.0811 535.332 27.7471 535.288 27.4395 535.288C26.165 535.288 25.2773 535.886 24.9346 536.896H24.7939V535.455H22.8867V545ZM34.1895 545.062C34.5586 545.062 34.9102 545.018 35.2178 544.965V543.444C34.9541 543.471 34.7871 543.479 34.4971 543.479C33.5566 543.479 33.1699 543.058 33.1699 542.029V536.958H35.2178V535.455H33.1699V533.047H31.2275V535.455H29.7334V536.958H31.2275V542.486C31.2275 544.323 32.0889 545.062 34.1895 545.062ZM38.4346 533.75C39.085 533.75 39.6299 533.214 39.6299 532.563C39.6299 531.904 39.085 531.368 38.4346 531.368C37.7754 531.368 37.2393 531.904 37.2393 532.563C37.2393 533.214 37.7754 533.75 38.4346 533.75ZM37.4766 545H39.375V535.455H37.4766V545ZM46.1689 545.185C48.5332 545.185 49.8955 543.91 50.2383 542.056L50.2559 541.977H48.4277L48.4102 542.021C48.1025 543.049 47.3643 543.594 46.1689 543.594C44.5957 543.594 43.6201 542.311 43.6201 540.201V540.184C43.6201 538.127 44.5781 536.861 46.1689 536.861C47.4346 536.861 48.208 537.564 48.4189 538.505L48.4277 538.531L50.2559 538.522V538.479C49.9922 536.624 48.5596 535.271 46.1602 535.271C43.374 535.271 41.6777 537.16 41.6777 540.184V540.201C41.6777 543.286 43.3828 545.185 46.1689 545.185ZM53.4111 533.75C54.0615 533.75 54.6064 533.214 54.6064 532.563C54.6064 531.904 54.0615 531.368 53.4111 531.368C52.752 531.368 52.2158 531.904 52.2158 532.563C52.2158 533.214 52.752 533.75 53.4111 533.75ZM52.4531 545H54.3516V535.455H52.4531V545ZM57.1289 548.182H59.0361V543.488H59.1768C59.6865 544.517 60.8027 545.158 62.1123 545.158C64.5381 545.158 66.0674 543.26 66.0674 540.236V540.219C66.0674 537.213 64.5205 535.288 62.1123 535.288C60.7764 535.288 59.7305 535.912 59.1768 536.958H59.0361V535.455H57.1289V548.182ZM61.5762 543.532C59.9854 543.532 59.001 542.275 59.001 540.236V540.219C59.001 538.18 59.9854 536.923 61.5762 536.923C63.167 536.923 64.125 538.162 64.125 540.219V540.236C64.125 542.284 63.167 543.532 61.5762 543.532ZM70.9805 545.158C72.2461 545.158 73.248 544.613 73.8105 543.646H73.96V545H75.8496V538.47C75.8496 536.466 74.4961 535.271 72.0967 535.271C69.9258 535.271 68.4229 536.316 68.1943 537.881L68.1855 537.942H70.0225L70.0312 537.907C70.2598 537.23 70.9541 536.844 72.0088 536.844C73.3008 536.844 73.96 537.424 73.96 538.47V539.313L71.376 539.463C69.0996 539.604 67.8164 540.597 67.8164 542.302V542.319C67.8164 544.051 69.1611 545.158 70.9805 545.158ZM69.7148 542.24V542.223C69.7148 541.361 70.3125 540.887 71.6309 540.808L73.96 540.658V541.476C73.96 542.706 72.9141 543.638 71.4902 543.638C70.4619 543.638 69.7148 543.119 69.7148 542.24ZM78.5391 545H80.4463V539.401C80.4463 537.863 81.3164 536.905 82.7139 536.905C84.1113 536.905 84.7705 537.688 84.7705 539.27V545H86.6689V538.821C86.6689 536.545 85.4912 535.271 83.3555 535.271C81.9668 535.271 81.0527 535.886 80.5869 536.905H80.4463V535.455H78.5391V545ZM92.9355 545.062C93.3047 545.062 93.6562 545.018 93.9639 544.965V543.444C93.7002 543.471 93.5332 543.479 93.2432 543.479C92.3027 543.479 91.916 543.058 91.916 542.029V536.958H93.9639V535.455H91.916V533.047H89.9736V535.455H88.4795V536.958H89.9736V542.486C89.9736 544.323 90.835 545.062 92.9355 545.062ZM99.5186 545.185C101.786 545.185 103.474 543.98 103.474 542.214V542.196C103.474 540.816 102.595 540.034 100.758 539.604L99.2461 539.261C98.1738 539.006 97.7344 538.637 97.7344 538.039V538.021C97.7344 537.257 98.4902 536.738 99.5361 536.738C100.608 536.738 101.285 537.239 101.47 537.907V537.925H103.289V537.916C103.122 536.36 101.725 535.271 99.5449 535.271C97.3828 535.271 95.8359 536.466 95.8359 538.127V538.136C95.8359 539.533 96.6709 540.351 98.4727 540.764L99.9932 541.115C101.101 541.37 101.549 541.774 101.549 542.372V542.39C101.549 543.172 100.731 543.708 99.5537 543.708C98.4199 543.708 97.7256 543.225 97.4883 542.504L97.4795 542.495H95.5723V542.504C95.7568 544.104 97.2158 545.185 99.5186 545.185ZM107.218 538.487C107.947 538.487 108.501 537.925 108.501 537.213C108.501 536.492 107.947 535.93 107.218 535.93C106.488 535.93 105.926 536.492 105.926 537.213C105.926 537.925 106.488 538.487 107.218 538.487ZM107.218 545.132C107.947 545.132 108.501 544.569 108.501 543.857C108.501 543.137 107.947 542.574 107.218 542.574C106.488 542.574 105.926 543.137 105.926 543.857C105.926 544.569 106.488 545.132 107.218 545.132Z" fill="#424D47"/>
<path d="M128.101 182H130.069V171.014H134.051V169.317H124.11V171.014H128.101V182ZM135.035 182H136.942V176.296C136.942 174.916 137.936 174.02 139.395 174.02C139.755 174.02 140.08 174.063 140.423 174.134V172.376C140.229 172.332 139.896 172.288 139.588 172.288C138.313 172.288 137.426 172.886 137.083 173.896H136.942V172.455H135.035V182ZM143.235 170.75C143.886 170.75 144.431 170.214 144.431 169.563C144.431 168.904 143.886 168.368 143.235 168.368C142.576 168.368 142.04 168.904 142.04 169.563C142.04 170.214 142.576 170.75 143.235 170.75ZM142.277 182H144.176V172.455H142.277V182ZM146.953 185.182H148.86V180.488H149.001C149.511 181.517 150.627 182.158 151.937 182.158C154.362 182.158 155.892 180.26 155.892 177.236V177.219C155.892 174.213 154.345 172.288 151.937 172.288C150.601 172.288 149.555 172.912 149.001 173.958H148.86V172.455H146.953V185.182ZM151.4 180.532C149.81 180.532 148.825 179.275 148.825 177.236V177.219C148.825 175.18 149.81 173.923 151.4 173.923C152.991 173.923 153.949 175.162 153.949 177.219V177.236C153.949 179.284 152.991 180.532 151.4 180.532ZM163.327 182H165.243V172.789H165.384L171.896 182H173.672V169.317H171.756V178.546H171.624L165.103 169.317H163.327V182ZM180.686 182.185C183.48 182.185 185.194 180.312 185.194 177.236V177.219C185.194 174.143 183.472 172.271 180.686 172.271C177.891 172.271 176.168 174.151 176.168 177.219V177.236C176.168 180.312 177.882 182.185 180.686 182.185ZM180.686 180.594C179.042 180.594 178.119 179.354 178.119 177.236V177.219C178.119 175.101 179.042 173.861 180.686 173.861C182.32 173.861 183.252 175.101 183.252 177.219V177.236C183.252 179.346 182.32 180.594 180.686 180.594ZM191.074 182.062C191.443 182.062 191.795 182.018 192.103 181.965V180.444C191.839 180.471 191.672 180.479 191.382 180.479C190.441 180.479 190.055 180.058 190.055 179.029V173.958H192.103V172.455H190.055V170.047H188.112V172.455H186.618V173.958H188.112V179.486C188.112 181.323 188.974 182.062 191.074 182.062ZM198.229 182.185C200.672 182.185 201.99 180.778 202.307 179.521L202.324 179.442L200.487 179.451L200.452 179.521C200.224 180.014 199.494 180.62 198.272 180.62C196.699 180.62 195.697 179.557 195.662 177.729H202.43V177.061C202.43 174.195 200.795 172.271 198.132 172.271C195.469 172.271 193.746 174.266 193.746 177.245V177.254C193.746 180.277 195.434 182.185 198.229 182.185ZM198.141 173.835C199.433 173.835 200.391 174.661 200.54 176.366H195.688C195.855 174.723 196.84 173.835 198.141 173.835ZM208.169 182.185C210.437 182.185 212.124 180.98 212.124 179.214V179.196C212.124 177.816 211.245 177.034 209.408 176.604L207.896 176.261C206.824 176.006 206.385 175.637 206.385 175.039V175.021C206.385 174.257 207.141 173.738 208.187 173.738C209.259 173.738 209.936 174.239 210.12 174.907V174.925H211.939V174.916C211.772 173.36 210.375 172.271 208.195 172.271C206.033 172.271 204.486 173.466 204.486 175.127V175.136C204.486 176.533 205.321 177.351 207.123 177.764L208.644 178.115C209.751 178.37 210.199 178.774 210.199 179.372V179.39C210.199 180.172 209.382 180.708 208.204 180.708C207.07 180.708 206.376 180.225 206.139 179.504L206.13 179.495H204.223V179.504C204.407 181.104 205.866 182.185 208.169 182.185ZM215.868 175.487C216.598 175.487 217.151 174.925 217.151 174.213C217.151 173.492 216.598 172.93 215.868 172.93C215.139 172.93 214.576 173.492 214.576 174.213C214.576 174.925 215.139 175.487 215.868 175.487ZM215.868 182.132C216.598 182.132 217.151 181.569 217.151 180.857C217.151 180.137 216.598 179.574 215.868 179.574C215.139 179.574 214.576 180.137 214.576 180.857C214.576 181.569 215.139 182.132 215.868 182.132Z" fill="#424D47"/>
<path d="M2.04785 126H3.94629V117.958H6.04688V116.455H3.92871V115.541C3.92871 114.574 4.3418 114.064 5.39648 114.064C5.69531 114.064 5.9502 114.082 6.12598 114.108V112.711C5.80078 112.658 5.43164 112.623 5.00098 112.623C3.01465 112.623 2.04785 113.555 2.04785 115.453V116.455H0.474609V117.958H2.04785V126ZM8.19141 126H10.0986V120.296C10.0986 118.916 11.0918 118.02 12.5508 118.02C12.9111 118.02 13.2363 118.063 13.5791 118.134V116.376C13.3857 116.332 13.0518 116.288 12.7441 116.288C11.4697 116.288 10.582 116.886 10.2393 117.896H10.0986V116.455H8.19141V126ZM19.1953 126.185C21.9902 126.185 23.7041 124.312 23.7041 121.236V121.219C23.7041 118.143 21.9814 116.271 19.1953 116.271C16.4004 116.271 14.6777 118.151 14.6777 121.219V121.236C14.6777 124.312 16.3916 126.185 19.1953 126.185ZM19.1953 124.594C17.5518 124.594 16.6289 123.354 16.6289 121.236V121.219C16.6289 119.101 17.5518 117.861 19.1953 117.861C20.8301 117.861 21.7617 119.101 21.7617 121.219V121.236C21.7617 123.346 20.8301 124.594 19.1953 124.594ZM25.9805 126H27.8877V120.138C27.8877 118.89 28.7402 117.905 29.8916 117.905C31.0166 117.905 31.7285 118.591 31.7285 119.681V126H33.627V119.962C33.627 118.811 34.4268 117.905 35.6396 117.905C36.8877 117.905 37.4854 118.556 37.4854 119.874V126H39.3838V119.417C39.3838 117.431 38.2588 116.271 36.334 116.271C35.0068 116.271 33.9082 116.947 33.4248 117.976H33.2754C32.8535 116.947 31.9307 116.271 30.6299 116.271C29.3818 116.271 28.4502 116.877 28.0283 117.923H27.8877V116.455H25.9805V126ZM109.635 126.062C110.004 126.062 110.355 126.018 110.663 125.965V124.444C110.399 124.471 110.232 124.479 109.942 124.479C109.002 124.479 108.615 124.058 108.615 123.029V117.958H110.663V116.455H108.615V114.047H106.673V116.455H105.179V117.958H106.673V123.486C106.673 125.323 107.534 126.062 109.635 126.062ZM116.824 126.185C119.619 126.185 121.333 124.312 121.333 121.236V121.219C121.333 118.143 119.61 116.271 116.824 116.271C114.029 116.271 112.307 118.151 112.307 121.219V121.236C112.307 124.312 114.021 126.185 116.824 126.185ZM116.824 124.594C115.181 124.594 114.258 123.354 114.258 121.236V121.219C114.258 119.101 115.181 117.861 116.824 117.861C118.459 117.861 119.391 119.101 119.391 121.219V121.236C119.391 123.346 118.459 124.594 116.824 124.594ZM184.14 126.132C184.869 126.132 185.423 125.569 185.423 124.857C185.423 124.137 184.869 123.574 184.14 123.574C183.41 123.574 182.848 124.137 182.848 124.857C182.848 125.569 183.41 126.132 184.14 126.132Z" fill="#424D47"/>
<path d="M5.14453 91H7.11328V85.8057L11.5869 78.3174H9.39844L6.20801 83.8457H6.05859L2.86816 78.3174H0.679688L5.14453 85.8057V91ZM16.043 91.1846C18.8379 91.1846 20.5518 89.3125 20.5518 86.2363V86.2188C20.5518 83.1426 18.8291 81.2705 16.043 81.2705C13.248 81.2705 11.5254 83.1514 11.5254 86.2188V86.2363C11.5254 89.3125 13.2393 91.1846 16.043 91.1846ZM16.043 89.5938C14.3994 89.5938 13.4766 88.3545 13.4766 86.2363V86.2188C13.4766 84.1006 14.3994 82.8613 16.043 82.8613C17.6777 82.8613 18.6094 84.1006 18.6094 86.2188V86.2363C18.6094 88.3457 17.6777 89.5938 16.043 89.5938ZM26.0098 91.1846C27.3984 91.1846 28.3652 90.5869 28.8223 89.5586H28.9717V91H30.8701V81.4551H28.9717V87.0537C28.9717 88.5918 28.1543 89.5498 26.625 89.5498C25.2275 89.5498 24.6475 88.7676 24.6475 87.1855V81.4551H22.7402V87.6338C22.7402 89.8926 23.8564 91.1846 26.0098 91.1846ZM41.1621 91.1582C42.4277 91.1582 43.4297 90.6133 43.9922 89.6465H44.1416V91H46.0312V84.4697C46.0312 82.4658 44.6777 81.2705 42.2783 81.2705C40.1074 81.2705 38.6045 82.3164 38.376 83.8809L38.3672 83.9424H40.2041L40.2129 83.9072C40.4414 83.2305 41.1357 82.8438 42.1904 82.8438C43.4824 82.8438 44.1416 83.4238 44.1416 84.4697V85.3135L41.5576 85.4629C39.2812 85.6035 37.998 86.5967 37.998 88.3018V88.3193C37.998 90.0508 39.3428 91.1582 41.1621 91.1582ZM39.8965 88.2402V88.2227C39.8965 87.3613 40.4941 86.8867 41.8125 86.8076L44.1416 86.6582V87.4756C44.1416 88.7061 43.0957 89.6377 41.6719 89.6377C40.6436 89.6377 39.8965 89.1191 39.8965 88.2402ZM48.7207 91H50.6279V85.2959C50.6279 83.916 51.6211 83.0195 53.0801 83.0195C53.4404 83.0195 53.7656 83.0635 54.1084 83.1338V81.376C53.915 81.332 53.5811 81.2881 53.2734 81.2881C51.999 81.2881 51.1113 81.8857 50.7686 82.8965H50.6279V81.4551H48.7207V91ZM59.6895 91.1846C62.1328 91.1846 63.4512 89.7783 63.7676 88.5215L63.7852 88.4424L61.9482 88.4512L61.9131 88.5215C61.6846 89.0137 60.9551 89.6201 59.7334 89.6201C58.1602 89.6201 57.1582 88.5566 57.123 86.7285H63.8906V86.0605C63.8906 83.1953 62.2559 81.2705 59.5928 81.2705C56.9297 81.2705 55.207 83.2656 55.207 86.2451V86.2539C55.207 89.2773 56.8945 91.1846 59.6895 91.1846ZM59.6016 82.835C60.8936 82.835 61.8516 83.6611 62.001 85.3662H57.1494C57.3164 83.7227 58.3008 82.835 59.6016 82.835ZM75.1143 94.3662C77.8213 94.3662 79.5352 92.9775 79.5352 90.8066V81.4551H77.6367V83.0195H77.5225C76.9688 81.9473 75.9316 81.2881 74.5957 81.2881C72.1172 81.2881 70.5967 83.2129 70.5967 85.9375V85.9551C70.5967 88.6445 72.1084 90.5342 74.5605 90.5342C75.8701 90.5342 76.9248 89.9541 77.5049 88.917H77.6455V90.7979C77.6455 92.0986 76.7139 92.8369 75.1406 92.8369C73.8486 92.8369 73.0752 92.3711 72.917 91.7119L72.9082 91.6943H70.9834L70.9658 91.7119C71.1943 93.3027 72.6885 94.3662 75.1143 94.3662ZM75.0879 88.9609C73.4619 88.9609 72.5479 87.7217 72.5479 85.9463V85.9287C72.5479 84.1533 73.4619 82.9053 75.0879 82.9053C76.6963 82.9053 77.6807 84.1533 77.6807 85.9287V85.9463C77.6807 87.7305 76.7051 88.9609 75.0879 88.9609ZM86.3203 91.1846C89.1152 91.1846 90.8291 89.3125 90.8291 86.2363V86.2188C90.8291 83.1426 89.1064 81.2705 86.3203 81.2705C83.5254 81.2705 81.8027 83.1514 81.8027 86.2188V86.2363C81.8027 89.3125 83.5166 91.1846 86.3203 91.1846ZM86.3203 89.5938C84.6768 89.5938 83.7539 88.3545 83.7539 86.2363V86.2188C83.7539 84.1006 84.6768 82.8613 86.3203 82.8613C87.9551 82.8613 88.8867 84.1006 88.8867 86.2188V86.2363C88.8867 88.3457 87.9551 89.5938 86.3203 89.5938ZM94.0986 79.75C94.749 79.75 95.2939 79.2139 95.2939 78.5635C95.2939 77.9043 94.749 77.3682 94.0986 77.3682C93.4395 77.3682 92.9033 77.9043 92.9033 78.5635C92.9033 79.2139 93.4395 79.75 94.0986 79.75ZM93.1406 91H95.0391V81.4551H93.1406V91ZM97.8164 91H99.7236V85.4014C99.7236 83.8633 100.594 82.9053 101.991 82.9053C103.389 82.9053 104.048 83.6875 104.048 85.2695V91H105.946V84.8213C105.946 82.5449 104.769 81.2705 102.633 81.2705C101.244 81.2705 100.33 81.8857 99.8643 82.9053H99.7236V81.4551H97.8164V91ZM112.644 94.3662C115.351 94.3662 117.064 92.9775 117.064 90.8066V81.4551H115.166V83.0195H115.052C114.498 81.9473 113.461 81.2881 112.125 81.2881C109.646 81.2881 108.126 83.2129 108.126 85.9375V85.9551C108.126 88.6445 109.638 90.5342 112.09 90.5342C113.399 90.5342 114.454 89.9541 115.034 88.917H115.175V90.7979C115.175 92.0986 114.243 92.8369 112.67 92.8369C111.378 92.8369 110.604 92.3711 110.446 91.7119L110.438 91.6943H108.513L108.495 91.7119C108.724 93.3027 110.218 94.3662 112.644 94.3662ZM112.617 88.9609C110.991 88.9609 110.077 87.7217 110.077 85.9463V85.9287C110.077 84.1533 110.991 82.9053 112.617 82.9053C114.226 82.9053 115.21 84.1533 115.21 85.9287V85.9463C115.21 87.7305 114.234 88.9609 112.617 88.9609ZM128.332 91.0615C128.701 91.0615 129.053 91.0176 129.36 90.9648V89.4443C129.097 89.4707 128.93 89.4795 128.64 89.4795C127.699 89.4795 127.312 89.0576 127.312 88.0293V82.958H129.36V81.4551H127.312V79.0469H125.37V81.4551H123.876V82.958H125.37V88.4863C125.37 90.3232 126.231 91.0615 128.332 91.0615ZM135.521 91.1846C138.316 91.1846 140.03 89.3125 140.03 86.2363V86.2188C140.03 83.1426 138.308 81.2705 135.521 81.2705C132.727 81.2705 131.004 83.1514 131.004 86.2188V86.2363C131.004 89.3125 132.718 91.1846 135.521 91.1846ZM135.521 89.5938C133.878 89.5938 132.955 88.3545 132.955 86.2363V86.2188C132.955 84.1006 133.878 82.8613 135.521 82.8613C137.156 82.8613 138.088 84.1006 138.088 86.2188V86.2363C138.088 88.3457 137.156 89.5938 135.521 89.5938Z" fill="#424D47"/>
<g filter="url(#filter0_i)">
<path d="M101.719 23H105.258V9.00781H110.156V6.08984H96.832V9.00781H101.719V23ZM110.227 23H113.648V15.9688C113.648 14.1406 114.633 13.1328 116.32 13.1328C116.812 13.1328 117.281 13.2031 117.562 13.3203V10.3086C117.305 10.2383 116.953 10.1797 116.578 10.1797C115.113 10.1797 114.094 11.082 113.719 12.6289H113.648V10.4375H110.227V23ZM120.75 8.82031C121.781 8.82031 122.578 8.01172 122.578 7.03906C122.578 6.06641 121.781 5.25781 120.75 5.25781C119.719 5.25781 118.922 6.06641 118.922 7.03906C118.922 8.01172 119.719 8.82031 120.75 8.82031ZM119.039 23H122.461V10.4375H119.039V23ZM124.758 27.1016H128.18V20.8555H128.25C128.93 22.3438 130.348 23.2578 132.141 23.2578C135.281 23.2578 137.227 20.7969 137.227 16.7188V16.707C137.227 12.6172 135.281 10.1797 132.094 10.1797C130.312 10.1797 128.941 11.1055 128.262 12.6289H128.18V10.4375H124.758V27.1016ZM130.969 20.4219C129.305 20.4219 128.168 18.9922 128.168 16.7305V16.7188C128.168 14.4453 129.305 13.0156 130.969 13.0156C132.668 13.0156 133.746 14.4102 133.746 16.707V16.7188C133.746 19.0039 132.668 20.4219 130.969 20.4219ZM151.688 23.293C156.715 23.293 159.844 19.9297 159.844 14.5508V14.5273C159.844 9.16016 156.703 5.79688 151.688 5.79688C146.684 5.79688 143.531 9.14844 143.531 14.5273V14.5508C143.531 19.9297 146.66 23.293 151.688 23.293ZM151.688 20.293C148.91 20.293 147.141 18.0898 147.141 14.5508V14.5273C147.141 10.9883 148.922 8.79688 151.688 8.79688C154.465 8.79688 156.234 11 156.234 14.5273V14.5508C156.234 18.0547 154.5 20.293 151.688 20.293ZM165.152 23H169.008L173.32 10.4375H169.746L167.156 19.9766H167.086L164.461 10.4375H160.805L165.152 23ZM179.789 23.2578C183.375 23.2578 185.109 21.1367 185.496 19.2852L185.531 19.1562H182.391L182.367 19.2266C182.121 19.9297 181.266 20.7031 179.859 20.7031C178.113 20.7031 177.023 19.5312 176.988 17.5273H185.637V16.4727C185.637 12.6758 183.328 10.1797 179.648 10.1797C175.969 10.1797 173.613 12.7344 173.613 16.7305V16.7422C173.613 20.7617 175.945 23.2578 179.789 23.2578ZM179.707 12.7344C181.125 12.7344 182.145 13.6367 182.355 15.3711H177.023C177.246 13.6719 178.301 12.7344 179.707 12.7344ZM187.406 23H190.828V15.9688C190.828 14.1406 191.812 13.1328 193.5 13.1328C193.992 13.1328 194.461 13.2031 194.742 13.3203V10.3086C194.484 10.2383 194.133 10.1797 193.758 10.1797C192.293 10.1797 191.273 11.082 190.898 12.6289H190.828V10.4375H187.406V23ZM199.465 23H203.32L207.633 10.4375H204.059L201.469 19.9766H201.398L198.773 10.4375H195.117L199.465 23ZM210.609 8.82031C211.641 8.82031 212.438 8.01172 212.438 7.03906C212.438 6.06641 211.641 5.25781 210.609 5.25781C209.578 5.25781 208.781 6.06641 208.781 7.03906C208.781 8.01172 209.578 8.82031 210.609 8.82031ZM208.898 23H212.32V10.4375H208.898V23ZM220.336 23.2578C223.922 23.2578 225.656 21.1367 226.043 19.2852L226.078 19.1562H222.938L222.914 19.2266C222.668 19.9297 221.812 20.7031 220.406 20.7031C218.66 20.7031 217.57 19.5312 217.535 17.5273H226.184V16.4727C226.184 12.6758 223.875 10.1797 220.195 10.1797C216.516 10.1797 214.16 12.7344 214.16 16.7305V16.7422C214.16 20.7617 216.492 23.2578 220.336 23.2578ZM220.254 12.7344C221.672 12.7344 222.691 13.6367 222.902 15.3711H217.57C217.793 13.6719 218.848 12.7344 220.254 12.7344ZM230.332 23H233.93L236.191 14.1172H236.262L238.535 23H242.18L245.508 10.4375H242.133L240.223 19.7539H240.152L237.914 10.4375H234.633L232.406 19.7539H232.336L230.438 10.4375H226.992L230.332 23Z" fill="#2A6049"/>
</g>
<defs>
<filter id="filter0_i" x="96.832" y="5.25781" width="148.676" height="25.8438" filterUnits="userSpaceOnUse" color-interpolation-filters="sRGB">
<feFlood flood-opacity="0" result="BackgroundImageFix"/>
<feBlend mode="normal" in="SourceGraphic" in2="BackgroundImageFix" result="shape"/>
<feColorMatrix in="SourceAlpha" type="matrix" values="0 0 0 0 0 0 0 0 0 0 0 0 0 0 0 0 0 0 127 0" result="hardAlpha"/>
<feOffset dy="4"/>
<feGaussianBlur stdDeviation="2"/>
<feComposite in2="hardAlpha" operator="arithmetic" k2="-1" k3="1"/>
<feColorMatrix type="matrix" values="0 0 0 0 0 0 0 0 0 0 0 0 0 0 0 0 0 0 0.25 0"/>
<feBlend mode="normal" in2="shape" result="effect1_innerShadow"/>
</filter>
</defs>
</svg>
