<svg width="67" height="34" viewBox="0 0 67 34" fill="none" xmlns="http://www.w3.org/2000/svg">
<rect x="1" y="1" width="65" height="32" rx="12" fill="#2A6049" stroke="#2A6049"/>
<rect x="2" y="2" width="63" height="30" rx="12" stroke="white"/>
<path d="M27.3545 22.1299C28.3457 22.1299 29.1182 21.6992 29.583 20.9131H29.6924V22H30.8818V16.9551C30.8818 15.4238 29.877 14.501 28.0791 14.501C26.5068 14.501 25.3857 15.2803 25.1943 16.4355L25.1875 16.4766H26.377L26.3838 16.4561C26.5752 15.8818 27.1562 15.5537 28.0381 15.5537C29.1387 15.5537 29.6924 16.0459 29.6924 16.9551V17.625L27.5801 17.7549C25.8643 17.8574 24.8936 18.6162 24.8936 19.9287V19.9424C24.8936 21.2822 25.9531 22.1299 27.3545 22.1299ZM26.1104 19.915V19.9014C26.1104 19.1699 26.6025 18.7734 27.7236 18.7051L29.6924 18.582V19.252C29.6924 20.3047 28.8105 21.0977 27.6006 21.0977C26.7461 21.0977 26.1104 20.6602 26.1104 19.915ZM33.0557 22H34.2451V17.4336C34.2451 16.3535 35.0518 15.6357 36.1865 15.6357C36.4463 15.6357 36.6719 15.6631 36.918 15.7041V14.5488C36.8018 14.5283 36.5488 14.501 36.3232 14.501C35.3252 14.501 34.6348 14.9521 34.3545 15.7246H34.2451V14.6309H33.0557V22ZM41.416 22.0547C41.6484 22.0547 41.874 22.0273 42.1064 21.9863V20.9746C41.8877 20.9951 41.7715 21.002 41.5596 21.002C40.7939 21.002 40.4932 20.6533 40.4932 19.7852V15.6152H42.1064V14.6309H40.4932V12.7236H39.2627V14.6309H38.1006V15.6152H39.2627V20.0859C39.2627 21.4941 39.8984 22.0547 41.416 22.0547Z" fill="white"/>
</svg>
