<svg width="88" height="34" viewBox="0 0 88 34" fill="none" xmlns="http://www.w3.org/2000/svg">
<rect x="1" y="1" width="86" height="32" rx="12" fill="#2A6049" stroke="#2A6049"/>
<rect x="2" y="2" width="84" height="30" rx="12" stroke="white"/>
<path d="M25.4404 22H26.6299V17.6387C26.6299 16.3467 27.375 15.5537 28.5508 15.5537C29.7266 15.5537 30.2734 16.1895 30.2734 17.5156V22H31.4629V17.2285C31.4629 15.4785 30.54 14.501 28.8857 14.501C27.7988 14.501 27.1084 14.959 26.7393 15.7383H26.6299V11.7051H25.4404V22ZM34.2451 13.209C34.6963 13.209 35.0654 12.8398 35.0654 12.3887C35.0654 11.9375 34.6963 11.5684 34.2451 11.5684C33.7939 11.5684 33.4248 11.9375 33.4248 12.3887C33.4248 12.8398 33.7939 13.209 34.2451 13.209ZM33.6436 22H34.833V14.6309H33.6436V22ZM37.1436 22H38.333V19.2041L39.0234 18.5342L41.7852 22H43.2822L39.8574 17.7275L43.0703 14.6309H41.6279L38.4424 17.8506H38.333V11.7051H37.1436V22ZM45.3057 13.209C45.7568 13.209 46.126 12.8398 46.126 12.3887C46.126 11.9375 45.7568 11.5684 45.3057 11.5684C44.8545 11.5684 44.4854 11.9375 44.4854 12.3887C44.4854 12.8398 44.8545 13.209 45.3057 13.209ZM44.7041 22H45.8936V14.6309H44.7041V22ZM48.1357 22H49.3252V17.6387C49.3252 16.3467 50.0703 15.5537 51.2461 15.5537C52.4219 15.5537 52.9688 16.1895 52.9688 17.5156V22H54.1582V17.2285C54.1582 15.4785 53.2354 14.501 51.5811 14.501C50.4941 14.501 49.8037 14.959 49.4346 15.7383H49.3252V14.6309H48.1357V22ZM59.3467 24.5977C61.3564 24.5977 62.6279 23.5449 62.6279 21.8975V14.6309H61.4385V15.8477H61.3564C60.9053 15.0137 60.0986 14.501 59.0596 14.501C57.1318 14.501 55.9424 15.998 55.9424 18.0625V18.0762C55.9424 20.1406 57.125 21.6172 59.0322 21.6172C60.0439 21.6172 60.8779 21.1592 61.3428 20.3457H61.4521V21.8359C61.4521 22.9229 60.666 23.5449 59.3467 23.5449C58.2871 23.5449 57.6309 23.1484 57.501 22.5879L57.4941 22.5811H56.2637L56.25 22.5879C56.4346 23.7979 57.5693 24.5977 59.3467 24.5977ZM59.292 20.5645C57.9248 20.5645 57.1592 19.5391 57.1592 18.0762V18.0625C57.1592 16.5996 57.9248 15.5537 59.292 15.5537C60.6523 15.5537 61.4795 16.5996 61.4795 18.0625V18.0762C61.4795 19.5391 60.6592 20.5645 59.292 20.5645Z" fill="white"/>
</svg>
