<svg width="95" height="34" viewBox="0 0 95 34" fill="none" xmlns="http://www.w3.org/2000/svg">
<rect x="1" y="1" width="93" height="32" rx="12" fill="#2A6049" stroke="#2A6049"/>
<rect x="2" y="2" width="91" height="30" rx="12" stroke="white"/>
<path d="M26.1204 22H27.3098V17.6387C27.3098 16.3467 28.0549 15.5537 29.2307 15.5537C30.4065 15.5537 30.9534 16.1895 30.9534 17.5156V22H32.1428V17.2285C32.1428 15.4785 31.22 14.501 29.5657 14.501C28.4788 14.501 27.7883 14.959 27.4192 15.7383H27.3098V11.7051H26.1204V22ZM34.9251 13.209C35.3762 13.209 35.7454 12.8398 35.7454 12.3887C35.7454 11.9375 35.3762 11.5684 34.9251 11.5684C34.4739 11.5684 34.1047 11.9375 34.1047 12.3887C34.1047 12.8398 34.4739 13.209 34.9251 13.209ZM34.3235 22H35.5129V14.6309H34.3235V22ZM40.2844 22.1299C41.9592 22.1299 43.2376 21.2207 43.2376 19.9082V19.8945C43.2376 18.8418 42.5676 18.2402 41.1799 17.9053L40.0452 17.6318C39.177 17.4199 38.8079 17.1055 38.8079 16.6064V16.5928C38.8079 15.9434 39.4504 15.4922 40.3254 15.4922C41.2141 15.4922 41.7883 15.8955 41.9456 16.4766H43.1145C42.9504 15.2734 41.8772 14.501 40.3323 14.501C38.7669 14.501 37.5911 15.4238 37.5911 16.6475V16.6543C37.5911 17.7139 38.2131 18.3154 39.594 18.6436L40.7356 18.917C41.6448 19.1357 42.0208 19.4844 42.0208 19.9834V19.9971C42.0208 20.667 41.3167 21.1387 40.3254 21.1387C39.3821 21.1387 38.7942 20.7354 38.596 20.1201H37.3792C37.5159 21.3369 38.6438 22.1299 40.2844 22.1299ZM47.6331 22.0547C47.8655 22.0547 48.0911 22.0273 48.3235 21.9863V20.9746C48.1047 20.9951 47.9885 21.002 47.7766 21.002C47.011 21.002 46.7102 20.6533 46.7102 19.7852V15.6152H48.3235V14.6309H46.7102V12.7236H45.4797V14.6309H44.3176V15.6152H45.4797V20.0859C45.4797 21.4941 46.1155 22.0547 47.6331 22.0547ZM53.0198 22.1299C55.1184 22.1299 56.4172 20.6807 56.4172 18.3223V18.3086C56.4172 15.9434 55.1184 14.501 53.0198 14.501C50.9212 14.501 49.6223 15.9434 49.6223 18.3086V18.3223C49.6223 20.6807 50.9212 22.1299 53.0198 22.1299ZM53.0198 21.0771C51.6253 21.0771 50.8391 20.0586 50.8391 18.3223V18.3086C50.8391 16.5654 51.6253 15.5537 53.0198 15.5537C54.4143 15.5537 55.2004 16.5654 55.2004 18.3086V18.3223C55.2004 20.0586 54.4143 21.0771 53.0198 21.0771ZM58.2629 22H59.4524V17.4336C59.4524 16.3535 60.259 15.6357 61.3938 15.6357C61.6536 15.6357 61.8792 15.6631 62.1253 15.7041V14.5488C62.009 14.5283 61.7561 14.501 61.5305 14.501C60.5325 14.501 59.842 14.9521 59.5618 15.7246H59.4524V14.6309H58.2629V22ZM64.2239 24.584C65.5295 24.584 66.1379 24.1055 66.7463 22.4512L69.6243 14.6309H68.3733L66.3567 20.6943H66.2473L64.2239 14.6309H62.9524L65.6799 22.0068L65.5432 22.4443C65.2766 23.292 64.8665 23.5996 64.1897 23.5996C64.0256 23.5996 63.8411 23.5928 63.6975 23.5654V24.543C63.8616 24.5703 64.0667 24.584 64.2239 24.584Z" fill="white"/>
</svg>
