<svg width="154" height="34" viewBox="0 0 154 34" fill="none" xmlns="http://www.w3.org/2000/svg">
<rect x="1" y="1" width="152" height="32" rx="12" fill="#2A6049" stroke="#2A6049"/>
<rect x="2" y="2" width="150" height="30" rx="12" stroke="white"/>
<path d="M25.6006 22H26.79V17.4336C26.79 16.3945 27.5215 15.5537 28.4854 15.5537C29.415 15.5537 30.0166 16.1211 30.0166 16.9961V22H31.2061V17.2627C31.2061 16.3262 31.8828 15.5537 32.9082 15.5537C33.9473 15.5537 34.4463 16.0938 34.4463 17.1807V22H35.6357V16.9072C35.6357 15.3623 34.7949 14.501 33.291 14.501C32.2725 14.501 31.4316 15.0137 31.0352 15.793H30.9258C30.584 15.0273 29.8867 14.501 28.8887 14.501C27.9248 14.501 27.2275 14.959 26.8994 15.752H26.79V14.6309H25.6006V22ZM40.8105 22.1299C42.9092 22.1299 44.208 20.6807 44.208 18.3223V18.3086C44.208 15.9434 42.9092 14.501 40.8105 14.501C38.7119 14.501 37.4131 15.9434 37.4131 18.3086V18.3223C37.4131 20.6807 38.7119 22.1299 40.8105 22.1299ZM40.8105 21.0771C39.416 21.0771 38.6299 20.0586 38.6299 18.3223V18.3086C38.6299 16.5654 39.416 15.5537 40.8105 15.5537C42.2051 15.5537 42.9912 16.5654 42.9912 18.3086V18.3223C42.9912 20.0586 42.2051 21.0771 40.8105 21.0771ZM48.5215 22.1299C49.6016 22.1299 50.3467 21.6855 50.709 20.8994H50.8184V22H52.0078V14.6309H50.8184V18.9922C50.8184 20.2842 50.1279 21.0771 48.8291 21.0771C47.6533 21.0771 47.1748 20.4414 47.1748 19.1152V14.6309H45.9854V19.4023C45.9854 21.1455 46.8467 22.1299 48.5215 22.1299ZM54.2295 22H55.4189V17.6387C55.4189 16.3467 56.1641 15.5537 57.3398 15.5537C58.5156 15.5537 59.0625 16.1895 59.0625 17.5156V22H60.252V17.2285C60.252 15.4785 59.3291 14.501 57.6748 14.501C56.5879 14.501 55.8975 14.959 55.5283 15.7383H55.4189V14.6309H54.2295V22ZM65.0234 22.0547C65.2559 22.0547 65.4814 22.0273 65.7139 21.9863V20.9746C65.4951 20.9951 65.3789 21.002 65.167 21.002C64.4014 21.002 64.1006 20.6533 64.1006 19.7852V15.6152H65.7139V14.6309H64.1006V12.7236H62.8701V14.6309H61.708V15.6152H62.8701V20.0859C62.8701 21.4941 63.5059 22.0547 65.0234 22.0547ZM69.5146 22.1299C70.5059 22.1299 71.2783 21.6992 71.7432 20.9131H71.8525V22H73.042V16.9551C73.042 15.4238 72.0371 14.501 70.2393 14.501C68.667 14.501 67.5459 15.2803 67.3545 16.4355L67.3477 16.4766H68.5371L68.5439 16.4561C68.7354 15.8818 69.3164 15.5537 70.1982 15.5537C71.2988 15.5537 71.8525 16.0459 71.8525 16.9551V17.625L69.7402 17.7549C68.0244 17.8574 67.0537 18.6162 67.0537 19.9287V19.9424C67.0537 21.2822 68.1133 22.1299 69.5146 22.1299ZM68.2705 19.915V19.9014C68.2705 19.1699 68.7627 18.7734 69.8838 18.7051L71.8525 18.582V19.252C71.8525 20.3047 70.9707 21.0977 69.7607 21.0977C68.9062 21.0977 68.2705 20.6602 68.2705 19.915ZM75.8447 13.209C76.2959 13.209 76.665 12.8398 76.665 12.3887C76.665 11.9375 76.2959 11.5684 75.8447 11.5684C75.3936 11.5684 75.0244 11.9375 75.0244 12.3887C75.0244 12.8398 75.3936 13.209 75.8447 13.209ZM75.2432 22H76.4326V14.6309H75.2432V22ZM78.6748 22H79.8643V17.6387C79.8643 16.3467 80.6094 15.5537 81.7852 15.5537C82.9609 15.5537 83.5078 16.1895 83.5078 17.5156V22H84.6973V17.2285C84.6973 15.4785 83.7744 14.501 82.1201 14.501C81.0332 14.501 80.3428 14.959 79.9736 15.7383H79.8643V14.6309H78.6748V22ZM94.4521 22.1299C96.3184 22.1299 97.542 20.6191 97.542 18.3223V18.3086C97.542 15.998 96.3252 14.501 94.4521 14.501C93.4404 14.501 92.5586 15.0068 92.1553 15.793H92.0459V11.7051H90.8564V22H92.0459V20.8242H92.1553C92.6064 21.6445 93.4268 22.1299 94.4521 22.1299ZM94.1787 21.0771C92.8389 21.0771 92.0186 20.0244 92.0186 18.3223V18.3086C92.0186 16.6064 92.8389 15.5537 94.1787 15.5537C95.5254 15.5537 96.3252 16.5928 96.3252 18.3086V18.3223C96.3252 20.0381 95.5254 21.0771 94.1787 21.0771ZM100.017 13.209C100.468 13.209 100.837 12.8398 100.837 12.3887C100.837 11.9375 100.468 11.5684 100.017 11.5684C99.5654 11.5684 99.1963 11.9375 99.1963 12.3887C99.1963 12.8398 99.5654 13.209 100.017 13.209ZM99.415 22H100.604V14.6309H99.415V22ZM102.915 22H104.104V19.2041L104.795 18.5342L107.557 22H109.054L105.629 17.7275L108.842 14.6309H107.399L104.214 17.8506H104.104V11.7051H102.915V22ZM111.077 13.209C111.528 13.209 111.897 12.8398 111.897 12.3887C111.897 11.9375 111.528 11.5684 111.077 11.5684C110.626 11.5684 110.257 11.9375 110.257 12.3887C110.257 12.8398 110.626 13.209 111.077 13.209ZM110.476 22H111.665V14.6309H110.476V22ZM113.907 22H115.097V17.6387C115.097 16.3467 115.842 15.5537 117.018 15.5537C118.193 15.5537 118.74 16.1895 118.74 17.5156V22H119.93V17.2285C119.93 15.4785 119.007 14.501 117.353 14.501C116.266 14.501 115.575 14.959 115.206 15.7383H115.097V14.6309H113.907V22ZM125.118 24.5977C127.128 24.5977 128.399 23.5449 128.399 21.8975V14.6309H127.21V15.8477H127.128C126.677 15.0137 125.87 14.501 124.831 14.501C122.903 14.501 121.714 15.998 121.714 18.0625V18.0762C121.714 20.1406 122.896 21.6172 124.804 21.6172C125.815 21.6172 126.649 21.1592 127.114 20.3457H127.224V21.8359C127.224 22.9229 126.438 23.5449 125.118 23.5449C124.059 23.5449 123.402 23.1484 123.272 22.5879L123.266 22.5811H122.035L122.021 22.5879C122.206 23.7979 123.341 24.5977 125.118 24.5977ZM125.063 20.5645C123.696 20.5645 122.931 19.5391 122.931 18.0762V18.0625C122.931 16.5996 123.696 15.5537 125.063 15.5537C126.424 15.5537 127.251 16.5996 127.251 18.0625V18.0762C127.251 19.5391 126.431 20.5645 125.063 20.5645Z" fill="white"/>
</svg>
