<svg width="87" height="34" viewBox="0 0 87 34" fill="none" xmlns="http://www.w3.org/2000/svg">
<rect x="1" y="1" width="85" height="32" rx="12" fill="#2A6049" stroke="#2A6049"/>
<rect x="2" y="2" width="83" height="30" rx="12" stroke="white"/>
<path d="M27.8594 22.1299C29.5342 22.1299 30.8125 21.2207 30.8125 19.9082V19.8945C30.8125 18.8418 30.1426 18.2402 28.7549 17.9053L27.6201 17.6318C26.752 17.4199 26.3828 17.1055 26.3828 16.6064V16.5928C26.3828 15.9434 27.0254 15.4922 27.9004 15.4922C28.7891 15.4922 29.3633 15.8955 29.5205 16.4766H30.6895C30.5254 15.2734 29.4521 14.501 27.9072 14.501C26.3418 14.501 25.166 15.4238 25.166 16.6475V16.6543C25.166 17.7139 25.7881 18.3154 27.1689 18.6436L28.3105 18.917C29.2197 19.1357 29.5957 19.4844 29.5957 19.9834V19.9971C29.5957 20.667 28.8916 21.1387 27.9004 21.1387C26.957 21.1387 26.3691 20.7354 26.1709 20.1201H24.9541C25.0908 21.3369 26.2188 22.1299 27.8594 22.1299ZM32.7266 22H33.916V19.2041L34.6064 18.5342L37.3682 22H38.8652L35.4404 17.7275L38.6533 14.6309H37.2109L34.0254 17.8506H33.916V11.7051H32.7266V22ZM40.8887 13.209C41.3398 13.209 41.709 12.8398 41.709 12.3887C41.709 11.9375 41.3398 11.5684 40.8887 11.5684C40.4375 11.5684 40.0684 11.9375 40.0684 12.3887C40.0684 12.8398 40.4375 13.209 40.8887 13.209ZM40.2871 22H41.4766V14.6309H40.2871V22ZM44.3477 13.209C44.7988 13.209 45.168 12.8398 45.168 12.3887C45.168 11.9375 44.7988 11.5684 44.3477 11.5684C43.8965 11.5684 43.5273 11.9375 43.5273 12.3887C43.5273 12.8398 43.8965 13.209 44.3477 13.209ZM43.7461 22H44.9355V14.6309H43.7461V22ZM47.1777 22H48.3672V17.6387C48.3672 16.3467 49.1123 15.5537 50.2881 15.5537C51.4639 15.5537 52.0107 16.1895 52.0107 17.5156V22H53.2002V17.2285C53.2002 15.4785 52.2773 14.501 50.623 14.501C49.5361 14.501 48.8457 14.959 48.4766 15.7383H48.3672V14.6309H47.1777V22ZM58.3887 24.5977C60.3984 24.5977 61.6699 23.5449 61.6699 21.8975V14.6309H60.4805V15.8477H60.3984C59.9473 15.0137 59.1406 14.501 58.1016 14.501C56.1738 14.501 54.9844 15.998 54.9844 18.0625V18.0762C54.9844 20.1406 56.167 21.6172 58.0742 21.6172C59.0859 21.6172 59.9199 21.1592 60.3848 20.3457H60.4941V21.8359C60.4941 22.9229 59.708 23.5449 58.3887 23.5449C57.3291 23.5449 56.6729 23.1484 56.543 22.5879L56.5361 22.5811H55.3057L55.292 22.5879C55.4766 23.7979 56.6113 24.5977 58.3887 24.5977ZM58.334 20.5645C56.9668 20.5645 56.2012 19.5391 56.2012 18.0762V18.0625C56.2012 16.5996 56.9668 15.5537 58.334 15.5537C59.6943 15.5537 60.5215 16.5996 60.5215 18.0625V18.0762C60.5215 19.5391 59.7012 20.5645 58.334 20.5645Z" fill="white"/>
</svg>
