<svg width="56" height="56" viewBox="0 0 56 56" fill="none" xmlns="http://www.w3.org/2000/svg">
<g filter="url(#filter0_d)">
<circle cx="28" cy="24" r="24" fill="#2A6049"/>
<path d="M28.0001 44.3077C39.2157 44.3077 48.3078 35.2156 48.3078 24C48.3078 12.7844 39.2157 3.69232 28.0001 3.69232C16.7844 3.69232 7.69238 12.7844 7.69238 24C7.69238 35.2156 16.7844 44.3077 28.0001 44.3077Z" fill="#2A6049"/>
<path d="M28.0001 32.1231L36.1232 24L28.0001 15.8769" fill="#2A6049"/>
<path d="M28.0001 32.1231L36.1232 24M36.1232 24L28.0001 15.8769M36.1232 24H19.877M48.3078 24C48.3078 35.2156 39.2157 44.3077 28.0001 44.3077C16.7844 44.3077 7.69238 35.2156 7.69238 24C7.69238 12.7844 16.7844 3.69232 28.0001 3.69232C39.2157 3.69232 48.3078 12.7844 48.3078 24Z" stroke="white" stroke-width="2" stroke-linecap="round" stroke-linejoin="round"/>
</g>
<defs>
<filter id="filter0_d" x="0" y="0" width="56" height="56" filterUnits="userSpaceOnUse" color-interpolation-filters="sRGB">
<feFlood flood-opacity="0" result="BackgroundImageFix"/>
<feColorMatrix in="SourceAlpha" type="matrix" values="0 0 0 0 0 0 0 0 0 0 0 0 0 0 0 0 0 0 127 0"/>
<feOffset dy="4"/>
<feGaussianBlur stdDeviation="2"/>
<feColorMatrix type="matrix" values="0 0 0 0 0 0 0 0 0 0 0 0 0 0 0 0 0 0 0.25 0"/>
<feBlend mode="normal" in2="BackgroundImageFix" result="effect1_dropShadow"/>
<feBlend mode="normal" in="SourceGraphic" in2="effect1_dropShadow" result="shape"/>
</filter>
</defs>
</svg>
