<svg width="336" height="235" viewBox="0 0 336 235" fill="none" xmlns="http://www.w3.org/2000/svg">
<path d="M313.651 8.41333H125.277C118.073 8.41333 112.234 14.2068 112.234 21.3534V161.251C112.234 168.397 118.073 174.191 125.277 174.191H313.651C320.855 174.191 326.694 168.397 326.694 161.251V21.3534C326.694 14.2068 320.855 8.41333 313.651 8.41333Z" fill="#BDCAC2"/>
<path d="M326.695 108.241H262.679L216.691 81.6891C215.869 81.2149 215.187 80.5352 214.713 79.7177C214.239 78.9002 213.99 77.9736 213.99 77.0305V53.7762" stroke="white" stroke-width="0.3" stroke-miterlimit="10"/>
<path d="M213.99 46.8839V8.41339" stroke="white" stroke-width="0.3" stroke-miterlimit="10"/>
<path d="M183.244 108.702V35.1973" stroke="white" stroke-width="0.3" stroke-miterlimit="10"/>
<path d="M112.234 75.4454H139.565C141.032 75.4454 142.485 75.1586 143.841 74.6015C145.197 74.0444 146.429 73.2278 147.466 72.1983C148.504 71.1688 149.327 69.9467 149.888 68.6017C150.45 67.2566 150.739 65.815 150.739 64.3591V35.4394" stroke="white" stroke-width="0.3" stroke-miterlimit="10"/>
<path d="M150.738 42.4624C150.738 44.5416 151.57 46.5357 153.052 48.006C154.534 49.4762 156.544 50.3022 158.64 50.3022H210.49" stroke="white" stroke-width="0.3" stroke-miterlimit="10"/>
<path d="M217.442 50.3022H270.555C272.791 50.302 274.949 49.4917 276.625 48.0237L290.979 35.4394L319.538 10.3712" stroke="white" stroke-width="0.3" stroke-miterlimit="10" stroke-linecap="round"/>
<path d="M217.442 50.3022V50.3301C217.443 51.2404 217.08 52.1138 216.433 52.7596C215.786 53.4053 214.908 53.7708 213.991 53.7762H213.969C213.512 53.777 213.06 53.6885 212.638 53.5156C212.216 53.3428 211.832 53.089 211.509 52.7689C211.186 52.4488 210.93 52.0687 210.755 51.6502C210.58 51.2317 210.49 50.7831 210.49 50.3301V50.3022C210.497 49.3933 210.866 48.524 211.517 47.8839C212.167 47.2437 213.046 46.8847 213.963 46.8851H213.985C214.898 46.8885 215.774 47.2493 216.421 47.889C217.068 48.5287 217.435 49.3958 217.442 50.3022Z" stroke="white" stroke-width="0.3" stroke-miterlimit="10"/>
<path d="M326.695 35.443H290.979" stroke="white" stroke-width="0.3" stroke-miterlimit="10"/>
<path d="M326.696 88.5295H262.679" stroke="white" stroke-width="0.3" stroke-miterlimit="10"/>
<path d="M262.679 8.41339V126.979C262.678 128.497 262.071 129.952 260.989 131.026C259.907 132.099 258.44 132.702 256.91 132.702H112.234" stroke="white" stroke-width="0.3" stroke-miterlimit="10"/>
<path d="M283.785 174.734L242.951 132.701" stroke="white" stroke-width="0.3" stroke-miterlimit="10"/>
<path d="M141.882 108.231L127.098 75.4456" stroke="white" stroke-width="0.3" stroke-miterlimit="10"/>
<path d="M112.234 35.443H213.968" stroke="white" stroke-width="0.3" stroke-miterlimit="10"/>
<path d="M262.214 8.14233L217.618 50.0299" stroke="white" stroke-width="0.3" stroke-miterlimit="10"/>
<path d="M262.679 12.2806L222.489 50.03" stroke="white" stroke-width="0.3" stroke-miterlimit="10"/>
<path d="M262.679 16.8558L227.359 50.0299" stroke="white" stroke-width="0.3" stroke-miterlimit="10"/>
<path d="M262.679 21.4297L232.229 50.03" stroke="white" stroke-width="0.3" stroke-miterlimit="10"/>
<path d="M262.679 30.5786L241.969 50.0298" stroke="white" stroke-width="0.3" stroke-miterlimit="10"/>
<path d="M262.679 26.0048L237.099 50.0299" stroke="white" stroke-width="0.3" stroke-miterlimit="10"/>
<path d="M262.679 35.1537L246.839 50.0299" stroke="white" stroke-width="0.3" stroke-miterlimit="10"/>
<path d="M262.679 39.7277L251.711 50.0299" stroke="white" stroke-width="0.3" stroke-miterlimit="10"/>
<path d="M262.679 44.3029L256.581 50.0299" stroke="white" stroke-width="0.3" stroke-miterlimit="10"/>
<path d="M223.253 8.14233L213.99 16.8425" stroke="white" stroke-width="0.3" stroke-miterlimit="10"/>
<path d="M218.383 8.14233L213.99 12.2685" stroke="white" stroke-width="0.3" stroke-miterlimit="10"/>
<path d="M228.123 8.14233L213.99 21.4176" stroke="white" stroke-width="0.3" stroke-miterlimit="10"/>
<path d="M232.993 8.14233L213.968 26.0121" stroke="white" stroke-width="0.3" stroke-miterlimit="10"/>
<path d="M242.734 8.14233L213.968 35.1611" stroke="white" stroke-width="0.3" stroke-miterlimit="10"/>
<path d="M237.864 8.14233L213.968 30.586" stroke="white" stroke-width="0.3" stroke-miterlimit="10"/>
<path d="M247.604 8.14233L213.99 39.7144" stroke="white" stroke-width="0.3" stroke-miterlimit="10"/>
<path d="M252.474 8.14233L213.99 44.2895" stroke="white" stroke-width="0.3" stroke-miterlimit="10"/>
<path d="M257.344 8.14233L215.644 47.311" stroke="white" stroke-width="0.3" stroke-miterlimit="10"/>
<path d="M244.23 132.774L199.634 174.662" stroke="white" stroke-width="0.3" stroke-miterlimit="10"/>
<path d="M245.922 135.759L204.505 174.662" stroke="white" stroke-width="0.3" stroke-miterlimit="10"/>
<path d="M248.246 138.151L209.374 174.662" stroke="white" stroke-width="0.3" stroke-miterlimit="10"/>
<path d="M250.569 140.544L214.244 174.662" stroke="white" stroke-width="0.3" stroke-miterlimit="10"/>
<path d="M255.216 145.327L223.986 174.662" stroke="white" stroke-width="0.3" stroke-miterlimit="10"/>
<path d="M252.892 142.936L219.114 174.662" stroke="white" stroke-width="0.3" stroke-miterlimit="10"/>
<path d="M257.54 147.719L228.856 174.662" stroke="white" stroke-width="0.3" stroke-miterlimit="10"/>
<path d="M259.864 150.111L233.726 174.662" stroke="white" stroke-width="0.3" stroke-miterlimit="10"/>
<path d="M262.188 152.504L238.596 174.662" stroke="white" stroke-width="0.3" stroke-miterlimit="10"/>
<path d="M264.369 154.748L243.168 174.662" stroke="white" stroke-width="0.3" stroke-miterlimit="10"/>
<path d="M266.693 157.141L248.038 174.662" stroke="white" stroke-width="0.3" stroke-miterlimit="10"/>
<path d="M269.005 159.521L252.885 174.662" stroke="white" stroke-width="0.3" stroke-miterlimit="10"/>
<path d="M271.329 161.913L257.755 174.662" stroke="white" stroke-width="0.3" stroke-miterlimit="10"/>
<path d="M273.641 164.292L262.601 174.662" stroke="white" stroke-width="0.3" stroke-miterlimit="10"/>
<path d="M275.964 166.684L267.471 174.662" stroke="white" stroke-width="0.3" stroke-miterlimit="10"/>
<path d="M278.277 169.064L272.318 174.662" stroke="white" stroke-width="0.3" stroke-miterlimit="10"/>
<path d="M280.6 171.456L277.188 174.662" stroke="white" stroke-width="0.3" stroke-miterlimit="10"/>
<path d="M205.268 132.774L196.006 141.474" stroke="white" stroke-width="0.3" stroke-miterlimit="10"/>
<path d="M200.398 132.774L196.006 136.9" stroke="white" stroke-width="0.3" stroke-miterlimit="10"/>
<path d="M210.139 132.774L196.006 146.049" stroke="white" stroke-width="0.3" stroke-miterlimit="10"/>
<path d="M215.009 132.774L195.984 150.644" stroke="white" stroke-width="0.3" stroke-miterlimit="10"/>
<path d="M224.749 132.774L195.984 159.793" stroke="white" stroke-width="0.3" stroke-miterlimit="10"/>
<path d="M219.879 132.774L195.984 155.219" stroke="white" stroke-width="0.3" stroke-miterlimit="10"/>
<path d="M229.619 132.774L196.006 164.346" stroke="white" stroke-width="0.3" stroke-miterlimit="10"/>
<path d="M234.489 132.774L196.006 168.921" stroke="white" stroke-width="0.3" stroke-miterlimit="10"/>
<path d="M239.361 132.774L196.006 173.495" stroke="white" stroke-width="0.3" stroke-miterlimit="10"/>
<path d="M196.241 174.191L195.977 114.976C195.95 113.149 195.2 111.405 193.888 110.122C192.576 108.839 190.808 108.12 188.966 108.12H112.121" stroke="white" stroke-width="0.3" stroke-miterlimit="10"/>
<path d="M120.705 46.9045C121.058 46.9045 121.343 46.6211 121.343 46.2716C121.343 45.9221 121.058 45.6388 120.705 45.6388C120.353 45.6388 120.068 45.9221 120.068 46.2716C120.068 46.6211 120.353 46.9045 120.705 46.9045Z" fill="#98C8DB"/>
<path d="M124.725 46.9045C125.078 46.9045 125.363 46.6211 125.363 46.2716C125.363 45.9221 125.078 45.6388 124.725 45.6388C124.373 45.6388 124.087 45.9221 124.087 46.2716C124.087 46.6211 124.373 46.9045 124.725 46.9045Z" fill="#98C8DB"/>
<path d="M128.745 46.9045C129.098 46.9045 129.383 46.6211 129.383 46.2716C129.383 45.9221 129.098 45.6388 128.745 45.6388C128.393 45.6388 128.108 45.9221 128.108 46.2716C128.108 46.6211 128.393 46.9045 128.745 46.9045Z" fill="#98C8DB"/>
<path d="M132.764 46.9045C133.116 46.9045 133.402 46.6211 133.402 46.2716C133.402 45.9221 133.116 45.6388 132.764 45.6388C132.412 45.6388 132.126 45.9221 132.126 46.2716C132.126 46.6211 132.412 46.9045 132.764 46.9045Z" fill="#98C8DB"/>
<path d="M136.784 46.9045C137.136 46.9045 137.421 46.6211 137.421 46.2716C137.421 45.9221 137.136 45.6388 136.784 45.6388C136.431 45.6388 136.146 45.9221 136.146 46.2716C136.146 46.6211 136.431 46.9045 136.784 46.9045Z" fill="#98C8DB"/>
<path d="M140.803 46.9045C141.155 46.9045 141.441 46.6211 141.441 46.2716C141.441 45.9221 141.155 45.6388 140.803 45.6388C140.45 45.6388 140.165 45.9221 140.165 46.2716C140.165 46.6211 140.45 46.9045 140.803 46.9045Z" fill="#98C8DB"/>
<path d="M116.687 46.9045C117.039 46.9045 117.325 46.6211 117.325 46.2716C117.325 45.9221 117.039 45.6388 116.687 45.6388C116.335 45.6388 116.049 45.9221 116.049 46.2716C116.049 46.6211 116.335 46.9045 116.687 46.9045Z" fill="#98C8DB"/>
<path d="M118.697 48.982C119.049 48.982 119.335 48.6987 119.335 48.3492C119.335 47.9996 119.049 47.7163 118.697 47.7163C118.344 47.7163 118.059 47.9996 118.059 48.3492C118.059 48.6987 118.344 48.982 118.697 48.982Z" fill="#98C8DB"/>
<path d="M122.715 48.982C123.068 48.982 123.353 48.6987 123.353 48.3492C123.353 47.9996 123.068 47.7163 122.715 47.7163C122.363 47.7163 122.078 47.9996 122.078 48.3492C122.078 48.6987 122.363 48.982 122.715 48.982Z" fill="#98C8DB"/>
<path d="M126.735 48.982C127.088 48.982 127.374 48.6987 127.374 48.3492C127.374 47.9996 127.088 47.7163 126.735 47.7163C126.383 47.7163 126.097 47.9996 126.097 48.3492C126.097 48.6987 126.383 48.982 126.735 48.982Z" fill="#98C8DB"/>
<path d="M130.754 48.982C131.106 48.982 131.392 48.6987 131.392 48.3492C131.392 47.9996 131.106 47.7163 130.754 47.7163C130.402 47.7163 130.116 47.9996 130.116 48.3492C130.116 48.6987 130.402 48.982 130.754 48.982Z" fill="#98C8DB"/>
<path d="M134.774 48.982C135.126 48.982 135.412 48.6987 135.412 48.3492C135.412 47.9996 135.126 47.7163 134.774 47.7163C134.422 47.7163 134.136 47.9996 134.136 48.3492C134.136 48.6987 134.422 48.982 134.774 48.982Z" fill="#98C8DB"/>
<path d="M138.794 48.982C139.146 48.982 139.432 48.6987 139.432 48.3492C139.432 47.9996 139.146 47.7163 138.794 47.7163C138.442 47.7163 138.156 47.9996 138.156 48.3492C138.156 48.6987 138.442 48.982 138.794 48.982Z" fill="#98C8DB"/>
<path d="M142.813 48.982C143.165 48.982 143.451 48.6987 143.451 48.3492C143.451 47.9996 143.165 47.7163 142.813 47.7163C142.46 47.7163 142.175 47.9996 142.175 48.3492C142.175 48.6987 142.46 48.982 142.813 48.982Z" fill="#98C8DB"/>
<path d="M114.677 48.982C115.029 48.982 115.315 48.6987 115.315 48.3492C115.315 47.9996 115.029 47.7163 114.677 47.7163C114.324 47.7163 114.039 47.9996 114.039 48.3492C114.039 48.6987 114.324 48.982 114.677 48.982Z" fill="#98C8DB"/>
<path d="M120.705 51.0596C121.058 51.0596 121.343 50.7763 121.343 50.4268C121.343 50.0773 121.058 49.7939 120.705 49.7939C120.353 49.7939 120.068 50.0773 120.068 50.4268C120.068 50.7763 120.353 51.0596 120.705 51.0596Z" fill="#98C8DB"/>
<path d="M124.725 51.0596C125.078 51.0596 125.363 50.7763 125.363 50.4268C125.363 50.0773 125.078 49.7939 124.725 49.7939C124.373 49.7939 124.087 50.0773 124.087 50.4268C124.087 50.7763 124.373 51.0596 124.725 51.0596Z" fill="#98C8DB"/>
<path d="M128.745 51.0596C129.098 51.0596 129.383 50.7763 129.383 50.4268C129.383 50.0773 129.098 49.7939 128.745 49.7939C128.393 49.7939 128.108 50.0773 128.108 50.4268C128.108 50.7763 128.393 51.0596 128.745 51.0596Z" fill="#98C8DB"/>
<path d="M132.764 51.0596C133.116 51.0596 133.402 50.7763 133.402 50.4268C133.402 50.0773 133.116 49.7939 132.764 49.7939C132.412 49.7939 132.126 50.0773 132.126 50.4268C132.126 50.7763 132.412 51.0596 132.764 51.0596Z" fill="#98C8DB"/>
<path d="M136.784 51.0596C137.136 51.0596 137.421 50.7763 137.421 50.4268C137.421 50.0773 137.136 49.7939 136.784 49.7939C136.431 49.7939 136.146 50.0773 136.146 50.4268C136.146 50.7763 136.431 51.0596 136.784 51.0596Z" fill="#98C8DB"/>
<path d="M140.803 51.0596C141.155 51.0596 141.441 50.7763 141.441 50.4268C141.441 50.0773 141.155 49.7939 140.803 49.7939C140.45 49.7939 140.165 50.0773 140.165 50.4268C140.165 50.7763 140.45 51.0596 140.803 51.0596Z" fill="#98C8DB"/>
<path d="M144.823 51.0596C145.175 51.0596 145.461 50.7763 145.461 50.4268C145.461 50.0773 145.175 49.7939 144.823 49.7939C144.47 49.7939 144.185 50.0773 144.185 50.4268C144.185 50.7763 144.47 51.0596 144.823 51.0596Z" fill="#98C8DB"/>
<path d="M144.823 46.9045C145.175 46.9045 145.461 46.6211 145.461 46.2716C145.461 45.9221 145.175 45.6388 144.823 45.6388C144.47 45.6388 144.185 45.9221 144.185 46.2716C144.185 46.6211 144.47 46.9045 144.823 46.9045Z" fill="#98C8DB"/>
<path d="M116.687 51.0596C117.039 51.0596 117.325 50.7763 117.325 50.4268C117.325 50.0773 117.039 49.7939 116.687 49.7939C116.335 49.7939 116.049 50.0773 116.049 50.4268C116.049 50.7763 116.335 51.0596 116.687 51.0596Z" fill="#98C8DB"/>
<path d="M118.697 53.1373C119.049 53.1373 119.335 52.854 119.335 52.5045C119.335 52.155 119.049 51.8716 118.697 51.8716C118.344 51.8716 118.059 52.155 118.059 52.5045C118.059 52.854 118.344 53.1373 118.697 53.1373Z" fill="#98C8DB"/>
<path d="M122.715 53.1373C123.068 53.1373 123.353 52.854 123.353 52.5045C123.353 52.155 123.068 51.8716 122.715 51.8716C122.363 51.8716 122.078 52.155 122.078 52.5045C122.078 52.854 122.363 53.1373 122.715 53.1373Z" fill="#98C8DB"/>
<path d="M126.735 53.1373C127.088 53.1373 127.374 52.854 127.374 52.5045C127.374 52.155 127.088 51.8716 126.735 51.8716C126.383 51.8716 126.097 52.155 126.097 52.5045C126.097 52.854 126.383 53.1373 126.735 53.1373Z" fill="#98C8DB"/>
<path d="M130.754 53.1373C131.106 53.1373 131.392 52.854 131.392 52.5045C131.392 52.155 131.106 51.8716 130.754 51.8716C130.402 51.8716 130.116 52.155 130.116 52.5045C130.116 52.854 130.402 53.1373 130.754 53.1373Z" fill="#98C8DB"/>
<path d="M134.774 53.1373C135.126 53.1373 135.412 52.854 135.412 52.5045C135.412 52.155 135.126 51.8716 134.774 51.8716C134.422 51.8716 134.136 52.155 134.136 52.5045C134.136 52.854 134.422 53.1373 134.774 53.1373Z" fill="#98C8DB"/>
<path d="M138.794 53.1373C139.146 53.1373 139.432 52.854 139.432 52.5045C139.432 52.155 139.146 51.8716 138.794 51.8716C138.442 51.8716 138.156 52.155 138.156 52.5045C138.156 52.854 138.442 53.1373 138.794 53.1373Z" fill="#98C8DB"/>
<path d="M142.813 53.1373C143.165 53.1373 143.451 52.854 143.451 52.5045C143.451 52.155 143.165 51.8716 142.813 51.8716C142.46 51.8716 142.175 52.155 142.175 52.5045C142.175 52.854 142.46 53.1373 142.813 53.1373Z" fill="#98C8DB"/>
<path d="M114.677 53.1373C115.029 53.1373 115.315 52.854 115.315 52.5045C115.315 52.155 115.029 51.8716 114.677 51.8716C114.324 51.8716 114.039 52.155 114.039 52.5045C114.039 52.854 114.324 53.1373 114.677 53.1373Z" fill="#98C8DB"/>
<path d="M120.705 55.2149C121.058 55.2149 121.343 54.9316 121.343 54.5821C121.343 54.2326 121.058 53.9492 120.705 53.9492C120.353 53.9492 120.068 54.2326 120.068 54.5821C120.068 54.9316 120.353 55.2149 120.705 55.2149Z" fill="#98C8DB"/>
<path d="M124.725 55.2149C125.078 55.2149 125.363 54.9316 125.363 54.5821C125.363 54.2326 125.078 53.9492 124.725 53.9492C124.373 53.9492 124.087 54.2326 124.087 54.5821C124.087 54.9316 124.373 55.2149 124.725 55.2149Z" fill="#98C8DB"/>
<path d="M128.745 55.2149C129.098 55.2149 129.383 54.9316 129.383 54.5821C129.383 54.2326 129.098 53.9492 128.745 53.9492C128.393 53.9492 128.108 54.2326 128.108 54.5821C128.108 54.9316 128.393 55.2149 128.745 55.2149Z" fill="#98C8DB"/>
<path d="M132.764 55.2149C133.116 55.2149 133.402 54.9316 133.402 54.5821C133.402 54.2326 133.116 53.9492 132.764 53.9492C132.412 53.9492 132.126 54.2326 132.126 54.5821C132.126 54.9316 132.412 55.2149 132.764 55.2149Z" fill="#98C8DB"/>
<path d="M136.784 55.2149C137.136 55.2149 137.421 54.9316 137.421 54.5821C137.421 54.2326 137.136 53.9492 136.784 53.9492C136.431 53.9492 136.146 54.2326 136.146 54.5821C136.146 54.9316 136.431 55.2149 136.784 55.2149Z" fill="#98C8DB"/>
<path d="M140.803 55.2149C141.155 55.2149 141.441 54.9316 141.441 54.5821C141.441 54.2326 141.155 53.9492 140.803 53.9492C140.45 53.9492 140.165 54.2326 140.165 54.5821C140.165 54.9316 140.45 55.2149 140.803 55.2149Z" fill="#98C8DB"/>
<path d="M144.823 55.2149C145.175 55.2149 145.461 54.9316 145.461 54.5821C145.461 54.2326 145.175 53.9492 144.823 53.9492C144.47 53.9492 144.185 54.2326 144.185 54.5821C144.185 54.9316 144.47 55.2149 144.823 55.2149Z" fill="#98C8DB"/>
<path d="M116.687 55.2149C117.039 55.2149 117.325 54.9316 117.325 54.5821C117.325 54.2326 117.039 53.9492 116.687 53.9492C116.335 53.9492 116.049 54.2326 116.049 54.5821C116.049 54.9316 116.335 55.2149 116.687 55.2149Z" fill="#98C8DB"/>
<path d="M118.697 57.2925C119.049 57.2925 119.335 57.0092 119.335 56.6596C119.335 56.3101 119.049 56.0268 118.697 56.0268C118.344 56.0268 118.059 56.3101 118.059 56.6596C118.059 57.0092 118.344 57.2925 118.697 57.2925Z" fill="#98C8DB"/>
<path d="M122.715 57.2925C123.068 57.2925 123.353 57.0092 123.353 56.6596C123.353 56.3101 123.068 56.0268 122.715 56.0268C122.363 56.0268 122.078 56.3101 122.078 56.6596C122.078 57.0092 122.363 57.2925 122.715 57.2925Z" fill="#98C8DB"/>
<path d="M126.735 57.2925C127.088 57.2925 127.374 57.0092 127.374 56.6596C127.374 56.3101 127.088 56.0268 126.735 56.0268C126.383 56.0268 126.097 56.3101 126.097 56.6596C126.097 57.0092 126.383 57.2925 126.735 57.2925Z" fill="#98C8DB"/>
<path d="M130.754 57.2925C131.106 57.2925 131.392 57.0092 131.392 56.6596C131.392 56.3101 131.106 56.0268 130.754 56.0268C130.402 56.0268 130.116 56.3101 130.116 56.6596C130.116 57.0092 130.402 57.2925 130.754 57.2925Z" fill="#98C8DB"/>
<path d="M134.774 57.2925C135.126 57.2925 135.412 57.0092 135.412 56.6596C135.412 56.3101 135.126 56.0268 134.774 56.0268C134.422 56.0268 134.136 56.3101 134.136 56.6596C134.136 57.0092 134.422 57.2925 134.774 57.2925Z" fill="#98C8DB"/>
<path d="M138.794 57.2925C139.146 57.2925 139.432 57.0092 139.432 56.6596C139.432 56.3101 139.146 56.0268 138.794 56.0268C138.442 56.0268 138.156 56.3101 138.156 56.6596C138.156 57.0092 138.442 57.2925 138.794 57.2925Z" fill="#98C8DB"/>
<path d="M142.813 57.2925C143.165 57.2925 143.451 57.0092 143.451 56.6596C143.451 56.3101 143.165 56.0268 142.813 56.0268C142.46 56.0268 142.175 56.3101 142.175 56.6596C142.175 57.0092 142.46 57.2925 142.813 57.2925Z" fill="#98C8DB"/>
<path d="M114.677 57.2925C115.029 57.2925 115.315 57.0092 115.315 56.6596C115.315 56.3101 115.029 56.0268 114.677 56.0268C114.324 56.0268 114.039 56.3101 114.039 56.6596C114.039 57.0092 114.324 57.2925 114.677 57.2925Z" fill="#98C8DB"/>
<path d="M120.705 59.3701C121.058 59.3701 121.343 59.0868 121.343 58.7373C121.343 58.3878 121.058 58.1044 120.705 58.1044C120.353 58.1044 120.068 58.3878 120.068 58.7373C120.068 59.0868 120.353 59.3701 120.705 59.3701Z" fill="#98C8DB"/>
<path d="M124.725 59.3701C125.078 59.3701 125.363 59.0868 125.363 58.7373C125.363 58.3878 125.078 58.1044 124.725 58.1044C124.373 58.1044 124.087 58.3878 124.087 58.7373C124.087 59.0868 124.373 59.3701 124.725 59.3701Z" fill="#98C8DB"/>
<path d="M128.745 59.3701C129.098 59.3701 129.383 59.0868 129.383 58.7373C129.383 58.3878 129.098 58.1044 128.745 58.1044C128.393 58.1044 128.108 58.3878 128.108 58.7373C128.108 59.0868 128.393 59.3701 128.745 59.3701Z" fill="#98C8DB"/>
<path d="M132.764 59.3701C133.116 59.3701 133.402 59.0868 133.402 58.7373C133.402 58.3878 133.116 58.1044 132.764 58.1044C132.412 58.1044 132.126 58.3878 132.126 58.7373C132.126 59.0868 132.412 59.3701 132.764 59.3701Z" fill="#98C8DB"/>
<path d="M136.784 59.3701C137.136 59.3701 137.421 59.0868 137.421 58.7373C137.421 58.3878 137.136 58.1044 136.784 58.1044C136.431 58.1044 136.146 58.3878 136.146 58.7373C136.146 59.0868 136.431 59.3701 136.784 59.3701Z" fill="#98C8DB"/>
<path d="M140.803 59.3701C141.155 59.3701 141.441 59.0868 141.441 58.7373C141.441 58.3878 141.155 58.1044 140.803 58.1044C140.45 58.1044 140.165 58.3878 140.165 58.7373C140.165 59.0868 140.45 59.3701 140.803 59.3701Z" fill="#98C8DB"/>
<path d="M144.823 59.3701C145.175 59.3701 145.461 59.0868 145.461 58.7373C145.461 58.3878 145.175 58.1044 144.823 58.1044C144.47 58.1044 144.185 58.3878 144.185 58.7373C144.185 59.0868 144.47 59.3701 144.823 59.3701Z" fill="#98C8DB"/>
<path d="M116.687 59.3701C117.039 59.3701 117.325 59.0868 117.325 58.7373C117.325 58.3878 117.039 58.1044 116.687 58.1044C116.335 58.1044 116.049 58.3878 116.049 58.7373C116.049 59.0868 116.335 59.3701 116.687 59.3701Z" fill="#98C8DB"/>
<path d="M118.697 61.4477C119.049 61.4477 119.335 61.1644 119.335 60.8149C119.335 60.4653 119.049 60.182 118.697 60.182C118.344 60.182 118.059 60.4653 118.059 60.8149C118.059 61.1644 118.344 61.4477 118.697 61.4477Z" fill="#98C8DB"/>
<path d="M122.715 61.4477C123.068 61.4477 123.353 61.1644 123.353 60.8149C123.353 60.4653 123.068 60.182 122.715 60.182C122.363 60.182 122.078 60.4653 122.078 60.8149C122.078 61.1644 122.363 61.4477 122.715 61.4477Z" fill="#98C8DB"/>
<path d="M126.735 61.4477C127.088 61.4477 127.374 61.1644 127.374 60.8149C127.374 60.4653 127.088 60.182 126.735 60.182C126.383 60.182 126.097 60.4653 126.097 60.8149C126.097 61.1644 126.383 61.4477 126.735 61.4477Z" fill="#98C8DB"/>
<path d="M130.754 61.4477C131.106 61.4477 131.392 61.1644 131.392 60.8149C131.392 60.4653 131.106 60.182 130.754 60.182C130.402 60.182 130.116 60.4653 130.116 60.8149C130.116 61.1644 130.402 61.4477 130.754 61.4477Z" fill="#98C8DB"/>
<path d="M134.774 61.4477C135.126 61.4477 135.412 61.1644 135.412 60.8149C135.412 60.4653 135.126 60.182 134.774 60.182C134.422 60.182 134.136 60.4653 134.136 60.8149C134.136 61.1644 134.422 61.4477 134.774 61.4477Z" fill="#98C8DB"/>
<path d="M138.794 61.4477C139.146 61.4477 139.432 61.1644 139.432 60.8149C139.432 60.4653 139.146 60.182 138.794 60.182C138.442 60.182 138.156 60.4653 138.156 60.8149C138.156 61.1644 138.442 61.4477 138.794 61.4477Z" fill="#98C8DB"/>
<path d="M142.813 61.4477C143.165 61.4477 143.451 61.1644 143.451 60.8149C143.451 60.4653 143.165 60.182 142.813 60.182C142.46 60.182 142.175 60.4653 142.175 60.8149C142.175 61.1644 142.46 61.4477 142.813 61.4477Z" fill="#98C8DB"/>
<path d="M114.677 61.4477C115.029 61.4477 115.315 61.1644 115.315 60.8149C115.315 60.4653 115.029 60.182 114.677 60.182C114.324 60.182 114.039 60.4653 114.039 60.8149C114.039 61.1644 114.324 61.4477 114.677 61.4477Z" fill="#98C8DB"/>
<path d="M120.705 63.5266C121.058 63.5266 121.343 63.2432 121.343 62.8937C121.343 62.5442 121.058 62.2609 120.705 62.2609C120.353 62.2609 120.068 62.5442 120.068 62.8937C120.068 63.2432 120.353 63.5266 120.705 63.5266Z" fill="#98C8DB"/>
<path d="M124.725 63.5266C125.078 63.5266 125.363 63.2432 125.363 62.8937C125.363 62.5442 125.078 62.2609 124.725 62.2609C124.373 62.2609 124.087 62.5442 124.087 62.8937C124.087 63.2432 124.373 63.5266 124.725 63.5266Z" fill="#98C8DB"/>
<path d="M128.745 63.5266C129.098 63.5266 129.383 63.2432 129.383 62.8937C129.383 62.5442 129.098 62.2609 128.745 62.2609C128.393 62.2609 128.108 62.5442 128.108 62.8937C128.108 63.2432 128.393 63.5266 128.745 63.5266Z" fill="#98C8DB"/>
<path d="M132.764 63.5266C133.116 63.5266 133.402 63.2432 133.402 62.8937C133.402 62.5442 133.116 62.2609 132.764 62.2609C132.412 62.2609 132.126 62.5442 132.126 62.8937C132.126 63.2432 132.412 63.5266 132.764 63.5266Z" fill="#98C8DB"/>
<path d="M136.784 63.5266C137.136 63.5266 137.421 63.2432 137.421 62.8937C137.421 62.5442 137.136 62.2609 136.784 62.2609C136.431 62.2609 136.146 62.5442 136.146 62.8937C136.146 63.2432 136.431 63.5266 136.784 63.5266Z" fill="#98C8DB"/>
<path d="M140.803 63.5266C141.155 63.5266 141.441 63.2432 141.441 62.8937C141.441 62.5442 141.155 62.2609 140.803 62.2609C140.45 62.2609 140.165 62.5442 140.165 62.8937C140.165 63.2432 140.45 63.5266 140.803 63.5266Z" fill="#98C8DB"/>
<path d="M144.823 63.5266C145.175 63.5266 145.461 63.2432 145.461 62.8937C145.461 62.5442 145.175 62.2609 144.823 62.2609C144.47 62.2609 144.185 62.5442 144.185 62.8937C144.185 63.2432 144.47 63.5266 144.823 63.5266Z" fill="#98C8DB"/>
<path d="M116.687 63.5266C117.039 63.5266 117.325 63.2432 117.325 62.8937C117.325 62.5442 117.039 62.2609 116.687 62.2609C116.335 62.2609 116.049 62.5442 116.049 62.8937C116.049 63.2432 116.335 63.5266 116.687 63.5266Z" fill="#98C8DB"/>
<path d="M118.697 65.6042C119.049 65.6042 119.335 65.3209 119.335 64.9713C119.335 64.6218 119.049 64.3385 118.697 64.3385C118.344 64.3385 118.059 64.6218 118.059 64.9713C118.059 65.3209 118.344 65.6042 118.697 65.6042Z" fill="#98C8DB"/>
<path d="M122.715 65.6042C123.068 65.6042 123.353 65.3209 123.353 64.9713C123.353 64.6218 123.068 64.3385 122.715 64.3385C122.363 64.3385 122.078 64.6218 122.078 64.9713C122.078 65.3209 122.363 65.6042 122.715 65.6042Z" fill="#98C8DB"/>
<path d="M126.735 65.6042C127.088 65.6042 127.374 65.3209 127.374 64.9713C127.374 64.6218 127.088 64.3385 126.735 64.3385C126.383 64.3385 126.097 64.6218 126.097 64.9713C126.097 65.3209 126.383 65.6042 126.735 65.6042Z" fill="#98C8DB"/>
<path d="M130.754 65.6042C131.106 65.6042 131.392 65.3209 131.392 64.9713C131.392 64.6218 131.106 64.3385 130.754 64.3385C130.402 64.3385 130.116 64.6218 130.116 64.9713C130.116 65.3209 130.402 65.6042 130.754 65.6042Z" fill="#98C8DB"/>
<path d="M134.774 65.6042C135.126 65.6042 135.412 65.3209 135.412 64.9713C135.412 64.6218 135.126 64.3385 134.774 64.3385C134.422 64.3385 134.136 64.6218 134.136 64.9713C134.136 65.3209 134.422 65.6042 134.774 65.6042Z" fill="#98C8DB"/>
<path d="M138.794 65.6042C139.146 65.6042 139.432 65.3209 139.432 64.9713C139.432 64.6218 139.146 64.3385 138.794 64.3385C138.442 64.3385 138.156 64.6218 138.156 64.9713C138.156 65.3209 138.442 65.6042 138.794 65.6042Z" fill="#98C8DB"/>
<path d="M142.813 65.6042C143.165 65.6042 143.451 65.3209 143.451 64.9713C143.451 64.6218 143.165 64.3385 142.813 64.3385C142.46 64.3385 142.175 64.6218 142.175 64.9713C142.175 65.3209 142.46 65.6042 142.813 65.6042Z" fill="#98C8DB"/>
<path d="M146.918 48.982C147.27 48.982 147.556 48.6987 147.556 48.3492C147.556 47.9996 147.27 47.7163 146.918 47.7163C146.565 47.7163 146.28 47.9996 146.28 48.3492C146.28 48.6987 146.565 48.982 146.918 48.982Z" fill="#98C8DB"/>
<path d="M146.918 53.1373C147.27 53.1373 147.556 52.854 147.556 52.5045C147.556 52.155 147.27 51.8716 146.918 51.8716C146.565 51.8716 146.28 52.155 146.28 52.5045C146.28 52.854 146.565 53.1373 146.918 53.1373Z" fill="#98C8DB"/>
<path d="M118.697 40.5639C119.049 40.5639 119.335 40.2805 119.335 39.931C119.335 39.5815 119.049 39.2982 118.697 39.2982C118.344 39.2982 118.059 39.5815 118.059 39.931C118.059 40.2805 118.344 40.5639 118.697 40.5639Z" fill="#98C8DB"/>
<path d="M122.715 40.5639C123.068 40.5639 123.353 40.2805 123.353 39.931C123.353 39.5815 123.068 39.2982 122.715 39.2982C122.363 39.2982 122.078 39.5815 122.078 39.931C122.078 40.2805 122.363 40.5639 122.715 40.5639Z" fill="#98C8DB"/>
<path d="M126.735 40.5639C127.088 40.5639 127.374 40.2805 127.374 39.931C127.374 39.5815 127.088 39.2982 126.735 39.2982C126.383 39.2982 126.097 39.5815 126.097 39.931C126.097 40.2805 126.383 40.5639 126.735 40.5639Z" fill="#98C8DB"/>
<path d="M130.754 40.5639C131.106 40.5639 131.392 40.2805 131.392 39.931C131.392 39.5815 131.106 39.2982 130.754 39.2982C130.402 39.2982 130.116 39.5815 130.116 39.931C130.116 40.2805 130.402 40.5639 130.754 40.5639Z" fill="#98C8DB"/>
<path d="M134.774 40.5639C135.126 40.5639 135.412 40.2805 135.412 39.931C135.412 39.5815 135.126 39.2982 134.774 39.2982C134.422 39.2982 134.136 39.5815 134.136 39.931C134.136 40.2805 134.422 40.5639 134.774 40.5639Z" fill="#98C8DB"/>
<path d="M138.794 40.5639C139.146 40.5639 139.432 40.2805 139.432 39.931C139.432 39.5815 139.146 39.2982 138.794 39.2982C138.442 39.2982 138.156 39.5815 138.156 39.931C138.156 40.2805 138.442 40.5639 138.794 40.5639Z" fill="#98C8DB"/>
<path d="M142.813 40.5639C143.165 40.5639 143.451 40.2805 143.451 39.931C143.451 39.5815 143.165 39.2982 142.813 39.2982C142.46 39.2982 142.175 39.5815 142.175 39.931C142.175 40.2805 142.46 40.5639 142.813 40.5639Z" fill="#98C8DB"/>
<path d="M114.677 40.5639C115.029 40.5639 115.315 40.2805 115.315 39.931C115.315 39.5815 115.029 39.2982 114.677 39.2982C114.324 39.2982 114.039 39.5815 114.039 39.931C114.039 40.2805 114.324 40.5639 114.677 40.5639Z" fill="#98C8DB"/>
<path d="M120.705 42.6415C121.058 42.6415 121.343 42.3581 121.343 42.0086C121.343 41.6591 121.058 41.3758 120.705 41.3758C120.353 41.3758 120.068 41.6591 120.068 42.0086C120.068 42.3581 120.353 42.6415 120.705 42.6415Z" fill="#98C8DB"/>
<path d="M124.725 42.6415C125.078 42.6415 125.363 42.3581 125.363 42.0086C125.363 41.6591 125.078 41.3758 124.725 41.3758C124.373 41.3758 124.087 41.6591 124.087 42.0086C124.087 42.3581 124.373 42.6415 124.725 42.6415Z" fill="#98C8DB"/>
<path d="M128.745 42.6415C129.098 42.6415 129.383 42.3581 129.383 42.0086C129.383 41.6591 129.098 41.3758 128.745 41.3758C128.393 41.3758 128.108 41.6591 128.108 42.0086C128.108 42.3581 128.393 42.6415 128.745 42.6415Z" fill="#98C8DB"/>
<path d="M132.764 42.6415C133.116 42.6415 133.402 42.3581 133.402 42.0086C133.402 41.6591 133.116 41.3758 132.764 41.3758C132.412 41.3758 132.126 41.6591 132.126 42.0086C132.126 42.3581 132.412 42.6415 132.764 42.6415Z" fill="#98C8DB"/>
<path d="M136.784 42.6415C137.136 42.6415 137.421 42.3581 137.421 42.0086C137.421 41.6591 137.136 41.3758 136.784 41.3758C136.431 41.3758 136.146 41.6591 136.146 42.0086C136.146 42.3581 136.431 42.6415 136.784 42.6415Z" fill="#98C8DB"/>
<path d="M140.803 42.6415C141.155 42.6415 141.441 42.3581 141.441 42.0086C141.441 41.6591 141.155 41.3758 140.803 41.3758C140.45 41.3758 140.165 41.6591 140.165 42.0086C140.165 42.3581 140.45 42.6415 140.803 42.6415Z" fill="#98C8DB"/>
<path d="M144.823 42.6415C145.175 42.6415 145.461 42.3581 145.461 42.0086C145.461 41.6591 145.175 41.3758 144.823 41.3758C144.47 41.3758 144.185 41.6591 144.185 42.0086C144.185 42.3581 144.47 42.6415 144.823 42.6415Z" fill="#98C8DB"/>
<path d="M116.687 42.6415C117.039 42.6415 117.325 42.3581 117.325 42.0086C117.325 41.6591 117.039 41.3758 116.687 41.3758C116.335 41.3758 116.049 41.6591 116.049 42.0086C116.049 42.3581 116.335 42.6415 116.687 42.6415Z" fill="#98C8DB"/>
<path d="M118.697 44.7191C119.049 44.7191 119.335 44.4358 119.335 44.0863C119.335 43.7368 119.049 43.4534 118.697 43.4534C118.344 43.4534 118.059 43.7368 118.059 44.0863C118.059 44.4358 118.344 44.7191 118.697 44.7191Z" fill="#98C8DB"/>
<path d="M122.715 44.7191C123.068 44.7191 123.353 44.4358 123.353 44.0863C123.353 43.7368 123.068 43.4534 122.715 43.4534C122.363 43.4534 122.078 43.7368 122.078 44.0863C122.078 44.4358 122.363 44.7191 122.715 44.7191Z" fill="#98C8DB"/>
<path d="M126.735 44.7191C127.088 44.7191 127.374 44.4358 127.374 44.0863C127.374 43.7368 127.088 43.4534 126.735 43.4534C126.383 43.4534 126.097 43.7368 126.097 44.0863C126.097 44.4358 126.383 44.7191 126.735 44.7191Z" fill="#98C8DB"/>
<path d="M130.754 44.7191C131.106 44.7191 131.392 44.4358 131.392 44.0863C131.392 43.7368 131.106 43.4534 130.754 43.4534C130.402 43.4534 130.116 43.7368 130.116 44.0863C130.116 44.4358 130.402 44.7191 130.754 44.7191Z" fill="#98C8DB"/>
<path d="M134.774 44.7191C135.126 44.7191 135.412 44.4358 135.412 44.0863C135.412 43.7368 135.126 43.4534 134.774 43.4534C134.422 43.4534 134.136 43.7368 134.136 44.0863C134.136 44.4358 134.422 44.7191 134.774 44.7191Z" fill="#98C8DB"/>
<path d="M138.794 44.7191C139.146 44.7191 139.432 44.4358 139.432 44.0863C139.432 43.7368 139.146 43.4534 138.794 43.4534C138.442 43.4534 138.156 43.7368 138.156 44.0863C138.156 44.4358 138.442 44.7191 138.794 44.7191Z" fill="#98C8DB"/>
<path d="M142.813 44.7191C143.165 44.7191 143.451 44.4358 143.451 44.0863C143.451 43.7368 143.165 43.4534 142.813 43.4534C142.46 43.4534 142.175 43.7368 142.175 44.0863C142.175 44.4358 142.46 44.7191 142.813 44.7191Z" fill="#98C8DB"/>
<path d="M114.677 44.7191C115.029 44.7191 115.315 44.4358 115.315 44.0863C115.315 43.7368 115.029 43.4534 114.677 43.4534C114.324 43.4534 114.039 43.7368 114.039 44.0863C114.039 44.4358 114.324 44.7191 114.677 44.7191Z" fill="#98C8DB"/>
<path d="M146.918 40.5639C147.27 40.5639 147.556 40.2805 147.556 39.931C147.556 39.5815 147.27 39.2982 146.918 39.2982C146.565 39.2982 146.28 39.5815 146.28 39.931C146.28 40.2805 146.565 40.5639 146.918 40.5639Z" fill="#98C8DB"/>
<path d="M146.918 44.7191C147.27 44.7191 147.556 44.4358 147.556 44.0863C147.556 43.7368 147.27 43.4534 146.918 43.4534C146.565 43.4534 146.28 43.7368 146.28 44.0863C146.28 44.4358 146.565 44.7191 146.918 44.7191Z" fill="#98C8DB"/>
<path d="M146.918 57.2925C147.27 57.2925 147.556 57.0092 147.556 56.6596C147.556 56.3101 147.27 56.0268 146.918 56.0268C146.565 56.0268 146.28 56.3101 146.28 56.6596C146.28 57.0092 146.565 57.2925 146.918 57.2925Z" fill="#98C8DB"/>
<path d="M146.918 61.4477C147.27 61.4477 147.556 61.1644 147.556 60.8149C147.556 60.4653 147.27 60.182 146.918 60.182C146.565 60.182 146.28 60.4653 146.28 60.8149C146.28 61.1644 146.565 61.4477 146.918 61.4477Z" fill="#98C8DB"/>
<path d="M146.918 65.6042C147.27 65.6042 147.556 65.3209 147.556 64.9713C147.556 64.6218 147.27 64.3385 146.918 64.3385C146.565 64.3385 146.28 64.6218 146.28 64.9713C146.28 65.3209 146.565 65.6042 146.918 65.6042Z" fill="#98C8DB"/>
<path d="M114.677 65.6042C115.029 65.6042 115.315 65.3209 115.315 64.9713C115.315 64.6218 115.029 64.3385 114.677 64.3385C114.324 64.3385 114.039 64.6218 114.039 64.9713C114.039 65.3209 114.324 65.6042 114.677 65.6042Z" fill="#98C8DB"/>
<path d="M120.705 67.6818C121.058 67.6818 121.343 67.3985 121.343 67.049C121.343 66.6995 121.058 66.4161 120.705 66.4161C120.353 66.4161 120.068 66.6995 120.068 67.049C120.068 67.3985 120.353 67.6818 120.705 67.6818Z" fill="#98C8DB"/>
<path d="M124.725 67.6818C125.078 67.6818 125.363 67.3985 125.363 67.049C125.363 66.6995 125.078 66.4161 124.725 66.4161C124.373 66.4161 124.087 66.6995 124.087 67.049C124.087 67.3985 124.373 67.6818 124.725 67.6818Z" fill="#98C8DB"/>
<path d="M128.745 67.6818C129.098 67.6818 129.383 67.3985 129.383 67.049C129.383 66.6995 129.098 66.4161 128.745 66.4161C128.393 66.4161 128.108 66.6995 128.108 67.049C128.108 67.3985 128.393 67.6818 128.745 67.6818Z" fill="#98C8DB"/>
<path d="M132.764 67.6818C133.116 67.6818 133.402 67.3985 133.402 67.049C133.402 66.6995 133.116 66.4161 132.764 66.4161C132.412 66.4161 132.126 66.6995 132.126 67.049C132.126 67.3985 132.412 67.6818 132.764 67.6818Z" fill="#98C8DB"/>
<path d="M136.784 67.6818C137.136 67.6818 137.421 67.3985 137.421 67.049C137.421 66.6995 137.136 66.4161 136.784 66.4161C136.431 66.4161 136.146 66.6995 136.146 67.049C136.146 67.3985 136.431 67.6818 136.784 67.6818Z" fill="#98C8DB"/>
<path d="M140.803 67.6818C141.155 67.6818 141.441 67.3985 141.441 67.049C141.441 66.6995 141.155 66.4161 140.803 66.4161C140.45 66.4161 140.165 66.6995 140.165 67.049C140.165 67.3985 140.45 67.6818 140.803 67.6818Z" fill="#98C8DB"/>
<path d="M144.823 67.6818C145.175 67.6818 145.461 67.3985 145.461 67.049C145.461 66.6995 145.175 66.4161 144.823 66.4161C144.47 66.4161 144.185 66.6995 144.185 67.049C144.185 67.3985 144.47 67.6818 144.823 67.6818Z" fill="#98C8DB"/>
<path d="M116.687 67.6818C117.039 67.6818 117.325 67.3985 117.325 67.049C117.325 66.6995 117.039 66.4161 116.687 66.4161C116.335 66.4161 116.049 66.6995 116.049 67.049C116.049 67.3985 116.335 67.6818 116.687 67.6818Z" fill="#98C8DB"/>
<path d="M118.697 69.8526C119.049 69.8526 119.335 69.5693 119.335 69.2198C119.335 68.8702 119.049 68.5869 118.697 68.5869C118.344 68.5869 118.059 68.8702 118.059 69.2198C118.059 69.5693 118.344 69.8526 118.697 69.8526Z" fill="#98C8DB"/>
<path d="M122.715 69.8526C123.068 69.8526 123.353 69.5693 123.353 69.2198C123.353 68.8702 123.068 68.5869 122.715 68.5869C122.363 68.5869 122.078 68.8702 122.078 69.2198C122.078 69.5693 122.363 69.8526 122.715 69.8526Z" fill="#98C8DB"/>
<path d="M126.735 69.8526C127.088 69.8526 127.374 69.5693 127.374 69.2198C127.374 68.8702 127.088 68.5869 126.735 68.5869C126.383 68.5869 126.097 68.8702 126.097 69.2198C126.097 69.5693 126.383 69.8526 126.735 69.8526Z" fill="#98C8DB"/>
<path d="M130.754 69.8526C131.106 69.8526 131.392 69.5693 131.392 69.2198C131.392 68.8702 131.106 68.5869 130.754 68.5869C130.402 68.5869 130.116 68.8702 130.116 69.2198C130.116 69.5693 130.402 69.8526 130.754 69.8526Z" fill="#98C8DB"/>
<path d="M134.774 69.8526C135.126 69.8526 135.412 69.5693 135.412 69.2198C135.412 68.8702 135.126 68.5869 134.774 68.5869C134.422 68.5869 134.136 68.8702 134.136 69.2198C134.136 69.5693 134.422 69.8526 134.774 69.8526Z" fill="#98C8DB"/>
<path d="M138.794 69.8526C139.146 69.8526 139.432 69.5693 139.432 69.2198C139.432 68.8702 139.146 68.5869 138.794 68.5869C138.442 68.5869 138.156 68.8702 138.156 69.2198C138.156 69.5693 138.442 69.8526 138.794 69.8526Z" fill="#98C8DB"/>
<path d="M142.813 69.8526C143.165 69.8526 143.451 69.5693 143.451 69.2198C143.451 68.8702 143.165 68.5869 142.813 68.5869C142.46 68.5869 142.175 68.8702 142.175 69.2198C142.175 69.5693 142.46 69.8526 142.813 69.8526Z" fill="#98C8DB"/>
<path d="M114.677 69.8526C115.029 69.8526 115.315 69.5693 115.315 69.2198C115.315 68.8702 115.029 68.5869 114.677 68.5869C114.324 68.5869 114.039 68.8702 114.039 69.2198C114.039 69.5693 114.324 69.8526 114.677 69.8526Z" fill="#98C8DB"/>
<path d="M120.705 71.9194C121.058 71.9194 121.343 71.636 121.343 71.2865C121.343 70.937 121.058 70.6537 120.705 70.6537C120.353 70.6537 120.068 70.937 120.068 71.2865C120.068 71.636 120.353 71.9194 120.705 71.9194Z" fill="#98C8DB"/>
<path d="M124.725 71.9194C125.078 71.9194 125.363 71.636 125.363 71.2865C125.363 70.937 125.078 70.6537 124.725 70.6537C124.373 70.6537 124.087 70.937 124.087 71.2865C124.087 71.636 124.373 71.9194 124.725 71.9194Z" fill="#98C8DB"/>
<path d="M128.745 71.9194C129.098 71.9194 129.383 71.636 129.383 71.2865C129.383 70.937 129.098 70.6537 128.745 70.6537C128.393 70.6537 128.108 70.937 128.108 71.2865C128.108 71.636 128.393 71.9194 128.745 71.9194Z" fill="#98C8DB"/>
<path d="M132.764 71.9194C133.116 71.9194 133.402 71.636 133.402 71.2865C133.402 70.937 133.116 70.6537 132.764 70.6537C132.412 70.6537 132.126 70.937 132.126 71.2865C132.126 71.636 132.412 71.9194 132.764 71.9194Z" fill="#98C8DB"/>
<path d="M136.784 71.9194C137.136 71.9194 137.421 71.636 137.421 71.2865C137.421 70.937 137.136 70.6537 136.784 70.6537C136.431 70.6537 136.146 70.937 136.146 71.2865C136.146 71.636 136.431 71.9194 136.784 71.9194Z" fill="#98C8DB"/>
<path d="M140.803 71.9194C141.155 71.9194 141.441 71.636 141.441 71.2865C141.441 70.937 141.155 70.6537 140.803 70.6537C140.45 70.6537 140.165 70.937 140.165 71.2865C140.165 71.636 140.45 71.9194 140.803 71.9194Z" fill="#98C8DB"/>
<path d="M116.687 71.9194C117.039 71.9194 117.325 71.636 117.325 71.2865C117.325 70.937 117.039 70.6537 116.687 70.6537C116.335 70.6537 116.049 70.937 116.049 71.2865C116.049 71.636 116.335 71.9194 116.687 71.9194Z" fill="#98C8DB"/>
<path d="M272.808 99.0858C273.16 99.0858 273.446 98.8024 273.446 98.4529C273.446 98.1034 273.16 97.8201 272.808 97.8201C272.456 97.8201 272.17 98.1034 272.17 98.4529C272.17 98.8024 272.456 99.0858 272.808 99.0858Z" fill="#98C8DB"/>
<path d="M276.828 99.0858C277.18 99.0858 277.466 98.8024 277.466 98.4529C277.466 98.1034 277.18 97.8201 276.828 97.8201C276.475 97.8201 276.189 98.1034 276.189 98.4529C276.189 98.8024 276.475 99.0858 276.828 99.0858Z" fill="#98C8DB"/>
<path d="M280.847 99.0858C281.199 99.0858 281.485 98.8024 281.485 98.4529C281.485 98.1034 281.199 97.8201 280.847 97.8201C280.494 97.8201 280.209 98.1034 280.209 98.4529C280.209 98.8024 280.494 99.0858 280.847 99.0858Z" fill="#98C8DB"/>
<path d="M284.867 99.0858C285.219 99.0858 285.504 98.8024 285.504 98.4529C285.504 98.1034 285.219 97.8201 284.867 97.8201C284.514 97.8201 284.229 98.1034 284.229 98.4529C284.229 98.8024 284.514 99.0858 284.867 99.0858Z" fill="#98C8DB"/>
<path d="M288.885 99.0858C289.237 99.0858 289.523 98.8024 289.523 98.4529C289.523 98.1034 289.237 97.8201 288.885 97.8201C288.532 97.8201 288.247 98.1034 288.247 98.4529C288.247 98.8024 288.532 99.0858 288.885 99.0858Z" fill="#98C8DB"/>
<path d="M292.905 99.0858C293.257 99.0858 293.543 98.8024 293.543 98.4529C293.543 98.1034 293.257 97.8201 292.905 97.8201C292.553 97.8201 292.267 98.1034 292.267 98.4529C292.267 98.8024 292.553 99.0858 292.905 99.0858Z" fill="#98C8DB"/>
<path d="M268.788 99.0858C269.14 99.0858 269.426 98.8024 269.426 98.4529C269.426 98.1034 269.14 97.8201 268.788 97.8201C268.436 97.8201 268.15 98.1034 268.15 98.4529C268.15 98.8024 268.436 99.0858 268.788 99.0858Z" fill="#98C8DB"/>
<path d="M270.798 101.163C271.15 101.163 271.436 100.88 271.436 100.53C271.436 100.181 271.15 99.8976 270.798 99.8976C270.446 99.8976 270.16 100.181 270.16 100.53C270.16 100.88 270.446 101.163 270.798 101.163Z" fill="#98C8DB"/>
<path d="M274.818 101.163C275.171 101.163 275.456 100.88 275.456 100.53C275.456 100.181 275.171 99.8976 274.818 99.8976C274.466 99.8976 274.18 100.181 274.18 100.53C274.18 100.88 274.466 101.163 274.818 101.163Z" fill="#98C8DB"/>
<path d="M278.837 101.163C279.189 101.163 279.474 100.88 279.474 100.53C279.474 100.181 279.189 99.8976 278.837 99.8976C278.484 99.8976 278.199 100.181 278.199 100.53C278.199 100.88 278.484 101.163 278.837 101.163Z" fill="#98C8DB"/>
<path d="M282.856 101.163C283.209 101.163 283.494 100.88 283.494 100.53C283.494 100.181 283.209 99.8976 282.856 99.8976C282.504 99.8976 282.219 100.181 282.219 100.53C282.219 100.88 282.504 101.163 282.856 101.163Z" fill="#98C8DB"/>
<path d="M286.877 101.163C287.229 101.163 287.514 100.88 287.514 100.53C287.514 100.181 287.229 99.8976 286.877 99.8976C286.524 99.8976 286.239 100.181 286.239 100.53C286.239 100.88 286.524 101.163 286.877 101.163Z" fill="#98C8DB"/>
<path d="M290.895 101.163C291.248 101.163 291.533 100.88 291.533 100.53C291.533 100.181 291.248 99.8976 290.895 99.8976C290.543 99.8976 290.257 100.181 290.257 100.53C290.257 100.88 290.543 101.163 290.895 101.163Z" fill="#98C8DB"/>
<path d="M294.915 101.163C295.267 101.163 295.553 100.88 295.553 100.53C295.553 100.181 295.267 99.8976 294.915 99.8976C294.563 99.8976 294.277 100.181 294.277 100.53C294.277 100.88 294.563 101.163 294.915 101.163Z" fill="#98C8DB"/>
<path d="M266.779 101.163C267.132 101.163 267.417 100.88 267.417 100.53C267.417 100.181 267.132 99.8976 266.779 99.8976C266.427 99.8976 266.141 100.181 266.141 100.53C266.141 100.88 266.427 101.163 266.779 101.163Z" fill="#98C8DB"/>
<path d="M272.808 103.241C273.16 103.241 273.446 102.958 273.446 102.608C273.446 102.258 273.16 101.975 272.808 101.975C272.456 101.975 272.17 102.258 272.17 102.608C272.17 102.958 272.456 103.241 272.808 103.241Z" fill="#98C8DB"/>
<path d="M276.828 103.241C277.18 103.241 277.466 102.958 277.466 102.608C277.466 102.258 277.18 101.975 276.828 101.975C276.475 101.975 276.189 102.258 276.189 102.608C276.189 102.958 276.475 103.241 276.828 103.241Z" fill="#98C8DB"/>
<path d="M280.847 103.241C281.199 103.241 281.485 102.958 281.485 102.608C281.485 102.258 281.199 101.975 280.847 101.975C280.494 101.975 280.209 102.258 280.209 102.608C280.209 102.958 280.494 103.241 280.847 103.241Z" fill="#98C8DB"/>
<path d="M284.867 103.241C285.219 103.241 285.504 102.958 285.504 102.608C285.504 102.258 285.219 101.975 284.867 101.975C284.514 101.975 284.229 102.258 284.229 102.608C284.229 102.958 284.514 103.241 284.867 103.241Z" fill="#98C8DB"/>
<path d="M288.885 103.241C289.237 103.241 289.523 102.958 289.523 102.608C289.523 102.258 289.237 101.975 288.885 101.975C288.532 101.975 288.247 102.258 288.247 102.608C288.247 102.958 288.532 103.241 288.885 103.241Z" fill="#98C8DB"/>
<path d="M292.905 103.241C293.257 103.241 293.543 102.958 293.543 102.608C293.543 102.258 293.257 101.975 292.905 101.975C292.553 101.975 292.267 102.258 292.267 102.608C292.267 102.958 292.553 103.241 292.905 103.241Z" fill="#98C8DB"/>
<path d="M296.925 103.241C297.278 103.241 297.563 102.958 297.563 102.608C297.563 102.258 297.278 101.975 296.925 101.975C296.573 101.975 296.287 102.258 296.287 102.608C296.287 102.958 296.573 103.241 296.925 103.241Z" fill="#98C8DB"/>
<path d="M296.925 99.0858C297.278 99.0858 297.563 98.8024 297.563 98.4529C297.563 98.1034 297.278 97.8201 296.925 97.8201C296.573 97.8201 296.287 98.1034 296.287 98.4529C296.287 98.8024 296.573 99.0858 296.925 99.0858Z" fill="#98C8DB"/>
<path d="M268.788 103.241C269.14 103.241 269.426 102.958 269.426 102.608C269.426 102.258 269.14 101.975 268.788 101.975C268.436 101.975 268.15 102.258 268.15 102.608C268.15 102.958 268.436 103.241 268.788 103.241Z" fill="#98C8DB"/>
<path d="M270.798 105.319C271.15 105.319 271.436 105.035 271.436 104.686C271.436 104.336 271.15 104.053 270.798 104.053C270.446 104.053 270.16 104.336 270.16 104.686C270.16 105.035 270.446 105.319 270.798 105.319Z" fill="#98C8DB"/>
<path d="M274.818 105.319C275.171 105.319 275.456 105.035 275.456 104.686C275.456 104.336 275.171 104.053 274.818 104.053C274.466 104.053 274.18 104.336 274.18 104.686C274.18 105.035 274.466 105.319 274.818 105.319Z" fill="#98C8DB"/>
<path d="M278.837 105.319C279.189 105.319 279.474 105.035 279.474 104.686C279.474 104.336 279.189 104.053 278.837 104.053C278.484 104.053 278.199 104.336 278.199 104.686C278.199 105.035 278.484 105.319 278.837 105.319Z" fill="#98C8DB"/>
<path d="M282.856 105.319C283.209 105.319 283.494 105.035 283.494 104.686C283.494 104.336 283.209 104.053 282.856 104.053C282.504 104.053 282.219 104.336 282.219 104.686C282.219 105.035 282.504 105.319 282.856 105.319Z" fill="#98C8DB"/>
<path d="M286.877 105.319C287.229 105.319 287.514 105.035 287.514 104.686C287.514 104.336 287.229 104.053 286.877 104.053C286.524 104.053 286.239 104.336 286.239 104.686C286.239 105.035 286.524 105.319 286.877 105.319Z" fill="#98C8DB"/>
<path d="M290.895 105.319C291.248 105.319 291.533 105.035 291.533 104.686C291.533 104.336 291.248 104.053 290.895 104.053C290.543 104.053 290.257 104.336 290.257 104.686C290.257 105.035 290.543 105.319 290.895 105.319Z" fill="#98C8DB"/>
<path d="M294.915 105.319C295.267 105.319 295.553 105.035 295.553 104.686C295.553 104.336 295.267 104.053 294.915 104.053C294.563 104.053 294.277 104.336 294.277 104.686C294.277 105.035 294.563 105.319 294.915 105.319Z" fill="#98C8DB"/>
<path d="M266.779 105.319C267.132 105.319 267.417 105.035 267.417 104.686C267.417 104.336 267.132 104.053 266.779 104.053C266.427 104.053 266.141 104.336 266.141 104.686C266.141 105.035 266.427 105.319 266.779 105.319Z" fill="#98C8DB"/>
<path d="M299.021 101.163C299.373 101.163 299.659 100.88 299.659 100.53C299.659 100.181 299.373 99.8976 299.021 99.8976C298.668 99.8976 298.383 100.181 298.383 100.53C298.383 100.88 298.668 101.163 299.021 101.163Z" fill="#98C8DB"/>
<path d="M299.021 105.319C299.373 105.319 299.659 105.035 299.659 104.686C299.659 104.336 299.373 104.053 299.021 104.053C298.668 104.053 298.383 104.336 298.383 104.686C298.383 105.035 298.668 105.319 299.021 105.319Z" fill="#98C8DB"/>
<path d="M270.798 92.7452C271.15 92.7452 271.436 92.4618 271.436 92.1123C271.436 91.7628 271.15 91.4795 270.798 91.4795C270.446 91.4795 270.16 91.7628 270.16 92.1123C270.16 92.4618 270.446 92.7452 270.798 92.7452Z" fill="#98C8DB"/>
<path d="M274.818 92.7452C275.171 92.7452 275.456 92.4618 275.456 92.1123C275.456 91.7628 275.171 91.4795 274.818 91.4795C274.466 91.4795 274.18 91.7628 274.18 92.1123C274.18 92.4618 274.466 92.7452 274.818 92.7452Z" fill="#98C8DB"/>
<path d="M278.837 92.7452C279.189 92.7452 279.474 92.4618 279.474 92.1123C279.474 91.7628 279.189 91.4795 278.837 91.4795C278.484 91.4795 278.199 91.7628 278.199 92.1123C278.199 92.4618 278.484 92.7452 278.837 92.7452Z" fill="#98C8DB"/>
<path d="M282.856 92.7452C283.209 92.7452 283.494 92.4618 283.494 92.1123C283.494 91.7628 283.209 91.4795 282.856 91.4795C282.504 91.4795 282.219 91.7628 282.219 92.1123C282.219 92.4618 282.504 92.7452 282.856 92.7452Z" fill="#98C8DB"/>
<path d="M286.877 92.7452C287.229 92.7452 287.514 92.4618 287.514 92.1123C287.514 91.7628 287.229 91.4795 286.877 91.4795C286.524 91.4795 286.239 91.7628 286.239 92.1123C286.239 92.4618 286.524 92.7452 286.877 92.7452Z" fill="#98C8DB"/>
<path d="M290.895 92.7452C291.248 92.7452 291.533 92.4618 291.533 92.1123C291.533 91.7628 291.248 91.4795 290.895 91.4795C290.543 91.4795 290.257 91.7628 290.257 92.1123C290.257 92.4618 290.543 92.7452 290.895 92.7452Z" fill="#98C8DB"/>
<path d="M294.915 92.7452C295.267 92.7452 295.553 92.4618 295.553 92.1123C295.553 91.7628 295.267 91.4795 294.915 91.4795C294.563 91.4795 294.277 91.7628 294.277 92.1123C294.277 92.4618 294.563 92.7452 294.915 92.7452Z" fill="#98C8DB"/>
<path d="M266.779 92.7452C267.132 92.7452 267.417 92.4618 267.417 92.1123C267.417 91.7628 267.132 91.4795 266.779 91.4795C266.427 91.4795 266.141 91.7628 266.141 92.1123C266.141 92.4618 266.427 92.7452 266.779 92.7452Z" fill="#98C8DB"/>
<path d="M272.808 94.8228C273.16 94.8228 273.446 94.5395 273.446 94.19C273.446 93.8405 273.16 93.5571 272.808 93.5571C272.456 93.5571 272.17 93.8405 272.17 94.19C272.17 94.5395 272.456 94.8228 272.808 94.8228Z" fill="#98C8DB"/>
<path d="M276.828 94.8228C277.18 94.8228 277.466 94.5395 277.466 94.19C277.466 93.8405 277.18 93.5571 276.828 93.5571C276.475 93.5571 276.189 93.8405 276.189 94.19C276.189 94.5395 276.475 94.8228 276.828 94.8228Z" fill="#98C8DB"/>
<path d="M280.847 94.8228C281.199 94.8228 281.485 94.5395 281.485 94.19C281.485 93.8405 281.199 93.5571 280.847 93.5571C280.494 93.5571 280.209 93.8405 280.209 94.19C280.209 94.5395 280.494 94.8228 280.847 94.8228Z" fill="#98C8DB"/>
<path d="M284.867 94.8228C285.219 94.8228 285.504 94.5395 285.504 94.19C285.504 93.8405 285.219 93.5571 284.867 93.5571C284.514 93.5571 284.229 93.8405 284.229 94.19C284.229 94.5395 284.514 94.8228 284.867 94.8228Z" fill="#98C8DB"/>
<path d="M288.885 94.8228C289.237 94.8228 289.523 94.5395 289.523 94.19C289.523 93.8405 289.237 93.5571 288.885 93.5571C288.532 93.5571 288.247 93.8405 288.247 94.19C288.247 94.5395 288.532 94.8228 288.885 94.8228Z" fill="#98C8DB"/>
<path d="M292.905 94.8228C293.257 94.8228 293.543 94.5395 293.543 94.19C293.543 93.8405 293.257 93.5571 292.905 93.5571C292.553 93.5571 292.267 93.8405 292.267 94.19C292.267 94.5395 292.553 94.8228 292.905 94.8228Z" fill="#98C8DB"/>
<path d="M296.925 94.8228C297.278 94.8228 297.563 94.5395 297.563 94.19C297.563 93.8405 297.278 93.5571 296.925 93.5571C296.573 93.5571 296.287 93.8405 296.287 94.19C296.287 94.5395 296.573 94.8228 296.925 94.8228Z" fill="#98C8DB"/>
<path d="M268.788 94.8228C269.14 94.8228 269.426 94.5395 269.426 94.19C269.426 93.8405 269.14 93.5571 268.788 93.5571C268.436 93.5571 268.15 93.8405 268.15 94.19C268.15 94.5395 268.436 94.8228 268.788 94.8228Z" fill="#98C8DB"/>
<path d="M270.798 96.9004C271.15 96.9004 271.436 96.6171 271.436 96.2676C271.436 95.918 271.15 95.6347 270.798 95.6347C270.446 95.6347 270.16 95.918 270.16 96.2676C270.16 96.6171 270.446 96.9004 270.798 96.9004Z" fill="#98C8DB"/>
<path d="M274.818 96.9004C275.171 96.9004 275.456 96.6171 275.456 96.2676C275.456 95.918 275.171 95.6347 274.818 95.6347C274.466 95.6347 274.18 95.918 274.18 96.2676C274.18 96.6171 274.466 96.9004 274.818 96.9004Z" fill="#98C8DB"/>
<path d="M278.837 96.9004C279.189 96.9004 279.474 96.6171 279.474 96.2676C279.474 95.918 279.189 95.6347 278.837 95.6347C278.484 95.6347 278.199 95.918 278.199 96.2676C278.199 96.6171 278.484 96.9004 278.837 96.9004Z" fill="#98C8DB"/>
<path d="M282.856 96.9004C283.209 96.9004 283.494 96.6171 283.494 96.2676C283.494 95.918 283.209 95.6347 282.856 95.6347C282.504 95.6347 282.219 95.918 282.219 96.2676C282.219 96.6171 282.504 96.9004 282.856 96.9004Z" fill="#98C8DB"/>
<path d="M286.877 96.9004C287.229 96.9004 287.514 96.6171 287.514 96.2676C287.514 95.918 287.229 95.6347 286.877 95.6347C286.524 95.6347 286.239 95.918 286.239 96.2676C286.239 96.6171 286.524 96.9004 286.877 96.9004Z" fill="#98C8DB"/>
<path d="M290.895 96.9004C291.248 96.9004 291.533 96.6171 291.533 96.2676C291.533 95.918 291.248 95.6347 290.895 95.6347C290.543 95.6347 290.257 95.918 290.257 96.2676C290.257 96.6171 290.543 96.9004 290.895 96.9004Z" fill="#98C8DB"/>
<path d="M294.915 96.9004C295.267 96.9004 295.553 96.6171 295.553 96.2676C295.553 95.918 295.267 95.6347 294.915 95.6347C294.563 95.6347 294.277 95.918 294.277 96.2676C294.277 96.6171 294.563 96.9004 294.915 96.9004Z" fill="#98C8DB"/>
<path d="M266.779 96.9004C267.132 96.9004 267.417 96.6171 267.417 96.2676C267.417 95.918 267.132 95.6347 266.779 95.6347C266.427 95.6347 266.141 95.918 266.141 96.2676C266.141 96.6171 266.427 96.9004 266.779 96.9004Z" fill="#98C8DB"/>
<path d="M299.021 92.7452C299.373 92.7452 299.659 92.4618 299.659 92.1123C299.659 91.7628 299.373 91.4795 299.021 91.4795C298.668 91.4795 298.383 91.7628 298.383 92.1123C298.383 92.4618 298.668 92.7452 299.021 92.7452Z" fill="#98C8DB"/>
<path d="M299.021 96.9004C299.373 96.9004 299.659 96.6171 299.659 96.2676C299.659 95.918 299.373 95.6347 299.021 95.6347C298.668 95.6347 298.383 95.918 298.383 96.2676C298.383 96.6171 298.668 96.9004 299.021 96.9004Z" fill="#98C8DB"/>
<path d="M305.104 99.0858C305.456 99.0858 305.742 98.8024 305.742 98.4529C305.742 98.1034 305.456 97.8201 305.104 97.8201C304.752 97.8201 304.466 98.1034 304.466 98.4529C304.466 98.8024 304.752 99.0858 305.104 99.0858Z" fill="#98C8DB"/>
<path d="M309.124 99.0858C309.476 99.0858 309.762 98.8024 309.762 98.4529C309.762 98.1034 309.476 97.8201 309.124 97.8201C308.772 97.8201 308.486 98.1034 308.486 98.4529C308.486 98.8024 308.772 99.0858 309.124 99.0858Z" fill="#98C8DB"/>
<path d="M313.143 99.0858C313.495 99.0858 313.781 98.8024 313.781 98.4529C313.781 98.1034 313.495 97.8201 313.143 97.8201C312.79 97.8201 312.505 98.1034 312.505 98.4529C312.505 98.8024 312.79 99.0858 313.143 99.0858Z" fill="#98C8DB"/>
<path d="M317.163 99.0858C317.515 99.0858 317.8 98.8024 317.8 98.4529C317.8 98.1034 317.515 97.8201 317.163 97.8201C316.81 97.8201 316.525 98.1034 316.525 98.4529C316.525 98.8024 316.81 99.0858 317.163 99.0858Z" fill="#98C8DB"/>
<path d="M321.183 99.0858C321.535 99.0858 321.821 98.8024 321.821 98.4529C321.821 98.1034 321.535 97.8201 321.183 97.8201C320.831 97.8201 320.545 98.1034 320.545 98.4529C320.545 98.8024 320.831 99.0858 321.183 99.0858Z" fill="#98C8DB"/>
<path d="M301.085 99.0858C301.438 99.0858 301.723 98.8024 301.723 98.4529C301.723 98.1034 301.438 97.8201 301.085 97.8201C300.733 97.8201 300.448 98.1034 300.448 98.4529C300.448 98.8024 300.733 99.0858 301.085 99.0858Z" fill="#98C8DB"/>
<path d="M303.094 101.163C303.446 101.163 303.732 100.88 303.732 100.53C303.732 100.181 303.446 99.8976 303.094 99.8976C302.742 99.8976 302.456 100.181 302.456 100.53C302.456 100.88 302.742 101.163 303.094 101.163Z" fill="#98C8DB"/>
<path d="M307.114 101.163C307.466 101.163 307.752 100.88 307.752 100.53C307.752 100.181 307.466 99.8976 307.114 99.8976C306.762 99.8976 306.476 100.181 306.476 100.53C306.476 100.88 306.762 101.163 307.114 101.163Z" fill="#98C8DB"/>
<path d="M311.134 101.163C311.486 101.163 311.772 100.88 311.772 100.53C311.772 100.181 311.486 99.8976 311.134 99.8976C310.782 99.8976 310.496 100.181 310.496 100.53C310.496 100.88 310.782 101.163 311.134 101.163Z" fill="#98C8DB"/>
<path d="M315.152 101.163C315.505 101.163 315.79 100.88 315.79 100.53C315.79 100.181 315.505 99.8976 315.152 99.8976C314.8 99.8976 314.515 100.181 314.515 100.53C314.515 100.88 314.8 101.163 315.152 101.163Z" fill="#98C8DB"/>
<path d="M319.173 101.163C319.525 101.163 319.811 100.88 319.811 100.53C319.811 100.181 319.525 99.8976 319.173 99.8976C318.82 99.8976 318.535 100.181 318.535 100.53C318.535 100.88 318.82 101.163 319.173 101.163Z" fill="#98C8DB"/>
<path d="M323.191 101.163C323.543 101.163 323.828 100.88 323.828 100.53C323.828 100.181 323.543 99.8976 323.191 99.8976C322.839 99.8976 322.553 100.181 322.553 100.53C322.553 100.88 322.839 101.163 323.191 101.163Z" fill="#98C8DB"/>
<path d="M305.104 103.241C305.456 103.241 305.742 102.958 305.742 102.608C305.742 102.258 305.456 101.975 305.104 101.975C304.752 101.975 304.466 102.258 304.466 102.608C304.466 102.958 304.752 103.241 305.104 103.241Z" fill="#98C8DB"/>
<path d="M309.124 103.241C309.476 103.241 309.762 102.958 309.762 102.608C309.762 102.258 309.476 101.975 309.124 101.975C308.772 101.975 308.486 102.258 308.486 102.608C308.486 102.958 308.772 103.241 309.124 103.241Z" fill="#98C8DB"/>
<path d="M313.143 103.241C313.495 103.241 313.781 102.958 313.781 102.608C313.781 102.258 313.495 101.975 313.143 101.975C312.79 101.975 312.505 102.258 312.505 102.608C312.505 102.958 312.79 103.241 313.143 103.241Z" fill="#98C8DB"/>
<path d="M317.163 103.241C317.515 103.241 317.8 102.958 317.8 102.608C317.8 102.258 317.515 101.975 317.163 101.975C316.81 101.975 316.525 102.258 316.525 102.608C316.525 102.958 316.81 103.241 317.163 103.241Z" fill="#98C8DB"/>
<path d="M321.183 103.241C321.535 103.241 321.821 102.958 321.821 102.608C321.821 102.258 321.535 101.975 321.183 101.975C320.831 101.975 320.545 102.258 320.545 102.608C320.545 102.958 320.831 103.241 321.183 103.241Z" fill="#98C8DB"/>
<path d="M301.085 103.241C301.438 103.241 301.723 102.958 301.723 102.608C301.723 102.258 301.438 101.975 301.085 101.975C300.733 101.975 300.448 102.258 300.448 102.608C300.448 102.958 300.733 103.241 301.085 103.241Z" fill="#98C8DB"/>
<path d="M303.094 105.319C303.446 105.319 303.732 105.035 303.732 104.686C303.732 104.336 303.446 104.053 303.094 104.053C302.742 104.053 302.456 104.336 302.456 104.686C302.456 105.035 302.742 105.319 303.094 105.319Z" fill="#98C8DB"/>
<path d="M307.114 105.319C307.466 105.319 307.752 105.035 307.752 104.686C307.752 104.336 307.466 104.053 307.114 104.053C306.762 104.053 306.476 104.336 306.476 104.686C306.476 105.035 306.762 105.319 307.114 105.319Z" fill="#98C8DB"/>
<path d="M311.134 105.319C311.486 105.319 311.772 105.035 311.772 104.686C311.772 104.336 311.486 104.053 311.134 104.053C310.782 104.053 310.496 104.336 310.496 104.686C310.496 105.035 310.782 105.319 311.134 105.319Z" fill="#98C8DB"/>
<path d="M315.152 105.319C315.505 105.319 315.79 105.035 315.79 104.686C315.79 104.336 315.505 104.053 315.152 104.053C314.8 104.053 314.515 104.336 314.515 104.686C314.515 105.035 314.8 105.319 315.152 105.319Z" fill="#98C8DB"/>
<path d="M319.173 105.319C319.525 105.319 319.811 105.035 319.811 104.686C319.811 104.336 319.525 104.053 319.173 104.053C318.82 104.053 318.535 104.336 318.535 104.686C318.535 105.035 318.82 105.319 319.173 105.319Z" fill="#98C8DB"/>
<path d="M323.191 105.319C323.543 105.319 323.828 105.035 323.828 104.686C323.828 104.336 323.543 104.053 323.191 104.053C322.839 104.053 322.553 104.336 322.553 104.686C322.553 105.035 322.839 105.319 323.191 105.319Z" fill="#98C8DB"/>
<path d="M303.094 92.7452C303.446 92.7452 303.732 92.4618 303.732 92.1123C303.732 91.7628 303.446 91.4795 303.094 91.4795C302.742 91.4795 302.456 91.7628 302.456 92.1123C302.456 92.4618 302.742 92.7452 303.094 92.7452Z" fill="#98C8DB"/>
<path d="M307.114 92.7452C307.466 92.7452 307.752 92.4618 307.752 92.1123C307.752 91.7628 307.466 91.4795 307.114 91.4795C306.762 91.4795 306.476 91.7628 306.476 92.1123C306.476 92.4618 306.762 92.7452 307.114 92.7452Z" fill="#98C8DB"/>
<path d="M311.134 92.7452C311.486 92.7452 311.772 92.4618 311.772 92.1123C311.772 91.7628 311.486 91.4795 311.134 91.4795C310.782 91.4795 310.496 91.7628 310.496 92.1123C310.496 92.4618 310.782 92.7452 311.134 92.7452Z" fill="#98C8DB"/>
<path d="M315.152 92.7452C315.505 92.7452 315.79 92.4618 315.79 92.1123C315.79 91.7628 315.505 91.4795 315.152 91.4795C314.8 91.4795 314.515 91.7628 314.515 92.1123C314.515 92.4618 314.8 92.7452 315.152 92.7452Z" fill="#98C8DB"/>
<path d="M319.173 92.7452C319.525 92.7452 319.811 92.4618 319.811 92.1123C319.811 91.7628 319.525 91.4795 319.173 91.4795C318.82 91.4795 318.535 91.7628 318.535 92.1123C318.535 92.4618 318.82 92.7452 319.173 92.7452Z" fill="#98C8DB"/>
<path d="M323.191 92.7452C323.543 92.7452 323.828 92.4618 323.828 92.1123C323.828 91.7628 323.543 91.4795 323.191 91.4795C322.839 91.4795 322.553 91.7628 322.553 92.1123C322.553 92.4618 322.839 92.7452 323.191 92.7452Z" fill="#98C8DB"/>
<path d="M305.104 94.8228C305.456 94.8228 305.742 94.5395 305.742 94.19C305.742 93.8405 305.456 93.5571 305.104 93.5571C304.752 93.5571 304.466 93.8405 304.466 94.19C304.466 94.5395 304.752 94.8228 305.104 94.8228Z" fill="#98C8DB"/>
<path d="M309.124 94.8228C309.476 94.8228 309.762 94.5395 309.762 94.19C309.762 93.8405 309.476 93.5571 309.124 93.5571C308.772 93.5571 308.486 93.8405 308.486 94.19C308.486 94.5395 308.772 94.8228 309.124 94.8228Z" fill="#98C8DB"/>
<path d="M313.143 94.8228C313.495 94.8228 313.781 94.5395 313.781 94.19C313.781 93.8405 313.495 93.5571 313.143 93.5571C312.79 93.5571 312.505 93.8405 312.505 94.19C312.505 94.5395 312.79 94.8228 313.143 94.8228Z" fill="#98C8DB"/>
<path d="M317.163 94.8228C317.515 94.8228 317.8 94.5395 317.8 94.19C317.8 93.8405 317.515 93.5571 317.163 93.5571C316.81 93.5571 316.525 93.8405 316.525 94.19C316.525 94.5395 316.81 94.8228 317.163 94.8228Z" fill="#98C8DB"/>
<path d="M321.183 94.8228C321.535 94.8228 321.821 94.5395 321.821 94.19C321.821 93.8405 321.535 93.5571 321.183 93.5571C320.831 93.5571 320.545 93.8405 320.545 94.19C320.545 94.5395 320.831 94.8228 321.183 94.8228Z" fill="#98C8DB"/>
<path d="M301.085 94.8228C301.438 94.8228 301.723 94.5395 301.723 94.19C301.723 93.8405 301.438 93.5571 301.085 93.5571C300.733 93.5571 300.448 93.8405 300.448 94.19C300.448 94.5395 300.733 94.8228 301.085 94.8228Z" fill="#98C8DB"/>
<path d="M303.094 96.9004C303.446 96.9004 303.732 96.6171 303.732 96.2676C303.732 95.918 303.446 95.6347 303.094 95.6347C302.742 95.6347 302.456 95.918 302.456 96.2676C302.456 96.6171 302.742 96.9004 303.094 96.9004Z" fill="#98C8DB"/>
<path d="M307.114 96.9004C307.466 96.9004 307.752 96.6171 307.752 96.2676C307.752 95.918 307.466 95.6347 307.114 95.6347C306.762 95.6347 306.476 95.918 306.476 96.2676C306.476 96.6171 306.762 96.9004 307.114 96.9004Z" fill="#98C8DB"/>
<path d="M311.134 96.9004C311.486 96.9004 311.772 96.6171 311.772 96.2676C311.772 95.918 311.486 95.6347 311.134 95.6347C310.782 95.6347 310.496 95.918 310.496 96.2676C310.496 96.6171 310.782 96.9004 311.134 96.9004Z" fill="#98C8DB"/>
<path d="M315.152 96.9004C315.505 96.9004 315.79 96.6171 315.79 96.2676C315.79 95.918 315.505 95.6347 315.152 95.6347C314.8 95.6347 314.515 95.918 314.515 96.2676C314.515 96.6171 314.8 96.9004 315.152 96.9004Z" fill="#98C8DB"/>
<path d="M319.173 96.9004C319.525 96.9004 319.811 96.6171 319.811 96.2676C319.811 95.918 319.525 95.6347 319.173 95.6347C318.82 95.6347 318.535 95.918 318.535 96.2676C318.535 96.6171 318.82 96.9004 319.173 96.9004Z" fill="#98C8DB"/>
<path d="M323.191 96.9004C323.543 96.9004 323.828 96.6171 323.828 96.2676C323.828 95.918 323.543 95.6347 323.191 95.6347C322.839 95.6347 322.553 95.918 322.553 96.2676C322.553 96.6171 322.839 96.9004 323.191 96.9004Z" fill="#98C8DB"/>
<path d="M298.32 128.804C298.32 131.776 303.746 141.509 303.746 141.509C303.746 141.509 309.171 131.772 309.171 128.804C309.171 127.376 308.599 126.006 307.581 124.997C306.563 123.987 305.183 123.42 303.743 123.42C302.304 123.42 300.923 123.987 299.905 124.997C298.887 126.006 298.316 127.376 298.316 128.804H298.32ZM302.076 128.885C302.075 128.557 302.173 128.237 302.356 127.964C302.539 127.692 302.8 127.479 303.105 127.353C303.41 127.227 303.746 127.194 304.07 127.258C304.394 127.321 304.692 127.479 304.926 127.711C305.159 127.942 305.319 128.237 305.383 128.559C305.448 128.88 305.415 129.213 305.289 129.516C305.162 129.819 304.948 130.078 304.674 130.26C304.399 130.442 304.076 130.539 303.746 130.539C303.303 130.539 302.879 130.365 302.566 130.055C302.253 129.745 302.077 129.324 302.076 128.885Z" fill="#EC744A"/>
<path d="M309.096 165.574H326.545V156.043H309.096V165.574Z" fill="#BDCAC2"/>
<path d="M299.641 147.288H317.091L326.545 156.042H309.096L299.641 147.288Z" fill="#638074"/>
<path d="M290.176 156.042L299.63 147.288L309.096 156.042V165.573L318.551 174.327H290.176V156.042Z" fill="white"/>
<path d="M309.096 165.573H326.545L336 174.327H318.551L309.096 165.573Z" fill="#638074"/>
<path d="M299.845 156.69H301.423V155.125H299.845V156.69Z" fill="#EC744A"/>
<path d="M297.514 156.69H299.093V155.125H297.514V156.69Z" fill="#EC744A"/>
<path d="M299.845 158.918H301.423V157.352H299.845V158.918Z" fill="#EC744A"/>
<path d="M297.514 158.918H299.093V157.352H297.514V158.918Z" fill="#EC744A"/>
<path d="M299.845 165.473H301.423V163.907H299.845V165.473Z" fill="#BDCAC2"/>
<path d="M297.514 165.473H299.093V163.907H297.514V165.473Z" fill="#BDCAC2"/>
<path d="M299.845 167.699H301.423V166.133H299.845V167.699Z" fill="#BDCAC2"/>
<path d="M297.514 167.699H299.093V166.133H297.514V167.699Z" fill="#BDCAC2"/>
<path d="M151.719 20.9372L138.332 25.2521V34.763H124.288V25.2521L137.674 20.9372H151.719Z" fill="#2A6049"/>
<path d="M138.332 34.7643V25.2522L151.603 20.9372L164.989 25.2522V34.7643H138.332Z" fill="white"/>
<path d="M142.585 26.4828H160.835C160.891 26.4828 160.946 26.4937 160.998 26.5148C161.049 26.536 161.096 26.567 161.135 26.6061C161.175 26.6452 161.206 26.6916 161.227 26.7427C161.249 26.7938 161.26 26.8486 161.26 26.9039V34.769H142.16V26.9039C142.16 26.8486 142.171 26.7938 142.192 26.7427C142.214 26.6916 142.245 26.6452 142.284 26.6061C142.324 26.567 142.371 26.536 142.422 26.5148C142.474 26.4937 142.529 26.4828 142.585 26.4828Z" fill="#2A6049"/>
<path d="M142.16 28.0207H161.261" stroke="white" stroke-width="0.3" stroke-miterlimit="10"/>
<path d="M142.16 29.7982H161.261" stroke="white" stroke-width="0.3" stroke-miterlimit="10"/>
<path d="M142.16 31.577H161.261" stroke="white" stroke-width="0.3" stroke-miterlimit="10"/>
<path d="M142.16 33.3557H161.261" stroke="white" stroke-width="0.3" stroke-miterlimit="10"/>
<path d="M151.479 2.34936e-06C150.148 0.00160538 148.871 0.527512 147.93 1.46223C146.989 2.39695 146.46 3.66407 146.459 4.98532C146.459 7.73813 151.485 16.7577 151.485 16.7577C151.485 16.7577 156.51 7.73813 156.51 4.98532C156.51 4.33017 156.38 3.68148 156.127 3.07631C155.874 2.47114 155.503 1.92136 155.036 1.45838C154.569 0.995405 154.014 0.628309 153.404 0.378073C152.794 0.127837 152.14 -0.000633579 151.479 2.34936e-06ZM151.479 6.59345C151.173 6.59369 150.874 6.50387 150.62 6.33537C150.365 6.16687 150.167 5.92726 150.05 5.64685C149.932 5.36644 149.902 5.05784 149.961 4.7601C150.021 4.46236 150.168 4.18886 150.385 3.97421C150.601 3.75956 150.877 3.6134 151.177 3.55424C151.477 3.49507 151.788 3.52556 152.07 3.64184C152.353 3.75812 152.595 3.95496 152.764 4.20747C152.934 4.45997 153.025 4.75678 153.025 5.06034C153.025 5.26172 152.985 5.46115 152.907 5.64722C152.83 5.8333 152.716 6.00237 152.572 6.14476C152.429 6.28716 152.258 6.40008 152.071 6.47707C151.883 6.55406 151.682 6.59361 151.479 6.59345Z" fill="#EC744A"/>
<path d="M116.071 29.4775H112.234V34.763H116.071V29.4775Z" fill="#A74602"/>
<path d="M124.023 29.4775H116.071V34.763H124.023V29.4775Z" fill="#EC744A"/>
<path d="M126.358 29.4775H124.023V34.763H126.358V29.4775Z" fill="#A74602"/>
<path d="M134.256 29.4775H126.359V34.763H134.256V29.4775Z" fill="#EC744A"/>
<path d="M122.753 25.3211H119.335V29.4776H122.753V25.3211Z" fill="#A74602"/>
<path d="M129.76 25.3211H122.752V29.4776H129.76V25.3211Z" fill="#EC744A"/>
<path opacity="0.5" d="M247.669 107.249C252.283 107.249 256.024 103.538 256.024 98.9599C256.024 94.3821 252.283 90.6711 247.669 90.6711C243.055 90.6711 239.314 94.3821 239.314 98.9599C239.314 103.538 243.055 107.249 247.669 107.249Z" fill="white"/>
<path d="M247.669 107.249C252.283 107.249 256.024 103.538 256.024 98.9599C256.024 94.3821 252.283 90.6711 247.669 90.6711C243.055 90.6711 239.314 94.3821 239.314 98.9599C239.314 103.538 243.055 107.249 247.669 107.249Z" stroke="#EC744A" stroke-width="0.3" stroke-miterlimit="10"/>
<path d="M150.739 36.1218V42.5991C150.739 44.6419 151.557 46.601 153.013 48.0456C154.469 49.4902 156.443 50.3019 158.502 50.3022H210.491V50.3082C210.491 51.2278 210.859 52.1097 211.514 52.76C212.169 53.4104 213.058 53.7759 213.985 53.7762V53.7762V77.0983C213.985 77.9938 214.222 78.8735 214.671 79.6501C215.12 80.4266 215.767 81.0729 216.546 81.5246L247.446 99.4198" stroke="#EC744A" stroke-width="0.3" stroke-linejoin="round"/>
<path d="M242.129 101.991H251.891L247.348 92.894V99.0434L242.129 101.991Z" fill="#EC744A"/>
<path d="M227.013 234.775H273.547L284.478 232.732H237.943L227.013 234.775Z" fill="#2A6049"/>
<path d="M152.728 234.775H199.262L210.192 232.732H163.66L152.728 234.775Z" fill="#2A6049"/>
<path d="M78.4446 234.775H124.978L135.909 232.732H89.375L78.4446 234.775Z" fill="#2A6049"/>
<path d="M4.16016 234.775H50.6931L61.6247 232.732H15.0906L4.16016 234.775Z" fill="#2A6049"/>
<path d="M247.362 232.393C254.878 232.393 260.97 226.349 260.97 218.893C260.97 211.437 254.878 205.392 247.362 205.392C239.847 205.392 233.755 211.437 233.755 218.893C233.755 226.349 239.847 232.393 247.362 232.393Z" fill="#59221D"/>
<path d="M270.739 178.107L247.904 160.996L224.331 106.113C223.001 103.017 220.783 100.377 217.953 98.5216C215.123 96.6661 211.806 95.6767 208.413 95.6765H38.2735C35.3344 95.6768 32.5157 96.8354 30.4376 98.8975C28.3594 100.959 27.1919 103.756 27.1919 106.672V212.769H274.651V185.906C274.652 184.394 274.299 182.903 273.62 181.55C272.942 180.197 271.955 179.018 270.739 178.107Z" fill="#638073" stroke="#592D29" stroke-width="0.3" stroke-miterlimit="10"/>
<path d="M274.649 185.9V212.763H206.863V185.9C206.863 184.389 206.51 182.899 205.831 181.547C205.153 180.194 204.167 179.017 202.952 178.106L180.118 160.995L156.543 106.114C155.213 103.018 152.996 100.378 150.166 98.522C147.335 96.6662 144.018 95.6767 140.626 95.6765H208.413C211.806 95.6767 215.123 96.6662 217.953 98.522C220.783 100.378 223.001 103.018 224.331 106.114L247.904 160.995L270.739 178.106C271.954 179.017 272.94 180.194 273.618 181.547C274.297 182.899 274.65 184.389 274.649 185.9Z" fill="white" stroke="#592D29" stroke-width="0.3" stroke-miterlimit="10"/>
<path d="M22.6278 212.769H278.529C279.162 212.769 279.77 213.018 280.218 213.463C280.666 213.907 280.917 214.51 280.917 215.138V218.889H20.2397V215.138C20.2397 214.827 20.3015 214.519 20.4215 214.231C20.5415 213.944 20.7174 213.683 20.9392 213.463C21.1609 213.243 21.4242 213.068 21.7139 212.949C22.0037 212.83 22.3142 212.769 22.6278 212.769Z" fill="white" stroke="#592D29" stroke-width="0.3" stroke-miterlimit="10"/>
<path d="M256.367 196.28H227.358C226.752 196.28 226.261 196.767 226.261 197.367V204.153C226.261 204.754 226.752 205.241 227.358 205.241H256.367C256.973 205.241 257.463 204.754 257.463 204.153V197.367C257.463 196.767 256.973 196.28 256.367 196.28Z" fill="#BDCAC2"/>
<path d="M257.853 195.208H228.844C228.238 195.208 227.747 195.695 227.747 196.295V203.081C227.747 203.682 228.238 204.169 228.844 204.169H257.853C258.458 204.169 258.949 203.682 258.949 203.081V196.295C258.949 195.695 258.458 195.208 257.853 195.208Z" stroke="#592D29" stroke-width="0.3" stroke-miterlimit="10"/>
<path d="M248.787 197.447C249.105 197.447 249.363 197.192 249.363 196.876C249.363 196.561 249.105 196.305 248.787 196.305C248.469 196.305 248.211 196.561 248.211 196.876C248.211 197.192 248.469 197.447 248.787 197.447Z" fill="#59221D"/>
<path d="M252.413 197.447C252.731 197.447 252.989 197.192 252.989 196.876C252.989 196.561 252.731 196.305 252.413 196.305C252.095 196.305 251.838 196.561 251.838 196.876C251.838 197.192 252.095 197.447 252.413 197.447Z" fill="#59221D"/>
<path d="M256.039 197.447C256.357 197.447 256.615 197.192 256.615 196.876C256.615 196.561 256.357 196.305 256.039 196.305C255.721 196.305 255.463 196.561 255.463 196.876C255.463 197.192 255.721 197.447 256.039 197.447Z" fill="#59221D"/>
<path d="M230.657 197.447C230.975 197.447 231.233 197.192 231.233 196.876C231.233 196.561 230.975 196.305 230.657 196.305C230.339 196.305 230.081 196.561 230.081 196.876C230.081 197.192 230.339 197.447 230.657 197.447Z" fill="#59221D"/>
<path d="M234.283 197.447C234.601 197.447 234.859 197.192 234.859 196.876C234.859 196.561 234.601 196.305 234.283 196.305C233.965 196.305 233.707 196.561 233.707 196.876C233.707 197.192 233.965 197.447 234.283 197.447Z" fill="#59221D"/>
<path d="M237.909 197.447C238.227 197.447 238.485 197.192 238.485 196.876C238.485 196.561 238.227 196.305 237.909 196.305C237.591 196.305 237.333 196.561 237.333 196.876C237.333 197.192 237.591 197.447 237.909 197.447Z" fill="#59221D"/>
<path d="M241.535 197.447C241.853 197.447 242.111 197.192 242.111 196.876C242.111 196.561 241.853 196.305 241.535 196.305C241.217 196.305 240.96 196.561 240.96 196.876C240.96 197.192 241.217 197.447 241.535 197.447Z" fill="#59221D"/>
<path d="M245.161 197.447C245.479 197.447 245.737 197.192 245.737 196.876C245.737 196.561 245.479 196.305 245.161 196.305C244.843 196.305 244.586 196.561 244.586 196.876C244.586 197.192 244.843 197.447 245.161 197.447Z" fill="#59221D"/>
<path d="M246.973 199.322C247.291 199.322 247.549 199.066 247.549 198.751C247.549 198.435 247.291 198.179 246.973 198.179C246.655 198.179 246.398 198.435 246.398 198.751C246.398 199.066 246.655 199.322 246.973 199.322Z" fill="#59221D"/>
<path d="M250.599 199.322C250.917 199.322 251.175 199.066 251.175 198.751C251.175 198.435 250.917 198.179 250.599 198.179C250.281 198.179 250.024 198.435 250.024 198.751C250.024 199.066 250.281 199.322 250.599 199.322Z" fill="#59221D"/>
<path d="M254.226 199.322C254.543 199.322 254.801 199.066 254.801 198.751C254.801 198.435 254.543 198.179 254.226 198.179C253.908 198.179 253.65 198.435 253.65 198.751C253.65 199.066 253.908 199.322 254.226 199.322Z" fill="#59221D"/>
<path d="M232.469 199.322C232.787 199.322 233.045 199.066 233.045 198.751C233.045 198.435 232.787 198.179 232.469 198.179C232.151 198.179 231.894 198.435 231.894 198.751C231.894 199.066 232.151 199.322 232.469 199.322Z" fill="#59221D"/>
<path d="M236.095 199.322C236.413 199.322 236.671 199.066 236.671 198.751C236.671 198.435 236.413 198.179 236.095 198.179C235.777 198.179 235.52 198.435 235.52 198.751C235.52 199.066 235.777 199.322 236.095 199.322Z" fill="#59221D"/>
<path d="M239.721 199.322C240.039 199.322 240.297 199.066 240.297 198.751C240.297 198.435 240.039 198.179 239.721 198.179C239.404 198.179 239.146 198.435 239.146 198.751C239.146 199.066 239.404 199.322 239.721 199.322Z" fill="#59221D"/>
<path d="M243.348 199.322C243.665 199.322 243.923 199.066 243.923 198.751C243.923 198.435 243.665 198.179 243.348 198.179C243.03 198.179 242.772 198.435 242.772 198.751C242.772 199.066 243.03 199.322 243.348 199.322Z" fill="#59221D"/>
<path d="M248.787 201.196C249.105 201.196 249.363 200.94 249.363 200.625C249.363 200.309 249.105 200.054 248.787 200.054C248.469 200.054 248.211 200.309 248.211 200.625C248.211 200.94 248.469 201.196 248.787 201.196Z" fill="#59221D"/>
<path d="M252.413 201.196C252.731 201.196 252.989 200.94 252.989 200.625C252.989 200.309 252.731 200.054 252.413 200.054C252.095 200.054 251.838 200.309 251.838 200.625C251.838 200.94 252.095 201.196 252.413 201.196Z" fill="#59221D"/>
<path d="M256.039 201.196C256.357 201.196 256.615 200.94 256.615 200.625C256.615 200.309 256.357 200.054 256.039 200.054C255.721 200.054 255.463 200.309 255.463 200.625C255.463 200.94 255.721 201.196 256.039 201.196Z" fill="#59221D"/>
<path d="M230.657 201.196C230.975 201.196 231.233 200.94 231.233 200.625C231.233 200.309 230.975 200.054 230.657 200.054C230.339 200.054 230.081 200.309 230.081 200.625C230.081 200.94 230.339 201.196 230.657 201.196Z" fill="#59221D"/>
<path d="M234.283 201.196C234.601 201.196 234.859 200.94 234.859 200.625C234.859 200.309 234.601 200.054 234.283 200.054C233.965 200.054 233.707 200.309 233.707 200.625C233.707 200.94 233.965 201.196 234.283 201.196Z" fill="#59221D"/>
<path d="M237.909 201.196C238.227 201.196 238.485 200.94 238.485 200.625C238.485 200.309 238.227 200.054 237.909 200.054C237.591 200.054 237.333 200.309 237.333 200.625C237.333 200.94 237.591 201.196 237.909 201.196Z" fill="#59221D"/>
<path d="M241.535 201.196C241.853 201.196 242.111 200.94 242.111 200.625C242.111 200.309 241.853 200.054 241.535 200.054C241.217 200.054 240.96 200.309 240.96 200.625C240.96 200.94 241.217 201.196 241.535 201.196Z" fill="#59221D"/>
<path d="M245.161 201.196C245.479 201.196 245.737 200.94 245.737 200.625C245.737 200.309 245.479 200.054 245.161 200.054C244.843 200.054 244.586 200.309 244.586 200.625C244.586 200.94 244.843 201.196 245.161 201.196Z" fill="#59221D"/>
<path d="M246.973 203.07C247.291 203.07 247.549 202.815 247.549 202.499C247.549 202.184 247.291 201.928 246.973 201.928C246.655 201.928 246.398 202.184 246.398 202.499C246.398 202.815 246.655 203.07 246.973 203.07Z" fill="#59221D"/>
<path d="M250.599 203.07C250.917 203.07 251.175 202.815 251.175 202.499C251.175 202.184 250.917 201.928 250.599 201.928C250.281 201.928 250.024 202.184 250.024 202.499C250.024 202.815 250.281 203.07 250.599 203.07Z" fill="#59221D"/>
<path d="M254.226 203.07C254.543 203.07 254.801 202.815 254.801 202.499C254.801 202.184 254.543 201.928 254.226 201.928C253.908 201.928 253.65 202.184 253.65 202.499C253.65 202.815 253.908 203.07 254.226 203.07Z" fill="#59221D"/>
<path d="M232.469 203.07C232.787 203.07 233.045 202.815 233.045 202.499C233.045 202.184 232.787 201.928 232.469 201.928C232.151 201.928 231.894 202.184 231.894 202.499C231.894 202.815 232.151 203.07 232.469 203.07Z" fill="#59221D"/>
<path d="M236.095 203.07C236.413 203.07 236.671 202.815 236.671 202.499C236.671 202.184 236.413 201.928 236.095 201.928C235.777 201.928 235.52 202.184 235.52 202.499C235.52 202.815 235.777 203.07 236.095 203.07Z" fill="#59221D"/>
<path d="M239.721 203.07C240.039 203.07 240.297 202.815 240.297 202.499C240.297 202.184 240.039 201.928 239.721 201.928C239.404 201.928 239.146 202.184 239.146 202.499C239.146 202.815 239.404 203.07 239.721 203.07Z" fill="#59221D"/>
<path d="M243.348 203.07C243.665 203.07 243.923 202.815 243.923 202.499C243.923 202.184 243.665 201.928 243.348 201.928C243.03 201.928 242.772 202.184 242.772 202.499C242.772 202.815 243.03 203.07 243.348 203.07Z" fill="#59221D"/>
<path d="M142.571 161.039V111.206C142.571 110.462 142.719 109.724 143.006 109.036C143.293 108.349 143.714 107.724 144.245 107.197C144.776 106.671 145.406 106.253 146.099 105.968C146.792 105.683 147.536 105.537 148.286 105.537H214.195C215.523 105.537 216.821 105.924 217.928 106.65C219.036 107.376 219.904 108.408 220.424 109.62L241.685 160.995L142.571 161.039Z" fill="white"/>
<path d="M145.408 161.039V113.083C145.408 111.579 146.01 110.137 147.082 109.073C148.154 108.01 149.607 107.413 151.123 107.413H217.033C218.36 107.413 219.658 107.8 220.765 108.526C221.873 109.252 222.741 110.285 223.261 111.497L244.522 160.995L145.408 161.039Z" fill="#BDCAC2"/>
<path d="M185.427 125.991C184.677 125.991 183.936 126.138 183.243 126.422C182.551 126.706 181.922 127.123 181.392 127.649C180.862 128.175 180.442 128.799 180.155 129.486C179.869 130.172 179.721 130.909 179.721 131.652V161.039H174.566V131.652C174.566 130.909 174.713 130.172 175 129.486C175.287 128.799 175.707 128.175 176.237 127.649C176.766 127.123 177.396 126.706 178.088 126.422C178.78 126.138 179.522 125.991 180.271 125.991H185.427Z" fill="#59221D"/>
<path d="M212.187 131.652V161.039H179.721V131.652C179.721 130.909 179.869 130.172 180.155 129.486C180.442 128.799 180.862 128.175 181.392 127.649C181.922 127.123 182.551 126.706 183.243 126.422C183.936 126.138 184.678 125.991 185.427 125.991H206.482C207.995 125.991 209.446 126.588 210.516 127.649C211.586 128.711 212.187 130.151 212.187 131.652Z" fill="#A74602"/>
<path d="M244.545 161.039H254.136C254.989 161.039 255.807 160.703 256.41 160.104C257.014 159.506 257.353 158.694 257.353 157.848V147.027C257.352 146.53 257.153 146.055 256.799 145.704C256.446 145.353 255.966 145.156 255.466 145.156H252.409C251.909 145.156 251.429 145.353 251.076 145.704C250.722 146.055 250.523 146.53 250.523 147.027V157.858C250.523 158.692 250.19 159.493 249.598 160.085C249.005 160.678 248.201 161.014 247.36 161.021L244.545 161.039Z" fill="white"/>
<path d="M178.703 161.039H162.624C161.771 161.039 160.953 160.703 160.35 160.104C159.747 159.506 159.408 158.694 159.408 157.848V147.027C159.408 146.53 159.607 146.055 159.96 145.704C160.314 145.353 160.794 145.156 161.294 145.156H164.351C164.851 145.156 165.331 145.353 165.685 145.704C166.038 146.055 166.237 146.53 166.237 147.027V157.858C166.237 158.692 166.57 159.493 167.162 160.085C167.755 160.678 168.559 161.014 169.401 161.021L178.703 161.039Z" fill="#FED4C7"/>
<path d="M243.194 161.039H252.795C253.648 161.039 254.466 160.703 255.069 160.104C255.672 159.506 256.011 158.694 256.011 157.848V147.027C256.011 146.53 255.812 146.055 255.459 145.704C255.105 145.353 254.626 145.156 254.125 145.156H251.063C250.563 145.156 250.083 145.353 249.73 145.704C249.376 146.055 249.177 146.53 249.177 147.027V157.858C249.177 158.692 248.845 159.493 248.253 160.085C247.66 160.678 246.856 161.014 246.015 161.021L243.194 161.039Z" fill="#FED4C7"/>
<path d="M94.9733 141.852V173.458H62.9358C62.3331 173.458 61.7364 173.341 61.1796 173.112C60.6228 172.883 60.117 172.547 59.691 172.124C59.265 171.701 58.9272 171.199 58.6969 170.647C58.4666 170.094 58.3483 169.502 58.3488 168.904V141.852H94.9733Z" fill="white"/>
<path d="M94.9563 140.662H58.078C58.0517 140.661 58.0254 140.665 58 140.671L50.137 133.337H87.1043L94.9563 140.662Z" fill="white"/>
<path d="M118.321 133.337L110.463 140.671C110.437 140.665 110.411 140.661 110.384 140.662H96.3269L104.179 133.337H118.321Z" fill="white"/>
<path d="M110.109 141.852V168.888C110.109 170.1 109.623 171.263 108.759 172.12C107.895 172.977 106.723 173.458 105.501 173.458H96.3063V141.852H110.109Z" fill="white"/>
<path d="M43.0388 219.14C43.0195 216.848 43.4579 214.575 44.3286 212.452C45.1993 210.329 46.4851 208.398 48.1118 206.77C49.7385 205.143 51.6739 203.851 53.8064 202.97C55.9389 202.088 58.2262 201.634 60.5364 201.634C62.8466 201.634 65.1339 202.088 67.2664 202.97C69.3989 203.851 71.3343 205.143 72.961 206.77C74.5877 208.398 75.8735 210.329 76.7442 212.452C77.6149 214.575 78.0532 216.848 78.034 219.14H43.0388Z" fill="#59221D"/>
<path d="M60.5368 232.393C68.052 232.393 74.1443 226.349 74.1443 218.893C74.1443 211.437 68.052 205.392 60.5368 205.392C53.0216 205.392 46.9293 211.437 46.9293 218.893C46.9293 226.349 53.0216 232.393 60.5368 232.393Z" fill="#EC744A"/>
<path d="M60.5371 230.078C66.7638 230.078 71.8115 225.07 71.8115 218.893C71.8115 212.715 66.7638 207.707 60.5371 207.707C54.3104 207.707 49.2627 212.715 49.2627 218.893C49.2627 225.07 54.3104 230.078 60.5371 230.078Z" stroke="white" stroke-width="0.3" stroke-miterlimit="10"/>
<path d="M60.537 220.981C61.7831 220.981 62.7933 219.979 62.7933 218.743C62.7933 217.506 61.7831 216.504 60.537 216.504C59.2908 216.504 58.2806 217.506 58.2806 218.743C58.2806 219.979 59.2908 220.981 60.537 220.981Z" stroke="#592D29" stroke-width="0.3" stroke-miterlimit="10"/>
<path d="M160.468 219.14C160.448 216.848 160.887 214.575 161.757 212.452C162.628 210.329 163.914 208.398 165.541 206.77C167.167 205.143 169.103 203.851 171.235 202.97C173.368 202.088 175.655 201.634 177.965 201.634C180.276 201.634 182.563 202.088 184.695 202.97C186.828 203.851 188.763 205.143 190.39 206.77C192.017 208.398 193.303 210.329 194.173 212.452C195.044 214.575 195.482 216.848 195.463 219.14H160.468Z" fill="#59221D"/>
<path d="M178.165 232.393C185.68 232.393 191.773 226.349 191.773 218.893C191.773 211.437 185.68 205.392 178.165 205.392C170.65 205.392 164.557 211.437 164.557 218.893C164.557 226.349 170.65 232.393 178.165 232.393Z" fill="#EC744A"/>
<path d="M178.165 230.078C184.392 230.078 189.44 225.07 189.44 218.893C189.44 212.715 184.392 207.707 178.165 207.707C171.939 207.707 166.891 212.715 166.891 218.893C166.891 225.07 171.939 230.078 178.165 230.078Z" stroke="white" stroke-width="0.3" stroke-miterlimit="10"/>
<path d="M178.14 221.183C179.386 221.183 180.396 220.181 180.396 218.945C180.396 217.708 179.386 216.706 178.14 216.706C176.894 216.706 175.883 217.708 175.883 218.945C175.883 220.181 176.894 221.183 178.14 221.183Z" stroke="#592D29" stroke-width="0.3" stroke-miterlimit="10"/>
<path d="M267.405 194.022C270.389 194.022 272.808 191.622 272.808 188.661C272.808 185.701 270.389 183.301 267.405 183.301C264.421 183.301 262.002 185.701 262.002 188.661C262.002 191.622 264.421 194.022 267.405 194.022Z" fill="#EC744A"/>
<path d="M267.532 198.289C268.277 198.289 268.882 197.69 268.882 196.95C268.882 196.21 268.277 195.61 267.532 195.61C266.786 195.61 266.181 196.21 266.181 196.95C266.181 197.69 266.786 198.289 267.532 198.289Z" stroke="#592D29" stroke-width="0.3" stroke-miterlimit="10"/>
<path d="M215.563 194.022C218.547 194.022 220.966 191.622 220.966 188.661C220.966 185.701 218.547 183.301 215.563 183.301C212.579 183.301 210.16 185.701 210.16 188.661C210.16 191.622 212.579 194.022 215.563 194.022Z" fill="#EC744A"/>
<path d="M215.298 198.289C216.044 198.289 216.648 197.69 216.648 196.95C216.648 196.21 216.044 195.61 215.298 195.61C214.552 195.61 213.948 196.21 213.948 196.95C213.948 197.69 214.552 198.289 215.298 198.289Z" stroke="#592D29" stroke-width="0.3" stroke-miterlimit="10"/>
<path d="M236.008 161.039H182.795L184.605 152.459C185.288 149.219 187.075 146.311 189.665 144.224C192.254 142.137 195.489 140.998 198.826 140.998H219.978C223.314 140.998 226.549 142.137 229.138 144.224C231.728 146.311 233.514 149.219 234.198 152.459L236.008 161.039Z" fill="#EC744A"/>
<path d="M208.034 145.137V161.133L194.975 161.042L197.599 148.699C197.793 147.792 197.801 146.856 197.622 145.945C196.865 142.073 192.162 141.912 189.581 144.301L189.731 143.954C190.15 142.982 190.847 142.154 191.736 141.571C192.625 140.989 193.666 140.679 194.731 140.678H203.535C204.727 140.678 205.871 141.147 206.715 141.984C207.559 142.82 208.033 143.954 208.034 145.137Z" fill="#59221D"/>
<path d="M197.561 149.104H207.759" stroke="white" stroke-width="0.3" stroke-linecap="round" stroke-linejoin="round"/>
<path d="M196.193 155.622H207.758" stroke="white" stroke-width="0.3" stroke-linecap="round" stroke-linejoin="round"/>
<path d="M225.951 144.734V160.692H218.158V145.137C218.158 143.107 216.816 141.306 214.92 140.987L214.993 140.494H221.675C222.809 140.494 223.896 140.94 224.698 141.735C225.499 142.53 225.95 143.609 225.951 144.734Z" fill="#59221D"/>
<path d="M218.362 149.104H225.686" stroke="white" stroke-width="0.3" stroke-linecap="round" stroke-linejoin="round"/>
<path d="M204.242 140.94L208.116 135.495H214.87V140.94C214.87 140.94 212.76 143.119 204.242 140.94Z" fill="white" stroke="#59221D" stroke-width="0.3" stroke-linejoin="round"/>
<path d="M212.071 141.822C214.124 141.58 214.876 140.94 214.876 140.94V135.495H208.122V136.188C208.122 137.064 208.454 137.907 209.051 138.552L212.071 141.822Z" fill="#59221D"/>
<path d="M215.481 129.79V130.49L208.487 132.168V130.742C208.487 130.043 208.767 129.373 209.265 128.879C209.762 128.385 210.438 128.108 211.142 128.108H213.787C214.01 128.108 214.23 128.151 214.436 128.236C214.641 128.32 214.828 128.444 214.985 128.6C215.143 128.757 215.268 128.942 215.353 129.146C215.438 129.35 215.481 129.569 215.481 129.79Z" fill="#2A6049"/>
<path d="M208.623 132.168L219.191 129.561" stroke="#59221D" stroke-width="0.3" stroke-linecap="round" stroke-linejoin="round"/>
<path d="M215.481 130.491L216.041 135.58C216.074 135.879 216.043 136.181 215.95 136.467C215.857 136.754 215.705 137.017 215.502 137.241C215.3 137.465 215.053 137.644 214.776 137.767C214.499 137.889 214.2 137.953 213.897 137.953H211.255C210.87 137.952 210.493 137.851 210.16 137.66C209.827 137.469 209.551 137.194 209.358 136.864L208.627 135.604H207.424C206.983 135.592 206.564 135.41 206.256 135.096C205.948 134.783 205.775 134.362 205.775 133.924C205.775 133.486 205.948 133.065 206.256 132.752C206.564 132.438 206.983 132.256 207.424 132.244H207.712C207.907 132.244 208.097 132.302 208.259 132.41C208.42 132.517 208.546 132.67 208.62 132.849V132.168L215.481 130.491Z" fill="white" stroke="#59221D" stroke-width="0.3" stroke-linejoin="round"/>
<path d="M208.427 132.167L211.305 131.614L210.068 131.91C209.878 131.955 209.709 132.063 209.588 132.215C209.467 132.367 209.401 132.555 209.401 132.749V133.256C209.401 133.714 208.886 134.085 208.425 134.085L208.427 132.167Z" fill="#59221D"/>
<path d="M207.143 133.034C207.262 133.034 207.379 133.057 207.489 133.102C207.598 133.146 207.698 133.212 207.782 133.295C207.865 133.378 207.932 133.477 207.977 133.585C208.023 133.694 208.046 133.81 208.046 133.928" stroke="#59221D" stroke-width="0.3" stroke-linecap="round" stroke-linejoin="round"/>
<path d="M213.185 136.12C212.956 136.189 212.709 136.165 212.498 136.054C212.287 135.942 212.13 135.752 212.06 135.525" stroke="#59221D" stroke-width="0.3" stroke-linecap="round" stroke-linejoin="round"/>
<path d="M215.481 131.83H213.921C213.84 131.83 213.761 131.848 213.688 131.882C213.614 131.915 213.549 131.964 213.497 132.025C213.445 132.086 213.406 132.157 213.384 132.234C213.362 132.311 213.357 132.392 213.37 132.471C213.524 133.439 213.713 135.167 213.126 135.167" stroke="#59221D" stroke-width="0.3" stroke-linecap="round" stroke-linejoin="round"/>
<path d="M211.878 133.705C212.068 133.705 212.221 133.462 212.221 133.162C212.221 132.862 212.068 132.619 211.878 132.619C211.689 132.619 211.536 132.862 211.536 133.162C211.536 133.462 211.689 133.705 211.878 133.705Z" fill="#59221D"/>
<path d="M214.615 133.638C214.78 133.638 214.914 133.425 214.914 133.162C214.914 132.899 214.78 132.687 214.615 132.687C214.45 132.687 214.317 132.899 214.317 133.162C214.317 133.425 214.45 133.638 214.615 133.638Z" fill="#59221D"/>
<path d="M246.558 161.039L242.289 157.315C239.694 155.05 236.355 153.8 232.898 153.799H220.055C217.685 153.799 215.352 154.387 213.27 155.51L207.741 158.498C204.634 160.172 201.154 161.049 197.618 161.048L246.558 161.039Z" fill="#A74602"/>
<path d="M197.62 161.039C201.155 161.039 204.635 160.162 207.743 158.488L213.271 155.51C215.354 154.387 217.686 153.799 220.056 153.799H232.901C236.358 153.8 239.697 155.05 242.292 157.315L245.968 160.331" stroke="white" stroke-width="0.3" stroke-linecap="round" stroke-linejoin="round"/>
<path d="M180.116 161.03L180.169 192.478C179.766 192.458 179.36 192.45 178.949 192.45C169.419 192.45 161.086 197.373 156.574 204.71C156.296 205.161 155.906 205.534 155.441 205.793C154.976 206.052 154.452 206.188 153.918 206.187H142.298V110.958C142.298 109.528 142.87 108.157 143.89 107.145C144.909 106.134 146.291 105.566 147.732 105.566H224.169" stroke="#592D29" stroke-width="0.3" stroke-miterlimit="10"/>
<path d="M77.0178 221.608C77.0178 224.903 75.5542 227.89 73.1625 230.078" stroke="#592D29" stroke-width="0.3" stroke-miterlimit="10" stroke-linecap="round"/>
<path d="M194.862 221.366C194.862 224.659 193.398 227.647 191.008 229.836" stroke="#592D29" stroke-width="0.3" stroke-miterlimit="10" stroke-linecap="round"/>
<path d="M156.299 105.751C153.581 99.4216 147.559 95.6765 140.626 95.6765" stroke="#592D29" stroke-width="0.3" stroke-miterlimit="10"/>
<path d="M206.863 212.769V185.906C206.863 184.395 206.51 182.905 205.831 181.553C205.152 180.2 204.167 179.023 202.952 178.112L180.117 161.001" stroke="#592D29" stroke-width="0.3" stroke-miterlimit="10"/>
<path d="M148.271 167.656C148.271 167.071 148.505 166.51 148.922 166.096C149.339 165.682 149.905 165.45 150.494 165.449H157.831C158.421 165.449 158.987 165.682 159.404 166.096C159.821 166.51 160.056 167.071 160.056 167.656" stroke="#592D29" stroke-width="0.3" stroke-miterlimit="10" stroke-linecap="round"/>
<path d="M266.615 175.017L270.573 177.963C271.895 178.948 271.194 181.037 269.539 181.037H211.85C208.639 181.036 205.514 180.002 202.947 178.088L198.827 175.017" stroke="#592D29" stroke-width="0.3" stroke-miterlimit="10"/>
<path d="M62.6087 112.798H11.9473" stroke="#592D29" stroke-width="0.3" stroke-miterlimit="10" stroke-linecap="round"/>
<path d="M50.2918 118.365H1" stroke="#592D29" stroke-width="0.3" stroke-miterlimit="10" stroke-linecap="round"/>
<path d="M51.1748 90.563H190.526C191.744 90.563 192.913 91.0431 193.774 91.8977C194.635 92.7523 195.119 93.9114 195.119 95.12V95.6766H46.5817V95.12C46.5817 93.9114 47.0656 92.7523 47.927 91.8977C48.7884 91.0431 49.9566 90.563 51.1748 90.563Z" stroke="#592D29" stroke-width="0.3" stroke-miterlimit="10"/>
<path d="M224.416 183.335H259.878" stroke="#592D29" stroke-width="0.3" stroke-miterlimit="10" stroke-linecap="round"/>
<path d="M180.054 161.039H163.974C163.121 161.038 162.304 160.702 161.701 160.104C161.098 159.505 160.759 158.694 160.759 157.848V147.027C160.759 146.53 160.958 146.055 161.312 145.704C161.665 145.353 162.145 145.156 162.645 145.156H165.702C166.203 145.156 166.682 145.353 167.036 145.704C167.389 146.055 167.588 146.53 167.588 147.027V157.858C167.588 158.692 167.92 159.493 168.513 160.085C169.105 160.678 169.909 161.014 170.751 161.021L180.054 161.039Z" stroke="#592D29" stroke-width="0.3" stroke-miterlimit="10"/>
<path d="M244.545 161.039H254.136C254.989 161.039 255.807 160.703 256.411 160.104C257.014 159.506 257.353 158.694 257.353 157.848V147.027C257.352 146.53 257.153 146.055 256.799 145.704C256.446 145.353 255.966 145.156 255.466 145.156H252.409C251.909 145.156 251.429 145.353 251.076 145.704C250.722 146.055 250.523 146.53 250.523 147.027V157.858C250.523 158.692 250.19 159.493 249.598 160.085C249.005 160.678 248.201 161.014 247.36 161.021L244.545 161.039Z" stroke="#592D29" stroke-width="0.3" stroke-miterlimit="10"/>
<path d="M180.054 161.042H247.966" stroke="#592D29" stroke-width="0.3" stroke-miterlimit="10"/>
<path d="M208.017 120.395L215.81 112.973" stroke="white" stroke-width="0.3" stroke-linecap="round" stroke-linejoin="round"/>
<path d="M204.239 123.991L206.105 122.215" stroke="white" stroke-width="0.3" stroke-linecap="round" stroke-linejoin="round"/>
<path d="M181.1 146.022L200.043 127.987" stroke="white" stroke-width="0.3" stroke-linecap="round" stroke-linejoin="round"/>
<path d="M203.024 118.328L206.105 115.394" stroke="white" stroke-width="0.3" stroke-linecap="round" stroke-linejoin="round"/>
<path d="M182.894 137.495L200.594 120.642" stroke="white" stroke-width="0.3" stroke-linecap="round" stroke-linejoin="round"/>
<path d="M180.441 160.858L179.793 161.133L156.719 107.413H157.485L180.441 160.858Z" fill="white"/>
</svg>
