<svg width="34" height="34" viewBox="0 0 34 34" fill="none" xmlns="http://www.w3.org/2000/svg">
<path d="M11.6667 11.6667L22.3333 22.3333M22.3333 11.6667L11.6667 22.3333M4.55556 1H29.4444C31.4081 1 33 2.59188 33 4.55556V29.4444C33 31.4081 31.4081 33 29.4444 33H4.55556C2.59188 33 1 31.4081 1 29.4444V4.55556C1 2.59188 2.59188 1 4.55556 1Z" stroke="#2A6049" stroke-linecap="round" stroke-linejoin="round"/>
<path d="M28.6667 2H5.33333C3.49238 2 2 3.49238 2 5.33333V28.6667C2 30.5076 3.49238 32 5.33333 32H28.6667C30.5076 32 32 30.5076 32 28.6667V5.33333C32 3.49238 30.5076 2 28.6667 2Z" fill="#2A6049"/>
<path d="M12 12L22 22M22 12L12 22M5.33333 2H28.6667C30.5076 2 32 3.49238 32 5.33333V28.6667C32 30.5076 30.5076 32 28.6667 32H5.33333C3.49238 32 2 30.5076 2 28.6667V5.33333C2 3.49238 3.49238 2 5.33333 2Z" stroke="white" stroke-linecap="round" stroke-linejoin="round"/>
</svg>
