<svg width="29" height="29" viewBox="0 0 29 29" fill="none" xmlns="http://www.w3.org/2000/svg">
<path d="M16.1478 16.8167C15.8732 17.1114 15.542 17.3478 15.174 17.5118C14.806 17.6757 14.4087 17.7639 14.0059 17.771C13.6031 17.7781 13.203 17.704 12.8294 17.5531C12.4559 17.4023 12.1166 17.1777 11.8317 16.8928C11.5468 16.6079 11.3222 16.2686 11.1713 15.895C11.0205 15.5215 10.9464 15.1214 10.9535 14.7186C10.9606 14.3158 11.0487 13.9185 11.2127 13.5505C11.3767 13.1825 11.6131 12.8513 11.9078 12.5767M3.02783 3.69666L25.0278 25.6967M19.9678 20.6367C18.2584 21.9397 16.1769 22.6615 14.0278 22.6967C7.02783 22.6967 3.02783 14.6967 3.02783 14.6967C4.27172 12.3786 5.99697 10.3533 8.08783 8.75666L19.9678 20.6367ZM11.9278 6.93666C12.6162 6.77554 13.3209 6.69499 14.0278 6.69666C21.0278 6.69666 25.0278 14.6967 25.0278 14.6967C24.4208 15.8323 23.6969 16.9014 22.8678 17.8867L11.9278 6.93666Z" stroke="#999999" stroke-linecap="round" stroke-linejoin="round"/>
</svg>
