<svg width="74" height="89" viewBox="0 0 74 89" fill="none" xmlns="http://www.w3.org/2000/svg">
<g opacity="0.501033">
<path d="M23.742 31.725C23.742 31.585 23.812 31.446 23.882 31.376L32.682 22.576C32.892 22.366 33.241 22.366 33.45 22.576C33.66 22.786 33.66 23.135 33.45 23.344L24.65 32.144C24.441 32.354 24.092 32.354 23.882 32.144C23.812 32.004 23.742 31.865 23.742 31.725Z" fill="#59221D"/>
<path d="M23.742 22.925C23.742 22.786 23.812 22.646 23.882 22.576C24.092 22.366 24.441 22.366 24.65 22.576L33.45 31.376C33.66 31.585 33.66 31.935 33.45 32.144C33.241 32.354 32.892 32.354 32.682 32.144L23.882 23.344C23.812 23.205 23.742 23.065 23.742 22.925Z" fill="#59221D"/>
<path d="M51.241 43.97C51.241 43.62 51.521 43.411 51.8 43.411L63.882 44.179C64.162 44.179 64.371 44.459 64.371 44.738C64.371 45.017 64.092 45.227 63.813 45.227L51.73 44.459C51.451 44.459 51.241 44.249 51.241 43.97Z" fill="#FCFCFE"/>
<path d="M57.247 58.7061C57.247 58.4971 57.317 58.3571 57.527 58.2171L64.581 54.2361C64.86 54.0971 65.139 54.1661 65.279 54.4461C65.419 54.7251 65.349 55.0041 65.07 55.1441L58.016 59.1251C57.736 59.2651 57.457 59.1951 57.317 58.9161C57.317 58.9161 57.247 58.7761 57.247 58.7061Z" fill="#E4E4EF"/>
<path d="M73.797 11.715L73.001 10.634L55.941 23.259L68.622 40.319L73.797 36.452V11.715Z" fill="#E1B2A0"/>
<path d="M30.295 67.728L25.974 78.533L17.216 68.866L30.295 67.728Z" fill="#E1B2A0"/>
<path d="M65.096 8.416L62.424 0L57.135 8.416H65.096Z" fill="#A74602"/>
<path d="M37.289 57.606C37.289 61.312 40.293 64.316 43.999 64.316C47.705 64.316 50.709 61.312 50.709 57.606C50.709 53.9 47.705 50.896 43.999 50.896C40.293 50.896 37.289 53.9 37.289 57.606Z" fill="#FFE1D3"/>
<path d="M61.628 35.087C61.628 34.86 61.798 34.632 62.082 34.632L66.802 34.689C67.03 34.689 67.2 34.859 67.2 35.144C67.2 35.371 67.03 35.542 66.746 35.542L62.026 35.485C61.855 35.542 61.628 35.314 61.628 35.087Z" fill="#A74602"/>
<path d="M64.016 37.4751L64.073 32.7551C64.073 32.5281 64.243 32.3571 64.528 32.3571C64.755 32.3571 64.926 32.5281 64.926 32.8121L64.869 37.5321C64.869 37.7601 64.698 37.9301 64.414 37.9301C64.187 37.9301 64.016 37.7031 64.016 37.4751Z" fill="#A74602"/>
<path d="M59.865 73.529C59.865 73.415 59.922 73.301 60.035 73.188C60.206 73.017 60.49 73.074 60.661 73.244L64.812 78.249C64.983 78.419 64.926 78.704 64.755 78.874C64.585 79.045 64.3 78.988 64.13 78.817L59.978 73.813C59.922 73.756 59.865 73.643 59.865 73.529Z" fill="#59221D"/>
<path d="M45.705 87.916C45.705 87.802 45.762 87.632 45.875 87.575L49.231 85.13C49.401 85.016 49.686 85.016 49.799 85.243C49.913 85.414 49.913 85.698 49.686 85.812L46.33 88.257C46.16 88.371 45.875 88.371 45.762 88.144C45.762 88.087 45.705 87.973 45.705 87.916Z" fill="#59221D"/>
<path d="M9.33698 47.847L6.30198 41.545L-2.47955e-05 44.579L3.03498 50.882L9.33698 47.847Z" fill="#E1B2A0"/>
</g>
</svg>
