<svg width="50" height="50" viewBox="0 0 50 50" fill="none" xmlns="http://www.w3.org/2000/svg">
<g filter="url(#filter0_d)">
<rect x="5" y="1" width="40" height="40" rx="12" fill="white" stroke="#2A6049"/>
<path fill-rule="evenodd" clip-rule="evenodd" d="M32.4219 12.5625H30.625V11.625C30.625 11.2798 30.3452 11 30 11C29.6548 11 29.375 11.2798 29.375 11.625V12.5625H20.625V11.625C20.625 11.2798 20.3452 11 20 11C19.6548 11 19.375 11.2798 19.375 11.625V12.5625H17.5781C16.1565 12.5625 15 13.719 15 15.1406V28.4219C15 29.8435 16.1565 31 17.5781 31H32.4219C33.8435 31 35 29.8435 35 28.4219V15.1406C35 13.719 33.8435 12.5625 32.4219 12.5625ZM33.75 28.4219C33.75 29.1554 33.1554 29.75 32.4219 29.75H17.5781C16.8446 29.75 16.25 29.1554 16.25 28.4219V18.0703C16.25 17.9625 16.3375 17.875 16.4453 17.875H33.5547C33.6625 17.875 33.75 17.9625 33.75 18.0703V28.4219Z" fill="#2A6049"/>
</g>
<defs>
<filter id="filter0_d" x="0.5" y="0.5" width="49" height="49" filterUnits="userSpaceOnUse" color-interpolation-filters="sRGB">
<feFlood flood-opacity="0" result="BackgroundImageFix"/>
<feColorMatrix in="SourceAlpha" type="matrix" values="0 0 0 0 0 0 0 0 0 0 0 0 0 0 0 0 0 0 127 0"/>
<feOffset dy="4"/>
<feGaussianBlur stdDeviation="2"/>
<feColorMatrix type="matrix" values="0 0 0 0 0 0 0 0 0 0 0 0 0 0 0 0 0 0 0.25 0"/>
<feBlend mode="normal" in2="BackgroundImageFix" result="effect1_dropShadow"/>
<feBlend mode="normal" in="SourceGraphic" in2="effect1_dropShadow" result="shape"/>
</filter>
</defs>
</svg>
