<svg width="411" height="119" viewBox="0 0 411 119" fill="none" xmlns="http://www.w3.org/2000/svg">
<path fill-rule="evenodd" clip-rule="evenodd" d="M9.10869 113.76C5.85084 114.444 5.25246 115.03 4.55435 118.221C3.85623 115.03 3.25785 114.444 0 113.76C3.25785 113.076 3.85623 112.49 4.55435 109.299C5.25246 112.523 5.81759 113.076 9.10869 113.76Z" fill="#BACAC2" fill-opacity="0.26"/>
<path fill-rule="evenodd" clip-rule="evenodd" d="M384.842 23.4212C381.582 24.1256 381.007 24.6891 380.288 27.8824C379.569 24.6891 378.993 24.1256 375.733 23.4212C378.993 22.7168 379.569 22.1533 380.288 18.96C381.007 22.1533 381.582 22.7168 384.842 23.4212Z" fill="#BACAC2" fill-opacity="0.26"/>
<path fill-rule="evenodd" clip-rule="evenodd" d="M217.47 57.4377C212.148 58.5596 211.215 59.4917 210.069 64.6871C208.924 59.4744 207.972 58.5596 202.668 57.4377C207.99 56.3158 208.924 55.3837 210.069 50.1883C211.215 55.3837 212.148 56.2985 217.47 57.4377Z" fill="#BACAC2" fill-opacity="0.26"/>
<path fill-rule="evenodd" clip-rule="evenodd" d="M335.883 88.6659C330.567 89.7874 329.647 90.7086 328.482 95.9153C327.337 90.7086 326.397 89.8074 321.081 88.6659C326.397 87.5445 327.317 86.6233 328.482 81.4165C329.627 86.6233 330.567 87.5244 335.883 88.6659Z" fill="#BACAC2" fill-opacity="0.26"/>
<path fill-rule="evenodd" clip-rule="evenodd" d="M127.522 61.8989C122.206 63.0203 121.286 63.9415 120.121 69.1483C118.976 63.9415 118.036 63.0404 112.72 61.8989C118.036 60.7774 118.956 59.8562 120.121 54.6495C121.266 59.8562 122.206 60.7574 127.522 61.8989Z" fill="#BACAC2" fill-opacity="0.26"/>
<ellipse cx="56.36" cy="99.8189" rx="7.40081" ry="7.24941" fill="#BACAC2" fill-opacity="0.26"/>
<ellipse cx="25.4008" cy="29.2494" rx="7.40081" ry="7.24941" fill="#BACAC2" fill-opacity="0.26"/>
<ellipse cx="336.452" cy="42.9389" rx="7.4008" ry="7.24941" fill="#BACAC2" fill-opacity="0.26"/>
<ellipse cx="179.327" cy="7.24942" rx="7.40082" ry="7.24942" fill="#BACAC2" fill-opacity="0.26"/>
<path fill-rule="evenodd" clip-rule="evenodd" d="M296.032 22.8636C289.915 24.1624 288.837 25.2188 287.493 31.2283C286.167 25.2362 285.089 24.1797 278.954 22.8636C285.071 21.5647 286.149 20.5083 287.493 14.4988C288.819 20.5083 289.897 21.5647 296.032 22.8636Z" fill="#BACAC2" fill-opacity="0.26"/>
<path fill-rule="evenodd" clip-rule="evenodd" d="M69.4538 35.6894C66.1854 36.398 65.596 36.9491 64.8994 40.1506C64.1761 36.9491 63.6135 36.3717 60.3451 35.6894C63.6135 34.9809 64.2029 34.4298 64.8994 31.2283C65.6228 34.4298 66.1854 35.0072 69.4538 35.6894Z" fill="#BACAC2" fill-opacity="0.26"/>
<path fill-rule="evenodd" clip-rule="evenodd" d="M411.03 94.8001C407.748 95.489 407.178 96.0466 406.475 99.2613C405.772 96.0466 405.203 95.489 401.921 94.8001C405.203 94.1113 405.772 93.5536 406.475 90.3389C407.178 93.5208 407.748 94.1113 411.03 94.8001Z" fill="#BACAC2" fill-opacity="0.26"/>
<path fill-rule="evenodd" clip-rule="evenodd" d="M264.152 89.2236C260.887 89.928 260.302 90.4646 259.58 93.6847C258.859 90.4982 258.309 89.928 255.043 89.2236C258.309 88.5192 258.893 87.9825 259.58 84.7624C260.302 87.9825 260.852 88.5527 264.152 89.2236Z" fill="#BACAC2" fill-opacity="0.26"/>
<path fill-rule="evenodd" clip-rule="evenodd" d="M171.927 103.722C168.661 104.427 168.077 104.964 167.355 108.184C166.633 104.997 166.083 104.427 162.818 103.722C166.083 103.018 166.668 102.481 167.355 99.2613C168.077 102.481 168.627 103.052 171.927 103.722Z" fill="#BACAC2" fill-opacity="0.26"/>
</svg>
