<svg width="50" height="50" viewBox="0 0 50 50" fill="none" xmlns="http://www.w3.org/2000/svg">
<g filter="url(#filter0_d)">
<rect x="5" y="1" width="40" height="40" rx="12" fill="white" stroke="#2A6049"/>
<path d="M25 13.7273C23.3123 13.7273 21.6936 14.3977 20.5002 15.5911C19.3068 16.7846 18.6364 18.4032 18.6364 20.0909V24.6364C18.6364 25.3597 18.349 26.0534 17.8376 26.5648C17.3261 27.0763 16.6324 27.3636 15.9091 27.3636H34.0909C33.3676 27.3636 32.6739 27.0763 32.1624 26.5648C31.651 26.0534 31.3636 25.3597 31.3636 24.6364V20.0909C31.3636 18.4032 30.6932 16.7846 29.4998 15.5911C28.3064 14.3977 26.6877 13.7273 25 13.7273ZM25 13.7273V11M26.5727 31C26.4129 31.2755 26.1835 31.5042 25.9075 31.6632C25.6315 31.8222 25.3185 31.9059 25 31.9059C24.6815 31.9059 24.3685 31.8222 24.0925 31.6632C23.8165 31.5042 23.5871 31.2755 23.4273 31" stroke="#2A6049" stroke-linecap="round" stroke-linejoin="round"/>
</g>
<defs>
<filter id="filter0_d" x="0.5" y="0.5" width="49" height="49" filterUnits="userSpaceOnUse" color-interpolation-filters="sRGB">
<feFlood flood-opacity="0" result="BackgroundImageFix"/>
<feColorMatrix in="SourceAlpha" type="matrix" values="0 0 0 0 0 0 0 0 0 0 0 0 0 0 0 0 0 0 127 0"/>
<feOffset dy="4"/>
<feGaussianBlur stdDeviation="2"/>
<feColorMatrix type="matrix" values="0 0 0 0 0 0 0 0 0 0 0 0 0 0 0 0 0 0 0.25 0"/>
<feBlend mode="normal" in2="BackgroundImageFix" result="effect1_dropShadow"/>
<feBlend mode="normal" in="SourceGraphic" in2="effect1_dropShadow" result="shape"/>
</filter>
</defs>
</svg>
