<svg width="48" height="48" viewBox="0 0 48 48" fill="none" xmlns="http://www.w3.org/2000/svg">
<g filter="url(#filter0_d)">
<rect x="4" width="40" height="40" rx="12" fill="#2A6049"/>
<path fill-rule="evenodd" clip-rule="evenodd" d="M32.3333 19.1666H24.8333V11.6666C24.8333 11.1666 24.5 10.8333 24 10.8333C23.5 10.8333 23.1666 11.1666 23.1666 11.6666V19.1666H15.6666C15.1666 19.1666 14.8333 19.4999 14.8333 19.9999C14.8333 20.4999 15.1666 20.8333 15.6666 20.8333H23.1666V28.3333C23.1666 28.8333 23.5 29.1666 24 29.1666C24.5 29.1666 24.8333 28.8333 24.8333 28.3333V20.8333H32.3333C32.8333 20.8333 33.1666 20.4999 33.1666 19.9999C33.1666 19.4999 32.8333 19.1666 32.3333 19.1666Z" fill="white"/>
</g>
<defs>
<filter id="filter0_d" x="0" y="0" width="48" height="48" filterUnits="userSpaceOnUse" color-interpolation-filters="sRGB">
<feFlood flood-opacity="0" result="BackgroundImageFix"/>
<feColorMatrix in="SourceAlpha" type="matrix" values="0 0 0 0 0 0 0 0 0 0 0 0 0 0 0 0 0 0 127 0"/>
<feOffset dy="4"/>
<feGaussianBlur stdDeviation="2"/>
<feColorMatrix type="matrix" values="0 0 0 0 0 0 0 0 0 0 0 0 0 0 0 0 0 0 0.25 0"/>
<feBlend mode="normal" in2="BackgroundImageFix" result="effect1_dropShadow"/>
<feBlend mode="normal" in="SourceGraphic" in2="effect1_dropShadow" result="shape"/>
</filter>
</defs>
</svg>
