<svg width="215" height="261" viewBox="0 0 215 261" fill="none" xmlns="http://www.w3.org/2000/svg">
<path d="M4.02539 257.167C5.2998 257.167 6.29297 256.613 6.89062 255.603H7.03125V257H8.56055V250.514C8.56055 248.545 7.26855 247.358 4.95703 247.358C2.93555 247.358 1.49414 248.36 1.24805 249.846L1.23926 249.898H2.76855L2.77734 249.872C3.02344 249.134 3.77051 248.712 4.9043 248.712C6.31934 248.712 7.03125 249.345 7.03125 250.514V251.375L4.31543 251.542C2.10938 251.674 0.861328 252.649 0.861328 254.337V254.354C0.861328 256.077 2.22363 257.167 4.02539 257.167ZM2.42578 254.319V254.302C2.42578 253.361 3.05859 252.852 4.5 252.764L7.03125 252.605V253.467C7.03125 254.82 5.89746 255.84 4.3418 255.84C3.24316 255.84 2.42578 255.277 2.42578 254.319ZM14.7217 257.07C15.0205 257.07 15.3105 257.035 15.6094 256.982V255.682C15.3281 255.708 15.1787 255.717 14.9062 255.717C13.9219 255.717 13.5352 255.269 13.5352 254.152V248.791H15.6094V247.525H13.5352V245.073H11.9531V247.525H10.459V248.791H11.9531V254.539C11.9531 256.35 12.7705 257.07 14.7217 257.07ZM23.0449 257H24.5742V243.764H23.0449V257ZM31.377 257.167C33.6094 257.167 34.9629 255.901 35.2881 254.618L35.3057 254.548H33.7764L33.7412 254.627C33.4863 255.198 32.6953 255.805 31.4121 255.805C29.7246 255.805 28.6436 254.662 28.5996 252.702H35.4199V252.104C35.4199 249.274 33.8555 247.358 31.2803 247.358C28.7051 247.358 27.0352 249.362 27.0352 252.289V252.298C27.0352 255.269 28.6699 257.167 31.377 257.167ZM31.2715 248.721C32.6689 248.721 33.7061 249.608 33.8643 251.48H28.626C28.793 249.679 29.8652 248.721 31.2715 248.721ZM40.3945 257.167C41.6689 257.167 42.6621 256.613 43.2598 255.603H43.4004V257H44.9297V250.514C44.9297 248.545 43.6377 247.358 41.3262 247.358C39.3047 247.358 37.8633 248.36 37.6172 249.846L37.6084 249.898H39.1377L39.1465 249.872C39.3926 249.134 40.1396 248.712 41.2734 248.712C42.6885 248.712 43.4004 249.345 43.4004 250.514V251.375L40.6846 251.542C38.4785 251.674 37.2305 252.649 37.2305 254.337V254.354C37.2305 256.077 38.5928 257.167 40.3945 257.167ZM38.7949 254.319V254.302C38.7949 253.361 39.4277 252.852 40.8691 252.764L43.4004 252.605V253.467C43.4004 254.82 42.2666 255.84 40.7109 255.84C39.6123 255.84 38.7949 255.277 38.7949 254.319ZM50.9766 257.167C53.1299 257.167 54.7734 255.998 54.7734 254.311V254.293C54.7734 252.939 53.9121 252.166 52.1279 251.735L50.6689 251.384C49.5527 251.111 49.0781 250.707 49.0781 250.065V250.048C49.0781 249.213 49.9043 248.633 51.0293 248.633C52.1719 248.633 52.9102 249.151 53.1123 249.898H54.6152C54.4043 248.352 53.0244 247.358 51.0381 247.358C49.0254 247.358 47.5137 248.545 47.5137 250.118V250.127C47.5137 251.489 48.3135 252.263 50.0889 252.685L51.5566 253.036C52.7256 253.317 53.209 253.766 53.209 254.407V254.425C53.209 255.286 52.3037 255.893 51.0293 255.893C49.8164 255.893 49.0605 255.374 48.8057 254.583H47.2412C47.417 256.147 48.8672 257.167 50.9766 257.167ZM60.4248 257.07C60.7236 257.07 61.0137 257.035 61.3125 256.982V255.682C61.0312 255.708 60.8818 255.717 60.6094 255.717C59.625 255.717 59.2383 255.269 59.2383 254.152V248.791H61.3125V247.525H59.2383V245.073H57.6562V247.525H56.1621V248.791H57.6562V254.539C57.6562 256.35 58.4736 257.07 60.4248 257.07Z" fill="#E5E5E5"/>
<path d="M1.42383 229H2.95312V223.129C2.95312 221.74 3.99023 220.817 5.44922 220.817C5.7832 220.817 6.07324 220.853 6.38965 220.905V219.42C6.24023 219.394 5.91504 219.358 5.625 219.358C4.3418 219.358 3.4541 219.938 3.09375 220.932H2.95312V219.525H1.42383V229ZM11.8828 229.167C14.1152 229.167 15.4688 227.901 15.7939 226.618L15.8115 226.548H14.2822L14.2471 226.627C13.9922 227.198 13.2012 227.805 11.918 227.805C10.2305 227.805 9.14941 226.662 9.10547 224.702H15.9258V224.104C15.9258 221.274 14.3613 219.358 11.7861 219.358C9.21094 219.358 7.54102 221.362 7.54102 224.289V224.298C7.54102 227.269 9.17578 229.167 11.8828 229.167ZM11.7773 220.721C13.1748 220.721 14.2119 221.608 14.3701 223.48H9.13184C9.29883 221.679 10.3711 220.721 11.7773 220.721ZM20.8037 229H22.3506L25.8574 219.525H24.2402L21.6475 227.33H21.5068L18.9141 219.525H17.2969L20.8037 229ZM28.6875 217.697C29.2676 217.697 29.7422 217.223 29.7422 216.643C29.7422 216.062 29.2676 215.588 28.6875 215.588C28.1074 215.588 27.6328 216.062 27.6328 216.643C27.6328 217.223 28.1074 217.697 28.6875 217.697ZM27.9141 229H29.4434V219.525H27.9141V229ZM36.1934 229.167C38.4258 229.167 39.7793 227.901 40.1045 226.618L40.1221 226.548H38.5928L38.5576 226.627C38.3027 227.198 37.5117 227.805 36.2285 227.805C34.541 227.805 33.46 226.662 33.416 224.702H40.2363V224.104C40.2363 221.274 38.6719 219.358 36.0967 219.358C33.5215 219.358 31.8516 221.362 31.8516 224.289V224.298C31.8516 227.269 33.4863 229.167 36.1934 229.167ZM36.0879 220.721C37.4854 220.721 38.5225 221.608 38.6807 223.48H33.4424C33.6094 221.679 34.6816 220.721 36.0879 220.721ZM44.4375 229H45.9668L48.0762 221.67H48.2168L50.335 229H51.873L54.5273 219.525H53.0068L51.1436 227.102H51.0029L48.8848 219.525H47.4346L45.3164 227.102H45.1758L43.3125 219.525H41.7832L44.4375 229ZM59.5371 229.167C61.6904 229.167 63.334 227.998 63.334 226.311V226.293C63.334 224.939 62.4727 224.166 60.6885 223.735L59.2295 223.384C58.1133 223.111 57.6387 222.707 57.6387 222.065V222.048C57.6387 221.213 58.4648 220.633 59.5898 220.633C60.7324 220.633 61.4707 221.151 61.6729 221.898H63.1758C62.9648 220.352 61.585 219.358 59.5986 219.358C57.5859 219.358 56.0742 220.545 56.0742 222.118V222.127C56.0742 223.489 56.874 224.263 58.6494 224.685L60.1172 225.036C61.2861 225.317 61.7695 225.766 61.7695 226.407V226.425C61.7695 227.286 60.8643 227.893 59.5898 227.893C58.377 227.893 57.6211 227.374 57.3662 226.583H55.8018C55.9775 228.147 57.4277 229.167 59.5371 229.167Z" fill="#2A6049"/>
<path d="M1.42383 148H2.95312V142.129C2.95312 140.74 3.99023 139.817 5.44922 139.817C5.7832 139.817 6.07324 139.853 6.38965 139.905V138.42C6.24023 138.394 5.91504 138.358 5.625 138.358C4.3418 138.358 3.4541 138.938 3.09375 139.932H2.95312V138.525H1.42383V148ZM10.8809 148.167C12.1553 148.167 13.1484 147.613 13.7461 146.603H13.8867V148H15.416V141.514C15.416 139.545 14.124 138.358 11.8125 138.358C9.79102 138.358 8.34961 139.36 8.10352 140.846L8.09473 140.898H9.62402L9.63281 140.872C9.87891 140.134 10.626 139.712 11.7598 139.712C13.1748 139.712 13.8867 140.345 13.8867 141.514V142.375L11.1709 142.542C8.96484 142.674 7.7168 143.649 7.7168 145.337V145.354C7.7168 147.077 9.0791 148.167 10.8809 148.167ZM9.28125 145.319V145.302C9.28125 144.361 9.91406 143.852 11.3555 143.764L13.8867 143.605V144.467C13.8867 145.82 12.7529 146.84 11.1973 146.84C10.0986 146.84 9.28125 146.277 9.28125 145.319ZM21.5771 148.07C21.876 148.07 22.166 148.035 22.4648 147.982V146.682C22.1836 146.708 22.0342 146.717 21.7617 146.717C20.7773 146.717 20.3906 146.269 20.3906 145.152V139.791H22.4648V138.525H20.3906V136.073H18.8086V138.525H17.3145V139.791H18.8086V145.539C18.8086 147.35 19.626 148.07 21.5771 148.07ZM25.5586 136.697C26.1387 136.697 26.6133 136.223 26.6133 135.643C26.6133 135.062 26.1387 134.588 25.5586 134.588C24.9785 134.588 24.5039 135.062 24.5039 135.643C24.5039 136.223 24.9785 136.697 25.5586 136.697ZM24.7852 148H26.3145V138.525H24.7852V148ZM29.1973 148H30.7266V142.393C30.7266 140.731 31.6846 139.712 33.1963 139.712C34.708 139.712 35.4111 140.529 35.4111 142.234V148H36.9404V141.865C36.9404 139.615 35.7539 138.358 33.627 138.358C32.2295 138.358 31.3418 138.947 30.8672 139.949H30.7266V138.525H29.1973V148ZM43.6113 151.34C46.1953 151.34 47.8301 149.986 47.8301 147.868V138.525H46.3008V140.09H46.1953C45.6152 139.018 44.5781 138.358 43.2422 138.358C40.7637 138.358 39.2344 140.283 39.2344 142.938V142.955C39.2344 145.609 40.7549 147.508 43.207 147.508C44.5078 147.508 45.5801 146.919 46.1777 145.873H46.3184V147.789C46.3184 149.187 45.3076 149.986 43.6113 149.986C42.249 149.986 41.4053 149.477 41.2383 148.756L41.2295 148.747H39.6475L39.6299 148.756C39.8672 150.312 41.3262 151.34 43.6113 151.34ZM43.541 146.154C41.7832 146.154 40.7988 144.836 40.7988 142.955V142.938C40.7988 141.057 41.7832 139.712 43.541 139.712C45.29 139.712 46.3535 141.057 46.3535 142.938V142.955C46.3535 144.836 45.2988 146.154 43.541 146.154Z" fill="#2A6049"/>
<path d="M195.424 102H196.953V96.1289C196.953 94.793 197.894 93.7119 199.133 93.7119C200.328 93.7119 201.102 94.4414 201.102 95.5664V102H202.631V95.9092C202.631 94.7051 203.501 93.7119 204.819 93.7119C206.155 93.7119 206.797 94.4062 206.797 95.8037V102H208.326V95.4521C208.326 93.4658 207.245 92.3584 205.312 92.3584C204.002 92.3584 202.921 93.0176 202.411 94.0195H202.271C201.831 93.0352 200.935 92.3584 199.651 92.3584C198.412 92.3584 197.516 92.9473 197.094 93.9668H196.953V92.5254H195.424V102ZM211.895 90.6973C212.475 90.6973 212.949 90.2227 212.949 89.6426C212.949 89.0625 212.475 88.5879 211.895 88.5879C211.314 88.5879 210.84 89.0625 210.84 89.6426C210.84 90.2227 211.314 90.6973 211.895 90.6973ZM211.121 102H212.65V92.5254H211.121V102Z" fill="#E5E5E5"/>
<path d="M91.292 97.6055H97.1982V96.1816H91.292V97.6055Z" fill="#E5E5E5"/>
<path d="M4.92188 67.167C6.24023 67.167 7.29492 66.543 7.875 65.4883H8.01562V67H9.54492V53.7637H8.01562V59.0195H7.875C7.35645 58.0088 6.22266 57.3584 4.92188 57.3584C2.51367 57.3584 0.949219 59.2832 0.949219 62.2539V62.2715C0.949219 65.2246 2.52246 67.167 4.92188 67.167ZM5.27344 65.8135C3.54199 65.8135 2.51367 64.4775 2.51367 62.2715V62.2539C2.51367 60.0479 3.54199 58.7119 5.27344 58.7119C6.99609 58.7119 8.05078 60.0654 8.05078 62.2539V62.2715C8.05078 64.46 6.99609 65.8135 5.27344 65.8135ZM13.2891 55.6973C13.8691 55.6973 14.3438 55.2227 14.3438 54.6426C14.3438 54.0625 13.8691 53.5879 13.2891 53.5879C12.709 53.5879 12.2344 54.0625 12.2344 54.6426C12.2344 55.2227 12.709 55.6973 13.2891 55.6973ZM12.5156 67H14.0449V57.5254H12.5156V67ZM20.1797 67.167C22.333 67.167 23.9766 65.998 23.9766 64.3105V64.293C23.9766 62.9395 23.1152 62.166 21.3311 61.7354L19.8721 61.3838C18.7559 61.1113 18.2812 60.707 18.2812 60.0654V60.0479C18.2812 59.2129 19.1074 58.6328 20.2324 58.6328C21.375 58.6328 22.1133 59.1514 22.3154 59.8984H23.8184C23.6074 58.3516 22.2275 57.3584 20.2412 57.3584C18.2285 57.3584 16.7168 58.5449 16.7168 60.1182V60.127C16.7168 61.4893 17.5166 62.2627 19.292 62.6846L20.7598 63.0361C21.9287 63.3174 22.4121 63.7656 22.4121 64.4072V64.4248C22.4121 65.2861 21.5068 65.8926 20.2324 65.8926C19.0195 65.8926 18.2637 65.374 18.0088 64.583H16.4443C16.6201 66.1475 18.0703 67.167 20.1797 67.167ZM29.6279 67.0703C29.9268 67.0703 30.2168 67.0352 30.5156 66.9824V65.6816C30.2344 65.708 30.085 65.7168 29.8125 65.7168C28.8281 65.7168 28.4414 65.2686 28.4414 64.1523V58.791H30.5156V57.5254H28.4414V55.0732H26.8594V57.5254H25.3652V58.791H26.8594V64.5391C26.8594 66.3496 27.6768 67.0703 29.6279 67.0703ZM35.4023 67.167C36.6768 67.167 37.6699 66.6133 38.2676 65.6025H38.4082V67H39.9375V60.5137C39.9375 58.5449 38.6455 57.3584 36.334 57.3584C34.3125 57.3584 32.8711 58.3604 32.625 59.8457L32.6162 59.8984H34.1455L34.1543 59.8721C34.4004 59.1338 35.1475 58.7119 36.2812 58.7119C37.6963 58.7119 38.4082 59.3447 38.4082 60.5137V61.375L35.6924 61.542C33.4863 61.6738 32.2383 62.6494 32.2383 64.3369V64.3545C32.2383 66.0771 33.6006 67.167 35.4023 67.167ZM33.8027 64.3193V64.3018C33.8027 63.3613 34.4355 62.8516 35.877 62.7637L38.4082 62.6055V63.4668C38.4082 64.8203 37.2744 65.8398 35.7188 65.8398C34.6201 65.8398 33.8027 65.2773 33.8027 64.3193ZM42.7324 67H44.2617V61.3926C44.2617 59.7314 45.2197 58.7119 46.7314 58.7119C48.2432 58.7119 48.9463 59.5293 48.9463 61.2344V67H50.4756V60.8652C50.4756 58.6152 49.2891 57.3584 47.1621 57.3584C45.7646 57.3584 44.877 57.9473 44.4023 58.9492H44.2617V57.5254H42.7324V67ZM57.1201 67.167C59.3965 67.167 60.6709 65.9453 61.0576 64.2314L61.0752 64.1348L59.5635 64.1436L59.5459 64.1963C59.1943 65.251 58.3857 65.8135 57.1113 65.8135C55.4238 65.8135 54.334 64.416 54.334 62.2363V62.2188C54.334 60.083 55.4062 58.7119 57.1113 58.7119C58.4736 58.7119 59.3174 59.4678 59.5547 60.3994L59.5635 60.4258H61.084L61.0752 60.373C60.7939 58.6855 59.4141 57.3584 57.1113 57.3584C54.457 57.3584 52.7695 59.2744 52.7695 62.2188V62.2363C52.7695 65.2422 54.4658 67.167 57.1201 67.167ZM67.1836 67.167C69.416 67.167 70.7695 65.9014 71.0947 64.6182L71.1123 64.5479H69.583L69.5479 64.627C69.293 65.1982 68.502 65.8047 67.2188 65.8047C65.5312 65.8047 64.4502 64.6621 64.4062 62.7021H71.2266V62.1045C71.2266 59.2744 69.6621 57.3584 67.0869 57.3584C64.5117 57.3584 62.8418 59.3623 62.8418 62.2891V62.2979C62.8418 65.2686 64.4766 67.167 67.1836 67.167ZM67.0781 58.7207C68.4756 58.7207 69.5127 59.6084 69.6709 61.4805H64.4326C64.5996 59.6787 65.6719 58.7207 67.0781 58.7207Z" fill="#2A6049"/>
<path d="M28 19L23.65 14.65M26 9C26 13.4183 22.4183 17 18 17C13.5817 17 10 13.4183 10 9C10 4.58172 13.5817 1 18 1C22.4183 1 26 4.58172 26 9Z" stroke="#BDCAC2" stroke-linecap="round" stroke-linejoin="round"/>
</svg>

