<svg width="113" height="40" viewBox="0 0 113 40" fill="none" xmlns="http://www.w3.org/2000/svg">
<g filter="url(#filter0_i)">
<rect width="113" height="40" rx="12" fill="#2A6049"/>
</g>
<path d="M44.1607 26.2812C46.7623 26.2812 48.6295 24.7734 48.9264 22.5156V22.4609H46.9498L46.942 22.5C46.6529 23.7422 45.5904 24.5391 44.1607 24.5391C42.2389 24.5391 41.0435 22.9375 41.0435 20.3672V20.3516C41.0435 17.7891 42.2389 16.1875 44.1529 16.1875C45.5748 16.1875 46.6529 17.0703 46.942 18.4062L46.9498 18.4375H48.9264V18.375C48.6607 16.0703 46.7154 14.4453 44.1529 14.4453C40.9576 14.4453 38.981 16.7031 38.981 20.3594V20.375C38.981 24.0156 40.9654 26.2812 44.1607 26.2812ZM54.6607 26.1719C57.2154 26.1719 58.7701 24.5 58.7701 21.7344V21.7188C58.7701 18.9688 57.2076 17.2969 54.6607 17.2969C52.1217 17.2969 50.5514 18.9766 50.5514 21.7188V21.7344C50.5514 24.5 52.0982 26.1719 54.6607 26.1719ZM54.6607 24.5938C53.3092 24.5938 52.5357 23.5391 52.5357 21.7422V21.7266C52.5357 19.9297 53.3092 18.8672 54.6607 18.8672C56.0045 18.8672 56.7779 19.9297 56.7779 21.7266V21.7422C56.7779 23.5391 56.0123 24.5938 54.6607 24.5938ZM60.7232 26H62.6685V21.0234C62.6685 19.7422 63.3873 18.9297 64.5435 18.9297C65.7232 18.9297 66.2623 19.6016 66.2623 20.9297V26H68.2076V20.4766C68.2076 18.4453 67.1685 17.2969 65.2623 17.2969C64.0279 17.2969 63.2076 17.8516 62.8014 18.7656H62.6685V17.4609H60.7232V26ZM70.5045 26H72.4498V21.0234C72.4498 19.7422 73.1685 18.9297 74.3248 18.9297C75.5045 18.9297 76.0435 19.6016 76.0435 20.9297V26H77.9889V20.4766C77.9889 18.4453 76.9498 17.2969 75.0435 17.2969C73.8092 17.2969 72.9889 17.8516 72.5826 18.7656H72.4498V17.4609H70.5045V26ZM83.942 26.1719C86.2623 26.1719 87.4029 24.8359 87.6764 23.7344L87.6998 23.6641H85.8482L85.8248 23.7188C85.6373 24.1094 85.0357 24.6406 83.981 24.6406C82.6607 24.6406 81.8326 23.75 81.8092 22.2188H87.7779V21.5781C87.7779 19 86.2779 17.2969 83.8482 17.2969C81.4185 17.2969 79.8639 19.0547 79.8639 21.7422V21.75C79.8639 24.4688 81.4029 26.1719 83.942 26.1719ZM83.8717 18.8203C84.9576 18.8203 85.7467 19.5156 85.8795 20.9141H81.8248C81.9732 19.5547 82.7857 18.8203 83.8717 18.8203ZM93.3873 26.1719C95.5514 26.1719 96.8092 25.0078 97.0904 23.2578L97.106 23.1953L95.2701 23.2031L95.2545 23.2344C95.0123 24.1328 94.3951 24.5938 93.3873 24.5938C92.067 24.5938 91.2779 23.5312 91.2779 21.7188V21.7031C91.2779 19.9141 92.0592 18.8672 93.3873 18.8672C94.4498 18.8672 95.0826 19.4609 95.2623 20.2891L95.2701 20.3125H97.106V20.2812C96.8873 18.5156 95.5748 17.2969 93.3795 17.2969C90.8092 17.2969 89.3014 18.9453 89.3014 21.7031V21.7188C89.3014 24.5078 90.817 26.1719 93.3873 26.1719ZM102.426 26.0391C102.801 26.0391 103.161 26.0078 103.442 25.9531V24.4531C103.208 24.4766 103.059 24.4844 102.786 24.4844C101.973 24.4844 101.637 24.125 101.637 23.2734V18.9688H103.442V17.4609H101.637V15.3672H99.6607V17.4609H98.3326V18.9688H99.6607V23.7344C99.6607 25.3828 100.465 26.0391 102.426 26.0391Z" fill="white"/>
<path d="M25.957 29V26.8889C25.957 25.7691 25.5125 24.6951 24.7212 23.9033C23.93 23.1115 22.8568 22.6667 21.7379 22.6667H13.2995C12.1805 22.6667 11.1074 23.1115 10.3161 23.9033C9.5249 24.6951 9.08038 25.7691 9.08038 26.8889V29M32.2857 29V26.8889C32.285 25.9534 31.9739 25.0446 31.4012 24.3052C30.8284 23.5659 30.0265 23.0378 29.1214 22.8039M24.9022 10.1372C25.8098 10.3698 26.6142 10.898 27.1886 11.6385C27.7631 12.3791 28.0749 13.29 28.0749 14.2275C28.0749 15.165 27.7631 16.0759 27.1886 16.8164C26.6142 17.557 25.8098 18.0852 24.9022 18.3178M21.7379 14.2222C21.7379 16.5541 19.8489 18.4444 17.5187 18.4444C15.1885 18.4444 13.2995 16.5541 13.2995 14.2222C13.2995 11.8904 15.1885 10 17.5187 10C19.8489 10 21.7379 11.8904 21.7379 14.2222Z" stroke="white" stroke-linecap="round" stroke-linejoin="round"/>
<defs>
<filter id="filter0_i" x="0" y="0" width="113" height="44" filterUnits="userSpaceOnUse" color-interpolation-filters="sRGB">
<feFlood flood-opacity="0" result="BackgroundImageFix"/>
<feBlend mode="normal" in="SourceGraphic" in2="BackgroundImageFix" result="shape"/>
<feColorMatrix in="SourceAlpha" type="matrix" values="0 0 0 0 0 0 0 0 0 0 0 0 0 0 0 0 0 0 127 0" result="hardAlpha"/>
<feOffset dy="4"/>
<feGaussianBlur stdDeviation="2"/>
<feComposite in2="hardAlpha" operator="arithmetic" k2="-1" k3="1"/>
<feColorMatrix type="matrix" values="0 0 0 0 0 0 0 0 0 0 0 0 0 0 0 0 0 0 0.25 0"/>
<feBlend mode="normal" in2="shape" result="effect1_innerShadow"/>
</filter>
</defs>
</svg>
