<svg width="25" height="21" viewBox="0 0 25 21" fill="none" xmlns="http://www.w3.org/2000/svg">
<path d="M17.7273 20V17.8889C17.7273 16.7691 17.2867 15.6951 16.5024 14.9033C15.7182 14.1115 14.6545 13.6667 13.5455 13.6667H5.18182C4.07273 13.6667 3.00907 14.1115 2.22483 14.9033C1.44058 15.6951 1 16.7691 1 17.8889V20M24 20V17.8889C23.9993 16.9534 23.6909 16.0446 23.1232 15.3052C22.5556 14.5659 21.7608 14.0378 20.8636 13.8039M16.6818 1.13722C17.5813 1.36976 18.3786 1.89796 18.948 2.63855C19.5173 3.37914 19.8264 4.28999 19.8264 5.2275C19.8264 6.16501 19.5173 7.07586 18.948 7.81645C18.3786 8.55704 17.5813 9.08524 16.6818 9.31778M13.5455 5.22222C13.5455 7.55409 11.6732 9.44444 9.36364 9.44444C7.05408 9.44444 5.18182 7.55409 5.18182 5.22222C5.18182 2.89035 7.05408 1 9.36364 1C11.6732 1 13.5455 2.89035 13.5455 5.22222Z" stroke="#999999" stroke-linecap="round" stroke-linejoin="round"/>
</svg>
