<svg width="187" height="34" viewBox="0 0 187 34" fill="none" xmlns="http://www.w3.org/2000/svg">
<rect x="0.5" y="0.5" width="186" height="33" rx="16.5" stroke="#2A6049"/>
<path d="M43.3936 23.2812C46.0967 23.2812 47.792 21.9062 47.792 19.7109V19.7031C47.792 18 46.7998 17.0469 44.4248 16.5469L43.2139 16.2891C41.8076 15.9922 41.2373 15.4922 41.2373 14.6953V14.6875C41.2373 13.7266 42.1279 13.1406 43.3779 13.1406C44.667 13.1328 45.5029 13.7578 45.6436 14.6328L45.6592 14.7266H47.5889L47.5811 14.625C47.4404 12.8125 45.8857 11.4453 43.3857 11.4453C40.9482 11.4453 39.2139 12.8047 39.2139 14.8203V14.8281C39.2139 16.5078 40.2139 17.5859 42.5186 18.0703L43.7295 18.3203C45.1826 18.6328 45.7686 19.125 45.7686 19.9375V19.9453C45.7686 20.9141 44.8154 21.5859 43.4561 21.5859C42.0264 21.5859 41.0186 20.9609 40.9248 20.0156L40.917 19.9375H38.9639L38.9717 20.0469C39.1123 21.9922 40.7764 23.2812 43.3936 23.2812ZM52.1045 23.1406C53.2295 23.1406 54.1357 22.6562 54.6045 21.8281H54.7373V23H56.6592V17.1641C56.6592 15.3594 55.4248 14.2969 53.2295 14.2969C51.1982 14.2969 49.8232 15.25 49.6357 16.6875L49.6279 16.7578H51.4639L51.4717 16.7266C51.667 16.1641 52.2451 15.8438 53.1357 15.8438C54.1826 15.8438 54.7373 16.3125 54.7373 17.1641V17.8984L52.542 18.0312C50.4639 18.1562 49.2998 19.0469 49.2998 20.5703V20.5859C49.2998 22.1406 50.4795 23.1406 52.1045 23.1406ZM51.2217 20.4922V20.4766C51.2217 19.7734 51.7295 19.375 52.8154 19.3047L54.7373 19.1797V19.8672C54.7373 20.8828 53.8701 21.6484 52.6982 21.6484C51.8389 21.6484 51.2217 21.2188 51.2217 20.4922ZM61.0264 23H63.1592L66.1826 14.4609H64.1357L62.1748 21.1016H62.042L60.0654 14.4609H57.9873L61.0264 23ZM71.1357 23.1719C73.4561 23.1719 74.5967 21.8359 74.8701 20.7344L74.8936 20.6641H73.042L73.0186 20.7188C72.8311 21.1094 72.2295 21.6406 71.1748 21.6406C69.8545 21.6406 69.0264 20.75 69.0029 19.2188H74.9717V18.5781C74.9717 16 73.4717 14.2969 71.042 14.2969C68.6123 14.2969 67.0576 16.0547 67.0576 18.7422V18.75C67.0576 21.4688 68.5967 23.1719 71.1357 23.1719ZM71.0654 15.8203C72.1514 15.8203 72.9404 16.5156 73.0732 17.9141H69.0186C69.167 16.5547 69.9795 15.8203 71.0654 15.8203ZM86.0889 23.2812C88.6904 23.2812 90.5576 21.7734 90.8545 19.5156V19.4609H88.8779L88.8701 19.5C88.5811 20.7422 87.5186 21.5391 86.0889 21.5391C84.167 21.5391 82.9717 19.9375 82.9717 17.3672V17.3516C82.9717 14.7891 84.167 13.1875 86.0811 13.1875C87.5029 13.1875 88.5811 14.0703 88.8701 15.4062L88.8779 15.4375H90.8545V15.375C90.5889 13.0703 88.6436 11.4453 86.0811 11.4453C82.8857 11.4453 80.9092 13.7031 80.9092 17.3594V17.375C80.9092 21.0156 82.8936 23.2812 86.0889 23.2812ZM92.9795 23H94.9248V18.0234C94.9248 16.7422 95.6436 15.9297 96.7998 15.9297C97.9795 15.9297 98.5186 16.6016 98.5186 17.9297V23H100.464V17.4766C100.464 15.4453 99.4248 14.2969 97.5186 14.2969C96.2842 14.2969 95.4639 14.8516 95.0576 15.7656H94.9248V11.1562H92.9795V23ZM105.089 23.1406C106.214 23.1406 107.12 22.6562 107.589 21.8281H107.722V23H109.644V17.1641C109.644 15.3594 108.409 14.2969 106.214 14.2969C104.183 14.2969 102.808 15.25 102.62 16.6875L102.612 16.7578H104.448L104.456 16.7266C104.651 16.1641 105.229 15.8438 106.12 15.8438C107.167 15.8438 107.722 16.3125 107.722 17.1641V17.8984L105.526 18.0312C103.448 18.1562 102.284 19.0469 102.284 20.5703V20.5859C102.284 22.1406 103.464 23.1406 105.089 23.1406ZM104.206 20.4922V20.4766C104.206 19.7734 104.714 19.375 105.8 19.3047L107.722 19.1797V19.8672C107.722 20.8828 106.854 21.6484 105.683 21.6484C104.823 21.6484 104.206 21.2188 104.206 20.4922ZM111.979 23H113.925V18.0234C113.925 16.7422 114.644 15.9297 115.8 15.9297C116.979 15.9297 117.519 16.6016 117.519 17.9297V23H119.464V17.4766C119.464 15.4453 118.425 14.2969 116.519 14.2969C115.284 14.2969 114.464 14.8516 114.058 15.7656H113.925V14.4609H111.979V23ZM125.433 26C127.925 26 129.503 24.7578 129.503 22.7891V14.4609H127.558V15.8672H127.456C126.972 14.8984 126.05 14.3203 124.87 14.3203C122.667 14.3203 121.323 16.0234 121.323 18.4922V18.5078C121.323 20.9297 122.667 22.6016 124.831 22.6016C126.011 22.6016 126.94 22.1016 127.433 21.1875H127.565V22.8203C127.565 23.9141 126.792 24.5312 125.464 24.5312C124.378 24.5312 123.729 24.1484 123.597 23.6016L123.589 23.5781H121.644L121.636 23.6016C121.831 25.0391 123.183 26 125.433 26ZM125.433 21.0547C124.081 21.0547 123.315 20.0156 123.315 18.5078V18.4922C123.315 16.9844 124.081 15.9375 125.433 15.9375C126.776 15.9375 127.597 16.9844 127.597 18.4922V18.5078C127.597 20.0156 126.784 21.0547 125.433 21.0547ZM135.542 23.1719C137.862 23.1719 139.003 21.8359 139.276 20.7344L139.3 20.6641H137.448L137.425 20.7188C137.237 21.1094 136.636 21.6406 135.581 21.6406C134.261 21.6406 133.433 20.75 133.409 19.2188H139.378V18.5781C139.378 16 137.878 14.2969 135.448 14.2969C133.019 14.2969 131.464 16.0547 131.464 18.7422V18.75C131.464 21.4688 133.003 23.1719 135.542 23.1719ZM135.472 15.8203C136.558 15.8203 137.347 16.5156 137.479 17.9141H133.425C133.573 16.5547 134.386 15.8203 135.472 15.8203ZM144.55 23.1719C146.651 23.1719 148.175 22.0859 148.175 20.4609V20.4453C148.175 19.2031 147.386 18.4922 145.714 18.1172L144.331 17.8125C143.409 17.6016 143.05 17.2969 143.05 16.7969V16.7891C143.05 16.1484 143.675 15.7266 144.542 15.7266C145.456 15.7266 146.019 16.1641 146.159 16.7031L146.167 16.7266H147.995V16.7109C147.87 15.3281 146.628 14.2969 144.55 14.2969C142.534 14.2969 141.128 15.3594 141.128 16.8984V16.9062C141.128 18.1641 141.901 18.9297 143.526 19.2891L144.909 19.6016C145.847 19.8125 146.222 20.1406 146.222 20.6406V20.6562C146.222 21.2969 145.55 21.7344 144.581 21.7344C143.612 21.7344 143.042 21.3203 142.839 20.7266L142.831 20.7109H140.901V20.7266C141.065 22.1719 142.378 23.1719 144.55 23.1719Z" fill="#2A6049"/>
</svg>
