<svg width="257" height="273" viewBox="0 0 257 273" fill="none" xmlns="http://www.w3.org/2000/svg">
<path d="M18.3184 208.232C20.417 208.232 21.9756 207.063 22.3037 205.259V205.245H21.0596L21.0459 205.259C20.7383 206.394 19.6924 207.098 18.3184 207.098C16.418 207.098 15.2285 205.546 15.2285 203.078V203.064C15.2285 200.597 16.418 199.038 18.3115 199.038C19.6719 199.038 20.7246 199.838 21.0527 201.103L21.0596 201.116H22.2969L22.3037 201.103C22.0098 199.209 20.3896 197.903 18.3115 197.903C15.6318 197.903 13.9639 199.886 13.9639 203.064V203.078C13.9639 206.25 15.6387 208.232 18.3184 208.232ZM24.2861 208H25.4756V197.705H24.2861V208ZM28.3877 199.209C28.8389 199.209 29.208 198.84 29.208 198.389C29.208 197.938 28.8389 197.568 28.3877 197.568C27.9365 197.568 27.5674 197.938 27.5674 198.389C27.5674 198.84 27.9365 199.209 28.3877 199.209ZM27.7861 208H28.9756V200.631H27.7861V208ZM34.2324 208.13C36.0029 208.13 36.9941 207.18 37.2949 205.847L37.3086 205.771L36.1328 205.778L36.1191 205.819C35.8457 206.64 35.2168 207.077 34.2256 207.077C32.9131 207.077 32.0654 205.99 32.0654 204.295V204.281C32.0654 202.62 32.8994 201.554 34.2256 201.554C35.2852 201.554 35.9414 202.142 36.126 202.866L36.1328 202.887H37.3154L37.3086 202.846C37.0898 201.533 36.0166 200.501 34.2256 200.501C32.1611 200.501 30.8486 201.991 30.8486 204.281V204.295C30.8486 206.633 32.168 208.13 34.2324 208.13ZM39.1201 208H40.3096V205.204L41 204.534L43.7617 208H45.2588L41.834 203.728L45.0469 200.631H43.6045L40.4189 203.851H40.3096V197.705H39.1201V208ZM53.209 208.055C53.4414 208.055 53.667 208.027 53.8994 207.986V206.975C53.6807 206.995 53.5645 207.002 53.3525 207.002C52.5869 207.002 52.2861 206.653 52.2861 205.785V201.615H53.8994V200.631H52.2861V198.724H51.0557V200.631H49.8936V201.615H51.0557V206.086C51.0557 207.494 51.6914 208.055 53.209 208.055ZM55.7451 208H56.9346V203.639C56.9346 202.347 57.6797 201.554 58.8555 201.554C60.0312 201.554 60.5781 202.189 60.5781 203.516V208H61.7676V203.229C61.7676 201.479 60.8447 200.501 59.1904 200.501C58.1035 200.501 57.4131 200.959 57.0439 201.738H56.9346V197.705H55.7451V208ZM66.9287 208.13C68.665 208.13 69.7178 207.146 69.9707 206.147L69.9844 206.093H68.7949L68.7676 206.154C68.5693 206.599 67.9541 207.07 66.9561 207.07C65.6436 207.07 64.8027 206.182 64.7686 204.657H70.0732V204.192C70.0732 201.991 68.8564 200.501 66.8535 200.501C64.8506 200.501 63.5518 202.06 63.5518 204.336V204.343C63.5518 206.653 64.8232 208.13 66.9287 208.13ZM66.8467 201.561C67.9336 201.561 68.7402 202.251 68.8633 203.707H64.7891C64.9189 202.306 65.7529 201.561 66.8467 201.561ZM79.5205 208.13C81.3867 208.13 82.6104 206.619 82.6104 204.322V204.309C82.6104 201.998 81.3936 200.501 79.5205 200.501C78.5088 200.501 77.627 201.007 77.2236 201.793H77.1143V197.705H75.9248V208H77.1143V206.824H77.2236C77.6748 207.645 78.4951 208.13 79.5205 208.13ZM79.2471 207.077C77.9072 207.077 77.0869 206.024 77.0869 204.322V204.309C77.0869 202.606 77.9072 201.554 79.2471 201.554C80.5938 201.554 81.3936 202.593 81.3936 204.309V204.322C81.3936 206.038 80.5938 207.077 79.2471 207.077ZM86.9238 208.13C88.0039 208.13 88.749 207.686 89.1113 206.899H89.2207V208H90.4102V200.631H89.2207V204.992C89.2207 206.284 88.5303 207.077 87.2314 207.077C86.0557 207.077 85.5771 206.441 85.5771 205.115V200.631H84.3877V205.402C84.3877 207.146 85.249 208.13 86.9238 208.13ZM95.25 208.055C95.4824 208.055 95.708 208.027 95.9404 207.986V206.975C95.7217 206.995 95.6055 207.002 95.3936 207.002C94.6279 207.002 94.3271 206.653 94.3271 205.785V201.615H95.9404V200.631H94.3271V198.724H93.0967V200.631H91.9346V201.615H93.0967V206.086C93.0967 207.494 93.7324 208.055 95.25 208.055ZM100.336 208.055C100.568 208.055 100.794 208.027 101.026 207.986V206.975C100.808 206.995 100.691 207.002 100.479 207.002C99.7139 207.002 99.4131 206.653 99.4131 205.785V201.615H101.026V200.631H99.4131V198.724H98.1826V200.631H97.0205V201.615H98.1826V206.086C98.1826 207.494 98.8184 208.055 100.336 208.055ZM105.723 208.13C107.821 208.13 109.12 206.681 109.12 204.322V204.309C109.12 201.943 107.821 200.501 105.723 200.501C103.624 200.501 102.325 201.943 102.325 204.309V204.322C102.325 206.681 103.624 208.13 105.723 208.13ZM105.723 207.077C104.328 207.077 103.542 206.059 103.542 204.322V204.309C103.542 202.565 104.328 201.554 105.723 201.554C107.117 201.554 107.903 202.565 107.903 204.309V204.322C107.903 206.059 107.117 207.077 105.723 207.077ZM110.966 208H112.155V203.639C112.155 202.347 112.9 201.554 114.076 201.554C115.252 201.554 115.799 202.189 115.799 203.516V208H116.988V203.229C116.988 201.479 116.065 200.501 114.411 200.501C113.324 200.501 112.634 200.959 112.265 201.738H112.155V200.631H110.966V208ZM126.743 208.13C128.609 208.13 129.833 206.619 129.833 204.322V204.309C129.833 201.998 128.616 200.501 126.743 200.501C125.731 200.501 124.85 201.007 124.446 201.793H124.337V197.705H123.147V208H124.337V206.824H124.446C124.897 207.645 125.718 208.13 126.743 208.13ZM126.47 207.077C125.13 207.077 124.31 206.024 124.31 204.322V204.309C124.31 202.606 125.13 201.554 126.47 201.554C127.816 201.554 128.616 202.593 128.616 204.309V204.322C128.616 206.038 127.816 207.077 126.47 207.077ZM134.687 208.13C136.423 208.13 137.476 207.146 137.729 206.147L137.742 206.093H136.553L136.525 206.154C136.327 206.599 135.712 207.07 134.714 207.07C133.401 207.07 132.561 206.182 132.526 204.657H137.831V204.192C137.831 201.991 136.614 200.501 134.611 200.501C132.608 200.501 131.31 202.06 131.31 204.336V204.343C131.31 206.653 132.581 208.13 134.687 208.13ZM134.604 201.561C135.691 201.561 136.498 202.251 136.621 203.707H132.547C132.677 202.306 133.511 201.561 134.604 201.561ZM139.745 208H140.935V197.705H139.745V208ZM146.246 208.13C148.345 208.13 149.644 206.681 149.644 204.322V204.309C149.644 201.943 148.345 200.501 146.246 200.501C144.147 200.501 142.849 201.943 142.849 204.309V204.322C142.849 206.681 144.147 208.13 146.246 208.13ZM146.246 207.077C144.852 207.077 144.065 206.059 144.065 204.322V204.309C144.065 202.565 144.852 201.554 146.246 201.554C147.641 201.554 148.427 202.565 148.427 204.309V204.322C148.427 206.059 147.641 207.077 146.246 207.077ZM152.638 208H153.827L155.468 202.299H155.577L157.225 208H158.421L160.485 200.631H159.303L157.854 206.523H157.744L156.097 200.631H154.969L153.321 206.523H153.212L151.763 200.631H150.573L152.638 208ZM168.613 208.055C168.846 208.055 169.071 208.027 169.304 207.986V206.975C169.085 206.995 168.969 207.002 168.757 207.002C167.991 207.002 167.69 206.653 167.69 205.785V201.615H169.304V200.631H167.69V198.724H166.46V200.631H165.298V201.615H166.46V206.086C166.46 207.494 167.096 208.055 168.613 208.055ZM174 208.13C176.099 208.13 177.397 206.681 177.397 204.322V204.309C177.397 201.943 176.099 200.501 174 200.501C171.901 200.501 170.603 201.943 170.603 204.309V204.322C170.603 206.681 171.901 208.13 174 208.13ZM174 207.077C172.605 207.077 171.819 206.059 171.819 204.322V204.309C171.819 202.565 172.605 201.554 174 201.554C175.395 201.554 176.181 202.565 176.181 204.309V204.322C176.181 206.059 175.395 207.077 174 207.077ZM183.181 208H184.37V203.434C184.37 202.354 185.177 201.636 186.312 201.636C186.571 201.636 186.797 201.663 187.043 201.704V200.549C186.927 200.528 186.674 200.501 186.448 200.501C185.45 200.501 184.76 200.952 184.479 201.725H184.37V200.631H183.181V208ZM191.315 208.13C193.052 208.13 194.104 207.146 194.357 206.147L194.371 206.093H193.182L193.154 206.154C192.956 206.599 192.341 207.07 191.343 207.07C190.03 207.07 189.189 206.182 189.155 204.657H194.46V204.192C194.46 201.991 193.243 200.501 191.24 200.501C189.237 200.501 187.938 202.06 187.938 204.336V204.343C187.938 206.653 189.21 208.13 191.315 208.13ZM191.233 201.561C192.32 201.561 193.127 202.251 193.25 203.707H189.176C189.306 202.306 190.14 201.561 191.233 201.561ZM201.446 210.461H202.636V200.631H201.446V201.861H201.364C200.893 201.021 200.024 200.501 199.033 200.501C197.153 200.501 195.937 201.998 195.937 204.309V204.322C195.937 206.619 197.16 208.13 199.033 208.13C200.086 208.13 200.934 207.672 201.337 206.893H201.446V210.461ZM199.313 207.077C197.96 207.077 197.153 206.038 197.153 204.322V204.309C197.153 202.593 197.96 201.554 199.307 201.554C200.64 201.554 201.48 202.613 201.48 204.309V204.322C201.48 206.011 200.64 207.077 199.313 207.077ZM207.305 208.13C208.385 208.13 209.13 207.686 209.492 206.899H209.602V208H210.791V200.631H209.602V204.992C209.602 206.284 208.911 207.077 207.612 207.077C206.437 207.077 205.958 206.441 205.958 205.115V200.631H204.769V205.402C204.769 207.146 205.63 208.13 207.305 208.13ZM216.021 208.13C217.757 208.13 218.81 207.146 219.062 206.147L219.076 206.093H217.887L217.859 206.154C217.661 206.599 217.046 207.07 216.048 207.07C214.735 207.07 213.895 206.182 213.86 204.657H219.165V204.192C219.165 201.991 217.948 200.501 215.945 200.501C213.942 200.501 212.644 202.06 212.644 204.336V204.343C212.644 206.653 213.915 208.13 216.021 208.13ZM215.938 201.561C217.025 201.561 217.832 202.251 217.955 203.707H213.881C214.011 202.306 214.845 201.561 215.938 201.561ZM223.54 208.13C225.215 208.13 226.493 207.221 226.493 205.908V205.895C226.493 204.842 225.823 204.24 224.436 203.905L223.301 203.632C222.433 203.42 222.063 203.105 222.063 202.606V202.593C222.063 201.943 222.706 201.492 223.581 201.492C224.47 201.492 225.044 201.896 225.201 202.477H226.37C226.206 201.273 225.133 200.501 223.588 200.501C222.022 200.501 220.847 201.424 220.847 202.647V202.654C220.847 203.714 221.469 204.315 222.85 204.644L223.991 204.917C224.9 205.136 225.276 205.484 225.276 205.983V205.997C225.276 206.667 224.572 207.139 223.581 207.139C222.638 207.139 222.05 206.735 221.852 206.12H220.635C220.771 207.337 221.899 208.13 223.54 208.13ZM230.889 208.055C231.121 208.055 231.347 208.027 231.579 207.986V206.975C231.36 206.995 231.244 207.002 231.032 207.002C230.267 207.002 229.966 206.653 229.966 205.785V201.615H231.579V200.631H229.966V198.724H228.735V200.631H227.573V201.615H228.735V206.086C228.735 207.494 229.371 208.055 230.889 208.055ZM239.317 208.13C240.309 208.13 241.081 207.699 241.546 206.913H241.655V208H242.845V202.955C242.845 201.424 241.84 200.501 240.042 200.501C238.47 200.501 237.349 201.28 237.157 202.436L237.15 202.477H238.34L238.347 202.456C238.538 201.882 239.119 201.554 240.001 201.554C241.102 201.554 241.655 202.046 241.655 202.955V203.625L239.543 203.755C237.827 203.857 236.856 204.616 236.856 205.929V205.942C236.856 207.282 237.916 208.13 239.317 208.13ZM238.073 205.915V205.901C238.073 205.17 238.565 204.773 239.687 204.705L241.655 204.582V205.252C241.655 206.305 240.773 207.098 239.563 207.098C238.709 207.098 238.073 206.66 238.073 205.915ZM67.7627 230.461H68.9521V226.838H69.0615C69.4648 227.624 70.3467 228.13 71.3584 228.13C73.2314 228.13 74.4482 226.633 74.4482 224.322V224.309C74.4482 222.012 73.2246 220.501 71.3584 220.501C70.333 220.501 69.5127 220.986 69.0615 221.807H68.9521V220.631H67.7627V230.461ZM71.085 227.077C69.7451 227.077 68.9248 226.024 68.9248 224.322V224.309C68.9248 222.606 69.7451 221.554 71.085 221.554C72.4316 221.554 73.2314 222.593 73.2314 224.309V224.322C73.2314 226.038 72.4316 227.077 71.085 227.077ZM78.3311 228.13C79.3223 228.13 80.0947 227.699 80.5596 226.913H80.6689V228H81.8584V222.955C81.8584 221.424 80.8535 220.501 79.0557 220.501C77.4834 220.501 76.3623 221.28 76.1709 222.436L76.1641 222.477H77.3535L77.3604 222.456C77.5518 221.882 78.1328 221.554 79.0146 221.554C80.1152 221.554 80.6689 222.046 80.6689 222.955V223.625L78.5566 223.755C76.8408 223.857 75.8701 224.616 75.8701 225.929V225.942C75.8701 227.282 76.9297 228.13 78.3311 228.13ZM77.0869 225.915V225.901C77.0869 225.17 77.5791 224.773 78.7002 224.705L80.6689 224.582V225.252C80.6689 226.305 79.7871 227.098 78.5771 227.098C77.7227 227.098 77.0869 226.66 77.0869 225.915ZM86.5615 228.13C88.2363 228.13 89.5146 227.221 89.5146 225.908V225.895C89.5146 224.842 88.8447 224.24 87.457 223.905L86.3223 223.632C85.4541 223.42 85.085 223.105 85.085 222.606V222.593C85.085 221.943 85.7275 221.492 86.6025 221.492C87.4912 221.492 88.0654 221.896 88.2227 222.477H89.3916C89.2275 221.273 88.1543 220.501 86.6094 220.501C85.0439 220.501 83.8682 221.424 83.8682 222.647V222.654C83.8682 223.714 84.4902 224.315 85.8711 224.644L87.0127 224.917C87.9219 225.136 88.2979 225.484 88.2979 225.983V225.997C88.2979 226.667 87.5938 227.139 86.6025 227.139C85.6592 227.139 85.0713 226.735 84.873 226.12H83.6562C83.793 227.337 84.9209 228.13 86.5615 228.13ZM93.7529 228.13C95.4277 228.13 96.7061 227.221 96.7061 225.908V225.895C96.7061 224.842 96.0361 224.24 94.6484 223.905L93.5137 223.632C92.6455 223.42 92.2764 223.105 92.2764 222.606V222.593C92.2764 221.943 92.9189 221.492 93.7939 221.492C94.6826 221.492 95.2568 221.896 95.4141 222.477H96.583C96.4189 221.273 95.3457 220.501 93.8008 220.501C92.2354 220.501 91.0596 221.424 91.0596 222.647V222.654C91.0596 223.714 91.6816 224.315 93.0625 224.644L94.2041 224.917C95.1133 225.136 95.4893 225.484 95.4893 225.983V225.997C95.4893 226.667 94.7852 227.139 93.7939 227.139C92.8506 227.139 92.2627 226.735 92.0645 226.12H90.8477C90.9844 227.337 92.1123 228.13 93.7529 228.13ZM99.7686 228H100.958L102.599 222.299H102.708L104.355 228H105.552L107.616 220.631H106.434L104.984 226.523H104.875L103.228 220.631H102.1L100.452 226.523H100.343L98.8936 220.631H97.7041L99.7686 228ZM111.943 228.13C114.042 228.13 115.341 226.681 115.341 224.322V224.309C115.341 221.943 114.042 220.501 111.943 220.501C109.845 220.501 108.546 221.943 108.546 224.309V224.322C108.546 226.681 109.845 228.13 111.943 228.13ZM111.943 227.077C110.549 227.077 109.763 226.059 109.763 224.322V224.309C109.763 222.565 110.549 221.554 111.943 221.554C113.338 221.554 114.124 222.565 114.124 224.309V224.322C114.124 226.059 113.338 227.077 111.943 227.077ZM117.187 228H118.376V223.434C118.376 222.354 119.183 221.636 120.317 221.636C120.577 221.636 120.803 221.663 121.049 221.704V220.549C120.933 220.528 120.68 220.501 120.454 220.501C119.456 220.501 118.766 220.952 118.485 221.725H118.376V220.631H117.187V228ZM125.034 228.13C126.06 228.13 126.88 227.645 127.331 226.824H127.44V228H128.63V217.705H127.44V221.793H127.331C126.928 221.007 126.046 220.501 125.034 220.501C123.161 220.501 121.944 221.998 121.944 224.309V224.322C121.944 226.619 123.168 228.13 125.034 228.13ZM125.308 227.077C123.961 227.077 123.161 226.038 123.161 224.322V224.309C123.161 222.593 123.961 221.554 125.308 221.554C126.647 221.554 127.468 222.606 127.468 224.309V224.322C127.468 226.024 126.647 227.077 125.308 227.077ZM137.865 228.13C139.636 228.13 140.627 227.18 140.928 225.847L140.941 225.771L139.766 225.778L139.752 225.819C139.479 226.64 138.85 227.077 137.858 227.077C136.546 227.077 135.698 225.99 135.698 224.295V224.281C135.698 222.62 136.532 221.554 137.858 221.554C138.918 221.554 139.574 222.142 139.759 222.866L139.766 222.887H140.948L140.941 222.846C140.723 221.533 139.649 220.501 137.858 220.501C135.794 220.501 134.481 221.991 134.481 224.281V224.295C134.481 226.633 135.801 228.13 137.865 228.13ZM142.753 228H143.942V223.639C143.942 222.347 144.688 221.554 145.863 221.554C147.039 221.554 147.586 222.189 147.586 223.516V228H148.775V223.229C148.775 221.479 147.853 220.501 146.198 220.501C145.111 220.501 144.421 220.959 144.052 221.738H143.942V217.705H142.753V228ZM152.952 228.13C153.943 228.13 154.716 227.699 155.181 226.913H155.29V228H156.479V222.955C156.479 221.424 155.475 220.501 153.677 220.501C152.104 220.501 150.983 221.28 150.792 222.436L150.785 222.477H151.975L151.981 222.456C152.173 221.882 152.754 221.554 153.636 221.554C154.736 221.554 155.29 222.046 155.29 222.955V223.625L153.178 223.755C151.462 223.857 150.491 224.616 150.491 225.929V225.942C150.491 227.282 151.551 228.13 152.952 228.13ZM151.708 225.915V225.901C151.708 225.17 152.2 224.773 153.321 224.705L155.29 224.582V225.252C155.29 226.305 154.408 227.098 153.198 227.098C152.344 227.098 151.708 226.66 151.708 225.915ZM158.653 228H159.843V223.639C159.843 222.347 160.588 221.554 161.764 221.554C162.939 221.554 163.486 222.189 163.486 223.516V228H164.676V223.229C164.676 221.479 163.753 220.501 162.099 220.501C161.012 220.501 160.321 220.959 159.952 221.738H159.843V220.631H158.653V228ZM169.864 230.598C171.874 230.598 173.146 229.545 173.146 227.897V220.631H171.956V221.848H171.874C171.423 221.014 170.616 220.501 169.577 220.501C167.649 220.501 166.46 221.998 166.46 224.062V224.076C166.46 226.141 167.643 227.617 169.55 227.617C170.562 227.617 171.396 227.159 171.86 226.346H171.97V227.836C171.97 228.923 171.184 229.545 169.864 229.545C168.805 229.545 168.148 229.148 168.019 228.588L168.012 228.581H166.781L166.768 228.588C166.952 229.798 168.087 230.598 169.864 230.598ZM169.81 226.564C168.442 226.564 167.677 225.539 167.677 224.076V224.062C167.677 222.6 168.442 221.554 169.81 221.554C171.17 221.554 171.997 222.6 171.997 224.062V224.076C171.997 225.539 171.177 226.564 169.81 226.564ZM178.368 228.13C180.104 228.13 181.157 227.146 181.41 226.147L181.424 226.093H180.234L180.207 226.154C180.009 226.599 179.394 227.07 178.396 227.07C177.083 227.07 176.242 226.182 176.208 224.657H181.513V224.192C181.513 221.991 180.296 220.501 178.293 220.501C176.29 220.501 174.991 222.06 174.991 224.336V224.343C174.991 226.653 176.263 228.13 178.368 228.13ZM178.286 221.561C179.373 221.561 180.18 222.251 180.303 223.707H176.229C176.358 222.306 177.192 221.561 178.286 221.561ZM184.329 228.068C184.821 228.068 185.218 227.665 185.218 227.18C185.218 226.688 184.821 226.291 184.329 226.291C183.844 226.291 183.44 226.688 183.44 227.18C183.44 227.665 183.844 228.068 184.329 228.068ZM31.4707 248H32.7012V243.755L36.2012 238.136H34.7998L32.1406 242.518H32.0312L29.3721 238.136H27.9707L31.4707 243.755V248ZM39.6465 248.13C41.7451 248.13 43.0439 246.681 43.0439 244.322V244.309C43.0439 241.943 41.7451 240.501 39.6465 240.501C37.5479 240.501 36.249 241.943 36.249 244.309V244.322C36.249 246.681 37.5479 248.13 39.6465 248.13ZM39.6465 247.077C38.252 247.077 37.4658 246.059 37.4658 244.322V244.309C37.4658 242.565 38.252 241.554 39.6465 241.554C41.041 241.554 41.8271 242.565 41.8271 244.309V244.322C41.8271 246.059 41.041 247.077 39.6465 247.077ZM47.3574 248.13C48.4375 248.13 49.1826 247.686 49.5449 246.899H49.6543V248H50.8438V240.631H49.6543V244.992C49.6543 246.284 48.9639 247.077 47.665 247.077C46.4893 247.077 46.0107 246.441 46.0107 245.115V240.631H44.8213V245.402C44.8213 247.146 45.6826 248.13 47.3574 248.13ZM58.4248 248H59.6143L61.2549 242.299H61.3643L63.0117 248H64.208L66.2725 240.631H65.0898L63.6406 246.523H63.5312L61.8838 240.631H60.7559L59.1084 246.523H58.999L57.5498 240.631H56.3604L58.4248 248ZM68.4736 239.209C68.9248 239.209 69.2939 238.84 69.2939 238.389C69.2939 237.938 68.9248 237.568 68.4736 237.568C68.0225 237.568 67.6533 237.938 67.6533 238.389C67.6533 238.84 68.0225 239.209 68.4736 239.209ZM67.8721 248H69.0615V240.631H67.8721V248ZM71.3721 248H72.5615V237.705H71.3721V248ZM74.9131 248H76.1025V237.705H74.9131V248ZM82.3232 248H83.5127V243.434C83.5127 242.354 84.3193 241.636 85.4541 241.636C85.7139 241.636 85.9395 241.663 86.1855 241.704V240.549C86.0693 240.528 85.8164 240.501 85.5908 240.501C84.5928 240.501 83.9023 240.952 83.6221 241.725H83.5127V240.631H82.3232V248ZM90.458 248.13C92.1943 248.13 93.2471 247.146 93.5 246.147L93.5137 246.093H92.3242L92.2969 246.154C92.0986 246.599 91.4834 247.07 90.4854 247.07C89.1729 247.07 88.332 246.182 88.2979 244.657H93.6025V244.192C93.6025 241.991 92.3857 240.501 90.3828 240.501C88.3799 240.501 87.0811 242.06 87.0811 244.336V244.343C87.0811 246.653 88.3525 248.13 90.458 248.13ZM90.376 241.561C91.4629 241.561 92.2695 242.251 92.3926 243.707H88.3184C88.4482 242.306 89.2822 241.561 90.376 241.561ZM98.4629 248.13C100.233 248.13 101.225 247.18 101.525 245.847L101.539 245.771L100.363 245.778L100.35 245.819C100.076 246.64 99.4473 247.077 98.4561 247.077C97.1436 247.077 96.2959 245.99 96.2959 244.295V244.281C96.2959 242.62 97.1299 241.554 98.4561 241.554C99.5156 241.554 100.172 242.142 100.356 242.866L100.363 242.887H101.546L101.539 242.846C101.32 241.533 100.247 240.501 98.4561 240.501C96.3916 240.501 95.0791 241.991 95.0791 244.281V244.295C95.0791 246.633 96.3984 248.13 98.4629 248.13ZM103.911 239.209C104.362 239.209 104.731 238.84 104.731 238.389C104.731 237.938 104.362 237.568 103.911 237.568C103.46 237.568 103.091 237.938 103.091 238.389C103.091 238.84 103.46 239.209 103.911 239.209ZM103.31 248H104.499V240.631H103.31V248ZM109.749 248.13C111.485 248.13 112.538 247.146 112.791 246.147L112.805 246.093H111.615L111.588 246.154C111.39 246.599 110.774 247.07 109.776 247.07C108.464 247.07 107.623 246.182 107.589 244.657H112.894V244.192C112.894 241.991 111.677 240.501 109.674 240.501C107.671 240.501 106.372 242.06 106.372 244.336V244.343C106.372 246.653 107.644 248.13 109.749 248.13ZM109.667 241.561C110.754 241.561 111.561 242.251 111.684 243.707H107.609C107.739 242.306 108.573 241.561 109.667 241.561ZM116.688 248H117.891L120.618 240.631H119.36L117.344 246.701H117.234L115.218 240.631H113.96L116.688 248ZM124.925 248.13C126.661 248.13 127.714 247.146 127.967 246.147L127.98 246.093H126.791L126.764 246.154C126.565 246.599 125.95 247.07 124.952 247.07C123.64 247.07 122.799 246.182 122.765 244.657H128.069V244.192C128.069 241.991 126.853 240.501 124.85 240.501C122.847 240.501 121.548 242.06 121.548 244.336V244.343C121.548 246.653 122.819 248.13 124.925 248.13ZM124.843 241.561C125.93 241.561 126.736 242.251 126.859 243.707H122.785C122.915 242.306 123.749 241.561 124.843 241.561ZM135.876 248.13C136.867 248.13 137.64 247.699 138.104 246.913H138.214V248H139.403V242.955C139.403 241.424 138.398 240.501 136.601 240.501C135.028 240.501 133.907 241.28 133.716 242.436L133.709 242.477H134.898L134.905 242.456C135.097 241.882 135.678 241.554 136.56 241.554C137.66 241.554 138.214 242.046 138.214 242.955V243.625L136.102 243.755C134.386 243.857 133.415 244.616 133.415 245.929V245.942C133.415 247.282 134.475 248.13 135.876 248.13ZM134.632 245.915V245.901C134.632 245.17 135.124 244.773 136.245 244.705L138.214 244.582V245.252C138.214 246.305 137.332 247.098 136.122 247.098C135.268 247.098 134.632 246.66 134.632 245.915ZM141.577 248H142.767V243.639C142.767 242.347 143.512 241.554 144.688 241.554C145.863 241.554 146.41 242.189 146.41 243.516V248H147.6V243.229C147.6 241.479 146.677 240.501 145.022 240.501C143.936 240.501 143.245 240.959 142.876 241.738H142.767V240.631H141.577V248ZM156.698 248.13C158.435 248.13 159.487 247.146 159.74 246.147L159.754 246.093H158.564L158.537 246.154C158.339 246.599 157.724 247.07 156.726 247.07C155.413 247.07 154.572 246.182 154.538 244.657H159.843V244.192C159.843 241.991 158.626 240.501 156.623 240.501C154.62 240.501 153.321 242.06 153.321 244.336V244.343C153.321 246.653 154.593 248.13 156.698 248.13ZM156.616 241.561C157.703 241.561 158.51 242.251 158.633 243.707H154.559C154.688 242.306 155.522 241.561 156.616 241.561ZM161.688 248H162.878V243.434C162.878 242.395 163.609 241.554 164.573 241.554C165.503 241.554 166.104 242.121 166.104 242.996V248H167.294V243.263C167.294 242.326 167.971 241.554 168.996 241.554C170.035 241.554 170.534 242.094 170.534 243.181V248H171.724V242.907C171.724 241.362 170.883 240.501 169.379 240.501C168.36 240.501 167.52 241.014 167.123 241.793H167.014C166.672 241.027 165.975 240.501 164.977 240.501C164.013 240.501 163.315 240.959 162.987 241.752H162.878V240.631H161.688V248ZM175.894 248.13C176.885 248.13 177.657 247.699 178.122 246.913H178.231V248H179.421V242.955C179.421 241.424 178.416 240.501 176.618 240.501C175.046 240.501 173.925 241.28 173.733 242.436L173.727 242.477H174.916L174.923 242.456C175.114 241.882 175.695 241.554 176.577 241.554C177.678 241.554 178.231 242.046 178.231 242.955V243.625L176.119 243.755C174.403 243.857 173.433 244.616 173.433 245.929V245.942C173.433 247.282 174.492 248.13 175.894 248.13ZM174.649 245.915V245.901C174.649 245.17 175.142 244.773 176.263 244.705L178.231 244.582V245.252C178.231 246.305 177.35 247.098 176.14 247.098C175.285 247.098 174.649 246.66 174.649 245.915ZM182.224 239.209C182.675 239.209 183.044 238.84 183.044 238.389C183.044 237.938 182.675 237.568 182.224 237.568C181.772 237.568 181.403 237.938 181.403 238.389C181.403 238.84 181.772 239.209 182.224 239.209ZM181.622 248H182.812V240.631H181.622V248ZM185.122 248H186.312V237.705H185.122V248ZM194.556 248.13C195.547 248.13 196.319 247.699 196.784 246.913H196.894V248H198.083V242.955C198.083 241.424 197.078 240.501 195.28 240.501C193.708 240.501 192.587 241.28 192.396 242.436L192.389 242.477H193.578L193.585 242.456C193.776 241.882 194.357 241.554 195.239 241.554C196.34 241.554 196.894 242.046 196.894 242.955V243.625L194.781 243.755C193.065 243.857 192.095 244.616 192.095 245.929V245.942C192.095 247.282 193.154 248.13 194.556 248.13ZM193.312 245.915V245.901C193.312 245.17 193.804 244.773 194.925 244.705L196.894 244.582V245.252C196.894 246.305 196.012 247.098 194.802 247.098C193.947 247.098 193.312 246.66 193.312 245.915ZM202.875 248.055C203.107 248.055 203.333 248.027 203.565 247.986V246.975C203.347 246.995 203.23 247.002 203.019 247.002C202.253 247.002 201.952 246.653 201.952 245.785V241.615H203.565V240.631H201.952V238.724H200.722V240.631H199.56V241.615H200.722V246.086C200.722 247.494 201.357 248.055 202.875 248.055ZM211.898 248.055C212.131 248.055 212.356 248.027 212.589 247.986V246.975C212.37 246.995 212.254 247.002 212.042 247.002C211.276 247.002 210.976 246.653 210.976 245.785V241.615H212.589V240.631H210.976V238.724H209.745V240.631H208.583V241.615H209.745V246.086C209.745 247.494 210.381 248.055 211.898 248.055ZM214.435 248H215.624V243.639C215.624 242.347 216.369 241.554 217.545 241.554C218.721 241.554 219.268 242.189 219.268 243.516V248H220.457V243.229C220.457 241.479 219.534 240.501 217.88 240.501C216.793 240.501 216.103 240.959 215.733 241.738H215.624V237.705H214.435V248ZM225.618 248.13C227.354 248.13 228.407 247.146 228.66 246.147L228.674 246.093H227.484L227.457 246.154C227.259 246.599 226.644 247.07 225.646 247.07C224.333 247.07 223.492 246.182 223.458 244.657H228.763V244.192C228.763 241.991 227.546 240.501 225.543 240.501C223.54 240.501 222.241 242.06 222.241 244.336V244.343C222.241 246.653 223.513 248.13 225.618 248.13ZM225.536 241.561C226.623 241.561 227.43 242.251 227.553 243.707H223.479C223.608 242.306 224.442 241.561 225.536 241.561ZM4.91992 268.13C5.91113 268.13 6.68359 267.699 7.14844 266.913H7.25781V268H8.44727V262.955C8.44727 261.424 7.44238 260.501 5.64453 260.501C4.07227 260.501 2.95117 261.28 2.75977 262.436L2.75293 262.477H3.94238L3.94922 262.456C4.14062 261.882 4.72168 261.554 5.60352 261.554C6.7041 261.554 7.25781 262.046 7.25781 262.955V263.625L5.14551 263.755C3.42969 263.857 2.45898 264.616 2.45898 265.929V265.942C2.45898 267.282 3.51855 268.13 4.91992 268.13ZM3.67578 265.915V265.901C3.67578 265.17 4.16797 264.773 5.28906 264.705L7.25781 264.582V265.252C7.25781 266.305 6.37598 267.098 5.16602 267.098C4.31152 267.098 3.67578 266.66 3.67578 265.915ZM13.3418 268.13C14.3672 268.13 15.1875 267.645 15.6387 266.824H15.748V268H16.9375V257.705H15.748V261.793H15.6387C15.2354 261.007 14.3535 260.501 13.3418 260.501C11.4688 260.501 10.252 261.998 10.252 264.309V264.322C10.252 266.619 11.4756 268.13 13.3418 268.13ZM13.6152 267.077C12.2686 267.077 11.4688 266.038 11.4688 264.322V264.309C11.4688 262.593 12.2686 261.554 13.6152 261.554C14.9551 261.554 15.7754 262.606 15.7754 264.309V264.322C15.7754 266.024 14.9551 267.077 13.6152 267.077ZM21.9414 268.13C22.9668 268.13 23.7871 267.645 24.2383 266.824H24.3477V268H25.5371V257.705H24.3477V261.793H24.2383C23.835 261.007 22.9531 260.501 21.9414 260.501C20.0684 260.501 18.8516 261.998 18.8516 264.309V264.322C18.8516 266.619 20.0752 268.13 21.9414 268.13ZM22.2148 267.077C20.8682 267.077 20.0684 266.038 20.0684 264.322V264.309C20.0684 262.593 20.8682 261.554 22.2148 261.554C23.5547 261.554 24.375 262.606 24.375 264.309V264.322C24.375 266.024 23.5547 267.077 22.2148 267.077ZM27.8203 268H29.0098V263.434C29.0098 262.354 29.8164 261.636 30.9512 261.636C31.2109 261.636 31.4365 261.663 31.6826 261.704V260.549C31.5664 260.528 31.3135 260.501 31.0879 260.501C30.0898 260.501 29.3994 260.952 29.1191 261.725H29.0098V260.631H27.8203V268ZM35.9551 268.13C37.6914 268.13 38.7441 267.146 38.9971 266.147L39.0107 266.093H37.8213L37.7939 266.154C37.5957 266.599 36.9805 267.07 35.9824 267.07C34.6699 267.07 33.8291 266.182 33.7949 264.657H39.0996V264.192C39.0996 261.991 37.8828 260.501 35.8799 260.501C33.877 260.501 32.5781 262.06 32.5781 264.336V264.343C32.5781 266.653 33.8496 268.13 35.9551 268.13ZM35.873 261.561C36.96 261.561 37.7666 262.251 37.8896 263.707H33.8154C33.9453 262.306 34.7793 261.561 35.873 261.561ZM43.4746 268.13C45.1494 268.13 46.4277 267.221 46.4277 265.908V265.895C46.4277 264.842 45.7578 264.24 44.3701 263.905L43.2354 263.632C42.3672 263.42 41.998 263.105 41.998 262.606V262.593C41.998 261.943 42.6406 261.492 43.5156 261.492C44.4043 261.492 44.9785 261.896 45.1357 262.477H46.3047C46.1406 261.273 45.0674 260.501 43.5225 260.501C41.957 260.501 40.7812 261.424 40.7812 262.647V262.654C40.7812 263.714 41.4033 264.315 42.7842 264.644L43.9258 264.917C44.835 265.136 45.2109 265.484 45.2109 265.983V265.997C45.2109 266.667 44.5068 267.139 43.5156 267.139C42.5723 267.139 41.9844 266.735 41.7861 266.12H40.5693C40.7061 267.337 41.834 268.13 43.4746 268.13ZM50.666 268.13C52.3408 268.13 53.6191 267.221 53.6191 265.908V265.895C53.6191 264.842 52.9492 264.24 51.5615 263.905L50.4268 263.632C49.5586 263.42 49.1895 263.105 49.1895 262.606V262.593C49.1895 261.943 49.832 261.492 50.707 261.492C51.5957 261.492 52.1699 261.896 52.3271 262.477H53.4961C53.332 261.273 52.2588 260.501 50.7139 260.501C49.1484 260.501 47.9727 261.424 47.9727 262.647V262.654C47.9727 263.714 48.5947 264.315 49.9756 264.644L51.1172 264.917C52.0264 265.136 52.4023 265.484 52.4023 265.983V265.997C52.4023 266.667 51.6982 267.139 50.707 267.139C49.7637 267.139 49.1758 266.735 48.9775 266.12H47.7607C47.8975 267.337 49.0254 268.13 50.666 268.13ZM61.4258 268.13C62.417 268.13 63.1895 267.699 63.6543 266.913H63.7637V268H64.9531V262.955C64.9531 261.424 63.9482 260.501 62.1504 260.501C60.5781 260.501 59.457 261.28 59.2656 262.436L59.2588 262.477H60.4482L60.4551 262.456C60.6465 261.882 61.2275 261.554 62.1094 261.554C63.21 261.554 63.7637 262.046 63.7637 262.955V263.625L61.6514 263.755C59.9355 263.857 58.9648 264.616 58.9648 265.929V265.942C58.9648 267.282 60.0244 268.13 61.4258 268.13ZM60.1816 265.915V265.901C60.1816 265.17 60.6738 264.773 61.7949 264.705L63.7637 264.582V265.252C63.7637 266.305 62.8818 267.098 61.6719 267.098C60.8174 267.098 60.1816 266.66 60.1816 265.915ZM69.6562 268.13C71.3311 268.13 72.6094 267.221 72.6094 265.908V265.895C72.6094 264.842 71.9395 264.24 70.5518 263.905L69.417 263.632C68.5488 263.42 68.1797 263.105 68.1797 262.606V262.593C68.1797 261.943 68.8223 261.492 69.6973 261.492C70.5859 261.492 71.1602 261.896 71.3174 262.477H72.4863C72.3223 261.273 71.249 260.501 69.7041 260.501C68.1387 260.501 66.9629 261.424 66.9629 262.647V262.654C66.9629 263.714 67.585 264.315 68.9658 264.644L70.1074 264.917C71.0166 265.136 71.3926 265.484 71.3926 265.983V265.997C71.3926 266.667 70.6885 267.139 69.6973 267.139C68.7539 267.139 68.166 266.735 67.9678 266.12H66.751C66.8877 267.337 68.0156 268.13 69.6562 268.13ZM76.8477 268.13C78.5225 268.13 79.8008 267.221 79.8008 265.908V265.895C79.8008 264.842 79.1309 264.24 77.7432 263.905L76.6084 263.632C75.7402 263.42 75.3711 263.105 75.3711 262.606V262.593C75.3711 261.943 76.0137 261.492 76.8887 261.492C77.7773 261.492 78.3516 261.896 78.5088 262.477H79.6777C79.5137 261.273 78.4404 260.501 76.8955 260.501C75.3301 260.501 74.1543 261.424 74.1543 262.647V262.654C74.1543 263.714 74.7764 264.315 76.1572 264.644L77.2988 264.917C78.208 265.136 78.584 265.484 78.584 265.983V265.997C78.584 266.667 77.8799 267.139 76.8887 267.139C75.9453 267.139 75.3574 266.735 75.1592 266.12H73.9424C74.0791 267.337 75.207 268.13 76.8477 268.13ZM84.6748 268.13C86.7734 268.13 88.0723 266.681 88.0723 264.322V264.309C88.0723 261.943 86.7734 260.501 84.6748 260.501C82.5762 260.501 81.2773 261.943 81.2773 264.309V264.322C81.2773 266.681 82.5762 268.13 84.6748 268.13ZM84.6748 267.077C83.2803 267.077 82.4941 266.059 82.4941 264.322V264.309C82.4941 262.565 83.2803 261.554 84.6748 261.554C86.0693 261.554 86.8555 262.565 86.8555 264.309V264.322C86.8555 266.059 86.0693 267.077 84.6748 267.077ZM92.9326 268.13C94.7031 268.13 95.6943 267.18 95.9951 265.847L96.0088 265.771L94.833 265.778L94.8193 265.819C94.5459 266.64 93.917 267.077 92.9258 267.077C91.6133 267.077 90.7656 265.99 90.7656 264.295V264.281C90.7656 262.62 91.5996 261.554 92.9258 261.554C93.9854 261.554 94.6416 262.142 94.8262 262.866L94.833 262.887H96.0156L96.0088 262.846C95.79 261.533 94.7168 260.501 92.9258 260.501C90.8613 260.501 89.5488 261.991 89.5488 264.281V264.295C89.5488 266.633 90.8682 268.13 92.9326 268.13ZM98.3809 259.209C98.832 259.209 99.2012 258.84 99.2012 258.389C99.2012 257.938 98.832 257.568 98.3809 257.568C97.9297 257.568 97.5605 257.938 97.5605 258.389C97.5605 258.84 97.9297 259.209 98.3809 259.209ZM97.7793 268H98.9688V260.631H97.7793V268ZM103.234 268.13C104.226 268.13 104.998 267.699 105.463 266.913H105.572V268H106.762V262.955C106.762 261.424 105.757 260.501 103.959 260.501C102.387 260.501 101.266 261.28 101.074 262.436L101.067 262.477H102.257L102.264 262.456C102.455 261.882 103.036 261.554 103.918 261.554C105.019 261.554 105.572 262.046 105.572 262.955V263.625L103.46 263.755C101.744 263.857 100.773 264.616 100.773 265.929V265.942C100.773 267.282 101.833 268.13 103.234 268.13ZM101.99 265.915V265.901C101.99 265.17 102.482 264.773 103.604 264.705L105.572 264.582V265.252C105.572 266.305 104.69 267.098 103.48 267.098C102.626 267.098 101.99 266.66 101.99 265.915ZM111.554 268.055C111.786 268.055 112.012 268.027 112.244 267.986V266.975C112.025 266.995 111.909 267.002 111.697 267.002C110.932 267.002 110.631 266.653 110.631 265.785V261.615H112.244V260.631H110.631V258.724H109.4V260.631H108.238V261.615H109.4V266.086C109.4 267.494 110.036 268.055 111.554 268.055ZM116.92 268.13C118.656 268.13 119.709 267.146 119.962 266.147L119.976 266.093H118.786L118.759 266.154C118.561 266.599 117.945 267.07 116.947 267.07C115.635 267.07 114.794 266.182 114.76 264.657H120.064V264.192C120.064 261.991 118.848 260.501 116.845 260.501C114.842 260.501 113.543 262.06 113.543 264.336V264.343C113.543 266.653 114.814 268.13 116.92 268.13ZM116.838 261.561C117.925 261.561 118.731 262.251 118.854 263.707H114.78C114.91 262.306 115.744 261.561 116.838 261.561ZM124.631 268.13C125.656 268.13 126.477 267.645 126.928 266.824H127.037V268H128.227V257.705H127.037V261.793H126.928C126.524 261.007 125.643 260.501 124.631 260.501C122.758 260.501 121.541 261.998 121.541 264.309V264.322C121.541 266.619 122.765 268.13 124.631 268.13ZM124.904 267.077C123.558 267.077 122.758 266.038 122.758 264.322V264.309C122.758 262.593 123.558 261.554 124.904 261.554C126.244 261.554 127.064 262.606 127.064 264.309V264.322C127.064 266.024 126.244 267.077 124.904 267.077ZM135.869 268H137.059L138.699 262.299H138.809L140.456 268H141.652L143.717 260.631H142.534L141.085 266.523H140.976L139.328 260.631H138.2L136.553 266.523H136.443L134.994 260.631H133.805L135.869 268ZM145.918 259.209C146.369 259.209 146.738 258.84 146.738 258.389C146.738 257.938 146.369 257.568 145.918 257.568C145.467 257.568 145.098 257.938 145.098 258.389C145.098 258.84 145.467 259.209 145.918 259.209ZM145.316 268H146.506V260.631H145.316V268ZM151.366 268.055C151.599 268.055 151.824 268.027 152.057 267.986V266.975C151.838 266.995 151.722 267.002 151.51 267.002C150.744 267.002 150.443 266.653 150.443 265.785V261.615H152.057V260.631H150.443V258.724H149.213V260.631H148.051V261.615H149.213V266.086C149.213 267.494 149.849 268.055 151.366 268.055ZM153.902 268H155.092V263.639C155.092 262.347 155.837 261.554 157.013 261.554C158.188 261.554 158.735 262.189 158.735 263.516V268H159.925V263.229C159.925 261.479 159.002 260.501 157.348 260.501C156.261 260.501 155.57 260.959 155.201 261.738H155.092V257.705H153.902V268ZM166.645 270.584C167.95 270.584 168.559 270.105 169.167 268.451L172.045 260.631H170.794L168.777 266.694H168.668L166.645 260.631H165.373L168.101 268.007L167.964 268.444C167.697 269.292 167.287 269.6 166.61 269.6C166.446 269.6 166.262 269.593 166.118 269.565V270.543C166.282 270.57 166.487 270.584 166.645 270.584ZM176.372 268.13C178.471 268.13 179.77 266.681 179.77 264.322V264.309C179.77 261.943 178.471 260.501 176.372 260.501C174.273 260.501 172.975 261.943 172.975 264.309V264.322C172.975 266.681 174.273 268.13 176.372 268.13ZM176.372 267.077C174.978 267.077 174.191 266.059 174.191 264.322V264.309C174.191 262.565 174.978 261.554 176.372 261.554C177.767 261.554 178.553 262.565 178.553 264.309V264.322C178.553 266.059 177.767 267.077 176.372 267.077ZM184.083 268.13C185.163 268.13 185.908 267.686 186.271 266.899H186.38V268H187.569V260.631H186.38V264.992C186.38 266.284 185.689 267.077 184.391 267.077C183.215 267.077 182.736 266.441 182.736 265.115V260.631H181.547V265.402C181.547 267.146 182.408 268.13 184.083 268.13ZM189.791 268H190.98V263.434C190.98 262.354 191.787 261.636 192.922 261.636C193.182 261.636 193.407 261.663 193.653 261.704V260.549C193.537 260.528 193.284 260.501 193.059 260.501C192.061 260.501 191.37 260.952 191.09 261.725H190.98V260.631H189.791V268ZM201.084 268.13C202.075 268.13 202.848 267.699 203.312 266.913H203.422V268H204.611V262.955C204.611 261.424 203.606 260.501 201.809 260.501C200.236 260.501 199.115 261.28 198.924 262.436L198.917 262.477H200.106L200.113 262.456C200.305 261.882 200.886 261.554 201.768 261.554C202.868 261.554 203.422 262.046 203.422 262.955V263.625L201.31 263.755C199.594 263.857 198.623 264.616 198.623 265.929V265.942C198.623 267.282 199.683 268.13 201.084 268.13ZM199.84 265.915V265.901C199.84 265.17 200.332 264.773 201.453 264.705L203.422 264.582V265.252C203.422 266.305 202.54 267.098 201.33 267.098C200.476 267.098 199.84 266.66 199.84 265.915ZM209.8 268.13C211.57 268.13 212.562 267.18 212.862 265.847L212.876 265.771L211.7 265.778L211.687 265.819C211.413 266.64 210.784 267.077 209.793 267.077C208.48 267.077 207.633 265.99 207.633 264.295V264.281C207.633 262.62 208.467 261.554 209.793 261.554C210.853 261.554 211.509 262.142 211.693 262.866L211.7 262.887H212.883L212.876 262.846C212.657 261.533 211.584 260.501 209.793 260.501C207.729 260.501 206.416 261.991 206.416 264.281V264.295C206.416 266.633 207.735 268.13 209.8 268.13ZM217.634 268.13C219.404 268.13 220.396 267.18 220.696 265.847L220.71 265.771L219.534 265.778L219.521 265.819C219.247 266.64 218.618 267.077 217.627 267.077C216.314 267.077 215.467 265.99 215.467 264.295V264.281C215.467 262.62 216.301 261.554 217.627 261.554C218.687 261.554 219.343 262.142 219.527 262.866L219.534 262.887H220.717L220.71 262.846C220.491 261.533 219.418 260.501 217.627 260.501C215.562 260.501 214.25 261.991 214.25 264.281V264.295C214.25 266.633 215.569 268.13 217.634 268.13ZM225.481 268.13C227.58 268.13 228.879 266.681 228.879 264.322V264.309C228.879 261.943 227.58 260.501 225.481 260.501C223.383 260.501 222.084 261.943 222.084 264.309V264.322C222.084 266.681 223.383 268.13 225.481 268.13ZM225.481 267.077C224.087 267.077 223.301 266.059 223.301 264.322V264.309C223.301 262.565 224.087 261.554 225.481 261.554C226.876 261.554 227.662 262.565 227.662 264.309V264.322C227.662 266.059 226.876 267.077 225.481 267.077ZM233.192 268.13C234.272 268.13 235.018 267.686 235.38 266.899H235.489V268H236.679V260.631H235.489V264.992C235.489 266.284 234.799 267.077 233.5 267.077C232.324 267.077 231.846 266.441 231.846 265.115V260.631H230.656V265.402C230.656 267.146 231.518 268.13 233.192 268.13ZM238.9 268H240.09V263.639C240.09 262.347 240.835 261.554 242.011 261.554C243.187 261.554 243.733 262.189 243.733 263.516V268H244.923V263.229C244.923 261.479 244 260.501 242.346 260.501C241.259 260.501 240.568 260.959 240.199 261.738H240.09V260.631H238.9V268ZM249.694 268.055C249.927 268.055 250.152 268.027 250.385 267.986V266.975C250.166 266.995 250.05 267.002 249.838 267.002C249.072 267.002 248.771 266.653 248.771 265.785V261.615H250.385V260.631H248.771V258.724H247.541V260.631H246.379V261.615H247.541V266.086C247.541 267.494 248.177 268.055 249.694 268.055ZM253.133 268.068C253.625 268.068 254.021 267.665 254.021 267.18C254.021 266.688 253.625 266.291 253.133 266.291C252.647 266.291 252.244 266.688 252.244 267.18C252.244 267.665 252.647 268.068 253.133 268.068Z" fill="#BFC0C0"/>
<path d="M53.9258 173.325C56.9844 173.325 59.1553 171.515 59.4277 168.86L59.4365 168.764H56.8525L56.835 168.834C56.5537 170.188 55.4551 171.075 53.9346 171.075C51.9307 171.075 50.6914 169.388 50.6914 166.663V166.646C50.6914 163.921 51.9307 162.242 53.9258 162.242C55.4375 162.242 56.5713 163.209 56.8438 164.633V164.694H59.4277V164.589C59.1816 161.908 56.9316 159.992 53.9258 159.992C50.2432 159.992 47.9756 162.532 47.9756 166.646V166.663C47.9756 170.776 50.252 173.325 53.9258 173.325ZM61.7129 173H64.2793V167.401C64.2793 166.092 65 165.239 66.1865 165.239C67.3994 165.239 67.9619 165.96 67.9619 167.322V173H70.5283V166.742C70.5283 164.431 69.3682 163.112 67.2148 163.112C65.835 163.112 64.877 163.771 64.4375 164.817H64.2793V159.623H61.7129V173ZM75.6523 173.149C76.918 173.149 77.9375 172.613 78.4297 171.717H78.5879V173H81.1191V166.391C81.1191 164.325 79.6689 163.112 77.1025 163.112C74.668 163.112 73.0684 164.237 72.8662 165.934L72.8574 166.013H75.2305L75.248 165.978C75.4502 165.406 76.0391 165.081 76.9619 165.081C78.0166 165.081 78.5879 165.556 78.5879 166.391V167.19L76.25 167.331C73.8418 167.472 72.4971 168.491 72.4971 170.231V170.249C72.4971 172.007 73.8066 173.149 75.6523 173.149ZM75.002 170.091V170.073C75.002 169.37 75.5381 168.957 76.6367 168.887L78.5879 168.764V169.476C78.5879 170.495 77.7002 171.277 76.5137 171.277C75.626 171.277 75.002 170.829 75.002 170.091ZM83.6328 173H86.1992V167.401C86.1992 166.092 86.9199 165.239 88.1064 165.239C89.3193 165.239 89.8818 165.96 89.8818 167.322V173H92.4482V166.742C92.4482 164.431 91.2881 163.112 89.1348 163.112C87.7549 163.112 86.7969 163.771 86.3574 164.817H86.1992V163.323H83.6328V173ZM99.207 176.401C102.134 176.401 103.988 174.969 103.988 172.701V163.323H101.422V164.905H101.299C100.78 163.815 99.7432 163.165 98.416 163.165C95.9375 163.165 94.4346 165.081 94.4346 167.929V167.946C94.4346 170.697 95.9375 172.578 98.3721 172.578C99.7168 172.578 100.736 172.024 101.272 171.005H101.431V172.807C101.431 173.932 100.631 174.573 99.2598 174.573C98.1172 174.573 97.4492 174.187 97.3086 173.624L97.2998 173.589H94.7598V173.633C94.9707 175.276 96.5264 176.401 99.207 176.401ZM99.2422 170.609C97.8535 170.609 97.0625 169.528 97.0625 167.938V167.92C97.0625 166.329 97.8623 165.248 99.2422 165.248C100.622 165.248 101.457 166.329 101.457 167.92V167.938C101.457 169.528 100.631 170.609 99.2422 170.609ZM110.809 173.202C113.639 173.202 114.887 171.567 115.186 170.354L115.203 170.267H112.812L112.786 170.319C112.61 170.688 111.986 171.286 110.861 171.286C109.499 171.286 108.646 170.363 108.62 168.772H115.282V167.973C115.282 165.046 113.524 163.112 110.703 163.112C107.882 163.112 106.08 165.09 106.08 168.166V168.175C106.08 171.277 107.864 173.202 110.809 173.202ZM110.747 165.037C111.863 165.037 112.663 165.758 112.821 167.164H108.646C108.805 165.793 109.631 165.037 110.747 165.037ZM122.278 173H124.933V169.001H127.508C130.18 169.001 131.964 167.278 131.964 164.668V164.65C131.964 162.04 130.18 160.317 127.508 160.317H122.278V173ZM126.857 162.418C128.378 162.418 129.274 163.218 129.274 164.659V164.677C129.274 166.118 128.378 166.927 126.857 166.927H124.933V162.418H126.857ZM136.438 173.149C137.703 173.149 138.723 172.613 139.215 171.717H139.373V173H141.904V166.391C141.904 164.325 140.454 163.112 137.888 163.112C135.453 163.112 133.854 164.237 133.651 165.934L133.643 166.013H136.016L136.033 165.978C136.235 165.406 136.824 165.081 137.747 165.081C138.802 165.081 139.373 165.556 139.373 166.391V167.19L137.035 167.331C134.627 167.472 133.282 168.491 133.282 170.231V170.249C133.282 172.007 134.592 173.149 136.438 173.149ZM135.787 170.091V170.073C135.787 169.37 136.323 168.957 137.422 168.887L139.373 168.764V169.476C139.373 170.495 138.485 171.277 137.299 171.277C136.411 171.277 135.787 170.829 135.787 170.091ZM148.268 173.202C150.746 173.202 152.513 171.954 152.513 170.038V170.029C152.513 168.597 151.607 167.788 149.674 167.375L148.065 167.032C147.063 166.812 146.703 166.514 146.703 165.995V165.986C146.703 165.336 147.336 164.923 148.224 164.923C149.182 164.923 149.753 165.406 149.894 165.925L149.902 165.969H152.284V165.934C152.179 164.378 150.772 163.112 148.232 163.112C145.815 163.112 144.198 164.325 144.198 166.145V166.153C144.198 167.604 145.112 168.509 146.958 168.904L148.575 169.247C149.56 169.467 149.946 169.792 149.946 170.311V170.328C149.946 170.97 149.278 171.392 148.294 171.392C147.283 171.392 146.694 170.961 146.492 170.363L146.475 170.328H143.952L143.961 170.363C144.146 172.024 145.64 173.202 148.268 173.202ZM158.287 173.202C160.766 173.202 162.532 171.954 162.532 170.038V170.029C162.532 168.597 161.627 167.788 159.693 167.375L158.085 167.032C157.083 166.812 156.723 166.514 156.723 165.995V165.986C156.723 165.336 157.355 164.923 158.243 164.923C159.201 164.923 159.772 165.406 159.913 165.925L159.922 165.969H162.304V165.934C162.198 164.378 160.792 163.112 158.252 163.112C155.835 163.112 154.218 164.325 154.218 166.145V166.153C154.218 167.604 155.132 168.509 156.978 168.904L158.595 169.247C159.579 169.467 159.966 169.792 159.966 170.311V170.328C159.966 170.97 159.298 171.392 158.313 171.392C157.303 171.392 156.714 170.961 156.512 170.363L156.494 170.328H153.972L153.98 170.363C154.165 172.024 155.659 173.202 158.287 173.202ZM166.206 173H168.896L170.609 166.25H170.768L172.499 173H175.224L177.799 163.323H175.259L173.817 170.328H173.659L171.954 163.323H169.511L167.814 170.328H167.656L166.215 163.323H163.622L166.206 173ZM183.521 173.202C186.5 173.202 188.293 171.321 188.293 168.166V168.148C188.293 165.02 186.474 163.112 183.521 163.112C180.567 163.112 178.748 165.028 178.748 168.148V168.166C178.748 171.312 180.541 173.202 183.521 173.202ZM183.521 171.189C182.149 171.189 181.376 170.073 181.376 168.166V168.148C181.376 166.259 182.158 165.125 183.521 165.125C184.874 165.125 185.665 166.259 185.665 168.148V168.166C185.665 170.073 184.883 171.189 183.521 171.189ZM190.385 173H192.951V167.586C192.951 166.215 193.874 165.38 195.333 165.38C195.729 165.38 196.124 165.441 196.511 165.529V163.288C196.256 163.218 195.896 163.165 195.553 163.165C194.296 163.165 193.417 163.78 193.109 164.826H192.951V163.323H190.385V173ZM201.45 173.149C202.812 173.149 203.841 172.543 204.342 171.497H204.5V173H207.066V159.623H204.5V164.87H204.342C203.858 163.815 202.777 163.165 201.45 163.165C198.998 163.165 197.521 165.037 197.521 168.148V168.166C197.521 171.26 199.033 173.149 201.45 173.149ZM202.32 171.022C200.967 171.022 200.132 169.95 200.132 168.166V168.148C200.132 166.382 200.967 165.292 202.32 165.292C203.674 165.292 204.526 166.382 204.526 168.157V168.175C204.526 169.95 203.683 171.022 202.32 171.022Z" fill="#424D47"/>
<path d="M58.9258 17.3252C61.9844 17.3252 64.1553 15.5146 64.4277 12.8604L64.4365 12.7637H61.8525L61.835 12.834C61.5537 14.1875 60.4551 15.0752 58.9346 15.0752C56.9307 15.0752 55.6914 13.3877 55.6914 10.6631V10.6455C55.6914 7.9209 56.9307 6.24219 58.9258 6.24219C60.4375 6.24219 61.5713 7.20898 61.8438 8.63281V8.69434H64.4277V8.58887C64.1816 5.9082 61.9316 3.99219 58.9258 3.99219C55.2432 3.99219 52.9756 6.53223 52.9756 10.6455V10.6631C52.9756 14.7764 55.252 17.3252 58.9258 17.3252ZM66.7129 17H69.2793V11.4014C69.2793 10.0918 70 9.23926 71.1865 9.23926C72.3994 9.23926 72.9619 9.95996 72.9619 11.3223V17H75.5283V10.7422C75.5283 8.43066 74.3682 7.1123 72.2148 7.1123C70.835 7.1123 69.877 7.77148 69.4375 8.81738H69.2793V3.62305H66.7129V17ZM80.6523 17.1494C81.918 17.1494 82.9375 16.6133 83.4297 15.7168H83.5879V17H86.1191V10.3906C86.1191 8.3252 84.6689 7.1123 82.1025 7.1123C79.668 7.1123 78.0684 8.2373 77.8662 9.93359L77.8574 10.0127H80.2305L80.248 9.97754C80.4502 9.40625 81.0391 9.08105 81.9619 9.08105C83.0166 9.08105 83.5879 9.55566 83.5879 10.3906V11.1904L81.25 11.3311C78.8418 11.4717 77.4971 12.4912 77.4971 14.2314V14.249C77.4971 16.0068 78.8066 17.1494 80.6523 17.1494ZM80.002 14.0908V14.0732C80.002 13.3701 80.5381 12.957 81.6367 12.8867L83.5879 12.7637V13.4756C83.5879 14.4951 82.7002 15.2773 81.5137 15.2773C80.626 15.2773 80.002 14.8291 80.002 14.0908ZM88.6328 17H91.1992V11.4014C91.1992 10.0918 91.9199 9.23926 93.1064 9.23926C94.3193 9.23926 94.8818 9.95996 94.8818 11.3223V17H97.4482V10.7422C97.4482 8.43066 96.2881 7.1123 94.1348 7.1123C92.7549 7.1123 91.7969 7.77148 91.3574 8.81738H91.1992V7.32324H88.6328V17ZM104.207 20.4014C107.134 20.4014 108.988 18.9688 108.988 16.7012V7.32324H106.422V8.90527H106.299C105.78 7.81543 104.743 7.16504 103.416 7.16504C100.938 7.16504 99.4346 9.08105 99.4346 11.9287V11.9463C99.4346 14.6973 100.938 16.5781 103.372 16.5781C104.717 16.5781 105.736 16.0244 106.272 15.0049H106.431V16.8066C106.431 17.9316 105.631 18.5732 104.26 18.5732C103.117 18.5732 102.449 18.1865 102.309 17.624L102.3 17.5889H99.7598V17.6328C99.9707 19.2764 101.526 20.4014 104.207 20.4014ZM104.242 14.6094C102.854 14.6094 102.062 13.5283 102.062 11.9375V11.9199C102.062 10.3291 102.862 9.24805 104.242 9.24805C105.622 9.24805 106.457 10.3291 106.457 11.9199V11.9375C106.457 13.5283 105.631 14.6094 104.242 14.6094ZM115.809 17.2021C118.639 17.2021 119.887 15.5674 120.186 14.3545L120.203 14.2666H117.812L117.786 14.3193C117.61 14.6885 116.986 15.2861 115.861 15.2861C114.499 15.2861 113.646 14.3633 113.62 12.7725H120.282V11.9727C120.282 9.0459 118.524 7.1123 115.703 7.1123C112.882 7.1123 111.08 9.08984 111.08 12.166V12.1748C111.08 15.2773 112.864 17.2021 115.809 17.2021ZM115.747 9.03711C116.863 9.03711 117.663 9.75781 117.821 11.1641H113.646C113.805 9.79297 114.631 9.03711 115.747 9.03711ZM127.278 17H132.974C135.681 17 137.359 15.6025 137.359 13.3789V13.3613C137.359 11.7354 136.138 10.4785 134.459 10.3467V10.1885C135.76 9.99512 136.753 8.82617 136.753 7.49023V7.47266C136.753 5.52148 135.285 4.31738 132.824 4.31738H127.278V17ZM132.147 6.28613C133.413 6.28613 134.143 6.90137 134.143 7.92969V7.94727C134.143 8.99316 133.36 9.59082 131.928 9.59082H129.933V6.28613H132.147ZM132.235 11.3398C133.8 11.3398 134.652 11.9727 134.652 13.1504V13.168C134.652 14.3721 133.826 15.0225 132.297 15.0225H129.933V11.3398H132.235ZM140.813 5.83789C141.604 5.83789 142.255 5.20508 142.255 4.41406C142.255 3.61426 141.604 2.98145 140.813 2.98145C140.022 2.98145 139.363 3.61426 139.363 4.41406C139.363 5.20508 140.022 5.83789 140.813 5.83789ZM139.521 17H142.088V7.32324H139.521V17ZM144.672 17H147.238V11.5859C147.238 10.2148 148.161 9.37988 149.62 9.37988C150.016 9.37988 150.411 9.44141 150.798 9.5293V7.28809C150.543 7.21777 150.183 7.16504 149.84 7.16504C148.583 7.16504 147.704 7.78027 147.396 8.82617H147.238V7.32324H144.672V17ZM156.933 17.0352C157.425 17.0352 157.899 16.9824 158.216 16.9209V15.0137C157.97 15.04 157.794 15.0576 157.46 15.0576C156.59 15.0576 156.221 14.6709 156.221 13.8008V9.25684H158.216V7.32324H156.221V5.01172H153.628V7.32324H152.134V9.25684H153.628V14.3896C153.628 16.2705 154.577 17.0352 156.933 17.0352ZM160.439 17H163.006V11.4014C163.006 10.0918 163.727 9.23926 164.913 9.23926C166.126 9.23926 166.688 9.95996 166.688 11.3223V17H169.255V10.7422C169.255 8.43066 168.095 7.1123 165.941 7.1123C164.562 7.1123 163.604 7.77148 163.164 8.81738H163.006V3.62305H160.439V17ZM175.196 17.1494C176.559 17.1494 177.587 16.543 178.088 15.4971H178.246V17H180.812V3.62305H178.246V8.87012H178.088C177.604 7.81543 176.523 7.16504 175.196 7.16504C172.744 7.16504 171.268 9.03711 171.268 12.1484V12.166C171.268 15.2598 172.779 17.1494 175.196 17.1494ZM176.066 15.0225C174.713 15.0225 173.878 13.9502 173.878 12.166V12.1484C173.878 10.3818 174.713 9.29199 176.066 9.29199C177.42 9.29199 178.272 10.3818 178.272 12.1572V12.1748C178.272 13.9502 177.429 15.0225 176.066 15.0225ZM186.104 17.1494C187.369 17.1494 188.389 16.6133 188.881 15.7168H189.039V17H191.57V10.3906C191.57 8.3252 190.12 7.1123 187.554 7.1123C185.119 7.1123 183.52 8.2373 183.317 9.93359L183.309 10.0127H185.682L185.699 9.97754C185.901 9.40625 186.49 9.08105 187.413 9.08105C188.468 9.08105 189.039 9.55566 189.039 10.3906V11.1904L186.701 11.3311C184.293 11.4717 182.948 12.4912 182.948 14.2314V14.249C182.948 16.0068 184.258 17.1494 186.104 17.1494ZM185.453 14.0908V14.0732C185.453 13.3701 185.989 12.957 187.088 12.8867L189.039 12.7637V13.4756C189.039 14.4951 188.151 15.2773 186.965 15.2773C186.077 15.2773 185.453 14.8291 185.453 14.0908ZM194.972 20.4102C197.362 20.4102 198.637 19.5488 199.498 16.9912L202.794 7.32324H200.087L198.057 14.6533H197.881L195.851 7.32324H193.029L196.431 17L196.343 17.3691C196.158 18.125 195.631 18.4766 194.717 18.4766C194.479 18.4766 194.225 18.4678 194.049 18.4502V20.3838C194.348 20.4014 194.673 20.4102 194.972 20.4102Z" fill="#424D47"/>
<line x1="89" y1="64.5" x2="166" y2="64.5" stroke="#2A6049"/>
</svg>
