<svg width="125" height="50" viewBox="0 0 125 50" fill="none" xmlns="http://www.w3.org/2000/svg">
<rect width="125" height="36" rx="18" fill="#2A6049"/>
<path d="M25.875 24H27.6953V15.9844H27.8281L30.9531 24H32.3281L35.4531 15.9844H35.5938V24H37.4062V12.7266H35.0938L31.7109 21.3984H31.5781L28.1875 12.7266H25.875V24ZM42.3125 24.1406C43.4375 24.1406 44.3438 23.6562 44.8125 22.8281H44.9453V24H46.8672V18.1641C46.8672 16.3594 45.6328 15.2969 43.4375 15.2969C41.4062 15.2969 40.0312 16.25 39.8438 17.6875L39.8359 17.7578H41.6719L41.6797 17.7266C41.875 17.1641 42.4531 16.8438 43.3438 16.8438C44.3906 16.8438 44.9453 17.3125 44.9453 18.1641V18.8984L42.75 19.0312C40.6719 19.1562 39.5078 20.0469 39.5078 21.5703V21.5859C39.5078 23.1406 40.6875 24.1406 42.3125 24.1406ZM41.4297 21.4922V21.4766C41.4297 20.7734 41.9375 20.375 43.0234 20.3047L44.9453 20.1797V20.8672C44.9453 21.8828 44.0781 22.6484 42.9062 22.6484C42.0469 22.6484 41.4297 22.2188 41.4297 21.4922ZM49.2031 26.8359H51.1484V22.6406H51.2812C51.7266 23.5625 52.7031 24.1406 53.875 24.1406C56.0391 24.1406 57.3828 22.4609 57.3828 19.7422V19.7266C57.3828 17.0234 56.0156 15.3203 53.875 15.3203C52.6797 15.3203 51.75 15.8672 51.2812 16.7969H51.1484V15.4609H49.2031V26.8359ZM53.2656 22.5C51.9453 22.5 51.125 21.4453 51.125 19.7344V19.7188C51.125 18.0078 51.9453 16.9609 53.2656 16.9609C54.5938 16.9609 55.3984 18.0078 55.3984 19.7266V19.7422C55.3984 21.4531 54.5938 22.5 53.2656 22.5ZM66.875 24H69.2344L73.1328 12.7266H70.9062L68.1172 21.6719H67.9844L65.1953 12.7266H62.9766L66.875 24ZM75.875 14.0312C76.5078 14.0312 77.0312 13.5234 77.0312 12.8828C77.0312 12.25 76.5078 11.7344 75.875 11.7344C75.2344 11.7344 74.7109 12.25 74.7109 12.8828C74.7109 13.5234 75.2344 14.0312 75.875 14.0312ZM74.8984 24H76.8438V15.4609H74.8984V24ZM82.8906 24.1719C85.2109 24.1719 86.3516 22.8359 86.625 21.7344L86.6484 21.6641H84.7969L84.7734 21.7188C84.5859 22.1094 83.9844 22.6406 82.9297 22.6406C81.6094 22.6406 80.7812 21.75 80.7578 20.2188H86.7266V19.5781C86.7266 17 85.2266 15.2969 82.7969 15.2969C80.3672 15.2969 78.8125 17.0547 78.8125 19.7422V19.75C78.8125 22.4688 80.3516 24.1719 82.8906 24.1719ZM82.8203 16.8203C83.9062 16.8203 84.6953 17.5156 84.8281 18.9141H80.7734C80.9219 17.5547 81.7344 16.8203 82.8203 16.8203ZM90.1875 24H92.2031L93.8594 17.8125H93.9922L95.6562 24H97.6953L100.008 15.4609H98.0781L96.6641 21.875H96.5312L94.875 15.4609H93.0234L91.3828 21.875H91.25L89.8281 15.4609H87.875L90.1875 24Z" fill="white"/>
<circle cx="63" cy="46" r="4" fill="#2A6049"/>
</svg>
