<svg width="344" height="50" viewBox="0 0 344 50" fill="none" xmlns="http://www.w3.org/2000/svg">
<rect x="1" y="8" width="342" height="38" rx="19" fill="white" stroke="#BDCAC2"/>
<rect x="34" width="125" height="36" rx="18" fill="#2A6049"/>
<path d="M68.5547 24H70.5703V19.3984H75.2969V17.7578H70.5703V14.4219H75.7422V12.7266H68.5547V24ZM77.7734 24H79.7188V19.0391C79.7188 17.8203 80.5703 17.0469 81.8672 17.0469C82.2031 17.0469 82.5234 17.0938 82.8359 17.1562V15.4141C82.6484 15.3594 82.3438 15.3203 82.0469 15.3203C80.9219 15.3203 80.1406 15.8594 79.8516 16.7734H79.7188V15.4609H77.7734V24ZM85.4297 14.0312C86.0625 14.0312 86.5859 13.5234 86.5859 12.8828C86.5859 12.25 86.0625 11.7344 85.4297 11.7344C84.7891 11.7344 84.2656 12.25 84.2656 12.8828C84.2656 13.5234 84.7891 14.0312 85.4297 14.0312ZM84.4531 24H86.3984V15.4609H84.4531V24ZM92.4453 24.1719C94.7656 24.1719 95.9062 22.8359 96.1797 21.7344L96.2031 21.6641H94.3516L94.3281 21.7188C94.1406 22.1094 93.5391 22.6406 92.4844 22.6406C91.1641 22.6406 90.3359 21.75 90.3125 20.2188H96.2812V19.5781C96.2812 17 94.7812 15.2969 92.3516 15.2969C89.9219 15.2969 88.3672 17.0547 88.3672 19.7422V19.75C88.3672 22.4688 89.9062 24.1719 92.4453 24.1719ZM92.375 16.8203C93.4609 16.8203 94.25 17.5156 94.3828 18.9141H90.3281C90.4766 17.5547 91.2891 16.8203 92.375 16.8203ZM98.2266 24H100.172V19.0234C100.172 17.7422 100.891 16.9297 102.047 16.9297C103.227 16.9297 103.766 17.6016 103.766 18.9297V24H105.711V18.4766C105.711 16.4453 104.672 15.2969 102.766 15.2969C101.531 15.2969 100.711 15.8516 100.305 16.7656H100.172V15.4609H98.2266V24ZM111.086 24.1406C112.289 24.1406 113.211 23.5938 113.68 22.6641H113.812V24H115.766V12.1562H113.812V16.8203H113.68C113.234 15.8984 112.258 15.3203 111.086 15.3203C108.922 15.3203 107.586 17.0078 107.586 19.7266V19.7422C107.586 22.4453 108.945 24.1406 111.086 24.1406ZM111.695 22.5C110.367 22.5 109.562 21.4609 109.562 19.7422V19.7266C109.562 18.0078 110.375 16.9609 111.695 16.9609C113.016 16.9609 113.844 18.0156 113.844 19.7266V19.7422C113.844 21.4531 113.023 22.5 111.695 22.5ZM121.438 24.1719C123.539 24.1719 125.062 23.0859 125.062 21.4609V21.4453C125.062 20.2031 124.273 19.4922 122.602 19.1172L121.219 18.8125C120.297 18.6016 119.938 18.2969 119.938 17.7969V17.7891C119.938 17.1484 120.562 16.7266 121.43 16.7266C122.344 16.7266 122.906 17.1641 123.047 17.7031L123.055 17.7266H124.883V17.7109C124.758 16.3281 123.516 15.2969 121.438 15.2969C119.422 15.2969 118.016 16.3594 118.016 17.8984V17.9062C118.016 19.1641 118.789 19.9297 120.414 20.2891L121.797 20.6016C122.734 20.8125 123.109 21.1406 123.109 21.6406V21.6562C123.109 22.2969 122.438 22.7344 121.469 22.7344C120.5 22.7344 119.93 22.3203 119.727 21.7266L119.719 21.7109H117.789V21.7266C117.953 23.1719 119.266 24.1719 121.438 24.1719Z" fill="white"/>
<circle cx="97" cy="46" r="4" fill="#2A6049"/>
</svg>
