<svg width="344" height="50" viewBox="0 0 344 50" fill="none" xmlns="http://www.w3.org/2000/svg">
<rect x="1" y="8" width="342" height="38" rx="19" fill="white" stroke="#BDCAC2"/>
<rect x="185" width="125" height="36" rx="18" fill="#2A6049"/>
<path d="M231.508 24H233.523V14.4219H237V12.7266H228.039V14.4219H231.508V24ZM237.906 24H239.852V19.0391C239.852 17.8203 240.703 17.0469 242 17.0469C242.336 17.0469 242.656 17.0938 242.969 17.1562V15.4141C242.781 15.3594 242.477 15.3203 242.18 15.3203C241.055 15.3203 240.273 15.8594 239.984 16.7734H239.852V15.4609H237.906V24ZM245.562 14.0312C246.195 14.0312 246.719 13.5234 246.719 12.8828C246.719 12.25 246.195 11.7344 245.562 11.7344C244.922 11.7344 244.398 12.25 244.398 12.8828C244.398 13.5234 244.922 14.0312 245.562 14.0312ZM244.586 24H246.531V15.4609H244.586V24ZM248.922 26.8359H250.867V22.6406H251C251.445 23.5625 252.422 24.1406 253.594 24.1406C255.758 24.1406 257.102 22.4609 257.102 19.7422V19.7266C257.102 17.0234 255.734 15.3203 253.594 15.3203C252.398 15.3203 251.469 15.8672 251 16.7969H250.867V15.4609H248.922V26.8359ZM252.984 22.5C251.664 22.5 250.844 21.4453 250.844 19.7344V19.7188C250.844 18.0078 251.664 16.9609 252.984 16.9609C254.312 16.9609 255.117 18.0078 255.117 19.7266V19.7422C255.117 21.4531 254.312 22.5 252.984 22.5ZM262.289 24.1719C264.391 24.1719 265.914 23.0859 265.914 21.4609V21.4453C265.914 20.2031 265.125 19.4922 263.453 19.1172L262.07 18.8125C261.148 18.6016 260.789 18.2969 260.789 17.7969V17.7891C260.789 17.1484 261.414 16.7266 262.281 16.7266C263.195 16.7266 263.758 17.1641 263.898 17.7031L263.906 17.7266H265.734V17.7109C265.609 16.3281 264.367 15.2969 262.289 15.2969C260.273 15.2969 258.867 16.3594 258.867 17.8984V17.9062C258.867 19.1641 259.641 19.9297 261.266 20.2891L262.648 20.6016C263.586 20.8125 263.961 21.1406 263.961 21.6406V21.6562C263.961 22.2969 263.289 22.7344 262.32 22.7344C261.352 22.7344 260.781 22.3203 260.578 21.7266L260.57 21.7109H258.641V21.7266C258.805 23.1719 260.117 24.1719 262.289 24.1719Z" fill="white"/>
<circle cx="248" cy="46" r="4" fill="#2A6049"/>
</svg>
