<svg width="274" height="34" viewBox="0 0 274 34" fill="none" xmlns="http://www.w3.org/2000/svg">
<g filter="url(#filter0_i)">
<path d="M10.8359 34H15.0547V3.97656H25.7188V0.179688H0.171875V3.97656H10.8359V34ZM35.6439 34H39.8626V20.6172H47.9486L55.1908 34H60.1361L52.3079 19.9609C56.5267 18.625 59.1048 14.9922 59.1048 10.3047V10.2578C59.1048 4.16406 54.8392 0.179688 48.3236 0.179688H35.6439V34ZM39.8626 16.8906V3.92969H47.7611C52.097 3.92969 54.7454 6.32031 54.7454 10.3516V10.3984C54.7454 14.5469 52.2845 16.8906 47.9486 16.8906H39.8626ZM67.2018 34H71.6315L75.0534 24.3203H88.6706L92.0924 34H96.5221L83.9596 0.179688H79.7878L67.2018 34ZM81.8268 5.24219H81.9206L87.4049 20.7344H76.3424L81.8268 5.24219ZM111.908 34H116.08L128.549 0.179688H124.119L114.041 28.9375H113.947L103.869 0.179688H99.4394L111.908 34ZM137.888 34H158.419V30.2031H142.107V0.179688H137.888V34ZM167.594 34H177.532V24.7656H182.712C190.633 24.7656 195.626 20.0547 195.626 12.5547V12.5078C195.626 5.00781 190.633 0.179688 182.712 0.179688H167.594V34ZM180.344 7.65625C183.626 7.65625 185.594 9.27344 185.594 12.5078V12.5547C185.594 15.7891 183.626 17.4297 180.344 17.4297H177.532V7.65625H180.344ZM199.223 34H209.676L211.434 27.2734H221.559L223.316 34H233.77L222.73 0.179688H210.262L199.223 34ZM216.402 8.24219H216.59L219.73 20.2656H213.262L216.402 8.24219ZM242.288 34H252.226V25.1406L254.874 21.5547L262.257 34H273.812L262.163 15.1797L273.296 0.179688H262.867L252.413 14.5234H252.226V0.179688H242.288V34Z" fill="#638074"/>
</g>
<defs>
<filter id="filter0_i" x="0.171875" y="0.179688" width="274.64" height="34.8203" filterUnits="userSpaceOnUse" color-interpolation-filters="sRGB">
<feFlood flood-opacity="0" result="BackgroundImageFix"/>
<feBlend mode="normal" in="SourceGraphic" in2="BackgroundImageFix" result="shape"/>
<feColorMatrix in="SourceAlpha" type="matrix" values="0 0 0 0 0 0 0 0 0 0 0 0 0 0 0 0 0 0 127 0" result="hardAlpha"/>
<feOffset dx="1" dy="4"/>
<feGaussianBlur stdDeviation="0.5"/>
<feComposite in2="hardAlpha" operator="arithmetic" k2="-1" k3="1"/>
<feColorMatrix type="matrix" values="0 0 0 0 0 0 0 0 0 0 0 0 0 0 0 0 0 0 0.25 0"/>
<feBlend mode="normal" in2="shape" result="effect1_innerShadow"/>
</filter>
</defs>
</svg>
