<svg width="328" height="14" viewBox="0 0 328 14" fill="none" xmlns="http://www.w3.org/2000/svg">
<path d="M162.346 11.123C164.168 11.123 165.352 9.91016 165.352 7.89453V7.88281C165.352 5.87891 164.15 4.66016 162.34 4.66016C160.535 4.66016 159.34 5.89062 159.34 7.88281V7.89453C159.34 9.9043 160.518 11.123 162.346 11.123ZM162.352 9.94531C161.42 9.94531 160.828 9.20117 160.828 7.89453V7.88281C160.828 6.59375 161.432 5.84375 162.34 5.84375C163.266 5.84375 163.863 6.58789 163.863 7.88281V7.89453C163.863 9.19531 163.271 9.94531 162.352 9.94531ZM166.289 11H167.748V7.39648C167.748 6.47656 168.246 5.95508 169.072 5.95508C169.318 5.95508 169.541 5.99023 169.664 6.03711V4.71875C169.553 4.68945 169.383 4.66016 169.201 4.66016C168.486 4.66016 167.971 5.11133 167.777 5.86133H167.748V4.78906H166.289V11Z" fill="#424D47"/>
<line x1="181" y1="7.5" x2="328" y2="7.5" stroke="#424D47"/>
<line y1="7.5" x2="147" y2="7.5" stroke="#424D47"/>
</svg>
