<svg width="128" height="34" viewBox="0 0 128 34" fill="none" xmlns="http://www.w3.org/2000/svg">
<rect x="1" y="1" width="126" height="32" rx="12" fill="white" stroke="#BDCAC2"/>
<path d="M27.2705 22.1299C28.2617 22.1299 29.0342 21.6992 29.499 20.9131H29.6084V22H30.7979V16.9551C30.7979 15.4238 29.793 14.501 27.9951 14.501C26.4229 14.501 25.3018 15.2803 25.1104 16.4355L25.1035 16.4766H26.293L26.2998 16.4561C26.4912 15.8818 27.0723 15.5537 27.9541 15.5537C29.0547 15.5537 29.6084 16.0459 29.6084 16.9551V17.625L27.4961 17.7549C25.7803 17.8574 24.8096 18.6162 24.8096 19.9287V19.9424C24.8096 21.2822 25.8691 22.1299 27.2705 22.1299ZM26.0264 19.915V19.9014C26.0264 19.1699 26.5186 18.7734 27.6396 18.7051L29.6084 18.582V19.252C29.6084 20.3047 28.7266 21.0977 27.5166 21.0977C26.6621 21.0977 26.0264 20.6602 26.0264 19.915ZM32.9717 22H34.1611V17.4336C34.1611 16.3535 34.9678 15.6357 36.1025 15.6357C36.3623 15.6357 36.5879 15.6631 36.834 15.7041V14.5488C36.7178 14.5283 36.4648 14.501 36.2393 14.501C35.2412 14.501 34.5508 14.9521 34.2705 15.7246H34.1611V14.6309H32.9717V22ZM41.1133 22.1299C42.8838 22.1299 43.875 21.1797 44.1758 19.8467L44.1895 19.7715L43.0137 19.7783L43 19.8193C42.7266 20.6396 42.0977 21.0771 41.1064 21.0771C39.7939 21.0771 38.9463 19.9902 38.9463 18.2949V18.2812C38.9463 16.6201 39.7803 15.5537 41.1064 15.5537C42.166 15.5537 42.8223 16.1416 43.0068 16.8662L43.0137 16.8867H44.1963L44.1895 16.8457C43.9707 15.5332 42.8975 14.501 41.1064 14.501C39.042 14.501 37.7295 15.9912 37.7295 18.2812V18.2949C37.7295 20.6328 39.0488 22.1299 41.1133 22.1299ZM46.001 22H47.1904V17.6387C47.1904 16.3467 47.9355 15.5537 49.1113 15.5537C50.2871 15.5537 50.834 16.1895 50.834 17.5156V22H52.0234V17.2285C52.0234 15.4785 51.1006 14.501 49.4463 14.501C48.3594 14.501 47.6689 14.959 47.2998 15.7383H47.1904V11.7051H46.001V22ZM54.8057 13.209C55.2568 13.209 55.626 12.8398 55.626 12.3887C55.626 11.9375 55.2568 11.5684 54.8057 11.5684C54.3545 11.5684 53.9854 11.9375 53.9854 12.3887C53.9854 12.8398 54.3545 13.209 54.8057 13.209ZM54.2041 22H55.3936V14.6309H54.2041V22ZM60.2539 22.0547C60.4863 22.0547 60.7119 22.0273 60.9443 21.9863V20.9746C60.7256 20.9951 60.6094 21.002 60.3975 21.002C59.6318 21.002 59.3311 20.6533 59.3311 19.7852V15.6152H60.9443V14.6309H59.3311V12.7236H58.1006V14.6309H56.9385V15.6152H58.1006V20.0859C58.1006 21.4941 58.7363 22.0547 60.2539 22.0547ZM65.6201 22.1299C67.3564 22.1299 68.4092 21.1455 68.6621 20.1475L68.6758 20.0928H67.4863L67.459 20.1543C67.2607 20.5986 66.6455 21.0703 65.6475 21.0703C64.335 21.0703 63.4941 20.1816 63.46 18.6572H68.7646V18.1924C68.7646 15.9912 67.5479 14.501 65.5449 14.501C63.542 14.501 62.2432 16.0596 62.2432 18.3359V18.3428C62.2432 20.6533 63.5146 22.1299 65.6201 22.1299ZM65.5381 15.5605C66.625 15.5605 67.4316 16.251 67.5547 17.707H63.4805C63.6104 16.3057 64.4443 15.5605 65.5381 15.5605ZM73.625 22.1299C75.3955 22.1299 76.3867 21.1797 76.6875 19.8467L76.7012 19.7715L75.5254 19.7783L75.5117 19.8193C75.2383 20.6396 74.6094 21.0771 73.6182 21.0771C72.3057 21.0771 71.458 19.9902 71.458 18.2949V18.2812C71.458 16.6201 72.292 15.5537 73.6182 15.5537C74.6777 15.5537 75.334 16.1416 75.5186 16.8662L75.5254 16.8867H76.708L76.7012 16.8457C76.4824 15.5332 75.4092 14.501 73.6182 14.501C71.5537 14.501 70.2412 15.9912 70.2412 18.2812V18.2949C70.2412 20.6328 71.5605 22.1299 73.625 22.1299ZM81.1992 22.0547C81.4316 22.0547 81.6572 22.0273 81.8896 21.9863V20.9746C81.6709 20.9951 81.5547 21.002 81.3428 21.002C80.5771 21.002 80.2764 20.6533 80.2764 19.7852V15.6152H81.8896V14.6309H80.2764V12.7236H79.0459V14.6309H77.8838V15.6152H79.0459V20.0859C79.0459 21.4941 79.6816 22.0547 81.1992 22.0547ZM86.1348 22.1299C87.2148 22.1299 87.96 21.6855 88.3223 20.8994H88.4316V22H89.6211V14.6309H88.4316V18.9922C88.4316 20.2842 87.7412 21.0771 86.4424 21.0771C85.2666 21.0771 84.7881 20.4414 84.7881 19.1152V14.6309H83.5986V19.4023C83.5986 21.1455 84.46 22.1299 86.1348 22.1299ZM91.8428 22H93.0322V17.4336C93.0322 16.3535 93.8389 15.6357 94.9736 15.6357C95.2334 15.6357 95.459 15.6631 95.7051 15.7041V14.5488C95.5889 14.5283 95.3359 14.501 95.1104 14.501C94.1123 14.501 93.4219 14.9521 93.1416 15.7246H93.0322V14.6309H91.8428V22ZM99.9775 22.1299C101.714 22.1299 102.767 21.1455 103.02 20.1475L103.033 20.0928H101.844L101.816 20.1543C101.618 20.5986 101.003 21.0703 100.005 21.0703C98.6924 21.0703 97.8516 20.1816 97.8174 18.6572H103.122V18.1924C103.122 15.9912 101.905 14.501 99.9023 14.501C97.8994 14.501 96.6006 16.0596 96.6006 18.3359V18.3428C96.6006 20.6533 97.8721 22.1299 99.9775 22.1299ZM99.8955 15.5605C100.982 15.5605 101.789 16.251 101.912 17.707H97.8379C97.9678 16.3057 98.8018 15.5605 99.8955 15.5605Z" fill="#BDCAC2"/>
</svg>
