<svg width="396" height="227" viewBox="0 0 396 227" fill="none" xmlns="http://www.w3.org/2000/svg">
<path d="M385.805 219.484C389.764 196.583 369.207 177.756 346.841 178.554H345.652C336.765 178.554 328.424 174.528 323.227 167.733L319.987 163.497C311.604 152.536 298.565 146.043 284.235 146.043C276.322 146.043 270.637 147.857 266.271 150.686C258.294 155.855 247.585 173.729 236.72 174.186C220.696 174.859 210.203 151.638 170.093 192.426" stroke="#59221D" stroke-width="0.3" stroke-miterlimit="10" stroke-linecap="round"/>
<path d="M13.8756 219.716C-6.6076 219.716 -2.87052 188.175 26.6585 201.375C51.8912 212.656 36.1018 164.096 68.3573 175.439C76.2771 178.224 95.0712 192.461 105.623 192.536C109.89 192.566 139.846 176.459 165.293 189.84C189.591 202.615 212.574 219.715 212.574 219.715" stroke="#59221D" stroke-width="0.3" stroke-miterlimit="10" stroke-linecap="round"/>
<path d="M389.488 219.705H343.093C344.103 210.133 354.101 202.616 366.288 202.616C378.474 202.616 388.478 210.133 389.488 219.705Z" fill="#BDCAC2"/>
<path d="M360.994 219.705L355.412 212.271H350.569L344.128 215.703C344.109 215.713 344.089 215.721 344.068 215.725C344.158 215.493 344.254 215.264 344.357 215.036L349.547 212.271H345.91C346.022 212.108 346.136 211.949 346.254 211.79H355.053L351.408 206.936C351.541 206.846 351.676 206.758 351.813 206.672L361.629 219.705H360.994Z" fill="white"/>
<path d="M378.469 219.533L386.443 211.943C386.538 212.075 386.631 212.208 386.722 212.341L378.984 219.707L378.469 219.533Z" fill="white"/>
<path d="M367.376 219.6V209.346L363.167 202.865C363.152 202.841 363.141 202.814 363.135 202.787C363.308 202.767 363.483 202.75 363.657 202.735L367.376 208.463V202.636C367.536 202.642 367.697 202.649 367.857 202.658V216.336L376.711 204.591C376.865 204.652 377.018 204.715 377.17 204.783L372.069 211.557L382.56 207.938C382.709 208.055 382.856 208.174 383.001 208.294L382.988 208.3L371.551 212.247L367.861 217.144V219.608L367.376 219.6Z" fill="white"/>
<path d="M333.892 211.648L335.238 210.153L336.732 211.5C337.487 212.179 337.94 213.131 337.993 214.145C338.046 215.159 337.694 216.152 337.015 216.907L335.669 218.401L334.171 217.052C333.418 216.372 332.966 215.421 332.913 214.408C332.861 213.394 333.213 212.402 333.892 211.648Z" fill="#A74602"/>
<path d="M328.42 212.727V211.186H329.96C331.417 211.186 332.815 211.765 333.845 212.796C334.875 213.827 335.454 215.225 335.454 216.682V218.223H333.914C332.457 218.223 331.06 217.643 330.029 216.613C328.999 215.582 328.42 214.184 328.42 212.727Z" fill="white" stroke="#59221D" stroke-width="0.3" stroke-miterlimit="10"/>
<path d="M31.7413 199.992L31.3945 199.972C30.3415 199.909 29.3566 199.43 28.6564 198.641C27.9563 197.851 27.5983 196.816 27.6613 195.763L27.682 195.416L28.0288 195.437C29.0819 195.499 30.0668 195.978 30.7669 196.768C31.467 197.557 31.825 198.592 31.7621 199.645L31.7413 199.992Z" fill="#2A6049"/>
<path d="M33.4432 199.628L33.2385 199.263C32.9306 198.713 32.7339 198.109 32.6597 197.483C32.5855 196.858 32.6351 196.224 32.8059 195.618C32.9766 195.012 33.2651 194.445 33.6548 193.951C34.0445 193.456 34.5278 193.043 35.0771 192.736L35.4423 192.531L35.647 192.896C36.2686 194.005 36.4243 195.316 36.08 196.539C35.7357 197.763 34.9194 198.8 33.8109 199.422L33.4457 199.626L33.4432 199.628Z" stroke="#59221D" stroke-width="0.3" stroke-miterlimit="10" stroke-linecap="round"/>
<path d="M334.315 170.721L334.516 169.299L335.937 169.5C336.942 169.642 337.85 170.178 338.46 170.989C339.07 171.801 339.333 172.821 339.191 173.827L338.99 175.249L337.568 175.047C336.563 174.905 335.656 174.37 335.046 173.558C334.436 172.747 334.173 171.726 334.315 170.721Z" fill="#2A6049"/>
<path d="M345.435 167.734H349.311V171.612C349.311 172.627 348.908 173.601 348.19 174.319C347.472 175.037 346.499 175.44 345.484 175.44H341.607V171.562C341.607 170.547 342.01 169.573 342.728 168.855C343.446 168.137 344.419 167.734 345.435 167.734Z" stroke="#59221D" stroke-width="0.3" stroke-miterlimit="10" stroke-linecap="round"/>
<path d="M341.607 175.439L349.311 167.734" stroke="#59221D" stroke-width="0.3" stroke-miterlimit="10" stroke-linecap="round"/>
<path d="M346.251 171.13H349.311" stroke="#59221D" stroke-width="0.3" stroke-miterlimit="10" stroke-linecap="round"/>
<path d="M343.706 168.285V173.308" stroke="#59221D" stroke-width="0.3" stroke-miterlimit="10" stroke-linecap="round"/>
<path d="M19.8995 208.911H22.0052V211.018C22.005 212.033 21.6019 213.006 20.8845 213.724C20.1671 214.441 19.1942 214.845 18.1796 214.845H16.0719V212.739C16.0722 211.724 16.4755 210.75 17.1933 210.032C17.9111 209.315 18.8845 208.911 19.8995 208.911Z" stroke="#59221D" stroke-width="0.3" stroke-miterlimit="10" stroke-linecap="round"/>
<path d="M16.0719 214.845L22.0043 208.911" stroke="#59221D" stroke-width="0.3" stroke-miterlimit="10" stroke-linecap="round"/>
<path d="M19.4692 211.527H21.8994" stroke="#59221D" stroke-width="0.3" stroke-miterlimit="10" stroke-linecap="round"/>
<path d="M17.6868 209.755V213.204" stroke="#59221D" stroke-width="0.3" stroke-miterlimit="10" stroke-linecap="round"/>
<path d="M118.929 46.8582L166.542 14.2852C172.013 10.5422 178.945 11.0024 183.995 15.4405L272.508 93.2921H12.9315L96.822 42.8774C101.09 40.3118 106.167 40.1578 110.55 42.4606L118.929 46.8582Z" stroke="#BDCAC2" stroke-width="0.3" stroke-miterlimit="10"/>
<path d="M119.443 46.7792L100.098 59.6793C99.9983 59.7461 99.8795 59.7785 99.7596 59.7717C99.6397 59.7649 99.5253 59.7192 99.4337 59.6415C99.3421 59.5638 99.2783 59.4584 99.252 59.3412C99.2256 59.2239 99.2382 59.1014 99.2878 58.9919L107.092 41.0974L119.443 46.7792Z" fill="#BDCAC2"/>
<path d="M372.379 93.293C357.703 93.7185 334.864 97.0678 321.413 103L302.035 111.547C288.026 117.726 272.882 120.917 257.571 120.917H180.108C170.485 120.917 160.901 122.159 151.596 124.614V124.614C142.291 127.069 132.707 128.311 123.083 128.311H56.8304C47.5869 128.312 38.495 125.962 30.4087 121.483C22.3224 117.003 15.5072 110.541 10.6033 102.703L4.71716 93.293H372.379Z" stroke="#59221D" stroke-width="0.3" stroke-miterlimit="10" stroke-linecap="round"/>
<path d="M25.2052 99.0644C25.62 98.6514 26.1815 98.4196 26.7667 98.4196C27.352 98.4196 27.9134 98.6514 28.3283 99.0644V99.0644C28.7431 99.4774 29.3045 99.7092 29.8898 99.7092C30.4751 99.7092 31.0365 99.4774 31.4513 99.0644V99.0644C31.8661 98.6514 32.4276 98.4196 33.0129 98.4196C33.5981 98.4196 34.1596 98.6514 34.5744 99.0644L34.5898 99.0789C35.0046 99.4918 35.566 99.7237 36.1513 99.7237C36.7366 99.7237 37.298 99.4918 37.7128 99.0789L37.7581 99.0346C37.963 98.8293 38.2065 98.6664 38.4744 98.5553C38.7423 98.4442 39.0295 98.387 39.3196 98.387C39.6097 98.387 39.8969 98.4442 40.1648 98.5553C40.4328 98.6664 40.6762 98.8293 40.8811 99.0346L40.9264 99.0789C41.3412 99.4918 41.9026 99.7237 42.4879 99.7237C43.0732 99.7237 43.6346 99.4918 44.0494 99.0789L44.0793 99.049C44.4941 98.636 45.0555 98.4042 45.6408 98.4042C46.2261 98.4042 46.7875 98.636 47.2023 99.049L47.2322 99.0789C47.647 99.4921 48.2087 99.7242 48.7942 99.7242C49.3797 99.7242 49.9413 99.4921 50.3562 99.0789L50.3706 99.0644C50.7854 98.6514 51.3469 98.4196 51.9322 98.4196C52.5174 98.4196 53.0789 98.6514 53.4937 99.0644" stroke="#59221D" stroke-width="0.3" stroke-miterlimit="10" stroke-linecap="round"/>
<path d="M53.511 99.0788C53.9258 99.4918 54.4873 99.7237 55.0725 99.7237C55.6578 99.7237 56.2192 99.4918 56.634 99.0788L56.6494 99.0644C57.0643 98.6514 57.6257 98.4196 58.211 98.4196C58.7962 98.4196 59.3577 98.6514 59.7725 99.0644" stroke="#59221D" stroke-width="0.3" stroke-miterlimit="10" stroke-linecap="round"/>
<path d="M34.5735 101.916L34.5889 101.931C35.0037 102.344 35.5652 102.576 36.1504 102.576C36.7357 102.576 37.2971 102.344 37.712 101.931L37.7572 101.886C38.172 101.473 38.7335 101.241 39.3187 101.241C39.904 101.241 40.4654 101.473 40.8803 101.886L40.9255 101.931C41.3403 102.344 41.9018 102.576 42.487 102.576C43.0723 102.576 43.6337 102.344 44.0486 101.931L44.0784 101.901C44.4932 101.488 45.0547 101.256 45.6399 101.256C46.2252 101.256 46.7866 101.488 47.2015 101.901L47.2313 101.931C47.6462 102.345 48.2078 102.577 48.7933 102.577C49.3788 102.577 49.9405 102.345 50.3553 101.931L50.3698 101.916C50.7846 101.503 51.346 101.271 51.9313 101.271C52.5166 101.271 53.078 101.503 53.4928 101.916" stroke="#59221D" stroke-width="0.3" stroke-miterlimit="10" stroke-linecap="round"/>
<path d="M251.76 105.445C252.174 105.858 252.736 106.09 253.321 106.09C253.906 106.09 254.468 105.858 254.883 105.445V105.445C255.298 105.032 255.859 104.8 256.445 104.8C257.03 104.8 257.592 105.032 258.007 105.445L258.021 105.461C258.436 105.874 258.997 106.105 259.583 106.105C260.168 106.105 260.729 105.874 261.144 105.461L261.189 105.415C261.604 105.002 262.166 104.771 262.751 104.771C263.336 104.771 263.898 105.002 264.312 105.415L264.358 105.461C264.773 105.874 265.334 106.105 265.919 106.105C266.505 106.105 267.066 105.874 267.481 105.461L267.511 105.43C267.925 105.017 268.487 104.785 269.072 104.785C269.657 104.785 270.219 105.017 270.634 105.43L270.664 105.461C271.079 105.874 271.641 106.105 272.226 106.105C272.811 106.105 273.373 105.874 273.788 105.461L273.802 105.445C274.217 105.032 274.778 104.8 275.364 104.8C275.949 104.8 276.511 105.032 276.926 105.445" stroke="#59221D" stroke-width="0.3" stroke-miterlimit="10" stroke-linecap="round"/>
<path d="M258.002 108.297L258.017 108.312C258.432 108.725 258.993 108.957 259.578 108.957C260.164 108.957 260.725 108.725 261.14 108.312L261.185 108.267C261.6 107.854 262.162 107.622 262.747 107.622C263.332 107.622 263.894 107.854 264.308 108.267L264.354 108.312C264.768 108.725 265.33 108.957 265.915 108.957C266.501 108.957 267.062 108.725 267.477 108.312L267.507 108.282C267.921 107.869 268.483 107.637 269.068 107.637C269.654 107.637 270.215 107.869 270.63 108.282L270.661 108.312C271.075 108.725 271.637 108.957 272.222 108.957C272.807 108.957 273.369 108.725 273.784 108.312L273.798 108.297" stroke="#59221D" stroke-width="0.3" stroke-miterlimit="10" stroke-linecap="round"/>
<path d="M123.493 56.9039V84.0357" stroke="#2A6049" stroke-width="0.3" stroke-miterlimit="10" stroke-linecap="round"/>
<path d="M119.645 60.7422V84.0357" stroke="#2A6049" stroke-width="0.3" stroke-miterlimit="10" stroke-linecap="round"/>
<path d="M115.797 63.4291V84.0357" stroke="#2A6049" stroke-width="0.3" stroke-miterlimit="10" stroke-linecap="round"/>
<path d="M111.95 65.444V84.0357" stroke="#2A6049" stroke-width="0.3" stroke-miterlimit="10" stroke-linecap="round"/>
<path d="M108.103 67.0758V84.0357" stroke="#2A6049" stroke-width="0.3" stroke-miterlimit="10" stroke-linecap="round"/>
<path d="M104.255 68.2271V84.0357" stroke="#2A6049" stroke-width="0.3" stroke-miterlimit="10" stroke-linecap="round"/>
<path d="M100.408 69.0908V84.0357" stroke="#2A6049" stroke-width="0.3" stroke-miterlimit="10" stroke-linecap="round"/>
<path d="M129.954 56.025V84.0357" stroke="#2A6049" stroke-width="0.3" stroke-miterlimit="10" stroke-linecap="round"/>
<path d="M133.801 59.2625V83.9393" stroke="#2A6049" stroke-width="0.3" stroke-miterlimit="10" stroke-linecap="round"/>
<path d="M137.649 61.7232V83.9393" stroke="#2A6049" stroke-width="0.3" stroke-miterlimit="10" stroke-linecap="round"/>
<path d="M141.497 63.7622V83.9393" stroke="#2A6049" stroke-width="0.3" stroke-miterlimit="10" stroke-linecap="round"/>
<path d="M145.343 65.4902V83.9393" stroke="#2A6049" stroke-width="0.3" stroke-miterlimit="10" stroke-linecap="round"/>
<path d="M149.191 66.9025V83.9393" stroke="#2A6049" stroke-width="0.3" stroke-miterlimit="10" stroke-linecap="round"/>
<path d="M153.039 68.1069V83.9393" stroke="#2A6049" stroke-width="0.3" stroke-miterlimit="10" stroke-linecap="round"/>
<path d="M156.892 69.1486V83.9393" stroke="#2A6049" stroke-width="0.3" stroke-miterlimit="10" stroke-linecap="round"/>
<path d="M160.74 69.8869V83.9393" stroke="#2A6049" stroke-width="0.3" stroke-miterlimit="10" stroke-linecap="round"/>
<path d="M164.588 70.7062V83.9393" stroke="#2A6049" stroke-width="0.3" stroke-miterlimit="10" stroke-linecap="round"/>
<path d="M168.442 71.2665V83.9393" stroke="#2A6049" stroke-width="0.3" stroke-miterlimit="10" stroke-linecap="round"/>
<path d="M172.289 71.8121V83.9393" stroke="#2A6049" stroke-width="0.3" stroke-miterlimit="10" stroke-linecap="round"/>
<path d="M176.137 72.1502V83.9393" stroke="#2A6049" stroke-width="0.3" stroke-miterlimit="10" stroke-linecap="round"/>
<path d="M179.991 72.4217V83.9393" stroke="#2A6049" stroke-width="0.3" stroke-miterlimit="10" stroke-linecap="round"/>
<path d="M183.838 72.6787V83.9393" stroke="#2A6049" stroke-width="0.3" stroke-miterlimit="10" stroke-linecap="round"/>
<path d="M187.686 72.7278V83.9393" stroke="#2A6049" stroke-width="0.3" stroke-miterlimit="10" stroke-linecap="round"/>
<path d="M96.5602 69.858V84.0357" stroke="#2A6049" stroke-width="0.3" stroke-miterlimit="10" stroke-linecap="round"/>
<path d="M92.7124 70.2421V84.0357" stroke="#2A6049" stroke-width="0.3" stroke-miterlimit="10" stroke-linecap="round"/>
<path d="M88.8656 70.53V84.0357" stroke="#2A6049" stroke-width="0.3" stroke-miterlimit="10" stroke-linecap="round"/>
<path d="M85.0178 70.7216V84.0357" stroke="#2A6049" stroke-width="0.3" stroke-miterlimit="10" stroke-linecap="round"/>
<path d="M81.17 70.7216V84.0357" stroke="#2A6049" stroke-width="0.3" stroke-miterlimit="10" stroke-linecap="round"/>
<path d="M77.3232 70.2421V84.0357" stroke="#2A6049" stroke-width="0.3" stroke-miterlimit="10" stroke-linecap="round"/>
<path d="M73.4755 69.5702V84.0357" stroke="#2A6049" stroke-width="0.3" stroke-miterlimit="10" stroke-linecap="round"/>
<path d="M69.6277 68.6104V84.0357" stroke="#2A6049" stroke-width="0.3" stroke-miterlimit="10" stroke-linecap="round"/>
<path d="M65.7809 67.3636V84.0357" stroke="#2A6049" stroke-width="0.3" stroke-miterlimit="10" stroke-linecap="round"/>
<path d="M61.9332 65.8281V84.0357" stroke="#2A6049" stroke-width="0.3" stroke-miterlimit="10" stroke-linecap="round"/>
<path d="M58.0854 63.8132V84.0357" stroke="#2A6049" stroke-width="0.3" stroke-miterlimit="10" stroke-linecap="round"/>
<path d="M54.2386 61.4142V84.0357" stroke="#2A6049" stroke-width="0.3" stroke-miterlimit="10" stroke-linecap="round"/>
<path d="M47.644 63.8132V83.9019" stroke="#2A6049" stroke-width="0.3" stroke-miterlimit="10" stroke-linecap="round"/>
<path d="M43.7963 67.715V83.9019" stroke="#2A6049" stroke-width="0.3" stroke-miterlimit="10" stroke-linecap="round"/>
<path d="M39.9495 70.8188V83.9019" stroke="#2A6049" stroke-width="0.3" stroke-miterlimit="10" stroke-linecap="round"/>
<path d="M36.1018 73.472V83.9019" stroke="#2A6049" stroke-width="0.3" stroke-miterlimit="10" stroke-linecap="round"/>
<path d="M32.254 75.8142V83.9018" stroke="#2A6049" stroke-width="0.3" stroke-miterlimit="10" stroke-linecap="round"/>
<path d="M28.4071 77.8667V83.9019" stroke="#2A6049" stroke-width="0.3" stroke-miterlimit="10" stroke-linecap="round"/>
<path d="M24.5594 79.5303V83.9019" stroke="#2A6049" stroke-width="0.3" stroke-miterlimit="10" stroke-linecap="round"/>
<path d="M20.7117 81.1428V83.9019" stroke="#2A6049" stroke-width="0.3" stroke-miterlimit="10" stroke-linecap="round"/>
<path d="M16.8649 82.2075V83.9019" stroke="#2A6049" stroke-width="0.3" stroke-miterlimit="10" stroke-linecap="round"/>
<path d="M252.947 53.1196V83.9943" stroke="#2A6049" stroke-width="0.3" stroke-miterlimit="10" stroke-linecap="round"/>
<path d="M256.843 57.342V83.9943" stroke="#2A6049" stroke-width="0.3" stroke-miterlimit="10" stroke-linecap="round"/>
<path d="M260.739 60.6046V83.9943" stroke="#2A6049" stroke-width="0.3" stroke-miterlimit="10" stroke-linecap="round"/>
<path d="M264.634 63.1952V83.9943" stroke="#2A6049" stroke-width="0.3" stroke-miterlimit="10" stroke-linecap="round"/>
<path d="M268.53 65.3064V83.9943" stroke="#2A6049" stroke-width="0.3" stroke-miterlimit="10" stroke-linecap="round"/>
<path d="M272.426 66.9382V83.9943" stroke="#2A6049" stroke-width="0.3" stroke-miterlimit="10" stroke-linecap="round"/>
<path d="M276.322 68.3773V83.9943" stroke="#2A6049" stroke-width="0.3" stroke-miterlimit="10" stroke-linecap="round"/>
<path d="M280.218 69.3362V83.9943" stroke="#2A6049" stroke-width="0.3" stroke-miterlimit="10" stroke-linecap="round"/>
<path d="M284.113 70.0082V83.9943" stroke="#2A6049" stroke-width="0.3" stroke-miterlimit="10" stroke-linecap="round"/>
<path d="M288.009 70.4886V83.9943" stroke="#2A6049" stroke-width="0.3" stroke-miterlimit="10" stroke-linecap="round"/>
<path d="M291.905 70.6802V83.9943" stroke="#2A6049" stroke-width="0.3" stroke-miterlimit="10" stroke-linecap="round"/>
<path d="M295.801 70.6802V83.9943" stroke="#2A6049" stroke-width="0.3" stroke-miterlimit="10" stroke-linecap="round"/>
<path d="M299.697 70.2007V83.9943" stroke="#2A6049" stroke-width="0.3" stroke-miterlimit="10" stroke-linecap="round"/>
<path d="M303.593 69.4325V83.9943" stroke="#2A6049" stroke-width="0.3" stroke-miterlimit="10" stroke-linecap="round"/>
<path d="M307.489 68.4727V83.9943" stroke="#2A6049" stroke-width="0.3" stroke-miterlimit="10" stroke-linecap="round"/>
<path d="M311.385 67.1298V83.9943" stroke="#2A6049" stroke-width="0.3" stroke-miterlimit="10" stroke-linecap="round"/>
<path d="M315.281 65.5942V83.9943" stroke="#2A6049" stroke-width="0.3" stroke-miterlimit="10" stroke-linecap="round"/>
<path d="M319.176 63.5793V83.9943" stroke="#2A6049" stroke-width="0.3" stroke-miterlimit="10" stroke-linecap="round"/>
<path d="M322.978 61.1802V83.9943" stroke="#2A6049" stroke-width="0.3" stroke-miterlimit="10" stroke-linecap="round"/>
<path d="M357.142 81.9245V83.9943" stroke="#2A6049" stroke-width="0.3" stroke-miterlimit="10" stroke-linecap="round"/>
<path d="M353.246 80.5719V83.9943" stroke="#2A6049" stroke-width="0.3" stroke-miterlimit="10" stroke-linecap="round"/>
<path d="M349.35 78.9844V83.9943" stroke="#2A6049" stroke-width="0.3" stroke-miterlimit="10" stroke-linecap="round"/>
<path d="M345.454 77.239V83.9943" stroke="#2A6049" stroke-width="0.3" stroke-miterlimit="10" stroke-linecap="round"/>
<path d="M341.558 75.0847V83.9943" stroke="#2A6049" stroke-width="0.3" stroke-miterlimit="10" stroke-linecap="round"/>
<path d="M337.663 72.4844V83.9943" stroke="#2A6049" stroke-width="0.3" stroke-miterlimit="10" stroke-linecap="round"/>
<path d="M333.767 69.2034V83.9943" stroke="#2A6049" stroke-width="0.3" stroke-miterlimit="10" stroke-linecap="round"/>
<path d="M329.965 65.3208V83.9943" stroke="#2A6049" stroke-width="0.3" stroke-miterlimit="10" stroke-linecap="round"/>
<path d="M245.944 51.9778V83.9943" stroke="#2A6049" stroke-width="0.3" stroke-miterlimit="10" stroke-linecap="round"/>
<path d="M242.048 55.6024V83.9943" stroke="#2A6049" stroke-width="0.3" stroke-miterlimit="10" stroke-linecap="round"/>
<path d="M238.152 58.5117V83.9943" stroke="#2A6049" stroke-width="0.3" stroke-miterlimit="10" stroke-linecap="round"/>
<path d="M234.256 60.9146V83.9943" stroke="#2A6049" stroke-width="0.3" stroke-miterlimit="10" stroke-linecap="round"/>
<path d="M230.36 63.0143V83.9943" stroke="#2A6049" stroke-width="0.3" stroke-miterlimit="10" stroke-linecap="round"/>
<path d="M226.464 64.9029V83.9943" stroke="#2A6049" stroke-width="0.3" stroke-miterlimit="10" stroke-linecap="round"/>
<path d="M222.568 66.4953V83.9943" stroke="#2A6049" stroke-width="0.3" stroke-miterlimit="10" stroke-linecap="round"/>
<path d="M218.672 68.0712V83.9943" stroke="#2A6049" stroke-width="0.3" stroke-miterlimit="10" stroke-linecap="round"/>
<path d="M214.776 69.1533V83.9943" stroke="#2A6049" stroke-width="0.3" stroke-miterlimit="10" stroke-linecap="round"/>
<path d="M210.881 70.1324V83.9943" stroke="#2A6049" stroke-width="0.3" stroke-miterlimit="10" stroke-linecap="round"/>
<path d="M206.985 71.0036V83.9943" stroke="#2A6049" stroke-width="0.3" stroke-miterlimit="10" stroke-linecap="round"/>
<path d="M203.089 71.6766V83.9943" stroke="#2A6049" stroke-width="0.3" stroke-miterlimit="10" stroke-linecap="round"/>
<path d="M199.193 72.1367V83.9943" stroke="#2A6049" stroke-width="0.3" stroke-miterlimit="10" stroke-linecap="round"/>
<path d="M195.297 72.78V83.9943" stroke="#2A6049" stroke-width="0.3" stroke-miterlimit="10" stroke-linecap="round"/>
<path d="M191.401 72.7404V83.9943" stroke="#2A6049" stroke-width="0.3" stroke-miterlimit="10" stroke-linecap="round"/>
<path d="M126.62 52.6584V93.2064" stroke="#2A6049" stroke-width="0.3" stroke-miterlimit="10" stroke-linecap="round"/>
<path d="M50.8557 59.0276V93.2064" stroke="#2A6049" stroke-width="0.3" stroke-miterlimit="10" stroke-linecap="round"/>
<path d="M249.351 47.843V93.2064" stroke="#2A6049" stroke-width="0.3" stroke-miterlimit="10" stroke-linecap="round"/>
<path d="M326.069 59.0276V93.2064" stroke="#2A6049" stroke-width="0.3" stroke-miterlimit="10" stroke-linecap="round"/>
<path d="M126.594 52.1703C137.347 66.9776 165.587 72.7028 189.16 72.7028" stroke="#2A6049" stroke-width="0.3" stroke-miterlimit="10" stroke-linecap="round"/>
<path d="M50.8817 58.993C59.2404 65.5105 70.9482 70.6089 83.9072 70.6089C103.221 70.6089 119.755 64.9694 126.567 52.2214" stroke="#2A6049" stroke-width="0.3" stroke-miterlimit="10" stroke-linecap="round"/>
<path d="M4.71716 83.9492C24.0262 83.9492 46.4516 68.8049 50.8711 58.9988" stroke="#2A6049" stroke-width="0.3" stroke-miterlimit="10" stroke-linecap="round"/>
<path d="M249.377 47.7872C238.49 62.5973 212.878 72.7028 189.01 72.7028" stroke="#2A6049" stroke-width="0.3" stroke-miterlimit="10" stroke-linecap="round"/>
<path d="M326.043 58.993C317.573 65.5105 305.723 70.6089 292.601 70.6089C273.044 70.6089 256.303 60.5641 249.406 47.8122" stroke="#2A6049" stroke-width="0.3" stroke-miterlimit="10" stroke-linecap="round"/>
<path d="M372.379 83.95C351.22 83.95 330.532 70.5242 326.052 58.9988" stroke="#2A6049" stroke-width="0.3" stroke-miterlimit="10" stroke-linecap="round"/>
<path d="M372.28 84.0251H4.71716" stroke="#2A6049" stroke-width="0.3" stroke-miterlimit="10" stroke-linecap="round"/>
<path d="M42.036 84.0251C46.9126 84.0251 50.8662 88.0838 50.8662 93.0899" stroke="#2A6049" stroke-width="0.3" stroke-miterlimit="10" stroke-linecap="round"/>
<path d="M59.6859 84.0251C54.8093 84.0251 50.8557 88.0838 50.8557 93.0899" stroke="#2A6049" stroke-width="0.3" stroke-miterlimit="10" stroke-linecap="round"/>
<path d="M117.875 84.0251C122.751 84.0251 126.705 88.0838 126.705 93.0899" stroke="#2A6049" stroke-width="0.3" stroke-miterlimit="10" stroke-linecap="round"/>
<path d="M135.525 84.0251C130.648 84.0251 126.695 88.0838 126.695 93.0899" stroke="#2A6049" stroke-width="0.3" stroke-miterlimit="10" stroke-linecap="round"/>
<path d="M317.132 84.0251C322.07 84.0251 326.072 88.0838 326.072 93.0899" stroke="#2A6049" stroke-width="0.3" stroke-miterlimit="10" stroke-linecap="round"/>
<path d="M335.003 84.0251C330.066 84.0251 326.062 88.0838 326.062 93.0899" stroke="#2A6049" stroke-width="0.3" stroke-miterlimit="10" stroke-linecap="round"/>
<path d="M240.42 84.0251C245.357 84.0251 249.361 88.0838 249.361 93.0899" stroke="#2A6049" stroke-width="0.3" stroke-miterlimit="10" stroke-linecap="round"/>
<path d="M258.292 84.0251C253.353 84.0251 249.351 88.0838 249.351 93.0899" stroke="#2A6049" stroke-width="0.3" stroke-miterlimit="10" stroke-linecap="round"/>
<path d="M25.2043 219.705H395.196" stroke="#59221D" stroke-width="0.3" stroke-miterlimit="10" stroke-linecap="round"/>
<path d="M91.6124 226H236.717" stroke="#59221D" stroke-width="0.3" stroke-miterlimit="10" stroke-linecap="round"/>
<path d="M133.071 106.003L123.893 147.159C123.517 148.843 122.579 150.349 121.233 151.428C119.887 152.507 118.214 153.095 116.489 153.095H75.9096C75.2164 153.095 74.532 152.939 73.9071 152.639C73.2822 152.339 72.7326 151.902 72.299 151.361C71.8655 150.82 71.5589 150.189 71.4021 149.514C71.2453 148.838 71.2421 148.136 71.3929 147.459L80.5715 106.303C80.9471 104.619 81.8851 103.114 83.2308 102.035C84.5766 100.956 86.2498 100.368 87.9745 100.368H128.555C129.248 100.368 129.932 100.524 130.557 100.824C131.182 101.124 131.731 101.56 132.165 102.101C132.598 102.642 132.905 103.273 133.062 103.949C133.218 104.624 133.221 105.326 133.071 106.003Z" fill="white"/>
<path d="M194.923 106.003L185.744 147.159C185.369 148.843 184.431 150.349 183.085 151.428C181.739 152.507 180.066 153.095 178.341 153.095H135.667C134.974 153.095 134.29 152.939 133.665 152.639C133.04 152.339 132.491 151.902 132.057 151.361C131.624 150.82 131.317 150.189 131.16 149.513C131.004 148.838 131.001 148.136 131.152 147.459L140.33 106.303C140.706 104.619 141.644 103.114 142.989 102.035C144.335 100.956 146.009 100.368 147.733 100.368H190.407C191.1 100.368 191.784 100.524 192.409 100.824C193.034 101.124 193.583 101.56 194.017 102.101C194.45 102.642 194.757 103.273 194.914 103.949C195.07 104.624 195.074 105.326 194.923 106.003Z" fill="white"/>
<path d="M260.086 153.095H199.71C198.879 153.095 198.059 152.908 197.311 152.549C196.562 152.189 195.903 151.666 195.384 151.018C194.864 150.369 194.497 149.612 194.309 148.803C194.122 147.994 194.118 147.152 194.299 146.342L203.229 106.303C203.604 104.619 204.542 103.114 205.888 102.035C207.234 100.956 208.907 100.368 210.631 100.368H233.654C234.943 100.368 236.208 100.717 237.315 101.378C238.421 102.039 239.329 102.987 239.94 104.122L263.371 147.589C264.712 150.076 262.911 153.095 260.086 153.095Z" fill="white"/>
<path d="M185.336 153.095V132.331C185.336 129.349 186.52 126.489 188.628 124.38C190.736 122.272 193.595 121.087 196.576 121.087H222.876C225.025 121.087 227.127 121.721 228.919 122.908C230.71 124.096 232.112 125.785 232.95 127.766L243.663 153.095H185.336Z" fill="white" stroke="#59221D" stroke-width="0.3" stroke-miterlimit="10"/>
<path d="M242.395 150.714H185.576V150.137H242.151L242.395 150.714Z" fill="#2A6049"/>
<path d="M241.265 148.045H185.576V147.467H241.022L241.265 148.045Z" fill="#2A6049"/>
<path d="M240.136 145.375H185.576V144.797H239.892L240.136 145.375Z" fill="#2A6049"/>
<path d="M239.007 142.705H185.576V142.128H238.763L239.007 142.705Z" fill="#2A6049"/>
<path d="M237.878 140.036H185.576V139.458H237.634L237.878 140.036Z" fill="#2A6049"/>
<path d="M236.749 137.366H185.576V136.789H236.505L236.749 137.366Z" fill="#2A6049"/>
<path d="M235.621 134.697H185.576V134.119H235.376L235.621 134.697Z" fill="#2A6049"/>
<path d="M234.491 132.023H185.58C185.585 131.831 185.595 131.638 185.61 131.446H234.243L234.491 132.023Z" fill="#2A6049"/>
<path d="M233.363 129.359H185.984C186.038 129.166 186.098 128.973 186.164 128.781H233.118L233.363 129.359Z" fill="#2A6049"/>
<path d="M232.147 126.689H187.135C187.252 126.492 187.376 126.3 187.506 126.111H231.791C231.915 126.3 232.035 126.491 232.147 126.689Z" fill="#2A6049"/>
<path d="M229.975 124.019H189.374C189.608 123.817 189.85 123.624 190.1 123.442H229.271C229.512 123.624 229.747 123.817 229.975 124.019Z" fill="#2A6049"/>
<path d="M253.043 143.081L235.288 153.304" stroke="#EC744A" stroke-width="0.3" stroke-miterlimit="10"/>
<path d="M252.979 153.316C253.455 152.192 253.786 151.013 253.963 149.805C254.921 143.452 251.031 138.146 245.275 137.958C239.518 137.769 234.077 142.771 233.119 149.125C232.902 150.513 232.928 151.927 233.194 153.307L252.979 153.316Z" stroke="#EC744A" stroke-width="0.3" stroke-miterlimit="10"/>
<path d="M237.367 153.095H185.272C188.545 150.372 220.807 137.724 234.287 143.02C242.065 146.079 237.367 153.095 237.367 153.095Z" fill="#A74602"/>
<path d="M234.183 146.266C237.075 147.402 237.953 148.797 238.279 150.465" stroke="#59221D" stroke-width="0.3" stroke-linecap="round" stroke-linejoin="round"/>
<path d="M233.137 149.197C236.029 150.334 237.004 151.44 237.329 153.107" stroke="#59221D" stroke-width="0.3" stroke-linecap="round" stroke-linejoin="round"/>
<path d="M216.786 121.087V116.097L209.633 114.469L205.362 121.087L216.879 128.415L216.786 121.087Z" fill="#A74602"/>
<path d="M205.362 121.087L217.193 128.415" stroke="#59221D" stroke-width="0.3" stroke-miterlimit="10" stroke-linecap="round"/>
<path d="M216.786 121.279V116.097L209.947 114.574C209.96 115.121 210.102 115.657 210.361 116.14C210.62 116.622 210.988 117.036 211.437 117.35L216.786 121.279Z" fill="#59221D"/>
<path d="M217.946 109.91C217.815 109.64 217.61 109.413 217.356 109.254C217.102 109.095 216.808 109.011 216.508 109.011H213.008C212.946 109.011 212.885 109.011 212.826 109.019C212.258 109.064 211.728 109.322 211.341 109.741C210.955 110.16 210.74 110.709 210.74 111.279V111.99C209.654 111.913 208.795 110.973 208.795 109.826C208.795 108.629 209.732 107.658 210.885 107.658C211.05 107.658 211.213 107.678 211.372 107.718C211.746 107.014 213.708 103.612 215.792 105.447C216.344 105.928 215.854 106.908 215.819 106.978C215.915 106.873 218.025 104.578 219.889 106.357C221.342 107.743 219.098 109.264 217.946 109.91Z" fill="#59221D"/>
<path d="M218.107 110.61V114.763C218.107 115.358 217.871 115.928 217.451 116.349C217.031 116.769 216.46 117.005 215.866 117.005H212.979C212.384 117.005 211.814 116.769 211.394 116.349C210.973 115.928 210.737 115.358 210.737 114.763V114.748H209.152C208.708 114.748 208.282 114.571 207.968 114.257C207.654 113.943 207.477 113.517 207.477 113.073V112.74C207.477 112.295 207.654 111.869 207.968 111.555C208.282 111.241 208.708 111.064 209.152 111.064H209.413C209.665 111.064 209.913 111.118 210.142 111.223C210.371 111.328 210.574 111.482 210.737 111.674V111.279C210.737 110.678 210.976 110.101 211.401 109.675C211.827 109.25 212.403 109.011 213.005 109.011H216.505C216.715 109.01 216.923 109.051 217.118 109.132C217.312 109.212 217.489 109.329 217.638 109.478C217.787 109.627 217.905 109.803 217.985 109.997C218.066 110.191 218.107 110.4 218.107 110.61Z" fill="#A74602"/>
<path d="M217.684 111.126C217.684 111.126 215.405 110.741 215.742 111.656C216.079 112.572 216.081 113.567 215.847 114.058" stroke="#59221D" stroke-width="0.3" stroke-miterlimit="10" stroke-linecap="round"/>
<path d="M213.73 113.076C213.897 113.076 214.033 112.891 214.033 112.663C214.033 112.436 213.897 112.251 213.73 112.251C213.563 112.251 213.428 112.436 213.428 112.663C213.428 112.891 213.563 113.076 213.73 113.076Z" fill="#59221D"/>
<path d="M216.856 113.076C217.023 113.076 217.158 112.891 217.158 112.663C217.158 112.436 217.023 112.251 216.856 112.251C216.689 112.251 216.554 112.436 216.554 112.663C216.554 112.891 216.689 113.076 216.856 113.076Z" fill="#59221D"/>
<path d="M215.735 115.038C215.735 115.038 214.614 115.326 214.474 114.521" stroke="#59221D" stroke-width="0.3" stroke-miterlimit="10" stroke-linecap="round"/>
<path d="M212.34 111.229C212.94 110.949 213.613 110.864 214.264 110.985" stroke="#59221D" stroke-width="0.3" stroke-miterlimit="10" stroke-linecap="round"/>
<path d="M210.22 113.187C210.22 112.874 210.096 112.574 209.875 112.353C209.653 112.131 209.353 112.007 209.04 112.007" stroke="#59221D" stroke-width="0.3" stroke-miterlimit="10" stroke-linecap="round"/>
<path d="M211.073 110.968C211.988 110.968 212.73 110.226 212.73 109.31C212.73 108.395 211.988 107.653 211.073 107.653C210.158 107.653 209.416 108.395 209.416 109.31C209.416 110.226 210.158 110.968 211.073 110.968Z" fill="#59221D"/>
<path d="M296.008 205.738C296.008 213.417 290.678 219.64 283.418 219.64H280.063C287.067 219.64 292.743 213.417 292.743 205.738C292.743 198.06 287.065 191.835 280.063 191.835H283.423C290.678 191.835 296.008 198.064 296.008 205.738Z" fill="white" stroke="#59221D" stroke-width="0.3" stroke-miterlimit="10"/>
<path d="M280.064 219.641C287.067 219.641 292.744 213.417 292.744 205.738C292.744 198.06 287.067 191.835 280.064 191.835C273.062 191.835 267.385 198.06 267.385 205.738C267.385 213.417 273.062 219.641 280.064 219.641Z" fill="#A74602" stroke="#59221D" stroke-width="0.3" stroke-miterlimit="10"/>
<path d="M280.063 214.274C284.308 214.274 287.749 210.501 287.749 205.847C287.749 201.193 284.308 197.42 280.063 197.42C275.819 197.42 272.378 201.193 272.378 205.847C272.378 210.501 275.819 214.274 280.063 214.274Z" stroke="#59221D" stroke-width="0.3" stroke-miterlimit="10"/>
<path d="M311.083 173.516L269.479 153.097L241.056 100.37L240.006 98.4204C239.133 96.7848 237.832 95.4172 236.242 94.4637C234.652 93.5101 232.833 93.0063 230.98 93.0062H84.1959C81.8693 93.0061 79.6122 93.7991 77.7967 95.2545C75.9811 96.7098 74.7156 98.7406 74.2088 101.012L51.8258 201.376H316.01V181.744C316.01 180.055 315.551 178.398 314.684 176.949C313.816 175.5 312.571 174.313 311.083 173.516ZM116.489 153.097H75.9094C75.2163 153.097 74.5319 152.941 73.907 152.641C73.282 152.341 72.7325 151.904 72.2989 151.363C71.8653 150.822 71.5588 150.191 71.402 149.516C71.2451 148.84 71.242 148.138 71.3928 147.461L80.5714 106.305C80.9469 104.621 81.8849 103.116 83.2307 102.037C84.5765 100.958 86.2497 100.37 87.9744 100.37H128.555C129.248 100.37 129.932 100.526 130.557 100.826C131.182 101.126 131.731 101.562 132.165 102.103C132.598 102.644 132.905 103.275 133.061 103.951C133.218 104.626 133.221 105.328 133.071 106.005L123.893 147.161C123.517 148.845 122.579 150.35 121.233 151.429C119.887 152.507 118.214 153.095 116.489 153.095V153.097ZM178.341 153.097H135.667C134.974 153.097 134.29 152.941 133.665 152.641C133.04 152.341 132.49 151.905 132.057 151.363C131.623 150.822 131.317 150.191 131.16 149.515C131.003 148.84 131 148.138 131.151 147.461L140.33 106.305C140.705 104.621 141.643 103.115 142.989 102.036C144.335 100.958 146.008 100.37 147.733 100.37H190.407C191.1 100.37 191.784 100.526 192.409 100.826C193.034 101.126 193.583 101.562 194.017 102.103C194.45 102.644 194.757 103.275 194.913 103.951C195.07 104.626 195.073 105.328 194.922 106.005L185.744 147.161C185.368 148.845 184.43 150.35 183.084 151.429C181.739 152.508 180.066 153.095 178.341 153.095V153.097ZM260.085 153.097H199.71C198.879 153.097 198.059 152.91 197.31 152.551C196.561 152.191 195.903 151.668 195.383 151.02C194.864 150.371 194.497 149.614 194.309 148.805C194.121 147.996 194.118 147.155 194.299 146.344L203.228 106.305C203.604 104.621 204.542 103.115 205.887 102.036C207.233 100.958 208.906 100.37 210.631 100.37H233.653C234.942 100.37 236.207 100.719 237.314 101.38C238.421 102.041 239.328 102.989 239.94 104.124L263.371 147.591C264.711 150.076 262.911 153.095 260.085 153.095V153.097Z" fill="#EC744A"/>
<path d="M322.953 203.505V205.912C322.953 206.476 322.729 207.018 322.33 207.417C321.931 207.816 321.39 208.04 320.825 208.04H47.0108C46.7313 208.04 46.4545 207.985 46.1962 207.878C45.9379 207.772 45.7032 207.615 45.5055 207.417C45.3079 207.219 45.151 206.985 45.044 206.726C44.937 206.468 44.882 206.191 44.882 205.912V203.505C44.8818 203.225 44.9368 202.948 45.0438 202.69C45.1507 202.432 45.3075 202.197 45.5053 201.999C45.703 201.801 45.9377 201.645 46.1961 201.538C46.4544 201.431 46.7313 201.376 47.0108 201.376H320.825C321.105 201.376 321.382 201.431 321.64 201.538C321.898 201.645 322.133 201.802 322.33 202C322.528 202.197 322.685 202.432 322.792 202.69C322.898 202.948 322.953 203.225 322.953 203.505Z" fill="white" stroke="#59221D" stroke-width="0.3" stroke-miterlimit="10"/>
<path d="M254.823 203.505V205.912C254.823 206.476 254.599 207.018 254.2 207.417C253.801 207.816 253.259 208.04 252.695 208.04H47.0108C46.7313 208.04 46.4545 207.985 46.1962 207.878C45.9379 207.772 45.7032 207.615 45.5056 207.417C45.3079 207.219 45.151 206.985 45.044 206.726C44.937 206.468 44.882 206.191 44.882 205.912V203.505C44.8818 203.225 44.9368 202.948 45.0438 202.69C45.1507 202.432 45.3075 202.197 45.5053 201.999C45.703 201.801 45.9377 201.645 46.1961 201.538C46.4544 201.431 46.7313 201.376 47.0108 201.376H252.695C252.975 201.376 253.251 201.431 253.51 201.538C253.768 201.645 254.002 201.802 254.2 202C254.398 202.197 254.554 202.432 254.661 202.69C254.768 202.948 254.823 203.225 254.823 203.505Z" fill="white" stroke="#59221D" stroke-width="0.3" stroke-miterlimit="10"/>
<path d="M310.263 189.184C313.422 189.184 315.983 185.818 315.983 181.665C315.983 177.512 313.422 174.145 310.263 174.145C307.104 174.145 304.544 177.512 304.544 181.665C304.544 185.818 307.104 189.184 310.263 189.184Z" fill="white"/>
<path d="M309.315 188.175C312.587 188.175 315.24 184.909 315.24 180.881C315.24 176.853 312.587 173.588 309.315 173.588C306.043 173.588 303.391 176.853 303.391 180.881C303.391 184.909 306.043 188.175 309.315 188.175Z" stroke="#59221D" stroke-width="0.3" stroke-miterlimit="10" stroke-linecap="round"/>
<path d="M309.002 173.588H307.327C304.055 173.588 301.402 176.853 301.402 180.881C301.402 184.909 304.055 188.175 307.327 188.175H309.002" stroke="#59221D" stroke-width="0.3" stroke-miterlimit="10" stroke-linecap="round"/>
<path d="M255.73 189.184C258.888 189.184 261.449 185.818 261.449 181.665C261.449 177.512 258.888 174.145 255.73 174.145C252.571 174.145 250.01 177.512 250.01 181.665C250.01 185.818 252.571 189.184 255.73 189.184Z" fill="white"/>
<path d="M254.782 188.175C258.054 188.175 260.706 184.909 260.706 180.881C260.706 176.853 258.054 173.588 254.782 173.588C251.509 173.588 248.857 176.853 248.857 180.881C248.857 184.909 251.509 188.175 254.782 188.175Z" stroke="#59221D" stroke-width="0.3" stroke-miterlimit="10" stroke-linecap="round"/>
<path d="M254.468 173.588H252.793C249.521 173.588 246.869 176.853 246.869 180.881C246.869 184.909 249.521 188.175 252.793 188.175H254.468" stroke="#59221D" stroke-width="0.3" stroke-miterlimit="10" stroke-linecap="round"/>
<path d="M243.901 201.376V181.744C243.901 180.055 243.443 178.397 242.576 176.948C241.708 175.499 240.464 174.312 238.976 173.514L201.837 156.221" stroke="#59221D" stroke-width="0.3" stroke-miterlimit="10" stroke-linecap="round"/>
<path d="M116.347 197.146L138.064 99.851C138.189 99.2881 138.503 98.7848 138.953 98.4242C139.403 98.0635 139.962 97.8669 140.539 97.8668H196.429C196.9 97.8671 197.366 97.9732 197.79 98.1773C198.215 98.3814 198.588 98.6783 198.883 99.046C199.178 99.4138 199.386 99.843 199.493 100.302C199.599 100.761 199.602 101.238 199.499 101.698L178.195 197.143" stroke="#59221D" stroke-width="0.3" stroke-miterlimit="10" stroke-linecap="round"/>
<path d="M118.011 156.221H73.1001" stroke="#59221D" stroke-width="0.3" stroke-miterlimit="10" stroke-linecap="round"/>
<path d="M75.4755 97.8668H240.006" stroke="#59221D" stroke-width="0.3" stroke-miterlimit="10" stroke-linecap="round"/>
<path d="M263.922 179.146H299.36" stroke="#59221D" stroke-width="0.3" stroke-miterlimit="10" stroke-linecap="round"/>
<path d="M208.353 156.221H266.008" stroke="#59221D" stroke-width="0.3" stroke-miterlimit="10" stroke-linecap="round"/>
<path d="M61.1382 196.332C64.8579 187.648 73.128 181.602 82.732 181.602C92.67 181.602 101.178 188.071 104.696 197.241H187.741C191.002 187.639 199.626 181.602 209.23 181.602C219.168 181.602 227.676 188.071 231.193 197.241" stroke="#59221D" stroke-width="0.3" stroke-miterlimit="10" stroke-linecap="round"/>
<path d="M294.027 182.48H269.255C268.254 182.48 267.443 183.292 267.443 184.293V194.561C267.443 195.562 268.254 196.374 269.255 196.374H294.027C295.028 196.374 295.84 195.562 295.84 194.561V184.293C295.84 183.292 295.028 182.48 294.027 182.48Z" stroke="white" stroke-width="0.3" stroke-miterlimit="10" stroke-linecap="round"/>
<path d="M271.424 186.371H291.857" stroke="#59221D" stroke-width="0.3" stroke-miterlimit="10" stroke-linecap="round"/>
<path d="M271.424 189.616H291.857" stroke="#59221D" stroke-width="0.3" stroke-miterlimit="10" stroke-linecap="round"/>
<path d="M271.424 192.861H291.857" stroke="#59221D" stroke-width="0.3" stroke-miterlimit="10" stroke-linecap="round"/>
<path d="M101.309 201.376H64.1593C66.1198 192.647 73.6931 186.14 82.7341 186.14C91.7751 186.14 99.3484 192.647 101.309 201.376Z" fill="#59221D"/>
<path d="M96.9818 205.812C96.9818 213.49 91.6509 219.715 84.3914 219.715H81.0374C88.0399 219.715 93.7173 213.49 93.7173 205.812C93.7173 198.134 88.039 191.909 81.0374 191.909H84.3943C91.6509 191.909 96.9818 198.134 96.9818 205.812Z" fill="#A74602" stroke="#59221D" stroke-width="0.3" stroke-miterlimit="10"/>
<path d="M81.0373 219.715C88.0403 219.715 93.7173 213.49 93.7173 205.812C93.7173 198.133 88.0403 191.909 81.0373 191.909C74.0344 191.909 68.3574 198.133 68.3574 205.812C68.3574 213.49 74.0344 219.715 81.0373 219.715Z" fill="white" stroke="#59221D" stroke-width="0.3" stroke-miterlimit="10"/>
<path d="M81.9593 215.187C86.2041 215.187 89.6452 211.414 89.6452 206.759C89.6452 202.105 86.2041 198.332 81.9593 198.332C77.7145 198.332 74.2734 202.105 74.2734 206.759C74.2734 211.414 77.7145 215.187 81.9593 215.187Z" fill="#A74602"/>
<path d="M81.0373 214.348C85.2822 214.348 88.7233 210.575 88.7233 205.921C88.7233 201.266 85.2822 197.493 81.0373 197.493C76.7925 197.493 73.3514 201.266 73.3514 205.921C73.3514 210.575 76.7925 214.348 81.0373 214.348Z" stroke="#59221D" stroke-width="0.3" stroke-miterlimit="10"/>
<path d="M81.0162 207.167C81.7072 207.167 82.2673 206.607 82.2673 205.916C82.2673 205.225 81.7072 204.664 81.0162 204.664C80.3252 204.664 79.765 205.225 79.765 205.916C79.765 206.607 80.3252 207.167 81.0162 207.167Z" stroke="#59221D" stroke-width="0.3" stroke-miterlimit="10"/>
<path d="M227.807 201.376H190.657C192.618 192.647 200.191 186.14 209.232 186.14C218.273 186.14 225.846 192.647 227.807 201.376Z" fill="#59221D"/>
<path d="M223.48 205.812C223.48 213.49 218.149 219.715 210.889 219.715H207.535C214.538 219.715 220.215 213.49 220.215 205.812C220.215 198.134 214.537 191.909 207.535 191.909H210.889C218.149 191.909 223.48 198.134 223.48 205.812Z" fill="#A74602" stroke="#59221D" stroke-width="0.3" stroke-miterlimit="10"/>
<path d="M207.535 219.715C214.538 219.715 220.215 213.49 220.215 205.812C220.215 198.133 214.538 191.909 207.535 191.909C200.532 191.909 194.855 198.133 194.855 205.812C194.855 213.49 200.532 219.715 207.535 219.715Z" fill="white" stroke="#59221D" stroke-width="0.3" stroke-miterlimit="10"/>
<path d="M208.457 215.187C212.702 215.187 216.143 211.414 216.143 206.759C216.143 202.105 212.702 198.332 208.457 198.332C204.212 198.332 200.771 202.105 200.771 206.759C200.771 211.414 204.212 215.187 208.457 215.187Z" fill="#A74602"/>
<path d="M207.535 214.348C211.78 214.348 215.221 210.575 215.221 205.921C215.221 201.266 211.78 197.493 207.535 197.493C203.29 197.493 199.849 201.266 199.849 205.921C199.849 210.575 203.29 214.348 207.535 214.348Z" stroke="#59221D" stroke-width="0.3" stroke-miterlimit="10"/>
<path d="M207.514 207.167C208.205 207.167 208.765 206.607 208.765 205.916C208.765 205.225 208.205 204.664 207.514 204.664C206.823 204.664 206.263 205.225 206.263 205.916C206.263 206.607 206.823 207.167 207.514 207.167Z" stroke="#59221D" stroke-width="0.3" stroke-miterlimit="10"/>
<path d="M207.253 76.5815V89.9765C207.253 90.3741 207.175 90.7678 207.023 91.1352C206.871 91.5025 206.648 91.8363 206.367 92.1174C206.086 92.3986 205.752 92.6216 205.385 92.7737C205.018 92.9259 204.624 93.0042 204.226 93.0042H106.662C106.264 93.0042 105.871 92.9259 105.504 92.7737C105.136 92.6215 104.803 92.3985 104.522 92.1174C104.241 91.8362 104.018 91.5024 103.866 91.1351C103.714 90.7678 103.636 90.3741 103.636 89.9765V76.5806C103.636 76.183 103.714 75.7894 103.866 75.4221C104.018 75.0549 104.241 74.7211 104.522 74.4401C104.803 74.159 105.137 73.936 105.504 73.784C105.871 73.6319 106.264 73.5537 106.662 73.5538H204.225C205.028 73.5538 205.798 73.8728 206.366 74.4406C206.934 75.0083 207.253 75.7784 207.253 76.5815Z" fill="#BDCAC2"/>
<path d="M207.253 76.5815V89.9765C207.253 90.3741 207.175 90.7678 207.023 91.1352C206.871 91.5025 206.648 91.8363 206.367 92.1174C206.086 92.3986 205.752 92.6216 205.385 92.7737C205.017 92.9259 204.624 93.0042 204.226 93.0042H170.606C169.803 93.0039 169.034 92.6848 168.466 92.1171C167.899 91.5493 167.58 90.7793 167.58 89.9765V76.5806C167.58 75.7778 167.899 75.008 168.466 74.4403C169.034 73.8727 169.804 73.5538 170.606 73.5538H204.225C205.028 73.5538 205.798 73.8728 206.366 74.4406C206.934 75.0083 207.253 75.7784 207.253 76.5815Z" fill="#2A6049"/>
<path d="M205.993 77.4038V89.1544C205.993 90.6215 204.732 91.8104 203.174 91.8104H171.868C170.312 91.8104 169.05 90.6215 169.05 89.1544V77.4028C169.05 75.9357 170.312 74.7468 171.868 74.7468H203.173C204.731 74.7429 205.993 75.9367 205.993 77.4038Z" stroke="#7EBAD2" stroke-width="0.3" stroke-miterlimit="10" stroke-linecap="round"/>
<path d="M169.042 83.2261H205.685" stroke="#7EBAD2" stroke-width="0.3" stroke-miterlimit="10" stroke-linecap="round"/>
<path d="M184.211 33.4719H184.39C184.661 33.4719 184.921 33.5796 185.112 33.7714C185.304 33.9631 185.412 34.2232 185.412 34.4943V40.5592H183.19V34.4943C183.19 34.2232 183.297 33.9631 183.489 33.7714C183.681 33.5796 183.941 33.4719 184.212 33.4719H184.211Z" stroke="#59221D" stroke-width="0.3" stroke-miterlimit="10" stroke-linecap="round"/>
<path d="M177.325 40.2444H191.141C191.861 40.2444 192.551 40.5304 193.06 41.0393C193.569 41.5483 193.854 42.2385 193.854 42.9583V73.5539H174.612V42.9583C174.612 42.2385 174.898 41.5483 175.406 41.0393C175.915 40.5304 176.605 40.2444 177.325 40.2444Z" fill="#59221D"/>
<path d="M193.853 42.9583V43.4964L184.568 52.5112V73.5539H184.087V52.4938L174.612 43.4878V42.9583C174.612 42.914 174.612 42.8707 174.612 42.8274L184.087 51.8305V40.2444H184.568V51.8402L193.85 42.8293C193.852 42.8717 193.853 42.915 193.853 42.9583Z" fill="white"/>
<path d="M187.18 93.0042V86.3356" stroke="#59221D" stroke-width="0.3" stroke-miterlimit="10"/>
<path d="M89.7452 93.0042V86.3356" stroke="#59221D" stroke-width="0.3" stroke-miterlimit="10"/>
<path d="M226.007 93.0042V86.3356" stroke="#59221D" stroke-width="0.3" stroke-miterlimit="10"/>
<path d="M84.3644 86.3356H229.652" stroke="#59221D" stroke-width="0.3" stroke-miterlimit="10" stroke-linecap="round"/>
<path d="M121.395 51.1836H170.882C171.871 51.1836 172.819 51.5762 173.518 52.2752C174.218 52.9742 174.611 53.9223 174.612 54.9112V73.5538H118.006V54.5733C118.006 54.1281 118.094 53.6873 118.264 53.2761C118.434 52.8648 118.684 52.4912 118.998 52.1764C119.313 51.8616 119.687 51.612 120.098 51.4416C120.509 51.2713 120.95 51.1836 121.395 51.1836Z" fill="#EC744A"/>
<path d="M174.403 73.5538V54.8851C174.403 53.9597 174.036 53.0722 173.382 52.4175C172.728 51.7628 171.841 51.3945 170.916 51.3934H166.802C165.824 51.3934 164.887 51.7818 164.196 52.4731C163.505 53.1644 163.116 54.102 163.116 55.0796V73.5538" stroke="white" stroke-width="0.3" stroke-miterlimit="10"/>
<path d="M121.167 51.1836V73.5538" stroke="white" stroke-width="0.3" stroke-miterlimit="10"/>
<path d="M124.412 51.1836V73.5538" stroke="white" stroke-width="0.3" stroke-miterlimit="10"/>
<path d="M127.656 51.1836V73.5538" stroke="white" stroke-width="0.3" stroke-miterlimit="10"/>
<path d="M130.9 51.1836V73.5538" stroke="white" stroke-width="0.3" stroke-miterlimit="10"/>
<path d="M134.145 51.1836V73.5538" stroke="white" stroke-width="0.3" stroke-miterlimit="10"/>
<path d="M137.389 51.1836V73.5538" stroke="white" stroke-width="0.3" stroke-miterlimit="10"/>
<path d="M140.633 51.1836V73.5538" stroke="white" stroke-width="0.3" stroke-miterlimit="10"/>
<path d="M143.878 51.1836V73.5538" stroke="white" stroke-width="0.3" stroke-miterlimit="10"/>
<path d="M147.122 51.1836V73.5538" stroke="white" stroke-width="0.3" stroke-miterlimit="10"/>
<path d="M150.366 51.1836V73.5538" stroke="white" stroke-width="0.3" stroke-miterlimit="10"/>
<path d="M153.611 51.1836V73.5538" stroke="white" stroke-width="0.3" stroke-miterlimit="10"/>
<path d="M156.855 51.1836V73.5538" stroke="white" stroke-width="0.3" stroke-miterlimit="10"/>
<path d="M160.099 51.1836V73.5538" stroke="white" stroke-width="0.3" stroke-miterlimit="10"/>
<path d="M118.006 70.5338H162.852" stroke="white" stroke-width="0.3" stroke-miterlimit="10"/>
<path d="M118.006 67.2886H162.852" stroke="white" stroke-width="0.3" stroke-miterlimit="10"/>
<path d="M118.006 64.0433H162.852" stroke="white" stroke-width="0.3" stroke-miterlimit="10"/>
<path d="M118.006 60.7981H162.852" stroke="white" stroke-width="0.3" stroke-miterlimit="10"/>
<path d="M118.006 57.5529H162.852" stroke="white" stroke-width="0.3" stroke-miterlimit="10"/>
<path d="M118.006 54.3076H163.166" stroke="white" stroke-width="0.3" stroke-miterlimit="10"/>
<path d="M168.757 51.3934V73.5538" stroke="white" stroke-width="0.3" stroke-miterlimit="10"/>
<path d="M150.68 46.9333H150.969C151.41 46.9333 151.834 47.1088 152.146 47.4211C152.458 47.7334 152.634 48.157 152.634 48.5988V48.8876C152.634 49.3293 152.458 49.7529 152.146 50.0652C151.834 50.3776 151.41 50.553 150.969 50.553H149.012V48.5988C149.012 48.3798 149.055 48.163 149.139 47.9607C149.223 47.7585 149.346 47.5748 149.501 47.4201C149.656 47.2654 149.84 47.1428 150.042 47.0592C150.244 46.9757 150.461 46.9329 150.68 46.9333Z" stroke="#59221D" stroke-width="0.3" stroke-miterlimit="10" stroke-linecap="round"/>
<path d="M146.535 45.4517H146.904C147.463 45.4517 148 45.6742 148.396 46.0701C148.792 46.466 149.014 47.003 149.014 47.5629V50.556H146.535C145.975 50.556 145.438 50.3335 145.042 49.9376C144.647 49.5417 144.424 49.0047 144.424 48.4448V47.5629C144.424 47.003 144.647 46.466 145.042 46.0701C145.438 45.6742 145.975 45.4517 146.535 45.4517V45.4517Z" stroke="#59221D" stroke-width="0.3" stroke-miterlimit="10" stroke-linecap="round"/>
<path d="M149.015 50.5559C147.861 50.5558 146.738 50.9266 145.81 51.6137C144.883 52.3008 144.201 53.2678 143.865 54.372L134.331 86.3337" stroke="#59221D" stroke-width="0.3" stroke-miterlimit="10" stroke-linecap="round"/>
<path d="M272.66 142.756C275.095 142.756 277.068 140.016 277.068 136.637C277.068 133.258 275.095 130.518 272.66 130.518C270.226 130.518 268.253 133.258 268.253 136.637C268.253 140.016 270.226 142.756 272.66 142.756Z" fill="#BDCAC2"/>
<path d="M271.588 142.189C274.023 142.189 275.996 139.45 275.996 136.07C275.996 132.691 274.023 129.951 271.588 129.951C269.154 129.951 267.18 132.691 267.18 136.07C267.18 139.45 269.154 142.189 271.588 142.189Z" stroke="#59221D" stroke-width="0.3" stroke-miterlimit="10" stroke-linecap="round"/>
<path d="M267.844 149.725C267.845 144.919 269.628 140.285 272.848 136.719" stroke="#59221D" stroke-width="0.3" stroke-miterlimit="10" stroke-linecap="round"/>
<path d="M146.075 125.888L169.739 121.954L176.615 139.062C177.116 140.307 177.249 141.67 176.997 142.988C176.746 144.307 176.121 145.525 175.198 146.499L174.015 147.75V153.1H145.72L146.075 125.888Z" fill="#59221D"/>
<path d="M175.198 146.498C176.121 145.525 176.746 144.306 176.997 142.988C177.249 141.67 177.116 140.307 176.615 139.062L169.739 121.954C171.396 121.678 173.098 121.947 174.59 122.719C176.082 123.492 177.284 124.727 178.016 126.239L185.433 141.575C188.011 146.905 184.129 153.095 178.215 153.095H174.015V147.745L175.198 146.498Z" fill="#A74602"/>
<path d="M145.428 125.98C144.059 126.212 142.766 126.769 141.658 127.605C140.55 128.442 139.658 129.532 139.059 130.784L132.31 144.893C126.945 156.109 138.977 167.683 149.972 161.882L166.622 153.095H184.727C185.12 153.095 185.497 152.939 185.776 152.66C186.054 152.382 186.21 152.005 186.21 151.611C186.21 151.337 186.134 151.067 185.989 150.834C185.845 150.6 185.639 150.41 185.394 150.287L177.28 146.196C174.453 144.772 171.331 144.029 168.165 144.029H150.687L150.906 130.685C150.918 129.996 150.777 129.312 150.494 128.684C150.212 128.055 149.794 127.496 149.271 127.047C148.748 126.597 148.133 126.269 147.469 126.085C146.804 125.9 146.108 125.864 145.428 125.98Z" fill="#A74602"/>
<path d="M184.727 152.781C185.546 152.781 186.21 152.431 186.21 151.611C186.21 151.337 186.133 151.067 185.989 150.833C185.845 150.6 185.639 150.41 185.394 150.287L177.279 146.196C174.452 144.771 171.331 144.029 168.165 144.029H153.435C150.745 144.029 148.104 144.75 145.786 146.117" stroke="#59221D" stroke-width="0.3" stroke-miterlimit="10" stroke-linecap="round"/>
<path d="M164.532 150.372C164.532 151.011 164.786 151.623 165.237 152.074C165.688 152.526 166.3 152.779 166.938 152.779" stroke="#59221D" stroke-width="0.3" stroke-miterlimit="10" stroke-linecap="round"/>
<path d="M176.214 148.636L182.277 151.119C182.607 151.255 182.889 151.485 183.087 151.781C183.285 152.077 183.391 152.425 183.391 152.781" stroke="#59221D" stroke-width="0.3" stroke-miterlimit="10" stroke-linecap="round"/>
<path d="M172.198 149.177L176.939 151.119C177.268 151.255 177.55 151.485 177.748 151.781C177.947 152.077 178.052 152.425 178.052 152.781" stroke="#59221D" stroke-width="0.3" stroke-miterlimit="10" stroke-linecap="round"/>
<path d="M170.083 121.905L157.84 123.937C156.677 128.847 152.312 131.875 147.489 130.212C136.998 126.594 155.025 112.064 158.119 109.363C161.428 106.475 165.818 106.393 166.833 108.986C167.774 111.38 165.823 112.452 164.427 112.65C164.581 113.757 165.653 120.339 170.083 121.905Z" fill="#DE7A54"/>
<path d="M163.52 118.02V123.731C163.52 124.582 163.182 125.398 162.58 126C161.978 126.602 161.162 126.94 160.311 126.94C159.46 126.94 158.644 126.602 158.042 126C157.44 125.398 157.102 124.582 157.102 123.731V115.234L163.52 118.02Z" fill="#A74602"/>
<path d="M157.102 115.234L163.52 118.02V122.998L159.631 120.559C158.84 119.915 158.204 119.102 157.766 118.181C157.329 117.26 157.102 116.254 157.102 115.234Z" fill="#59221D"/>
<path d="M164.194 112.644V116.512C164.194 116.843 164.129 117.171 164.003 117.476C163.876 117.782 163.691 118.06 163.457 118.294C163.223 118.528 162.945 118.713 162.64 118.84C162.334 118.966 162.006 119.032 161.676 119.032H161.093C160.411 119.032 159.741 118.858 159.146 118.525C158.551 118.193 158.051 117.714 157.694 117.133H155.948C155.511 117.123 155.094 116.941 154.788 116.628C154.482 116.314 154.311 115.894 154.311 115.456C154.311 115.018 154.482 114.597 154.788 114.284C155.094 113.97 155.511 113.789 155.948 113.778H156.472C156.719 113.777 156.961 113.855 157.162 113.999L160.069 110.674C161.917 112.758 164.194 112.644 164.194 112.644Z" fill="#A74602"/>
<path d="M156.825 115.698C156.825 115.411 156.711 115.136 156.508 114.933C156.305 114.73 156.03 114.616 155.743 114.616" stroke="#59221D" stroke-width="0.3" stroke-miterlimit="10" stroke-linecap="round"/>
<path d="M163.986 113.144C163.986 113.144 162.997 113.035 162.35 113.771C161.935 114.244 161.917 115.407 162.455 116.171" stroke="#59221D" stroke-width="0.3" stroke-miterlimit="10" stroke-linecap="round"/>
<path d="M160.342 115.19C160.509 115.19 160.644 115.005 160.644 114.778C160.644 114.55 160.509 114.366 160.342 114.366C160.175 114.366 160.04 114.55 160.04 114.778C160.04 115.005 160.175 115.19 160.342 115.19Z" fill="#59221D"/>
<path d="M163.154 115.19C163.321 115.19 163.456 115.005 163.456 114.778C163.456 114.55 163.321 114.366 163.154 114.366C162.987 114.366 162.852 114.55 162.852 114.778C162.852 115.005 162.987 115.19 163.154 115.19Z" fill="#59221D"/>
<path d="M162.35 117.151C162.35 117.151 161.229 117.44 161.09 116.635" stroke="#59221D" stroke-width="0.3" stroke-miterlimit="10" stroke-linecap="round"/>
<path d="M158.951 113.55C158.951 113.55 159.802 112.89 160.876 113.098" stroke="#59221D" stroke-width="0.3" stroke-miterlimit="10" stroke-linecap="round"/>
<path d="M128.16 128.023L123.846 147.331C123.494 148.907 122.633 150.324 121.397 151.363C120.161 152.403 118.618 153.007 117.005 153.083C116.89 153.083 116.774 153.092 116.658 153.092H75.77C75.0849 153.092 74.4086 152.937 73.7913 152.64C73.1739 152.343 72.6313 151.911 72.2037 151.376C71.7761 150.84 71.4744 150.215 71.321 149.548C71.1677 148.88 71.1666 148.186 71.3178 147.518L73.6151 137.374C74.2155 134.719 75.7005 132.347 77.8263 130.648C79.9521 128.949 82.5922 128.023 85.3133 128.023H128.16Z" fill="#BACAC2"/>
<path d="M79.7891 153.095C82.9651 147.145 90.1043 143 98.3985 143C106.693 143 113.508 147.14 116.691 153.086L79.7891 153.095Z" fill="white"/>
<path d="M106.378 144.388L103.981 153.089V153.095H103.49V153.089L103.749 143.604C104.641 143.81 105.519 144.072 106.378 144.388Z" fill="#59221D"/>
<path d="M116.737 138.992V153.095H103.959L107.895 138.992C107.895 139.805 109.858 140.463 112.281 140.463C114.705 140.463 116.448 139.751 116.737 138.992Z" fill="white"/>
<path d="M116.737 138.993C116.449 139.751 114.704 140.464 112.281 140.464C109.859 140.464 107.895 139.805 107.895 138.993V132.927C107.895 132.927 108.568 132.667 109.399 133.692C110.229 134.717 110.843 134.352 111.222 133.499C111.646 132.554 113.202 128.012 115.389 128.012C117.167 128.012 116.929 131.534 116.827 132.569C116.826 132.586 116.83 132.602 116.839 132.616C116.847 132.63 116.861 132.641 116.876 132.647C116.891 132.653 116.908 132.654 116.924 132.649C116.94 132.645 116.954 132.635 116.964 132.622C117.278 132.211 117.95 131.392 118.289 131.445C118.74 131.524 116.876 138.632 116.737 138.993Z" fill="#A74602"/>
<path d="M114.802 128.383L113.202 133.417" stroke="#59221D" stroke-width="0.3" stroke-miterlimit="10" stroke-linecap="round"/>
<path d="M116.058 128.705L114.562 133.627" stroke="#59221D" stroke-width="0.3" stroke-miterlimit="10" stroke-linecap="round"/>
<path d="M116.877 132.647L116.495 133.8" stroke="#59221D" stroke-width="0.3" stroke-miterlimit="10" stroke-linecap="round"/>
<path d="M94.6239 140.845H101.367V143.005C101.367 143.84 101.035 144.64 100.445 145.23C99.8551 145.82 99.0549 146.152 98.2205 146.152H97.772C96.9376 146.152 96.1373 145.82 95.5473 145.23C94.9573 144.64 94.6258 143.84 94.6258 143.005V140.845H94.6239Z" fill="#A74602"/>
<path d="M94.6239 140.845H101.367V143.027C101.367 143.492 101.263 143.95 101.063 144.369C100.863 144.789 100.573 145.158 100.212 145.45L96.6219 143.895C96.0279 143.637 95.5223 143.211 95.1673 142.669C94.8123 142.127 94.6234 141.493 94.6239 140.845Z" fill="#59221D"/>
<path d="M94.6335 139.085C94.6335 139.166 94.6656 139.244 94.7228 139.301C94.78 139.358 94.8576 139.391 94.9386 139.391H95.1032C95.1843 139.391 95.2622 139.359 95.3196 139.301C95.377 139.244 95.4092 139.166 95.4092 139.085V138.726C95.4092 138.29 95.4951 137.858 95.662 137.455C95.8288 137.052 96.0734 136.686 96.3818 136.378C96.6901 136.069 97.0561 135.825 97.459 135.658C97.8618 135.491 98.2936 135.405 98.7295 135.405H102.405L102.636 139.652C102.658 140.054 102.598 140.456 102.459 140.833C102.32 141.211 102.106 141.557 101.83 141.849C101.553 142.141 101.22 142.374 100.85 142.533C100.481 142.692 100.083 142.774 99.6804 142.774H97.6333C97.131 142.774 96.6369 142.646 96.1976 142.403C95.7583 142.159 95.3883 141.807 95.1224 141.381H93.2361C93.0218 141.381 92.8096 141.338 92.6118 141.256C92.414 141.174 92.2345 141.053 92.0836 140.901C91.9326 140.749 91.8133 140.568 91.7325 140.37C91.6516 140.171 91.6108 139.959 91.6125 139.744C91.6228 139.311 91.8034 138.898 92.1151 138.596C92.4268 138.295 92.8447 138.128 93.2784 138.132H93.6797C93.9322 138.132 94.1744 138.232 94.3531 138.41C94.5319 138.588 94.6327 138.83 94.6335 139.083V139.085Z" fill="#A74602"/>
<path d="M95.4093 139.085C95.4093 139.166 95.377 139.244 95.3196 139.301C95.2622 139.359 95.1844 139.391 95.1032 139.391H94.9387C94.8576 139.391 94.7801 139.358 94.7229 139.301C94.6657 139.244 94.6336 139.166 94.6336 139.085C94.6333 138.833 94.533 138.591 94.3548 138.413C94.1765 138.234 93.9348 138.134 93.6827 138.134L93.4633 136.561C93.4633 135.224 94.4209 134.141 95.6018 134.141C95.8222 134.141 96.041 134.179 96.2485 134.254C96.4477 133.132 97.3822 132.282 98.5054 132.282C99.018 132.283 99.5145 132.462 99.9096 132.789C100.072 132.251 100.403 131.779 100.853 131.443C101.304 131.107 101.85 130.924 102.412 130.921C103.855 130.921 105.032 132.121 105.032 133.601C105.032 135.082 103.858 136.281 102.412 136.281C102.045 136.281 101.683 136.203 101.349 136.052C101.015 135.901 100.717 135.68 100.474 135.405H98.7344C97.8786 135.405 97.0555 135.735 96.4373 136.327C95.819 136.919 95.4535 137.727 95.417 138.582L95.4093 139.085Z" fill="#DE7A54"/>
<path d="M93.9965 139.615C93.9624 139.415 93.8587 139.234 93.7038 139.102C93.5488 138.971 93.3525 138.899 93.1495 138.899" stroke="#59221D" stroke-width="0.3" stroke-miterlimit="10" stroke-linecap="round"/>
<path d="M102.149 137.269C102.149 137.269 101.216 136.868 100.522 137.695C100.115 138.176 99.9192 139.391 100.313 139.991" stroke="#59221D" stroke-width="0.3" stroke-miterlimit="10" stroke-linecap="round"/>
<path d="M98.4054 139.219C98.5723 139.219 98.7076 139.034 98.7076 138.807C98.7076 138.579 98.5723 138.395 98.4054 138.395C98.2385 138.395 98.1031 138.579 98.1031 138.807C98.1031 139.034 98.2385 139.219 98.4054 139.219Z" fill="#59221D"/>
<path d="M101.217 139.219C101.383 139.219 101.519 139.034 101.519 138.807C101.519 138.579 101.383 138.395 101.217 138.395C101.05 138.395 100.914 138.579 100.914 138.807C100.914 139.034 101.05 139.219 101.217 139.219Z" fill="#59221D"/>
<path d="M100.2 141.073C100.2 141.073 99.156 141.177 98.9395 140.66" stroke="#59221D" stroke-width="0.3" stroke-miterlimit="10" stroke-linecap="round"/>
<path d="M97.1185 137.788C97.1185 137.788 97.5584 137.122 98.7325 137.127" stroke="#59221D" stroke-width="0.3" stroke-miterlimit="10" stroke-linecap="round"/>
<path d="M294.579 29.7886C302.526 29.7886 308.969 23.344 308.969 15.3943C308.969 7.44454 302.526 1 294.579 1C286.631 1 280.189 7.44454 280.189 15.3943C280.189 23.344 286.631 29.7886 294.579 29.7886Z" stroke="#EC744A" stroke-width="0.3" stroke-miterlimit="10"/>
</svg>
