<svg width="50" height="50" viewBox="0 0 50 50" fill="none" xmlns="http://www.w3.org/2000/svg">
<g filter="url(#filter0_d)">
<rect x="5" y="1" width="40" height="40" rx="12" fill="white" stroke="#2A6049"/>
<path d="M35.909 20.3939C35.9132 21.9937 35.5394 23.5719 34.8181 24.9999C33.9629 26.7111 32.6481 28.1504 31.0211 29.1566C29.3941 30.1628 27.519 30.6961 25.606 30.6969C24.0062 30.7011 22.428 30.3273 21 29.606L14.0909 31.909L16.3939 24.9999C15.6726 23.5719 15.2988 21.9937 15.303 20.3939C15.3037 18.4809 15.8371 16.6058 16.8433 14.9788C17.8495 13.3518 19.2888 12.037 21 11.1818C22.428 10.4605 24.0062 10.0867 25.606 10.0909H26.2121C28.7386 10.2302 31.1248 11.2966 32.9141 13.0858C34.7033 14.875 35.7696 17.2613 35.909 19.7878V20.3939Z" stroke="#2A6049" stroke-linecap="round" stroke-linejoin="round"/>
</g>
<defs>
<filter id="filter0_d" x="0.5" y="0.5" width="49" height="49" filterUnits="userSpaceOnUse" color-interpolation-filters="sRGB">
<feFlood flood-opacity="0" result="BackgroundImageFix"/>
<feColorMatrix in="SourceAlpha" type="matrix" values="0 0 0 0 0 0 0 0 0 0 0 0 0 0 0 0 0 0 127 0"/>
<feOffset dy="4"/>
<feGaussianBlur stdDeviation="2"/>
<feColorMatrix type="matrix" values="0 0 0 0 0 0 0 0 0 0 0 0 0 0 0 0 0 0 0.25 0"/>
<feBlend mode="normal" in2="BackgroundImageFix" result="effect1_dropShadow"/>
<feBlend mode="normal" in="SourceGraphic" in2="effect1_dropShadow" result="shape"/>
</filter>
</defs>
</svg>
