<svg width="328" height="45" viewBox="0 0 328 45" fill="none" xmlns="http://www.w3.org/2000/svg">
<rect width="328" height="45" rx="22.5" fill="#BDCAC2"/>
<path d="M132.697 29.2197C135.765 29.2197 137.988 27.2949 138.234 24.5967L138.243 24.5H135.659L135.642 24.5879C135.299 26.0908 134.227 26.9697 132.697 26.9697C130.667 26.9697 129.366 25.3174 129.366 22.6455V22.6367C129.366 19.9824 130.667 18.3477 132.697 18.3477C134.279 18.3477 135.316 19.2617 135.615 20.6592L135.65 20.8086H138.234L138.226 20.7295C137.979 18.04 135.773 16.0977 132.697 16.0977C128.997 16.0977 126.659 18.5586 126.659 22.6455V22.6543C126.659 26.7412 128.988 29.2197 132.697 29.2197ZM143.991 29.1934C146.839 29.1934 148.658 27.3652 148.658 24.2891V24.2715C148.658 21.2217 146.804 19.3848 143.982 19.3848C141.17 19.3848 139.324 21.2393 139.324 24.2715V24.2891C139.324 27.3564 141.126 29.1934 143.991 29.1934ZM144 27.1807C142.734 27.1807 141.935 26.1348 141.935 24.2891V24.2715C141.935 22.4521 142.743 21.3975 143.982 21.3975C145.23 21.3975 146.048 22.4521 146.048 24.2715V24.2891C146.048 26.126 145.248 27.1807 144 27.1807ZM149.985 29H152.552V23.5859C152.552 22.3555 153.281 21.5117 154.433 21.5117C155.584 21.5117 156.164 22.2148 156.164 23.4453V29H158.73V22.918C158.73 20.7119 157.553 19.3848 155.479 19.3848C154.055 19.3848 153.088 20.0439 152.604 21.125H152.552V19.5781H149.985V29ZM164.101 29.1934C164.637 29.1934 165.05 29.1406 165.34 29.0967V27.2158C165.182 27.2334 165.015 27.2598 164.786 27.2598C164.013 27.2598 163.617 26.9609 163.617 26.082V21.5117H165.34V19.5781H163.617V17.2754H161.024V19.5781H159.715V21.5117H161.024V26.3633C161.024 28.3848 162.009 29.1934 164.101 29.1934ZM168.091 18.3652C168.864 18.3652 169.462 17.7588 169.462 17.0293C169.462 16.2998 168.864 15.6934 168.091 15.6934C167.317 15.6934 166.72 16.2998 166.72 17.0293C166.72 17.7588 167.317 18.3652 168.091 18.3652ZM166.808 29H169.374V19.5781H166.808V29ZM171.097 29H173.663V23.5859C173.663 22.3555 174.393 21.5117 175.544 21.5117C176.695 21.5117 177.275 22.2148 177.275 23.4453V29H179.842V22.918C179.842 20.7119 178.664 19.3848 176.59 19.3848C175.166 19.3848 174.199 20.0439 173.716 21.125H173.663V19.5781H171.097V29ZM184.676 29.1934C186.1 29.1934 187.066 28.5254 187.55 27.4443H187.603V29H190.169V19.5781H187.603V24.9922C187.603 26.2227 186.873 27.0664 185.722 27.0664C184.57 27.0664 183.99 26.3545 183.99 25.124V19.5781H181.424V25.6602C181.424 27.8662 182.602 29.1934 184.676 29.1934ZM196.128 29.1934C198.817 29.1934 200.118 27.6025 200.408 26.2139L200.435 26.1172H198.079L198.062 26.1699C197.877 26.6973 197.235 27.2773 196.181 27.2773C194.871 27.2773 194.054 26.3984 194.027 24.8955H200.514V24.1045C200.514 21.2568 198.782 19.3848 196.022 19.3848C193.263 19.3848 191.496 21.3008 191.496 24.2979V24.3066C191.496 27.3213 193.245 29.1934 196.128 29.1934ZM196.066 21.3008C197.13 21.3008 197.895 21.9775 198.053 23.2783H194.054C194.221 22.0039 195.012 21.3008 196.066 21.3008Z" fill="#2A6049"/>
</svg>
