<svg width="183" height="45" viewBox="0 0 183 45" fill="none" xmlns="http://www.w3.org/2000/svg">
<rect x="0.5" y="0.5" width="182" height="44" rx="19.5" stroke="#EC744A"/>
<path d="M52.2305 29H56.4932C60.2637 29 62.4785 26.6533 62.4785 22.6543V22.6367C62.4785 18.6553 60.2461 16.3174 56.4932 16.3174H52.2305V29ZM53.8125 27.5762V17.7412H56.3877C59.2617 17.7412 60.8613 19.4902 60.8613 22.6543V22.6719C60.8613 25.8184 59.2617 27.5762 56.3877 27.5762H53.8125ZM67.9717 29.1758C69.9668 29.1758 71.4609 27.9805 71.7598 26.4688L71.7773 26.3809H70.2744L70.248 26.46C69.9844 27.2422 69.167 27.8223 68.0068 27.8223C66.3809 27.8223 65.3438 26.7236 65.3086 24.8428H71.8916V24.2803C71.8916 21.5381 70.3711 19.6836 67.875 19.6836C65.3789 19.6836 63.7617 21.626 63.7617 24.4561V24.4648C63.7617 27.3389 65.3438 29.1758 67.9717 29.1758ZM67.8662 21.0371C69.2021 21.0371 70.1865 21.8721 70.3359 23.6475H65.335C65.502 21.9424 66.5391 21.0371 67.8662 21.0371ZM73.5176 29H75.0469V16.3174H73.5176V29ZM80.874 29.1758C82.8691 29.1758 84.3633 27.9805 84.6621 26.4688L84.6797 26.3809H83.1768L83.1504 26.46C82.8867 27.2422 82.0693 27.8223 80.9092 27.8223C79.2832 27.8223 78.2461 26.7236 78.2109 24.8428H84.7939V24.2803C84.7939 21.5381 83.2734 19.6836 80.7773 19.6836C78.2812 19.6836 76.6641 21.626 76.6641 24.4561V24.4648C76.6641 27.3389 78.2461 29.1758 80.874 29.1758ZM80.7686 21.0371C82.1045 21.0371 83.0889 21.8721 83.2383 23.6475H78.2373C78.4043 21.9424 79.4414 21.0371 80.7686 21.0371ZM89.3115 29.1758C89.6104 29.1758 89.9355 29.1406 90.1289 29.1143V27.875C89.9971 27.8838 89.8213 27.9102 89.6367 27.9102C88.8193 27.9102 88.3887 27.6377 88.3887 26.6621V21.125H90.1289V19.8594H88.3887V17.3896H86.8066V19.8594H85.4707V21.125H86.8066V26.6709C86.8066 28.4199 87.6328 29.1758 89.3115 29.1758ZM95.2705 29.1758C97.2656 29.1758 98.7598 27.9805 99.0586 26.4688L99.0762 26.3809H97.5732L97.5469 26.46C97.2832 27.2422 96.4658 27.8223 95.3057 27.8223C93.6797 27.8223 92.6426 26.7236 92.6074 24.8428H99.1904V24.2803C99.1904 21.5381 97.6699 19.6836 95.1738 19.6836C92.6777 19.6836 91.0605 21.626 91.0605 24.4561V24.4648C91.0605 27.3389 92.6426 29.1758 95.2705 29.1758ZM95.165 21.0371C96.501 21.0371 97.4854 21.8721 97.6348 23.6475H92.6338C92.8008 21.9424 93.8379 21.0371 95.165 21.0371ZM107.874 29H109.456V17.7412H113.455V16.3174H103.875V17.7412H107.874V29ZM112.866 29H114.396V23.3574C114.396 21.9688 115.169 21.1426 116.355 21.1426C116.725 21.1426 117.05 21.1865 117.173 21.2305V19.7451C117.05 19.7275 116.821 19.6836 116.558 19.6836C115.529 19.6836 114.738 20.3516 114.431 21.4062H114.396V19.8594H112.866V29ZM119.282 18.3125C119.818 18.3125 120.24 17.8818 120.24 17.3545C120.24 16.8184 119.818 16.3965 119.282 16.3965C118.755 16.3965 118.324 16.8184 118.324 17.3545C118.324 17.8818 118.755 18.3125 119.282 18.3125ZM118.518 29H120.047V19.8594H118.518V29ZM122.13 32.0762H123.659V27.4707H123.694C124.266 28.5254 125.329 29.1758 126.621 29.1758C128.915 29.1758 130.479 27.3213 130.479 24.4385V24.4297C130.479 21.5469 128.933 19.6836 126.595 19.6836C125.285 19.6836 124.266 20.3428 123.694 21.4062H123.659V19.8594H122.13V32.0762ZM126.296 27.8223C124.758 27.8223 123.65 26.4775 123.65 24.4385V24.4297C123.65 22.3818 124.749 21.0371 126.296 21.0371C127.913 21.0371 128.915 22.3291 128.915 24.4297V24.4385C128.915 26.5215 127.913 27.8223 126.296 27.8223Z" fill="#EC744A"/>
</svg>
