<svg width="50" height="50" viewBox="0 0 50 50" fill="none" xmlns="http://www.w3.org/2000/svg">
<rect x="1" y="1" width="48" height="48" rx="24" fill="#424D47" fill-opacity="0.17" stroke="#424D47"/>
<path d="M18.8389 26.1318C19.5684 26.1318 20.1221 25.5693 20.1221 24.8574C20.1221 24.1367 19.5684 23.5742 18.8389 23.5742C18.1094 23.5742 17.5469 24.1367 17.5469 24.8574C17.5469 25.5693 18.1094 26.1318 18.8389 26.1318ZM24.5166 26.1318C25.2461 26.1318 25.7998 25.5693 25.7998 24.8574C25.7998 24.1367 25.2461 23.5742 24.5166 23.5742C23.7871 23.5742 23.2246 24.1367 23.2246 24.8574C23.2246 25.5693 23.7871 26.1318 24.5166 26.1318ZM30.1943 26.1318C30.9238 26.1318 31.4775 25.5693 31.4775 24.8574C31.4775 24.1367 30.9238 23.5742 30.1943 23.5742C29.4648 23.5742 28.9023 24.1367 28.9023 24.8574C28.9023 25.5693 29.4648 26.1318 30.1943 26.1318Z" fill="#424D47"/>
</svg>
