<svg width="207" height="83" viewBox="0 0 207 83" fill="none" xmlns="http://www.w3.org/2000/svg">
<path d="M0 0H187C198.046 0 207 8.95431 207 20V63C207 74.0457 198.046 83 187 83H20C8.9543 83 0 74.0457 0 63V0Z" fill="#638074"/>
<path d="M21.834 29H23.0234V24.8506C23.0234 23.6406 23.7549 22.8066 24.8555 22.8066C25.9629 22.8066 26.6191 23.5654 26.6191 24.8506V29H27.8086V24.6455C27.8086 22.9229 26.7764 21.7539 25.2656 21.7539C24.2061 21.7539 23.4336 22.2256 23.0508 23.0254H23.0234V19.1357H21.834V29ZM32.2451 29.1367C33.7969 29.1367 34.959 28.207 35.1914 27.0312L35.2051 26.9629H34.0361L34.0156 27.0244C33.8105 27.6328 33.1748 28.084 32.2725 28.084C31.0078 28.084 30.2012 27.2295 30.1738 25.7666H35.2939V25.3291C35.2939 23.1963 34.1113 21.7539 32.1699 21.7539C30.2285 21.7539 28.9707 23.2646 28.9707 25.4658V25.4727C28.9707 27.708 30.2012 29.1367 32.2451 29.1367ZM32.1631 22.8066C33.2021 22.8066 33.9678 23.4561 34.084 24.8369H30.1943C30.3242 23.5107 31.1309 22.8066 32.1631 22.8066ZM36.9072 31.3926C38.1924 31.3926 38.8145 30.8047 39.3203 29.4443L42.0957 21.8906H40.8447L38.876 27.8105H38.8486L36.8867 21.8906H35.6152L38.2539 29.0068L38.1104 29.4102C37.8232 30.2168 37.4062 30.4082 36.6543 30.4082C36.5107 30.4082 36.374 30.3877 36.2715 30.3672V31.3379C36.4219 31.3652 36.6748 31.3926 36.9072 31.3926ZM41.5283 30.9346H42.376L43.374 27.5918H42.1299L41.5283 30.9346ZM47.3867 29H48.6172V19.1357H47.3867V29ZM55.7402 29.1367C57.3262 29.1367 58.502 28.2617 58.502 27.0176V27.0107C58.502 25.999 57.9824 25.4316 56.5469 25.083L55.4189 24.8096C54.6328 24.6182 54.3115 24.2832 54.3115 23.7979V23.791C54.3115 23.1621 54.8447 22.7451 55.7061 22.7451C56.5879 22.7451 57.1143 23.2031 57.21 23.8936L57.2168 23.9414H58.3516L58.3447 23.8525C58.2559 22.6631 57.2646 21.7539 55.7061 21.7539C54.168 21.7539 53.0947 22.6221 53.0947 23.8457V23.8525C53.0947 24.8779 53.7441 25.5 55.084 25.8213L56.2119 26.0947C57.0186 26.293 57.2852 26.5801 57.2852 27.0928V27.0996C57.2852 27.7422 56.7109 28.1455 55.7471 28.1455C54.7764 28.1455 54.25 27.7285 54.1064 27.0176L54.0928 26.9492H52.9033L52.9102 27.0107C53.0537 28.2822 54.0654 29.1367 55.7402 29.1367ZM62.665 29.1367C64.2168 29.1367 65.3789 28.207 65.6113 27.0312L65.625 26.9629H64.4561L64.4355 27.0244C64.2305 27.6328 63.5947 28.084 62.6924 28.084C61.4277 28.084 60.6211 27.2295 60.5938 25.7666H65.7139V25.3291C65.7139 23.1963 64.5312 21.7539 62.5898 21.7539C60.6484 21.7539 59.3906 23.2646 59.3906 25.4658V25.4727C59.3906 27.708 60.6211 29.1367 62.665 29.1367ZM62.583 22.8066C63.6221 22.8066 64.3877 23.4561 64.5039 24.8369H60.6143C60.7441 23.5107 61.5508 22.8066 62.583 22.8066ZM69.8428 29.1367C71.3945 29.1367 72.5566 28.207 72.7891 27.0312L72.8027 26.9629H71.6338L71.6133 27.0244C71.4082 27.6328 70.7725 28.084 69.8701 28.084C68.6055 28.084 67.7988 27.2295 67.7715 25.7666H72.8916V25.3291C72.8916 23.1963 71.709 21.7539 69.7676 21.7539C67.8262 21.7539 66.5684 23.2646 66.5684 25.4658V25.4727C66.5684 27.708 67.7988 29.1367 69.8428 29.1367ZM69.7607 22.8066C70.7998 22.8066 71.5654 23.4561 71.6816 24.8369H67.792C67.9219 23.5107 68.7285 22.8066 69.7607 22.8066ZM77.6494 31.3926C78.9346 31.3926 79.5566 30.8047 80.0625 29.4443L82.8379 21.8906H81.5869L79.6182 27.8105H79.5908L77.6289 21.8906H76.3574L78.9961 29.0068L78.8525 29.4102C78.5654 30.2168 78.1484 30.4082 77.3965 30.4082C77.2529 30.4082 77.1162 30.3877 77.0137 30.3672V31.3379C77.1641 31.3652 77.417 31.3926 77.6494 31.3926ZM86.4473 29.1367C88.4092 29.1367 89.7354 27.7148 89.7354 25.4453V25.4316C89.7354 23.1621 88.4023 21.7539 86.4404 21.7539C84.4785 21.7539 83.1523 23.1689 83.1523 25.4316V25.4453C83.1523 27.708 84.4717 29.1367 86.4473 29.1367ZM86.4541 28.084C85.1963 28.084 84.3691 27.1201 84.3691 25.4453V25.4316C84.3691 23.7705 85.2031 22.8066 86.4404 22.8066C87.6982 22.8066 88.5186 23.7637 88.5186 25.4316V25.4453C88.5186 27.1133 87.7051 28.084 86.4541 28.084ZM93.3652 29.1367C94.4453 29.1367 95.1699 28.6514 95.5527 27.9883H95.5801V29H96.7695V21.8906H95.5801V26.0742C95.5801 27.2842 94.8486 28.084 93.7275 28.084C92.6338 28.084 92.0938 27.4482 92.0938 26.293V21.8906H90.9043V26.5049C90.9043 28.125 91.8066 29.1367 93.3652 29.1367ZM103.271 29.1367C104.221 29.1367 105.075 28.624 105.492 27.8447H105.52V29H106.709V24.085C106.709 22.6631 105.656 21.7539 103.975 21.7539C102.3 21.7539 101.281 22.6973 101.179 23.8662L101.172 23.9414H102.32L102.334 23.8799C102.471 23.2441 103.045 22.8066 103.961 22.8066C104.952 22.8066 105.52 23.333 105.52 24.2012V24.7959L103.482 24.9121C101.849 25.0078 100.905 25.7666 100.905 26.9766V26.9902C100.905 28.2822 101.855 29.1367 103.271 29.1367ZM102.122 26.9902V26.9766C102.122 26.3135 102.669 25.8896 103.619 25.835L105.52 25.7188V26.2998C105.52 27.332 104.658 28.1045 103.537 28.1045C102.683 28.1045 102.122 27.6738 102.122 26.9902ZM108.22 29H109.409V24.6113C109.409 23.5312 110.011 22.8887 110.934 22.8887C111.221 22.8887 111.474 22.9229 111.569 22.957V21.8018C111.474 21.7881 111.296 21.7539 111.091 21.7539C110.291 21.7539 109.676 22.2734 109.437 23.0938H109.409V21.8906H108.22V29ZM115.124 29.1367C116.676 29.1367 117.838 28.207 118.07 27.0312L118.084 26.9629H116.915L116.895 27.0244C116.689 27.6328 116.054 28.084 115.151 28.084C113.887 28.084 113.08 27.2295 113.053 25.7666H118.173V25.3291C118.173 23.1963 116.99 21.7539 115.049 21.7539C113.107 21.7539 111.85 23.2646 111.85 25.4658V25.4727C111.85 27.708 113.08 29.1367 115.124 29.1367ZM115.042 22.8066C116.081 22.8066 116.847 23.4561 116.963 24.8369H113.073C113.203 23.5107 114.01 22.8066 115.042 22.8066ZM122.309 29H123.498V19.1357H122.309V29ZM128.051 29.1367C130.013 29.1367 131.339 27.7148 131.339 25.4453V25.4316C131.339 23.1621 130.006 21.7539 128.044 21.7539C126.082 21.7539 124.756 23.1689 124.756 25.4316V25.4453C124.756 27.708 126.075 29.1367 128.051 29.1367ZM128.058 28.084C126.8 28.084 125.973 27.1201 125.973 25.4453V25.4316C125.973 23.7705 126.807 22.8066 128.044 22.8066C129.302 22.8066 130.122 23.7637 130.122 25.4316V25.4453C130.122 27.1133 129.309 28.084 128.058 28.084ZM135.488 29.1367C137.45 29.1367 138.776 27.7148 138.776 25.4453V25.4316C138.776 23.1621 137.443 21.7539 135.481 21.7539C133.52 21.7539 132.193 23.1689 132.193 25.4316V25.4453C132.193 27.708 133.513 29.1367 135.488 29.1367ZM135.495 28.084C134.237 28.084 133.41 27.1201 133.41 25.4453V25.4316C133.41 23.7705 134.244 22.8066 135.481 22.8066C136.739 22.8066 137.56 23.7637 137.56 25.4316V25.4453C137.56 27.1133 136.746 28.084 135.495 28.084ZM140.075 29H141.265V26.3203L141.928 25.6846L144.566 29H145.947L142.769 24.96L145.852 21.8906H144.409L141.292 25.0283H141.265V19.1357H140.075V29ZM147.444 20.6875C147.861 20.6875 148.189 20.3525 148.189 19.9424C148.189 19.5254 147.861 19.1973 147.444 19.1973C147.034 19.1973 146.699 19.5254 146.699 19.9424C146.699 20.3525 147.034 20.6875 147.444 20.6875ZM146.85 29H148.039V21.8906H146.85V29ZM149.659 29H150.849V24.8164C150.849 23.6064 151.58 22.8066 152.701 22.8066C153.795 22.8066 154.335 23.4424 154.335 24.5977V29H155.524V24.3857C155.524 22.7656 154.622 21.7539 153.063 21.7539C151.983 21.7539 151.259 22.2393 150.876 22.9023H150.849V21.8906H149.659V29ZM160.05 31.5293C161.978 31.5293 163.188 30.4492 163.188 28.8018V21.8906H161.998V23.0938H161.971C161.533 22.3008 160.74 21.7539 159.735 21.7539C157.931 21.7539 156.693 23.1895 156.693 25.3975V25.4043C156.693 27.626 157.917 29.0684 159.708 29.0684C160.727 29.0684 161.547 28.5625 161.971 27.7764H161.998V28.6855C161.998 29.7861 161.287 30.4766 160.036 30.4766C159.065 30.4766 158.389 30.1621 158.163 29.6494L158.136 29.5879H156.939L156.953 29.6494C157.186 30.7021 158.293 31.5293 160.05 31.5293ZM159.968 28.0156C158.703 28.0156 157.91 27.0176 157.91 25.4043V25.3975C157.91 23.8184 158.703 22.8066 159.968 22.8066C161.171 22.8066 161.998 23.832 161.998 25.3975V25.4043C161.998 26.9834 161.178 28.0156 159.968 28.0156ZM169.907 29.1367C170.14 29.1367 170.393 29.1094 170.543 29.0889V28.125C170.44 28.1318 170.304 28.1523 170.16 28.1523C169.524 28.1523 169.189 27.9404 169.189 27.1816V22.875H170.543V21.8906H169.189V19.9697H167.959V21.8906H166.92V22.875H167.959V27.1885C167.959 28.5488 168.602 29.1367 169.907 29.1367ZM174.562 29.1367C176.524 29.1367 177.851 27.7148 177.851 25.4453V25.4316C177.851 23.1621 176.518 21.7539 174.556 21.7539C172.594 21.7539 171.268 23.1689 171.268 25.4316V25.4453C171.268 27.708 172.587 29.1367 174.562 29.1367ZM174.569 28.084C173.312 28.084 172.484 27.1201 172.484 25.4453V25.4316C172.484 23.7705 173.318 22.8066 174.556 22.8066C175.813 22.8066 176.634 23.7637 176.634 25.4316V25.4453C176.634 27.1133 175.82 28.084 174.569 28.084ZM24.083 46.1367C24.3154 46.1367 24.5684 46.1094 24.7188 46.0889V45.125C24.6162 45.1318 24.4795 45.1523 24.3359 45.1523C23.7002 45.1523 23.3652 44.9404 23.3652 44.1816V39.875H24.7188V38.8906H23.3652V36.9697H22.1348V38.8906H21.0957V39.875H22.1348V44.1885C22.1348 45.5488 22.7773 46.1367 24.083 46.1367ZM25.9971 46H27.1865V41.6113C27.1865 40.5312 27.7881 39.8887 28.7109 39.8887C28.998 39.8887 29.251 39.9229 29.3467 39.957V38.8018C29.251 38.7881 29.0732 38.7539 28.8682 38.7539C28.0684 38.7539 27.4531 39.2734 27.2139 40.0938H27.1865V38.8906H25.9971V46ZM32.2588 46.1367C33.209 46.1367 34.0635 45.624 34.4805 44.8447H34.5078V46H35.6973V41.085C35.6973 39.6631 34.6445 38.7539 32.9629 38.7539C31.2881 38.7539 30.2695 39.6973 30.167 40.8662L30.1602 40.9414H31.3086L31.3223 40.8799C31.459 40.2441 32.0332 39.8066 32.9492 39.8066C33.9404 39.8066 34.5078 40.333 34.5078 41.2012V41.7959L32.4707 41.9121C30.8369 42.0078 29.8936 42.7666 29.8936 43.9766V43.9902C29.8936 45.2822 30.8438 46.1367 32.2588 46.1367ZM31.1104 43.9902V43.9766C31.1104 43.3135 31.6572 42.8896 32.6074 42.835L34.5078 42.7188V43.2998C34.5078 44.332 33.6465 45.1045 32.5254 45.1045C31.6709 45.1045 31.1104 44.6738 31.1104 43.9902ZM39.2109 46H40.4277L43.0391 38.8906H41.8018L39.833 44.7354H39.8057L37.8438 38.8906H36.5928L39.2109 46ZM46.6279 46.1367C48.1797 46.1367 49.3418 45.207 49.5742 44.0312L49.5879 43.9629H48.4189L48.3984 44.0244C48.1934 44.6328 47.5576 45.084 46.6553 45.084C45.3906 45.084 44.584 44.2295 44.5566 42.7666H49.6768V42.3291C49.6768 40.1963 48.4941 38.7539 46.5527 38.7539C44.6113 38.7539 43.3535 40.2646 43.3535 42.4658V42.4727C43.3535 44.708 44.584 46.1367 46.6279 46.1367ZM46.5459 39.8066C47.585 39.8066 48.3506 40.4561 48.4668 41.8369H44.5771C44.707 40.5107 45.5137 39.8066 46.5459 39.8066ZM50.9414 46H52.1309V36.1357H50.9414V46ZM58.9189 46.1367C59.1514 46.1367 59.4043 46.1094 59.5547 46.0889V45.125C59.4521 45.1318 59.3154 45.1523 59.1719 45.1523C58.5361 45.1523 58.2012 44.9404 58.2012 44.1816V39.875H59.5547V38.8906H58.2012V36.9697H56.9707V38.8906H55.9316V39.875H56.9707V44.1885C56.9707 45.5488 57.6133 46.1367 58.9189 46.1367ZM63.5742 46.1367C65.5361 46.1367 66.8623 44.7148 66.8623 42.4453V42.4316C66.8623 40.1621 65.5293 38.7539 63.5674 38.7539C61.6055 38.7539 60.2793 40.1689 60.2793 42.4316V42.4453C60.2793 44.708 61.5986 46.1367 63.5742 46.1367ZM63.5811 45.084C62.3232 45.084 61.4961 44.1201 61.4961 42.4453V42.4316C61.4961 40.7705 62.3301 39.8066 63.5674 39.8066C64.8252 39.8066 65.6455 40.7637 65.6455 42.4316V42.4453C65.6455 44.1133 64.832 45.084 63.5811 45.084ZM71.6064 37.6875C72.0234 37.6875 72.3516 37.3525 72.3516 36.9424C72.3516 36.5254 72.0234 36.1973 71.6064 36.1973C71.1963 36.1973 70.8613 36.5254 70.8613 36.9424C70.8613 37.3525 71.1963 37.6875 71.6064 37.6875ZM71.0117 46H72.2012V38.8906H71.0117V46ZM76.1318 46.1367C76.3643 46.1367 76.6172 46.1094 76.7676 46.0889V45.125C76.665 45.1318 76.5283 45.1523 76.3848 45.1523C75.749 45.1523 75.4141 44.9404 75.4141 44.1816V39.875H76.7676V38.8906H75.4141V36.9697H74.1836V38.8906H73.1445V39.875H74.1836V44.1885C74.1836 45.5488 74.8262 46.1367 76.1318 46.1367ZM79.9873 46.1367C80.9375 46.1367 81.792 45.624 82.209 44.8447H82.2363V46H83.4258V41.085C83.4258 39.6631 82.373 38.7539 80.6914 38.7539C79.0166 38.7539 77.998 39.6973 77.8955 40.8662L77.8887 40.9414H79.0371L79.0508 40.8799C79.1875 40.2441 79.7617 39.8066 80.6777 39.8066C81.6689 39.8066 82.2363 40.333 82.2363 41.2012V41.7959L80.1992 41.9121C78.5654 42.0078 77.6221 42.7666 77.6221 43.9766V43.9902C77.6221 45.2822 78.5723 46.1367 79.9873 46.1367ZM78.8389 43.9902V43.9766C78.8389 43.3135 79.3857 42.8896 80.3359 42.835L82.2363 42.7188V43.2998C82.2363 44.332 81.375 45.1045 80.2539 45.1045C79.3994 45.1045 78.8389 44.6738 78.8389 43.9902ZM84.998 46H86.1875V36.1357H84.998V46ZM88.4775 48.3926C89.7627 48.3926 90.3848 47.8047 90.8906 46.4443L93.666 38.8906H92.415L90.4463 44.8105H90.4189L88.457 38.8906H87.1855L89.8242 46.0068L89.6807 46.4102C89.3936 47.2168 88.9766 47.4082 88.2246 47.4082C88.0811 47.4082 87.9443 47.3877 87.8418 47.3672V48.3379C87.9922 48.3652 88.2451 48.3926 88.4775 48.3926ZM95.1631 42.7256H96.2295L96.3115 36.1357H95.0811L95.1631 42.7256ZM95.6963 46.0684C96.1406 46.0684 96.4756 45.7266 96.4756 45.2891C96.4756 44.8447 96.1406 44.5098 95.6963 44.5098C95.2588 44.5098 94.917 44.8447 94.917 45.2891C94.917 45.7266 95.2588 46.0684 95.6963 46.0684ZM101.268 46H102.457V41.8506C102.457 40.6406 103.188 39.8066 104.289 39.8066C105.396 39.8066 106.053 40.5654 106.053 41.8506V46H107.242V41.6455C107.242 39.9229 106.21 38.7539 104.699 38.7539C103.64 38.7539 102.867 39.2256 102.484 40.0254H102.457V36.1357H101.268V46ZM110.831 46.1367C111.781 46.1367 112.636 45.624 113.053 44.8447H113.08V46H114.27V41.085C114.27 39.6631 113.217 38.7539 111.535 38.7539C109.86 38.7539 108.842 39.6973 108.739 40.8662L108.732 40.9414H109.881L109.895 40.8799C110.031 40.2441 110.605 39.8066 111.521 39.8066C112.513 39.8066 113.08 40.333 113.08 41.2012V41.7959L111.043 41.9121C109.409 42.0078 108.466 42.7666 108.466 43.9766V43.9902C108.466 45.2822 109.416 46.1367 110.831 46.1367ZM109.683 43.9902V43.9766C109.683 43.3135 110.229 42.8896 111.18 42.835L113.08 42.7188V43.2998C113.08 44.332 112.219 45.1045 111.098 45.1045C110.243 45.1045 109.683 44.6738 109.683 43.9902ZM117.783 46H119L121.611 38.8906H120.374L118.405 44.7354H118.378L116.416 38.8906H115.165L117.783 46ZM125.2 46.1367C126.752 46.1367 127.914 45.207 128.146 44.0312L128.16 43.9629H126.991L126.971 44.0244C126.766 44.6328 126.13 45.084 125.228 45.084C123.963 45.084 123.156 44.2295 123.129 42.7666H128.249V42.3291C128.249 40.1963 127.066 38.7539 125.125 38.7539C123.184 38.7539 121.926 40.2646 121.926 42.4658V42.4727C121.926 44.708 123.156 46.1367 125.2 46.1367ZM125.118 39.8066C126.157 39.8066 126.923 40.4561 127.039 41.8369H123.149C123.279 40.5107 124.086 39.8066 125.118 39.8066ZM134.846 46.1367C136.432 46.1367 137.607 45.2617 137.607 44.0176V44.0107C137.607 42.999 137.088 42.4316 135.652 42.083L134.524 41.8096C133.738 41.6182 133.417 41.2832 133.417 40.7979V40.791C133.417 40.1621 133.95 39.7451 134.812 39.7451C135.693 39.7451 136.22 40.2031 136.315 40.8936L136.322 40.9414H137.457L137.45 40.8525C137.361 39.6631 136.37 38.7539 134.812 38.7539C133.273 38.7539 132.2 39.6221 132.2 40.8457V40.8525C132.2 41.8779 132.85 42.5 134.189 42.8213L135.317 43.0947C136.124 43.293 136.391 43.5801 136.391 44.0928V44.0996C136.391 44.7422 135.816 45.1455 134.853 45.1455C133.882 45.1455 133.355 44.7285 133.212 44.0176L133.198 43.9492H132.009L132.016 44.0107C132.159 45.2822 133.171 46.1367 134.846 46.1367ZM138.845 48.3926H140.034V44.8105H140.062C140.506 45.6309 141.333 46.1367 142.338 46.1367C144.122 46.1367 145.339 44.6943 145.339 42.4521V42.4453C145.339 40.2031 144.136 38.7539 142.317 38.7539C141.299 38.7539 140.506 39.2666 140.062 40.0938H140.034V38.8906H138.845V48.3926ZM142.085 45.084C140.889 45.084 140.027 44.0381 140.027 42.4521V42.4453C140.027 40.8525 140.882 39.8066 142.085 39.8066C143.343 39.8066 144.122 40.8115 144.122 42.4453V42.4521C144.122 44.0723 143.343 45.084 142.085 45.084ZM148.62 46.1367C149.57 46.1367 150.425 45.624 150.842 44.8447H150.869V46H152.059V41.085C152.059 39.6631 151.006 38.7539 149.324 38.7539C147.649 38.7539 146.631 39.6973 146.528 40.8662L146.521 40.9414H147.67L147.684 40.8799C147.82 40.2441 148.395 39.8066 149.311 39.8066C150.302 39.8066 150.869 40.333 150.869 41.2012V41.7959L148.832 41.9121C147.198 42.0078 146.255 42.7666 146.255 43.9766V43.9902C146.255 45.2822 147.205 46.1367 148.62 46.1367ZM147.472 43.9902V43.9766C147.472 43.3135 148.019 42.8896 148.969 42.835L150.869 42.7188V43.2998C150.869 44.332 150.008 45.1045 148.887 45.1045C148.032 45.1045 147.472 44.6738 147.472 43.9902ZM156.516 46.1367C158.122 46.1367 159.291 45.0908 159.482 43.7373L159.489 43.6895H158.32L158.307 43.7441C158.108 44.5371 157.486 45.084 156.516 45.084C155.285 45.084 154.438 44.1064 154.438 42.4521V42.4453C154.438 40.832 155.265 39.8066 156.502 39.8066C157.548 39.8066 158.122 40.4355 158.3 41.1465L158.313 41.2012H159.476L159.469 41.1465C159.318 39.9297 158.272 38.7539 156.502 38.7539C154.526 38.7539 153.221 40.1895 153.221 42.4316V42.4385C153.221 44.7012 154.499 46.1367 156.516 46.1367ZM163.509 46.1367C165.061 46.1367 166.223 45.207 166.455 44.0312L166.469 43.9629H165.3L165.279 44.0244C165.074 44.6328 164.438 45.084 163.536 45.084C162.271 45.084 161.465 44.2295 161.438 42.7666H166.558V42.3291C166.558 40.1963 165.375 38.7539 163.434 38.7539C161.492 38.7539 160.234 40.2646 160.234 42.4658V42.4727C160.234 44.708 161.465 46.1367 163.509 46.1367ZM163.427 39.8066C164.466 39.8066 165.231 40.4561 165.348 41.8369H161.458C161.588 40.5107 162.395 39.8066 163.427 39.8066ZM171.015 46H172.204V39.875H173.653V38.8906H172.19V38.0225C172.19 37.3184 172.519 36.9834 173.175 36.9834C173.359 36.9834 173.544 36.9902 173.688 37.0107V36.0469C173.51 36.0195 173.229 35.999 172.963 35.999C171.65 35.999 171.015 36.6484 171.015 38.0156V38.8906H170.023V39.875H171.015V46ZM177.146 46.1367C179.108 46.1367 180.435 44.7148 180.435 42.4453V42.4316C180.435 40.1621 179.102 38.7539 177.14 38.7539C175.178 38.7539 173.852 40.1689 173.852 42.4316V42.4453C173.852 44.708 175.171 46.1367 177.146 46.1367ZM177.153 45.084C175.896 45.084 175.068 44.1201 175.068 42.4453V42.4316C175.068 40.7705 175.902 39.8066 177.14 39.8066C178.397 39.8066 179.218 40.7637 179.218 42.4316V42.4453C179.218 44.1133 178.404 45.084 177.153 45.084ZM181.638 46H182.827V41.6113C182.827 40.5312 183.429 39.8887 184.352 39.8887C184.639 39.8887 184.892 39.9229 184.987 39.957V38.8018C184.892 38.7881 184.714 38.7539 184.509 38.7539C183.709 38.7539 183.094 39.2734 182.854 40.0938H182.827V38.8906H181.638V46ZM24.7188 63.1367C26.6807 63.1367 28.0068 61.7148 28.0068 59.4453V59.4316C28.0068 57.1621 26.6738 55.7539 24.7119 55.7539C22.75 55.7539 21.4238 57.1689 21.4238 59.4316V59.4453C21.4238 61.708 22.7432 63.1367 24.7188 63.1367ZM24.7256 62.084C23.4678 62.084 22.6406 61.1201 22.6406 59.4453V59.4316C22.6406 57.7705 23.4746 56.8066 24.7119 56.8066C25.9697 56.8066 26.79 57.7637 26.79 59.4316V59.4453C26.79 61.1133 25.9766 62.084 24.7256 62.084ZM29.21 63H30.3994V58.8164C30.3994 57.6064 31.1309 56.8066 32.252 56.8066C33.3457 56.8066 33.8857 57.4424 33.8857 58.5977V63H35.0752V58.3857C35.0752 56.7656 34.1729 55.7539 32.6143 55.7539C31.5342 55.7539 30.8096 56.2393 30.4268 56.9023H30.3994V55.8906H29.21V63ZM39.5186 63.1367C41.0703 63.1367 42.2324 62.207 42.4648 61.0312L42.4785 60.9629H41.3096L41.2891 61.0244C41.084 61.6328 40.4482 62.084 39.5459 62.084C38.2812 62.084 37.4746 61.2295 37.4473 59.7666H42.5674V59.3291C42.5674 57.1963 41.3848 55.7539 39.4434 55.7539C37.502 55.7539 36.2441 57.2646 36.2441 59.4658V59.4727C36.2441 61.708 37.4746 63.1367 39.5186 63.1367ZM39.4365 56.8066C40.4756 56.8066 41.2412 57.4561 41.3574 58.8369H37.4678C37.5977 57.5107 38.4043 56.8066 39.4365 56.8066ZM46.6416 63H47.8311V58.543C47.8311 57.5518 48.5146 56.8066 49.458 56.8066C50.3398 56.8066 50.9141 57.374 50.9141 58.2354V63H52.1035V58.4814C52.1035 57.5107 52.7666 56.8066 53.71 56.8066C54.6465 56.8066 55.1865 57.3877 55.1865 58.3652V63H56.376V58.0918C56.376 56.6768 55.4668 55.7539 54.0586 55.7539C53.0605 55.7539 52.2266 56.2666 51.8301 57.1211H51.8027C51.4951 56.2529 50.7773 55.7539 49.8066 55.7539C48.8906 55.7539 48.1797 56.2256 47.8584 56.9297H47.8311V55.8906H46.6416V63ZM60.8398 63.1367C62.8018 63.1367 64.1279 61.7148 64.1279 59.4453V59.4316C64.1279 57.1621 62.7949 55.7539 60.833 55.7539C58.8711 55.7539 57.5449 57.1689 57.5449 59.4316V59.4453C57.5449 61.708 58.8643 63.1367 60.8398 63.1367ZM60.8467 62.084C59.5889 62.084 58.7617 61.1201 58.7617 59.4453V59.4316C58.7617 57.7705 59.5957 56.8066 60.833 56.8066C62.0908 56.8066 62.9111 57.7637 62.9111 59.4316V59.4453C62.9111 61.1133 62.0977 62.084 60.8467 62.084ZM65.3311 63H66.5205V58.6113C66.5205 57.5312 67.1221 56.8887 68.0449 56.8887C68.332 56.8887 68.585 56.9229 68.6807 56.957V55.8018C68.585 55.7881 68.4072 55.7539 68.2021 55.7539C67.4023 55.7539 66.7871 56.2734 66.5479 57.0938H66.5205V55.8906H65.3311V63ZM72.2354 63.1367C73.7871 63.1367 74.9492 62.207 75.1816 61.0312L75.1953 60.9629H74.0264L74.0059 61.0244C73.8008 61.6328 73.165 62.084 72.2627 62.084C70.998 62.084 70.1914 61.2295 70.1641 59.7666H75.2842V59.3291C75.2842 57.1963 74.1016 55.7539 72.1602 55.7539C70.2188 55.7539 68.9609 57.2646 68.9609 59.4658V59.4727C68.9609 61.708 70.1914 63.1367 72.2354 63.1367ZM72.1533 56.8066C73.1924 56.8066 73.958 57.4561 74.0742 58.8369H70.1846C70.3145 57.5107 71.1211 56.8066 72.1533 56.8066ZM78.2373 59.9512H79.4336V59.5068C79.4336 58.7891 79.6797 58.4062 80.5479 57.8936C81.4229 57.3672 81.9766 56.6084 81.9766 55.542V55.5352C81.9766 54.1201 80.7939 53.0605 79.0781 53.0605C77.1572 53.0605 76.2139 54.2295 76.1045 55.624L76.0977 55.7129H77.2666L77.2734 55.6445C77.3623 54.7354 77.998 54.127 79.0303 54.127C80.042 54.127 80.7051 54.7422 80.7051 55.5967V55.6035C80.7051 56.3281 80.3975 56.7588 79.6045 57.2441C78.668 57.8047 78.2373 58.4199 78.2373 59.3223V59.9512ZM78.8389 63.0684C79.2832 63.0684 79.6182 62.7266 79.6182 62.2891C79.6182 61.8447 79.2832 61.5098 78.8389 61.5098C78.4014 61.5098 78.0596 61.8447 78.0596 62.2891C78.0596 62.7266 78.4014 63.0684 78.8389 63.0684Z" fill="white"/>
</svg>
