<svg width="112" height="40" viewBox="0 0 112 40" fill="none" xmlns="http://www.w3.org/2000/svg">
<g filter="url(#filter0_i)">
<rect width="112" height="40" rx="12" fill="#2A6049"/>
</g>
<path d="M44.8828 26H52.1797V24.3047H46.8984V21.0781H51.8906V19.4766H46.8984V16.4219H52.1797V14.7266H44.8828V26ZM53.8281 26H55.9219L57.6641 23.0312H57.7969L59.5469 26H61.7344L58.9453 21.6797L61.7031 17.4609H59.5703L57.8828 20.4219H57.75L56.0547 17.4609H53.8047L56.5938 21.7656L53.8281 26ZM63.4453 28.8359H65.3906V24.6406H65.5234C65.9688 25.5625 66.9453 26.1406 68.1172 26.1406C70.2812 26.1406 71.625 24.4609 71.625 21.7422V21.7266C71.625 19.0234 70.2578 17.3203 68.1172 17.3203C66.9219 17.3203 65.9922 17.8672 65.5234 18.7969H65.3906V17.4609H63.4453V28.8359ZM67.5078 24.5C66.1875 24.5 65.3672 23.4453 65.3672 21.7344V21.7188C65.3672 20.0078 66.1875 18.9609 67.5078 18.9609C68.8359 18.9609 69.6406 20.0078 69.6406 21.7266V21.7422C69.6406 23.4531 68.8359 24.5 67.5078 24.5ZM73.6641 26H75.6094V14.1562H73.6641V26ZM81.7578 26.1719C84.3125 26.1719 85.8672 24.5 85.8672 21.7344V21.7188C85.8672 18.9688 84.3047 17.2969 81.7578 17.2969C79.2188 17.2969 77.6484 18.9766 77.6484 21.7188V21.7344C77.6484 24.5 79.1953 26.1719 81.7578 26.1719ZM81.7578 24.5938C80.4062 24.5938 79.6328 23.5391 79.6328 21.7422V21.7266C79.6328 19.9297 80.4062 18.8672 81.7578 18.8672C83.1016 18.8672 83.875 19.9297 83.875 21.7266V21.7422C83.875 23.5391 83.1094 24.5938 81.7578 24.5938ZM87.8203 26H89.7656V21.0391C89.7656 19.8203 90.6172 19.0469 91.9141 19.0469C92.25 19.0469 92.5703 19.0938 92.8828 19.1562V17.4141C92.6953 17.3594 92.3906 17.3203 92.0938 17.3203C90.9688 17.3203 90.1875 17.8594 89.8984 18.7734H89.7656V17.4609H87.8203V26ZM97.9141 26.1719C100.234 26.1719 101.375 24.8359 101.648 23.7344L101.672 23.6641H99.8203L99.7969 23.7188C99.6094 24.1094 99.0078 24.6406 97.9531 24.6406C96.6328 24.6406 95.8047 23.75 95.7812 22.2188H101.75V21.5781C101.75 19 100.25 17.2969 97.8203 17.2969C95.3906 17.2969 93.8359 19.0547 93.8359 21.7422V21.75C93.8359 24.4688 95.375 26.1719 97.9141 26.1719ZM97.8438 18.8203C98.9297 18.8203 99.7188 19.5156 99.8516 20.9141H95.7969C95.9453 19.5547 96.7578 18.8203 97.8438 18.8203Z" fill="white"/>
<path d="M18.6364 27.2L11 32V12.8L18.6364 8M18.6364 27.2L27.3636 32M18.6364 27.2V8M27.3636 32L35 27.2V8L27.3636 12.8M27.3636 32V12.8M27.3636 12.8L18.6364 8" stroke="white" stroke-linecap="round" stroke-linejoin="round"/>
<defs>
<filter id="filter0_i" x="0" y="0" width="112" height="44" filterUnits="userSpaceOnUse" color-interpolation-filters="sRGB">
<feFlood flood-opacity="0" result="BackgroundImageFix"/>
<feBlend mode="normal" in="SourceGraphic" in2="BackgroundImageFix" result="shape"/>
<feColorMatrix in="SourceAlpha" type="matrix" values="0 0 0 0 0 0 0 0 0 0 0 0 0 0 0 0 0 0 127 0" result="hardAlpha"/>
<feOffset dy="4"/>
<feGaussianBlur stdDeviation="2"/>
<feComposite in2="hardAlpha" operator="arithmetic" k2="-1" k3="1"/>
<feColorMatrix type="matrix" values="0 0 0 0 0 0 0 0 0 0 0 0 0 0 0 0 0 0 0.25 0"/>
<feBlend mode="normal" in2="shape" result="effect1_innerShadow"/>
</filter>
</defs>
</svg>
