<svg width="382" height="161" viewBox="0 0 382 161" fill="none" xmlns="http://www.w3.org/2000/svg">
<path d="M24.5732 112.239C26.8701 112.239 28.3398 111.063 28.3398 109.177V109.17C28.3398 107.707 27.4922 106.873 25.4209 106.429L24.3477 106.189C23.0693 105.916 22.5498 105.438 22.5498 104.706V104.699C22.5498 103.77 23.4043 103.229 24.5596 103.229C25.7559 103.223 26.5283 103.811 26.6582 104.617L26.6719 104.706H28.1553L28.1484 104.61C28.0391 103.079 26.6719 101.896 24.5801 101.896C22.4883 101.896 21.0117 103.072 21.0049 104.774V104.781C21.0049 106.237 21.8662 107.167 23.8691 107.591L24.9492 107.823C26.2549 108.104 26.7881 108.596 26.7881 109.354V109.361C26.7881 110.277 25.8926 110.906 24.6348 110.906C23.3154 110.906 22.3652 110.332 22.2832 109.437L22.2764 109.361H20.7725L20.7793 109.45C20.916 111.111 22.3447 112.239 24.5732 112.239ZM29.5977 112H31.2041L32.0996 109.334H35.873L36.7617 112H38.375L34.8135 102.136H33.1592L29.5977 112ZM33.9248 103.865H34.041L35.4629 108.104H32.5098L33.9248 103.865ZM41.957 112H43.6455L47.1592 102.136H45.498L42.8594 110.154H42.7432L40.1045 102.136H38.4434L41.957 112ZM48.8818 112H55.1436V110.681H50.4131V107.611H54.8906V106.34H50.4131V103.455H55.1436V102.136H48.8818V112ZM57.3584 112H60.9199C63.8594 112 65.5615 110.182 65.5615 107.051V107.037C65.5615 103.94 63.8457 102.136 60.9199 102.136H57.3584V112ZM58.8896 110.681V103.455H60.749C62.793 103.455 64.0029 104.788 64.0029 107.058V107.071C64.0029 109.361 62.8135 110.681 60.749 110.681H58.8896ZM71.4678 112H77.6201V110.681H72.999V102.136H71.4678V112ZM83.3965 112.239C86.2471 112.239 87.9971 110.229 87.9971 107.071V107.058C87.9971 103.893 86.2334 101.896 83.3965 101.896C80.5664 101.896 78.7891 103.886 78.7891 107.058V107.071C78.7891 110.236 80.5254 112.239 83.3965 112.239ZM83.3965 110.886C81.4961 110.886 80.3545 109.382 80.3545 107.071V107.058C80.3545 104.727 81.5303 103.25 83.3965 103.25C85.2627 103.25 86.4316 104.727 86.4316 107.058V107.071C86.4316 109.382 85.2695 110.886 83.3965 110.886ZM94.1221 112.239C96.3232 112.239 97.9297 110.981 98.2168 109.088V109.047H96.6992L96.6855 109.074C96.4053 110.188 95.4277 110.886 94.1221 110.886C92.3447 110.886 91.2373 109.416 91.2373 107.078V107.064C91.2373 104.72 92.3447 103.25 94.1152 103.25C95.4141 103.25 96.4053 104.036 96.6924 105.246V105.267H98.21L98.2168 105.232C97.957 103.271 96.2891 101.896 94.1152 101.896C91.374 101.896 89.6719 103.879 89.6719 107.064V107.078C89.6719 110.257 91.3809 112.239 94.1221 112.239ZM99.1875 112H100.794L101.689 109.334H105.463L106.352 112H107.965L104.403 102.136H102.749L99.1875 112ZM103.515 103.865H103.631L105.053 108.104H102.1L103.515 103.865ZM111.048 112H112.579V103.455H115.676V102.136H107.944V103.455H111.048V112ZM117.556 112H119.087V102.136H117.556V112ZM125.766 112.239C128.616 112.239 130.366 110.229 130.366 107.071V107.058C130.366 103.893 128.603 101.896 125.766 101.896C122.936 101.896 121.158 103.886 121.158 107.058V107.071C121.158 110.236 122.895 112.239 125.766 112.239ZM125.766 110.886C123.865 110.886 122.724 109.382 122.724 107.071V107.058C122.724 104.727 123.899 103.25 125.766 103.25C127.632 103.25 128.801 104.727 128.801 107.058V107.071C128.801 109.382 127.639 110.886 125.766 110.886ZM132.444 112H133.935V104.836H134.044L139.109 112H140.49V102.136H139V109.313H138.897L133.825 102.136H132.444V112ZM146.308 112.239C148.604 112.239 150.074 111.063 150.074 109.177V109.17C150.074 107.707 149.227 106.873 147.155 106.429L146.082 106.189C144.804 105.916 144.284 105.438 144.284 104.706V104.699C144.284 103.77 145.139 103.229 146.294 103.229C147.49 103.223 148.263 103.811 148.393 104.617L148.406 104.706H149.89L149.883 104.61C149.773 103.079 148.406 101.896 146.314 101.896C144.223 101.896 142.746 103.072 142.739 104.774V104.781C142.739 106.237 143.601 107.167 145.604 107.591L146.684 107.823C147.989 108.104 148.522 108.596 148.522 109.354V109.361C148.522 110.277 147.627 110.906 146.369 110.906C145.05 110.906 144.1 110.332 144.018 109.437L144.011 109.361H142.507L142.514 109.45C142.65 111.111 144.079 112.239 146.308 112.239ZM153.062 106.935C153.629 106.935 154.06 106.497 154.06 105.943C154.06 105.383 153.629 104.945 153.062 104.945C152.494 104.945 152.057 105.383 152.057 105.943C152.057 106.497 152.494 106.935 153.062 106.935ZM153.062 112.103C153.629 112.103 154.06 111.665 154.06 111.111C154.06 110.551 153.629 110.113 153.062 110.113C152.494 110.113 152.057 110.551 152.057 111.111C152.057 111.665 152.494 112.103 153.062 112.103Z" fill="#424D47"/>
<path d="M210.739 32H212.271V23.4551H215.367V22.1357H207.636V23.4551H210.739V32ZM217.247 32H218.778V28.2061H220.938L222.948 32H224.719L222.504 27.9668C223.707 27.5635 224.418 26.4834 224.418 25.1572V25.1436C224.418 23.3115 223.16 22.1357 221.137 22.1357H217.247V32ZM218.778 26.9619V23.4209H220.938C222.121 23.4209 222.846 24.0908 222.846 25.1846V25.1982C222.846 26.3193 222.162 26.9619 220.986 26.9619H218.778ZM226.599 32H228.13V22.1357H226.599V32ZM230.604 32H232.136V28.6299H234.446C236.381 28.6299 237.721 27.3105 237.721 25.3828V25.3691C237.721 23.4346 236.381 22.1357 234.446 22.1357H230.604V32ZM234.063 23.4277C235.39 23.4277 236.162 24.1455 236.162 25.376V25.3896C236.162 26.627 235.39 27.3447 234.063 27.3447H232.136V23.4277H234.063ZM243.032 32.2393C245.329 32.2393 246.799 31.0635 246.799 29.1768V29.1699C246.799 27.707 245.951 26.873 243.88 26.4287L242.807 26.1895C241.528 25.916 241.009 25.4375 241.009 24.7061V24.6992C241.009 23.7695 241.863 23.2295 243.019 23.2295C244.215 23.2227 244.987 23.8105 245.117 24.6172L245.131 24.7061H246.614L246.607 24.6104C246.498 23.0791 245.131 21.8965 243.039 21.8965C240.947 21.8965 239.471 23.0723 239.464 24.7744V24.7812C239.464 26.2373 240.325 27.167 242.328 27.5908L243.408 27.8232C244.714 28.1035 245.247 28.5957 245.247 29.3545V29.3613C245.247 30.2773 244.352 30.9062 243.094 30.9062C241.774 30.9062 240.824 30.332 240.742 29.4365L240.735 29.3613H239.231L239.238 29.4502C239.375 31.1113 240.804 32.2393 243.032 32.2393ZM252.644 32H254.175V28.6299H256.485C258.42 28.6299 259.76 27.3105 259.76 25.3828V25.3691C259.76 23.4346 258.42 22.1357 256.485 22.1357H252.644V32ZM256.103 23.4277C257.429 23.4277 258.201 24.1455 258.201 25.376V25.3896C258.201 26.627 257.429 27.3447 256.103 27.3447H254.175V23.4277H256.103ZM261.735 32H267.888V30.6807H263.267V22.1357H261.735V32ZM269.07 32H270.677L271.572 29.334H275.346L276.234 32H277.848L274.286 22.1357H272.632L269.07 32ZM273.397 23.8652H273.514L274.936 28.1035H271.982L273.397 23.8652ZM279.563 32H281.054V24.8359H281.163L286.229 32H287.609V22.1357H286.119V29.3135H286.017L280.944 22.1357H279.563V32ZM290.091 32H291.581V24.8359H291.69L296.756 32H298.137V22.1357H296.646V29.3135H296.544L291.472 22.1357H290.091V32ZM300.618 32H306.88V30.6807H302.149V27.6113H306.627V26.3398H302.149V23.4551H306.88V22.1357H300.618V32ZM309.095 32H312.656C315.596 32 317.298 30.1816 317.298 27.0508V27.0371C317.298 23.9404 315.582 22.1357 312.656 22.1357H309.095V32ZM310.626 30.6807V23.4551H312.485C314.529 23.4551 315.739 24.7881 315.739 27.0576V27.0713C315.739 29.3613 314.55 30.6807 312.485 30.6807H310.626ZM320.347 26.9346C320.914 26.9346 321.345 26.4971 321.345 25.9434C321.345 25.3828 320.914 24.9453 320.347 24.9453C319.779 24.9453 319.342 25.3828 319.342 25.9434C319.342 26.4971 319.779 26.9346 320.347 26.9346ZM320.347 32.1025C320.914 32.1025 321.345 31.665 321.345 31.1113C321.345 30.5508 320.914 30.1133 320.347 30.1133C319.779 30.1133 319.342 30.5508 319.342 31.1113C319.342 31.665 319.779 32.1025 320.347 32.1025Z" fill="#424D47"/>
<path d="M210.739 112H212.271V103.455H215.367V102.136H207.636V103.455H210.739V112ZM217.247 112H218.778V108.206H220.938L222.948 112H224.719L222.504 107.967C223.707 107.563 224.418 106.483 224.418 105.157V105.144C224.418 103.312 223.16 102.136 221.137 102.136H217.247V112ZM218.778 106.962V103.421H220.938C222.121 103.421 222.846 104.091 222.846 105.185V105.198C222.846 106.319 222.162 106.962 220.986 106.962H218.778ZM226.599 112H228.13V102.136H226.599V112ZM230.604 112H232.136V108.63H234.446C236.381 108.63 237.721 107.311 237.721 105.383V105.369C237.721 103.435 236.381 102.136 234.446 102.136H230.604V112ZM234.063 103.428C235.39 103.428 236.162 104.146 236.162 105.376V105.39C236.162 106.627 235.39 107.345 234.063 107.345H232.136V103.428H234.063ZM243.032 112.239C245.329 112.239 246.799 111.063 246.799 109.177V109.17C246.799 107.707 245.951 106.873 243.88 106.429L242.807 106.189C241.528 105.916 241.009 105.438 241.009 104.706V104.699C241.009 103.77 241.863 103.229 243.019 103.229C244.215 103.223 244.987 103.811 245.117 104.617L245.131 104.706H246.614L246.607 104.61C246.498 103.079 245.131 101.896 243.039 101.896C240.947 101.896 239.471 103.072 239.464 104.774V104.781C239.464 106.237 240.325 107.167 242.328 107.591L243.408 107.823C244.714 108.104 245.247 108.596 245.247 109.354V109.361C245.247 110.277 244.352 110.906 243.094 110.906C241.774 110.906 240.824 110.332 240.742 109.437L240.735 109.361H239.231L239.238 109.45C239.375 111.111 240.804 112.239 243.032 112.239ZM255.146 112H256.677V103.455H259.773V102.136H252.042V103.455H255.146V112ZM259.76 112H261.366L262.262 109.334H266.035L266.924 112H268.537L264.976 102.136H263.321L259.76 112ZM264.087 103.865H264.203L265.625 108.104H262.672L264.087 103.865ZM270.253 112H271.784V108.712L272.892 107.454L276.2 112H278.114L273.972 106.415L277.786 102.136H275.975L271.894 106.798H271.784V102.136H270.253V112ZM279.728 112H285.989V110.681H281.259V107.611H285.736V106.34H281.259V103.455H285.989V102.136H279.728V112ZM288.204 112H289.694V104.836H289.804L294.869 112H296.25V102.136H294.76V109.313H294.657L289.585 102.136H288.204V112ZM299.702 106.935C300.27 106.935 300.7 106.497 300.7 105.943C300.7 105.383 300.27 104.945 299.702 104.945C299.135 104.945 298.697 105.383 298.697 105.943C298.697 106.497 299.135 106.935 299.702 106.935ZM299.702 112.103C300.27 112.103 300.7 111.665 300.7 111.111C300.7 110.551 300.27 110.113 299.702 110.113C299.135 110.113 298.697 110.551 298.697 111.111C298.697 111.665 299.135 112.103 299.702 112.103Z" fill="#424D47"/>
<path d="M25.2842 32.2393C27.4854 32.2393 29.0918 30.9814 29.3789 29.0879V29.0469H27.8613L27.8477 29.0742C27.5674 30.1885 26.5898 30.8857 25.2842 30.8857C23.5068 30.8857 22.3994 29.416 22.3994 27.0781V27.0645C22.3994 24.7197 23.5068 23.25 25.2773 23.25C26.5762 23.25 27.5674 24.0361 27.8545 25.2461V25.2666H29.3721L29.3789 25.2324C29.1191 23.2705 27.4512 21.8965 25.2773 21.8965C22.5361 21.8965 20.834 23.8789 20.834 27.0645V27.0781C20.834 30.2568 22.543 32.2393 25.2842 32.2393ZM35.5996 32.2393C38.4502 32.2393 40.2002 30.2295 40.2002 27.0713V27.0576C40.2002 23.8926 38.4365 21.8965 35.5996 21.8965C32.7695 21.8965 30.9922 23.8857 30.9922 27.0576V27.0713C30.9922 30.2363 32.7285 32.2393 35.5996 32.2393ZM35.5996 30.8857C33.6992 30.8857 32.5576 29.3818 32.5576 27.0713V27.0576C32.5576 24.7266 33.7334 23.25 35.5996 23.25C37.4658 23.25 38.6348 24.7266 38.6348 27.0576V27.0713C38.6348 29.3818 37.4727 30.8857 35.5996 30.8857ZM42.2783 32H43.7686V24.8359H43.8779L48.9434 32H50.3242V22.1357H48.834V29.3135H48.7314L43.6592 22.1357H42.2783V32ZM52.8057 32H54.2959V24.8359H54.4053L59.4707 32H60.8516V22.1357H59.3613V29.3135H59.2588L54.1865 22.1357H52.8057V32ZM63.333 32H69.5947V30.6807H64.8643V27.6113H69.3418V26.3398H64.8643V23.4551H69.5947V22.1357H63.333V32ZM75.8564 32.2393C78.0576 32.2393 79.6641 30.9814 79.9512 29.0879V29.0469H78.4336L78.4199 29.0742C78.1396 30.1885 77.1621 30.8857 75.8564 30.8857C74.0791 30.8857 72.9717 29.416 72.9717 27.0781V27.0645C72.9717 24.7197 74.0791 23.25 75.8496 23.25C77.1484 23.25 78.1396 24.0361 78.4268 25.2461V25.2666H79.9443L79.9512 25.2324C79.6914 23.2705 78.0234 21.8965 75.8496 21.8965C73.1084 21.8965 71.4062 23.8789 71.4062 27.0645V27.0781C71.4062 30.2568 73.1152 32.2393 75.8564 32.2393ZM84.1689 32H85.7002V23.4551H88.7969V22.1357H81.0654V23.4551H84.1689V32ZM90.6768 32H92.208V22.1357H90.6768V32ZM98.8867 32.2393C101.737 32.2393 103.487 30.2295 103.487 27.0713V27.0576C103.487 23.8926 101.724 21.8965 98.8867 21.8965C96.0566 21.8965 94.2793 23.8857 94.2793 27.0576V27.0713C94.2793 30.2363 96.0156 32.2393 98.8867 32.2393ZM98.8867 30.8857C96.9863 30.8857 95.8447 29.3818 95.8447 27.0713V27.0576C95.8447 24.7266 97.0205 23.25 98.8867 23.25C100.753 23.25 101.922 24.7266 101.922 27.0576V27.0713C101.922 29.3818 100.76 30.8857 98.8867 30.8857ZM105.565 32H107.056V24.8359H107.165L112.23 32H113.611V22.1357H112.121V29.3135H112.019L106.946 22.1357H105.565V32ZM119.429 32.2393C121.726 32.2393 123.195 31.0635 123.195 29.1768V29.1699C123.195 27.707 122.348 26.873 120.276 26.4287L119.203 26.1895C117.925 25.916 117.405 25.4375 117.405 24.7061V24.6992C117.405 23.7695 118.26 23.2295 119.415 23.2295C120.611 23.2227 121.384 23.8105 121.514 24.6172L121.527 24.7061H123.011L123.004 24.6104C122.895 23.0791 121.527 21.8965 119.436 21.8965C117.344 21.8965 115.867 23.0723 115.86 24.7744V24.7812C115.86 26.2373 116.722 27.167 118.725 27.5908L119.805 27.8232C121.11 28.1035 121.644 28.5957 121.644 29.3545V29.3613C121.644 30.2773 120.748 30.9062 119.49 30.9062C118.171 30.9062 117.221 30.332 117.139 29.4365L117.132 29.3613H115.628L115.635 29.4502C115.771 31.1113 117.2 32.2393 119.429 32.2393ZM126.183 26.9346C126.75 26.9346 127.181 26.4971 127.181 25.9434C127.181 25.3828 126.75 24.9453 126.183 24.9453C125.615 24.9453 125.178 25.3828 125.178 25.9434C125.178 26.4971 125.615 26.9346 126.183 26.9346ZM126.183 32.1025C126.75 32.1025 127.181 31.665 127.181 31.1113C127.181 30.5508 126.75 30.1133 126.183 30.1133C125.615 30.1133 125.178 30.5508 125.178 31.1113C125.178 31.665 125.615 32.1025 126.183 32.1025Z" fill="#424D47"/>
<line x1="4.37114e-08" y1="0.5" x2="382" y2="0.500033" stroke="#E5E5E5"/>
<line x1="191.5" y1="1" x2="191.5" y2="161" stroke="#E5E5E5"/>
<line x1="4.37114e-08" y1="80.5" x2="382" y2="80.5" stroke="#E5E5E5"/>
</svg>
