<svg width="414" height="308" viewBox="0 0 414 308" fill="none" xmlns="http://www.w3.org/2000/svg">
<g opacity="0.5" clip-path="url(#clip0)">
<path d="M437.94 -20.5007C371.544 -112.78 231.285 -150.213 93.3444 -109.897C20.4195 -88.5833 -49.8936 -45.8781 -84.7391 36.813C-147.029 184.632 -16.2434 231.842 69.2763 246.888C110.629 254.164 149.576 266.385 185.166 283.025C249.197 312.961 362.534 339.487 447.998 214.79C509.943 124.41 482.167 40.9665 437.94 -20.5007Z" fill="#F2F2F2"/>
<path d="M52.9965 -2.24369C52.8107 -3.71028 52.4351 -5.14657 51.879 -6.51654C51.8081 -6.7756 51.6839 -7.01708 51.5144 -7.22559C51.3449 -7.43409 51.1338 -7.60506 50.8945 -7.72759C50.5746 -7.81065 50.2393 -7.81439 49.9176 -7.7385L44.9023 -6.97204C44.4825 -6.95289 44.0806 -6.79691 43.758 -6.52796C43.1048 -5.84184 43.748 -4.73701 43.728 -3.79044C43.7055 -2.72602 42.7586 -1.86204 41.7318 -1.5762C40.6836 -1.36467 39.6024 -1.37806 38.5598 -1.61548L31.547 -2.70394C33.6123 -3.36252 35.4507 -4.58781 36.8523 -6.23994C37.7752 -7.33187 38.2661 -9.37048 36.9324 -9.88757C36.5361 -9.99618 36.1229 -10.0293 35.7143 -9.98525C32.537 -9.96058 30.0367 -12.6102 27.0622 -13.7261C25.1584 -14.3942 23.0919 -14.4439 21.1581 -13.8681C19.2244 -13.2923 17.5224 -12.1206 16.2956 -10.5205L20.0315 -10.3406C20.3829 -10.36 20.7315 -10.2671 21.0266 -10.0755C21.8453 -9.40367 20.8274 -8.11319 20.9428 -7.06115C21.0926 -5.69433 22.9097 -5.40249 24.2794 -5.26428C25.6492 -5.12607 27.3868 -4.01455 26.728 -2.80725C19.8435 -0.438862 12.8379 -7.43694 5.60773 -6.57549C3.77783 -6.35747 2.0499 -5.63948 0.263313 -5.18801C-10.6504 -2.43009 -21.9333 -9.78852 -33.0823 -8.23014C-35.5609 -7.80812 -37.9969 -7.16645 -40.3614 -6.31273C-41.8788 -5.81512 -43.4616 -5.27736 -44.5641 -4.1233C-45.6666 -2.96925 -46.0862 -0.995624 -45.0417 0.211101C-47.9206 0.447874 -50.8187 0.172743 -53.6013 -0.601524C-52.8488 -0.183761 -52.2228 0.428612 -51.789 1.17133C-51.3552 1.91405 -51.1296 2.75971 -51.1359 3.61954C-55.6309 4.35162 -60.0068 5.68427 -64.1461 7.58163C-63.3735 8.86472 -62.4712 10.0652 -61.4533 11.1643L-67.1438 14.8157C-65.2213 15.2995 -64.2273 17.9178 -65.3453 19.5531C-63.3518 18.6673 -62.1164 16.376 -59.9847 15.9115C-58.5882 15.6071 -57.1672 16.1777 -55.8424 16.7137C-54.5176 17.2497 -53.0615 17.7695 -51.69 17.3672C-50.3185 16.9649 -49.307 15.1888 -50.1784 14.0572C-44.3164 12.3489 -38.2582 11.4036 -32.1539 11.2446C-31.6829 11.1855 -31.2053 11.2761 -30.7888 11.5033C-29.9941 12.0539 -30.2032 13.2432 -30.246 14.2082C-30.2888 15.1733 -29.5358 16.4415 -28.6722 16.0066C-29.6882 16.8865 -28.8197 18.5429 -27.845 19.4682C-26.8702 20.3935 -25.6954 21.6702 -26.2922 22.8738C-26.4479 23.1879 -26.7121 23.4393 -26.8619 23.7562C-27.3043 24.6919 -26.602 25.7827 -25.7736 26.404C-24.9452 27.0253 -23.9305 27.4596 -23.3551 28.32C-22.7797 29.1804 -23.041 30.6864 -24.0699 30.8066L-26.9946 27.0978C-27.9938 28.1326 -28.6789 29.4292 -28.9703 30.8371C-25.8689 33.3693 -25.4024 38.5233 -27.9989 41.5699C-29.3257 43.1268 -31.2126 44.0728 -32.8594 45.2872C-34.5062 46.5016 -36.0301 48.2309 -36.0259 50.2754C-36.0188 53.8076 -36.3078 57.0892 -34.9825 60.364C-32.5388 66.4025 -29.7174 72.2816 -26.535 77.9665C-25.6993 79.4593 -24.6192 81.0955 -22.9263 81.3525C-25.0658 76.1503 -26.9919 70.8671 -28.7044 65.503C-27.589 65.5073 -26.3 65.5958 -25.6461 66.4983C-25.1047 67.2457 -25.221 68.2618 -25.0528 69.1689C-24.8388 70.0477 -24.482 70.8855 -23.9965 71.6489L-13.7794 89.8262C-12.9325 91.333 -11.9609 92.9505 -10.3422 93.5607C-9.30725 93.9509 -8.10986 93.8774 -7.15727 94.4391C-6.41061 94.8793 -5.90771 95.6609 -5.14653 96.0756C-2.99426 97.2483 -0.00130463 94.9993 2.01006 96.3994C2.58517 96.7997 2.95103 97.4357 3.48096 97.8941C5.33862 99.5008 8.38596 98.4259 10.5304 99.6245C11.9125 100.397 12.6288 101.942 13.366 103.342C15.2125 106.849 18.2003 110.285 22.1576 110.564C23.4007 110.651 24.6704 110.416 25.8855 110.692C27.1006 110.968 28.2967 112.027 28.1017 113.257C27.7673 115.364 28.8098 117.672 28.5298 119.787C28.0198 123.641 22.5476 125.334 22.0775 129.192C21.9746 130.037 22.1357 130.909 21.9343 131.736C21.6874 132.749 20.9254 133.574 20.6546 134.582C20.1415 136.491 21.5108 138.39 23.0151 139.675C24.5194 140.959 26.3138 142.066 27.1363 143.864C28.0055 145.764 27.5785 147.98 27.8613 150.05C28.4784 154.569 32.3865 157.919 36.4084 160.079C37.6338 160.738 38.9495 161.375 39.7427 162.516C40.7779 164.007 40.6747 165.971 41.0204 167.752C41.867 172.112 45.5425 175.705 45.6469 180.146C45.721 183.303 43.9643 186.166 42.915 189.144C41.9312 191.998 41.5752 195.029 41.8712 198.033C42.1673 201.036 43.1085 203.94 44.6306 206.547C45.4156 207.871 46.3545 209.119 46.9098 210.554C47.9008 213.115 47.5792 216.027 48.4929 218.617C49.7009 222.04 53.0202 224.868 52.7025 228.484C54.2094 231.61 57.537 233.146 60.8831 234.076L66.88 235.743C68.0283 236.062 69.2282 236.384 70.3974 236.153C71.5667 235.922 72.6825 234.952 72.6523 233.762C69.7115 233.1 66.6764 232.395 64.2522 230.605C61.828 228.816 60.1673 225.628 61.0871 222.761C61.5136 221.431 62.421 219.896 61.5583 218.797C61.0644 218.168 60.1612 218.004 59.6041 217.43C58.7351 216.535 59.0337 215.031 59.6584 213.952C60.2831 212.872 61.1861 211.907 61.438 210.686C61.5652 210.003 61.4803 209.297 61.1945 208.664C60.9087 208.03 60.4358 207.499 59.8391 207.142C60.9511 206.722 61.9624 206.074 62.8074 205.24C63.588 204.349 63.9485 202.977 63.3345 201.965C65.158 202.195 67.3107 202.309 68.5078 200.915C69.4636 199.803 69.398 198.14 69.0203 196.723C68.6426 195.307 68.0042 193.931 67.9843 192.465C72.1907 192.664 76.4064 192.521 80.5896 192.038C79.9847 190.003 78.6101 188.284 76.7572 187.244C78.6518 186.924 80.3778 184.659 80.9764 182.835C81.575 181.011 81.4223 179.025 81.0523 177.141C80.9102 176.657 80.8908 176.144 80.9957 175.65C81.209 174.971 81.8769 174.556 82.4949 174.202L91.899 168.808C92.4601 168.527 92.9688 168.152 93.4028 167.699C94.388 166.543 94.2421 164.798 93.7376 163.366C93.2331 161.934 92.425 160.588 92.2307 159.082C91.6495 154.579 96.4755 151.349 98.1042 147.11C98.7434 145.447 98.8737 143.639 98.9974 141.861C99.1302 139.952 99.1401 137.735 97.6725 136.505C96.2657 135.325 94.0676 135.588 92.5956 134.492C91.2459 133.486 90.7803 131.533 89.3059 130.72C87.967 129.983 86.2882 130.452 84.799 130.105C82.177 129.494 80.5269 126.476 77.8491 126.196C76.3382 126.039 74.6283 126.777 73.3899 125.898C72.2988 125.123 72.2551 123.567 72.0474 122.246C71.6834 120.194 70.6983 118.302 69.2249 116.825C67.7515 115.349 65.8605 114.359 63.8065 113.989C62.2487 113.739 60.5531 113.834 59.2279 112.979C57.8859 112.113 57.2706 110.492 56.2166 109.293C54.5177 107.361 51.8421 106.674 49.3356 106.086L39.1404 103.692C37.3306 103.267 34.9977 103.042 34.0265 104.625C33.739 105.228 33.5354 105.868 33.4215 106.526C33.0576 107.716 32.3253 108.76 31.3297 109.509C30.3341 110.257 29.1266 110.671 27.8806 110.691C27.0262 109.235 25.6419 108.166 24.0167 107.705C22.9829 107.417 21.8763 107.385 20.8903 106.962C20.3534 106.7 19.8755 106.332 19.4861 105.879C19.0966 105.426 18.8037 104.899 18.6254 104.33C18.447 103.76 18.3869 103.16 18.4487 102.566C18.5105 101.973 18.6929 101.398 18.9848 100.877C19.5726 99.8321 19.7996 98.6227 19.6308 97.4358C19.462 96.2489 18.9067 95.1505 18.0507 94.3101C16.3169 92.7554 13.8089 92.3798 11.4841 92.5354C10.8752 91.2084 11.8933 89.7113 12.9904 88.747C14.0875 87.7827 15.4197 86.8347 15.6586 85.3947C16.0344 83.1295 13.1406 81.4091 10.9435 82.0845C8.74635 82.7599 7.34401 84.8914 6.41702 86.9925C5.88514 88.198 5.43296 89.4674 4.59399 90.4839C3.75501 91.5004 2.40395 92.2282 1.12604 91.902C-0.683128 91.4402 -1.38185 89.2934 -1.78226 87.4718C-2.31947 85.0277 -2.85982 82.5498 -2.74725 80.05C-2.63469 77.5503 -1.79095 74.9837 0.0545959 73.2914C3.06201 70.5339 7.67557 70.8042 11.7343 71.2441C10.7754 70.165 11.0124 68.3464 12.0384 67.3308C12.58 66.8502 13.2308 66.5087 13.9344 66.3361C14.6379 66.1635 15.3731 66.1648 16.076 66.3401C17.299 66.5943 18.4008 67.2523 19.2039 68.208C20.3573 69.6124 20.6853 71.5087 21.5571 73.1029C22.4289 74.6971 24.3892 76.0568 25.9937 75.2015C27.3795 74.4628 27.5995 72.5435 27.2546 71.0128C26.9097 69.4821 26.1771 67.9937 26.302 66.4297C26.5405 63.4455 29.6378 61.6492 32.371 60.4201C35.1042 59.1911 38.2339 57.5382 38.6669 54.5759C38.6817 53.9959 38.7912 53.4222 38.9912 52.8774C39.2943 52.3963 39.7156 52.0006 40.215 51.728C48.1919 46.4628 56.3015 41.1334 65.4188 38.2564C65.8931 38.1067 65.9488 38.2731 66.4322 38.1558C67.1087 37.7653 66.6604 36.6849 66.0118 36.2497C65.3631 35.8145 64.4962 35.4807 64.3316 34.7178C64.2106 34.1569 64.5415 33.6062 64.6274 33.039C64.8386 31.6451 63.169 30.3581 61.8725 30.9154C61.1401 29.9467 62.5892 28.8211 63.761 28.4989C67.2796 27.5317 70.8915 26.9424 74.5354 26.741C74.9558 26.6742 75.3866 26.7474 75.7614 26.9492C76.3734 27.3727 76.2952 28.3438 75.8615 28.9482C75.4277 29.5525 74.753 29.932 74.2125 30.4434C73.622 31.018 73.2008 31.7435 72.9949 32.5408C72.789 33.3381 72.8064 34.1766 73.0451 34.9648C74.9473 35.9312 77.0154 36.926 79.1222 36.5856C81.2291 36.2451 83.0991 33.8808 82.1088 31.9926C81.1866 30.2342 78.4165 29.8376 77.9401 27.9104C77.3824 25.6541 80.5804 23.6473 79.86 21.4374C79.5445 20.4694 78.5786 19.8997 77.8374 19.2008C76.9621 18.3439 76.3667 17.2427 76.1294 16.0417C75.892 14.8407 76.0239 13.5961 76.5077 12.4714C75.3004 12.6835 74.0599 12.6034 72.89 12.2377C71.7202 11.8721 70.6552 11.2316 69.7843 10.37C68.1762 8.74902 66.8932 6.19199 64.6096 6.26452C62.514 6.33106 60.709 8.77289 58.7495 8.02793C58.2674 7.84466 57.7592 7.47164 57.2921 7.6902C57.139 7.78947 57.0105 7.92218 56.9164 8.07832C56.8222 8.23446 56.7648 8.40994 56.7485 8.59149C56.2505 10.9693 57.1071 13.6785 55.8096 15.7333C54.3976 17.9692 51.1316 18.2792 49.4198 20.2954C48.4906 21.3899 48.1306 22.8648 47.2765 24.0187C46.4224 25.1726 44.6096 25.9062 43.5846 24.9006C44.0883 23.8663 44.2259 22.6919 43.9748 21.5694C43.7237 20.4468 43.0988 19.4425 42.2022 18.7207C41.2505 18.1006 40.2247 17.6022 39.1488 17.2373C37.9466 16.7291 36.8029 16.0924 35.7377 15.3385C35.2041 15.0171 34.7705 14.5537 34.4855 14.0003C34.2599 13.3073 34.2903 12.5566 34.5711 11.884C35.0909 10.3957 36.0078 9.07746 37.2228 8.07159C38.4379 7.06572 39.905 6.41045 41.4657 6.1765C42.8305 5.99106 44.4188 6.05639 45.322 5.01784C45.7999 4.46832 46.0506 3.6375 46.7443 3.41432C47.188 3.32528 47.6486 3.38195 48.0574 3.57583L53.1513 5.36659C53.7196 5.62285 54.3452 5.72619 54.9659 5.66634C55.2737 5.62493 55.5544 5.46881 55.7517 5.2293C55.949 4.98979 56.0483 4.68461 56.0297 4.375C55.867 3.53012 54.5653 3.12469 54.6838 2.2725C54.7501 1.99633 54.8988 1.74675 55.1101 1.55674C56.9484 -0.397491 59.1966 -1.92159 61.6937 -2.90647C64.1908 -3.89134 66.875 -4.31263 69.5542 -4.14014C70.1971 -3.0855 69.1803 -1.83663 68.3342 -0.936316C67.4882 -0.0360022 66.8083 1.57264 67.8315 2.26566C68.2508 2.4794 68.7172 2.58431 69.1878 2.57073C70.4419 2.74028 71.6607 3.1095 72.7978 3.66435C74.558 4.42944 76.2844 5.26655 77.9771 6.17568C77.8276 5.061 77.6849 3.88669 78.1079 2.84444C78.5309 1.80218 79.7332 0.984684 80.7833 1.39058C81.7954 1.78176 82.3144 3.12017 83.3926 3.24279C84.8309 3.40635 85.3984 1.28416 84.7976 -0.0312338C84.1968 -1.34663 83.0075 -2.44806 82.9082 -3.89044C82.8412 -4.86353 83.212 -6.07038 82.4337 -6.65962C82.1568 -6.83652 81.8424 -6.94662 81.5155 -6.98119L62.0833 -10.5527C60.9294 -10.7647 59.2621 -10.6022 59.211 -9.43146C59.1824 -8.77796 59.7669 -8.13145 59.508 -7.53061C59.2317 -6.88932 58.3241 -6.94796 57.663 -6.72114C56.6373 -6.36921 56.1226 -5.15272 56.2211 -4.07396C56.4015 -3.00205 56.8171 -1.98329 57.4382 -1.09075C56.1743 -1.6187 54.2604 -1.71574 52.9965 -2.24369Z" fill="#BDCAC2"/>
<path d="M87.0492 -20.365L89.7825 -19.8404C89.2794 -19.8627 88.7773 -19.7775 88.3097 -19.5906C87.8422 -19.4037 87.4199 -19.1194 87.0711 -18.7566C86.7223 -18.3938 86.4549 -17.9608 86.2869 -17.4866C86.1188 -17.0125 86.054 -16.508 86.0966 -16.0068C88.6562 -15.1528 91.4468 -15.9838 94.1431 -15.8703C96.8393 -15.7568 99.9764 -13.8332 99.5161 -11.1773C99.377 -10.3743 98.9125 -9.57179 99.154 -8.79334C99.3233 -8.24773 99.8051 -7.86058 100.077 -7.35807C100.644 -6.31094 100.191 -4.98647 99.4753 -4.03459C98.7597 -3.08271 97.798 -2.32321 97.1699 -1.31163C95.6078 1.20433 96.4953 4.45695 97.4258 7.26773C97.6949 8.32977 98.1917 9.32076 98.882 10.1721C100.261 11.6362 102.507 11.7635 104.519 11.7928C105.984 11.8142 107.661 11.7419 108.588 10.6087C109.797 9.12915 108.951 6.82079 109.747 5.08438C110.47 3.50737 112.312 2.83082 113.981 2.35098C117.038 1.47192 120.154 0.724566 123.044 -0.603251C126.633 -2.25205 129.988 -4.82154 133.932 -5.03378C135.039 -5.09332 136.173 -4.96287 137.239 -5.26572C138.305 -5.56857 139.318 -6.4891 139.237 -7.59311C139.168 -8.53641 138.369 -9.22908 137.745 -9.94019C137.12 -10.6513 136.63 -11.7448 137.204 -12.4971L147.544 -14.426C146.811 -16.421 146.24 -19.0485 147.924 -20.347C148.532 -20.8155 149.345 -21.0028 149.863 -21.5692C150.745 -22.5346 150.301 -24.1976 149.283 -25.0186C148.265 -25.8397 146.889 -26.0303 145.585 -26.1384C141.051 -26.5145 136.491 -26.266 131.949 -26.0173C123.069 -25.5312 114.189 -25.045 105.309 -24.5589C103.522 -24.461 101.458 -24.6105 99.8185 -24.0014C98.4306 -23.4858 97.4437 -22.5392 95.8563 -22.2067C92.9259 -21.5927 89.701 -22.0082 87.0492 -20.365Z" fill="#BDCAC2"/>
<path d="M136.015 1.21303C135.736 1.16901 135.452 1.23353 135.219 1.39325C135.066 1.56213 134.974 1.77826 134.96 2.00597C134.784 3.01096 134.994 4.04543 135.549 4.90221C135.831 5.32252 136.222 5.6596 136.679 5.87848C137.136 6.09735 137.643 6.19002 138.148 6.14688C139.379 5.99013 140.286 4.94145 141.417 4.42972C143.161 3.64174 150.567 2.41335 145.444 -0.351006C143.679 -1.30366 142.538 -0.462691 141.146 0.164702C139.563 0.973639 137.789 1.33608 136.015 1.21303Z" fill="#BDCAC2"/>
<path d="M234.189 169.38C233.759 170.623 233.718 172.087 234.462 173.172C235.296 174.39 236.966 174.844 238.41 174.535C239.849 174.153 241.131 173.329 242.076 172.181C242.941 171.219 243.652 170.129 244.185 168.951C244.929 167.115 245.454 165.198 245.748 163.239L247.15 155.888C247.463 154.245 247.451 149.208 244.428 150.849C243.602 151.297 241.689 154.837 240.824 155.841C239.264 157.65 239.057 159.405 238.236 161.597C237.207 164.342 235.14 166.63 234.189 169.38Z" fill="#BDCAC2"/>
<path d="M393.878 207C392.889 206.614 391.929 206.158 391.005 205.634C390.079 208.176 389.587 210.856 389.549 213.561L396.319 209.735C397.337 209.16 398.491 208.36 398.469 207.192C398.479 207.047 398.449 206.903 398.383 206.775C398.317 206.646 398.218 206.537 398.095 206.46C397.945 206.4 397.781 206.381 397.621 206.404C396.617 206.488 395.701 206.981 394.754 207.324C393.807 207.667 392.7 207.849 391.831 207.34" fill="#BDCAC2"/>
<path d="M417.325 136.571C416.408 136.794 415.459 136.85 414.523 136.736C412.967 136.451 411.757 135.28 410.501 134.32C407.516 132.05 403.888 130.784 400.137 130.703C396.725 130.639 393.281 131.562 389.93 130.918C390.149 132.134 391.191 133.046 392.303 133.589C393.415 134.131 394.642 134.404 395.759 134.935C397.548 135.794 398.967 137.268 399.756 139.088C400.116 139.927 400.342 140.84 400.887 141.572C402.001 143.069 404.113 143.398 405.976 143.275C408.406 143.116 410.943 142.418 413.204 143.322C414.933 144.014 416.17 145.525 417.614 146.701C419.058 147.876 421.092 148.748 422.75 147.9C421.028 147.343 419.529 146.251 418.472 144.784C417.415 143.316 416.856 141.549 416.876 139.742C418.502 139.891 423.185 139.833 422.933 137.074C422.719 134.735 418.721 136.319 417.325 136.571Z" fill="#BDCAC2"/>
<path d="M396.053 155.599C396.342 154.017 397.921 152.62 397.429 151.09C397.089 150.031 395.86 149.509 394.747 149.482C393.635 149.456 392.541 149.787 391.429 149.819C390.704 149.78 389.978 149.791 389.256 149.849C387.047 150.212 385.685 152.524 383.604 153.346C382.338 153.846 380.916 153.751 379.6 154.096C376.612 154.881 374.721 157.701 372.632 159.975C369.257 163.632 364.861 166.193 360.011 167.326C358.312 167.719 356.486 167.97 355.136 169.072C353.347 170.532 352.907 173.034 352.509 175.306C351.41 181.58 349.73 187.74 347.491 193.704L354.586 194.609C355.935 194.781 357.333 194.949 358.633 194.55C359.577 194.194 360.472 193.719 361.295 193.134C364.454 191.175 367.991 189.9 371.676 189.392C373.534 189.137 375.482 189.09 377.225 189.78C378.969 190.47 380.465 192.034 380.611 193.901C381.365 193.667 382.169 193.642 382.936 193.828C383.703 194.015 384.405 194.406 384.967 194.96C386.078 196.09 386.806 197.541 387.047 199.107C387.234 200.076 387.421 201.238 388.322 201.644C389.057 201.976 389.9 201.619 390.704 201.555C393.432 201.337 395.695 204.513 398.376 203.966C401.252 203.38 401.958 199.079 404.763 198.217C406.374 197.722 408.634 198.324 409.406 196.827C410.086 195.508 408.729 193.985 408.869 192.508C409.041 190.689 411.19 189.917 412.846 189.141C418.556 186.465 421.265 178.789 418.498 173.129C416.859 169.775 413.633 167.134 413.038 163.45C412.579 160.615 413.698 157.309 411.889 155.078C410.968 153.943 409.409 153.316 408.861 151.962C408.517 151.109 408.655 150.142 408.47 149.241C408.284 148.34 407.497 147.398 406.607 147.632C404.022 148.309 403.197 156.285 401.813 158.222C399.71 161.168 395.391 159.228 396.053 155.599Z" fill="#BDCAC2"/>
<path d="M348.276 139.584C347.393 139.337 346.428 139.093 345.582 139.447C344.735 139.8 344.241 141.041 344.92 141.657C350.235 141.451 355.581 141.245 360.851 141.966C366.921 142.796 372.929 144.854 379.027 144.248C375.544 143.222 372.003 142.402 368.424 141.791L362.454 140.652C360.853 140.317 359.235 140.067 357.607 139.904C354.202 139.623 351.624 140.522 348.276 139.584Z" fill="#BDCAC2"/>
<path d="M353.596 121.099C353.155 121.062 352.609 121.03 352.38 121.409C352.162 121.771 352.412 122.249 352.295 122.655C352.134 123.21 351.407 123.351 350.834 123.276C350.262 123.2 349.642 123.02 349.134 123.296C348.877 123.471 348.684 123.725 348.583 124.02C348.483 124.315 348.481 124.634 348.577 124.93C348.785 125.518 349.12 126.052 349.56 126.495C350.31 127.439 351.166 128.296 352.109 129.049C353.936 130.395 356.41 131.044 357.561 132.999C357.723 133.378 357.972 133.713 358.289 133.977C358.841 134.327 359.561 134.061 360.156 133.79L362.24 132.839C362.615 132.703 362.951 132.476 363.214 132.177C363.69 131.531 363.398 130.614 362.998 129.919C362.599 129.224 362.087 128.504 362.173 127.707C362.326 126.286 364.155 125.743 364.907 124.527C365.666 123.301 365.172 121.722 365.259 120.284C365.362 118.602 366.42 116.415 364.717 115.158C363.271 114.09 361.888 115.077 360.849 116.256C358.659 118.742 357.623 121.435 353.596 121.099Z" fill="#BDCAC2"/>
<path d="M366.248 95.9704C366.959 97.3311 368.442 98.1432 369.218 99.4684C370.059 100.905 369.964 102.761 370.876 104.153C371.812 105.581 373.696 106.34 374.221 107.964C374.794 109.738 373.494 111.894 374.53 113.444C374.724 113.697 374.968 113.908 375.247 114.062C375.526 114.216 375.834 114.311 376.151 114.34C376.469 114.369 376.789 114.332 377.092 114.231C377.394 114.13 377.672 113.968 377.909 113.754C378.346 113.279 378.579 112.652 378.56 112.007C378.541 111.361 378.271 110.749 377.806 110.301C377.193 109.742 376.311 109.5 375.799 108.848C375.532 108.471 375.354 108.038 375.279 107.583C374.999 106.27 375.044 104.908 375.409 103.616C375.546 103.288 375.581 102.926 375.509 102.578C375.278 101.908 374.37 101.861 373.733 101.55C372.286 100.844 372.321 98.8043 372.574 97.2156C372.405 98.2733 368.633 96.4743 368.238 95.8752C367.453 94.685 367.88 92.3891 367.725 91.0738C366.031 91.8892 365.378 94.3066 366.248 95.9704Z" fill="#BDCAC2"/>
<path d="M328.244 116.907C327.547 116.129 326.499 115.314 325.565 115.784C324.853 116.142 324.657 117.126 324.936 117.872C325.276 118.597 325.8 119.22 326.455 119.681C328.4 121.283 330.495 122.729 332.192 124.592C335.229 127.925 336.838 132.423 340.141 135.494C340.805 136.206 341.684 136.681 342.644 136.847C343.606 136.936 344.687 136.321 344.797 135.362C344.888 134.572 344.337 133.865 343.798 133.28C342.515 131.886 341.111 130.603 339.899 129.147C339.34 128.587 338.988 127.854 338.903 127.068C338.896 126.284 339.612 125.463 340.373 125.657C339.448 125.421 338.762 123.881 337.404 123.592C336.269 123.35 335.995 124.052 334.644 123.473C332.068 122.37 330.047 118.924 328.244 116.907Z" fill="#BDCAC2"/>
<path d="M388.768 41.1059C388.029 40.8866 387.303 40.6274 386.592 40.3295C384.679 39.7562 382.149 41.1602 382.404 43.1382C382.573 44.4524 383.798 45.3385 384.474 46.4785C385.477 48.169 385.21 50.3132 384.683 52.2065C384.553 52.7927 384.307 53.3469 383.959 53.8362C383.472 54.3528 382.89 54.7709 382.245 55.0675C379.663 56.514 377.385 58.4467 375.538 60.7585C375.337 60.972 375.198 61.2354 375.133 61.5211C375.042 62.189 375.714 62.6755 376.094 63.2325C376.938 64.4698 376.328 66.1348 376.412 67.6297C376.399 67.8411 376.44 68.0522 376.532 68.2431C376.624 68.434 376.763 68.5984 376.936 68.7205C377.445 68.9786 378.048 68.5402 378.323 68.0412C379.239 66.3852 378.549 63.7272 380.266 62.9288C380.591 62.7777 380.984 62.7141 381.201 62.4291C381.545 61.9771 381.213 61.3079 381.387 60.7677C381.649 59.9565 382.76 59.9201 383.612 59.9561C385.081 60.0174 386.548 59.8222 387.95 59.3793C388.499 59.2488 388.999 58.96 389.386 58.5488C389.899 57.9091 389.853 56.9996 389.751 56.1863C389.237 52.1317 387.951 48.2127 385.962 44.641C387.471 44.8334 389.111 45 390.413 44.2151C391.141 43.7755 392.015 42.461 391.654 41.5664C391.082 40.1516 390.05 41.3425 388.768 41.1059Z" fill="#BDCAC2"/>
<path d="M195.435 63.4056C195.616 64.3724 195.793 65.3903 195.476 66.3213C195.159 67.2523 194.161 68.0301 193.218 67.7449C192.487 67.5235 192.065 66.7891 191.545 66.2292C188.658 63.1155 182.142 64.9182 180.358 61.0661C179.63 59.4939 180.125 57.6104 179.629 55.9507C179.315 54.9915 178.692 54.1635 177.856 53.5965C177.021 53.0295 176.02 52.7558 175.012 52.8184C174.092 52.951 173.197 53.2179 172.355 53.6104C166.715 55.8665 160.794 57.3457 154.754 58.0073C153.606 58.0772 152.471 58.2835 151.372 58.6219C148.892 59.5199 147.198 61.8161 145.992 64.1593C144.786 66.5025 143.896 69.0393 142.279 71.121C140.58 73.3089 138.199 74.841 135.978 76.4981C135.123 77.0488 134.41 77.7946 133.9 78.674C133.418 79.6613 133.445 80.8096 133.483 81.9072L133.937 95.2372C133.995 96.9518 134.068 98.7276 134.837 100.262C135.796 102.178 137.691 103.433 139.006 105.125C140.348 106.865 141.047 109.014 140.985 111.209C140.957 112.091 140.869 113.135 141.557 113.689C141.976 113.96 142.466 114.101 142.964 114.094L161.018 115.569C164.194 115.829 167.714 116.256 169.787 118.672C170.766 119.813 171.552 121.453 173.051 121.575C173.694 121.628 174.319 121.364 174.962 121.313C176.585 121.185 178.01 122.415 178.909 123.769C180.271 125.834 180.889 128.3 180.662 130.762C180.514 132.307 180.034 133.809 179.931 135.358C179.538 141.251 184.54 146.371 184.637 152.277C184.694 155.751 183.043 158.996 181.433 162.076C184.031 166.007 181.903 171.241 182.938 175.837C183.919 180.197 187.559 183.61 188.466 187.986C188.881 189.989 188.905 192.454 190.673 193.486C191.449 193.864 192.31 194.036 193.172 193.985C198.37 194.047 203.51 192.878 208.17 190.575C210.357 189.491 212.623 187.873 213.005 185.465C213.313 183.522 212.327 181.35 213.33 179.658C214.513 177.664 217.543 177.822 219.284 176.289C222.107 173.802 219.905 169.059 221.049 165.477C222.078 162.257 225.617 160.547 227.372 157.657C228.062 156.414 228.558 155.073 228.841 153.68C229.645 150.351 230.145 146.956 230.336 143.536C230.383 141.459 230.536 139.385 230.795 137.324C232.687 125.586 244.306 117.726 248.078 106.449C248.438 105.372 248.607 103.938 247.648 103.329C247.079 103.057 246.434 102.99 245.821 103.138L237.499 104.186C236.465 104.316 235.37 104.437 234.42 104.009C233.471 103.58 232.79 102.38 233.294 101.469C234.708 98.912 231.8 95.6805 230.508 93.0598C227.029 86.0032 222.886 79.2929 218.136 73.0195C217.832 72.6968 217.641 72.2838 217.593 71.8432L219.955 71.9218C219.158 69.0642 217.842 65.9373 215.063 64.892C213.496 64.303 211.762 64.5066 210.091 64.5978C205.304 64.859 200.173 64.1372 195.435 63.4056Z" fill="#BDCAC2"/>
<path d="M210.094 -0.98876C211.347 0.339725 212.751 1.74824 214.563 1.97979C217.764 2.38881 220.065 -0.917162 221.53 -3.78876C221.585 -3.05669 221.923 -2.37462 222.473 -1.88764C223.023 -1.40066 223.741 -1.14719 224.475 -1.18113C225.265 -1.3139 226.02 -1.60835 226.69 -2.04602C233.032 -5.50758 240.136 -7.34165 247.363 -7.38351C247.294 -7.93031 247.43 -8.4834 247.744 -8.93607C248.059 -9.38875 248.531 -9.70892 249.068 -9.83481C250.537 -10.1258 251.861 -8.85692 252.57 -7.53886C253.279 -6.2208 253.721 -4.69306 254.847 -3.70648C255.973 -2.71989 258.153 -2.76286 258.598 -4.19154C259.025 -5.56314 257.595 -6.73283 256.406 -7.54147C255.217 -8.35012 253.965 -9.8468 254.765 -11.0402C260.837 -12.3827 266.947 -13.7303 273.161 -13.9971C274.219 -13.9603 275.273 -14.1417 276.258 -14.5299C277.205 -14.9943 277.958 -16.0486 277.704 -17.0716C276.348 -16.7533 274.927 -16.8455 273.624 -17.3364C272.321 -17.8274 271.194 -18.695 270.386 -19.8284C279.008 -20.539 288.178 -21.1447 295.819 -17.0928C296.736 -15.1268 292.062 -13.4912 293.313 -11.718C293.712 -11.1524 294.511 -11.0861 295.203 -11.0733C300.513 -10.9748 305.853 -10.8783 311.103 -11.6789C313.022 -11.9715 314.959 -12.3846 316.886 -12.1473C320.094 -11.7521 322.838 -9.61412 325.994 -8.91705C327.279 -8.63333 328.719 -8.62372 329.802 -9.36999C330.885 -10.1163 331.351 -11.8155 330.463 -12.7857C333.435 -15.6947 338.367 -14.9737 342.288 -13.581C346.208 -12.1883 349.922 -9.94238 354.072 -9.63194C357.047 -9.40933 360.064 -10.2087 363.004 -9.70061C364.852 -9.38131 366.572 -8.56037 368.377 -8.056C371.793 -7.10207 375.406 -7.30344 378.952 -7.25753C388 -7.13578 396.949 -5.35974 405.356 -2.01735C406.449 -1.66172 407.452 -1.07043 408.291 -0.285292C409.073 0.551371 409.472 1.8515 408.947 2.8687L400.259 1.60093C401.078 3.21025 403.195 3.4845 404.915 4.03969C406.635 4.59487 408.418 6.49159 407.384 7.97239C405.521 7.37985 403.832 9.24045 402.891 10.9523C401.95 12.6642 400.803 14.7144 398.85 14.8187C397.102 14.9121 394.987 13.4251 393.847 14.7528C395.422 16.7367 396.77 18.8897 397.867 21.1719C398.993 23.5148 399.795 26.467 398.273 28.5749C398.034 28.9512 397.671 29.2325 397.246 29.3704C396.003 29.6847 395.196 28.1661 394.304 27.2456C393.181 26.0857 391.483 25.7571 389.962 25.2131C388.44 24.6692 386.838 23.599 386.719 21.9897C386.645 20.9885 387.174 20.0577 387.564 19.1323C388.219 17.5725 388.506 15.8829 388.402 14.1945C388.316 12.8363 387.935 11.4234 386.958 10.4744C385.982 9.52533 384.295 9.22427 383.247 10.0935C382.758 10.4991 382.366 11.1478 381.73 11.172C380.608 11.2149 379.746 9.26022 378.843 9.92748C378.949 10.6385 378.801 11.364 378.426 11.9773C375.731 14.3184 371.59 13.328 368.116 14.155C366.464 14.6272 364.882 15.3172 363.412 16.2066C362.862 16.4414 362.394 16.8336 362.067 17.3338C361.634 18.1756 362.112 19.2536 362.876 19.8134C363.687 20.31 364.598 20.6205 365.544 20.7226C369.779 21.5239 374.077 22.7642 377.421 25.4816C380.765 28.1989 382.959 32.6909 381.9 36.8649L373.547 28.893C373.864 32.2403 374.044 35.5967 374.087 38.9624C374.141 39.6195 374.051 40.2806 373.822 40.8992C373.227 42.2129 371.613 42.6549 370.199 42.9449C369.805 43.0196 369.432 43.1765 369.104 43.4054C368.775 43.6343 368.499 43.93 368.293 44.273C368.088 44.6161 367.957 44.9988 367.91 45.3959C367.862 45.793 367.9 46.1956 368.019 46.5773C368.522 48.2132 369.775 49.4886 370.922 50.7595C372.069 52.0303 373.198 53.4747 373.349 55.1793C373.499 56.8838 372.211 58.8051 370.502 58.6866C369.206 58.5967 368.245 57.4383 367.692 56.2644C367.14 55.0905 366.811 53.7829 365.981 52.7854C363.467 49.7664 357.822 51.0599 355.571 47.8414C354.997 48.4916 354.599 49.2776 354.415 50.1246C354.23 50.9716 354.266 51.8516 354.518 52.6811C355.565 52.0262 356.999 52.6347 357.786 53.5863C358.573 54.5379 358.944 55.7579 359.562 56.8267C360.396 58.2689 361.724 59.5474 361.84 61.2089C361.809 61.8371 361.82 62.4667 361.872 63.0935C362.078 64.1002 362.93 64.823 363.521 65.6644C364.895 67.6223 364.827 70.312 363.942 72.5334C363.056 74.7549 361.464 76.6111 359.888 78.4108C357.135 81.5541 354.325 84.679 351.061 87.2894C350.13 88.0343 349.136 88.7667 348.555 89.8081C347.975 90.8494 347.946 92.3111 348.837 93.1033C348.199 93.1352 347.055 93.4485 346.417 93.4804C346.193 90.9249 346.144 88.357 346.272 85.7948C343.754 84.5876 341.044 87.8204 341.369 90.5902C341.694 93.3601 343.7 95.5828 345.128 97.9793C346.172 99.7317 346.948 101.775 346.6 103.784C346.251 105.794 344.455 107.648 342.421 107.47C339.185 107.188 337.832 102.549 334.628 102.018C334.345 101.952 334.049 101.981 333.785 102.102C333.309 102.363 333.226 102.998 333.2 103.539C333.069 106.196 332.955 108.958 333.993 111.407C335.512 114.989 339.436 117.999 338.613 121.801C334.179 119.743 331.874 114.777 330.827 110.006C329.78 105.236 329.606 100.228 327.729 95.7187C326.305 97.5425 323.31 96.0348 322.008 94.1215C320.774 92.3075 320.015 90.2092 318.817 88.3708C317.62 86.5325 315.786 84.8863 313.592 84.7852C311.293 84.6792 309.298 86.2555 307.544 87.7448C306.102 88.9695 304.621 90.2423 303.778 91.9352C302.551 94.3987 302.872 97.3029 302.813 100.054C302.749 103.027 302.118 106.165 300.088 108.342C298.059 110.519 294.313 111.277 292.075 109.315C290.906 108.291 290.341 106.761 289.837 105.292C287.407 98.2102 285.384 90.9963 283.777 83.6849C283.401 85.3536 281.934 87.5045 280.532 86.5215C280.218 86.2572 279.963 85.9294 279.784 85.5595C277.17 81.1339 272.329 78.4794 267.437 76.8877C262.545 75.2961 257.398 74.5537 252.561 72.8044C249.85 71.8238 247.26 70.5356 244.844 68.9652C244.227 69.8692 243.868 70.9228 243.802 72.0144C243.737 73.106 243.969 74.195 244.473 75.1658C245.546 77.0635 247.974 78.1615 250.053 77.4982C251.127 77.1554 252.034 76.4107 253.1 76.0428C254.166 75.675 255.596 75.8556 256.062 76.8812C256.508 77.8629 255.834 79.0504 256.168 80.0754C256.678 81.6365 259.035 81.7567 259.86 83.1773C260.473 84.2343 259.968 85.6378 259.093 86.4907C258.217 87.3436 257.048 87.8114 255.979 88.4051C252.511 90.3315 250.044 93.6199 247.013 96.1784C243.982 98.7369 239.705 100.605 236.092 98.9637C236.954 94.6087 231.759 91.4113 230.804 87.0759C230.489 85.6489 230.652 84.1331 230.203 82.7425C229.553 80.7292 227.765 79.3449 226.298 77.8191C224.518 75.9484 223.132 73.7407 222.22 71.3262C221.309 68.9117 220.891 66.3393 220.991 63.7608C221.07 61.9691 221.4 60.1482 220.991 58.4017C220.583 56.6553 219.135 54.9649 217.341 55.0441C213.244 55.2248 208.082 55.5292 205.932 52.0407C205.165 50.7956 204.831 48.972 205.94 48.0181C206.723 47.3452 207.878 47.4086 208.905 47.5096L218.137 48.4166C220.297 48.6288 222.631 48.8038 224.484 47.6764C226.337 46.549 227.139 43.5563 225.424 42.2299C224.17 41.2607 221.924 41.3132 221.56 39.7723C221.256 38.4889 222.679 37.0328 221.91 35.9603C221.36 35.1913 220.121 35.4046 219.371 35.9811C218.621 36.5576 218.076 37.4007 217.236 37.8372C215.763 38.6029 214.003 37.8742 212.418 37.3789C210.833 36.8836 208.708 36.8415 207.94 38.3118C207.08 39.956 208.702 42.1106 207.849 43.7582C206.721 45.9366 202.901 44.6965 201.316 46.5703C199.498 48.7204 202.553 51.9265 201.94 54.6733C201.158 55.0604 200.288 55.2382 199.416 55.1893C198.544 55.1404 197.699 54.8664 196.965 54.3941C196.243 53.9034 195.667 53.2263 195.299 52.435C194.931 51.6436 194.785 50.7675 194.876 49.8997C195.028 48.6641 195.673 47.4028 195.241 46.2351C194.891 45.291 193.942 44.729 193.06 44.2421L184.089 39.2907C183.256 40.8339 184.309 42.7471 185.626 43.9063C186.943 45.0654 188.592 45.9384 189.458 47.4639C190.005 48.5208 190.127 49.7465 189.801 50.8906C189.474 52.0348 188.722 53.0112 187.698 53.6204C187.57 53.7088 187.424 53.7684 187.271 53.7951C187.117 53.8219 186.96 53.8151 186.809 53.7753C186.666 53.6913 186.541 53.5794 186.442 53.4464C186.343 53.3133 186.272 53.1618 186.232 53.0007C184.649 48.9548 182.273 44.9658 178.473 42.8524C174.673 40.7389 169.214 41.1734 166.722 44.7337C166.13 45.5793 165.733 46.5432 165.218 47.4373C162.479 52.1872 156.607 54.4365 151.12 54.2896C150.584 54.3192 150.05 54.1939 149.582 53.9286C148.696 53.317 148.736 52.0192 148.871 50.9515L149.447 46.4206C149.563 45.5107 149.731 44.5051 150.452 43.9371C151.468 43.1365 152.934 43.6418 154.228 43.6231C155.209 43.5773 156.152 43.2314 156.929 42.6324C157.706 42.0334 158.28 41.2102 158.573 40.2744C158.834 39.3294 158.833 38.3311 158.568 37.3869C158.303 36.4428 157.786 35.5887 157.071 34.9167C156.478 34.3602 155.682 33.6611 155.995 32.9109C156.12 32.7034 156.289 32.5258 156.49 32.3905C156.691 32.2552 156.92 32.1656 157.159 32.1279C159.484 31.4536 161.941 31.2769 164.227 30.4812C166.513 29.6856 168.73 28.0577 169.271 25.701C169.437 24.9788 169.513 24.1039 170.162 23.7458C170.488 23.6084 170.838 23.5369 171.192 23.5357C172.432 23.3596 173.56 22.7264 174.356 21.7609C175.151 20.7954 175.556 19.5674 175.49 18.3187C176.586 17.5541 178.121 18.1166 179.181 18.9298C180.241 19.7431 181.176 20.8176 182.466 21.1682C184.87 21.8215 187.192 19.6961 189.683 19.6862C190.731 19.6821 191.815 20.052 192.801 19.6973C193.8 19.3377 194.396 18.3445 195.163 17.6107C195.93 16.8769 197.275 16.4293 197.983 17.2198L197.38 12.7595C198.594 13.0659 199.86 13.1092 201.092 12.8867C202.325 12.6642 203.495 12.1809 204.525 11.4693L196.733 8.8398C196.462 8.77215 196.211 8.63847 196.004 8.4507C195.438 7.84144 196.001 6.89203 196.461 6.19946C197.563 4.54266 197.748 1.81352 195.936 0.988678C194.699 0.425667 193.279 1.10148 192.092 1.76266L186.405 4.92982C186.224 6.00952 187.546 6.62143 188.365 7.3487C188.861 7.78871 189.212 8.36816 189.371 9.01094C189.531 9.65371 189.493 10.3298 189.261 10.9503C189.029 11.5708 188.615 12.1067 188.072 12.4877C187.53 12.8687 186.885 13.077 186.222 13.0851C186.596 13.5714 186.856 14.1355 186.983 14.7359C187.11 15.3362 187.099 15.9573 186.953 16.5532L183.127 16.828C182.697 16.9143 182.251 16.8273 181.886 16.5861C181.476 16.2231 181.532 15.5869 181.437 15.0485C181.208 13.749 179.934 12.8382 178.634 12.6047C177.334 12.3711 176.003 12.6705 174.716 12.9661C174.169 13.1626 173.569 13.1487 173.032 12.9272C172.724 12.7274 172.49 12.4324 172.365 12.0873C171.801 10.7203 172.329 9.11361 173.235 7.94461C174.142 6.77562 175.383 5.92105 176.497 4.94786C179.163 2.61204 181.121 -0.421686 182.151 -3.81062C184.258 -4.69211 186.438 -5.88981 188.545 -6.77132C191.793 -8.41355 195.434 -9.11831 199.061 -8.80634L206.195 -8.67025C208.307 -8.62996 210.476 -8.57833 212.429 -7.77413C214.382 -6.96992 216.098 -5.23053 216.233 -3.12497C216.274 -2.8866 216.253 -2.64183 216.173 -2.41361C216.093 -2.18539 215.956 -1.9812 215.776 -1.82024C215.5 -1.6699 215.187 -1.59958 214.874 -1.6172C212.904 -1.54806 212.064 -1.05787 210.094 -0.98876Z" fill="#BDCAC2"/>
<path d="M153.234 21.3412C153.513 21.0777 153.713 20.7426 153.814 20.3726C153.914 20.0027 153.91 19.6123 153.803 19.2443C153.125 18.9829 152.387 18.9158 151.673 19.0505C150.958 19.1852 150.296 19.5164 149.76 20.0068C149.337 20.4338 148.973 20.9147 148.677 21.437C147.739 22.9645 146.91 24.789 147.453 26.4965C147.498 26.6827 147.579 26.8582 147.692 27.0127C147.805 27.1672 147.948 27.2976 148.112 27.3962C148.356 27.4938 148.618 27.5348 148.88 27.5163C149.912 27.5149 150.944 27.4515 151.969 27.3264C152.599 27.2495 153.33 27.0719 153.573 26.487C153.893 25.7181 153.119 24.8479 153.344 24.0464C153.493 23.688 153.718 23.3662 154.004 23.1035C154.145 22.9713 154.254 22.8079 154.322 22.6262C154.389 22.4446 154.414 22.2497 154.392 22.0571C154.301 21.681 153.725 21.4677 153.517 21.7944" fill="#BDCAC2"/>
<path d="M158.589 14.4072C157.671 14.1969 156.726 14.1376 155.789 14.2317C155.582 14.2255 155.377 14.2721 155.193 14.367C155.014 14.4984 154.885 14.6856 154.825 14.8987C154.627 15.5328 154.676 16.218 154.961 16.8179C155.247 17.4178 155.748 17.8883 156.365 18.1358C156.701 18.213 157.023 18.3423 157.32 18.519C158.111 19.1326 157.607 20.3867 157.757 21.3764C157.925 22.4877 159.002 23.4205 158.804 24.527C158.649 25.3988 157.717 26.089 157.867 26.9618C158.024 27.8758 159.185 28.1505 160.111 28.2236C160.647 28.3175 161.2 28.2543 161.701 28.0417C162.203 27.6985 162.561 27.1816 162.704 26.5907C163.083 25.4641 163.242 24.2753 163.173 23.0888C163.169 22.5492 163.033 22.0186 162.778 21.5432C162.499 21.1665 162.19 20.8131 161.854 20.4865C160.08 18.4261 161.948 15.3527 158.589 14.4072Z" fill="#BDCAC2"/>
</g>
<defs>
<clipPath id="clip0">
<rect width="585" height="434" fill="white" transform="translate(-101 -126)"/>
</clipPath>
</defs>
</svg>
