<svg width="344" height="374" viewBox="0 0 344 374" fill="none" xmlns="http://www.w3.org/2000/svg">
<line y1="132.5" x2="344" y2="132.5" stroke="#2A6049"/>
<path d="M1.75684 370H3.72559V357.317H1.75684V370ZM6.6875 370H8.59473V364.401C8.59473 362.863 9.46484 361.905 10.8623 361.905C12.2598 361.905 12.9189 362.688 12.9189 364.27V370H14.8174V363.821C14.8174 361.545 13.6396 360.271 11.5039 360.271C10.1152 360.271 9.20117 360.886 8.73535 361.905H8.59473V360.455H6.6875V370ZM19.792 370H21.8223L25.2676 360.455H23.2637L20.8906 368.066H20.7412L18.3594 360.455H16.3379L19.792 370ZM28.1768 358.75C28.8271 358.75 29.3721 358.214 29.3721 357.563C29.3721 356.904 28.8271 356.368 28.1768 356.368C27.5176 356.368 26.9814 356.904 26.9814 357.563C26.9814 358.214 27.5176 358.75 28.1768 358.75ZM27.2188 370H29.1172V360.455H27.2188V370ZM35.498 370.062C35.8672 370.062 36.2188 370.018 36.5264 369.965V368.444C36.2627 368.471 36.0957 368.479 35.8057 368.479C34.8652 368.479 34.4785 368.058 34.4785 367.029V361.958H36.5264V360.455H34.4785V358.047H32.5361V360.455H31.042V361.958H32.5361V367.486C32.5361 369.323 33.3975 370.062 35.498 370.062ZM42.6523 370.185C45.0957 370.185 46.4141 368.778 46.7305 367.521L46.748 367.442L44.9111 367.451L44.876 367.521C44.6475 368.014 43.918 368.62 42.6963 368.62C41.123 368.62 40.1211 367.557 40.0859 365.729H46.8535V365.061C46.8535 362.195 45.2188 360.271 42.5557 360.271C39.8926 360.271 38.1699 362.266 38.1699 365.245V365.254C38.1699 368.277 39.8574 370.185 42.6523 370.185ZM42.5645 361.835C43.8564 361.835 44.8145 362.661 44.9639 364.366H40.1123C40.2793 362.723 41.2637 361.835 42.5645 361.835ZM54.9746 373.357C56.9082 373.357 57.875 372.646 58.6836 370.369L62.2344 360.455H60.2305L57.8486 368.084H57.6816L55.291 360.455H53.2344L56.6973 370.009L56.5566 370.501C56.2754 371.468 55.7393 371.846 54.8516 371.846C54.6318 371.846 54.3945 371.837 54.21 371.811V373.313C54.4561 373.34 54.7373 373.357 54.9746 373.357ZM67.8418 370.185C70.6367 370.185 72.3506 368.312 72.3506 365.236V365.219C72.3506 362.143 70.6279 360.271 67.8418 360.271C65.0469 360.271 63.3242 362.151 63.3242 365.219V365.236C63.3242 368.312 65.0381 370.185 67.8418 370.185ZM67.8418 368.594C66.1982 368.594 65.2754 367.354 65.2754 365.236V365.219C65.2754 363.101 66.1982 361.861 67.8418 361.861C69.4766 361.861 70.4082 363.101 70.4082 365.219V365.236C70.4082 367.346 69.4766 368.594 67.8418 368.594ZM77.8086 370.185C79.1973 370.185 80.1641 369.587 80.6211 368.559H80.7705V370H82.6689V360.455H80.7705V366.054C80.7705 367.592 79.9531 368.55 78.4238 368.55C77.0264 368.55 76.4463 367.768 76.4463 366.186V360.455H74.5391V366.634C74.5391 368.893 75.6553 370.185 77.8086 370.185ZM85.4199 370H87.3271V364.296C87.3271 362.916 88.3203 362.02 89.7793 362.02C90.1396 362.02 90.4648 362.063 90.8076 362.134V360.376C90.6143 360.332 90.2803 360.288 89.9727 360.288C88.6982 360.288 87.8105 360.886 87.4678 361.896H87.3271V360.455H85.4199V370ZM98.2256 370H100.124V361.958H102.225V360.455H100.106V359.541C100.106 358.574 100.52 358.064 101.574 358.064C101.873 358.064 102.128 358.082 102.304 358.108V356.711C101.979 356.658 101.609 356.623 101.179 356.623C99.1924 356.623 98.2256 357.555 98.2256 359.453V360.455H96.6523V361.958H98.2256V370ZM104.369 370H106.276V364.296C106.276 362.916 107.27 362.02 108.729 362.02C109.089 362.02 109.414 362.063 109.757 362.134V360.376C109.563 360.332 109.229 360.288 108.922 360.288C107.647 360.288 106.76 360.886 106.417 361.896H106.276V360.455H104.369V370ZM115.338 370.185C117.781 370.185 119.1 368.778 119.416 367.521L119.434 367.442L117.597 367.451L117.562 367.521C117.333 368.014 116.604 368.62 115.382 368.62C113.809 368.62 112.807 367.557 112.771 365.729H119.539V365.061C119.539 362.195 117.904 360.271 115.241 360.271C112.578 360.271 110.855 362.266 110.855 365.245V365.254C110.855 368.277 112.543 370.185 115.338 370.185ZM115.25 361.835C116.542 361.835 117.5 362.661 117.649 364.366H112.798C112.965 362.723 113.949 361.835 115.25 361.835ZM122.8 358.75C123.45 358.75 123.995 358.214 123.995 357.563C123.995 356.904 123.45 356.368 122.8 356.368C122.141 356.368 121.604 356.904 121.604 357.563C121.604 358.214 122.141 358.75 122.8 358.75ZM121.842 370H123.74V360.455H121.842V370ZM126.518 370H128.425V364.401C128.425 362.863 129.295 361.905 130.692 361.905C132.09 361.905 132.749 362.688 132.749 364.27V370H134.647V363.821C134.647 361.545 133.47 360.271 131.334 360.271C129.945 360.271 129.031 360.886 128.565 361.905H128.425V360.455H126.518V370ZM140.791 370.158C142.127 370.158 143.173 369.543 143.727 368.497H143.876V370H145.774V356.711H143.876V361.967H143.727C143.217 360.938 142.101 360.288 140.791 360.288C138.365 360.288 136.836 362.195 136.836 365.219V365.236C136.836 368.233 138.392 370.158 140.791 370.158ZM141.336 368.532C139.736 368.532 138.778 367.284 138.778 365.236V365.219C138.778 363.171 139.736 361.923 141.336 361.923C142.918 361.923 143.902 363.18 143.902 365.219V365.236C143.902 367.275 142.927 368.532 141.336 368.532ZM152.085 370.185C154.353 370.185 156.04 368.98 156.04 367.214V367.196C156.04 365.816 155.161 365.034 153.324 364.604L151.812 364.261C150.74 364.006 150.301 363.637 150.301 363.039V363.021C150.301 362.257 151.057 361.738 152.103 361.738C153.175 361.738 153.852 362.239 154.036 362.907V362.925H155.855V362.916C155.688 361.36 154.291 360.271 152.111 360.271C149.949 360.271 148.402 361.466 148.402 363.127V363.136C148.402 364.533 149.237 365.351 151.039 365.764L152.56 366.115C153.667 366.37 154.115 366.774 154.115 367.372V367.39C154.115 368.172 153.298 368.708 152.12 368.708C150.986 368.708 150.292 368.225 150.055 367.504L150.046 367.495H148.139V367.504C148.323 369.104 149.782 370.185 152.085 370.185ZM159.002 365.799H160.777L160.953 357.309H158.817L159.002 365.799ZM159.898 370.193C160.707 370.193 161.243 369.666 161.243 368.884C161.243 368.093 160.707 367.565 159.898 367.565C159.081 367.565 158.536 368.093 158.536 368.884C158.536 369.666 159.081 370.193 159.898 370.193Z" fill="#2A6049"/>
<path d="M6.98047 91.3076C10.3027 91.3076 12.4561 89.2246 12.4561 86.0078V84.4346H7.25293V86.0254H10.5137V86.3066C10.4961 88.2578 9.08105 89.5674 7.00684 89.5674C4.625 89.5674 3.13086 87.6865 3.13086 84.6543V84.6367C3.13086 81.6484 4.61621 79.75 6.96289 79.75C8.70312 79.75 9.91602 80.5938 10.373 82.0967L10.3994 82.1846H12.3682L12.3506 82.0967C11.8936 79.6445 9.8457 78.0098 6.96289 78.0098C3.41211 78.0098 1.11816 80.6201 1.11816 84.6455V84.6631C1.11816 88.7412 3.38574 91.3076 6.98047 91.3076ZM15.9453 79.75C16.5957 79.75 17.1406 79.2139 17.1406 78.5635C17.1406 77.9043 16.5957 77.3682 15.9453 77.3682C15.2861 77.3682 14.75 77.9043 14.75 78.5635C14.75 79.2139 15.2861 79.75 15.9453 79.75ZM14.9873 91H16.8857V81.4551H14.9873V91ZM22.291 91H24.3213L27.7666 81.4551H25.7627L23.3896 89.0664H23.2402L20.8584 81.4551H18.8369L22.291 91ZM33.3213 91.1846C35.7646 91.1846 37.083 89.7783 37.3994 88.5215L37.417 88.4424L35.5801 88.4512L35.5449 88.5215C35.3164 89.0137 34.5869 89.6201 33.3652 89.6201C31.792 89.6201 30.79 88.5566 30.7549 86.7285H37.5225V86.0605C37.5225 83.1953 35.8877 81.2705 33.2246 81.2705C30.5615 81.2705 28.8389 83.2656 28.8389 86.2451V86.2539C28.8389 89.2773 30.5264 91.1846 33.3213 91.1846ZM33.2334 82.835C34.5254 82.835 35.4834 83.6611 35.6328 85.3662H30.7812C30.9482 83.7227 31.9326 82.835 33.2334 82.835ZM48.3154 91.0615C48.6846 91.0615 49.0361 91.0176 49.3438 90.9648V89.4443C49.0801 89.4707 48.9131 89.4795 48.623 89.4795C47.6826 89.4795 47.2959 89.0576 47.2959 88.0293V82.958H49.3438V81.4551H47.2959V79.0469H45.3535V81.4551H43.8594V82.958H45.3535V88.4863C45.3535 90.3232 46.2148 91.0615 48.3154 91.0615ZM51.6553 91H53.5625V85.4014C53.5625 83.8633 54.4326 82.9053 55.8301 82.9053C57.2275 82.9053 57.8867 83.6875 57.8867 85.2695V91H59.7852V84.8213C59.7852 82.5449 58.6074 81.2705 56.4717 81.2705C55.083 81.2705 54.1689 81.8857 53.7031 82.9053H53.5625V77.7109H51.6553V91ZM63.4414 79.75C64.0918 79.75 64.6367 79.2139 64.6367 78.5635C64.6367 77.9043 64.0918 77.3682 63.4414 77.3682C62.7822 77.3682 62.2461 77.9043 62.2461 78.5635C62.2461 79.2139 62.7822 79.75 63.4414 79.75ZM62.4834 91H64.3818V81.4551H62.4834V91ZM70.6309 91.1846C72.8984 91.1846 74.5859 89.9805 74.5859 88.2139V88.1963C74.5859 86.8164 73.707 86.0342 71.8701 85.6035L70.3584 85.2607C69.2861 85.0059 68.8467 84.6367 68.8467 84.0391V84.0215C68.8467 83.2568 69.6025 82.7383 70.6484 82.7383C71.7207 82.7383 72.3975 83.2393 72.582 83.9072V83.9248H74.4014V83.916C74.2344 82.3604 72.8369 81.2705 70.6572 81.2705C68.4951 81.2705 66.9482 82.4658 66.9482 84.127V84.1357C66.9482 85.5332 67.7832 86.3506 69.585 86.7637L71.1055 87.1152C72.2129 87.3701 72.6611 87.7744 72.6611 88.3721V88.3896C72.6611 89.1719 71.8438 89.708 70.666 89.708C69.5322 89.708 68.8379 89.2246 68.6006 88.5039L68.5918 88.4951H66.6846V88.5039C66.8691 90.1035 68.3281 91.1846 70.6309 91.1846ZM85.3877 91.0615C85.7568 91.0615 86.1084 91.0176 86.416 90.9648V89.4443C86.1523 89.4707 85.9854 89.4795 85.6953 89.4795C84.7549 89.4795 84.3682 89.0576 84.3682 88.0293V82.958H86.416V81.4551H84.3682V79.0469H82.4258V81.4551H80.9316V82.958H82.4258V88.4863C82.4258 90.3232 83.2871 91.0615 85.3877 91.0615ZM88.6396 91H90.5469V85.2959C90.5469 83.916 91.54 83.0195 92.999 83.0195C93.3594 83.0195 93.6846 83.0635 94.0273 83.1338V81.376C93.834 81.332 93.5 81.2881 93.1924 81.2881C91.918 81.2881 91.0303 81.8857 90.6875 82.8965H90.5469V81.4551H88.6396V91ZM96.8398 79.75C97.4902 79.75 98.0352 79.2139 98.0352 78.5635C98.0352 77.9043 97.4902 77.3682 96.8398 77.3682C96.1807 77.3682 95.6445 77.9043 95.6445 78.5635C95.6445 79.2139 96.1807 79.75 96.8398 79.75ZM95.8818 91H97.7803V81.4551H95.8818V91ZM100.558 94.1816H102.465V89.4883H102.605C103.115 90.5166 104.231 91.1582 105.541 91.1582C107.967 91.1582 109.496 89.2598 109.496 86.2363V86.2188C109.496 83.2129 107.949 81.2881 105.541 81.2881C104.205 81.2881 103.159 81.9121 102.605 82.958H102.465V81.4551H100.558V94.1816ZM105.005 89.5322C103.414 89.5322 102.43 88.2754 102.43 86.2363V86.2188C102.43 84.1797 103.414 82.9229 105.005 82.9229C106.596 82.9229 107.554 84.1621 107.554 86.2188V86.2363C107.554 88.2842 106.596 89.5322 105.005 89.5322ZM119.331 91.1582C120.597 91.1582 121.599 90.6133 122.161 89.6465H122.311V91H124.2V84.4697C124.2 82.4658 122.847 81.2705 120.447 81.2705C118.276 81.2705 116.773 82.3164 116.545 83.8809L116.536 83.9424H118.373L118.382 83.9072C118.61 83.2305 119.305 82.8438 120.359 82.8438C121.651 82.8438 122.311 83.4238 122.311 84.4697V85.3135L119.727 85.4629C117.45 85.6035 116.167 86.5967 116.167 88.3018V88.3193C116.167 90.0508 117.512 91.1582 119.331 91.1582ZM118.065 88.2402V88.2227C118.065 87.3613 118.663 86.8867 119.981 86.8076L122.311 86.6582V87.4756C122.311 88.7061 121.265 89.6377 119.841 89.6377C118.812 89.6377 118.065 89.1191 118.065 88.2402ZM131.812 91H133.719V85.4014C133.719 83.8633 134.589 82.9053 135.986 82.9053C137.384 82.9053 138.043 83.6875 138.043 85.2695V91H139.941V84.8213C139.941 82.5449 138.764 81.2705 136.628 81.2705C135.239 81.2705 134.325 81.8857 133.859 82.9053H133.719V81.4551H131.812V91ZM145.224 91.1582C146.489 91.1582 147.491 90.6133 148.054 89.6465H148.203V91H150.093V84.4697C150.093 82.4658 148.739 81.2705 146.34 81.2705C144.169 81.2705 142.666 82.3164 142.438 83.8809L142.429 83.9424H144.266L144.274 83.9072C144.503 83.2305 145.197 82.8438 146.252 82.8438C147.544 82.8438 148.203 83.4238 148.203 84.4697V85.3135L145.619 85.4629C143.343 85.6035 142.06 86.5967 142.06 88.3018V88.3193C142.06 90.0508 143.404 91.1582 145.224 91.1582ZM143.958 88.2402V88.2227C143.958 87.3613 144.556 86.8867 145.874 86.8076L148.203 86.6582V87.4756C148.203 88.7061 147.157 89.6377 145.733 89.6377C144.705 89.6377 143.958 89.1191 143.958 88.2402ZM152.782 91H154.689V85.1377C154.689 83.8896 155.542 82.9053 156.693 82.9053C157.818 82.9053 158.53 83.5908 158.53 84.6807V91H160.429V84.9619C160.429 83.8105 161.229 82.9053 162.441 82.9053C163.689 82.9053 164.287 83.5557 164.287 84.874V91H166.186V84.417C166.186 82.4307 165.061 81.2705 163.136 81.2705C161.809 81.2705 160.71 81.9473 160.227 82.9756H160.077C159.655 81.9473 158.732 81.2705 157.432 81.2705C156.184 81.2705 155.252 81.877 154.83 82.9229H154.689V81.4551H152.782V91ZM172.856 91.1846C175.3 91.1846 176.618 89.7783 176.935 88.5215L176.952 88.4424L175.115 88.4512L175.08 88.5215C174.852 89.0137 174.122 89.6201 172.9 89.6201C171.327 89.6201 170.325 88.5566 170.29 86.7285H177.058V86.0605C177.058 83.1953 175.423 81.2705 172.76 81.2705C170.097 81.2705 168.374 83.2656 168.374 86.2451V86.2539C168.374 89.2773 170.062 91.1846 172.856 91.1846ZM172.769 82.835C174.061 82.835 175.019 83.6611 175.168 85.3662H170.316C170.483 83.7227 171.468 82.835 172.769 82.835Z" fill="#2A6049"/>
<g filter="url(#filter0_i)">
<path d="M125.406 23H128.934V11.9258H129.004L136.668 23H139.738V6.08984H136.211V17.082H136.141L128.5 6.08984H125.406V23ZM147.988 23.2578C151.574 23.2578 153.309 21.1367 153.695 19.2852L153.73 19.1562H150.59L150.566 19.2266C150.32 19.9297 149.465 20.7031 148.059 20.7031C146.312 20.7031 145.223 19.5312 145.188 17.5273H153.836V16.4727C153.836 12.6758 151.527 10.1797 147.848 10.1797C144.168 10.1797 141.812 12.7344 141.812 16.7305V16.7422C141.812 20.7617 144.145 23.2578 147.988 23.2578ZM147.906 12.7344C149.324 12.7344 150.344 13.6367 150.555 15.3711H145.223C145.445 13.6719 146.5 12.7344 147.906 12.7344ZM157.984 23H161.582L163.844 14.1172H163.914L166.188 23H169.832L173.16 10.4375H169.785L167.875 19.7539H167.805L165.566 10.4375H162.285L160.059 19.7539H159.988L158.09 10.4375H154.645L157.984 23ZM183.59 23H187.129V9.00781H192.027V6.08984H178.703V9.00781H183.59V23ZM192.098 23H195.52V15.9688C195.52 14.1406 196.504 13.1328 198.191 13.1328C198.684 13.1328 199.152 13.2031 199.434 13.3203V10.3086C199.176 10.2383 198.824 10.1797 198.449 10.1797C196.984 10.1797 195.965 11.082 195.59 12.6289H195.52V10.4375H192.098V23ZM202.621 8.82031C203.652 8.82031 204.449 8.01172 204.449 7.03906C204.449 6.06641 203.652 5.25781 202.621 5.25781C201.59 5.25781 200.793 6.06641 200.793 7.03906C200.793 8.01172 201.59 8.82031 202.621 8.82031ZM200.91 23H204.332V10.4375H200.91V23ZM206.629 27.1016H210.051V20.8555H210.121C210.801 22.3438 212.219 23.2578 214.012 23.2578C217.152 23.2578 219.098 20.7969 219.098 16.7188V16.707C219.098 12.6172 217.152 10.1797 213.965 10.1797C212.184 10.1797 210.812 11.1055 210.133 12.6289H210.051V10.4375H206.629V27.1016ZM212.84 20.4219C211.176 20.4219 210.039 18.9922 210.039 16.7305V16.7188C210.039 14.4453 211.176 13.0156 212.84 13.0156C214.539 13.0156 215.617 14.4102 215.617 16.707V16.7188C215.617 19.0039 214.539 20.4219 212.84 20.4219Z" fill="#2A6049"/>
</g>
<path d="M4.43945 184H6.30273L9.01855 174.517H9.1416L11.8662 184H13.7207L17.1484 171.317H15.1006L12.7803 181.179H12.6572L9.99414 171.317H8.16602L5.52051 181.179H5.39746L3.06836 171.317H1.02051L4.43945 184ZM19.3984 184H21.3057V178.401C21.3057 176.863 22.1758 175.905 23.5732 175.905C24.9707 175.905 25.6299 176.688 25.6299 178.27V184H27.5283V177.821C27.5283 175.545 26.3506 174.271 24.2148 174.271C22.8262 174.271 21.9121 174.886 21.4463 175.905H21.3057V170.711H19.3984V184ZM34.1992 184.185C36.6426 184.185 37.9609 182.778 38.2773 181.521L38.2949 181.442L36.458 181.451L36.4229 181.521C36.1943 182.014 35.4648 182.62 34.2432 182.62C32.6699 182.62 31.668 181.557 31.6328 179.729H38.4004V179.061C38.4004 176.195 36.7656 174.271 34.1025 174.271C31.4395 174.271 29.7168 176.266 29.7168 179.245V179.254C29.7168 182.277 31.4043 184.185 34.1992 184.185ZM34.1113 175.835C35.4033 175.835 36.3613 176.661 36.5107 178.366H31.6592C31.8262 176.723 32.8105 175.835 34.1113 175.835ZM40.668 184H42.5752V178.296C42.5752 176.916 43.5684 176.02 45.0273 176.02C45.3877 176.02 45.7129 176.063 46.0557 176.134V174.376C45.8623 174.332 45.5283 174.288 45.2207 174.288C43.9463 174.288 43.0586 174.886 42.7158 175.896H42.5752V174.455H40.668V184ZM51.6367 184.185C54.0801 184.185 55.3984 182.778 55.7148 181.521L55.7324 181.442L53.8955 181.451L53.8604 181.521C53.6318 182.014 52.9023 182.62 51.6807 182.62C50.1074 182.62 49.1055 181.557 49.0703 179.729H55.8379V179.061C55.8379 176.195 54.2031 174.271 51.54 174.271C48.877 174.271 47.1543 176.266 47.1543 179.245V179.254C47.1543 182.277 48.8418 184.185 51.6367 184.185ZM51.5488 175.835C52.8408 175.835 53.7988 176.661 53.9482 178.366H49.0967C49.2637 176.723 50.248 175.835 51.5488 175.835ZM66.6309 184.062C67 184.062 67.3516 184.018 67.6592 183.965V182.444C67.3955 182.471 67.2285 182.479 66.9385 182.479C65.998 182.479 65.6113 182.058 65.6113 181.029V175.958H67.6592V174.455H65.6113V172.047H63.6689V174.455H62.1748V175.958H63.6689V181.486C63.6689 183.323 64.5303 184.062 66.6309 184.062ZM73.8203 184.185C76.6152 184.185 78.3291 182.312 78.3291 179.236V179.219C78.3291 176.143 76.6064 174.271 73.8203 174.271C71.0254 174.271 69.3027 176.151 69.3027 179.219V179.236C69.3027 182.312 71.0166 184.185 73.8203 184.185ZM73.8203 182.594C72.1768 182.594 71.2539 181.354 71.2539 179.236V179.219C71.2539 177.101 72.1768 175.861 73.8203 175.861C75.4551 175.861 76.3867 177.101 76.3867 179.219V179.236C76.3867 181.346 75.4551 182.594 73.8203 182.594ZM82.6797 180.062H84.499V179.526C84.499 178.621 84.8242 178.155 85.958 177.487C87.1182 176.793 87.8037 175.835 87.8037 174.481V174.464C87.8037 172.592 86.2393 171.212 83.9189 171.212C81.3701 171.212 80.0078 172.724 79.9287 174.71V174.728L81.7393 174.719H81.7568C81.8271 173.559 82.6094 172.829 83.8223 172.829C85.0264 172.829 85.8086 173.559 85.8086 174.543V174.561C85.8086 175.457 85.4307 175.967 84.3672 176.608C83.1631 177.329 82.627 178.12 82.6709 179.359L82.6797 180.062ZM83.6992 184.193C84.5078 184.193 85.0527 183.666 85.0527 182.884C85.0527 182.093 84.5078 181.565 83.6992 181.565C82.8906 181.565 82.3369 182.093 82.3369 182.884C82.3369 183.666 82.8906 184.193 83.6992 184.193Z" fill="#2A6049"/>
<line y1="225.5" x2="344" y2="225.5" stroke="#2A6049"/>
<path d="M1.85645 277H6.43555C10.2148 277 12.4033 274.662 12.4033 270.637V270.619C12.4033 266.638 10.1973 264.317 6.43555 264.317H1.85645V277ZM3.8252 275.304V266.014H6.21582C8.84375 266.014 10.3994 267.728 10.3994 270.646V270.663C10.3994 273.607 8.87012 275.304 6.21582 275.304H3.8252ZM17.4395 277.158C18.7051 277.158 19.707 276.613 20.2695 275.646H20.4189V277H22.3086V270.47C22.3086 268.466 20.9551 267.271 18.5557 267.271C16.3848 267.271 14.8818 268.316 14.6533 269.881L14.6445 269.942H16.4814L16.4902 269.907C16.7188 269.23 17.4131 268.844 18.4678 268.844C19.7598 268.844 20.4189 269.424 20.4189 270.47V271.313L17.835 271.463C15.5586 271.604 14.2754 272.597 14.2754 274.302V274.319C14.2754 276.051 15.6201 277.158 17.4395 277.158ZM16.1738 274.24V274.223C16.1738 273.361 16.7715 272.887 18.0898 272.808L20.4189 272.658V273.476C20.4189 274.706 19.373 275.638 17.9492 275.638C16.9209 275.638 16.1738 275.119 16.1738 274.24ZM28.6016 277.062C28.9707 277.062 29.3223 277.018 29.6299 276.965V275.444C29.3662 275.471 29.1992 275.479 28.9092 275.479C27.9688 275.479 27.582 275.058 27.582 274.029V268.958H29.6299V267.455H27.582V265.047H25.6396V267.455H24.1455V268.958H25.6396V274.486C25.6396 276.323 26.501 277.062 28.6016 277.062ZM35.7559 277.185C38.1992 277.185 39.5176 275.778 39.834 274.521L39.8516 274.442L38.0146 274.451L37.9795 274.521C37.751 275.014 37.0215 275.62 35.7998 275.62C34.2266 275.62 33.2246 274.557 33.1895 272.729H39.957V272.061C39.957 269.195 38.3223 267.271 35.6592 267.271C32.9961 267.271 31.2734 269.266 31.2734 272.245V272.254C31.2734 275.277 32.9609 277.185 35.7559 277.185ZM35.668 268.835C36.96 268.835 37.918 269.661 38.0674 271.366H33.2158C33.3828 269.723 34.3672 268.835 35.668 268.835ZM45.6963 277.185C47.9639 277.185 49.6514 275.98 49.6514 274.214V274.196C49.6514 272.816 48.7725 272.034 46.9355 271.604L45.4238 271.261C44.3516 271.006 43.9121 270.637 43.9121 270.039V270.021C43.9121 269.257 44.668 268.738 45.7139 268.738C46.7861 268.738 47.4629 269.239 47.6475 269.907V269.925H49.4668V269.916C49.2998 268.36 47.9023 267.271 45.7227 267.271C43.5605 267.271 42.0137 268.466 42.0137 270.127V270.136C42.0137 271.533 42.8486 272.351 44.6504 272.764L46.1709 273.115C47.2783 273.37 47.7266 273.774 47.7266 274.372V274.39C47.7266 275.172 46.9092 275.708 45.7314 275.708C44.5977 275.708 43.9033 275.225 43.666 274.504L43.6572 274.495H41.75V274.504C41.9346 276.104 43.3936 277.185 45.6963 277.185ZM51.5938 280.296H52.9385L54.3975 275.137H52.3672L51.5938 280.296ZM62.5273 280.182H64.4346V275.488H64.5752C65.085 276.517 66.2012 277.158 67.5107 277.158C69.9365 277.158 71.4658 275.26 71.4658 272.236V272.219C71.4658 269.213 69.9189 267.288 67.5107 267.288C66.1748 267.288 65.1289 267.912 64.5752 268.958H64.4346V267.455H62.5273V280.182ZM66.9746 275.532C65.3838 275.532 64.3994 274.275 64.3994 272.236V272.219C64.3994 270.18 65.3838 268.923 66.9746 268.923C68.5654 268.923 69.5234 270.162 69.5234 272.219V272.236C69.5234 274.284 68.5654 275.532 66.9746 275.532ZM73.8477 277H75.7549V263.711H73.8477V277ZM82.6016 277.185C85.0449 277.185 86.3633 275.778 86.6797 274.521L86.6973 274.442L84.8604 274.451L84.8252 274.521C84.5967 275.014 83.8672 275.62 82.6455 275.62C81.0723 275.62 80.0703 274.557 80.0352 272.729H86.8027V272.061C86.8027 269.195 85.168 267.271 82.5049 267.271C79.8418 267.271 78.1191 269.266 78.1191 272.245V272.254C78.1191 275.277 79.8066 277.185 82.6016 277.185ZM82.5137 268.835C83.8057 268.835 84.7637 269.661 84.9131 271.366H80.0615C80.2285 269.723 81.2129 268.835 82.5137 268.835ZM91.6895 277.158C92.9551 277.158 93.957 276.613 94.5195 275.646H94.6689V277H96.5586V270.47C96.5586 268.466 95.2051 267.271 92.8057 267.271C90.6348 267.271 89.1318 268.316 88.9033 269.881L88.8945 269.942H90.7314L90.7402 269.907C90.9688 269.23 91.6631 268.844 92.7178 268.844C94.0098 268.844 94.6689 269.424 94.6689 270.47V271.313L92.085 271.463C89.8086 271.604 88.5254 272.597 88.5254 274.302V274.319C88.5254 276.051 89.8701 277.158 91.6895 277.158ZM90.4238 274.24V274.223C90.4238 273.361 91.0215 272.887 92.3398 272.808L94.6689 272.658V273.476C94.6689 274.706 93.623 275.638 92.1992 275.638C91.1709 275.638 90.4238 275.119 90.4238 274.24ZM102.72 277.185C104.987 277.185 106.675 275.98 106.675 274.214V274.196C106.675 272.816 105.796 272.034 103.959 271.604L102.447 271.261C101.375 271.006 100.936 270.637 100.936 270.039V270.021C100.936 269.257 101.691 268.738 102.737 268.738C103.81 268.738 104.486 269.239 104.671 269.907V269.925H106.49V269.916C106.323 268.36 104.926 267.271 102.746 267.271C100.584 267.271 99.0371 268.466 99.0371 270.127V270.136C99.0371 271.533 99.8721 272.351 101.674 272.764L103.194 273.115C104.302 273.37 104.75 273.774 104.75 274.372V274.39C104.75 275.172 103.933 275.708 102.755 275.708C101.621 275.708 100.927 275.225 100.689 274.504L100.681 274.495H98.7734V274.504C98.958 276.104 100.417 277.185 102.72 277.185ZM112.959 277.185C115.402 277.185 116.721 275.778 117.037 274.521L117.055 274.442L115.218 274.451L115.183 274.521C114.954 275.014 114.225 275.62 113.003 275.62C111.43 275.62 110.428 274.557 110.393 272.729H117.16V272.061C117.16 269.195 115.525 267.271 112.862 267.271C110.199 267.271 108.477 269.266 108.477 272.245V272.254C108.477 275.277 110.164 277.185 112.959 277.185ZM112.871 268.835C114.163 268.835 115.121 269.661 115.271 271.366H110.419C110.586 269.723 111.57 268.835 112.871 268.835ZM120.896 277.132C121.625 277.132 122.179 276.569 122.179 275.857C122.179 275.137 121.625 274.574 120.896 274.574C120.166 274.574 119.604 275.137 119.604 275.857C119.604 276.569 120.166 277.132 120.896 277.132Z" fill="#2A6049"/>
<line x1="163" y1="305.5" x2="171" y2="305.5" stroke="#2A6049"/>
<defs>
<filter id="filter0_i" x="125.406" y="5.25781" width="93.6914" height="25.8438" filterUnits="userSpaceOnUse" color-interpolation-filters="sRGB">
<feFlood flood-opacity="0" result="BackgroundImageFix"/>
<feBlend mode="normal" in="SourceGraphic" in2="BackgroundImageFix" result="shape"/>
<feColorMatrix in="SourceAlpha" type="matrix" values="0 0 0 0 0 0 0 0 0 0 0 0 0 0 0 0 0 0 127 0" result="hardAlpha"/>
<feOffset dy="4"/>
<feGaussianBlur stdDeviation="2"/>
<feComposite in2="hardAlpha" operator="arithmetic" k2="-1" k3="1"/>
<feColorMatrix type="matrix" values="0 0 0 0 0 0 0 0 0 0 0 0 0 0 0 0 0 0 0.25 0"/>
<feBlend mode="normal" in2="shape" result="effect1_innerShadow"/>
</filter>
</defs>
</svg>
