<svg width="133" height="34" viewBox="0 0 133 34" fill="none" xmlns="http://www.w3.org/2000/svg">
<rect x="1" y="1" width="131" height="32" rx="12" fill="#2A6049" stroke="#2A6049"/>
<rect x="2" y="2" width="129" height="30" rx="12" stroke="white"/>
<path d="M25.6006 24.4609H26.79V20.8379H26.8994C27.3027 21.624 28.1846 22.1299 29.1963 22.1299C31.0693 22.1299 32.2861 20.6328 32.2861 18.3223V18.3086C32.2861 16.0117 31.0625 14.501 29.1963 14.501C28.1709 14.501 27.3506 14.9863 26.8994 15.8066H26.79V14.6309H25.6006V24.4609ZM28.9229 21.0771C27.583 21.0771 26.7627 20.0244 26.7627 18.3223V18.3086C26.7627 16.6064 27.583 15.5537 28.9229 15.5537C30.2695 15.5537 31.0693 16.5928 31.0693 18.3086V18.3223C31.0693 20.0381 30.2695 21.0771 28.9229 21.0771ZM34.2139 22H35.4033V17.6387C35.4033 16.3467 36.1484 15.5537 37.3242 15.5537C38.5 15.5537 39.0469 16.1895 39.0469 17.5156V22H40.2363V17.2285C40.2363 15.4785 39.3135 14.501 37.6592 14.501C36.5723 14.501 35.8818 14.959 35.5127 15.7383H35.4033V11.7051H34.2139V22ZM45.418 22.1299C47.5166 22.1299 48.8154 20.6807 48.8154 18.3223V18.3086C48.8154 15.9434 47.5166 14.501 45.418 14.501C43.3193 14.501 42.0205 15.9434 42.0205 18.3086V18.3223C42.0205 20.6807 43.3193 22.1299 45.418 22.1299ZM45.418 21.0771C44.0234 21.0771 43.2373 20.0586 43.2373 18.3223V18.3086C43.2373 16.5654 44.0234 15.5537 45.418 15.5537C46.8125 15.5537 47.5986 16.5654 47.5986 18.3086V18.3223C47.5986 20.0586 46.8125 21.0771 45.418 21.0771ZM53.2793 22.0547C53.5117 22.0547 53.7373 22.0273 53.9697 21.9863V20.9746C53.751 20.9951 53.6348 21.002 53.4229 21.002C52.6572 21.002 52.3564 20.6533 52.3564 19.7852V15.6152H53.9697V14.6309H52.3564V12.7236H51.126V14.6309H49.9639V15.6152H51.126V20.0859C51.126 21.4941 51.7617 22.0547 53.2793 22.0547ZM58.666 22.1299C60.7646 22.1299 62.0635 20.6807 62.0635 18.3223V18.3086C62.0635 15.9434 60.7646 14.501 58.666 14.501C56.5674 14.501 55.2686 15.9434 55.2686 18.3086V18.3223C55.2686 20.6807 56.5674 22.1299 58.666 22.1299ZM58.666 21.0771C57.2715 21.0771 56.4854 20.0586 56.4854 18.3223V18.3086C56.4854 16.5654 57.2715 15.5537 58.666 15.5537C60.0605 15.5537 60.8467 16.5654 60.8467 18.3086V18.3223C60.8467 20.0586 60.0605 21.0771 58.666 21.0771ZM66.9443 24.5977C68.9541 24.5977 70.2256 23.5449 70.2256 21.8975V14.6309H69.0361V15.8477H68.9541C68.5029 15.0137 67.6963 14.501 66.6572 14.501C64.7295 14.501 63.54 15.998 63.54 18.0625V18.0762C63.54 20.1406 64.7227 21.6172 66.6299 21.6172C67.6416 21.6172 68.4756 21.1592 68.9404 20.3457H69.0498V21.8359C69.0498 22.9229 68.2637 23.5449 66.9443 23.5449C65.8848 23.5449 65.2285 23.1484 65.0986 22.5879L65.0918 22.5811H63.8613L63.8477 22.5879C64.0322 23.7979 65.167 24.5977 66.9443 24.5977ZM66.8896 20.5645C65.5225 20.5645 64.7568 19.5391 64.7568 18.0762V18.0625C64.7568 16.5996 65.5225 15.5537 66.8896 15.5537C68.25 15.5537 69.0771 16.5996 69.0771 18.0625V18.0762C69.0771 19.5391 68.2568 20.5645 66.8896 20.5645ZM72.4404 22H73.6299V17.4336C73.6299 16.3535 74.4365 15.6357 75.5713 15.6357C75.8311 15.6357 76.0566 15.6631 76.3027 15.7041V14.5488C76.1865 14.5283 75.9336 14.501 75.708 14.501C74.71 14.501 74.0195 14.9521 73.7393 15.7246H73.6299V14.6309H72.4404V22ZM79.7959 22.1299C80.7871 22.1299 81.5596 21.6992 82.0244 20.9131H82.1338V22H83.3232V16.9551C83.3232 15.4238 82.3184 14.501 80.5205 14.501C78.9482 14.501 77.8271 15.2803 77.6357 16.4355L77.6289 16.4766H78.8184L78.8252 16.4561C79.0166 15.8818 79.5977 15.5537 80.4795 15.5537C81.5801 15.5537 82.1338 16.0459 82.1338 16.9551V17.625L80.0215 17.7549C78.3057 17.8574 77.335 18.6162 77.335 19.9287V19.9424C77.335 21.2822 78.3945 22.1299 79.7959 22.1299ZM78.5518 19.915V19.9014C78.5518 19.1699 79.0439 18.7734 80.165 18.7051L82.1338 18.582V19.252C82.1338 20.3047 81.252 21.0977 80.042 21.0977C79.1875 21.0977 78.5518 20.6602 78.5518 19.915ZM85.4971 24.4609H86.6865V20.8379H86.7959C87.1992 21.624 88.0811 22.1299 89.0928 22.1299C90.9658 22.1299 92.1826 20.6328 92.1826 18.3223V18.3086C92.1826 16.0117 90.959 14.501 89.0928 14.501C88.0674 14.501 87.2471 14.9863 86.7959 15.8066H86.6865V14.6309H85.4971V24.4609ZM88.8193 21.0771C87.4795 21.0771 86.6592 20.0244 86.6592 18.3223V18.3086C86.6592 16.6064 87.4795 15.5537 88.8193 15.5537C90.166 15.5537 90.9658 16.5928 90.9658 18.3086V18.3223C90.9658 20.0381 90.166 21.0771 88.8193 21.0771ZM94.1104 22H95.2998V17.6387C95.2998 16.3467 96.0449 15.5537 97.2207 15.5537C98.3965 15.5537 98.9434 16.1895 98.9434 17.5156V22H100.133V17.2285C100.133 15.4785 99.21 14.501 97.5557 14.501C96.4688 14.501 95.7783 14.959 95.4092 15.7383H95.2998V11.7051H94.1104V22ZM102.642 24.584C103.947 24.584 104.556 24.1055 105.164 22.4512L108.042 14.6309H106.791L104.774 20.6943H104.665L102.642 14.6309H101.37L104.098 22.0068L103.961 22.4443C103.694 23.292 103.284 23.5996 102.607 23.5996C102.443 23.5996 102.259 23.5928 102.115 23.5654V24.543C102.279 24.5703 102.484 24.584 102.642 24.584Z" fill="white"/>
</svg>
