<svg width="114" height="40" viewBox="0 0 114 40" fill="none" xmlns="http://www.w3.org/2000/svg">
<g filter="url(#filter0_i)">
<rect width="114" height="40" rx="12" fill="#2A6049"/>
</g>
<path d="M58.8672 26H60.8828V22.2734H63.3672C65.6562 22.2734 67.2031 20.7578 67.2031 18.5078V18.4922C67.2031 16.2344 65.6562 14.7266 63.3672 14.7266H58.8672V26ZM62.875 16.375C64.3203 16.375 65.1641 17.1484 65.1641 18.5V18.5156C65.1641 19.8672 64.3203 20.6484 62.875 20.6484H60.8828V16.375H62.875ZM69.3047 26H71.25V14.1562H69.3047V26ZM76.0391 26.1406C77.1641 26.1406 78.0703 25.6562 78.5391 24.8281H78.6719V26H80.5938V20.1641C80.5938 18.3594 79.3594 17.2969 77.1641 17.2969C75.1328 17.2969 73.7578 18.25 73.5703 19.6875L73.5625 19.7578H75.3984L75.4062 19.7266C75.6016 19.1641 76.1797 18.8438 77.0703 18.8438C78.1172 18.8438 78.6719 19.3125 78.6719 20.1641V20.8984L76.4766 21.0312C74.3984 21.1562 73.2344 22.0469 73.2344 23.5703V23.5859C73.2344 25.1406 74.4141 26.1406 76.0391 26.1406ZM75.1562 23.4922V23.4766C75.1562 22.7734 75.6641 22.375 76.75 22.3047L78.6719 22.1797V22.8672C78.6719 23.8828 77.8047 24.6484 76.6328 24.6484C75.7734 24.6484 75.1562 24.2188 75.1562 23.4922ZM82.9297 26H84.875V21.0234C84.875 19.7422 85.5938 18.9297 86.75 18.9297C87.9297 18.9297 88.4688 19.6016 88.4688 20.9297V26H90.4141V20.4766C90.4141 18.4453 89.375 17.2969 87.4688 17.2969C86.2344 17.2969 85.4141 17.8516 85.0078 18.7656H84.875V17.4609H82.9297V26Z" fill="white"/>
<path d="M41.0914 17.1H38.5242L33.4905 8H29.2621L31.9804 17.1H25.9902L23.4733 13.7H20L21.5605 20L20 26.3H23.4733L25.9902 22.9H31.9804L29.2621 32H33.4905L38.5746 22.9H41.1418C42.8533 22.9 44.2124 21.6 44.2124 20C44.162 18.4 42.7526 17.1 41.0914 17.1Z" stroke="white" stroke-miterlimit="10" stroke-linecap="round" stroke-linejoin="round"/>
<defs>
<filter id="filter0_i" x="0" y="0" width="114" height="44" filterUnits="userSpaceOnUse" color-interpolation-filters="sRGB">
<feFlood flood-opacity="0" result="BackgroundImageFix"/>
<feBlend mode="normal" in="SourceGraphic" in2="BackgroundImageFix" result="shape"/>
<feColorMatrix in="SourceAlpha" type="matrix" values="0 0 0 0 0 0 0 0 0 0 0 0 0 0 0 0 0 0 127 0" result="hardAlpha"/>
<feOffset dy="4"/>
<feGaussianBlur stdDeviation="2"/>
<feComposite in2="hardAlpha" operator="arithmetic" k2="-1" k3="1"/>
<feColorMatrix type="matrix" values="0 0 0 0 0 0 0 0 0 0 0 0 0 0 0 0 0 0 0.25 0"/>
<feBlend mode="normal" in2="shape" result="effect1_innerShadow"/>
</filter>
</defs>
</svg>
