<svg width="125" height="36" viewBox="0 0 125 36" fill="none" xmlns="http://www.w3.org/2000/svg">
<rect width="125" height="36" rx="18" fill="#2A6049"/>
<path d="M40.4219 24.2812C43.125 24.2812 44.8203 22.9062 44.8203 20.7109V20.7031C44.8203 19 43.8281 18.0469 41.4531 17.5469L40.2422 17.2891C38.8359 16.9922 38.2656 16.4922 38.2656 15.6953V15.6875C38.2656 14.7266 39.1562 14.1406 40.4062 14.1406C41.6953 14.1328 42.5312 14.7578 42.6719 15.6328L42.6875 15.7266H44.6172L44.6094 15.625C44.4688 13.8125 42.9141 12.4453 40.4141 12.4453C37.9766 12.4453 36.2422 13.8047 36.2422 15.8203V15.8281C36.2422 17.5078 37.2422 18.5859 39.5469 19.0703L40.7578 19.3203C42.2109 19.6328 42.7969 20.125 42.7969 20.9375V20.9453C42.7969 21.9141 41.8438 22.5859 40.4844 22.5859C39.0547 22.5859 38.0469 21.9609 37.9531 21.0156L37.9453 20.9375H35.9922L36 21.0469C36.1406 22.9922 37.8047 24.2812 40.4219 24.2812ZM50.5391 24.1719C52.8594 24.1719 54 22.8359 54.2734 21.7344L54.2969 21.6641H52.4453L52.4219 21.7188C52.2344 22.1094 51.6328 22.6406 50.5781 22.6406C49.2578 22.6406 48.4297 21.75 48.4062 20.2188H54.375V19.5781C54.375 17 52.875 15.2969 50.4453 15.2969C48.0156 15.2969 46.4609 17.0547 46.4609 19.7422V19.75C46.4609 22.4688 48 24.1719 50.5391 24.1719ZM50.4688 16.8203C51.5547 16.8203 52.3438 17.5156 52.4766 18.9141H48.4219C48.5703 17.5547 49.3828 16.8203 50.4688 16.8203ZM58.6484 24.1406C59.7734 24.1406 60.6797 23.6562 61.1484 22.8281H61.2812V24H63.2031V18.1641C63.2031 16.3594 61.9688 15.2969 59.7734 15.2969C57.7422 15.2969 56.3672 16.25 56.1797 17.6875L56.1719 17.7578H58.0078L58.0156 17.7266C58.2109 17.1641 58.7891 16.8438 59.6797 16.8438C60.7266 16.8438 61.2812 17.3125 61.2812 18.1641V18.8984L59.0859 19.0312C57.0078 19.1562 55.8438 20.0469 55.8438 21.5703V21.5859C55.8438 23.1406 57.0234 24.1406 58.6484 24.1406ZM57.7656 21.4922V21.4766C57.7656 20.7734 58.2734 20.375 59.3594 20.3047L61.2812 20.1797V20.8672C61.2812 21.8828 60.4141 22.6484 59.2422 22.6484C58.3828 22.6484 57.7656 22.2188 57.7656 21.4922ZM65.5391 24H67.4844V19.0391C67.4844 17.8203 68.3359 17.0469 69.6328 17.0469C69.9688 17.0469 70.2891 17.0938 70.6016 17.1562V15.4141C70.4141 15.3594 70.1094 15.3203 69.8125 15.3203C68.6875 15.3203 67.9062 15.8594 67.6172 16.7734H67.4844V15.4609H65.5391V24ZM75.6406 24.1719C77.8047 24.1719 79.0625 23.0078 79.3438 21.2578L79.3594 21.1953L77.5234 21.2031L77.5078 21.2344C77.2656 22.1328 76.6484 22.5938 75.6406 22.5938C74.3203 22.5938 73.5312 21.5312 73.5312 19.7188V19.7031C73.5312 17.9141 74.3125 16.8672 75.6406 16.8672C76.7031 16.8672 77.3359 17.4609 77.5156 18.2891L77.5234 18.3125H79.3594V18.2812C79.1406 16.5156 77.8281 15.2969 75.6328 15.2969C73.0625 15.2969 71.5547 16.9453 71.5547 19.7031V19.7188C71.5547 22.5078 73.0703 24.1719 75.6406 24.1719ZM81.2891 24H83.2344V19.0234C83.2344 17.7422 83.9531 16.9297 85.1094 16.9297C86.2891 16.9297 86.8281 17.6016 86.8281 18.9297V24H88.7734V18.4766C88.7734 16.4453 87.7344 15.2969 85.8281 15.2969C84.5938 15.2969 83.7734 15.8516 83.3672 16.7656H83.2344V12.1562H81.2891V24Z" fill="white"/>
</svg>
