<svg width="328" height="45" viewBox="0 0 328 45" fill="none" xmlns="http://www.w3.org/2000/svg">
<rect width="328" height="45" rx="22.5" fill="#BDCAC2" fill-opacity="0.5"/>
<path d="M134.687 29.2197C137.886 29.2197 139.802 27.6729 139.802 25.2383V25.2295C139.802 23.2344 138.606 22.1533 135.952 21.626L134.607 21.3535C133.148 21.0635 132.498 20.5977 132.498 19.7979V19.7891C132.498 18.8838 133.315 18.2598 134.678 18.251C135.987 18.251 136.901 18.8574 137.033 19.8506L137.042 19.9561H139.547L139.538 19.7891C139.415 17.5654 137.613 16.0977 134.678 16.0977C131.865 16.0977 129.844 17.627 129.844 19.9473V19.9561C129.844 21.8633 131.109 23.0586 133.614 23.5596L134.95 23.8232C136.523 24.1484 137.147 24.5791 137.147 25.4404V25.4492C137.147 26.416 136.225 27.0576 134.757 27.0576C133.307 27.0576 132.261 26.4424 132.094 25.458L132.076 25.3613H129.571L129.58 25.502C129.729 27.8398 131.672 29.2197 134.687 29.2197ZM142.544 18.3652C143.317 18.3652 143.915 17.7588 143.915 17.0293C143.915 16.2998 143.317 15.6934 142.544 15.6934C141.771 15.6934 141.173 16.2998 141.173 17.0293C141.173 17.7588 141.771 18.3652 142.544 18.3652ZM141.261 29H143.827V19.5781H141.261V29ZM149.953 32.2695C152.783 32.2695 154.55 30.8369 154.55 28.7363V19.5781H151.983V21.1865H151.931C151.421 20.0879 150.393 19.3848 149.065 19.3848C146.684 19.3848 145.207 21.1689 145.207 24.1748V24.1836C145.207 27.1104 146.666 28.8682 149.021 28.8682C150.384 28.8682 151.438 28.2441 151.931 27.2598H151.983V28.7012C151.983 29.7559 151.28 30.4414 149.953 30.4414C148.881 30.4414 148.195 30.0371 147.993 29.5713L147.967 29.5098H145.471L145.479 29.5889C145.726 31.1006 147.36 32.2695 149.953 32.2695ZM149.909 26.9873C148.626 26.9873 147.817 25.9414 147.817 24.2451V24.2363C147.817 22.5488 148.635 21.5117 149.909 21.5117C151.157 21.5117 151.992 22.5576 151.992 24.2363V24.2451C151.992 25.9326 151.166 26.9873 149.909 26.9873ZM156.237 29H158.804V23.5859C158.804 22.3555 159.533 21.5117 160.685 21.5117C161.836 21.5117 162.416 22.2148 162.416 23.4453V29H164.982V22.918C164.982 20.7119 163.805 19.3848 161.73 19.3848C160.307 19.3848 159.34 20.0439 158.856 21.125H158.804V19.5781H156.237V29ZM175.714 29.2197C178.983 29.2197 181.022 27.3301 181.022 24.5176V16.3174H178.368V24.2803C178.368 25.9238 177.419 26.9697 175.714 26.9697C174.009 26.9697 173.051 25.9238 173.051 24.2803V16.3174H170.396V24.5176C170.396 27.3389 172.462 29.2197 175.714 29.2197ZM182.921 32.0762H185.487V27.3916H185.54C186.05 28.5078 187.113 29.1934 188.458 29.1934C190.813 29.1934 192.272 27.3477 192.272 24.2891V24.2803C192.272 21.2129 190.813 19.3848 188.423 19.3848C187.087 19.3848 186.059 20.0791 185.549 21.2217H185.487V19.5781H182.921V32.0762ZM187.579 27.0664C186.331 27.0664 185.479 25.9941 185.479 24.2979V24.2891C185.479 22.584 186.331 21.5117 187.579 21.5117C188.854 21.5117 189.662 22.5576 189.662 24.2803V24.2891C189.662 26.0029 188.854 27.0664 187.579 27.0664Z" fill="#2A6049" fill-opacity="0.5"/>
</svg>
