<svg width="216" height="34" viewBox="0 0 216 34" fill="none" xmlns="http://www.w3.org/2000/svg">
<rect width="216" height="34" rx="17" fill="#EC744A"/>
<path d="M50.5391 23.2812C53.2422 23.2812 54.9375 21.9062 54.9375 19.7109V19.7031C54.9375 18 53.9453 17.0469 51.5703 16.5469L50.3594 16.2891C48.9531 15.9922 48.3828 15.4922 48.3828 14.6953V14.6875C48.3828 13.7266 49.2734 13.1406 50.5234 13.1406C51.8125 13.1328 52.6484 13.7578 52.7891 14.6328L52.8047 14.7266H54.7344L54.7266 14.625C54.5859 12.8125 53.0312 11.4453 50.5312 11.4453C48.0938 11.4453 46.3594 12.8047 46.3594 14.8203V14.8281C46.3594 16.5078 47.3594 17.5859 49.6641 18.0703L50.875 18.3203C52.3281 18.6328 52.9141 19.125 52.9141 19.9375V19.9453C52.9141 20.9141 51.9609 21.5859 50.6016 21.5859C49.1719 21.5859 48.1641 20.9609 48.0703 20.0156L48.0625 19.9375H46.1094L46.1172 20.0469C46.2578 21.9922 47.9219 23.2812 50.5391 23.2812ZM59.8281 23.1719C61.0625 23.1719 61.9297 22.6172 62.3281 21.7031H62.4609V23H64.4062V14.4609H62.4609V19.4375C62.4609 20.7188 61.7891 21.5312 60.5312 21.5312C59.3594 21.5312 58.8672 20.8594 58.8672 19.5391V14.4609H56.9219V19.9844C56.9219 22.0156 57.9062 23.1719 59.8281 23.1719ZM71.5312 23.1406C73.6719 23.1406 75.0391 21.4453 75.0391 18.7422V18.7266C75.0391 16.0078 73.6953 14.3203 71.5312 14.3203C70.3594 14.3203 69.3828 14.8984 68.9375 15.8203H68.8047V11.1562H66.8594V23H68.8047V21.6641H68.9375C69.4062 22.5938 70.3359 23.1406 71.5312 23.1406ZM70.9219 21.5C69.6016 21.5 68.7812 20.4531 68.7812 18.7422V18.7266C68.7812 17.0156 69.6016 15.9609 70.9219 15.9609C72.25 15.9609 73.0547 17.0078 73.0547 18.7266V18.7422C73.0547 20.4609 72.25 21.5 70.9219 21.5ZM76.9844 23H78.9297V17.8047C78.9297 16.7422 79.6328 15.9297 80.5938 15.9297C81.5469 15.9297 82.1328 16.5156 82.1328 17.4609V23H84.0781V17.6641C84.0781 16.6875 84.7344 15.9297 85.75 15.9297C86.7891 15.9297 87.2969 16.4922 87.2969 17.6016V23H89.2422V17.125C89.2422 15.3516 88.2109 14.2969 86.4922 14.2969C85.3047 14.2969 84.3203 14.9062 83.9062 15.8359H83.7734C83.4062 14.8906 82.5625 14.2969 81.4062 14.2969C80.2891 14.2969 79.4297 14.8359 79.0625 15.7891H78.9297V14.4609H76.9844V23ZM92.5469 13.0312C93.1797 13.0312 93.7031 12.5234 93.7031 11.8828C93.7031 11.25 93.1797 10.7344 92.5469 10.7344C91.9062 10.7344 91.3828 11.25 91.3828 11.8828C91.3828 12.5234 91.9062 13.0312 92.5469 13.0312ZM91.5703 23H93.5156V14.4609H91.5703V23ZM99.2656 23.0391C99.6406 23.0391 100 23.0078 100.281 22.9531V21.4531C100.047 21.4766 99.8984 21.4844 99.625 21.4844C98.8125 21.4844 98.4766 21.125 98.4766 20.2734V15.9688H100.281V14.4609H98.4766V12.3672H96.5V14.4609H95.1719V15.9688H96.5V20.7344C96.5 22.3828 97.3047 23.0391 99.2656 23.0391ZM106.688 23H108.703V18.7578H110.938L113.148 23H115.453L112.992 18.4531C114.328 17.9688 115.117 16.7344 115.117 15.2422V15.2266C115.117 13.0781 113.664 11.7266 111.242 11.7266H106.688V23ZM108.703 17.2109V13.3594H110.992C112.273 13.3594 113.047 14.0938 113.047 15.2734V15.2891C113.047 16.5 112.305 17.2109 111.031 17.2109H108.703ZM120.75 23.1719C123.07 23.1719 124.211 21.8359 124.484 20.7344L124.508 20.6641H122.656L122.633 20.7188C122.445 21.1094 121.844 21.6406 120.789 21.6406C119.469 21.6406 118.641 20.75 118.617 19.2188H124.586V18.5781C124.586 16 123.086 14.2969 120.656 14.2969C118.227 14.2969 116.672 16.0547 116.672 18.7422V18.75C116.672 21.4688 118.211 23.1719 120.75 23.1719ZM120.68 15.8203C121.766 15.8203 122.555 16.5156 122.688 17.9141H118.633C118.781 16.5547 119.594 15.8203 120.68 15.8203ZM132.359 25.8359H134.305V14.4609H132.359V15.875H132.258C131.766 14.9062 130.797 14.3203 129.641 14.3203C127.453 14.3203 126.117 16.0078 126.117 18.7266V18.7422C126.117 21.4453 127.469 23.1406 129.617 23.1406C130.836 23.1406 131.789 22.6094 132.227 21.7031H132.359V25.8359ZM130.242 21.5C128.906 21.5 128.094 20.4609 128.094 18.7422V18.7266C128.094 17.0078 128.906 15.9609 130.234 15.9609C131.547 15.9609 132.391 17.0234 132.391 18.7266V18.7422C132.391 20.4453 131.555 21.5 130.242 21.5ZM139.5 23.1719C140.734 23.1719 141.602 22.6172 142 21.7031H142.133V23H144.078V14.4609H142.133V19.4375C142.133 20.7188 141.461 21.5312 140.203 21.5312C139.031 21.5312 138.539 20.8594 138.539 19.5391V14.4609H136.594V19.9844C136.594 22.0156 137.578 23.1719 139.5 23.1719ZM150.109 23.1719C152.43 23.1719 153.57 21.8359 153.844 20.7344L153.867 20.6641H152.016L151.992 20.7188C151.805 21.1094 151.203 21.6406 150.148 21.6406C148.828 21.6406 148 20.75 147.977 19.2188H153.945V18.5781C153.945 16 152.445 14.2969 150.016 14.2969C147.586 14.2969 146.031 16.0547 146.031 18.7422V18.75C146.031 21.4688 147.57 23.1719 150.109 23.1719ZM150.039 15.8203C151.125 15.8203 151.914 16.5156 152.047 17.9141H147.992C148.141 16.5547 148.953 15.8203 150.039 15.8203ZM159.117 23.1719C161.219 23.1719 162.742 22.0859 162.742 20.4609V20.4453C162.742 19.2031 161.953 18.4922 160.281 18.1172L158.898 17.8125C157.977 17.6016 157.617 17.2969 157.617 16.7969V16.7891C157.617 16.1484 158.242 15.7266 159.109 15.7266C160.023 15.7266 160.586 16.1641 160.727 16.7031L160.734 16.7266H162.562V16.7109C162.438 15.3281 161.195 14.2969 159.117 14.2969C157.102 14.2969 155.695 15.3594 155.695 16.8984V16.9062C155.695 18.1641 156.469 18.9297 158.094 19.2891L159.477 19.6016C160.414 19.8125 160.789 20.1406 160.789 20.6406V20.6562C160.789 21.2969 160.117 21.7344 159.148 21.7344C158.18 21.7344 157.609 21.3203 157.406 20.7266L157.398 20.7109H155.469V20.7266C155.633 22.1719 156.945 23.1719 159.117 23.1719ZM168 23.0391C168.375 23.0391 168.734 23.0078 169.016 22.9531V21.4531C168.781 21.4766 168.633 21.4844 168.359 21.4844C167.547 21.4844 167.211 21.125 167.211 20.2734V15.9688H169.016V14.4609H167.211V12.3672H165.234V14.4609H163.906V15.9688H165.234V20.7344C165.234 22.3828 166.039 23.0391 168 23.0391Z" fill="white"/>
</svg>
