<svg width="344" height="199" viewBox="0 0 344 199" fill="none" xmlns="http://www.w3.org/2000/svg">
<path d="M240.807 21.8521H271.577C273.257 21.8521 274.868 22.519 276.056 23.7062C277.243 24.8934 277.91 26.5035 277.91 28.1824V87.8002C277.91 89.1289 277.382 90.4032 276.442 91.3427C275.503 92.2822 274.228 92.8101 272.898 92.8101H239.485C238.156 92.8101 236.881 92.2822 235.941 91.3427C235.001 90.4032 234.473 89.1289 234.473 87.8002V28.1824C234.473 27.351 234.637 26.5278 234.956 25.7597C235.274 24.9916 235.74 24.2937 236.329 23.7059C236.917 23.118 237.615 22.6518 238.384 22.3337C239.152 22.0156 239.976 21.8519 240.807 21.8521Z" fill="#BDCAC2"/>
<path d="M322.635 21.8521H291.991C288.458 21.8521 285.594 24.7147 285.594 28.246V86.4162C285.594 89.9474 288.458 92.8101 291.991 92.8101H322.635C326.167 92.8101 329.031 89.9474 329.031 86.4162V28.246C329.031 24.7147 326.167 21.8521 322.635 21.8521Z" fill="#BDCAC2"/>
<path d="M255.927 43.9856L265.303 31.3689" stroke="white" stroke-width="0.3" stroke-linecap="round" stroke-linejoin="round"/>
<path d="M234.213 73.203L249.96 52.0146" stroke="white" stroke-width="0.3" stroke-linecap="round" stroke-linejoin="round"/>
<path d="M230.706 195.695V28.0944C230.707 25.3104 231.814 22.6407 233.784 20.6721C235.753 18.7035 238.424 17.5971 241.209 17.5959H322.297C325.083 17.5959 327.756 18.7025 329.726 20.6721C331.697 22.6417 332.804 25.3131 332.804 28.0986V195.695" stroke="#592D29" stroke-width="0.3" stroke-linecap="round" stroke-linejoin="round"/>
<path d="M281.752 17.5959V195.511" stroke="#592D29" stroke-width="0.3" stroke-linecap="round" stroke-linejoin="round"/>
<path d="M314.273 42.731L323.707 30.0381" stroke="white" stroke-width="0.3" stroke-linecap="round" stroke-linejoin="round"/>
<path d="M305.487 62.2085L319.961 42.7312" stroke="white" stroke-width="0.3" stroke-linecap="round" stroke-linejoin="round"/>
<path d="M310.203 48.2077L312.1 45.6558" stroke="white" stroke-width="0.3" stroke-linecap="round" stroke-linejoin="round"/>
<path d="M291.08 73.9408L306.398 53.3293" stroke="white" stroke-width="0.3" stroke-linecap="round" stroke-linejoin="round"/>
<path d="M135.429 21.8521H15.0746C10.2184 21.8521 6.28162 25.7871 6.28162 30.6412V84.0209C6.28162 88.875 10.2184 92.8101 15.0746 92.8101H135.429C140.285 92.8101 144.222 88.875 144.222 84.0209V30.6412C144.222 25.7871 140.285 21.8521 135.429 21.8521Z" fill="#BDCAC2"/>
<path d="M114.948 47.0949L126.253 31.8831" stroke="white" stroke-width="0.3" stroke-linecap="round" stroke-linejoin="round"/>
<path d="M100.131 76.2048L121.765 47.0947" stroke="white" stroke-width="0.3" stroke-linecap="round" stroke-linejoin="round"/>
<path d="M87.1515 84.4978L110.579 52.9736" stroke="white" stroke-width="0.3" stroke-linecap="round" stroke-linejoin="round"/>
<path d="M37.3771 80.1959L49.2969 64.1565" stroke="white" stroke-width="0.3" stroke-linecap="round" stroke-linejoin="round"/>
<path d="M28.167 83.6389L55.4467 46.9321" stroke="white" stroke-width="0.3" stroke-linecap="round" stroke-linejoin="round"/>
<path d="M177.622 98.4297H182.113C186.262 98.4297 190.241 100.077 193.175 103.01C196.109 105.943 197.757 109.92 197.757 114.068V126.89C197.757 127.774 197.406 128.621 196.781 129.246C196.156 129.871 195.308 130.222 194.424 130.222H165.311C164.426 130.222 163.579 129.871 162.953 129.246C162.328 128.621 161.977 127.774 161.977 126.89V114.068C161.977 109.92 163.625 105.943 166.559 103.01C169.493 100.077 173.473 98.4297 177.622 98.4297Z" fill="#BDCAC2"/>
<path d="M126.454 98.4297H130.945C135.094 98.4297 139.074 100.077 142.008 103.01C144.942 105.943 146.59 109.92 146.59 114.068V126.89C146.59 127.774 146.239 128.621 145.614 129.246C144.988 129.871 144.14 130.222 143.256 130.222H114.146C113.262 130.222 112.414 129.871 111.789 129.246C111.164 128.621 110.813 127.774 110.813 126.89V114.068C110.813 109.921 112.461 105.944 115.394 103.011C118.327 100.079 122.306 98.4306 126.454 98.4297Z" fill="#7EBAD2"/>
<path d="M6.70532 143.391H209.876C209.885 142.235 209.664 141.088 209.227 140.018C208.79 138.947 208.145 137.973 207.33 137.153C206.515 136.332 205.545 135.681 204.477 135.237C203.409 134.792 202.263 134.564 201.106 134.564H15.5356C13.1936 134.564 10.9476 135.494 9.2916 137.15C7.63563 138.805 6.70532 141.05 6.70532 143.391Z" fill="#BDCAC2"/>
<path d="M209.886 143.412H7.39343" stroke="#592D29" stroke-width="0.3" stroke-linecap="round" stroke-linejoin="round"/>
<path d="M75.2936 98.4297H79.7846C83.9338 98.4297 87.9131 100.077 90.8471 103.01C93.781 105.943 95.4293 109.92 95.4293 114.068V126.589C95.4293 127.553 95.0464 128.477 94.3648 129.158C93.6833 129.839 92.7589 130.222 91.795 130.222H63.284C62.3201 130.222 61.3957 129.839 60.7141 129.158C60.0326 128.477 59.6497 127.553 59.6497 126.589V114.068C59.6497 109.92 61.2978 105.943 64.2316 103.01C67.1654 100.078 71.1445 98.4299 75.2936 98.4297Z" fill="#BDCAC2"/>
<path d="M23.6447 98H28.1357C30.1906 97.9994 32.2254 98.4035 34.124 99.1891C36.0226 99.9748 37.7478 101.127 39.201 102.579C40.6542 104.031 41.8069 105.755 42.5934 107.653C43.3799 109.55 43.7847 111.584 43.7847 113.638V126.16C43.7847 127.123 43.4018 128.047 42.7202 128.729C42.0387 129.41 41.1143 129.793 40.1504 129.793H11.6343C10.6704 129.793 9.74603 129.41 9.06446 128.729C8.3829 128.047 8 127.123 8 126.16V113.638C8 109.49 9.64828 105.513 12.5822 102.58C15.5162 99.6476 19.4955 98 23.6447 98Z" fill="#BDCAC2"/>
<path d="M196.143 40.0811H157.167V85.0899H196.143V40.0811Z" fill="#EDD5CC"/>
<path d="M160.994 50.99L165.255 56.6343H171.212L180.228 67.7781V75.6873L173.681 80.56" stroke="#F3B304" stroke-width="0.3" stroke-miterlimit="10"/>
<path d="M173.932 81.1894C174.376 81.1894 174.737 80.8291 174.737 80.3847C174.737 79.9403 174.376 79.5801 173.932 79.5801C173.487 79.5801 173.127 79.9403 173.127 80.3847C173.127 80.8291 173.487 81.1894 173.932 81.1894Z" fill="white" stroke="#F3B304" stroke-width="0.3" stroke-miterlimit="10"/>
<path d="M180.259 76.3244C180.703 76.3244 181.064 75.9641 181.064 75.5197C181.064 75.0753 180.703 74.7151 180.259 74.7151C179.814 74.7151 179.454 75.0753 179.454 75.5197C179.454 75.9641 179.814 76.3244 180.259 76.3244Z" fill="white" stroke="#F3B304" stroke-width="0.3" stroke-miterlimit="10"/>
<path d="M180.259 68.9057C180.703 68.9057 181.064 68.5454 181.064 68.101C181.064 67.6566 180.703 67.2964 180.259 67.2964C179.814 67.2964 179.454 67.6566 179.454 68.101C179.454 68.5454 179.814 68.9057 180.259 68.9057Z" fill="white" stroke="#F3B304" stroke-width="0.3" stroke-miterlimit="10"/>
<path d="M171.376 57.594C171.821 57.594 172.181 57.2337 172.181 56.7893C172.181 56.3449 171.821 55.9846 171.376 55.9846C170.931 55.9846 170.571 56.3449 170.571 56.7893C170.571 57.2337 170.931 57.594 171.376 57.594Z" fill="white" stroke="#F3B304" stroke-width="0.3" stroke-miterlimit="10"/>
<path d="M165.293 57.594C165.737 57.594 166.098 57.2337 166.098 56.7893C166.098 56.3449 165.737 55.9846 165.293 55.9846C164.848 55.9846 164.488 56.3449 164.488 56.7893C164.488 57.2337 164.848 57.594 165.293 57.594Z" fill="white" stroke="#F3B304" stroke-width="0.3" stroke-miterlimit="10"/>
<path d="M161.032 51.3908C161.477 51.3908 161.837 51.0305 161.837 50.5861C161.837 50.1417 161.477 49.7815 161.032 49.7815C160.588 49.7815 160.227 50.1417 160.227 50.5861C160.227 51.0305 160.588 51.3908 161.032 51.3908Z" fill="white" stroke="#F3B304" stroke-width="0.3" stroke-miterlimit="10"/>
<path d="M188.787 44.4141L183.749 48.6397V58.2487L177.021 64.27H169.554L164.402 68.4236" stroke="#59221D" stroke-width="0.3" stroke-linecap="round" stroke-linejoin="round"/>
<path d="M164.44 69.2282C164.885 69.2282 165.245 68.8679 165.245 68.4235C165.245 67.9791 164.885 67.6189 164.44 67.6189C163.996 67.6189 163.635 67.9791 163.635 68.4235C163.635 68.8679 163.996 69.2282 164.44 69.2282Z" fill="white" stroke="#59221D" stroke-width="0.3" stroke-linejoin="round"/>
<path d="M169.795 65.0934C170.239 65.0934 170.6 64.7332 170.6 64.2888C170.6 63.8444 170.239 63.4841 169.795 63.4841C169.35 63.4841 168.99 63.8444 168.99 64.2888C168.99 64.7332 169.35 65.0934 169.795 65.0934Z" fill="white" stroke="#59221D" stroke-width="0.3" stroke-linejoin="round"/>
<path d="M177.217 65.0934C177.661 65.0934 178.022 64.7332 178.022 64.2888C178.022 63.8444 177.661 63.4841 177.217 63.4841C176.772 63.4841 176.412 63.8444 176.412 64.2888C176.412 64.7332 176.772 65.0934 177.217 65.0934Z" fill="white" stroke="#59221D" stroke-width="0.3" stroke-linejoin="round"/>
<path d="M183.666 58.89C184.111 58.89 184.471 58.5298 184.471 58.0854C184.471 57.641 184.111 57.2808 183.666 57.2808C183.221 57.2808 182.861 57.641 182.861 58.0854C182.861 58.5298 183.221 58.89 183.666 58.89Z" fill="white" stroke="#59221D" stroke-width="0.3" stroke-linejoin="round"/>
<path d="M183.666 49.6459C184.111 49.6459 184.471 49.2856 184.471 48.8413C184.471 48.3969 184.111 48.0366 183.666 48.0366C183.221 48.0366 182.861 48.3969 182.861 48.8413C182.861 49.2856 183.221 49.6459 183.666 49.6459Z" fill="white" stroke="#59221D" stroke-width="0.3" stroke-linejoin="round"/>
<path d="M188.898 44.903C189.343 44.903 189.703 44.5427 189.703 44.0983C189.703 43.6539 189.343 43.2937 188.898 43.2937C188.454 43.2937 188.093 43.6539 188.093 44.0983C188.093 44.5427 188.454 44.903 188.898 44.903Z" fill="white" stroke="#59221D" stroke-width="0.3" stroke-linejoin="round"/>
<path d="M173.68 45.4661V52.1674L184.987 66.5839H189.755" stroke="white" stroke-width="0.3" stroke-miterlimit="10" stroke-linecap="round"/>
<path d="M173.646 45.5541C174.09 45.5541 174.451 45.1939 174.451 44.7495C174.451 44.3051 174.09 43.9448 173.646 43.9448C173.201 43.9448 172.841 44.3051 172.841 44.7495C172.841 45.1939 173.201 45.5541 173.646 45.5541Z" fill="#F5BBBB" stroke="white" stroke-width="0.3" stroke-miterlimit="10"/>
<path d="M173.646 52.9738C174.09 52.9738 174.451 52.6135 174.451 52.1691C174.451 51.7248 174.09 51.3645 173.646 51.3645C173.201 51.3645 172.841 51.7248 172.841 52.1691C172.841 52.6135 173.201 52.9738 173.646 52.9738Z" fill="#F5BBBB" stroke="white" stroke-width="0.3" stroke-miterlimit="10"/>
<path d="M184.597 67.204C185.042 67.204 185.402 66.8438 185.402 66.3994C185.402 65.955 185.042 65.5947 184.597 65.5947C184.153 65.5947 183.792 65.955 183.792 66.3994C183.792 66.8438 184.153 67.204 184.597 67.204Z" fill="#F5BBBB" stroke="white" stroke-width="0.3" stroke-miterlimit="10"/>
<path d="M190.803 67.204C191.248 67.204 191.608 66.8438 191.608 66.3994C191.608 65.955 191.248 65.5947 190.803 65.5947C190.359 65.5947 189.998 65.955 189.998 66.3994C189.998 66.8438 190.359 67.204 190.803 67.204Z" fill="#F5BBBB" stroke="white" stroke-width="0.3" stroke-miterlimit="10"/>
<path d="M179.817 35.6113H196.143V27.9427H179.817V35.6113Z" fill="#EC744A"/>
<path d="M193.236 30.4075H182.853" stroke="white" stroke-width="0.3" stroke-miterlimit="10" stroke-linecap="round"/>
<path d="M193.236 32.2336H182.892" stroke="white" stroke-width="0.3" stroke-miterlimit="10" stroke-linecap="round"/>
<path d="M189.828 33.6938H186.466" stroke="white" stroke-width="0.3" stroke-miterlimit="10" stroke-linecap="round"/>
<path d="M157.32 35.6113H173.932V22.9836H157.32V35.6113Z" fill="#638073"/>
<path d="M164.861 25.5991H159.479V35.6114H164.861V25.5991Z" fill="#FED4C7"/>
<path d="M162.706 27.1821H170.612" stroke="white" stroke-width="0.3" stroke-miterlimit="10" stroke-linecap="round"/>
<path d="M162.706 28.833H170.612" stroke="white" stroke-width="0.3" stroke-miterlimit="10" stroke-linecap="round"/>
<path d="M169.327 33.6938C170.235 33.6938 170.971 32.9581 170.971 32.0506C170.971 31.1431 170.235 30.4075 169.327 30.4075C168.419 30.4075 167.683 31.1431 167.683 32.0506C167.683 32.9581 168.419 33.6938 169.327 33.6938Z" fill="#EC744A"/>
<path d="M260.19 185.51C260.19 185.51 250.521 195.264 239.507 195.015L209.939 104.98L238.375 103.862L260.19 185.51Z" fill="#59221D"/>
<path d="M255.337 152.732L222.663 184.934C221.657 183.704 214.359 174.431 214.43 162.208L236.647 139.237L224.813 126.735C216.581 117.951 212.757 113.484 209.939 104.981L240.394 96.4133L258.682 128.462C260.879 132.31 261.743 136.776 261.138 141.165C260.533 145.555 258.493 149.621 255.337 152.732Z" fill="#A74602"/>
<path d="M230.177 100.263C230.028 101.377 228.059 114.534 217.958 119.121C217.001 117.97 216.138 116.863 215.352 115.76C225.757 110.22 229.545 99.6233 229.545 99.6233C229.75 99.8435 229.961 100.057 230.177 100.263Z" fill="#59221D"/>
<path d="M236.279 139.237L239.935 135.667" stroke="#59221D" stroke-width="0.3" stroke-linecap="round" stroke-linejoin="round"/>
<path d="M270.097 198.044V198.262H240.828L239.329 193.737C252.617 193.814 259.92 185.365 259.92 185.365L267.844 192.854C269.253 194.217 270.064 196.084 270.097 198.044Z" fill="white" stroke="#592D29" stroke-width="0.3" stroke-linecap="round" stroke-linejoin="round"/>
<path d="M240.302 196.672H269.917" stroke="#592D29" stroke-width="0.3" stroke-linecap="round" stroke-linejoin="round"/>
<path d="M263.745 196.467C263.739 195.477 263.958 194.499 264.387 193.607C264.816 192.715 265.442 191.933 266.219 191.319" stroke="#592D29" stroke-width="0.3" stroke-linecap="round" stroke-linejoin="round"/>
<path d="M258.203 189.651L261.497 186.517C261.642 186.379 261.835 186.303 262.035 186.306C262.236 186.308 262.427 186.389 262.568 186.53V186.53C262.706 186.667 262.786 186.852 262.792 187.046C262.799 187.239 262.732 187.429 262.604 187.575" stroke="#592D29" stroke-width="0.3" stroke-linecap="round" stroke-linejoin="round"/>
<path d="M259.58 190.844L262.873 187.71C263.018 187.572 263.211 187.496 263.411 187.498C263.611 187.501 263.802 187.581 263.944 187.723V187.723C264.082 187.859 264.163 188.044 264.169 188.238C264.176 188.432 264.108 188.622 263.98 188.768" stroke="#592D29" stroke-width="0.3" stroke-linecap="round" stroke-linejoin="round"/>
<path d="M211.58 198.251L209.931 198.262L209.891 166.566L214.433 162.416C214.228 175.697 222.608 184.9 222.608 184.9L213.81 197.306C213.519 197.602 213.172 197.838 212.789 198.001C212.407 198.163 211.996 198.248 211.58 198.251Z" fill="white" stroke="#592D29" stroke-width="0.3" stroke-linecap="round" stroke-linejoin="round"/>
<path d="M211.654 190.521C212.614 190.764 213.506 191.222 214.261 191.861C215.017 192.501 215.617 193.304 216.015 194.21" stroke="#592D29" stroke-width="0.3" stroke-linecap="round" stroke-linejoin="round"/>
<path d="M211.616 164.991V198.251" stroke="#592D29" stroke-width="0.3" stroke-linecap="round" stroke-linejoin="round"/>
<path d="M218.107 184.74L221.078 188.184C221.21 188.335 221.277 188.532 221.264 188.732C221.252 188.932 221.161 189.118 221.012 189.252C220.868 189.382 220.68 189.453 220.486 189.45C220.292 189.447 220.106 189.371 219.966 189.236" stroke="#592D29" stroke-width="0.3" stroke-linecap="round" stroke-linejoin="round"/>
<path d="M216.848 186.056L219.819 189.5C219.95 189.651 220.017 189.847 220.005 190.047C219.993 190.247 219.902 190.434 219.753 190.568V190.568C219.609 190.698 219.421 190.769 219.227 190.766C219.032 190.763 218.846 190.686 218.706 190.552" stroke="#592D29" stroke-width="0.3" stroke-linecap="round" stroke-linejoin="round"/>
<path d="M244.745 70.7622V96.1786C244.745 97.0353 245.086 97.8568 245.692 98.4626C246.298 99.0684 247.12 99.4088 247.977 99.409C248.834 99.409 249.656 99.0687 250.262 98.4628C250.868 97.857 251.209 97.0353 251.209 96.1786V81.8171" stroke="#59221D" stroke-width="0.3" stroke-linecap="round" stroke-linejoin="round"/>
<path d="M256.831 76.5021L254.308 83.1027C251.808 89.5008 245.823 93.712 238.952 93.712L246.102 106.417C246.102 106.417 235.408 105.931 229.545 99.6206C229.545 99.6206 224.461 113.842 209.897 117.949L209.939 104.977V67.2674C209.939 56.4793 218.691 47.7359 229.484 47.741H229.527C232.953 47.7409 236.249 49.0504 238.74 51.401C241.231 53.7516 242.728 56.9655 242.925 60.3839L243.274 66.4441L243.398 68.6234C243.398 68.6234 243.658 77.2017 256.831 76.5021Z" fill="#2A6049"/>
<path d="M212.041 58.4487V117.249C211.92 117.295 211.798 117.34 211.673 117.383V59.2102C211.697 59.1602 211.72 59.1102 211.743 59.0603C211.801 58.9374 211.858 58.8146 211.919 58.6935C211.958 58.6105 211.999 58.53 212.041 58.4487Z" fill="#CEE4ED"/>
<path d="M214.276 54.9954V116.301C214.155 116.359 214.033 116.416 213.909 116.471V55.4663C214.029 55.3087 214.155 55.1521 214.276 54.9954Z" fill="#CEE4ED"/>
<path d="M216.51 52.6602V115.107C216.389 115.18 216.267 115.251 216.143 115.322V52.9939C216.265 52.8778 216.387 52.7694 216.51 52.6602Z" fill="#CEE4ED"/>
<path d="M218.746 50.9478V113.625C218.624 113.709 218.502 113.802 218.379 113.89V51.1951C218.501 51.1115 218.623 51.0291 218.746 50.9478Z" fill="#CEE4ED"/>
<path d="M220.981 49.679V111.815C220.86 111.923 220.738 112.032 220.613 112.138V49.8611C220.721 49.806 220.829 49.7518 220.938 49.7001C220.952 49.6922 220.966 49.6852 220.981 49.679Z" fill="#CEE4ED"/>
<path d="M223.215 48.7651V109.605C223.096 109.737 222.974 109.868 222.848 109.999V48.8973C222.968 48.849 223.092 48.8066 223.215 48.7651Z" fill="#CEE4ED"/>
<path d="M225.45 48.156V106.89C225.33 107.052 225.207 107.215 225.083 107.378V48.2365C225.205 48.2085 225.327 48.1814 225.45 48.156Z" fill="#CEE4ED"/>
<path d="M227.685 47.8215V103.469C227.638 103.553 227.588 103.638 227.538 103.723C227.467 103.842 227.395 103.965 227.32 104.089V47.8588C227.44 47.8452 227.562 47.8325 227.685 47.8215Z" fill="#CEE4ED"/>
<path d="M229.92 47.746V100.012C229.796 99.8883 229.673 99.7578 229.554 99.6325V47.741C229.676 47.741 229.798 47.7427 229.92 47.746Z" fill="#CEE4ED"/>
<path d="M232.155 47.9987V101.881L232.099 101.842C231.995 101.768 231.891 101.693 231.788 101.617V47.9309C231.911 47.9521 232.035 47.975 232.155 47.9987Z" fill="#CEE4ED"/>
<path d="M234.389 48.6498V103.236C234.266 103.172 234.144 103.106 234.022 103.039V48.5134C234.146 48.5583 234.268 48.6024 234.389 48.6498Z" fill="#CEE4ED"/>
<path d="M236.625 49.7696V104.264C236.503 104.215 236.38 104.164 236.258 104.113V49.5486C236.343 49.5977 236.427 49.6485 236.512 49.7002C236.55 49.7231 236.588 49.7442 236.625 49.7696Z" fill="#CEE4ED"/>
<path d="M238.86 51.5177V105.052C238.738 105.014 238.616 104.976 238.493 104.935V51.1738C238.578 51.2484 238.658 51.3237 238.74 51.4008C238.78 51.4381 238.82 51.477 238.86 51.5177Z" fill="#CEE4ED"/>
<path d="M241.095 97.521V105.652C240.973 105.624 240.851 105.594 240.728 105.567V96.8696L240.753 96.9137L240.959 97.2804L241.095 97.521Z" fill="#CEE4ED"/>
<path d="M241.095 54.3519V93.5733C240.973 93.5894 240.851 93.6046 240.728 93.6173V53.7649C240.821 53.9061 240.913 54.05 241.001 54.1969C241.034 54.2477 241.065 54.2993 241.095 54.3519Z" fill="#CEE4ED"/>
<path d="M243.329 67.6858V93.1225C243.208 93.1564 243.085 93.1886 242.962 93.2191V67.6858H243.329Z" fill="#CEE4ED"/>
<path d="M243.329 101.495V106.098C243.209 106.08 243.087 106.059 242.962 106.036V100.843L243.319 101.477L243.329 101.495Z" fill="#CEE4ED"/>
<path d="M245.564 73.2599V92.3256C245.495 92.357 245.425 92.3875 245.354 92.4163L245.198 92.4815V72.8525C245.312 72.9889 245.434 73.1253 245.564 73.2599Z" fill="#CEE4ED"/>
<path d="M245.564 105.464V106.38C245.457 106.371 245.334 106.36 245.198 106.345V104.812L245.564 105.464Z" fill="#CEE4ED"/>
<path d="M247.8 74.9428V91.1203C247.678 91.1999 247.556 91.2753 247.432 91.3506V74.7302L247.54 74.7937C247.626 74.8463 247.711 74.8945 247.8 74.9428Z" fill="#CEE4ED"/>
<path d="M250.034 75.8551V89.3899C249.915 89.5017 249.791 89.611 249.667 89.7185V75.739C249.788 75.7797 249.914 75.8178 250.034 75.8551Z" fill="#CEE4ED"/>
<path d="M252.269 76.3396V86.8651C252.151 87.0345 252.028 87.1954 251.902 87.3563V76.2803C252.023 76.2998 252.145 76.3192 252.269 76.3396Z" fill="#CEE4ED"/>
<path d="M254.504 76.5294V82.5912L254.308 83.0994C254.266 83.207 254.224 83.3146 254.179 83.4204C254.165 83.4535 254.151 83.4865 254.137 83.5195V76.509C254.258 76.52 254.38 76.5243 254.504 76.5294Z" fill="#CEE4ED"/>
<path d="M256.739 76.509V76.7445L256.622 77.0477L256.368 77.705V76.5234C256.493 76.5192 256.615 76.5133 256.739 76.509Z" fill="#CEE4ED"/>
<path d="M240.959 97.2806H209.939V96.9138H240.753L240.959 97.2806Z" fill="#CEE4ED"/>
<path d="M239.694 95.0325H209.939V94.6658H239.487L239.694 95.0325Z" fill="#CEE4ED"/>
<path d="M245.354 92.4163L245.197 92.4815C244.937 92.5899 244.673 92.6907 244.407 92.7838H209.939V92.4163H245.354Z" fill="#CEE4ED"/>
<path d="M249.126 90.1682C248.969 90.2947 248.81 90.4172 248.647 90.5358H209.939V90.1682H249.126Z" fill="#CEE4ED"/>
<path d="M251.444 87.9194C251.339 88.0439 251.232 88.1668 251.124 88.2862H209.942V87.9194H251.444Z" fill="#CEE4ED"/>
<path d="M253.049 85.6716C252.975 85.7953 252.9 85.918 252.823 86.0383H209.939V85.6716H253.049Z" fill="#CEE4ED"/>
<path d="M254.179 83.4238C254.165 83.4569 254.151 83.4899 254.137 83.5229C254.101 83.6126 254.062 83.7016 254.021 83.7905H209.939V83.4238H254.179Z" fill="#CEE4ED"/>
<path d="M255.045 81.175L254.905 81.5418H209.939V81.175H255.045Z" fill="#CEE4ED"/>
<path d="M255.904 78.927L255.764 79.2937H209.939V78.927H255.904Z" fill="#CEE4ED"/>
<path d="M256.763 76.6792L256.739 76.7427L256.622 77.046H209.939V76.6792H256.763Z" fill="#CEE4ED"/>
<path d="M247.541 74.7972H209.939V74.4304H246.956C247.108 74.5338 247.267 74.6362 247.432 74.7336L247.541 74.7972Z" fill="#CEE4ED"/>
<path d="M244.955 72.5494H209.939V72.1826H244.692C244.775 72.3046 244.861 72.4265 244.955 72.5494Z" fill="#CEE4ED"/>
<path d="M243.756 70.3013H209.939V69.9346H243.643C243.673 70.0523 243.712 70.1743 243.756 70.3013Z" fill="#CEE4ED"/>
<path d="M243.365 68.0525H209.939V67.6858H243.346L243.365 68.0525Z" fill="#CEE4ED"/>
<path d="M243.238 65.8047H209.993C210.003 65.6819 210.012 65.56 210.023 65.438H243.22L243.238 65.8047Z" fill="#CEE4ED"/>
<path d="M243.107 63.5567H210.292C210.315 63.4339 210.34 63.3119 210.365 63.1899H243.086L243.107 63.5567Z" fill="#CEE4ED"/>
<path d="M242.977 61.3081H210.863C210.902 61.1853 210.942 61.0625 210.985 60.9414H242.966V61.0363L242.977 61.3081Z" fill="#CEE4ED"/>
<path d="M242.783 59.0611H211.743C211.801 58.9383 211.858 58.8155 211.919 58.6943H242.72C242.743 58.8155 242.764 58.9374 242.783 59.0611Z" fill="#CEE4ED"/>
<path d="M242.227 56.8124H212.969C213.047 56.6896 213.127 56.5667 213.208 56.4456H242.093C242.141 56.5676 242.185 56.6896 242.227 56.8124Z" fill="#CEE4ED"/>
<path d="M241.217 54.5635H214.639C214.744 54.4399 214.852 54.3176 214.961 54.1968H241.001C241.034 54.2476 241.065 54.2993 241.095 54.3518C241.136 54.4212 241.177 54.4915 241.217 54.5635Z" fill="#CEE4ED"/>
<path d="M239.621 52.3155H216.912C217.059 52.191 217.21 52.0682 217.362 51.9487H239.289C239.402 52.0682 239.513 52.191 239.621 52.3155Z" fill="#CEE4ED"/>
<path d="M237.08 50.0667H220.217C220.347 49.9964 220.478 49.9278 220.61 49.8609C220.717 49.8058 220.826 49.7516 220.934 49.7H236.51C236.547 49.7228 236.585 49.7457 236.621 49.7694C236.78 49.8643 236.93 49.9634 237.08 50.0667Z" fill="#CEE4ED"/>
<path d="M216.749 114.962L216.51 115.105C216.389 115.178 216.267 115.25 216.143 115.32V115.329H209.906V114.962H216.749Z" fill="#CEE4ED"/>
<path d="M219.925 112.716C219.774 112.839 219.621 112.961 219.465 113.083H209.914V112.716H219.925Z" fill="#CEE4ED"/>
<path d="M222.396 110.467C222.275 110.59 222.153 110.713 222.028 110.834H209.919V110.467H222.396Z" fill="#CEE4ED"/>
<path d="M224.416 108.219C224.316 108.341 224.214 108.464 224.111 108.586H209.927V108.219H224.416Z" fill="#CEE4ED"/>
<path d="M226.103 105.971C226.018 106.092 225.934 106.215 225.849 106.338H209.934V105.971H226.103Z" fill="#CEE4ED"/>
<path d="M246.056 106.338H245.124C244.659 106.288 244.049 106.212 243.332 106.095C243.213 106.076 243.09 106.055 242.965 106.033C242.841 106.011 242.736 105.993 242.618 105.971H245.846L246.056 106.338Z" fill="#CEE4ED"/>
<path d="M227.538 103.723C227.466 103.842 227.394 103.965 227.32 104.089H209.939V103.723H227.538Z" fill="#CEE4ED"/>
<path d="M244.791 104.089H236.202C235.926 103.973 235.65 103.85 235.374 103.723H244.584L244.791 104.089Z" fill="#CEE4ED"/>
<path d="M228.738 101.474C228.682 101.592 228.621 101.714 228.558 101.841H209.939V101.474H228.738Z" fill="#CEE4ED"/>
<path d="M243.526 101.841H232.099C231.995 101.768 231.891 101.692 231.788 101.617L231.599 101.474H243.319L243.329 101.492L243.526 101.841Z" fill="#CEE4ED"/>
<path d="M242.26 99.5927H209.939V99.2251H242.054L242.26 99.5927Z" fill="#CEE4ED"/>
<path d="M222.593 48.9878L225.55 45.4711C225.689 45.3056 225.865 45.1754 226.064 45.0909C226.263 45.0064 226.479 44.9701 226.695 44.9849L234.653 45.5295C234.884 45.5455 235.107 45.6194 235.301 45.7443C235.496 45.8693 235.656 46.0413 235.766 46.2444L238.308 50.9283C238.308 50.9283 234.783 47.7563 228.921 47.8715C225.139 47.9452 222.593 48.9878 222.593 48.9878Z" fill="#2A6049"/>
<path d="M238.403 50.8369C238.403 50.8369 234.666 47.7563 228.602 47.8723C224.686 47.946 222.052 48.9887 222.052 48.9887" stroke="white" stroke-width="0.3" stroke-linecap="round" stroke-linejoin="round"/>
<path d="M256.617 76.7182C241.789 76.863 243.3 67.885 243.3 67.885L235.637 75.7391" stroke="white" stroke-width="0.3" stroke-linecap="round" stroke-linejoin="round"/>
<path d="M221.122 72.7383C221.122 72.7383 225.463 93.8181 239.714 93.968" stroke="white" stroke-width="0.3" stroke-linecap="round" stroke-linejoin="round"/>
<path d="M235.594 43.8645L235.07 45.6237C234.938 45.5713 234.799 45.5396 234.657 45.5296L226.696 44.9842C226.657 44.9842 226.619 44.9842 226.581 44.9842L230.182 38.2676L235.594 43.8645Z" fill="#E1B2A0"/>
<path d="M235.594 43.8644L235.07 45.6236C234.938 45.5712 234.799 45.5395 234.657 45.5296L233.099 45.4245C232.547 44.885 232.267 44.149 232.279 43.3071L232.293 42.2119L232.528 40.6958L235.594 43.8644Z" fill="#A74602"/>
<path d="M233.095 37.7517C233.095 37.7517 236.293 38.2938 238.211 36.7353C240.418 34.9465 239.723 32.032 237.793 31.8372C235.654 31.6212 235.292 33.6684 235.451 33.8776C235.451 33.8776 234.794 34.2791 233.132 33.9623C231.869 33.7226 230.867 33.477 229.595 34.5188C228.267 35.6063 228.51 38.5462 230.652 39.3229C231.956 39.8006 233.095 37.7517 233.095 37.7517Z" fill="#A74602"/>
<path d="M233.23 37.7687C236.959 38.1617 238.381 36.571 238.381 36.571C239.365 37.6721 239.228 41.1118 239.228 41.1118C237.43 41.9351 237.334 44.3159 237.334 44.3159C236.639 44.3655 235.941 44.3629 235.246 44.3083C234.566 44.2554 233.932 43.9458 233.472 43.4424C233.013 42.939 232.762 42.2795 232.771 41.5979L232.779 40.9847H232.606C232.389 40.9897 232.174 40.9513 231.973 40.872C231.771 40.7926 231.588 40.6738 231.433 40.5226C231.278 40.3714 231.155 40.1908 231.071 39.9914C230.987 39.792 230.944 39.5778 230.944 39.3615C230.944 39.1451 230.987 38.931 231.071 38.7315C231.155 38.5321 231.278 38.3515 231.433 38.2003C231.588 38.0491 231.771 37.9303 231.973 37.851C232.174 37.7716 232.389 37.7333 232.606 37.7382L233.23 37.7687Z" fill="#E1B2A0"/>
<path d="M236.271 38.3625C236.271 38.3625 237.152 37.7891 237.975 37.8636" stroke="#59221D" stroke-width="0.3" stroke-linecap="round" stroke-linejoin="round"/>
<path d="M237.253 39.6788C237.413 39.6788 237.542 39.4706 237.542 39.2138C237.542 38.957 237.413 38.7488 237.253 38.7488C237.093 38.7488 236.963 38.957 236.963 39.2138C236.963 39.4706 237.093 39.6788 237.253 39.6788Z" fill="#59221D"/>
<path d="M236.702 41.8547C236.702 41.8547 236.719 42.4095 237.65 42.4535" stroke="#59221D" stroke-width="0.3" stroke-linecap="round" stroke-linejoin="round"/>
<path d="M232.081 39.3027C232.081 39.2083 232.1 39.1149 232.136 39.0277C232.172 38.9405 232.225 38.8613 232.291 38.7946C232.358 38.7279 232.437 38.675 232.524 38.6389C232.612 38.6029 232.705 38.5844 232.799 38.5845" stroke="#59221D" stroke-width="0.3" stroke-linecap="round" stroke-linejoin="round"/>
<path d="M232.874 37.3264H232.229C231.269 37.3264 230.491 38.1042 230.491 39.0636V39.7081C230.491 40.6676 231.269 41.4453 232.229 41.4453H232.874C233.833 41.4453 234.612 40.6676 234.612 39.7081V39.0636C234.612 38.1042 233.833 37.3264 232.874 37.3264Z" fill="white" stroke="#59221D" stroke-width="0.3" stroke-linecap="round" stroke-linejoin="round"/>
<path d="M232.674 37.2461V33.7361C232.674 33.5953 232.73 33.4602 232.83 33.3606C232.93 33.261 233.065 33.2051 233.206 33.2051V33.2051C233.347 33.2051 233.482 33.261 233.581 33.3606C233.681 33.4602 233.737 33.5953 233.737 33.7361" stroke="#59221D" stroke-width="0.3" stroke-linecap="round" stroke-linejoin="round"/>
<path d="M232.458 41.4919V44.1481C232.458 45.2569 232.782 46.3416 233.39 47.2691C233.998 48.1967 234.863 48.9267 235.88 49.3698V49.3698C241.262 51.7159 244.742 57.2103 244.742 63.08V67.9925" stroke="#59221D" stroke-width="0.3" stroke-linecap="round" stroke-linejoin="round"/>
<path d="M257.085 76.1634C243.912 76.863 243.569 68.2017 243.569 68.2017L255.026 50.094C255.478 49.3744 256.105 48.7812 256.848 48.37C257.592 47.9588 258.428 47.7429 259.278 47.7427H260.767L260.518 48.2018C260.427 48.3716 260.381 48.5623 260.385 48.7552C260.389 48.9481 260.443 49.1366 260.542 49.3023C260.641 49.4679 260.781 49.6051 260.949 49.7004C261.117 49.7957 261.307 49.8458 261.5 49.8458H262.566C262.768 49.846 262.967 49.7909 263.141 49.6864C263.315 49.5819 263.457 49.4321 263.552 49.2529L266.245 44.1396L267.147 46.9296C267.439 47.829 267.414 48.8009 267.076 49.684L257.085 76.1634Z" fill="#E1B2A0"/>
<path d="M266.161 44.2956L263.556 49.2487C263.462 49.428 263.32 49.578 263.146 49.6825C262.972 49.787 262.773 49.842 262.57 49.8416H261.468C261.278 49.8413 261.09 49.7921 260.924 49.6987C260.757 49.6053 260.618 49.4708 260.518 49.3081C260.419 49.1453 260.363 48.9598 260.356 48.7692C260.348 48.5787 260.39 48.3894 260.477 48.2196L262.511 44.304C262.629 44.0748 262.808 43.8825 263.028 43.7481C263.248 43.6137 263.501 43.5423 263.759 43.5417H265.708C265.796 43.542 265.883 43.5651 265.96 43.6088C266.037 43.6524 266.101 43.7152 266.147 43.791C266.192 43.8668 266.218 43.953 266.22 44.0414C266.223 44.1298 266.202 44.2173 266.161 44.2956Z" fill="#59221D"/>
<path d="M260.383 67.5166C260.383 67.5166 261.575 76.4946 256.434 76.5353C242.988 76.6293 243.399 68.7108 243.399 68.7108C243.399 65.0993 246.597 63.3384 246.597 63.3384C246.597 63.3384 246.787 66.717 251.978 68.2153C257.169 69.7136 260.383 67.5166 260.383 67.5166Z" fill="#2A6049"/>
<path d="M209.898 13.3237H6.28162" stroke="#592D29" stroke-width="0.3" stroke-linecap="round" stroke-linejoin="round"/>
<path d="M209.897 1V198.18" stroke="#592D29" stroke-width="0.3" stroke-linecap="round" stroke-linejoin="round"/>
<path d="M188.627 13.3237L209.898 32.6435" stroke="#592D29" stroke-width="0.3" stroke-linecap="round" stroke-linejoin="round"/>
<path d="M187.353 198.262H343" stroke="#592D29" stroke-width="0.3" stroke-linecap="round" stroke-linejoin="round"/>
<path d="M186.853 130.734H172.889C166.995 130.734 162.759 125.066 164.432 119.416C165.417 116.086 167.453 113.165 170.236 111.087C173.019 109.009 176.4 107.887 179.873 107.887C183.347 107.888 186.727 109.01 189.51 111.088C192.292 113.166 194.329 116.087 195.315 119.416C196.984 125.066 192.748 130.734 186.853 130.734Z" fill="#EC744A"/>
<path d="M195.041 135.086C195.17 139.47 192.181 143.217 188.652 143.217H170.974C169.21 143.217 167.613 142.307 166.457 140.837C165.301 139.367 164.585 137.335 164.585 135.09C164.585 133.311 165.036 131.661 165.8 130.322C166.936 127.819 169.794 126.042 173.114 126.274C174.129 126.336 175.126 126.569 176.064 126.963H183.436C184.373 126.569 185.37 126.336 186.385 126.274C189.097 126.084 191.501 127.235 192.91 129.027C193.389 129.585 194.936 131.534 195.041 135.086Z" fill="#59221D"/>
<path d="M190.826 152.008H180.971L180.623 133.911C180.553 130.226 183.687 127.228 187.355 127.586C188.881 127.737 190.297 128.449 191.327 129.583C192.358 130.718 192.93 132.196 192.933 133.728L190.826 152.008Z" fill="#A74602"/>
<path d="M166.807 133.729C166.807 130.211 169.662 127.341 173.238 127.631C176.439 127.89 178.878 130.617 178.878 133.826V152.01H168.753L166.807 133.729Z" fill="#A74602"/>
<path d="M190.8 152.008L189.909 159.148C189.099 159.348 184.47 160.391 181.096 159.007L180.968 152.008H190.8Z" fill="#BDCAC2"/>
<path d="M182.329 158.607C182.661 158.607 182.93 158.338 182.93 158.006C182.93 157.675 182.661 157.406 182.329 157.406C181.997 157.406 181.728 157.675 181.728 158.006C181.728 158.338 181.997 158.607 182.329 158.607Z" fill="#CEE4ED"/>
<path d="M185.19 157.19C185.522 157.19 185.791 156.921 185.791 156.589C185.791 156.258 185.522 155.989 185.19 155.989C184.859 155.989 184.59 156.258 184.59 156.589C184.59 156.921 184.859 157.19 185.19 157.19Z" fill="#CEE4ED"/>
<path d="M183.157 156.276C183.489 156.276 183.758 156.007 183.758 155.675C183.758 155.344 183.489 155.075 183.157 155.075C182.825 155.075 182.556 155.344 182.556 155.675C182.556 156.007 182.825 156.276 183.157 156.276Z" fill="#CEE4ED"/>
<path d="M185.19 154.17C185.522 154.17 185.791 153.901 185.791 153.57C185.791 153.238 185.522 152.969 185.19 152.969C184.859 152.969 184.59 153.238 184.59 153.57C184.59 153.901 184.859 154.17 185.19 154.17Z" fill="#CEE4ED"/>
<path d="M182.129 153.81C182.461 153.81 182.73 153.541 182.73 153.21C182.73 152.878 182.461 152.609 182.129 152.609C181.797 152.609 181.528 152.878 181.528 153.21C181.528 153.541 181.797 153.81 182.129 153.81Z" fill="#CEE4ED"/>
<path d="M186.895 158.422C187.227 158.422 187.496 158.153 187.496 157.821C187.496 157.49 187.227 157.221 186.895 157.221C186.564 157.221 186.295 157.49 186.295 157.821C186.295 158.153 186.564 158.422 186.895 158.422Z" fill="#CEE4ED"/>
<path d="M187.353 155.617C187.685 155.617 187.954 155.348 187.954 155.016C187.954 154.685 187.685 154.416 187.353 154.416C187.021 154.416 186.752 154.685 186.752 155.016C186.752 155.348 187.021 155.617 187.353 155.617Z" fill="#CEE4ED"/>
<path d="M189.234 153.932C189.566 153.932 189.835 153.663 189.835 153.332C189.835 153 189.566 152.731 189.234 152.731C188.902 152.731 188.633 153 188.633 153.332C188.633 153.663 188.902 153.932 189.234 153.932Z" fill="#CEE4ED"/>
<path d="M189.234 157.137C189.566 157.137 189.835 156.868 189.835 156.536C189.835 156.205 189.566 155.936 189.234 155.936C188.902 155.936 188.633 156.205 188.633 156.536C188.633 156.868 188.902 157.137 189.234 157.137Z" fill="#CEE4ED"/>
<path d="M189.473 159.056C189.473 159.124 189.461 159.192 189.438 159.255C189.171 159.312 188.824 159.381 188.416 159.447C188.353 159.373 188.309 159.286 188.287 159.191C188.265 159.097 188.266 158.999 188.291 158.905C188.315 158.811 188.362 158.725 188.427 158.653C188.492 158.581 188.573 158.526 188.664 158.493C188.755 158.459 188.852 158.448 188.948 158.46C189.045 158.472 189.136 158.508 189.216 158.563C189.295 158.619 189.36 158.692 189.405 158.778C189.45 158.864 189.473 158.96 189.473 159.056Z" fill="#CEE4ED"/>
<path d="M184.505 159.666C184.837 159.666 185.106 159.397 185.106 159.066C185.106 158.734 184.837 158.465 184.505 158.465C184.173 158.465 183.904 158.734 183.904 159.066C183.904 159.397 184.173 159.666 184.505 159.666Z" fill="#CEE4ED"/>
<path d="M178.893 158.967C175.157 160.433 169.82 159.203 169.82 159.203L168.753 152.008H178.877L178.893 158.967Z" fill="#BDCAC2"/>
<path d="M170.459 158.639C170.809 158.639 171.092 158.356 171.092 158.006C171.092 157.657 170.809 157.374 170.459 157.374C170.11 157.374 169.826 157.657 169.826 158.006C169.826 158.356 170.11 158.639 170.459 158.639Z" fill="#CEE4ED"/>
<path d="M173.285 157.222C173.635 157.222 173.918 156.938 173.918 156.589C173.918 156.24 173.635 155.956 173.285 155.956C172.936 155.956 172.652 156.24 172.652 156.589C172.652 156.938 172.936 157.222 173.285 157.222Z" fill="#CEE4ED"/>
<path d="M171.332 156.006C171.682 156.006 171.965 155.723 171.965 155.374C171.965 155.024 171.682 154.741 171.332 154.741C170.982 154.741 170.699 155.024 170.699 155.374C170.699 155.723 170.982 156.006 171.332 156.006Z" fill="#CEE4ED"/>
<path d="M173.475 154.169C173.825 154.169 174.108 153.886 174.108 153.537C174.108 153.187 173.825 152.904 173.475 152.904C173.125 152.904 172.842 153.187 172.842 153.537C172.842 153.886 173.125 154.169 173.475 154.169Z" fill="#CEE4ED"/>
<path d="M170.035 153.842C170.384 153.842 170.668 153.559 170.668 153.21C170.668 152.86 170.384 152.577 170.035 152.577C169.685 152.577 169.402 152.86 169.402 153.21C169.402 153.559 169.685 153.842 170.035 153.842Z" fill="#CEE4ED"/>
<path d="M175.121 158.731C175.471 158.731 175.754 158.448 175.754 158.099C175.754 157.749 175.471 157.466 175.121 157.466C174.772 157.466 174.488 157.749 174.488 158.099C174.488 158.448 174.772 158.731 175.121 158.731Z" fill="#CEE4ED"/>
<path d="M175.754 155.649C176.104 155.649 176.387 155.366 176.387 155.016C176.387 154.667 176.104 154.384 175.754 154.384C175.405 154.384 175.121 154.667 175.121 155.016C175.121 155.366 175.405 155.649 175.754 155.649Z" fill="#CEE4ED"/>
<path d="M177.593 153.842C177.943 153.842 178.226 153.559 178.226 153.21C178.226 152.86 177.943 152.577 177.593 152.577C177.243 152.577 176.96 152.86 176.96 153.21C176.96 153.559 177.243 153.842 177.593 153.842Z" fill="#CEE4ED"/>
<path d="M177.737 156.914C178.087 156.914 178.37 156.631 178.37 156.282C178.37 155.932 178.087 155.649 177.737 155.649C177.388 155.649 177.104 155.932 177.104 156.282C177.104 156.631 177.388 156.914 177.737 156.914Z" fill="#CEE4ED"/>
<path d="M177.356 159.402C177.705 159.402 177.989 159.119 177.989 158.769C177.989 158.42 177.705 158.136 177.356 158.136C177.006 158.136 176.723 158.42 176.723 158.769C176.723 159.119 177.006 159.402 177.356 159.402Z" fill="#CEE4ED"/>
<path d="M173.476 159.305C173.476 159.431 173.438 159.554 173.367 159.659C172.983 159.64 172.616 159.611 172.273 159.574C172.231 159.489 172.209 159.396 172.21 159.301C172.21 159.133 172.277 158.972 172.395 158.854C172.514 158.735 172.675 158.668 172.843 158.668C173.011 158.668 173.172 158.735 173.291 158.854C173.409 158.972 173.476 159.133 173.476 159.301V159.305Z" fill="#CEE4ED"/>
<path d="M181.094 159.006V163.906C181.094 164.281 181.177 164.651 181.337 164.991C181.497 165.33 181.729 165.629 182.019 165.868L186.073 169.211C186.457 169.476 186.912 169.618 187.379 169.618H191.699C193.428 169.618 194.539 168.283 193.737 166.751L189.777 159.2C189.777 159.2 184.804 160.53 181.094 159.006Z" fill="white" stroke="#592D29" stroke-width="0.3" stroke-linecap="round" stroke-linejoin="round"/>
<path d="M193.91 167.306C193.527 167.998 192.867 168.492 191.967 168.492H187.379C186.912 168.492 186.456 168.35 186.072 168.084L182.241 164.924C181.882 164.629 181.593 164.257 181.395 163.837C181.197 163.416 181.094 162.957 181.094 162.493" stroke="#592D29" stroke-width="0.3" stroke-linecap="round" stroke-linejoin="round"/>
<path d="M188.142 159.606L189.159 161.723C189.225 161.862 189.254 162.014 189.245 162.167C189.237 162.32 189.189 162.468 189.107 162.597C189.026 162.727 188.913 162.833 188.779 162.907C188.645 162.981 188.494 163.02 188.341 163.02H187.511C187.154 163.02 186.803 162.923 186.497 162.74C186.19 162.557 185.939 162.294 185.77 161.979L184.55 159.72" stroke="#592D29" stroke-width="0.3" stroke-linecap="round" stroke-linejoin="round"/>
<path d="M178.75 159.006V163.952C178.75 164.33 178.666 164.704 178.505 165.046C178.344 165.388 178.109 165.691 177.818 165.931L173.727 169.305C173.34 169.573 172.879 169.716 172.408 169.716H168.052C166.306 169.716 165.184 168.368 165.995 166.822L169.991 159.2C169.991 159.2 175.008 160.543 178.75 159.006Z" fill="white" stroke="#592D29" stroke-width="0.3" stroke-linecap="round" stroke-linejoin="round"/>
<path d="M165.817 167.383C166.204 168.082 166.871 168.583 167.778 168.583H172.407C172.878 168.583 173.338 168.439 173.726 168.172L177.592 164.983C177.955 164.684 178.246 164.309 178.446 163.884C178.646 163.459 178.75 162.996 178.75 162.526" stroke="#592D29" stroke-width="0.3" stroke-linecap="round" stroke-linejoin="round"/>
<path d="M171.639 159.612L170.617 161.746C170.55 161.885 170.52 162.039 170.529 162.193C170.538 162.348 170.586 162.497 170.668 162.628C170.75 162.758 170.865 162.866 171 162.941C171.135 163.015 171.287 163.054 171.442 163.054H172.28C172.64 163.054 172.994 162.957 173.303 162.772C173.612 162.587 173.866 162.322 174.036 162.005L175.268 159.724" stroke="#592D29" stroke-width="0.3" stroke-linecap="round" stroke-linejoin="round"/>
<path d="M179.329 121.29C172.795 121.815 168.846 118.398 170.659 116.547C172.145 115.027 175.743 117.479 177.474 118.82C177.77 119.772 178.424 120.647 179.329 121.29Z" fill="white"/>
<path d="M181.522 113.364C181.731 112.553 181.276 111.735 180.504 111.535C179.732 111.336 178.937 111.832 178.727 112.642C178.518 113.453 178.973 114.272 179.745 114.471C180.517 114.67 181.312 114.175 181.522 113.364Z" fill="white"/>
<path d="M180.106 113.908C180.051 114.122 179.94 114.317 179.786 114.475C179.77 114.473 179.755 114.469 179.739 114.465C178.968 114.265 178.512 113.449 178.722 112.636C178.749 112.532 178.786 112.43 178.833 112.333C179.03 112.325 179.226 112.364 179.405 112.445C179.584 112.526 179.741 112.648 179.865 112.801C179.988 112.954 180.074 113.134 180.116 113.326C180.158 113.518 180.154 113.717 180.104 113.908H180.106Z" fill="#CEE4ED"/>
<path d="M188.055 115.051C188.265 114.24 187.809 113.421 187.037 113.222C186.266 113.023 185.47 113.518 185.261 114.329C185.051 115.14 185.507 115.958 186.278 116.158C187.05 116.357 187.845 115.862 188.055 115.051Z" fill="white"/>
<path d="M188.08 114.896C188.072 114.946 188.062 114.995 188.049 115.045C187.84 115.856 187.044 116.351 186.27 116.152C186.201 116.134 186.134 116.111 186.068 116.083C186.064 115.948 186.079 115.813 186.112 115.682C186.296 114.969 186.996 114.534 187.676 114.709C187.821 114.746 187.958 114.809 188.08 114.896Z" fill="#CEE4ED"/>
<path d="M187.185 119.304C187.775 117.025 186.068 114.613 183.373 113.917C180.679 113.221 178.017 114.504 177.427 116.783C176.838 119.062 178.545 121.474 181.24 122.17C183.934 122.866 186.596 121.583 187.185 119.304Z" fill="white"/>
<path d="M180.635 117.41C180.679 117.237 180.582 117.063 180.417 117.02C180.252 116.978 180.082 117.084 180.038 117.256C179.993 117.429 180.091 117.604 180.255 117.646C180.42 117.689 180.59 117.583 180.635 117.41Z" fill="#59221D"/>
<path d="M184.569 118.845C184.614 118.672 184.517 118.498 184.352 118.456C184.188 118.413 184.018 118.519 183.974 118.691C183.929 118.864 184.026 119.038 184.191 119.081C184.355 119.123 184.525 119.018 184.569 118.845Z" fill="#59221D"/>
<path d="M190.326 127.921C192.783 127.642 194.318 125.187 193.751 123.162C193.029 120.593 190.785 119.996 188.333 120.268C185.49 120.584 178.758 121.106 172.478 120.161C172.478 120.161 170.947 124.682 174.888 126.691C176.337 127.426 184.208 128.616 190.326 127.921Z" fill="#A74602"/>
<path d="M172.521 120.354C172.521 120.354 170.968 124.805 175.218 127.034" stroke="#59221D" stroke-width="0.3" stroke-miterlimit="10" stroke-linecap="round"/>
<path d="M172.518 120.341C172.518 120.341 172.499 121.841 174.536 121.879" stroke="#59221D" stroke-width="0.3" stroke-miterlimit="10" stroke-linecap="round"/>
<path d="M172.296 121.842C172.296 121.842 172.388 123.317 174.424 123.355" stroke="#59221D" stroke-width="0.3" stroke-miterlimit="10" stroke-linecap="round"/>
<path d="M172.304 123.031C172.304 123.031 172.364 124.702 174.397 124.716" stroke="#59221D" stroke-width="0.3" stroke-miterlimit="10" stroke-linecap="round"/>
<path d="M183.467 108.292C183.038 109.514 181.593 110.41 179.875 110.41C178.157 110.41 176.709 109.51 176.282 108.287C176.751 108.182 177.226 108.097 177.708 108.033V105.461H182.425V108.086C182.776 108.145 183.123 108.213 183.467 108.292Z" fill="#A74602"/>
<path d="M181.172 107.493C181.914 107.012 182.425 106.344 182.425 105.461H177.708V108.086C177.708 108.086 179.838 108.362 181.172 107.493Z" fill="#59221D"/>
<path d="M183.318 102.632H181.949L179.354 99.3286H180.829C181.489 99.3286 182.122 99.5906 182.589 100.057C183.055 100.523 183.318 101.156 183.318 101.815V102.632Z" fill="#EC744A"/>
<path d="M177.139 102.13L181.726 102.124L179.548 99.2769C178.856 98.3113 177.825 97.7388 176.636 97.7388H176.552C175.252 97.7388 174.469 99.2286 175.253 100.265C175.494 100.583 177.139 102.13 177.139 102.13Z" fill="white" stroke="#EC744A" stroke-width="0.3" stroke-miterlimit="10"/>
<path d="M184.403 103.918V104.172C184.403 104.513 184.268 104.84 184.027 105.081C183.785 105.322 183.458 105.457 183.117 105.457H181.911C181.704 106.024 181.328 106.513 180.833 106.859C180.339 107.204 179.75 107.389 179.146 107.389H178.753C178.473 107.389 178.196 107.334 177.937 107.227C177.678 107.12 177.443 106.963 177.244 106.765C177.046 106.567 176.889 106.332 176.782 106.073C176.675 105.815 176.62 105.538 176.62 105.257V103.162C176.62 102.832 176.693 102.506 176.835 102.208C176.976 101.909 177.183 101.646 177.439 101.438C177.695 101.229 177.994 101.08 178.314 101.001C178.635 100.922 178.969 100.915 179.293 100.981L179.767 101.078C180.199 101.166 180.605 101.352 180.955 101.621C181.304 101.889 181.588 102.234 181.785 102.628H183.117C183.286 102.628 183.454 102.662 183.61 102.727C183.766 102.791 183.908 102.886 184.028 103.006C184.147 103.126 184.242 103.268 184.306 103.424C184.371 103.581 184.404 103.748 184.403 103.918Z" fill="#A74602"/>
<path d="M182.494 104.21C182.494 103.971 182.589 103.74 182.759 103.571C182.929 103.401 183.159 103.306 183.399 103.306" stroke="#59221D" stroke-width="0.3" stroke-miterlimit="10" stroke-linecap="round"/>
<path d="M182.658 102.632C182.426 102.632 182.196 102.678 181.982 102.769C181.768 102.859 181.574 102.991 181.412 103.157C181.38 103.19 181.342 103.216 181.3 103.234C181.258 103.252 181.213 103.262 181.167 103.262C181.121 103.262 181.076 103.253 181.034 103.236C180.992 103.219 180.953 103.193 180.921 103.161C180.888 103.129 180.863 103.091 180.845 103.049C180.828 103.006 180.819 102.961 180.819 102.915V102.906C180.819 102.553 180.681 102.214 180.433 101.963C175.696 103.138 175.478 100.438 176.62 99.9435C177.6 99.52 180.063 100.983 180.966 101.553L182.658 102.632Z" fill="#59221D"/>
<path d="M176.702 103.001C176.702 103.001 177.353 102.832 177.786 103.306C178.107 103.657 178.067 104.943 178.067 104.943" stroke="#59221D" stroke-width="0.3" stroke-miterlimit="10" stroke-linecap="round"/>
<path d="M178.934 103.055C178.934 103.055 179.849 102.88 180.326 103.263" stroke="#59221D" stroke-width="0.3" stroke-miterlimit="10" stroke-linecap="round"/>
<path d="M177.113 104.456C177.235 104.456 177.333 104.291 177.333 104.086C177.333 103.882 177.235 103.716 177.113 103.716C176.992 103.716 176.894 103.882 176.894 104.086C176.894 104.291 176.992 104.456 177.113 104.456Z" fill="#59221D"/>
<path d="M179.418 104.456C179.539 104.456 179.638 104.291 179.638 104.086C179.638 103.882 179.539 103.716 179.418 103.716C179.297 103.716 179.199 103.882 179.199 104.086C179.199 104.291 179.297 104.456 179.418 104.456Z" fill="#59221D"/>
<path d="M135.332 82.3786C135.332 85.2744 133.462 87.917 128.162 88.1431C121.294 88.2609 119.497 85.7148 119.497 82.7402C119.497 80.068 121.396 77.8489 123.889 77.4152V75.2453C123.889 74.842 123.969 74.4426 124.123 74.07C124.278 73.6975 124.504 73.359 124.79 73.0739C125.075 72.7889 125.414 72.5628 125.787 72.4087C126.16 72.2546 126.559 72.1754 126.963 72.1758H127.796C128.61 72.1776 129.389 72.5018 129.963 73.0772C130.538 73.6526 130.86 74.4324 130.86 75.2453V77.3712C132.091 77.5112 133.227 78.099 134.052 79.0225C134.876 79.9461 135.332 81.1407 135.332 82.3786Z" fill="white"/>
<path d="M114.052 136.852H138.642C143.55 136.852 147.529 132.711 147.529 127.604C147.529 122.496 143.546 118.356 138.642 118.356H114.052C109.144 118.356 105.165 122.496 105.165 127.604C105.165 132.711 109.144 136.852 114.052 136.852Z" fill="#59221D"/>
<path d="M147.769 129.911V193.901C147.769 194.462 147.659 195.018 147.445 195.536C147.231 196.054 146.916 196.525 146.52 196.922C144.656 195.86 142.171 194.559 140.108 193.609C132.689 190.198 128.578 190.572 127.831 190.68L125.713 134.61L125.551 130.326C125.496 128.851 125.736 127.381 126.256 126C126.777 124.619 127.567 123.355 128.581 122.283C129.596 121.211 130.813 120.352 132.164 119.756C133.514 119.159 134.969 118.838 136.445 118.81C137.921 118.782 139.388 119.048 140.76 119.594C142.132 120.139 143.381 120.952 144.435 121.985C145.489 123.018 146.326 124.251 146.898 125.611C147.47 126.971 147.765 128.432 147.766 129.907L147.769 129.911Z" fill="#59221D"/>
<path d="M124.949 196.314C124.86 196.478 124.816 196.663 124.821 196.85C124.825 197.037 124.878 197.22 124.974 197.38C125.07 197.54 125.206 197.673 125.368 197.765C125.531 197.858 125.715 197.906 125.902 197.906H143.606C144.098 197.908 144.586 197.811 145.041 197.622C145.496 197.433 145.908 197.155 146.254 196.805C144.365 195.72 142.262 194.599 140.108 193.608C131.866 189.82 127.961 190.699 127.961 190.699L124.949 196.314Z" fill="white" stroke="#EC744A" stroke-width="0.3" stroke-miterlimit="10"/>
<path d="M125.889 133.855L112.733 190.978C112.733 190.978 107.479 190.098 99.4593 193.887C97.3646 194.877 95.3191 195.999 93.4812 197.084C93.1037 196.693 92.8206 196.222 92.6536 195.705C92.4866 195.188 92.4401 194.64 92.5177 194.103L101.728 129.367C102.145 126.436 103.606 123.754 105.843 121.813C108.08 119.872 110.942 118.804 113.904 118.804C121.811 118.804 127.663 126.154 125.889 133.855Z" fill="#59221D"/>
<path d="M115.143 195.235C115.293 195.523 115.367 195.845 115.357 196.169C115.346 196.494 115.252 196.81 115.084 197.088C114.916 197.366 114.678 197.595 114.395 197.755C114.112 197.914 113.793 197.998 113.468 197.998H96.1495C95.6677 197.999 95.1908 197.901 94.7478 197.712C94.3048 197.523 93.905 197.245 93.5726 196.897C95.4106 195.812 97.4569 194.689 99.5516 193.699C107.568 189.911 112.825 190.79 112.825 190.79L115.143 195.235Z" fill="white" stroke="#EC744A" stroke-width="0.3" stroke-miterlimit="10"/>
<path d="M114.083 118.974C121.989 118.974 127.842 126.323 126.068 134.025L123.794 143.899" stroke="white" stroke-width="0.3" stroke-linecap="round" stroke-linejoin="round"/>
<path d="M152.389 198.18V129.405C152.389 128.602 152.231 127.807 151.924 127.065C151.617 126.323 151.166 125.649 150.598 125.081C150.03 124.514 149.356 124.063 148.614 123.756C147.872 123.449 147.076 123.291 146.273 123.291V123.291C144.651 123.291 143.095 123.935 141.948 125.081C140.8 126.228 140.156 127.783 140.156 129.405" stroke="#EC744A" stroke-width="0.3" stroke-miterlimit="10"/>
<path d="M142.662 198.18C142.662 196.638 143.275 195.159 144.366 194.069C145.457 192.978 146.937 192.366 148.479 192.366H156.298C157.062 192.366 157.818 192.516 158.524 192.808C159.23 193.1 159.872 193.529 160.412 194.068C160.952 194.608 161.381 195.249 161.673 195.955C161.965 196.66 162.116 197.417 162.116 198.18V198.18" stroke="#EC744A" stroke-width="0.3" stroke-miterlimit="10"/>
<path d="M163.126 198.18H161.015L161.209 197.654C161.26 197.517 161.352 197.398 161.472 197.315C161.592 197.231 161.736 197.186 161.882 197.186H162.259C162.406 197.186 162.549 197.231 162.669 197.315C162.789 197.398 162.881 197.517 162.932 197.654L163.126 198.18Z" fill="#59221D"/>
<path d="M153.4 198.18H151.289L151.483 197.654C151.534 197.517 151.626 197.398 151.746 197.315C151.866 197.231 152.009 197.186 152.156 197.186H152.533C152.68 197.186 152.823 197.231 152.943 197.315C153.063 197.398 153.155 197.517 153.206 197.654L153.4 198.18Z" fill="#59221D"/>
<path d="M143.759 198.18H141.648L141.842 197.654C141.893 197.517 141.985 197.398 142.105 197.315C142.225 197.231 142.368 197.186 142.515 197.186H142.893C143.039 197.186 143.182 197.231 143.303 197.315C143.423 197.398 143.515 197.517 143.566 197.654L143.759 198.18Z" fill="#59221D"/>
<path d="M144.054 87.8713C145.739 88.283 147.273 89.1626 148.479 90.4086C149.685 91.6546 150.514 93.2163 150.871 94.9132L141.163 99.6131L141.424 118.549H112.225L112.818 99.7156L103.088 95.0047C103.444 93.3079 104.273 91.7465 105.479 90.5006C106.685 89.2547 108.219 88.3752 109.904 87.9636L123.825 84.6604H130.993L144.054 87.8713Z" fill="#EDD5CC"/>
<path d="M127.358 93.0609C127.743 93.0609 128.055 92.7492 128.055 92.3647C128.055 91.9802 127.743 91.6685 127.358 91.6685C126.974 91.6685 126.662 91.9802 126.662 92.3647C126.662 92.7492 126.974 93.0609 127.358 93.0609Z" stroke="white" stroke-width="0.3" stroke-linecap="round" stroke-linejoin="round"/>
<path d="M127.358 98.0394C127.743 98.0394 128.055 97.7277 128.055 97.3432C128.055 96.9587 127.743 96.647 127.358 96.647C126.974 96.647 126.662 96.9587 126.662 97.3432C126.662 97.7277 126.974 98.0394 127.358 98.0394Z" stroke="white" stroke-width="0.3" stroke-linecap="round" stroke-linejoin="round"/>
<path d="M127.358 103.018C127.743 103.018 128.055 102.706 128.055 102.322C128.055 101.937 127.743 101.625 127.358 101.625C126.974 101.625 126.662 101.937 126.662 102.322C126.662 102.706 126.974 103.018 127.358 103.018Z" stroke="white" stroke-width="0.3" stroke-linecap="round" stroke-linejoin="round"/>
<path d="M127.358 107.996C127.743 107.996 128.055 107.684 128.055 107.299C128.055 106.915 127.743 106.603 127.358 106.603C126.974 106.603 126.662 106.915 126.662 107.299C126.662 107.684 126.974 107.996 127.358 107.996Z" stroke="white" stroke-width="0.3" stroke-linecap="round" stroke-linejoin="round"/>
<path d="M120.465 85.5066L122.326 91.2144L125.881 88.3203" stroke="white" stroke-width="0.3" stroke-linecap="round" stroke-linejoin="round"/>
<path d="M129.008 88.3202L132.342 91.2144L134.135 85.5286" stroke="white" stroke-width="0.3" stroke-linecap="round" stroke-linejoin="round"/>
<path d="M112.976 97.98L103.655 93.5164" stroke="white" stroke-width="0.3" stroke-linecap="round" stroke-linejoin="round"/>
<path d="M141.041 97.9879L150.447 93.4387" stroke="white" stroke-width="0.3" stroke-linecap="round" stroke-linejoin="round"/>
<path d="M105.057 123.093L146.691 123.083C147.356 123.083 148.018 122.997 148.662 122.829C149.582 122.674 150.462 122.339 151.252 121.844C152.043 121.348 152.727 120.701 153.267 119.941C153.806 119.18 154.19 118.32 154.397 117.411C154.603 116.501 154.628 115.56 154.47 114.641L150.871 94.9062L141.164 99.6062L141.287 108.227L114.676 112.172C113.807 112.337 112.965 112.623 112.176 113.024L104.12 120.562C103.169 121.191 103.008 123.098 105.057 123.093Z" fill="#A74602"/>
<path d="M144.178 107.81L139.51 108.461" stroke="#59221D" stroke-width="0.3" stroke-miterlimit="10" stroke-linecap="round"/>
<path d="M103.088 95.0044L112.818 99.7162L112.579 108.44L147.006 113.237C147.752 113.341 148.463 113.619 149.081 114.049C149.7 114.478 150.208 115.048 150.565 115.711L155.693 127.963H154.945C154.377 127.963 153.819 127.809 153.332 127.516C152.845 127.224 152.447 126.805 152.179 126.304L151.514 125.055L143.836 125.889C142.396 126.063 141.03 125.086 140.515 123.735L140.276 123.104H105.573C103.925 123.108 102.318 122.586 100.987 121.613C98.4179 119.74 97.3154 116.447 98.1416 113.375L103.088 95.0044Z" fill="#A74602"/>
<path d="M139.467 120.543L140.515 123.737C141.03 125.092 142.4 126.066 143.836 125.891L151.514 125.057L152.179 126.306C152.446 126.807 152.845 127.226 153.332 127.519C153.819 127.811 154.377 127.966 154.945 127.966H155.693L150.565 115.713C150.208 115.05 149.7 114.481 149.081 114.051C148.463 113.621 147.752 113.343 147.006 113.238L107.069 107.678" stroke="#59221D" stroke-width="0.3" stroke-miterlimit="10" stroke-linecap="round"/>
<path d="M151.537 125.106L149.13 120.034" stroke="#59221D" stroke-width="0.3" stroke-miterlimit="10" stroke-linecap="round"/>
<path d="M148.352 125.133L146.037 120.335" stroke="#59221D" stroke-width="0.3" stroke-miterlimit="10" stroke-linecap="round"/>
<path d="M145.335 125.509L143.02 120.712" stroke="#59221D" stroke-width="0.3" stroke-miterlimit="10" stroke-linecap="round"/>
<path d="M130.992 84.6613L130.124 80.4822H124.749L123.828 84.6613C123.828 84.6613 123.158 88.2187 127.411 88.2187C131.664 88.2187 130.992 84.6613 130.992 84.6613Z" fill="#A74602"/>
<path d="M130.161 80.6677C130.145 81.5402 129.818 82.3784 129.238 83.0308C128.658 83.6831 127.864 84.1067 126.999 84.225L123.827 84.6621L124.752 80.4822H130.126L130.161 80.6677Z" fill="#59221D"/>
<path d="M132.262 78.9262V79.16C132.263 79.3455 132.226 79.5293 132.156 79.7009C132.085 79.8725 131.981 80.0285 131.85 80.1599C131.719 80.2913 131.563 80.3955 131.392 80.4667C131.221 80.5378 131.037 80.5744 130.851 80.5744H130.211C129.971 81.8119 128.846 82.7478 127.5 82.7478H127.338C125.987 82.7478 124.863 81.8119 124.622 80.5744H124.02C123.646 80.5744 123.287 80.4259 123.022 80.1614C122.758 79.8969 122.609 79.5382 122.609 79.1642V78.9304C122.609 78.5565 122.758 78.1979 123.022 77.9335C123.287 77.6691 123.646 77.5204 124.02 77.5202C124.222 77.52 124.418 77.5901 124.575 77.7184V77.0518C124.575 76.42 125.197 75.9609 125.827 76.1303C126.012 76.1796 126.202 76.2044 126.393 76.204C127.385 76.204 128.199 75.5518 128.293 74.7158H128.302C129.385 74.7158 130.263 75.5628 130.263 76.6097V77.7252C130.432 77.5918 130.641 77.5196 130.856 77.5202C131.041 77.5201 131.225 77.5565 131.396 77.6273C131.567 77.6981 131.723 77.802 131.854 77.933C131.985 78.064 132.089 78.2195 132.16 78.3906C132.231 78.5618 132.267 78.7452 132.267 78.9304L132.262 78.9262Z" fill="#A74602"/>
<path d="M124.443 79.3039C124.443 79.0598 124.346 78.8259 124.173 78.6534C124.001 78.4809 123.766 78.384 123.522 78.384" stroke="#59221D" stroke-width="0.3" stroke-miterlimit="10" stroke-linecap="round"/>
<path d="M130.299 79.3039C130.299 79.0598 130.396 78.8259 130.569 78.6534C130.741 78.4809 130.976 78.384 131.22 78.384" stroke="#59221D" stroke-width="0.3" stroke-miterlimit="10" stroke-linecap="round"/>
<path d="M128.339 76.9103C128.339 76.9103 129.129 76.6342 129.678 77.1339" stroke="white" stroke-width="0.3" stroke-linecap="round" stroke-linejoin="round"/>
<path d="M128.748 78.4814C128.892 78.4814 129.009 78.2846 129.009 78.0418C129.009 77.7991 128.892 77.6023 128.748 77.6023C128.604 77.6023 128.487 77.7991 128.487 78.0418C128.487 78.2846 128.604 78.4814 128.748 78.4814Z" fill="#59221D"/>
<path d="M125.968 78.4814C126.112 78.4814 126.229 78.2846 126.229 78.0418C126.229 77.7991 126.112 77.6023 125.968 77.6023C125.824 77.6023 125.707 77.7991 125.707 78.0418C125.707 78.2846 125.824 78.4814 125.968 78.4814Z" fill="#59221D"/>
<path d="M127.822 79.2098C127.551 79.3313 127.244 79.3428 126.965 79.242C126.965 79.242 127.14 77.516 126.626 76.9951" stroke="#59221D" stroke-width="0.3" stroke-miterlimit="10" stroke-linecap="round"/>
<path d="M125.212 77.1347C125.759 76.6342 126.55 76.9086 126.55 76.9086" stroke="white" stroke-width="0.3" stroke-linecap="round" stroke-linejoin="round"/>
<path d="M126.719 80.3906C126.964 80.5178 127.242 80.5685 127.517 80.5364C127.792 80.5042 128.05 80.3906 128.26 80.2102" stroke="#59221D" stroke-width="0.3" stroke-miterlimit="10" stroke-linecap="round"/>
<path d="M128.146 79.9587L128.487 80.5668" stroke="#59221D" stroke-width="0.3" stroke-miterlimit="10" stroke-linecap="round"/>
<path d="M68.9189 198.18H49.5992C49.2359 198.18 48.8772 198.098 48.5501 197.94C48.2229 197.782 47.9357 197.552 47.7099 197.267C47.4842 196.983 47.3256 196.651 47.2462 196.297C47.1668 195.942 47.1685 195.574 47.2512 195.221L48.485 189.96H61.13C61.8265 189.96 62.5118 190.136 63.1221 190.472C63.7324 190.807 64.2481 191.291 64.6211 191.879L64.727 192.049C64.9651 192.424 65.294 192.732 65.6833 192.946C66.0726 193.16 66.5096 193.273 66.9539 193.273H68.6867C68.8511 193.507 69.0205 193.74 69.1951 193.97L70.2967 195.435C70.488 195.69 70.6044 195.994 70.6328 196.311C70.6612 196.629 70.6004 196.948 70.4573 197.234C70.3142 197.519 70.0945 197.758 69.8227 197.925C69.551 198.093 69.238 198.181 68.9189 198.18V198.18Z" stroke="#592D29" stroke-width="0.3" stroke-linecap="round" stroke-linejoin="round"/>
<path d="M68.919 198.18H49.5992C49.2359 198.18 48.8772 198.098 48.5501 197.94C48.2229 197.782 47.9357 197.552 47.71 197.267C47.4842 196.983 47.3256 196.651 47.2462 196.297C47.1668 195.942 47.1685 195.574 47.2512 195.221L47.4639 194.311C47.4903 194.933 47.7558 195.52 48.205 195.95C48.6542 196.381 49.2523 196.621 49.8746 196.622H69.1944C69.459 196.623 69.7203 196.563 69.9573 196.445C70.1943 196.328 70.4003 196.156 70.5586 195.944C70.6399 196.202 70.6595 196.475 70.6155 196.741C70.5716 197.007 70.4655 197.26 70.3058 197.477C70.1461 197.695 69.9373 197.872 69.6964 197.994C69.4554 198.116 69.1891 198.18 68.919 198.18Z" fill="#A74602"/>
<path d="M68.919 198.18H49.5992C49.2359 198.18 48.8772 198.098 48.5501 197.94C48.2229 197.782 47.9357 197.552 47.71 197.267C47.4842 196.983 47.3256 196.651 47.2462 196.297C47.1668 195.942 47.1685 195.574 47.2512 195.221L47.4639 194.311C47.4903 194.933 47.7558 195.52 48.205 195.95C48.6542 196.381 49.2523 196.621 49.8746 196.622H69.1944C69.459 196.623 69.7203 196.563 69.9573 196.445C70.1943 196.328 70.4003 196.156 70.5586 195.944C70.6399 196.202 70.6595 196.475 70.6155 196.741C70.5716 197.007 70.4655 197.26 70.3058 197.477C70.1461 197.695 69.9373 197.872 69.6964 197.994C69.4554 198.116 69.1891 198.18 68.919 198.18V198.18Z" stroke="#592D29" stroke-width="0.3" stroke-linecap="round" stroke-linejoin="round"/>
<path d="M61.313 189.96C62.7289 189.96 63.8627 190.684 64.6177 191.879L64.7236 192.049C64.9616 192.424 65.2906 192.732 65.6798 192.946C66.0691 193.16 66.5062 193.273 66.9504 193.273H68.6833C67.3529 191.368 64.516 187.309 64.2228 183.373L61.3418 187.121L61.313 189.96Z" fill="#2A6049"/>
<path d="M61.313 189.96C62.7289 189.96 63.8627 190.684 64.6177 191.879L64.7236 192.049C64.9616 192.424 65.2906 192.732 65.6798 192.946C66.0691 193.16 66.5062 193.273 66.9504 193.273H68.6833C67.3529 191.368 64.516 187.309 64.2228 183.373L61.3418 187.121L61.313 189.96Z" stroke="#59221D" stroke-width="0.3" stroke-linecap="round" stroke-linejoin="round"/>
<path d="M61.3428 187.119H48.4893V189.96H61.3428V187.119Z" fill="white" stroke="#59221D" stroke-width="0.3" stroke-linecap="round" stroke-linejoin="round"/>
<path d="M50.577 187.117V189.96" stroke="#59221D" stroke-width="0.3" stroke-linecap="round" stroke-linejoin="round"/>
<path d="M52.7107 187.117V189.96" stroke="#59221D" stroke-width="0.3" stroke-linecap="round" stroke-linejoin="round"/>
<path d="M54.8435 187.117V189.96" stroke="#59221D" stroke-width="0.3" stroke-linecap="round" stroke-linejoin="round"/>
<path d="M56.9771 187.117V189.96" stroke="#59221D" stroke-width="0.3" stroke-linecap="round" stroke-linejoin="round"/>
<path d="M59.1107 187.117V189.96" stroke="#59221D" stroke-width="0.3" stroke-linecap="round" stroke-linejoin="round"/>
<path d="M21.7976 198.18H15.4323C14.6696 198.18 13.6071 198.18 12.8012 197.469L1.78561 188.84C0.422212 187.773 1.08823 186.657 1.87627 185.816L6.04949 181.312C6.04949 181.312 13.0656 185.607 18.5107 185.361C20.0571 185.292 21.4764 184.933 22.4534 183.107C21.1443 185.586 21.6383 192.117 23.4431 195.389C23.6008 195.675 23.6811 195.997 23.6763 196.324C23.6715 196.651 23.5817 196.971 23.4156 197.253C23.2496 197.534 23.0132 197.768 22.7295 197.931C22.4458 198.093 22.1246 198.179 21.7976 198.18Z" fill="white" stroke="#59221D" stroke-width="0.3" stroke-linecap="round" stroke-linejoin="round"/>
<path d="M21.7975 198.18H15.4322C14.6696 198.18 13.6079 198.18 12.8012 197.469L1.78557 188.84C0.504365 187.838 1.01447 186.792 1.73472 185.972C1.74404 186.402 1.96266 186.845 2.51937 187.28L13.535 195.909C14.3417 196.622 15.4068 196.622 16.1669 196.622H22.5313C22.9479 196.624 23.3531 196.487 23.6821 196.231C23.6907 196.484 23.6483 196.736 23.5575 196.972C23.4667 197.208 23.3293 197.423 23.1534 197.605C22.9776 197.787 22.7669 197.932 22.534 198.031C22.301 198.129 22.0506 198.18 21.7975 198.18Z" fill="#A74602"/>
<path d="M21.7975 198.18H15.4322C14.6696 198.18 13.6079 198.18 12.8012 197.469L1.78557 188.84C0.504365 187.838 1.01447 186.792 1.73472 185.972C1.74404 186.402 1.96266 186.845 2.51937 187.28L13.535 195.909C14.3417 196.622 15.4068 196.622 16.1669 196.622H22.5313C22.9479 196.624 23.3531 196.487 23.6821 196.231C23.6907 196.484 23.6483 196.736 23.5575 196.972C23.4667 197.208 23.3293 197.423 23.1534 197.605C22.9776 197.787 22.7669 197.932 22.534 198.031C22.301 198.129 22.0506 198.18 21.7975 198.18V198.18Z" stroke="#59221D" stroke-width="0.3" stroke-linecap="round" stroke-linejoin="round"/>
<path d="M18.5199 185.364L7.4552 178.826L6.00892 181.272L17.0736 187.81L18.5199 185.364Z" fill="white" stroke="#59221D" stroke-width="0.3" stroke-linecap="round" stroke-linejoin="round"/>
<path d="M9.24904 179.883L7.80176 182.33" stroke="#59221D" stroke-width="0.3" stroke-linecap="round" stroke-linejoin="round"/>
<path d="M11.0852 180.969L9.63794 183.415" stroke="#59221D" stroke-width="0.3" stroke-linecap="round" stroke-linejoin="round"/>
<path d="M12.9215 182.053L11.4742 184.5" stroke="#59221D" stroke-width="0.3" stroke-linecap="round" stroke-linejoin="round"/>
<path d="M14.7586 183.138L13.3104 185.586" stroke="#59221D" stroke-width="0.3" stroke-linecap="round" stroke-linejoin="round"/>
<path d="M16.5947 184.223L15.1466 186.671" stroke="#59221D" stroke-width="0.3" stroke-linecap="round" stroke-linejoin="round"/>
<path d="M22.145 191.519H20.7638C20.4535 191.52 20.1531 191.411 19.9148 191.212C19.6765 191.014 19.5154 190.738 19.4597 190.433L19.3979 190.094C19.3358 189.754 19.1997 189.431 18.999 189.15C18.7984 188.868 18.5383 188.634 18.237 188.464L17.0676 187.803L18.5149 185.358C20.0605 185.287 21.4806 184.93 22.4576 183.104C21.5637 184.799 21.5095 188.378 22.145 191.519Z" fill="#2A6049"/>
<path d="M22.145 191.519H20.7638C20.4535 191.52 20.1531 191.411 19.9148 191.212C19.6765 191.014 19.5154 190.738 19.4597 190.433L19.3979 190.094C19.3358 189.754 19.1997 189.431 18.999 189.15C18.7984 188.868 18.5383 188.634 18.237 188.464L17.0676 187.803L18.5149 185.358C20.0605 185.287 21.4806 184.93 22.4576 183.104C21.5637 184.799 21.5095 188.378 22.145 191.519Z" stroke="#59221D" stroke-width="0.3" stroke-linecap="round" stroke-linejoin="round"/>
<path d="M92.4457 18.3877L94.9336 12.5265C95.2898 11.6869 95.8855 10.9706 96.6463 10.4671C97.4071 9.96352 98.2994 9.69503 99.2118 9.69507H107.315C107.933 9.69518 108.532 9.90683 109.012 10.2947C109.492 10.6827 109.825 11.2234 109.955 11.8269L110.276 13.3236H108.327C108.053 13.3239 107.786 13.406 107.559 13.5593C107.333 13.7127 107.158 13.9303 107.056 14.1841L105.517 18.0176C105.063 19.1497 104.279 20.1199 103.269 20.8033C102.258 21.4866 101.065 21.8518 99.8448 21.8519H94.7429C94.331 21.8524 93.9254 21.7508 93.5623 21.5563C93.1993 21.3618 92.8901 21.0803 92.6625 20.7371C92.435 20.3939 92.2961 19.9997 92.2582 19.5897C92.2204 19.1797 92.2848 18.7667 92.4457 18.3877Z" fill="white" stroke="#59221D" stroke-width="0.3" stroke-linecap="round" stroke-linejoin="round"/>
<path d="M98.0603 12.5265C98.4168 11.6869 99.0126 10.9706 99.7736 10.4671C100.534 9.96359 101.427 9.69509 102.339 9.69507" stroke="#59221D" stroke-width="0.3" stroke-linecap="round" stroke-linejoin="round"/>
<path d="M101.188 12.5265C101.544 11.6868 102.14 10.9705 102.901 10.467C103.662 9.96343 104.554 9.69498 105.467 9.69507" stroke="#59221D" stroke-width="0.3" stroke-linecap="round" stroke-linejoin="round"/>
<path d="M104.316 12.5264C104.624 11.8006 105.111 11.1651 105.733 10.6797C106.355 10.1943 107.089 9.87492 107.869 9.75171" stroke="#59221D" stroke-width="0.3" stroke-linecap="round" stroke-linejoin="round"/>
<path d="M41.6418 40.0908L43.1967 36.1497L50.0679 36.1311V40.0908H41.6418Z" fill="white" stroke="#59221D" stroke-width="0.3" stroke-linecap="round" stroke-linejoin="round"/>
<path d="M45.4642 36.8308C47.5208 38.6942 51.1713 37.1569 51.1713 37.1569C51.1162 36.459 51.0416 36.2523 50.9645 35.2893C50.9382 34.9564 51.8907 34.8658 51.8644 34.5363C51.7314 32.8661 50.6306 30.3861 50.6179 30.2354C48.9927 32.5807 45.2592 32.042 45.2592 32.042L45.4642 36.8308Z" fill="white" stroke="#59221D" stroke-width="0.3" stroke-linecap="round" stroke-linejoin="round"/>
<path d="M48.7036 32.7966C48.7036 32.7966 49.0773 32.1834 50.1247 32.075" stroke="#59221D" stroke-width="0.3" stroke-linecap="round" stroke-linejoin="round"/>
<path d="M49.6951 33.9714C49.8421 33.9714 49.9612 33.7548 49.9612 33.4878C49.9612 33.2207 49.8421 33.0042 49.6951 33.0042C49.5481 33.0042 49.429 33.2207 49.429 33.4878C49.429 33.7548 49.5481 33.9714 49.6951 33.9714Z" fill="#59221D"/>
<path d="M51.4161 37.3332C51.4297 37.4512 51.4194 37.5707 51.3858 37.6847C51.3522 37.7987 51.296 37.9047 51.2206 37.9965C51.1452 38.0883 51.0521 38.1641 50.9468 38.2192C50.8415 38.2743 50.7262 38.3077 50.6077 38.3174C49.2172 38.4283 46.0515 38.4868 45.3143 36.9393C45.2719 36.8546 45.2346 36.8453 45.2007 36.7521C43.9297 36.7564 42.8552 37.0706 42.2519 35.1598C41.8723 33.9571 41.6774 31.926 41.9867 31.2823C42.3434 30.5386 50.7628 26.5273 51.2678 26.8161C51.7729 27.1049 51.9457 29.0564 50.784 30.4802C49.6951 31.8108 47.7623 32.3605 45.8481 32.3021C46.1684 33.3184 46.8785 34.9675 48.3283 35.1572C50.4467 35.4325 51.1246 34.7998 51.1246 34.7998L51.4161 37.3332Z" fill="#59221D"/>
<path d="M45.732 34.6921L45.7235 36.8578H44.3364C43.915 36.8578 43.5109 36.6905 43.2129 36.3927C42.9149 36.0949 42.7476 35.6909 42.7476 35.2697C42.7476 34.8486 42.9149 34.4446 43.2129 34.1468C43.5109 33.849 43.915 33.6816 44.3364 33.6816H44.7261C44.8586 33.6818 44.9898 33.708 45.1121 33.7589C45.2344 33.8098 45.3455 33.8843 45.4389 33.9782C45.5324 34.072 45.6063 34.1834 45.6566 34.3059C45.7069 34.4284 45.7325 34.5597 45.732 34.6921Z" fill="white" stroke="#59221D" stroke-width="0.3" stroke-linecap="round" stroke-linejoin="round"/>
<path d="M44.072 34.5557C44.3043 34.5557 44.5271 34.6476 44.6916 34.8115C44.8562 34.9753 44.949 35.1976 44.9499 35.4298" stroke="#59221D" stroke-width="0.3" stroke-linecap="round" stroke-linejoin="round"/>
<path d="M24.8929 92.6446L24.7141 105.548C24.6853 106.266 24.5148 106.972 24.2125 107.625C23.9103 108.278 23.4822 108.865 22.9527 109.352C22.4232 109.84 21.8028 110.218 21.1269 110.465C20.451 110.712 19.733 110.824 19.014 110.793L13.2994 110.569C12.5236 110.535 11.7637 110.338 11.0702 109.988C10.3767 109.639 9.76562 109.146 9.27748 108.542C8.78934 107.939 8.43536 107.238 8.23907 106.487C8.04278 105.736 8.00868 104.952 8.13904 104.187L16.6007 54.5201C17.1501 51.2073 18.8582 48.197 21.4206 46.0254C23.9831 43.8539 27.2336 42.6621 30.5931 42.6623H77.9238C79.0764 42.6623 80.2004 42.3035 81.1397 41.6356C82.0789 40.9677 82.7867 40.024 83.1646 38.9356L88.5216 23.5001C88.9275 22.3303 89.6879 21.3158 90.6972 20.5979C91.7064 19.8799 92.9144 19.494 94.1532 19.4939H101.217C101.914 19.4935 102.601 19.6554 103.225 19.9666C103.849 20.2779 104.391 20.73 104.81 21.2871C105.229 21.8443 105.512 22.4912 105.637 23.1767C105.762 23.8622 105.726 24.5674 105.531 25.2365L97.7764 51.9419C97.0194 54.5494 95.4358 56.8407 93.2639 58.4712C91.092 60.1018 88.4492 60.9834 85.733 60.9835H69.7519C69.0384 60.9834 68.3319 61.1237 67.6727 61.3966C67.0135 61.6694 66.4146 62.0694 65.91 62.5736C65.4055 63.0778 65.0053 63.6765 64.7322 64.3353C64.4592 64.9942 64.3186 65.7004 64.3186 66.4135V92.7996L24.8929 92.6446Z" fill="#EC744A"/>
<path d="M97.6782 52.2605C96.8685 54.792 95.2748 57.0008 93.1272 58.5678C90.9796 60.1348 88.3894 60.9791 85.7305 60.9785H84.5145C84.303 60.2563 84.1957 59.5077 84.1959 58.7552C84.1959 54.2661 87.965 50.6241 92.6127 50.6241C94.4321 50.6183 96.2062 51.1914 97.6782 52.2605Z" fill="#A74602"/>
<path d="M21.556 78.5187C21.556 83.0509 18.2013 86.7251 14.0611 86.7251C13.0807 86.7258 12.1114 86.517 11.2183 86.1128L13.9103 70.314H14.0611C18.2013 70.3123 21.556 73.9865 21.556 78.5187Z" fill="#A74602"/>
<path d="M22.3407 108.555C22.4313 106.81 19.6053 105.244 16.0286 105.059C12.452 104.873 9.4791 106.138 9.38851 107.883C9.29792 109.628 12.1239 111.194 15.7006 111.379C19.2772 111.565 22.2501 110.3 22.3407 108.555Z" fill="#59221D"/>
<path d="M39.5004 42.6589L41.4815 39.8342H50.3244C50.3244 39.8342 53.036 42.6632 52.7318 42.6632L39.5004 42.6589Z" fill="#A74602"/>
<path d="M20.9756 113.108L20.2621 116.793C20.1846 117.198 19.9684 117.563 19.6506 117.826C19.3328 118.089 18.9332 118.233 18.5208 118.233H17.1853L16.5524 120.328C16.3778 120.904 16.0223 121.409 15.5384 121.768C15.0545 122.127 14.4679 122.321 13.8654 122.321H5.28255C5.02832 122.32 4.77665 122.27 4.54192 122.172C4.30718 122.075 4.09398 121.932 3.91449 121.752C3.735 121.572 3.59274 121.358 3.49584 121.123C3.39894 120.889 3.34929 120.637 3.34973 120.383C3.34996 119.994 3.50448 119.622 3.77934 119.347C4.05421 119.072 4.42694 118.918 4.81566 118.917H5.65539L8.72874 110.532C9.06808 109.607 9.68633 108.809 10.4983 108.249C11.3102 107.689 12.2758 107.395 13.2621 107.407L16.3549 107.438C17.0527 107.447 17.7401 107.608 18.3686 107.911C18.997 108.215 19.5512 108.652 19.9919 109.193C20.4326 109.734 20.7492 110.365 20.9191 111.041C21.0891 111.718 21.1084 112.423 20.9756 113.108Z" fill="white" stroke="#59221D" stroke-width="0.3" stroke-linecap="round" stroke-linejoin="round"/>
<path d="M8.23895 122.321C7.98451 122.321 7.73257 122.27 7.49754 122.173C7.26251 122.076 7.04901 121.933 6.86925 121.753C6.68949 121.573 6.547 121.359 6.44994 121.124C6.35288 120.889 6.30315 120.637 6.30359 120.383V120.383C6.30359 119.994 6.45804 119.621 6.73295 119.347C7.00787 119.072 7.38073 118.917 7.76952 118.917H8.60925L9.81249 115.633" stroke="#59221D" stroke-width="0.3" stroke-linecap="round" stroke-linejoin="round"/>
<path d="M11.192 122.321C10.9376 122.321 10.6857 122.27 10.4508 122.173C10.2159 122.075 10.0025 121.933 9.8228 121.753C9.64313 121.573 9.50072 121.359 9.40372 121.124C9.30671 120.889 9.257 120.637 9.25745 120.383V120.383C9.25745 119.994 9.41189 119.621 9.68681 119.347C9.96172 119.072 10.3346 118.917 10.7234 118.917H11.5631L12.7664 115.633" stroke="#59221D" stroke-width="0.3" stroke-linecap="round" stroke-linejoin="round"/>
<path d="M13.8858 122.321C13.6314 122.321 13.3794 122.27 13.1444 122.173C12.9094 122.076 12.6959 121.933 12.5161 121.753C12.3363 121.573 12.1939 121.359 12.0968 121.124C11.9997 120.889 11.95 120.637 11.9504 120.383V120.383C11.9504 119.994 12.1049 119.621 12.3798 119.347C12.6547 119.072 13.0276 118.917 13.4164 118.917H14.2561L15.1407 116.504" stroke="#59221D" stroke-width="0.3" stroke-linecap="round" stroke-linejoin="round"/>
<path d="M18.6437 118.23H14.795V117.872C14.795 117.11 15.3035 116.355 16.0313 116.143L16.9278 115.866C16.9278 115.866 15.1408 115.069 15.4873 111.843" stroke="#59221D" stroke-width="0.3" stroke-linecap="round" stroke-linejoin="round"/>
<path d="M64.2271 93.0894V172.755L64.1957 172.7V183.408C64.1955 184.391 63.8045 185.335 63.1087 186.03C62.4129 186.726 61.4692 187.117 60.4852 187.117H47.813C46.8916 187.117 46.0079 186.751 45.3564 186.1C44.7049 185.448 44.3388 184.565 44.3388 183.644V130.557C44.3388 130.557 42.3467 154.238 22.4585 183.107C21.6306 184.468 20.5392 185.119 19.3232 185.289C19.04 185.328 18.754 185.343 18.4683 185.333L7.45096 178.825L6.98406 178.409C6.19982 177.788 5.65957 176.91 5.45814 175.93C5.2567 174.95 5.40694 173.931 5.8825 173.051C12.0885 161.575 27.0011 127.906 24.8844 92.9412L64.2271 93.0894Z" fill="white" stroke="#59221D" stroke-width="0.3" stroke-linecap="round" stroke-linejoin="round"/>
<path d="M44.338 131.404V108.83L40.6571 108.768" stroke="#59221D" stroke-width="0.3" stroke-linecap="round" stroke-linejoin="round"/>
<path d="M55.7959 123.262H64.2178V126.041H55.0011V124.059C55.0009 123.954 55.0213 123.851 55.0611 123.754C55.101 123.657 55.1595 123.57 55.2333 123.496C55.3071 123.422 55.3948 123.363 55.4914 123.323C55.5879 123.283 55.6914 123.262 55.7959 123.262Z" fill="white" stroke="#59221D" stroke-width="0.3" stroke-linecap="round" stroke-linejoin="round"/>
<path d="M55.8027 126.043H64.2271V134.464H57.0924C56.9228 134.464 56.7549 134.43 56.5983 134.365C56.4416 134.3 56.2994 134.205 56.1796 134.085C56.0598 133.965 55.9648 133.823 55.9002 133.666C55.8355 133.509 55.8024 133.342 55.8027 133.172V126.041V126.043Z" fill="white" stroke="#59221D" stroke-width="0.3" stroke-linecap="round" stroke-linejoin="round"/>
<path d="M64.9931 42.6589H58.6379C57.5142 42.6589 56.4303 43.075 55.5954 43.8269C54.7606 44.5788 54.234 45.6132 54.1173 46.7303L53.1581 91.0685C52.9468 93.0881 51.9947 94.958 50.4855 96.3173C48.9762 97.6766 47.0169 98.4291 44.9854 98.4296H30.7464C29.7177 98.4297 28.701 98.2083 27.7655 97.7805C26.83 97.3528 25.9976 96.7288 25.3249 95.9508C24.6522 95.1729 24.1549 94.2593 23.8669 93.2721C23.5789 92.285 23.5069 91.2474 23.6558 90.23L29.9847 46.8261C30.1541 45.6668 30.7354 44.6073 31.6224 43.8414C32.5093 43.0756 33.6425 42.6546 34.8146 42.6555H39.2615C38.1387 42.6552 37.0556 43.0704 36.2209 43.8211C35.3863 44.5719 34.8594 45.6049 34.7417 46.721L34.629 47.7992C34.577 48.2944 34.6297 48.7949 34.7836 49.2684C34.9376 49.7418 35.1894 50.1777 35.5228 50.5476C35.8561 50.9175 36.2635 51.2133 36.7185 51.4157C37.1736 51.6181 37.6661 51.7226 38.1642 51.7225H45.0023C45.8158 51.7211 46.6043 51.4413 47.2364 50.9294C47.8686 50.4176 48.3062 49.7048 48.4765 48.9096L48.9849 46.5118C49.2174 45.4197 49.818 44.4405 50.6862 43.738C51.5544 43.0354 52.6376 42.6521 53.7546 42.6521L64.9931 42.6589Z" fill="#2A6049"/>
<path d="M23.4668 90.2274C23.3186 91.2446 23.3911 92.2818 23.6795 93.2686C23.9678 94.2553 24.4653 95.1684 25.138 95.946C25.8107 96.7235 26.643 97.3472 27.5783 97.7747C28.5135 98.2023 29.5299 98.4236 30.5583 98.4237H45.0743C47.1046 98.4222 49.0625 97.6697 50.5707 96.3112C52.0789 94.9526 53.0308 93.0842 53.2428 91.0659L54.2003 46.7277C54.3168 45.6106 54.8432 44.5762 55.6779 43.8243C56.5126 43.0724 57.5964 42.6563 58.7201 42.6562" stroke="#59221D" stroke-width="0.3" stroke-linecap="round" stroke-linejoin="round"/>
<path d="M23.5267 90.2301C23.723 91.9815 24.5581 93.5993 25.8725 94.7741C27.1868 95.9489 28.8881 96.5985 30.6513 96.5985H40.3958C42.4271 96.5979 44.3861 95.8454 45.8951 94.4862C47.4041 93.1271 48.3562 91.2576 48.5677 89.2382L53.1951 46.7339C53.4366 44.42 55.4474 42.5634 58.5622 42.6625" stroke="#59221D" stroke-width="0.3" stroke-linecap="round" stroke-linejoin="round"/>
<path d="M39.3522 42.6587C37.0254 42.6587 34.8206 44.4145 34.5782 46.7243L34.4647 47.8025C34.4135 48.2974 34.4667 48.7977 34.621 49.2708C34.7753 49.7439 35.0271 50.1794 35.3603 50.5491C35.6935 50.9189 36.1005 51.2147 36.5552 51.4173C37.0099 51.62 37.502 51.7251 37.9998 51.7257" stroke="#59221D" stroke-width="0.3" stroke-linecap="round" stroke-linejoin="round"/>
<path d="M31.6616 78.4331C31.3878 78.4332 31.1236 78.534 30.9193 78.7163C30.7151 78.8986 30.5851 79.1496 30.5541 79.4215L29.7517 86.5176C29.7263 86.7327 29.7468 86.9508 29.8119 87.1574C29.877 87.364 29.9851 87.5545 30.1293 87.7163C30.2734 87.878 30.4502 88.0074 30.648 88.0958C30.8459 88.1843 31.0602 88.2298 31.2769 88.2294H41.4189C41.9528 88.2294 42.4676 88.0302 42.8624 87.6709C43.2571 87.3115 43.5036 86.8178 43.5534 86.2864L44.2152 79.2191C44.2245 79.1193 44.2128 79.0186 44.181 78.9235C44.1492 78.8284 44.0978 78.741 44.0303 78.6668C43.9627 78.5927 43.8805 78.5335 43.7887 78.4929C43.697 78.4524 43.5978 78.4314 43.4974 78.4314L31.6616 78.4331Z" fill="white"/>
<path d="M42.213 79.519H28.7875L29.0417 78.146C29.074 77.9692 29.1673 77.8093 29.3054 77.6941C29.4436 77.579 29.6177 77.5159 29.7975 77.5159H42.3968L42.213 79.519Z" stroke="#59221D" stroke-width="0.3" stroke-linecap="round" stroke-linejoin="round"/>
<path d="M29.55 79.519L28.8339 85.6004C28.8087 85.8155 28.8293 86.0335 28.8945 86.24C28.9596 86.4466 29.0678 86.637 29.2119 86.7987C29.356 86.9605 29.5327 87.0898 29.7305 87.1783C29.9282 87.2668 30.1425 87.3124 30.3592 87.3121H40.5012C41.0352 87.3123 41.55 87.1132 41.9449 86.7538C42.3397 86.3944 42.586 85.9006 42.6357 85.3692L43.2974 78.3036C43.3068 78.2037 43.2951 78.103 43.2633 78.0079C43.2315 77.9129 43.1801 77.8255 43.1126 77.7513C43.045 77.6772 42.9628 77.618 42.871 77.5774C42.7793 77.5369 42.68 77.5159 42.5797 77.5159" stroke="#59221D" stroke-width="0.3" stroke-linecap="round" stroke-linejoin="round"/>
<path d="M33.3632 55.7H47.0886" stroke="#59221D" stroke-width="0.3" stroke-linecap="round" stroke-linejoin="round"/>
</svg>
