<svg width="298" height="40" viewBox="0 0 298 40" fill="none" xmlns="http://www.w3.org/2000/svg">
<path d="M10.4502 15H11.8213V9.19189H13.3384V8.10645H11.8086V7.44629C11.8086 6.74805 12.1069 6.37988 12.8687 6.37988C13.0845 6.37988 13.2686 6.39258 13.3955 6.41162V5.40234C13.1606 5.36426 12.894 5.33887 12.583 5.33887C11.1484 5.33887 10.4502 6.01172 10.4502 7.38281V8.10645H9.31396V9.19189H10.4502V15ZM14.8872 15H16.2646V10.8804C16.2646 9.88379 16.9819 9.23633 18.0356 9.23633C18.2959 9.23633 18.5308 9.26807 18.7783 9.31885V8.04932C18.6387 8.01758 18.3975 7.98584 18.1753 7.98584C17.2549 7.98584 16.6138 8.41748 16.3662 9.14746H16.2646V8.10645H14.8872V15ZM20.8096 6.875C21.2793 6.875 21.6729 6.48779 21.6729 6.01807C21.6729 5.54199 21.2793 5.15479 20.8096 5.15479C20.3335 5.15479 19.9463 5.54199 19.9463 6.01807C19.9463 6.48779 20.3335 6.875 20.8096 6.875ZM20.1177 15H21.4888V8.10645H20.1177V15ZM26.3892 15.1333C28.1538 15.1333 29.106 14.1177 29.3345 13.21L29.3472 13.1528L28.0205 13.1592L27.9951 13.21C27.8301 13.5654 27.3032 14.0034 26.4209 14.0034C25.2847 14.0034 24.561 13.2354 24.5356 11.915H29.4233V11.4326C29.4233 9.36328 28.2427 7.97314 26.3193 7.97314C24.396 7.97314 23.1519 9.41406 23.1519 11.5659V11.5723C23.1519 13.7559 24.3706 15.1333 26.3892 15.1333ZM26.3257 9.10303C27.2588 9.10303 27.9507 9.69971 28.0586 10.9312H24.5547C24.6753 9.74414 25.3862 9.10303 26.3257 9.10303ZM31.061 15H32.4385V10.9565C32.4385 9.8457 33.0669 9.15381 34.0762 9.15381C35.0854 9.15381 35.5615 9.71875 35.5615 10.8613V15H36.9326V10.5376C36.9326 8.89355 36.082 7.97314 34.5396 7.97314C33.5366 7.97314 32.8765 8.41748 32.54 9.15381H32.4385V8.10645H31.061V15ZM41.3696 15.1143C42.3345 15.1143 43.0898 14.6699 43.4897 13.9146H43.5977V15H44.9688V5.40234H43.5977V9.19824H43.4897C43.1216 8.45557 42.3154 7.98584 41.3696 7.98584C39.6177 7.98584 38.5132 9.36328 38.5132 11.5469V11.5596C38.5132 13.7241 39.6367 15.1143 41.3696 15.1143ZM41.7632 13.9399C40.6079 13.9399 39.916 13.0386 39.916 11.5596V11.5469C39.916 10.0679 40.6079 9.1665 41.7632 9.1665C42.9058 9.1665 43.6167 10.0742 43.6167 11.5469V11.5596C43.6167 13.0322 42.9121 13.9399 41.7632 13.9399ZM1.05566 35H2.43311V30.8804C2.43311 29.8838 3.15039 29.2363 4.2041 29.2363C4.46436 29.2363 4.69922 29.2681 4.94678 29.3188V28.0493C4.80713 28.0176 4.56592 27.9858 4.34375 27.9858C3.42334 27.9858 2.78223 28.4175 2.53467 29.1475H2.43311V28.1064H1.05566V35ZM8.97754 35.1333C10.7422 35.1333 11.6943 34.1177 11.9229 33.21L11.9355 33.1528L10.6089 33.1592L10.5835 33.21C10.4185 33.5654 9.8916 34.0034 9.00928 34.0034C7.87305 34.0034 7.14941 33.2354 7.12402 31.915H12.0117V31.4326C12.0117 29.3633 10.8311 27.9731 8.90771 27.9731C6.98438 27.9731 5.74023 29.4141 5.74023 31.5659V31.5723C5.74023 33.7559 6.95898 35.1333 8.97754 35.1333ZM8.91406 29.103C9.84717 29.103 10.5391 29.6997 10.647 30.9312H7.14307C7.26367 29.7441 7.97461 29.103 8.91406 29.103ZM18.4038 37.2979H19.7749V28.1064H18.4038V29.249H18.3213C17.9087 28.4683 17.1089 27.9858 16.1821 27.9858C14.4175 27.9858 13.313 29.3633 13.313 31.5469V31.5596C13.313 33.7241 14.4302 35.1143 16.1694 35.1143C17.1533 35.1143 17.9341 34.689 18.2959 33.959H18.4038V37.2979ZM16.5693 33.9399C15.4141 33.9399 14.7158 33.0386 14.7158 31.5596V31.5469C14.7158 30.0679 15.4141 29.1665 16.563 29.1665C17.7056 29.1665 18.4292 30.0806 18.4292 31.5469V31.5596C18.4292 33.0195 17.7056 33.9399 16.5693 33.9399ZM24.0469 35.1333C25.0498 35.1333 25.748 34.7017 26.0781 33.959H26.186V35H27.5571V28.1064H26.186V32.1499C26.186 33.2607 25.5957 33.9526 24.4912 33.9526C23.4819 33.9526 23.063 33.3877 23.063 32.2451V28.1064H21.6855V32.5688C21.6855 34.2002 22.4917 35.1333 24.0469 35.1333ZM32.4385 35.1333C34.2031 35.1333 35.1553 34.1177 35.3838 33.21L35.3965 33.1528L34.0698 33.1592L34.0444 33.21C33.8794 33.5654 33.3525 34.0034 32.4702 34.0034C31.334 34.0034 30.6104 33.2354 30.585 31.915H35.4727V31.4326C35.4727 29.3633 34.292 27.9731 32.3687 27.9731C30.4453 27.9731 29.2012 29.4141 29.2012 31.5659V31.5723C29.2012 33.7559 30.4199 35.1333 32.4385 35.1333ZM32.375 29.103C33.3081 29.103 34 29.6997 34.1079 30.9312H30.604C30.7246 29.7441 31.4355 29.103 32.375 29.103ZM39.6177 35.1333C41.2554 35.1333 42.4741 34.2637 42.4741 32.9878V32.9751C42.4741 31.9785 41.8394 31.4136 40.5127 31.1025L39.4209 30.855C38.6465 30.6709 38.3291 30.4043 38.3291 29.9727V29.96C38.3291 29.4077 38.875 29.0332 39.6304 29.0332C40.4048 29.0332 40.8936 29.395 41.0269 29.8774V29.8901H42.3408V29.8838C42.2202 28.7603 41.2109 27.9731 39.6367 27.9731C38.0752 27.9731 36.958 28.8364 36.958 30.0361V30.0425C36.958 31.0518 37.561 31.6421 38.8623 31.9404L39.9604 32.1943C40.7603 32.3784 41.084 32.6704 41.084 33.1021V33.1147C41.084 33.6797 40.4937 34.0669 39.6431 34.0669C38.8242 34.0669 38.3228 33.7178 38.1514 33.1973L38.145 33.1909H36.7676V33.1973C36.9009 34.3525 37.9546 35.1333 39.6177 35.1333ZM46.6699 35.0444C46.9365 35.0444 47.1904 35.0127 47.4126 34.9746V33.8765C47.2222 33.8955 47.1016 33.9019 46.8921 33.9019C46.2129 33.9019 45.9336 33.5972 45.9336 32.8545V29.1919H47.4126V28.1064H45.9336V26.3672H44.5308V28.1064H43.4517V29.1919H44.5308V33.1846C44.5308 34.5112 45.1528 35.0444 46.6699 35.0444ZM51.4243 35.1333C53.062 35.1333 54.2808 34.2637 54.2808 32.9878V32.9751C54.2808 31.9785 53.646 31.4136 52.3193 31.1025L51.2275 30.855C50.4531 30.6709 50.1357 30.4043 50.1357 29.9727V29.96C50.1357 29.4077 50.6816 29.0332 51.437 29.0332C52.2114 29.0332 52.7002 29.395 52.8335 29.8774V29.8901H54.1475V29.8838C54.0269 28.7603 53.0176 27.9731 51.4434 27.9731C49.8818 27.9731 48.7646 28.8364 48.7646 30.0361V30.0425C48.7646 31.0518 49.3677 31.6421 50.6689 31.9404L51.7671 32.1943C52.5669 32.3784 52.8906 32.6704 52.8906 33.1021V33.1147C52.8906 33.6797 52.3003 34.0669 51.4497 34.0669C50.6309 34.0669 50.1294 33.7178 49.958 33.1973L49.9517 33.1909H48.5742V33.1973C48.7075 34.3525 49.7612 35.1333 51.4243 35.1333Z" fill="#424D47"/>
<path d="M128.439 15.1333C129.442 15.1333 130.141 14.7017 130.471 13.959H130.579V15H131.95V8.10645H130.579V12.1499C130.579 13.2607 129.988 13.9526 128.884 13.9526C127.875 13.9526 127.456 13.3877 127.456 12.2451V8.10645H126.078V12.5688C126.078 14.2002 126.884 15.1333 128.439 15.1333ZM133.937 15H135.314V10.9565C135.314 9.8457 135.942 9.15381 136.952 9.15381C137.961 9.15381 138.437 9.71875 138.437 10.8613V15H139.808V10.5376C139.808 8.89355 138.958 7.97314 137.415 7.97314C136.412 7.97314 135.752 8.41748 135.416 9.15381H135.314V8.10645H133.937V15ZM141.731 15H143.109V10.8804C143.109 9.88379 143.826 9.23633 144.88 9.23633C145.14 9.23633 145.375 9.26807 145.623 9.31885V8.04932C145.483 8.01758 145.242 7.98584 145.02 7.98584C144.099 7.98584 143.458 8.41748 143.21 9.14746H143.109V8.10645H141.731V15ZM149.653 15.1333C151.418 15.1333 152.37 14.1177 152.599 13.21L152.611 13.1528L151.285 13.1592L151.259 13.21C151.094 13.5654 150.567 14.0034 149.685 14.0034C148.549 14.0034 147.825 13.2354 147.8 11.915H152.688V11.4326C152.688 9.36328 151.507 7.97314 149.583 7.97314C147.66 7.97314 146.416 9.41406 146.416 11.5659V11.5723C146.416 13.7559 147.635 15.1333 149.653 15.1333ZM149.59 9.10303C150.523 9.10303 151.215 9.69971 151.323 10.9312H147.819C147.939 9.74414 148.65 9.10303 149.59 9.10303ZM156.217 15.1143C157.131 15.1143 157.854 14.7207 158.261 14.0225H158.369V15H159.733V10.2837C159.733 8.83643 158.756 7.97314 157.023 7.97314C155.455 7.97314 154.37 8.72852 154.205 9.8584L154.198 9.90283H155.525L155.531 9.87744C155.696 9.38867 156.198 9.10938 156.959 9.10938C157.893 9.10938 158.369 9.52832 158.369 10.2837V10.8931L156.502 11.001C154.858 11.1025 153.932 11.8198 153.932 13.0513V13.064C153.932 14.3145 154.903 15.1143 156.217 15.1143ZM155.303 13.0068V12.9941C155.303 12.3721 155.734 12.0293 156.687 11.9722L158.369 11.8643V12.4546C158.369 13.3433 157.613 14.0161 156.585 14.0161C155.842 14.0161 155.303 13.6416 155.303 13.0068ZM164.189 15.1143C165.154 15.1143 165.91 14.6699 166.31 13.9146H166.417V15H167.789V5.40234H166.417V9.19824H166.31C165.941 8.45557 165.135 7.98584 164.189 7.98584C162.438 7.98584 161.333 9.36328 161.333 11.5469V11.5596C161.333 13.7241 162.457 15.1143 164.189 15.1143ZM164.583 13.9399C163.428 13.9399 162.736 13.0386 162.736 11.5596V11.5469C162.736 10.0679 163.428 9.1665 164.583 9.1665C165.726 9.1665 166.437 10.0742 166.437 11.5469V11.5596C166.437 13.0322 165.732 13.9399 164.583 13.9399ZM116.455 35H117.833V30.7661C117.833 29.8647 118.448 29.1538 119.28 29.1538C120.092 29.1538 120.606 29.6489 120.606 30.436V35H121.978V30.6392C121.978 29.8076 122.555 29.1538 123.431 29.1538C124.333 29.1538 124.764 29.6235 124.764 30.5757V35H126.135V30.2456C126.135 28.811 125.323 27.9731 123.933 27.9731C122.974 27.9731 122.181 28.4619 121.832 29.2046H121.724C121.419 28.4619 120.752 27.9731 119.813 27.9731C118.912 27.9731 118.239 28.4111 117.934 29.1665H117.833V28.1064H116.455V35ZM130.953 35.1333C132.718 35.1333 133.67 34.1177 133.898 33.21L133.911 33.1528L132.584 33.1592L132.559 33.21C132.394 33.5654 131.867 34.0034 130.985 34.0034C129.849 34.0034 129.125 33.2354 129.1 31.915H133.987V31.4326C133.987 29.3633 132.807 27.9731 130.883 27.9731C128.96 27.9731 127.716 29.4141 127.716 31.5659V31.5723C127.716 33.7559 128.935 35.1333 130.953 35.1333ZM130.89 29.103C131.823 29.103 132.515 29.6997 132.623 30.9312H129.119C129.239 29.7441 129.95 29.103 130.89 29.103ZM138.132 35.1333C139.77 35.1333 140.989 34.2637 140.989 32.9878V32.9751C140.989 31.9785 140.354 31.4136 139.027 31.1025L137.936 30.855C137.161 30.6709 136.844 30.4043 136.844 29.9727V29.96C136.844 29.4077 137.39 29.0332 138.145 29.0332C138.919 29.0332 139.408 29.395 139.542 29.8774V29.8901H140.855V29.8838C140.735 28.7603 139.726 27.9731 138.151 27.9731C136.59 27.9731 135.473 28.8364 135.473 30.0361V30.0425C135.473 31.0518 136.076 31.6421 137.377 31.9404L138.475 32.1943C139.275 32.3784 139.599 32.6704 139.599 33.1021V33.1147C139.599 33.6797 139.008 34.0669 138.158 34.0669C137.339 34.0669 136.837 33.7178 136.666 33.1973L136.66 33.1909H135.282V33.1973C135.416 34.3525 136.469 35.1333 138.132 35.1333ZM145.013 35.1333C146.651 35.1333 147.87 34.2637 147.87 32.9878V32.9751C147.87 31.9785 147.235 31.4136 145.908 31.1025L144.816 30.855C144.042 30.6709 143.725 30.4043 143.725 29.9727V29.96C143.725 29.4077 144.271 29.0332 145.026 29.0332C145.8 29.0332 146.289 29.395 146.422 29.8774V29.8901H147.736V29.8838C147.616 28.7603 146.606 27.9731 145.032 27.9731C143.471 27.9731 142.354 28.8364 142.354 30.0361V30.0425C142.354 31.0518 142.957 31.6421 144.258 31.9404L145.356 32.1943C146.156 32.3784 146.479 32.6704 146.479 33.1021V33.1147C146.479 33.6797 145.889 34.0669 145.039 34.0669C144.22 34.0669 143.718 33.7178 143.547 33.1973L143.541 33.1909H142.163V33.1973C142.296 34.3525 143.35 35.1333 145.013 35.1333ZM151.405 35.1143C152.319 35.1143 153.043 34.7207 153.449 34.0225H153.557V35H154.922V30.2837C154.922 28.8364 153.944 27.9731 152.211 27.9731C150.644 27.9731 149.558 28.7285 149.393 29.8584L149.387 29.9028H150.713L150.72 29.8774C150.885 29.3887 151.386 29.1094 152.148 29.1094C153.081 29.1094 153.557 29.5283 153.557 30.2837V30.8931L151.691 31.001C150.047 31.1025 149.12 31.8198 149.12 33.0513V33.064C149.12 34.3145 150.091 35.1143 151.405 35.1143ZM150.491 33.0068V32.9941C150.491 32.3721 150.923 32.0293 151.875 31.9722L153.557 31.8643V32.4546C153.557 33.3433 152.802 34.0161 151.773 34.0161C151.031 34.0161 150.491 33.6416 150.491 33.0068ZM159.778 37.4312C161.733 37.4312 162.971 36.4282 162.971 34.8604V28.1064H161.6V29.2363H161.517C161.117 28.4619 160.368 27.9858 159.403 27.9858C157.613 27.9858 156.515 29.376 156.515 31.3438V31.3564C156.515 33.2988 157.607 34.6636 159.378 34.6636C160.324 34.6636 161.085 34.2446 161.504 33.4956H161.606V34.854C161.606 35.7935 160.933 36.3267 159.797 36.3267C158.864 36.3267 158.305 35.9902 158.191 35.5142L158.185 35.5015H156.794L156.782 35.5142C156.947 36.6631 158.026 37.4312 159.778 37.4312ZM159.759 33.5273C158.584 33.5273 157.924 32.6323 157.924 31.3501V31.3374C157.924 30.0552 158.584 29.1538 159.759 29.1538C160.92 29.1538 161.631 30.0552 161.631 31.3374V31.3501C161.631 32.6387 160.927 33.5273 159.759 33.5273ZM167.846 35.1333C169.61 35.1333 170.562 34.1177 170.791 33.21L170.804 33.1528L169.477 33.1592L169.452 33.21C169.287 33.5654 168.76 34.0034 167.877 34.0034C166.741 34.0034 166.018 33.2354 165.992 31.915H170.88V31.4326C170.88 29.3633 169.699 27.9731 167.776 27.9731C165.853 27.9731 164.608 29.4141 164.608 31.5659V31.5723C164.608 33.7559 165.827 35.1333 167.846 35.1333ZM167.782 29.103C168.715 29.103 169.407 29.6997 169.515 30.9312H166.011C166.132 29.7441 166.843 29.103 167.782 29.103ZM175.025 35.1333C176.663 35.1333 177.881 34.2637 177.881 32.9878V32.9751C177.881 31.9785 177.247 31.4136 175.92 31.1025L174.828 30.855C174.054 30.6709 173.736 30.4043 173.736 29.9727V29.96C173.736 29.4077 174.282 29.0332 175.038 29.0332C175.812 29.0332 176.301 29.395 176.434 29.8774V29.8901H177.748V29.8838C177.627 28.7603 176.618 27.9731 175.044 27.9731C173.482 27.9731 172.365 28.8364 172.365 30.0361V30.0425C172.365 31.0518 172.968 31.6421 174.27 31.9404L175.368 32.1943C176.167 32.3784 176.491 32.6704 176.491 33.1021V33.1147C176.491 33.6797 175.901 34.0669 175.05 34.0669C174.231 34.0669 173.73 33.7178 173.559 33.1973L173.552 33.1909H172.175V33.1973C172.308 34.3525 173.362 35.1333 175.025 35.1333Z" fill="#424D47"/>
<path d="M258.257 15.0444C258.524 15.0444 258.778 15.0127 259 14.9746V13.8765C258.81 13.8955 258.689 13.9019 258.479 13.9019C257.8 13.9019 257.521 13.5972 257.521 12.8545V9.19189H259V8.10645H257.521V6.36719H256.118V8.10645H255.039V9.19189H256.118V13.1846C256.118 14.5112 256.74 15.0444 258.257 15.0444ZM260.606 15H261.983V10.8804C261.983 9.88379 262.701 9.23633 263.754 9.23633C264.015 9.23633 264.25 9.26807 264.497 9.31885V8.04932C264.357 8.01758 264.116 7.98584 263.894 7.98584C262.974 7.98584 262.333 8.41748 262.085 9.14746H261.983V8.10645H260.606V15ZM266.528 6.875C266.998 6.875 267.392 6.48779 267.392 6.01807C267.392 5.54199 266.998 5.15479 266.528 5.15479C266.052 5.15479 265.665 5.54199 265.665 6.01807C265.665 6.48779 266.052 6.875 266.528 6.875ZM265.836 15H267.208V8.10645H265.836V15ZM269.213 17.2979H270.591V13.9082H270.692C271.061 14.6509 271.867 15.1143 272.812 15.1143C274.564 15.1143 275.669 13.7432 275.669 11.5596V11.5469C275.669 9.37598 274.552 7.98584 272.812 7.98584C271.848 7.98584 271.092 8.43652 270.692 9.19189H270.591V8.10645H269.213V17.2979ZM272.425 13.9399C271.276 13.9399 270.565 13.0322 270.565 11.5596V11.5469C270.565 10.0742 271.276 9.1665 272.425 9.1665C273.574 9.1665 274.266 10.0615 274.266 11.5469V11.5596C274.266 13.0386 273.574 13.9399 272.425 13.9399ZM234.765 26.875C235.234 26.875 235.628 26.4878 235.628 26.0181C235.628 25.542 235.234 25.1548 234.765 25.1548C234.289 25.1548 233.901 25.542 233.901 26.0181C233.901 26.4878 234.289 26.875 234.765 26.875ZM234.073 35H235.444V28.1064H234.073V35ZM237.45 35H238.827V30.9565C238.827 29.8457 239.456 29.1538 240.465 29.1538C241.474 29.1538 241.95 29.7188 241.95 30.8613V35H243.321V30.5376C243.321 28.8936 242.471 27.9731 240.928 27.9731C239.925 27.9731 239.265 28.4175 238.929 29.1538H238.827V28.1064H237.45V35ZM246.914 35H248.38L250.869 28.1064H249.421L247.708 33.6035H247.6L245.879 28.1064H244.419L246.914 35ZM252.97 26.875C253.439 26.875 253.833 26.4878 253.833 26.0181C253.833 25.542 253.439 25.1548 252.97 25.1548C252.494 25.1548 252.106 25.542 252.106 26.0181C252.106 26.4878 252.494 26.875 252.97 26.875ZM252.278 35H253.649V28.1064H252.278V35ZM258.257 35.0444C258.524 35.0444 258.778 35.0127 259 34.9746V33.8765C258.81 33.8955 258.689 33.9019 258.479 33.9019C257.8 33.9019 257.521 33.5972 257.521 32.8545V29.1919H259V28.1064H257.521V26.3672H256.118V28.1064H255.039V29.1919H256.118V33.1846C256.118 34.5112 256.74 35.0444 258.257 35.0444ZM262.498 35.1143C263.412 35.1143 264.135 34.7207 264.542 34.0225H264.649V35H266.014V30.2837C266.014 28.8364 265.037 27.9731 263.304 27.9731C261.736 27.9731 260.65 28.7285 260.485 29.8584L260.479 29.9028H261.806L261.812 29.8774C261.977 29.3887 262.479 29.1094 263.24 29.1094C264.173 29.1094 264.649 29.5283 264.649 30.2837V30.8931L262.783 31.001C261.139 31.1025 260.212 31.8198 260.212 33.0513V33.064C260.212 34.3145 261.184 35.1143 262.498 35.1143ZM261.583 33.0068V32.9941C261.583 32.3721 262.015 32.0293 262.967 31.9722L264.649 31.8643V32.4546C264.649 33.3433 263.894 34.0161 262.866 34.0161C262.123 34.0161 261.583 33.6416 261.583 33.0068ZM270.559 35.0444C270.826 35.0444 271.08 35.0127 271.302 34.9746V33.8765C271.111 33.8955 270.991 33.9019 270.781 33.9019C270.102 33.9019 269.823 33.5972 269.823 32.8545V29.1919H271.302V28.1064H269.823V26.3672H268.42V28.1064H267.341V29.1919H268.42V33.1846C268.42 34.5112 269.042 35.0444 270.559 35.0444ZM273.625 26.875C274.095 26.875 274.488 26.4878 274.488 26.0181C274.488 25.542 274.095 25.1548 273.625 25.1548C273.149 25.1548 272.762 25.542 272.762 26.0181C272.762 26.4878 273.149 26.875 273.625 26.875ZM272.933 35H274.304V28.1064H272.933V35ZM279.23 35.1333C281.249 35.1333 282.486 33.7812 282.486 31.5596V31.5469C282.486 29.3252 281.242 27.9731 279.23 27.9731C277.211 27.9731 275.967 29.3315 275.967 31.5469V31.5596C275.967 33.7812 277.205 35.1333 279.23 35.1333ZM279.23 33.9844C278.043 33.9844 277.376 33.0894 277.376 31.5596V31.5469C277.376 30.0171 278.043 29.1221 279.23 29.1221C280.411 29.1221 281.083 30.0171 281.083 31.5469V31.5596C281.083 33.083 280.411 33.9844 279.23 33.9844ZM284.13 35H285.508V30.9565C285.508 29.8457 286.136 29.1538 287.146 29.1538C288.155 29.1538 288.631 29.7188 288.631 30.8613V35H290.002V30.5376C290.002 28.8936 289.151 27.9731 287.609 27.9731C286.606 27.9731 285.946 28.4175 285.609 29.1538H285.508V28.1064H284.13V35ZM294.433 35.1333C296.07 35.1333 297.289 34.2637 297.289 32.9878V32.9751C297.289 31.9785 296.654 31.4136 295.328 31.1025L294.236 30.855C293.461 30.6709 293.144 30.4043 293.144 29.9727V29.96C293.144 29.4077 293.69 29.0332 294.445 29.0332C295.22 29.0332 295.708 29.395 295.842 29.8774V29.8901H297.156V29.8838C297.035 28.7603 296.026 27.9731 294.452 27.9731C292.89 27.9731 291.773 28.8364 291.773 30.0361V30.0425C291.773 31.0518 292.376 31.6421 293.677 31.9404L294.775 32.1943C295.575 32.3784 295.899 32.6704 295.899 33.1021V33.1147C295.899 33.6797 295.309 34.0669 294.458 34.0669C293.639 34.0669 293.138 33.7178 292.966 33.1973L292.96 33.1909H291.583V33.1973C291.716 34.3525 292.77 35.1333 294.433 35.1333Z" fill="#424D47"/>
</svg>
