<svg width="141" height="20" viewBox="0 0 141 20" fill="none" xmlns="http://www.w3.org/2000/svg">
<path d="M137 11V17C137 17.5304 136.789 18.0391 136.414 18.4142C136.039 18.7893 135.53 19 135 19H124C123.47 19 122.961 18.7893 122.586 18.4142C122.211 18.0391 122 17.5304 122 17V6C122 5.46957 122.211 4.96086 122.586 4.58579C122.961 4.21071 123.47 4 124 4H130M134 1H140M140 1V7M140 1L129 12" stroke="#424D47" stroke-linecap="round" stroke-linejoin="round"/>
<path d="M5.24316 16H7.21191V5.01367H11.1934V3.31738H1.25293V5.01367H5.24316V16ZM12.1777 16H14.085V10.2959C14.085 8.91602 15.0781 8.01953 16.5371 8.01953C16.8975 8.01953 17.2227 8.06348 17.5654 8.13379V6.37598C17.3721 6.33203 17.0381 6.28809 16.7305 6.28809C15.4561 6.28809 14.5684 6.88574 14.2256 7.89648H14.085V6.45508H12.1777V16ZM20.3779 4.75C21.0283 4.75 21.5732 4.21387 21.5732 3.56348C21.5732 2.9043 21.0283 2.36816 20.3779 2.36816C19.7188 2.36816 19.1826 2.9043 19.1826 3.56348C19.1826 4.21387 19.7188 4.75 20.3779 4.75ZM19.4199 16H21.3184V6.45508H19.4199V16ZM24.0957 19.1816H26.0029V14.4883H26.1436C26.6533 15.5166 27.7695 16.1582 29.0791 16.1582C31.5049 16.1582 33.0342 14.2598 33.0342 11.2363V11.2188C33.0342 8.21289 31.4873 6.28809 29.0791 6.28809C27.7432 6.28809 26.6973 6.91211 26.1436 7.95801H26.0029V6.45508H24.0957V19.1816ZM28.543 14.5322C26.9521 14.5322 25.9678 13.2754 25.9678 11.2363V11.2188C25.9678 9.17969 26.9521 7.92285 28.543 7.92285C30.1338 7.92285 31.0918 9.16211 31.0918 11.2188V11.2363C31.0918 13.2842 30.1338 14.5322 28.543 14.5322ZM40.4697 16H42.4385V3.31738H40.4697V16ZM49.0039 16.0615C49.373 16.0615 49.7246 16.0176 50.0322 15.9648V14.4443C49.7686 14.4707 49.6016 14.4795 49.3115 14.4795C48.3711 14.4795 47.9844 14.0576 47.9844 13.0293V7.95801H50.0322V6.45508H47.9844V4.04688H46.042V6.45508H44.5479V7.95801H46.042V13.4863C46.042 15.3232 46.9033 16.0615 49.0039 16.0615ZM53.249 4.75C53.8994 4.75 54.4443 4.21387 54.4443 3.56348C54.4443 2.9043 53.8994 2.36816 53.249 2.36816C52.5898 2.36816 52.0537 2.9043 52.0537 3.56348C52.0537 4.21387 52.5898 4.75 53.249 4.75ZM52.291 16H54.1895V6.45508H52.291V16ZM56.9668 16H58.874V10.4014C58.874 8.86328 59.7441 7.90527 61.1416 7.90527C62.5391 7.90527 63.1982 8.6875 63.1982 10.2695V16H65.0967V9.82129C65.0967 7.54492 63.9189 6.27051 61.7832 6.27051C60.3945 6.27051 59.4805 6.88574 59.0146 7.90527H58.874V6.45508H56.9668V16ZM71.7676 16.1846C74.2109 16.1846 75.5293 14.7783 75.8457 13.5215L75.8633 13.4424L74.0264 13.4512L73.9912 13.5215C73.7627 14.0137 73.0332 14.6201 71.8115 14.6201C70.2383 14.6201 69.2363 13.5566 69.2012 11.7285H75.9688V11.0605C75.9688 8.19531 74.334 6.27051 71.6709 6.27051C69.0078 6.27051 67.2852 8.26562 67.2852 11.2451V11.2539C67.2852 14.2773 68.9727 16.1846 71.7676 16.1846ZM71.6797 7.83496C72.9717 7.83496 73.9297 8.66113 74.0791 10.3662H69.2275C69.3945 8.72266 70.3789 7.83496 71.6797 7.83496ZM78.2363 16H80.1436V10.2959C80.1436 8.91602 81.1367 8.01953 82.5957 8.01953C82.9561 8.01953 83.2812 8.06348 83.624 8.13379V6.37598C83.4307 6.33203 83.0967 6.28809 82.7891 6.28809C81.5146 6.28809 80.627 6.88574 80.2842 7.89648H80.1436V6.45508H78.2363V16ZM87.9922 16.1582C89.2578 16.1582 90.2598 15.6133 90.8223 14.6465H90.9717V16H92.8613V9.46973C92.8613 7.46582 91.5078 6.27051 89.1084 6.27051C86.9375 6.27051 85.4346 7.31641 85.2061 8.88086L85.1973 8.94238H87.0342L87.043 8.90723C87.2715 8.23047 87.9658 7.84375 89.0205 7.84375C90.3125 7.84375 90.9717 8.42383 90.9717 9.46973V10.3135L88.3877 10.4629C86.1113 10.6035 84.8281 11.5967 84.8281 13.3018V13.3193C84.8281 15.0508 86.1729 16.1582 87.9922 16.1582ZM86.7266 13.2402V13.2227C86.7266 12.3613 87.3242 11.8867 88.6426 11.8076L90.9717 11.6582V12.4756C90.9717 13.7061 89.9258 14.6377 88.502 14.6377C87.4736 14.6377 86.7266 14.1191 86.7266 13.2402ZM95.5508 16H97.458V10.2959C97.458 8.91602 98.4512 8.01953 99.9102 8.01953C100.271 8.01953 100.596 8.06348 100.938 8.13379V6.37598C100.745 6.33203 100.411 6.28809 100.104 6.28809C98.8291 6.28809 97.9414 6.88574 97.5986 7.89648H97.458V6.45508H95.5508V16ZM103.742 19.3574C105.676 19.3574 106.643 18.6455 107.451 16.3691L111.002 6.45508H108.998L106.616 14.084H106.449L104.059 6.45508H102.002L105.465 16.0088L105.324 16.501C105.043 17.4678 104.507 17.8457 103.619 17.8457C103.399 17.8457 103.162 17.8369 102.978 17.8105V19.3135C103.224 19.3398 103.505 19.3574 103.742 19.3574Z" fill="#424D47"/>
</svg>
