<svg width="143" height="34" viewBox="0 0 143 34" fill="none" xmlns="http://www.w3.org/2000/svg">
<rect x="1" y="1" width="141" height="32" rx="12" fill="white" stroke="#BDCAC2"/>
<path d="M27.6064 22.1299C28.6865 22.1299 29.4316 21.6855 29.7939 20.8994H29.9033V22H31.0928V14.6309H29.9033V18.9922C29.9033 20.2842 29.2129 21.0771 27.9141 21.0771C26.7383 21.0771 26.2598 20.4414 26.2598 19.1152V14.6309H25.0703V19.4023C25.0703 21.1455 25.9316 22.1299 27.6064 22.1299ZM33.3145 22H34.5039V17.4336C34.5039 16.3535 35.3105 15.6357 36.4453 15.6357C36.7051 15.6357 36.9307 15.6631 37.1768 15.7041V14.5488C37.0605 14.5283 36.8076 14.501 36.582 14.501C35.584 14.501 34.8936 14.9521 34.6133 15.7246H34.5039V14.6309H33.3145V22ZM42.3105 22.1299C44.1768 22.1299 45.4004 20.6191 45.4004 18.3223V18.3086C45.4004 15.998 44.1836 14.501 42.3105 14.501C41.2988 14.501 40.417 15.0068 40.0137 15.793H39.9043V11.7051H38.7148V22H39.9043V20.8242H40.0137C40.4648 21.6445 41.2852 22.1299 42.3105 22.1299ZM42.0371 21.0771C40.6973 21.0771 39.877 20.0244 39.877 18.3223V18.3086C39.877 16.6064 40.6973 15.5537 42.0371 15.5537C43.3838 15.5537 44.1836 16.5928 44.1836 18.3086V18.3223C44.1836 20.0381 43.3838 21.0771 42.0371 21.0771ZM49.2695 22.1299C50.2607 22.1299 51.0332 21.6992 51.498 20.9131H51.6074V22H52.7969V16.9551C52.7969 15.4238 51.792 14.501 49.9941 14.501C48.4219 14.501 47.3008 15.2803 47.1094 16.4355L47.1025 16.4766H48.292L48.2988 16.4561C48.4902 15.8818 49.0713 15.5537 49.9531 15.5537C51.0537 15.5537 51.6074 16.0459 51.6074 16.9551V17.625L49.4951 17.7549C47.7793 17.8574 46.8086 18.6162 46.8086 19.9287V19.9424C46.8086 21.2822 47.8682 22.1299 49.2695 22.1299ZM48.0254 19.915V19.9014C48.0254 19.1699 48.5176 18.7734 49.6387 18.7051L51.6074 18.582V19.252C51.6074 20.3047 50.7256 21.0977 49.5156 21.0977C48.6611 21.0977 48.0254 20.6602 48.0254 19.915ZM54.9707 22H56.1602V17.6387C56.1602 16.3467 56.9053 15.5537 58.0811 15.5537C59.2568 15.5537 59.8037 16.1895 59.8037 17.5156V22H60.9932V17.2285C60.9932 15.4785 60.0703 14.501 58.416 14.501C57.3291 14.501 56.6387 14.959 56.2695 15.7383H56.1602V14.6309H54.9707V22ZM69.6133 22.1299C71.2881 22.1299 72.5664 21.2207 72.5664 19.9082V19.8945C72.5664 18.8418 71.8965 18.2402 70.5088 17.9053L69.374 17.6318C68.5059 17.4199 68.1367 17.1055 68.1367 16.6064V16.5928C68.1367 15.9434 68.7793 15.4922 69.6543 15.4922C70.543 15.4922 71.1172 15.8955 71.2744 16.4766H72.4434C72.2793 15.2734 71.2061 14.501 69.6611 14.501C68.0957 14.501 66.9199 15.4238 66.9199 16.6475V16.6543C66.9199 17.7139 67.542 18.3154 68.9229 18.6436L70.0645 18.917C70.9736 19.1357 71.3496 19.4844 71.3496 19.9834V19.9971C71.3496 20.667 70.6455 21.1387 69.6543 21.1387C68.7109 21.1387 68.123 20.7354 67.9248 20.1201H66.708C66.8447 21.3369 67.9727 22.1299 69.6133 22.1299ZM77.4199 22.1299C79.1562 22.1299 80.209 21.1455 80.4619 20.1475L80.4756 20.0928H79.2861L79.2588 20.1543C79.0605 20.5986 78.4453 21.0703 77.4473 21.0703C76.1348 21.0703 75.2939 20.1816 75.2598 18.6572H80.5645V18.1924C80.5645 15.9912 79.3477 14.501 77.3447 14.501C75.3418 14.501 74.043 16.0596 74.043 18.3359V18.3428C74.043 20.6533 75.3145 22.1299 77.4199 22.1299ZM77.3379 15.5605C78.4248 15.5605 79.2314 16.251 79.3545 17.707H75.2803C75.4102 16.3057 76.2441 15.5605 77.3379 15.5605ZM85.0283 22.0547C85.2607 22.0547 85.4863 22.0273 85.7188 21.9863V20.9746C85.5 20.9951 85.3838 21.002 85.1719 21.002C84.4062 21.002 84.1055 20.6533 84.1055 19.7852V15.6152H85.7188V14.6309H84.1055V12.7236H82.875V14.6309H81.7129V15.6152H82.875V20.0859C82.875 21.4941 83.5107 22.0547 85.0283 22.0547ZM90.1143 22.0547C90.3467 22.0547 90.5723 22.0273 90.8047 21.9863V20.9746C90.5859 20.9951 90.4697 21.002 90.2578 21.002C89.4922 21.002 89.1914 20.6533 89.1914 19.7852V15.6152H90.8047V14.6309H89.1914V12.7236H87.9609V14.6309H86.7988V15.6152H87.9609V20.0859C87.9609 21.4941 88.5967 22.0547 90.1143 22.0547ZM93.2109 13.209C93.6621 13.209 94.0312 12.8398 94.0312 12.3887C94.0312 11.9375 93.6621 11.5684 93.2109 11.5684C92.7598 11.5684 92.3906 11.9375 92.3906 12.3887C92.3906 12.8398 92.7598 13.209 93.2109 13.209ZM92.6094 22H93.7988V14.6309H92.6094V22ZM96.041 22H97.2305V17.6387C97.2305 16.3467 97.9756 15.5537 99.1514 15.5537C100.327 15.5537 100.874 16.1895 100.874 17.5156V22H102.063V17.2285C102.063 15.4785 101.141 14.501 99.4863 14.501C98.3994 14.501 97.709 14.959 97.3398 15.7383H97.2305V14.6309H96.041V22ZM107.252 24.5977C109.262 24.5977 110.533 23.5449 110.533 21.8975V14.6309H109.344V15.8477H109.262C108.811 15.0137 108.004 14.501 106.965 14.501C105.037 14.501 103.848 15.998 103.848 18.0625V18.0762C103.848 20.1406 105.03 21.6172 106.938 21.6172C107.949 21.6172 108.783 21.1592 109.248 20.3457H109.357V21.8359C109.357 22.9229 108.571 23.5449 107.252 23.5449C106.192 23.5449 105.536 23.1484 105.406 22.5879L105.399 22.5811H104.169L104.155 22.5879C104.34 23.7979 105.475 24.5977 107.252 24.5977ZM107.197 20.5645C105.83 20.5645 105.064 19.5391 105.064 18.0762V18.0625C105.064 16.5996 105.83 15.5537 107.197 15.5537C108.558 15.5537 109.385 16.5996 109.385 18.0625V18.0762C109.385 19.5391 108.564 20.5645 107.197 20.5645ZM115.277 22.1299C116.952 22.1299 118.23 21.2207 118.23 19.9082V19.8945C118.23 18.8418 117.561 18.2402 116.173 17.9053L115.038 17.6318C114.17 17.4199 113.801 17.1055 113.801 16.6064V16.5928C113.801 15.9434 114.443 15.4922 115.318 15.4922C116.207 15.4922 116.781 15.8955 116.938 16.4766H118.107C117.943 15.2734 116.87 14.501 115.325 14.501C113.76 14.501 112.584 15.4238 112.584 16.6475V16.6543C112.584 17.7139 113.206 18.3154 114.587 18.6436L115.729 18.917C116.638 19.1357 117.014 19.4844 117.014 19.9834V19.9971C117.014 20.667 116.31 21.1387 115.318 21.1387C114.375 21.1387 113.787 20.7354 113.589 20.1201H112.372C112.509 21.3369 113.637 22.1299 115.277 22.1299Z" fill="#BDCAC2"/>
</svg>
