<svg width="114" height="34" viewBox="0 0 114 34" fill="none" xmlns="http://www.w3.org/2000/svg">
<rect x="1" y="1" width="112" height="32" rx="12" fill="#2A6049" stroke="#2A6049"/>
<rect x="2" y="2" width="110" height="30" rx="12" stroke="white"/>
<path d="M27.4277 22H28.6309L31.3584 14.6309H30.1006L28.084 20.7012H27.9746L25.958 14.6309H24.7002L27.4277 22ZM33.5596 13.209C34.0107 13.209 34.3799 12.8398 34.3799 12.3887C34.3799 11.9375 34.0107 11.5684 33.5596 11.5684C33.1084 11.5684 32.7393 11.9375 32.7393 12.3887C32.7393 12.8398 33.1084 13.209 33.5596 13.209ZM32.958 22H34.1475V14.6309H32.958V22ZM39.0078 22.0547C39.2402 22.0547 39.4658 22.0273 39.6982 21.9863V20.9746C39.4795 20.9951 39.3633 21.002 39.1514 21.002C38.3857 21.002 38.085 20.6533 38.085 19.7852V15.6152H39.6982V14.6309H38.085V12.7236H36.8545V14.6309H35.6924V15.6152H36.8545V20.0859C36.8545 21.4941 37.4902 22.0547 39.0078 22.0547ZM42.1045 13.209C42.5557 13.209 42.9248 12.8398 42.9248 12.3887C42.9248 11.9375 42.5557 11.5684 42.1045 11.5684C41.6533 11.5684 41.2842 11.9375 41.2842 12.3887C41.2842 12.8398 41.6533 13.209 42.1045 13.209ZM41.5029 22H42.6924V14.6309H41.5029V22ZM47.9492 22.1299C49.7197 22.1299 50.7109 21.1797 51.0117 19.8467L51.0254 19.7715L49.8496 19.7783L49.8359 19.8193C49.5625 20.6396 48.9336 21.0771 47.9424 21.0771C46.6299 21.0771 45.7822 19.9902 45.7822 18.2949V18.2812C45.7822 16.6201 46.6162 15.5537 47.9424 15.5537C49.002 15.5537 49.6582 16.1416 49.8428 16.8662L49.8496 16.8867H51.0322L51.0254 16.8457C50.8066 15.5332 49.7334 14.501 47.9424 14.501C45.8779 14.501 44.5654 15.9912 44.5654 18.2812V18.2949C44.5654 20.6328 45.8848 22.1299 47.9492 22.1299ZM55.2363 22.1299C56.3164 22.1299 57.0615 21.6855 57.4238 20.8994H57.5332V22H58.7227V14.6309H57.5332V18.9922C57.5332 20.2842 56.8428 21.0771 55.5439 21.0771C54.3682 21.0771 53.8896 20.4414 53.8896 19.1152V14.6309H52.7002V19.4023C52.7002 21.1455 53.5615 22.1299 55.2363 22.1299ZM61.0127 22H62.2021V11.7051H61.0127V22ZM67.1035 22.0547C67.3359 22.0547 67.5615 22.0273 67.7939 21.9863V20.9746C67.5752 20.9951 67.459 21.002 67.2471 21.002C66.4814 21.002 66.1807 20.6533 66.1807 19.7852V15.6152H67.7939V14.6309H66.1807V12.7236H64.9502V14.6309H63.7881V15.6152H64.9502V20.0859C64.9502 21.4941 65.5859 22.0547 67.1035 22.0547ZM72.0391 22.1299C73.1191 22.1299 73.8643 21.6855 74.2266 20.8994H74.3359V22H75.5254V14.6309H74.3359V18.9922C74.3359 20.2842 73.6455 21.0771 72.3467 21.0771C71.1709 21.0771 70.6924 20.4414 70.6924 19.1152V14.6309H69.5029V19.4023C69.5029 21.1455 70.3643 22.1299 72.0391 22.1299ZM77.7471 22H78.9365V17.4336C78.9365 16.3535 79.7432 15.6357 80.8779 15.6357C81.1377 15.6357 81.3633 15.6631 81.6094 15.7041V14.5488C81.4932 14.5283 81.2402 14.501 81.0146 14.501C80.0166 14.501 79.3262 14.9521 79.0459 15.7246H78.9365V14.6309H77.7471V22ZM85.8818 22.1299C87.6182 22.1299 88.6709 21.1455 88.9238 20.1475L88.9375 20.0928H87.748L87.7207 20.1543C87.5225 20.5986 86.9072 21.0703 85.9092 21.0703C84.5967 21.0703 83.7559 20.1816 83.7217 18.6572H89.0264V18.1924C89.0264 15.9912 87.8096 14.501 85.8066 14.501C83.8037 14.501 82.5049 16.0596 82.5049 18.3359V18.3428C82.5049 20.6533 83.7764 22.1299 85.8818 22.1299ZM85.7998 15.5605C86.8867 15.5605 87.6934 16.251 87.8164 17.707H83.7422C83.8721 16.3057 84.7061 15.5605 85.7998 15.5605Z" fill="white"/>
</svg>
