<svg width="233" height="48" viewBox="0 0 233 48" fill="none" xmlns="http://www.w3.org/2000/svg">
<path d="M0 20C0 8.95431 8.95431 0 20 0H233V28C233 39.0457 224.046 48 213 48H20C8.9543 48 0 39.0457 0 28V20Z" fill="#F3F3F3"/>
<path d="M24.7188 29.1367C26.6807 29.1367 28.0068 27.7148 28.0068 25.4453V25.4316C28.0068 23.1621 26.6738 21.7539 24.7119 21.7539C22.75 21.7539 21.4238 23.1689 21.4238 25.4316V25.4453C21.4238 27.708 22.7432 29.1367 24.7188 29.1367ZM24.7256 28.084C23.4678 28.084 22.6406 27.1201 22.6406 25.4453V25.4316C22.6406 23.7705 23.4746 22.8066 24.7119 22.8066C25.9697 22.8066 26.79 23.7637 26.79 25.4316V25.4453C26.79 27.1133 25.9766 28.084 24.7256 28.084ZM29.5928 29H30.7822V22.875H32.2314V21.8906H30.7686V21.0225C30.7686 20.3184 31.0967 19.9834 31.7529 19.9834C31.9375 19.9834 32.1221 19.9902 32.2656 20.0107V19.0469C32.0879 19.0195 31.8076 18.999 31.541 18.999C30.2285 18.999 29.5928 19.6484 29.5928 21.0156V21.8906H28.6016V22.875H29.5928V29ZM39.2793 29.1367C40.8857 29.1367 42.0547 28.0908 42.2461 26.7373L42.2529 26.6895H41.084L41.0703 26.7441C40.8721 27.5371 40.25 28.084 39.2793 28.084C38.0488 28.084 37.2012 27.1064 37.2012 25.4521V25.4453C37.2012 23.832 38.0283 22.8066 39.2656 22.8066C40.3115 22.8066 40.8857 23.4355 41.0635 24.1465L41.0771 24.2012H42.2393L42.2324 24.1465C42.082 22.9297 41.0361 21.7539 39.2656 21.7539C37.29 21.7539 35.9844 23.1895 35.9844 25.4316V25.4385C35.9844 27.7012 37.2627 29.1367 39.2793 29.1367ZM46.293 29.1367C48.2549 29.1367 49.5811 27.7148 49.5811 25.4453V25.4316C49.5811 23.1621 48.248 21.7539 46.2861 21.7539C44.3242 21.7539 42.998 23.1689 42.998 25.4316V25.4453C42.998 27.708 44.3174 29.1367 46.293 29.1367ZM46.2998 28.084C45.042 28.084 44.2148 27.1201 44.2148 25.4453V25.4316C44.2148 23.7705 45.0488 22.8066 46.2861 22.8066C47.5439 22.8066 48.3643 23.7637 48.3643 25.4316V25.4453C48.3643 27.1133 47.5508 28.084 46.2998 28.084ZM53.2109 29.1367C54.291 29.1367 55.0156 28.6514 55.3984 27.9883H55.4258V29H56.6152V21.8906H55.4258V26.0742C55.4258 27.2842 54.6943 28.084 53.5732 28.084C52.4795 28.084 51.9395 27.4482 51.9395 26.293V21.8906H50.75V26.5049C50.75 28.125 51.6523 29.1367 53.2109 29.1367ZM58.167 29H59.3564V24.6113C59.3564 23.5312 59.958 22.8887 60.8809 22.8887C61.168 22.8887 61.4209 22.9229 61.5166 22.957V21.8018C61.4209 21.7881 61.2432 21.7539 61.0381 21.7539C60.2383 21.7539 59.623 22.2734 59.3838 23.0938H59.3564V21.8906H58.167V29ZM65.0098 29.1367C66.5957 29.1367 67.7715 28.2617 67.7715 27.0176V27.0107C67.7715 25.999 67.252 25.4316 65.8164 25.083L64.6885 24.8096C63.9023 24.6182 63.5811 24.2832 63.5811 23.7979V23.791C63.5811 23.1621 64.1143 22.7451 64.9756 22.7451C65.8574 22.7451 66.3838 23.2031 66.4795 23.8936L66.4863 23.9414H67.6211L67.6143 23.8525C67.5254 22.6631 66.5342 21.7539 64.9756 21.7539C63.4375 21.7539 62.3643 22.6221 62.3643 23.8457V23.8525C62.3643 24.8779 63.0137 25.5 64.3535 25.8213L65.4814 26.0947C66.2881 26.293 66.5547 26.5801 66.5547 27.0928V27.0996C66.5547 27.7422 65.9805 28.1455 65.0166 28.1455C64.0459 28.1455 63.5195 27.7285 63.376 27.0176L63.3623 26.9492H62.1729L62.1797 27.0107C62.3232 28.2822 63.335 29.1367 65.0098 29.1367ZM71.9346 29.1367C73.4863 29.1367 74.6484 28.207 74.8809 27.0312L74.8945 26.9629H73.7256L73.7051 27.0244C73.5 27.6328 72.8643 28.084 71.9619 28.084C70.6973 28.084 69.8906 27.2295 69.8633 25.7666H74.9834V25.3291C74.9834 23.1963 73.8008 21.7539 71.8594 21.7539C69.918 21.7539 68.6602 23.2646 68.6602 25.4658V25.4727C68.6602 27.708 69.8906 29.1367 71.9346 29.1367ZM71.8525 22.8066C72.8916 22.8066 73.6572 23.4561 73.7734 24.8369H69.8838C70.0137 23.5107 70.8203 22.8066 71.8525 22.8066ZM75.708 30.9346H76.5557L77.5537 27.5918H76.3096L75.708 30.9346ZM81.5664 29H82.7969V19.1357H81.5664V29ZM84.335 22.4785H85.1826L86.1807 19.1357H84.9365L84.335 22.4785ZM87.3906 29H88.5801V19.1357H87.3906V29ZM90.248 29H91.4375V19.1357H90.248V29ZM96.585 20.6875C97.002 20.6875 97.3301 20.3525 97.3301 19.9424C97.3301 19.5254 97.002 19.1973 96.585 19.1973C96.1748 19.1973 95.8398 19.5254 95.8398 19.9424C95.8398 20.3525 96.1748 20.6875 96.585 20.6875ZM95.9902 29H97.1797V21.8906H95.9902V29ZM98.7998 29H99.9893V24.8164C99.9893 23.6064 100.721 22.8066 101.842 22.8066C102.936 22.8066 103.476 23.4424 103.476 24.5977V29H104.665V24.3857C104.665 22.7656 103.763 21.7539 102.204 21.7539C101.124 21.7539 100.399 22.2393 100.017 22.9023H99.9893V21.8906H98.7998V29ZM108.186 29H109.402L112.014 21.8906H110.776L108.808 27.7354H108.78L106.818 21.8906H105.567L108.186 29ZM113.62 20.6875C114.037 20.6875 114.365 20.3525 114.365 19.9424C114.365 19.5254 114.037 19.1973 113.62 19.1973C113.21 19.1973 112.875 19.5254 112.875 19.9424C112.875 20.3525 113.21 20.6875 113.62 20.6875ZM113.025 29H114.215V21.8906H113.025V29ZM118.146 29.1367C118.378 29.1367 118.631 29.1094 118.781 29.0889V28.125C118.679 28.1318 118.542 28.1523 118.398 28.1523C117.763 28.1523 117.428 27.9404 117.428 27.1816V22.875H118.781V21.8906H117.428V19.9697H116.197V21.8906H115.158V22.875H116.197V27.1885C116.197 28.5488 116.84 29.1367 118.146 29.1367ZM122.78 29.1367C124.332 29.1367 125.494 28.207 125.727 27.0312L125.74 26.9629H124.571L124.551 27.0244C124.346 27.6328 123.71 28.084 122.808 28.084C121.543 28.084 120.736 27.2295 120.709 25.7666H125.829V25.3291C125.829 23.1963 124.646 21.7539 122.705 21.7539C120.764 21.7539 119.506 23.2646 119.506 25.4658V25.4727C119.506 27.708 120.736 29.1367 122.78 29.1367ZM122.698 22.8066C123.737 22.8066 124.503 23.4561 124.619 24.8369H120.729C120.859 23.5107 121.666 22.8066 122.698 22.8066ZM130.587 31.3926C131.872 31.3926 132.494 30.8047 133 29.4443L135.775 21.8906H134.524L132.556 27.8105H132.528L130.566 21.8906H129.295L131.934 29.0068L131.79 29.4102C131.503 30.2168 131.086 30.4082 130.334 30.4082C130.19 30.4082 130.054 30.3877 129.951 30.3672V31.3379C130.102 31.3652 130.354 31.3926 130.587 31.3926ZM139.385 29.1367C141.347 29.1367 142.673 27.7148 142.673 25.4453V25.4316C142.673 23.1621 141.34 21.7539 139.378 21.7539C137.416 21.7539 136.09 23.1689 136.09 25.4316V25.4453C136.09 27.708 137.409 29.1367 139.385 29.1367ZM139.392 28.084C138.134 28.084 137.307 27.1201 137.307 25.4453V25.4316C137.307 23.7705 138.141 22.8066 139.378 22.8066C140.636 22.8066 141.456 23.7637 141.456 25.4316V25.4453C141.456 27.1133 140.643 28.084 139.392 28.084ZM146.303 29.1367C147.383 29.1367 148.107 28.6514 148.49 27.9883H148.518V29H149.707V21.8906H148.518V26.0742C148.518 27.2842 147.786 28.084 146.665 28.084C145.571 28.084 145.031 27.4482 145.031 26.293V21.8906H143.842V26.5049C143.842 28.125 144.744 29.1367 146.303 29.1367ZM154.13 29H155.319V24.6113C155.319 23.5312 155.921 22.8887 156.844 22.8887C157.131 22.8887 157.384 22.9229 157.479 22.957V21.8018C157.384 21.7881 157.206 21.7539 157.001 21.7539C156.201 21.7539 155.586 22.2734 155.347 23.0938H155.319V21.8906H154.13V29ZM159.12 20.6875C159.537 20.6875 159.865 20.3525 159.865 19.9424C159.865 19.5254 159.537 19.1973 159.12 19.1973C158.71 19.1973 158.375 19.5254 158.375 19.9424C158.375 20.3525 158.71 20.6875 159.12 20.6875ZM158.525 29H159.715V21.8906H158.525V29ZM164.343 31.5293C166.271 31.5293 167.48 30.4492 167.48 28.8018V21.8906H166.291V23.0938H166.264C165.826 22.3008 165.033 21.7539 164.028 21.7539C162.224 21.7539 160.986 23.1895 160.986 25.3975V25.4043C160.986 27.626 162.21 29.0684 164.001 29.0684C165.02 29.0684 165.84 28.5625 166.264 27.7764H166.291V28.6855C166.291 29.7861 165.58 30.4766 164.329 30.4766C163.358 30.4766 162.682 30.1621 162.456 29.6494L162.429 29.5879H161.232L161.246 29.6494C161.479 30.7021 162.586 31.5293 164.343 31.5293ZM164.261 28.0156C162.996 28.0156 162.203 27.0176 162.203 25.4043V25.3975C162.203 23.8184 162.996 22.8066 164.261 22.8066C165.464 22.8066 166.291 23.832 166.291 25.3975V25.4043C166.291 26.9834 165.471 28.0156 164.261 28.0156ZM169.08 29H170.27V24.8506C170.27 23.6406 171.001 22.8066 172.102 22.8066C173.209 22.8066 173.865 23.5654 173.865 24.8506V29H175.055V24.6455C175.055 22.9229 174.022 21.7539 172.512 21.7539C171.452 21.7539 170.68 22.2256 170.297 23.0254H170.27V19.1357H169.08V29ZM178.876 29.1367C179.108 29.1367 179.361 29.1094 179.512 29.0889V28.125C179.409 28.1318 179.272 28.1523 179.129 28.1523C178.493 28.1523 178.158 27.9404 178.158 27.1816V22.875H179.512V21.8906H178.158V19.9697H176.928V21.8906H175.889V22.875H176.928V27.1885C176.928 28.5488 177.57 29.1367 178.876 29.1367ZM183.661 29H184.851V24.8164C184.851 23.6064 185.582 22.8066 186.703 22.8066C187.797 22.8066 188.337 23.4424 188.337 24.5977V29H189.526V24.3857C189.526 22.7656 188.624 21.7539 187.065 21.7539C185.985 21.7539 185.261 22.2393 184.878 22.9023H184.851V21.8906H183.661V29ZM193.99 29.1367C195.952 29.1367 197.278 27.7148 197.278 25.4453V25.4316C197.278 23.1621 195.945 21.7539 193.983 21.7539C192.021 21.7539 190.695 23.1689 190.695 25.4316V25.4453C190.695 27.708 192.015 29.1367 193.99 29.1367ZM193.997 28.084C192.739 28.084 191.912 27.1201 191.912 25.4453V25.4316C191.912 23.7705 192.746 22.8066 193.983 22.8066C195.241 22.8066 196.062 23.7637 196.062 25.4316V25.4453C196.062 27.1133 195.248 28.084 193.997 28.084ZM199.89 29H201.1L202.699 23.4971H202.727L204.333 29H205.543L207.525 21.8906H206.35L204.928 27.6738H204.9L203.287 21.8906H202.139L200.532 27.6738H200.505L199.083 21.8906H197.9L199.89 29ZM209.063 25.7256H210.13L210.212 19.1357H208.981L209.063 25.7256ZM209.597 29.0684C210.041 29.0684 210.376 28.7266 210.376 28.2891C210.376 27.8447 210.041 27.5098 209.597 27.5098C209.159 27.5098 208.817 27.8447 208.817 28.2891C208.817 28.7266 209.159 29.0684 209.597 29.0684Z" fill="#424D47"/>
</svg>
